<?xml version="1.0" standalone="no"?>
<svg xmlns="http://www.w3.org/2000/svg" version="1.2" baseProfile="tiny" width="159" height="256" viewBox="0 0 159 256">
<rect x="0" y="0" width="159" height="256" id="0" fill="rgb(235,235,234)" fill-opacity="1" />
<ellipse cx="41" cy="72" rx="55" ry="63" id="1" fill="rgb(194,196,198)" fill-opacity="0.501961" />
<ellipse cx="99" cy="202" rx="115" ry="75" id="2" fill="rgb(255,255,254)" fill-opacity="0.501961" />
<ellipse cx="9" cy="55" rx="80" ry="26" id="3" fill="rgb(195,194,194)" fill-opacity="0.501961" />
<ellipse cx="158" cy="86" rx="18" ry="15" id="4" fill="rgb(177,176,177)" fill-opacity="0.501961" />
<ellipse cx="13" cy="118" rx="46" ry="29" id="5" fill="rgb(223,222,224)" fill-opacity="0.501961" />
<ellipse cx="131" cy="20" rx="36" ry="59" id="6" fill="rgb(250,250,247)" fill-opacity="0.501961" />
<ellipse cx="100" cy="76" rx="37" ry="15" id="7" fill="rgb(244,242,240)" fill-opacity="0.501961" />
<ellipse cx="88" cy="20" rx="25" ry="4" id="8" fill="rgb(154,192,221)" fill-opacity="0.501961" />
<ellipse cx="67" cy="99" rx="36" ry="28" id="9" fill="rgb(224,223,225)" fill-opacity="0.501961" />
<ellipse cx="26" cy="4" rx="37" ry="15" id="10" fill="rgb(248,253,252)" fill-opacity="0.501961" />
<ellipse cx="128" cy="133" rx="32" ry="43" id="11" fill="rgb(249,247,245)" fill-opacity="0.501961" />
<ellipse cx="3" cy="136" rx="33" ry="14" id="12" fill="rgb(213,214,215)" fill-opacity="0.501961" />
<ellipse cx="9" cy="81" rx="21" ry="14" id="13" fill="rgb(200,200,200)" fill-opacity="0.501961" />
<ellipse cx="48" cy="160" rx="49" ry="14" id="14" fill="rgb(252,252,255)" fill-opacity="0.501961" />
<ellipse cx="19" cy="101" rx="20" ry="10" id="15" fill="rgb(234,235,236)" fill-opacity="0.501961" />
<ellipse cx="82" cy="38" rx="10" ry="9" id="16" fill="rgb(194,194,194)" fill-opacity="0.501961" />
<ellipse cx="84" cy="98" rx="18" ry="24" id="17" fill="rgb(216,217,217)" fill-opacity="0.501961" />
<ellipse cx="97" cy="135" rx="28" ry="15" id="18" fill="rgb(253,253,255)" fill-opacity="0.501961" />
<ellipse cx="44" cy="89" rx="17" ry="6" id="19" fill="rgb(240,240,241)" fill-opacity="0.501961" />
<ellipse cx="78" cy="243" rx="5" ry="6" id="20" fill="rgb(179,205,223)" fill-opacity="0.501961" />
<ellipse cx="157" cy="141" rx="32" ry="41" id="21" fill="rgb(243,242,237)" fill-opacity="0.501961" />
<ellipse cx="1" cy="6" rx="17" ry="23" id="22" fill="rgb(255,254,252)" fill-opacity="0.501961" />
<ellipse cx="44" cy="21" rx="30" ry="3" id="23" fill="rgb(157,214,221)" fill-opacity="0.501961" />
<ellipse cx="47" cy="27" rx="90" ry="4" id="24" fill="rgb(241,241,241)" fill-opacity="0.501961" />
<ellipse cx="103" cy="12" rx="18" ry="7" id="25" fill="rgb(254,252,249)" fill-opacity="0.501961" />
<ellipse cx="93" cy="65" rx="9" ry="6" id="26" fill="rgb(255,255,255)" fill-opacity="0.501961" />
<ellipse cx="26" cy="14" rx="3" ry="9" id="27" fill="rgb(160,209,222)" fill-opacity="0.501961" />
<ellipse cx="6" cy="176" rx="31" ry="19" id="28" fill="rgb(252,253,255)" fill-opacity="0.501961" />
<ellipse cx="102" cy="177" rx="44" ry="14" id="29" fill="rgb(243,241,236)" fill-opacity="0.501961" />
<ellipse cx="1" cy="84" rx="21" ry="14" id="30" fill="rgb(202,202,203)" fill-opacity="0.501961" />
<ellipse cx="158" cy="14" rx="16" ry="3" id="31" fill="rgb(188,211,229)" fill-opacity="0.501961" />
<ellipse cx="68" cy="9" rx="18" ry="9" id="32" fill="rgb(227,227,228)" fill-opacity="0.501961" />
<ellipse cx="63" cy="79" rx="7" ry="4" id="33" fill="rgb(253,254,255)" fill-opacity="0.501961" />
<ellipse cx="21" cy="247" rx="54" ry="40" id="34" fill="rgb(247,245,242)" fill-opacity="0.501961" />
<ellipse cx="108" cy="5" rx="25" ry="13" id="35" fill="rgb(250,249,247)" fill-opacity="0.501961" />
<ellipse cx="73" cy="45" rx="20" ry="16" id="36" fill="rgb(203,203,203)" fill-opacity="0.501961" />
<ellipse cx="117" cy="69" rx="19" ry="40" id="37" fill="rgb(244,241,237)" fill-opacity="0.501961" />
<ellipse cx="53" cy="66" rx="28" ry="8" id="38" fill="rgb(203,203,203)" fill-opacity="0.501961" />
<ellipse cx="28" cy="122" rx="31" ry="19" id="39" fill="rgb(219,219,219)" fill-opacity="0.501961" />
<ellipse cx="100" cy="139" rx="28" ry="21" id="40" fill="rgb(249,249,251)" fill-opacity="0.501961" />
<ellipse cx="93" cy="101" rx="12" ry="6" id="41" fill="rgb(211,211,211)" fill-opacity="0.501961" />
<ellipse cx="135" cy="97" rx="6" ry="20" id="42" fill="rgb(249,248,243)" fill-opacity="0.501961" />
<ellipse cx="155" cy="17" rx="4" ry="25" id="43" fill="rgb(252,249,245)" fill-opacity="0.501961" />
<ellipse cx="27" cy="15" rx="7" ry="3" id="44" fill="rgb(250,248,246)" fill-opacity="0.501961" />
<ellipse cx="79" cy="111" rx="30" ry="6" id="45" fill="rgb(222,222,223)" fill-opacity="0.501961" />
<ellipse cx="84" cy="20" rx="6" ry="4" id="46" fill="rgb(231,230,229)" fill-opacity="0.501961" />
<ellipse cx="26" cy="64" rx="31" ry="23" id="47" fill="rgb(204,204,204)" fill-opacity="0.501961" />
<ellipse cx="113" cy="120" rx="5" ry="22" id="48" fill="rgb(251,252,253)" fill-opacity="0.501961" />
<ellipse cx="43" cy="114" rx="22" ry="23" id="49" fill="rgb(219,219,219)" fill-opacity="0.501961" />
<ellipse cx="50" cy="14" rx="24" ry="5" id="50" fill="rgb(229,231,232)" fill-opacity="0.501961" />
<ellipse cx="136" cy="139" rx="5" ry="9" id="51" fill="rgb(233,228,224)" fill-opacity="0.501961" />
<ellipse cx="148" cy="14" rx="5" ry="4" id="52" fill="rgb(165,197,223)" fill-opacity="0.501961" />
<ellipse cx="47" cy="57" rx="31" ry="22" id="53" fill="rgb(205,205,205)" fill-opacity="0.501961" />
<ellipse cx="62" cy="102" rx="28" ry="18" id="54" fill="rgb(221,221,222)" fill-opacity="0.501961" />
<ellipse cx="95" cy="19" rx="17" ry="1" id="55" fill="rgb(146,187,219)" fill-opacity="0.501961" />
<ellipse cx="80" cy="74" rx="7" ry="6" id="56" fill="rgb(243,244,247)" fill-opacity="0.501961" />
<ellipse cx="8" cy="101" rx="14" ry="5" id="57" fill="rgb(241,242,243)" fill-opacity="0.501961" />
<ellipse cx="108" cy="94" rx="4" ry="9" id="58" fill="rgb(254,255,255)" fill-opacity="0.501961" />
<ellipse cx="150" cy="7" rx="22" ry="6" id="59" fill="rgb(250,248,245)" fill-opacity="0.501961" />
<ellipse cx="31" cy="118" rx="37" ry="20" id="60" fill="rgb(220,220,220)" fill-opacity="0.501961" />
<ellipse cx="88" cy="114" rx="6" ry="3" id="61" fill="rgb(255,255,255)" fill-opacity="0.501961" />
<ellipse cx="67" cy="52" rx="28" ry="14" id="62" fill="rgb(204,204,204)" fill-opacity="0.501961" />
<ellipse cx="123" cy="158" rx="17" ry="7" id="63" fill="rgb(241,239,236)" fill-opacity="0.501961" />
</svg>