<svg width="3959" height="1115" viewBox="0 0 3959 1115" fill="none" xmlns="http://www.w3.org/2000/svg">
<path d="M1191.56 668.787C1017.5 532.787 856.057 509.277 737.557 532.787C301.557 619.287 319.5 1114.79 0 1114.79H3895C4027 933.342 3935.81 723.222 3778 687.342C3529.5 630.842 3700.38 434.131 3394.5 333.842C3211.5 273.842 3089 420.842 2906 366.842C2688.05 302.529 2595.5 -0.000244141 2205.5 -0.000244141C1971.5 -0.000244141 1836.5 187.5 1769 436.5C1701.5 685.5 1624.5 775.334 1492.5 799.5C1360.5 823.666 1238.11 705.158 1191.56 668.787Z" fill="url(#paint0_linear)"/>
<defs>
<linearGradient id="paint0_linear" x1="1808.4" y1="1171.32" x2="2126.06" y2="-89.0602" gradientUnits="userSpaceOnUse">
<stop stop-color="#007CBB"/>
<stop offset="1" stop-color="#00ACBB"/>
</linearGradient>
</defs>
</svg>
