<svg width="4829" height="4225" viewBox="0 0 4829 4225" fill="none" xmlns="http://www.w3.org/2000/svg">
	<path d="M3705.95 3796.5C3886.59 3845.89 4257.51 3819.65 4442.95 3455C4636.45 3074.5 4260.34 2692 4412.34 2349.5C4525.97 2093.46 4975.05 1654.94 4779.34 1231C4604.84 853 4334.34 693.5 4496.01 0H601.002C546.157 24.0396 52.4751 321.676 10.8394 693.5C-57.6348 1305 211.339 1639 451.447 1787C600.329 1878.77 819.042 2022.13 850.007 2349.5C881.05 2677.7 611.892 2829.5 936.449 3323C1061.43 3513.04 762.949 3821.07 1041.45 3982.5C1206.39 4078.11 1423.45 3927.45 1584.45 3947.5C1809.95 3975.59 1929.45 4246.5 2352.45 4223C2619.54 4208.16 2778.87 4017.5 2864.45 3893.5C2950.03 3769.5 3058.45 3629.5 3248.45 3629.5C3438.45 3629.5 3577.95 3761.5 3705.95 3796.5Z" fill="url(#_Header3Gradient)" />
	<defs>
		<linearGradient id="_Header3Gradient" x1="2622.38" y1="-214.217" x2="156.719" y2="2934.61" gradientUnits="userSpaceOnUse">
			<stop stop-color="#007CBB" />
			<stop offset="1" stop-color="#00ACBB" />
		</linearGradient>
	</defs>
</svg>
