<svg width="2239" height="1367" viewBox="0 0 2239 1367" fill="none" xmlns="http://www.w3.org/2000/svg">
<path d="M40.9338 0H2239C1934.34 25.1007 1742.58 -12.5504 1611.75 268.04C1548.09 404.582 1487.65 512.008 1333.07 545.044C1178.49 578.08 1009.59 531.597 887.723 617.657C803.919 676.837 774.663 770.744 832.166 900.936C900.267 1055.13 880.313 1261.39 674.457 1340.2C426.245 1435.22 272.121 1256.98 224.629 1126.84C162.8 957.413 313.34 815.773 173.552 738.678C19.8401 653.903 -64.8027 482.292 60.6475 302.105C180.847 129.459 95.5942 42.4322 40.9338 0Z" fill="url(#paint0_linear)"/>
<defs>
<linearGradient id="paint0_linear" x1="1216.11" y1="-69.319" x2="524.484" y2="1196.48" gradientUnits="userSpaceOnUse">
<stop stop-color="#007CBB"/>
<stop offset="1" stop-color="#00ACBB"/>
</linearGradient>
</defs>
</svg>
