<?xml version="1.0" standalone="no"?>
<svg xmlns="http://www.w3.org/2000/svg" version="1.2" baseProfile="tiny" width="159" height="256" viewBox="0 0 159 256">
<rect x="0" y="0" width="159" height="256" id="0" fill="rgb(187,190,202)" fill-opacity="1" />
<ellipse cx="84" cy="82" rx="67" ry="54" id="1" fill="rgb(0,0,56)" fill-opacity="0.501961" />
<ellipse cx="80" cy="198" rx="158" ry="63" id="2" fill="rgb(255,255,255)" fill-opacity="0.501961" />
<ellipse cx="28" cy="117" rx="22" ry="18" id="3" fill="rgb(24,41,85)" fill-opacity="0.501961" />
<ellipse cx="51" cy="11" rx="158" ry="18" id="4" fill="rgb(255,255,255)" fill-opacity="0.501961" />
<ellipse cx="140" cy="122" rx="11" ry="15" id="5" fill="rgb(0,0,3)" fill-opacity="0.501961" />
<ellipse cx="87" cy="193" rx="158" ry="58" id="6" fill="rgb(255,255,255)" fill-opacity="0.501961" />
<ellipse cx="126" cy="60" rx="25" ry="32" id="7" fill="rgb(43,56,89)" fill-opacity="0.501961" />
<ellipse cx="38" cy="42" rx="11" ry="27" id="8" fill="rgb(255,255,249)" fill-opacity="0.501961" />
<ellipse cx="110" cy="85" rx="36" ry="51" id="9" fill="rgb(48,72,107)" fill-opacity="0.501961" />
<ellipse cx="22" cy="48" rx="10" ry="9" id="10" fill="rgb(19,3,0)" fill-opacity="0.501961" />
<ellipse cx="158" cy="89" rx="13" ry="34" id="11" fill="rgb(255,255,255)" fill-opacity="0.501961" />
<ellipse cx="46" cy="113" rx="39" ry="23" id="12" fill="rgb(72,95,134)" fill-opacity="0.501961" />
<ellipse cx="102" cy="0" rx="158" ry="29" id="13" fill="rgb(255,255,255)" fill-opacity="0.501961" />
<ellipse cx="3" cy="68" rx="6" ry="217" id="14" fill="rgb(255,255,255)" fill-opacity="0.501961" />
<ellipse cx="158" cy="101" rx="8" ry="199" id="15" fill="rgb(255,255,255)" fill-opacity="0.501961" />
<ellipse cx="81" cy="72" rx="51" ry="7" id="16" fill="rgb(12,36,61)" fill-opacity="0.501961" />
<ellipse cx="139" cy="66" rx="12" ry="40" id="17" fill="rgb(114,111,127)" fill-opacity="0.501961" />
<ellipse cx="71" cy="109" rx="63" ry="7" id="18" fill="rgb(29,45,75)" fill-opacity="0.501961" />
<ellipse cx="21" cy="89" rx="13" ry="12" id="19" fill="rgb(170,192,209)" fill-opacity="0.501961" />
<ellipse cx="120" cy="39" rx="32" ry="11" id="20" fill="rgb(58,80,150)" fill-opacity="0.501961" />
<ellipse cx="52" cy="36" rx="10" ry="8" id="21" fill="rgb(32,74,152)" fill-opacity="0.501961" />
<ellipse cx="114" cy="99" rx="5" ry="35" id="22" fill="rgb(0,8,44)" fill-opacity="0.501961" />
<ellipse cx="17" cy="110" rx="10" ry="23" id="23" fill="rgb(115,76,47)" fill-opacity="0.501961" />
<ellipse cx="114" cy="255" rx="109" ry="57" id="24" fill="rgb(254,253,250)" fill-opacity="0.501961" />
<ellipse cx="50" cy="121" rx="32" ry="9" id="25" fill="rgb(80,117,202)" fill-opacity="0.501961" />
<ellipse cx="33" cy="51" rx="5" ry="7" id="26" fill="rgb(255,255,255)" fill-opacity="0.501961" />
<ellipse cx="136" cy="165" rx="158" ry="30" id="27" fill="rgb(255,255,252)" fill-opacity="0.501961" />
<ellipse cx="57" cy="42" rx="27" ry="8" id="28" fill="rgb(76,112,174)" fill-opacity="0.501961" />
<ellipse cx="62" cy="90" rx="21" ry="13" id="29" fill="rgb(93,124,181)" fill-opacity="0.501961" />
<ellipse cx="32" cy="148" rx="158" ry="13" id="30" fill="rgb(255,255,255)" fill-opacity="0.501961" />
<ellipse cx="119" cy="128" rx="32" ry="8" id="31" fill="rgb(69,84,97)" fill-opacity="0.501961" />
<ellipse cx="69" cy="192" rx="137" ry="7" id="32" fill="rgb(215,211,206)" fill-opacity="0.501961" />
<ellipse cx="67" cy="55" rx="4" ry="22" id="33" fill="rgb(5,24,62)" fill-opacity="0.501961" />
<ellipse cx="20" cy="29" rx="23" ry="8" id="34" fill="rgb(255,255,254)" fill-opacity="0.501961" />
<ellipse cx="69" cy="80" rx="44" ry="7" id="35" fill="rgb(26,64,148)" fill-opacity="0.501961" />
<ellipse cx="116" cy="9" rx="155" ry="20" id="36" fill="rgb(255,255,255)" fill-opacity="0.501961" />
<ellipse cx="64" cy="164" rx="99" ry="2" id="37" fill="rgb(168,168,168)" fill-opacity="0.501961" />
<ellipse cx="67" cy="121" rx="4" ry="11" id="38" fill="rgb(0,2,29)" fill-opacity="0.501961" />
<ellipse cx="144" cy="52" rx="7" ry="24" id="39" fill="rgb(71,73,87)" fill-opacity="0.501961" />
<ellipse cx="11" cy="235" rx="35" ry="9" id="40" fill="rgb(208,208,207)" fill-opacity="0.501961" />
<ellipse cx="68" cy="8" rx="43" ry="3" id="41" fill="rgb(186,186,184)" fill-opacity="0.501961" />
<ellipse cx="23" cy="60" rx="7" ry="17" id="42" fill="rgb(99,79,68)" fill-opacity="0.501961" />
<ellipse cx="133" cy="94" rx="13" ry="22" id="43" fill="rgb(114,127,147)" fill-opacity="0.501961" />
<ellipse cx="5" cy="81" rx="15" ry="9" id="44" fill="rgb(255,255,255)" fill-opacity="0.501961" />
<ellipse cx="81" cy="130" rx="74" ry="6" id="45" fill="rgb(96,103,103)" fill-opacity="0.501961" />
<ellipse cx="33" cy="108" rx="5" ry="24" id="46" fill="rgb(128,162,214)" fill-opacity="0.501961" />
<ellipse cx="113" cy="118" rx="27" ry="7" id="47" fill="rgb(43,77,163)" fill-opacity="0.501961" />
<ellipse cx="53" cy="85" rx="3" ry="49" id="48" fill="rgb(144,142,166)" fill-opacity="0.501961" />
<ellipse cx="39" cy="41" rx="4" ry="26" id="49" fill="rgb(255,246,234)" fill-opacity="0.501961" />
<ellipse cx="64" cy="73" rx="3" ry="45" id="50" fill="rgb(40,58,106)" fill-opacity="0.501961" />
<ellipse cx="105" cy="108" rx="30" ry="6" id="51" fill="rgb(32,43,57)" fill-opacity="0.501961" />
<ellipse cx="34" cy="193" rx="158" ry="3" id="52" fill="rgb(255,255,255)" fill-opacity="0.501961" />
<ellipse cx="105" cy="42" rx="8" ry="10" id="53" fill="rgb(104,139,219)" fill-opacity="0.501961" />
<ellipse cx="91" cy="121" rx="5" ry="15" id="54" fill="rgb(0,16,57)" fill-opacity="0.501961" />
<ellipse cx="132" cy="96" rx="7" ry="9" id="55" fill="rgb(188,141,76)" fill-opacity="0.501961" />
<ellipse cx="29" cy="40" rx="12" ry="4" id="56" fill="rgb(145,122,107)" fill-opacity="0.501961" />
<ellipse cx="66" cy="197" rx="69" ry="2" id="57" fill="rgb(187,173,164)" fill-opacity="0.501961" />
<ellipse cx="29" cy="2" rx="16" ry="34" id="58" fill="rgb(255,255,255)" fill-opacity="0.501961" />
<ellipse cx="158" cy="115" rx="8" ry="183" id="59" fill="rgb(249,248,246)" fill-opacity="0.501961" />
<ellipse cx="141" cy="113" rx="10" ry="6" id="60" fill="rgb(56,66,78)" fill-opacity="0.501961" />
<ellipse cx="88" cy="89" rx="3" ry="22" id="61" fill="rgb(2,14,41)" fill-opacity="0.501961" />
<ellipse cx="90" cy="40" rx="7" ry="7" id="62" fill="rgb(7,21,67)" fill-opacity="0.501961" />
<ellipse cx="101" cy="108" rx="7" ry="27" id="63" fill="rgb(103,118,151)" fill-opacity="0.501961" />
<ellipse cx="3" cy="46" rx="6" ry="133" id="64" fill="rgb(250,249,245)" fill-opacity="0.501961" />
<ellipse cx="112" cy="177" rx="97" ry="10" id="65" fill="rgb(255,255,255)" fill-opacity="0.501961" />
<ellipse cx="66" cy="69" rx="55" ry="2" id="66" fill="rgb(98,122,89)" fill-opacity="0.501961" />
<ellipse cx="110" cy="54" rx="8" ry="12" id="67" fill="rgb(140,106,104)" fill-opacity="0.501961" />
<ellipse cx="133" cy="44" rx="10" ry="9" id="68" fill="rgb(88,123,203)" fill-opacity="0.501961" />
<ellipse cx="127" cy="82" rx="7" ry="5" id="69" fill="rgb(70,137,251)" fill-opacity="0.501961" />
<ellipse cx="54" cy="94" rx="8" ry="8" id="70" fill="rgb(189,150,131)" fill-opacity="0.501961" />
<ellipse cx="2" cy="172" rx="34" ry="2" id="71" fill="rgb(165,165,165)" fill-opacity="0.501961" />
<ellipse cx="118" cy="189" rx="107" ry="2" id="72" fill="rgb(178,180,182)" fill-opacity="0.501961" />
<ellipse cx="39" cy="130" rx="32" ry="6" id="73" fill="rgb(117,122,142)" fill-opacity="0.501961" />
<ellipse cx="73" cy="84" rx="6" ry="9" id="74" fill="rgb(99,151,234)" fill-opacity="0.501961" />
<ellipse cx="60" cy="34" rx="19" ry="6" id="75" fill="rgb(91,107,145)" fill-opacity="0.501961" />
<ellipse cx="49" cy="86" rx="4" ry="11" id="76" fill="rgb(161,170,207)" fill-opacity="0.501961" />
<ellipse cx="54" cy="57" rx="11" ry="9" id="77" fill="rgb(146,123,122)" fill-opacity="0.501961" />
<ellipse cx="93" cy="61" rx="3" ry="17" id="78" fill="rgb(7,22,69)" fill-opacity="0.501961" />
<ellipse cx="86" cy="133" rx="38" ry="3" id="79" fill="rgb(60,80,76)" fill-opacity="0.501961" />
<ellipse cx="44" cy="110" rx="9" ry="21" id="80" fill="rgb(38,72,148)" fill-opacity="0.501961" />
<ellipse cx="149" cy="119" rx="2" ry="16" id="81" fill="rgb(48,44,44)" fill-opacity="0.501961" />
</svg>