<?xml version="1.0" standalone="no"?>
<svg xmlns="http://www.w3.org/2000/svg" version="1.2" baseProfile="tiny" width="256" height="157" viewBox="0 0 256 157">
<rect x="0" y="0" width="256" height="157" id="0" fill="rgb(222,204,177)" fill-opacity="1" />
<ellipse cx="102" cy="24" rx="255" ry="39" id="1" fill="rgb(162,92,5)" fill-opacity="0.501961" />
<ellipse cx="122" cy="118" rx="255" ry="57" id="2" fill="rgb(255,255,255)" fill-opacity="0.501961" />
<ellipse cx="135" cy="129" rx="255" ry="34" id="3" fill="rgb(255,255,255)" fill-opacity="0.501961" />
<ellipse cx="101" cy="0" rx="132" ry="11" id="4" fill="rgb(117,92,56)" fill-opacity="0.501961" />
<ellipse cx="211" cy="35" rx="103" ry="28" id="5" fill="rgb(221,178,116)" fill-opacity="0.501961" />
<ellipse cx="1" cy="32" rx="76" ry="31" id="6" fill="rgb(175,117,57)" fill-opacity="0.501961" />
<ellipse cx="141" cy="109" rx="109" ry="14" id="7" fill="rgb(255,255,255)" fill-opacity="0.501961" />
<ellipse cx="251" cy="35" rx="35" ry="27" id="8" fill="rgb(222,192,136)" fill-opacity="0.501961" />
<ellipse cx="157" cy="147" rx="94" ry="11" id="9" fill="rgb(255,255,255)" fill-opacity="0.501961" />
<ellipse cx="153" cy="49" rx="136" ry="14" id="10" fill="rgb(206,161,98)" fill-opacity="0.501961" />
<ellipse cx="42" cy="28" rx="28" ry="7" id="11" fill="rgb(135,90,53)" fill-opacity="0.501961" />
<ellipse cx="255" cy="128" rx="15" ry="66" id="12" fill="rgb(225,226,209)" fill-opacity="0.501961" />
<ellipse cx="79" cy="135" rx="147" ry="1" id="13" fill="rgb(156,160,166)" fill-opacity="0.501961" />
<ellipse cx="26" cy="56" rx="59" ry="7" id="14" fill="rgb(192,136,65)" fill-opacity="0.501961" />
<ellipse cx="3" cy="120" rx="12" ry="57" id="15" fill="rgb(226,228,211)" fill-opacity="0.501961" />
<ellipse cx="115" cy="127" rx="114" ry="5" id="16" fill="rgb(220,224,231)" fill-opacity="0.501961" />
<ellipse cx="216" cy="1" rx="82" ry="8" id="17" fill="rgb(151,124,89)" fill-opacity="0.501961" />
<ellipse cx="191" cy="75" rx="255" ry="13" id="18" fill="rgb(230,235,224)" fill-opacity="0.501961" />
<ellipse cx="223" cy="132" rx="18" ry="36" id="19" fill="rgb(255,255,255)" fill-opacity="0.501961" />
<ellipse cx="141" cy="110" rx="100" ry="13" id="20" fill="rgb(255,255,255)" fill-opacity="0.501961" />
<ellipse cx="27" cy="4" rx="37" ry="2" id="21" fill="rgb(181,168,155)" fill-opacity="0.501961" />
<ellipse cx="72" cy="152" rx="44" ry="1" id="22" fill="rgb(157,159,166)" fill-opacity="0.501961" />
<ellipse cx="160" cy="30" rx="50" ry="22" id="23" fill="rgb(203,156,98)" fill-opacity="0.501961" />
<ellipse cx="168" cy="152" rx="56" ry="16" id="24" fill="rgb(255,255,255)" fill-opacity="0.501961" />
<ellipse cx="57" cy="30" rx="127" ry="2" id="25" fill="rgb(209,155,87)" fill-opacity="0.501961" />
<ellipse cx="7" cy="71" rx="105" ry="9" id="26" fill="rgb(236,235,224)" fill-opacity="0.501961" />
<ellipse cx="5" cy="0" rx="11" ry="9" id="27" fill="rgb(117,83,44)" fill-opacity="0.501961" />
<ellipse cx="51" cy="11" rx="112" ry="3" id="28" fill="rgb(196,145,77)" fill-opacity="0.501961" />
<ellipse cx="118" cy="42" rx="80" ry="2" id="29" fill="rgb(207,187,160)" fill-opacity="0.501961" />
<ellipse cx="25" cy="134" rx="11" ry="42" id="30" fill="rgb(249,253,255)" fill-opacity="0.501961" />
<ellipse cx="110" cy="0" rx="25" ry="10" id="31" fill="rgb(124,99,48)" fill-opacity="0.501961" />
<ellipse cx="206" cy="124" rx="181" ry="1" id="32" fill="rgb(186,185,186)" fill-opacity="0.501961" />
<ellipse cx="68" cy="141" rx="55" ry="5" id="33" fill="rgb(255,255,255)" fill-opacity="0.501961" />
<ellipse cx="67" cy="7" rx="7" ry="13" id="34" fill="rgb(152,98,32)" fill-opacity="0.501961" />
<ellipse cx="243" cy="38" rx="27" ry="25" id="35" fill="rgb(216,181,125)" fill-opacity="0.501961" />
<ellipse cx="109" cy="19" rx="25" ry="11" id="36" fill="rgb(182,142,73)" fill-opacity="0.501961" />
<ellipse cx="44" cy="147" rx="19" ry="1" id="37" fill="rgb(140,143,149)" fill-opacity="0.501961" />
<ellipse cx="237" cy="0" rx="5" ry="7" id="38" fill="rgb(202,201,187)" fill-opacity="0.501961" />
<ellipse cx="27" cy="113" rx="19" ry="3" id="39" fill="rgb(210,209,209)" fill-opacity="0.501961" />
<ellipse cx="163" cy="88" rx="255" ry="9" id="40" fill="rgb(230,231,219)" fill-opacity="0.501961" />
<ellipse cx="191" cy="48" rx="23" ry="15" id="41" fill="rgb(196,146,90)" fill-opacity="0.501961" />
<ellipse cx="49" cy="101" rx="35" ry="5" id="42" fill="rgb(255,255,255)" fill-opacity="0.501961" />
<ellipse cx="36" cy="38" rx="2" ry="25" id="43" fill="rgb(253,145,52)" fill-opacity="0.501961" />
<ellipse cx="136" cy="9" rx="67" ry="1" id="44" fill="rgb(203,168,120)" fill-opacity="0.501961" />
<ellipse cx="107" cy="55" rx="32" ry="8" id="45" fill="rgb(214,163,99)" fill-opacity="0.501961" />
<ellipse cx="174" cy="129" rx="43" ry="1" id="46" fill="rgb(181,181,182)" fill-opacity="0.501961" />
<ellipse cx="19" cy="124" rx="5" ry="30" id="47" fill="rgb(255,255,255)" fill-opacity="0.501961" />
<ellipse cx="74" cy="31" rx="17" ry="11" id="48" fill="rgb(199,155,83)" fill-opacity="0.501961" />
<ellipse cx="165" cy="17" rx="6" ry="9" id="49" fill="rgb(228,193,137)" fill-opacity="0.501961" />
<ellipse cx="61" cy="130" rx="155" ry="1" id="50" fill="rgb(188,186,188)" fill-opacity="0.501961" />
<ellipse cx="52" cy="25" rx="1" ry="3" id="51" fill="rgb(0,0,0)" fill-opacity="0.501961" />
<ellipse cx="177" cy="61" rx="56" ry="2" id="52" fill="rgb(205,153,89)" fill-opacity="0.501961" />
<ellipse cx="82" cy="24" rx="5" ry="10" id="53" fill="rgb(212,181,126)" fill-opacity="0.501961" />
<ellipse cx="208" cy="43" rx="29" ry="1" id="54" fill="rgb(211,194,170)" fill-opacity="0.501961" />
<ellipse cx="42" cy="105" rx="28" ry="8" id="55" fill="rgb(255,255,255)" fill-opacity="0.501961" />
<ellipse cx="44" cy="25" rx="4" ry="4" id="56" fill="rgb(65,59,39)" fill-opacity="0.501961" />
<ellipse cx="87" cy="34" rx="26" ry="7" id="57" fill="rgb(186,137,75)" fill-opacity="0.501961" />
<ellipse cx="235" cy="123" rx="6" ry="27" id="58" fill="rgb(255,255,255)" fill-opacity="0.501961" />
<ellipse cx="202" cy="127" rx="194" ry="2" id="59" fill="rgb(255,255,255)" fill-opacity="0.501961" />
<ellipse cx="21" cy="27" rx="6" ry="10" id="60" fill="rgb(132,97,57)" fill-opacity="0.501961" />
<ellipse cx="165" cy="42" rx="4" ry="12" id="61" fill="rgb(216,189,142)" fill-opacity="0.501961" />
<ellipse cx="35" cy="50" rx="6" ry="13" id="62" fill="rgb(228,144,52)" fill-opacity="0.501961" />
<ellipse cx="10" cy="27" rx="7" ry="16" id="63" fill="rgb(195,146,89)" fill-opacity="0.501961" />
<ellipse cx="85" cy="156" rx="71" ry="3" id="64" fill="rgb(255,255,255)" fill-opacity="0.501961" />
<ellipse cx="35" cy="114" rx="10" ry="2" id="65" fill="rgb(157,157,157)" fill-opacity="0.501961" />
<ellipse cx="86" cy="56" rx="39" ry="7" id="66" fill="rgb(198,152,88)" fill-opacity="0.501961" />
<ellipse cx="6" cy="137" rx="9" ry="75" id="67" fill="rgb(234,232,217)" fill-opacity="0.501961" />
<ellipse cx="255" cy="73" rx="94" ry="11" id="68" fill="rgb(237,235,222)" fill-opacity="0.501961" />
<ellipse cx="153" cy="17" rx="6" ry="9" id="69" fill="rgb(223,151,66)" fill-opacity="0.501961" />
<ellipse cx="50" cy="48" rx="12" ry="15" id="70" fill="rgb(191,155,95)" fill-opacity="0.501961" />
<ellipse cx="155" cy="30" rx="8" ry="5" id="71" fill="rgb(199,132,65)" fill-opacity="0.501961" />
<ellipse cx="253" cy="131" rx="13" ry="69" id="72" fill="rgb(234,231,217)" fill-opacity="0.501961" />
<ellipse cx="155" cy="136" rx="72" ry="1" id="73" fill="rgb(196,200,207)" fill-opacity="0.501961" />
<ellipse cx="188" cy="124" rx="48" ry="2" id="74" fill="rgb(213,213,215)" fill-opacity="0.501961" />
<ellipse cx="43" cy="7" rx="94" ry="2" id="75" fill="rgb(121,89,45)" fill-opacity="0.501961" />
<ellipse cx="0" cy="52" rx="34" ry="11" id="76" fill="rgb(183,124,69)" fill-opacity="0.501961" />
<ellipse cx="94" cy="113" rx="50" ry="10" id="77" fill="rgb(255,255,255)" fill-opacity="0.501961" />
<ellipse cx="174" cy="54" rx="8" ry="9" id="78" fill="rgb(195,130,74)" fill-opacity="0.501961" />
<ellipse cx="53" cy="23" rx="6" ry="2" id="79" fill="rgb(71,60,33)" fill-opacity="0.501961" />
<ellipse cx="103" cy="148" rx="45" ry="3" id="80" fill="rgb(255,255,255)" fill-opacity="0.501961" />
<ellipse cx="247" cy="42" rx="122" ry="2" id="81" fill="rgb(211,182,142)" fill-opacity="0.501961" />
<ellipse cx="29" cy="24" rx="4" ry="3" id="82" fill="rgb(104,24,34)" fill-opacity="0.501961" />
<ellipse cx="70" cy="129" rx="46" ry="1" id="83" fill="rgb(176,174,175)" fill-opacity="0.501961" />
<ellipse cx="92" cy="141" rx="77" ry="5" id="84" fill="rgb(255,255,255)" fill-opacity="0.501961" />
<ellipse cx="85" cy="132" rx="154" ry="2" id="85" fill="rgb(255,255,255)" fill-opacity="0.501961" />
<ellipse cx="36" cy="33" rx="18" ry="1" id="86" fill="rgb(66,52,28)" fill-opacity="0.501961" />
<ellipse cx="57" cy="146" rx="33" ry="1" id="87" fill="rgb(182,184,188)" fill-opacity="0.501961" />
<ellipse cx="85" cy="49" rx="6" ry="8" id="88" fill="rgb(213,185,131)" fill-opacity="0.501961" />
<ellipse cx="218" cy="34" rx="9" ry="26" id="89" fill="rgb(207,169,106)" fill-opacity="0.501961" />
<ellipse cx="128" cy="55" rx="15" ry="7" id="90" fill="rgb(214,175,113)" fill-opacity="0.501961" />
<ellipse cx="78" cy="147" rx="17" ry="3" id="91" fill="rgb(255,255,255)" fill-opacity="0.501961" />
<ellipse cx="31" cy="26" rx="3" ry="3" id="92" fill="rgb(185,19,35)" fill-opacity="0.501961" />
<ellipse cx="49" cy="79" rx="209" ry="17" id="93" fill="rgb(234,232,219)" fill-opacity="0.501961" />
</svg>