<?xml version="1.0" standalone="no"?>
<svg xmlns="http://www.w3.org/2000/svg" version="1.2" baseProfile="tiny" width="256" height="157" viewBox="0 0 256 157">
<rect x="0" y="0" width="256" height="157" id="0" fill="rgb(184,168,141)" fill-opacity="1" />
<ellipse cx="160" cy="18" rx="255" ry="27" id="1" fill="rgb(255,255,255)" fill-opacity="0.501961" />
<ellipse cx="221" cy="89" rx="57" ry="46" id="2" fill="rgb(20,9,0)" fill-opacity="0.501961" />
<ellipse cx="26" cy="89" rx="48" ry="45" id="3" fill="rgb(14,11,0)" fill-opacity="0.501961" />
<ellipse cx="130" cy="146" rx="255" ry="13" id="4" fill="rgb(255,255,255)" fill-opacity="0.501961" />
<ellipse cx="100" cy="122" rx="255" ry="12" id="5" fill="rgb(90,51,0)" fill-opacity="0.501961" />
<ellipse cx="175" cy="19" rx="255" ry="26" id="6" fill="rgb(255,255,255)" fill-opacity="0.501961" />
<ellipse cx="177" cy="51" rx="255" ry="7" id="7" fill="rgb(92,57,0)" fill-opacity="0.501961" />
<ellipse cx="153" cy="146" rx="255" ry="13" id="8" fill="rgb(255,255,255)" fill-opacity="0.501961" />
<ellipse cx="129" cy="89" rx="48" ry="45" id="9" fill="rgb(239,148,78)" fill-opacity="0.501961" />
<ellipse cx="124" cy="15" rx="255" ry="30" id="10" fill="rgb(255,255,255)" fill-opacity="0.501961" />
<ellipse cx="222" cy="91" rx="48" ry="43" id="11" fill="rgb(88,85,20)" fill-opacity="0.501961" />
<ellipse cx="77" cy="89" rx="10" ry="32" id="12" fill="rgb(255,179,109)" fill-opacity="0.501961" />
<ellipse cx="40" cy="155" rx="20" ry="6" id="13" fill="rgb(143,101,23)" fill-opacity="0.501961" />
<ellipse cx="13" cy="28" rx="255" ry="17" id="14" fill="rgb(255,255,255)" fill-opacity="0.501961" />
<ellipse cx="99" cy="110" rx="15" ry="12" id="15" fill="rgb(112,54,24)" fill-opacity="0.501961" />
<ellipse cx="162" cy="78" rx="16" ry="25" id="16" fill="rgb(240,177,118)" fill-opacity="0.501961" />
<ellipse cx="69" cy="127" rx="26" ry="7" id="17" fill="rgb(38,28,0)" fill-opacity="0.501961" />
<ellipse cx="173" cy="126" rx="27" ry="8" id="18" fill="rgb(43,36,6)" fill-opacity="0.501961" />
<ellipse cx="143" cy="142" rx="255" ry="8" id="19" fill="rgb(255,255,255)" fill-opacity="0.501961" />
<ellipse cx="33" cy="84" rx="38" ry="40" id="20" fill="rgb(100,96,26)" fill-opacity="0.501961" />
<ellipse cx="45" cy="118" rx="26" ry="16" id="21" fill="rgb(63,62,25)" fill-opacity="0.501961" />
<ellipse cx="241" cy="61" rx="45" ry="17" id="22" fill="rgb(121,112,54)" fill-opacity="0.501961" />
<ellipse cx="178" cy="51" rx="31" ry="7" id="23" fill="rgb(30,24,4)" fill-opacity="0.501961" />
<ellipse cx="219" cy="20" rx="255" ry="25" id="24" fill="rgb(254,255,255)" fill-opacity="0.501961" />
<ellipse cx="128" cy="16" rx="51" ry="4" id="25" fill="rgb(182,182,183)" fill-opacity="0.501961" />
<ellipse cx="143" cy="108" rx="22" ry="10" id="26" fill="rgb(242,201,140)" fill-opacity="0.501961" />
<ellipse cx="107" cy="128" rx="10" ry="11" id="27" fill="rgb(255,223,169)" fill-opacity="0.501961" />
<ellipse cx="247" cy="101" rx="46" ry="33" id="28" fill="rgb(80,67,30)" fill-opacity="0.501961" />
<ellipse cx="164" cy="73" rx="15" ry="20" id="29" fill="rgb(225,168,116)" fill-opacity="0.501961" />
<ellipse cx="84" cy="61" rx="23" ry="9" id="30" fill="rgb(205,132,70)" fill-opacity="0.501961" />
<ellipse cx="114" cy="54" rx="4" ry="15" id="31" fill="rgb(252,233,199)" fill-opacity="0.501961" />
<ellipse cx="133" cy="151" rx="11" ry="29" id="32" fill="rgb(255,251,243)" fill-opacity="0.501961" />
<ellipse cx="230" cy="153" rx="143" ry="19" id="33" fill="rgb(254,255,255)" fill-opacity="0.501961" />
<ellipse cx="189" cy="117" rx="24" ry="17" id="34" fill="rgb(82,88,42)" fill-opacity="0.501961" />
<ellipse cx="185" cy="69" rx="6" ry="21" id="35" fill="rgb(49,33,8)" fill-opacity="0.501961" />
<ellipse cx="62" cy="71" rx="7" ry="26" id="36" fill="rgb(138,128,58)" fill-opacity="0.501961" />
<ellipse cx="124" cy="118" rx="9" ry="4" id="37" fill="rgb(94,15,0)" fill-opacity="0.501961" />
<ellipse cx="8" cy="39" rx="255" ry="6" id="38" fill="rgb(255,255,255)" fill-opacity="0.501961" />
<ellipse cx="77" cy="153" rx="11" ry="4" id="39" fill="rgb(185,194,30)" fill-opacity="0.501961" />
<ellipse cx="99" cy="102" rx="5" ry="18" id="40" fill="rgb(110,75,43)" fill-opacity="0.501961" />
<ellipse cx="54" cy="156" rx="13" ry="3" id="41" fill="rgb(255,255,255)" fill-opacity="0.501961" />
<ellipse cx="17" cy="116" rx="52" ry="18" id="42" fill="rgb(76,71,32)" fill-opacity="0.501961" />
<ellipse cx="29" cy="141" rx="251" ry="8" id="43" fill="rgb(255,255,255)" fill-opacity="0.501961" />
<ellipse cx="147" cy="75" rx="13" ry="24" id="44" fill="rgb(204,134,74)" fill-opacity="0.501961" />
<ellipse cx="254" cy="119" rx="91" ry="15" id="45" fill="rgb(85,79,39)" fill-opacity="0.501961" />
<ellipse cx="122" cy="101" rx="21" ry="7" id="46" fill="rgb(229,195,142)" fill-opacity="0.501961" />
<ellipse cx="0" cy="58" rx="45" ry="14" id="47" fill="rgb(83,77,42)" fill-opacity="0.501961" />
<ellipse cx="12" cy="87" rx="41" ry="7" id="48" fill="rgb(127,123,56)" fill-opacity="0.501961" />
<ellipse cx="31" cy="156" rx="4" ry="6" id="49" fill="rgb(96,65,20)" fill-opacity="0.501961" />
<ellipse cx="194" cy="108" rx="10" ry="23" id="50" fill="rgb(116,109,55)" fill-opacity="0.501961" />
<ellipse cx="58" cy="50" rx="32" ry="6" id="51" fill="rgb(99,98,44)" fill-opacity="0.501961" />
<ellipse cx="120" cy="67" rx="3" ry="14" id="52" fill="rgb(160,77,39)" fill-opacity="0.501961" />
<ellipse cx="167" cy="69" rx="13" ry="14" id="53" fill="rgb(224,172,122)" fill-opacity="0.501961" />
<ellipse cx="128" cy="73" rx="8" ry="21" id="54" fill="rgb(235,187,134)" fill-opacity="0.501961" />
<ellipse cx="118" cy="87" rx="4" ry="5" id="55" fill="rgb(113,55,24)" fill-opacity="0.501961" />
<ellipse cx="91" cy="121" rx="9" ry="3" id="56" fill="rgb(90,7,0)" fill-opacity="0.501961" />
<ellipse cx="224" cy="54" rx="28" ry="10" id="57" fill="rgb(114,101,49)" fill-opacity="0.501961" />
<ellipse cx="20" cy="15" rx="58" ry="30" id="58" fill="rgb(255,255,255)" fill-opacity="0.501961" />
<ellipse cx="133" cy="47" rx="14" ry="2" id="59" fill="rgb(113,35,9)" fill-opacity="0.501961" />
<ellipse cx="156" cy="124" rx="7" ry="10" id="60" fill="rgb(204,97,50)" fill-opacity="0.501961" />
<ellipse cx="93" cy="114" rx="7" ry="3" id="61" fill="rgb(255,195,143)" fill-opacity="0.501961" />
<ellipse cx="165" cy="50" rx="20" ry="4" id="62" fill="rgb(36,34,10)" fill-opacity="0.501961" />
<ellipse cx="77" cy="69" rx="11" ry="13" id="63" fill="rgb(230,175,126)" fill-opacity="0.501961" />
<ellipse cx="38" cy="153" rx="10" ry="2" id="64" fill="rgb(99,59,3)" fill-opacity="0.501961" />
<ellipse cx="255" cy="68" rx="25" ry="8" id="65" fill="rgb(135,118,70)" fill-opacity="0.501961" />
<ellipse cx="88" cy="150" rx="136" ry="1" id="66" fill="rgb(222,223,223)" fill-opacity="0.501961" />
<ellipse cx="156" cy="110" rx="10" ry="12" id="67" fill="rgb(222,166,107)" fill-opacity="0.501961" />
<ellipse cx="21" cy="80" rx="21" ry="22" id="68" fill="rgb(116,107,55)" fill-opacity="0.501961" />
<ellipse cx="100" cy="49" rx="9" ry="5" id="69" fill="rgb(155,75,29)" fill-opacity="0.501961" />
<ellipse cx="109" cy="112" rx="10" ry="4" id="70" fill="rgb(95,23,7)" fill-opacity="0.501961" />
<ellipse cx="162" cy="156" rx="77" ry="2" id="71" fill="rgb(204,206,208)" fill-opacity="0.501961" />
<ellipse cx="188" cy="58" rx="11" ry="6" id="72" fill="rgb(40,31,9)" fill-opacity="0.501961" />
<ellipse cx="184" cy="131" rx="27" ry="3" id="73" fill="rgb(42,45,19)" fill-opacity="0.501961" />
<ellipse cx="8" cy="146" rx="13" ry="12" id="74" fill="rgb(255,255,255)" fill-opacity="0.501961" />
</svg>