<?xml version="1.0" standalone="no"?>
<svg xmlns="http://www.w3.org/2000/svg" version="1.2" baseProfile="tiny" width="256" height="152" viewBox="0 0 256 152">
<rect x="0" y="0" width="256" height="152" id="0" fill="rgb(189,187,181)" fill-opacity="1" />
<ellipse cx="73" cy="94" rx="133" ry="31" id="1" fill="rgb(77,97,47)" fill-opacity="0.501961" />
<ellipse cx="148" cy="21" rx="122" ry="41" id="2" fill="rgb(253,255,255)" fill-opacity="0.501961" />
<ellipse cx="108" cy="143" rx="255" ry="20" id="3" fill="rgb(255,237,245)" fill-opacity="0.501961" />
<ellipse cx="174" cy="113" rx="18" ry="11" id="4" fill="rgb(23,40,15)" fill-opacity="0.501961" />
<ellipse cx="181" cy="76" rx="161" ry="17" id="5" fill="rgb(144,155,129)" fill-opacity="0.501961" />
<ellipse cx="114" cy="120" rx="80" ry="3" id="6" fill="rgb(39,47,28)" fill-opacity="0.501961" />
<ellipse cx="151" cy="17" rx="125" ry="35" id="7" fill="rgb(227,235,255)" fill-opacity="0.501961" />
<ellipse cx="202" cy="105" rx="12" ry="17" id="8" fill="rgb(237,238,229)" fill-opacity="0.501961" />
<ellipse cx="0" cy="65" rx="86" ry="27" id="9" fill="rgb(143,147,139)" fill-opacity="0.501961" />
<ellipse cx="40" cy="113" rx="152" ry="10" id="10" fill="rgb(85,87,67)" fill-opacity="0.501961" />
<ellipse cx="155" cy="141" rx="255" ry="19" id="11" fill="rgb(255,209,211)" fill-opacity="0.501961" />
<ellipse cx="227" cy="69" rx="52" ry="16" id="12" fill="rgb(143,147,129)" fill-opacity="0.501961" />
<ellipse cx="255" cy="106" rx="7" ry="18" id="13" fill="rgb(71,88,16)" fill-opacity="0.501961" />
<ellipse cx="40" cy="45" rx="8" ry="8" id="14" fill="rgb(240,250,255)" fill-opacity="0.501961" />
<ellipse cx="16" cy="143" rx="47" ry="20" id="15" fill="rgb(255,246,247)" fill-opacity="0.501961" />
<ellipse cx="4" cy="0" rx="12" ry="16" id="16" fill="rgb(255,255,255)" fill-opacity="0.501961" />
<ellipse cx="226" cy="151" rx="36" ry="37" id="17" fill="rgb(236,188,188)" fill-opacity="0.501961" />
<ellipse cx="227" cy="97" rx="37" ry="6" id="18" fill="rgb(239,237,218)" fill-opacity="0.501961" />
<ellipse cx="159" cy="151" rx="32" ry="19" id="19" fill="rgb(255,247,249)" fill-opacity="0.501961" />
<ellipse cx="159" cy="95" rx="34" ry="10" id="20" fill="rgb(163,183,131)" fill-opacity="0.501961" />
<ellipse cx="62" cy="90" rx="115" ry="10" id="21" fill="rgb(147,176,113)" fill-opacity="0.501961" />
<ellipse cx="202" cy="24" rx="77" ry="10" id="22" fill="rgb(250,251,255)" fill-opacity="0.501961" />
<ellipse cx="221" cy="41" rx="34" ry="15" id="23" fill="rgb(210,216,231)" fill-opacity="0.501961" />
<ellipse cx="142" cy="51" rx="72" ry="12" id="24" fill="rgb(209,219,233)" fill-opacity="0.501961" />
<ellipse cx="0" cy="115" rx="25" ry="8" id="25" fill="rgb(63,63,55)" fill-opacity="0.501961" />
<ellipse cx="192" cy="11" rx="60" ry="3" id="26" fill="rgb(183,161,172)" fill-opacity="0.501961" />
<ellipse cx="34" cy="131" rx="14" ry="2" id="27" fill="rgb(191,122,125)" fill-opacity="0.501961" />
<ellipse cx="97" cy="144" rx="32" ry="21" id="28" fill="rgb(237,182,183)" fill-opacity="0.501961" />
<ellipse cx="21" cy="29" rx="9" ry="24" id="29" fill="rgb(181,152,133)" fill-opacity="0.501961" />
<ellipse cx="26" cy="0" rx="16" ry="4" id="30" fill="rgb(255,255,255)" fill-opacity="0.501961" />
<ellipse cx="8" cy="70" rx="15" ry="14" id="31" fill="rgb(114,112,111)" fill-opacity="0.501961" />
<ellipse cx="122" cy="11" rx="48" ry="8" id="32" fill="rgb(202,218,241)" fill-opacity="0.501961" />
<ellipse cx="66" cy="61" rx="12" ry="19" id="33" fill="rgb(141,142,137)" fill-opacity="0.501961" />
<ellipse cx="116" cy="69" rx="49" ry="8" id="34" fill="rgb(156,152,157)" fill-opacity="0.501961" />
<ellipse cx="199" cy="83" rx="35" ry="9" id="35" fill="rgb(154,167,125)" fill-opacity="0.501961" />
<ellipse cx="153" cy="78" rx="19" ry="5" id="36" fill="rgb(94,89,102)" fill-opacity="0.501961" />
<ellipse cx="254" cy="80" rx="6" ry="31" id="37" fill="rgb(139,149,111)" fill-opacity="0.501961" />
<ellipse cx="52" cy="118" rx="32" ry="3" id="38" fill="rgb(163,143,111)" fill-opacity="0.501961" />
<ellipse cx="102" cy="105" rx="90" ry="3" id="39" fill="rgb(123,123,100)" fill-opacity="0.501961" />
<ellipse cx="224" cy="151" rx="4" ry="5" id="40" fill="rgb(197,45,54)" fill-opacity="0.501961" />
<ellipse cx="209" cy="58" rx="9" ry="9" id="41" fill="rgb(154,158,141)" fill-opacity="0.501961" />
<ellipse cx="88" cy="56" rx="15" ry="5" id="42" fill="rgb(235,244,253)" fill-opacity="0.501961" />
<ellipse cx="156" cy="122" rx="41" ry="2" id="43" fill="rgb(93,71,59)" fill-opacity="0.501961" />
<ellipse cx="62" cy="5" rx="35" ry="11" id="44" fill="rgb(202,214,237)" fill-opacity="0.501961" />
<ellipse cx="160" cy="110" rx="32" ry="9" id="45" fill="rgb(91,111,87)" fill-opacity="0.501961" />
<ellipse cx="153" cy="123" rx="157" ry="1" id="46" fill="rgb(236,116,128)" fill-opacity="0.501961" />
<ellipse cx="110" cy="40" rx="29" ry="15" id="47" fill="rgb(235,241,248)" fill-opacity="0.501961" />
<ellipse cx="98" cy="131" rx="12" ry="2" id="48" fill="rgb(183,100,104)" fill-opacity="0.501961" />
<ellipse cx="215" cy="111" rx="24" ry="12" id="49" fill="rgb(192,203,196)" fill-opacity="0.501961" />
<ellipse cx="103" cy="79" rx="35" ry="3" id="50" fill="rgb(167,188,139)" fill-opacity="0.501961" />
<ellipse cx="212" cy="95" rx="23" ry="4" id="51" fill="rgb(235,242,230)" fill-opacity="0.501961" />
<ellipse cx="238" cy="87" rx="76" ry="5" id="52" fill="rgb(160,173,124)" fill-opacity="0.501961" />
<ellipse cx="21" cy="11" rx="9" ry="6" id="53" fill="rgb(243,174,75)" fill-opacity="0.501961" />
<ellipse cx="179" cy="46" rx="36" ry="9" id="54" fill="rgb(204,209,219)" fill-opacity="0.501961" />
<ellipse cx="33" cy="76" rx="44" ry="5" id="55" fill="rgb(117,116,112)" fill-opacity="0.501961" />
<ellipse cx="30" cy="55" rx="13" ry="13" id="56" fill="rgb(187,186,184)" fill-opacity="0.501961" />
<ellipse cx="240" cy="97" rx="2" ry="14" id="57" fill="rgb(203,120,111)" fill-opacity="0.501961" />
<ellipse cx="48" cy="130" rx="5" ry="8" id="58" fill="rgb(255,246,247)" fill-opacity="0.501961" />
<ellipse cx="164" cy="18" rx="7" ry="15" id="59" fill="rgb(252,254,255)" fill-opacity="0.501961" />
<ellipse cx="49" cy="38" rx="15" ry="8" id="60" fill="rgb(214,226,251)" fill-opacity="0.501961" />
<ellipse cx="168" cy="131" rx="29" ry="2" id="61" fill="rgb(209,155,159)" fill-opacity="0.501961" />
<ellipse cx="111" cy="101" rx="35" ry="5" id="62" fill="rgb(157,155,118)" fill-opacity="0.501961" />
<ellipse cx="22" cy="22" rx="13" ry="2" id="63" fill="rgb(121,134,152)" fill-opacity="0.501961" />
<ellipse cx="186" cy="138" rx="6" ry="15" id="64" fill="rgb(255,249,249)" fill-opacity="0.501961" />
<ellipse cx="111" cy="18" rx="20" ry="9" id="65" fill="rgb(192,208,234)" fill-opacity="0.501961" />
<ellipse cx="142" cy="122" rx="49" ry="1" id="66" fill="rgb(41,68,48)" fill-opacity="0.501961" />
<ellipse cx="68" cy="22" rx="34" ry="5" id="67" fill="rgb(247,249,255)" fill-opacity="0.501961" />
<ellipse cx="170" cy="97" rx="22" ry="7" id="68" fill="rgb(162,174,131)" fill-opacity="0.501961" />
<ellipse cx="65" cy="112" rx="25" ry="3" id="69" fill="rgb(82,88,72)" fill-opacity="0.501961" />
<ellipse cx="215" cy="12" rx="40" ry="2" id="70" fill="rgb(187,161,167)" fill-opacity="0.501961" />
<ellipse cx="24" cy="19" rx="17" ry="2" id="71" fill="rgb(177,185,195)" fill-opacity="0.501961" />
<ellipse cx="32" cy="150" rx="2" ry="5" id="72" fill="rgb(214,112,117)" fill-opacity="0.501961" />
<ellipse cx="29" cy="100" rx="27" ry="14" id="73" fill="rgb(132,148,101)" fill-opacity="0.501961" />
<ellipse cx="224" cy="0" rx="3" ry="25" id="74" fill="rgb(250,254,255)" fill-opacity="0.501961" />
<ellipse cx="0" cy="33" rx="6" ry="13" id="75" fill="rgb(189,202,230)" fill-opacity="0.501961" />
<ellipse cx="186" cy="44" rx="16" ry="3" id="76" fill="rgb(248,250,253)" fill-opacity="0.501961" />
<ellipse cx="59" cy="48" rx="9" ry="6" id="77" fill="rgb(169,174,167)" fill-opacity="0.501961" />
<ellipse cx="188" cy="1" rx="8" ry="9" id="78" fill="rgb(255,255,255)" fill-opacity="0.501961" />
<ellipse cx="162" cy="126" rx="29" ry="3" id="79" fill="rgb(255,252,253)" fill-opacity="0.501961" />
<ellipse cx="207" cy="114" rx="15" ry="2" id="80" fill="rgb(154,155,146)" fill-opacity="0.501961" />
<ellipse cx="137" cy="72" rx="29" ry="3" id="81" fill="rgb(163,167,169)" fill-opacity="0.501961" />
<ellipse cx="184" cy="118" rx="9" ry="2" id="82" fill="rgb(57,70,46)" fill-opacity="0.501961" />
<ellipse cx="244" cy="34" rx="9" ry="5" id="83" fill="rgb(254,254,255)" fill-opacity="0.501961" />
<ellipse cx="253" cy="7" rx="49" ry="3" id="84" fill="rgb(255,254,255)" fill-opacity="0.501961" />
<ellipse cx="104" cy="58" rx="7" ry="5" id="85" fill="rgb(219,230,242)" fill-opacity="0.501961" />
<ellipse cx="45" cy="32" rx="33" ry="3" id="86" fill="rgb(190,205,234)" fill-opacity="0.501961" />
<ellipse cx="36" cy="84" rx="33" ry="3" id="87" fill="rgb(169,191,127)" fill-opacity="0.501961" />
<ellipse cx="137" cy="114" rx="9" ry="3" id="88" fill="rgb(149,174,115)" fill-opacity="0.501961" />
<ellipse cx="206" cy="117" rx="15" ry="3" id="89" fill="rgb(218,222,209)" fill-opacity="0.501961" />
<ellipse cx="23" cy="30" rx="4" ry="18" id="90" fill="rgb(155,140,134)" fill-opacity="0.501961" />
<ellipse cx="228" cy="131" rx="10" ry="3" id="91" fill="rgb(209,143,146)" fill-opacity="0.501961" />
<ellipse cx="194" cy="113" rx="3" ry="23" id="92" fill="rgb(230,204,201)" fill-opacity="0.501961" />
</svg>