<?xml version="1.0" encoding="UTF-8" standalone="no"?>
<!DOCTYPE svg PUBLIC "-//W3C//DTD SVG 1.1//EN" "http://www.w3.org/Graphics/SVG/1.1/DTD/svg11.dtd">
<svg width="100%" height="100%" viewBox="0 0 1042 978" version="1.1" xmlns="http://www.w3.org/2000/svg" xmlns:xlink="http://www.w3.org/1999/xlink" xml:space="preserve" xmlns:serif="http://www.serif.com/" style="fill-rule:evenodd;clip-rule:evenodd;stroke-linejoin:round;stroke-miterlimit:1.41421;">
    <g transform="matrix(1,0,0,1,-812.5,-510.713)">
        <g transform="matrix(4.16667,0,0,4.16667,0,0)">
            <path d="M365.361,199.184L366.85,199.371L364.978,214.191L363.489,214.004C349.109,212.186 324.604,188.101 318.919,182.334C313.327,188.212 304.153,203.934 307.319,224.03L307.551,225.513L292.799,227.831L292.565,226.351C290.393,212.545 290.309,193.892 301.27,180.854L206.912,180.854L206.912,345.313L433.088,345.313L433.088,180.854L338.648,180.854C347.039,189.382 357.971,198.25 365.361,199.184Z" style="fill:rgb(3,4,4);fill-rule:nonzero;"/>
        </g>
        <g transform="matrix(4.16667,0,0,4.16667,0,0)">
            <path d="M370.467,168.943C366.689,172.469 362.003,174.715 357.233,176.121L437.822,176.121L437.822,350.048L202.177,350.048L202.177,176.121L281.552,176.121C277.873,174.527 274.195,172.22 270.756,168.943L195,168.943L195,357.229L445,357.229L445,350.048L445,168.943L370.467,168.943Z" style="fill:rgb(3,4,4);fill-rule:nonzero;"/>
        </g>
        <g transform="matrix(4.16667,0,0,4.16667,0,0)">
            <path d="M226.531,270.159L235.086,270.159C238.318,270.159 242.467,269.388 242.467,265.313C242.428,261.314 238.793,259.882 235.343,259.882C232.258,259.882 229.616,259.882 226.531,259.882L226.531,270.159ZM226.531,258.011L235.343,258.011C238.428,258.011 241.657,257.055 241.657,253.384C241.657,249.641 238.279,248.063 235.086,248.063L226.531,248.063L226.531,258.011ZM243.531,253.384C243.531,256.026 241.914,258.083 239.346,258.891C242.575,259.774 244.41,262.381 244.41,265.353C244.41,270.638 239.493,272.069 235.086,272.069C231.341,272.069 228.294,272.069 224.549,272.069L224.549,246.374C228.259,246.374 231.341,246.374 235.086,246.374C239.418,246.374 243.531,248.502 243.531,253.384Z" style="fill:white;fill-rule:nonzero;"/>
        </g>
        <g transform="matrix(4.16667,0,0,4.16667,0,0)">
            <path d="M251.142,246.374L251.142,270.195L265.607,270.195L265.607,272.069L249.16,272.069L249.16,246.374L251.142,246.374Z" style="fill:white;fill-rule:nonzero;"/>
        </g>
        <g transform="matrix(4.16667,0,0,4.16667,0,0)">
            <path d="M286.212,263.921L279.31,248.284L272.408,263.921L286.212,263.921ZM289.811,272.069L286.983,265.753L271.636,265.753L268.847,272.069L266.719,272.069L278.246,246.374L280.413,246.374L291.939,272.069L289.811,272.069Z" style="fill:white;fill-rule:nonzero;"/>
        </g>
        <g transform="matrix(4.16667,0,0,4.16667,0,0)">
            <path d="M314.936,268.509C312.365,271.08 308.952,272.362 305.574,272.362C296.908,272.362 292.394,266.307 292.358,259.369C292.283,252.505 296.761,246.081 305.574,246.081C308.952,246.081 312.365,247.363 314.936,249.934L313.576,251.108C311.373,248.905 308.473,247.842 305.574,247.842C298.083,247.842 294.229,253.126 294.265,259.296C294.34,265.313 298.157,270.527 305.574,270.527C308.473,270.527 311.412,269.427 313.612,267.26L314.936,268.509Z" style="fill:white;fill-rule:nonzero;"/>
        </g>
        <g transform="matrix(4.16667,0,0,4.16667,0,0)">
            <path d="M337.673,272.069L335.177,272.069L321.629,259.404L321.629,272.03L319.647,272.03L319.647,246.374L321.629,246.374L321.629,258.083L334.112,246.374L336.498,246.374L336.498,246.556L323.575,258.672L337.673,271.923L337.673,272.069Z" style="fill:white;fill-rule:nonzero;"/>
        </g>
        <g transform="matrix(4.16667,0,0,4.16667,0,0)">
            <path d="M344.375,270.159L352.936,270.159C356.167,270.159 360.316,269.388 360.316,265.313C360.277,261.314 356.643,259.882 353.193,259.882C350.108,259.882 347.46,259.882 344.375,259.882L344.375,270.159ZM344.375,258.011L353.193,258.011C356.278,258.011 359.507,257.055 359.507,253.384C359.507,249.641 356.129,248.063 352.936,248.063L344.375,248.063L344.375,258.011ZM361.381,253.384C361.381,256.026 359.764,258.083 357.195,258.891C360.424,259.774 362.26,262.381 362.26,265.353C362.26,270.638 357.342,272.069 352.936,272.069C349.188,272.069 346.139,272.069 342.393,272.069L342.393,246.374C346.103,246.374 349.188,246.374 352.936,246.374C357.268,246.374 361.381,248.502 361.381,253.384Z" style="fill:rgb(242,130,180);fill-rule:nonzero;"/>
        </g>
        <g transform="matrix(4.16667,0,0,4.16667,0,0)">
            <path d="M368.256,259.222C368.295,265.023 371.966,270.674 379.271,270.674C386.613,270.674 390.323,265.023 390.323,259.222C390.323,253.275 386.649,247.806 379.271,247.806C371.891,247.806 368.22,253.162 368.256,259.222ZM392.23,259.261C392.194,266.01 387.898,272.509 379.271,272.509C370.645,272.509 366.313,265.975 366.313,259.186C366.313,252.283 370.605,245.97 379.271,245.97C387.935,245.97 392.266,252.319 392.23,259.261Z" style="fill:rgb(242,130,180);fill-rule:nonzero;"/>
        </g>
        <g transform="matrix(4.16667,0,0,4.16667,0,0)">
            <path d="M412.623,246.409L414.751,246.409L414.751,246.445L406.014,258.891L415.451,272.03L415.451,272.069L413.102,272.069L404.803,260.324L396.505,272.069L394.155,272.069L394.155,272.03L403.593,258.891L394.854,246.445L394.854,246.409L397.019,246.409L404.803,257.386L412.623,246.409Z" style="fill:rgb(242,130,180);fill-rule:nonzero;"/>
        </g>
        <g transform="matrix(4.16667,0,0,4.16667,0,0)">
            <path d="M272.725,295.395C271.409,296.707 269.664,297.365 267.936,297.365C263.505,297.365 261.195,294.268 261.177,290.72C261.138,287.207 263.431,283.922 267.936,283.922C269.664,283.922 271.409,284.58 272.725,285.892L272.028,286.493C270.904,285.369 269.418,284.822 267.936,284.822C264.106,284.822 262.133,287.527 262.151,290.681C262.19,293.76 264.142,296.426 267.936,296.426C269.418,296.426 270.922,295.864 272.049,294.755L272.725,295.395Z" style="fill:white;fill-rule:nonzero;"/>
        </g>
        <g transform="matrix(4.16667,0,0,4.16667,0,0)">
            <path d="M292.493,293.048L288.962,285.049L285.435,293.048L292.493,293.048ZM294.334,297.216L292.887,293.987L285.04,293.987L283.611,297.216L282.523,297.216L288.418,284.071L289.527,284.071L295.422,297.216L294.334,297.216Z" style="fill:white;fill-rule:nonzero;"/>
        </g>
        <g transform="matrix(4.16667,0,0,4.16667,0,0)">
            <path d="M315.51,297.216L314.233,297.216L307.305,290.737L307.305,297.197L306.291,297.197L306.291,284.071L307.305,284.071L307.305,290.063L313.689,284.071L314.909,284.071L314.909,284.167L308.3,290.361L315.51,297.141L315.51,297.216Z" style="fill:white;fill-rule:nonzero;"/>
        </g>
        <g transform="matrix(4.16667,0,0,4.16667,0,0)">
            <path d="M327.207,290.137L334.904,290.137L334.904,291.058L327.207,291.058L327.207,296.238L335.506,296.238L335.506,297.216L326.212,297.216L326.212,284.071L335.281,284.071L335.281,285.028L327.207,285.028L327.207,290.137Z" style="fill:white;fill-rule:nonzero;"/>
        </g>
        <g transform="matrix(4.16667,0,0,4.16667,0,0)">
            <path d="M348.141,291.281L352.802,291.281C355.094,291.281 356.11,289.987 356.129,288.146C356.146,286.606 355.094,285.01 352.915,285.01L348.141,285.01L348.141,291.281ZM357.611,297.216L356.278,297.216L351.729,292.238L348.141,292.238L348.141,297.216L347.128,297.216L347.128,284.071C349.062,284.071 350.978,284.071 352.915,284.071C355.772,284.071 357.217,286.119 357.237,288.164C357.256,290.307 355.848,292.185 352.972,292.185L357.611,297.216Z" style="fill:white;fill-rule:nonzero;"/>
        </g>
        <g transform="matrix(4.16667,0,0,4.16667,0,0)">
            <path d="M372.668,291.957L367.542,284.09L367.542,284.071L368.726,284.071L373.174,290.982L377.643,284.071L378.826,284.071L378.826,284.09L373.682,291.957L373.682,297.216L372.668,297.216L372.668,291.957Z" style="fill:white;fill-rule:nonzero;"/>
        </g>
        <g transform="matrix(4.16667,0,0,4.16667,0,0)">
            <path d="M327.059,165.495C331.004,165.889 334.494,166.081 337.722,166.081C351.419,166.081 359.55,162.579 364.087,154.728C367.209,149.331 368.187,141.483 360.664,137.131C358.058,135.623 355.646,134.889 353.29,134.889C351.873,134.889 350.487,135.148 349.054,135.681C340.464,138.887 332.619,151.583 328.142,162.396L327.059,165.495ZM288.693,134.887C286.346,134.887 283.937,135.621 281.329,137.131C277.89,139.12 275.97,141.942 275.623,145.518C275.34,148.425 276.15,151.696 277.905,154.728C282.28,162.306 290.012,166.311 300.263,166.311C304.58,166.311 309.368,165.6 314.501,164.196C309.917,153.002 301.56,138.899 292.94,135.681C291.49,135.146 290.101,134.887 288.693,134.887ZM293.849,226.148C291.403,210.599 291.713,189.594 306.83,177.169C305.348,177.495 302.105,178.082 297.964,178.082C288.396,178.082 275.013,175.062 265.595,160.677C262.021,155.22 260.898,149.114 262.345,143.019C263.947,136.271 268.613,130.232 275.147,126.448C279.594,123.877 284.173,122.574 288.758,122.574C291.641,122.574 294.507,123.098 297.276,124.132C304.063,126.675 310.426,132.233 316.187,140.654L320.958,148.271C326.047,135.96 338.099,126.605 344.72,124.132C347.489,123.096 350.354,122.571 353.237,122.571C357.816,122.571 362.394,123.874 366.843,126.442C378.376,133.126 381.49,146.646 374.777,160.886C368.149,174.944 350.407,177.044 340.42,177.044C340.418,177.044 340.418,177.044 340.417,177.044C336.812,177.044 334.042,176.773 332.938,176.646C338.67,183.192 354.633,199.139 365.199,200.474L365.397,200.499L363.85,212.739L363.651,212.714C348.697,210.824 321.123,182.74 318.934,180.488C312.203,186.781 302.856,204.056 306.035,224.232L306.065,224.43L293.88,226.345L293.849,226.148Z" style="fill:rgb(3,4,4);fill-rule:nonzero;"/>
        </g>
    </g>
</svg>
