<?xml version="1.0" encoding="UTF-8" standalone="no"?>
<!DOCTYPE svg PUBLIC "-//W3C//DTD SVG 1.1//EN" "http://www.w3.org/Graphics/SVG/1.1/DTD/svg11.dtd">
<svg width="100%" height="100%" viewBox="0 0 324 100" version="1.1" xmlns="http://www.w3.org/2000/svg" xmlns:xlink="http://www.w3.org/1999/xlink" xml:space="preserve" xmlns:serif="http://www.serif.com/" style="fill-rule:evenodd;clip-rule:evenodd;stroke-linecap:square;stroke-linejoin:round;stroke-miterlimit:1.5;">
    <g transform="matrix(1,0,0,1,-71.2911,-94)">
        <g transform="matrix(0.317203,0,0,0.317203,44.6474,93.8404)">
            <path d="M232.814,41.469C232.665,41.082 232.397,40.575 231.951,40.129C231.534,39.682 230.879,39.295 230.224,38.907C230.194,38.163 230.134,37.418 229.896,36.942C229.658,36.495 229.211,36.286 228.616,35.988C228.05,35.72 227.306,35.363 226.949,34.856C226.591,34.38 226.591,33.754 226.562,33.039C226.532,32.354 226.502,31.58 226.264,30.954C226.056,30.328 225.639,29.852 225.103,29.495C224.567,29.137 223.912,28.899 223.227,28.66C223.287,28.273 223.346,27.886 223.287,27.35C223.227,26.814 223.078,26.158 222.781,25.592C222.483,25.026 222.066,24.55 221.5,24.252C220.905,23.924 220.16,23.745 219.416,23.537C219.327,23.12 219.237,22.703 219.059,22.346C218.851,21.988 218.493,21.75 218.106,21.511C217.689,21.273 217.213,21.065 216.737,20.856C216.707,20.29 216.677,19.694 216.528,19.069C216.379,18.414 216.111,17.669 215.635,17.133C215.159,16.567 214.474,16.15 213.819,15.941C213.164,15.703 212.509,15.703 211.854,15.673C211.675,15.197 211.497,14.72 210.871,14.243C210.276,13.767 209.234,13.32 207.954,12.784C206.674,12.247 205.155,11.652 203.637,11.026C202.833,10.013 201.999,9.001 201.255,8.286C200.51,7.601 199.826,7.184 198.903,7.094C198.009,7.005 196.908,7.213 195.777,7.422C195.181,6.648 194.585,5.873 193.782,5.367C192.978,4.86 191.995,4.622 190.805,4.711C189.643,4.771 188.304,5.158 187.321,5.128C186.339,5.098 185.683,4.681 185.029,4.145C184.374,3.639 183.689,2.984 182.438,2.745C181.217,2.477 179.431,2.567 177.645,2.656C177.466,2.447 177.287,2.239 177.049,2.03C176.781,1.852 176.454,1.673 175.353,1.792C174.221,1.881 172.315,2.239 171.154,2.269C169.993,2.328 169.577,2.03 169.01,1.643C168.475,1.256 167.79,0.779 166.659,0.601C165.527,0.422 163.949,0.511 162.639,0.69C161.329,0.839 160.287,1.107 159.245,1.345C158.322,1.018 157.429,0.72 156.506,0.601C155.553,0.511 154.6,0.66 153.588,1.286C152.576,1.911 151.504,3.043 150.641,3.58C149.778,4.145 149.093,4.115 147.872,3.996C146.621,3.877 144.805,3.699 143.287,3.699C141.768,3.699 140.578,3.877 139.714,3.847C138.851,3.818 138.315,3.58 137.541,3.847C136.767,4.115 135.725,4.92 134.474,5.516C133.194,6.111 131.735,6.499 130.365,7.154C128.996,7.839 127.775,8.792 126.733,9.447C125.691,10.103 124.857,10.46 124.113,10.55C123.399,10.609 122.744,10.43 121.999,10.282C121.285,10.162 120.421,10.103 119.737,10.401C119.052,10.669 118.516,11.294 118.129,11.92C117.712,12.575 117.444,13.23 117.087,13.647C116.73,14.035 116.283,14.184 115.657,14.154C115.032,14.154 114.169,13.975 113.514,14.094C112.829,14.213 112.323,14.571 111.847,15.226C111.4,15.882 110.954,16.835 110.268,17.371C109.614,17.907 108.691,18.026 107.917,18.294C107.113,18.533 106.428,18.92 105.863,19.426C105.327,19.933 104.91,20.588 104.404,21.333C103.927,22.048 103.362,22.852 102.737,23.507C102.111,24.163 101.456,24.639 100.801,25.146C99.759,25.116 98.747,25.086 97.586,25.056C96.425,25.026 95.144,25.026 93.924,25.384C92.733,25.771 91.631,26.546 90.41,27.856C89.19,29.197 87.879,31.073 86.808,33.218C85.766,35.333 84.962,37.716 84.485,40.129C84.009,42.512 83.86,44.954 84.128,47.218C84.366,49.482 84.992,51.567 85.855,53.235C86.748,54.874 87.85,56.125 88.952,56.81C90.083,57.525 91.184,57.703 93.06,58.001C94.936,58.299 97.586,58.716 102.439,59.55C107.291,60.384 114.377,61.605 120.004,62.618C125.602,63.631 129.711,64.435 132.539,65.299C135.367,66.163 136.915,67.086 137.898,67.742C138.881,68.427 139.267,68.874 139.267,70.452C139.267,72.001 138.881,74.682 138.642,78.108C138.375,81.533 138.285,85.704 138.285,89.367C138.255,93.032 138.285,96.189 138.642,99.585C139,102.98 139.744,106.644 140.697,110.189C141.679,113.734 142.9,117.189 144.299,119.87C145.698,122.551 147.246,124.517 149.093,125.559C150.968,126.632 153.112,126.781 156.565,127.078C160.019,127.406 164.723,127.823 169.606,128.3C174.519,128.777 179.58,129.283 183.808,129.521C188.065,129.76 191.459,129.7 194.169,129.76C196.908,129.849 198.992,130.087 200.332,130.534C201.672,131.011 202.297,131.695 202.922,132.381C202.654,132.828 202.356,133.274 202.029,133.93C201.701,134.555 201.285,135.359 200.987,136.402C200.659,137.445 200.421,138.755 200.421,140.006C200.421,141.257 200.659,142.479 201.225,143.432C201.761,144.385 202.624,145.041 204.143,145.725C205.632,146.381 207.775,147.066 210.157,147.751C212.539,148.407 215.188,149.091 217.838,149.747C218.523,151.772 219.208,153.828 219.535,156.419C219.893,159.011 219.893,162.198 219.416,165.832C218.94,169.437 218.017,173.517 216.558,178.373C215.099,183.228 213.104,188.888 211.527,193.862C209.918,198.837 208.668,203.096 207.656,206.85C206.614,210.603 205.78,213.879 205.274,216.679C204.738,219.48 204.5,221.833 204.5,224.276C204.5,226.688 204.738,229.22 205.244,231.543C205.78,233.897 206.584,236.041 207.418,238.216C206.822,238.246 206.197,238.305 205.274,238.395C204.321,238.514 203.041,238.692 201.701,238.871C200.362,239.08 198.992,239.288 198.009,239.527C197.027,239.765 196.431,240.003 196.134,240.986C195.866,241.969 195.896,243.667 196.044,245.335C196.194,246.973 196.461,248.582 196.848,250.071C197.265,251.561 197.771,252.931 198.307,253.974C198.843,255.016 199.409,255.701 200.064,256.297C200.719,256.893 201.493,257.369 202.029,257.876C202.535,258.352 202.833,258.829 203.25,259.246C203.666,259.633 204.202,259.931 204.619,259.991C205.006,260.08 205.274,259.901 205.513,259.752C205.542,259.812 205.572,259.871 205.661,259.961C205.721,260.08 205.84,260.199 205.988,260.318C206.138,260.437 206.346,260.497 206.524,260.557C206.703,260.586 206.852,260.616 207.031,260.616C206.644,262.463 206.286,264.34 206.019,266.127C205.721,267.944 205.542,269.701 205.572,271.012C205.602,272.322 205.84,273.216 206.197,273.842C206.584,274.497 207.09,274.914 207.597,275.331C207.626,275.689 207.626,276.046 207.834,276.314C208.043,276.612 208.4,276.821 208.787,276.91C209.145,277.029 209.502,277.029 209.859,277.059C209.918,277.565 209.978,278.042 210.187,278.578C210.425,279.114 210.841,279.68 211.586,280.097C212.36,280.484 213.462,280.693 214.265,280.574C215.069,280.455 215.546,279.978 216.022,279.501C215.933,280.276 215.814,281.021 215.814,281.765C215.844,282.54 215.963,283.255 216.111,283.999C215.903,284.208 215.695,284.446 215.516,284.744C215.337,285.072 215.188,285.489 215.218,285.935C215.248,286.382 215.457,286.859 215.992,287.216C216.528,287.574 217.362,287.812 218.404,287.872C219.446,287.901 220.696,287.723 221.828,287.484C222.93,287.216 223.882,286.859 224.745,286.442C225.609,285.995 226.324,285.519 227.068,285.042C226.234,285.906 225.43,286.74 224.567,287.604C223.703,288.438 222.781,289.242 222.096,290.046C221.411,290.821 220.935,291.595 220.846,292.34C220.726,293.055 220.935,293.74 221.649,294.187C222.334,294.663 223.495,294.872 224.478,294.663C225.46,294.485 226.294,293.889 227.038,293.025C227.812,292.161 228.497,291.059 229.211,289.957C229.479,291.506 229.777,293.055 230.224,294.336C230.67,295.646 231.266,296.659 231.474,297.702C231.712,298.715 231.563,299.757 231.177,300.412C230.79,301.038 230.164,301.306 229.628,301.187C229.122,301.068 228.676,300.591 228.497,299.906C228.318,299.251 228.378,298.387 228.437,297.523C227.217,298.089 226.026,298.685 225.103,299.846C224.18,301.038 223.495,302.855 223.257,304.672C223.019,306.519 223.197,308.366 223.972,309.944C224.776,311.553 226.175,312.863 227.842,313.846C229.539,314.829 231.504,315.485 233.142,315.693C234.779,315.902 236.059,315.634 237.399,314.532C238.709,313.429 240.109,311.493 241.001,309.408C241.895,307.353 242.341,305.149 242.371,303.183C242.431,301.246 242.133,299.548 241.537,297.642C240.942,295.765 240.109,293.621 239.245,291.506C240.198,291.685 241.18,291.863 241.954,291.744C242.699,291.595 243.235,291.178 243.562,290.731C244.455,289.54 243.473,288.408 242.58,287.753C243.294,287.961 244.009,288.199 244.812,288.199C245.586,288.199 246.45,287.961 247.075,287.455C247.73,286.978 248.147,286.204 248.266,285.399C248.385,284.625 248.177,283.821 247.938,282.659C247.701,281.467 247.403,279.919 247.194,277.833C246.956,275.748 246.777,273.127 246.42,271.548C246.033,269.969 245.467,269.463 244.336,269.046C243.175,268.659 241.478,268.361 240.049,268.242C238.65,268.152 237.548,268.212 236.714,268.45C235.851,268.689 235.285,269.135 234.749,269.642C234.214,270.118 233.737,270.684 233.291,271.22C233.945,268.569 234.601,265.948 235.464,262.761C236.357,259.544 237.488,255.761 238.798,251.829C240.138,247.897 241.686,243.816 243.533,239.139C245.378,234.463 247.522,229.25 249.13,224.484C250.737,219.718 251.839,215.428 252.732,211.169C253.625,206.88 254.34,202.65 254.846,198.39C255.323,194.101 255.59,189.781 255.561,185.939C255.561,182.126 255.263,178.76 254.727,175.543C254.221,172.326 253.447,169.228 252.732,166.875C252.047,164.521 251.422,162.913 250.767,161.543C250.112,160.202 249.427,159.1 248.713,157.998C249.606,157.998 250.47,157.998 251.452,157.819C252.464,157.611 253.566,157.253 254.4,156.598C255.233,155.943 255.799,155.019 256.096,153.917C256.365,152.845 256.394,151.594 256.186,150.462C256.007,149.33 255.62,148.317 255.025,147.453C254.429,146.589 253.625,145.845 252.583,145.368C251.541,144.891 250.291,144.683 249.219,144.713C248.117,144.742 247.165,145.011 246.54,145.249C245.884,145.487 245.557,145.666 245.2,145.845C245.2,144.683 245.2,143.491 245.14,142.3C245.11,141.079 244.991,139.828 244.931,138.964C244.842,138.07 244.753,137.534 244.693,136.998C245.557,137.325 246.39,137.623 247.403,137.802C248.415,137.951 249.547,137.981 250.648,137.653C251.779,137.325 252.851,136.67 253.625,135.717C254.429,134.764 254.935,133.513 255.054,132.172C255.173,130.862 254.906,129.462 254.369,128.419C253.864,127.377 253.089,126.691 252.137,126.066C251.154,125.47 249.993,124.964 248.921,124.606C247.849,124.278 246.926,124.159 245.974,124.01C245.825,123.385 245.706,122.789 245.646,121.895C245.586,121.032 245.646,119.9 245.676,119.036C245.735,118.172 245.795,117.606 245.854,117.04C246.777,117.278 247.73,117.487 248.564,117.457C249.368,117.427 250.082,117.13 250.856,116.474C251.66,115.849 252.524,114.836 253.179,113.764C253.834,112.661 254.31,111.47 254.4,110.427C254.519,109.414 254.25,108.551 253.804,107.836C253.357,107.121 252.673,106.555 251.482,105.929C250.291,105.334 248.534,104.678 247.165,104.231C245.825,103.785 244.842,103.517 243.86,103.278C243.562,102.355 243.264,101.432 243.026,100.359C242.788,99.316 242.639,98.125 242.52,97.261C242.401,96.397 242.312,95.831 242.252,95.236C243.205,95.325 244.158,95.385 245.348,95.623C246.54,95.861 247.938,96.248 249.13,96.546C250.32,96.844 251.273,97.023 252.375,96.904C253.477,96.755 254.697,96.308 255.62,95.474C256.543,94.64 257.198,93.419 257.674,92.287C258.151,91.155 258.508,90.082 258.627,89.189C258.776,88.295 258.716,87.58 258.359,86.985C258.032,86.359 257.436,85.853 256.096,85.019C254.757,84.155 252.702,82.993 251.124,82.248C249.547,81.504 248.445,81.176 247.254,81.057C246.063,80.908 244.783,80.938 243.502,80.967C243.473,79.984 243.443,79.001 243.443,78.346C243.413,77.661 243.443,77.303 243.383,77.065C243.294,76.797 243.145,76.648 242.996,76.559C242.818,76.44 242.639,76.41 242.46,76.38C242.55,75.844 242.639,75.308 242.699,74.831C242.758,74.354 242.788,73.967 242.758,73.669C242.728,73.342 242.639,73.074 242.491,72.865C242.371,72.627 242.163,72.448 241.984,72.269C242.014,71.644 242.014,71.019 241.984,70.274C241.984,69.529 241.924,68.665 241.805,68.039C241.686,67.414 241.508,67.027 241.299,66.64C241.091,66.282 240.853,65.925 240.734,65.508C240.585,65.091 240.555,64.614 240.585,64.078C240.615,63.542 240.674,62.916 240.644,62.41C240.585,61.904 240.406,61.486 240.198,61.129C239.989,60.771 239.781,60.474 239.632,60.086C239.483,59.67 239.453,59.193 239.483,58.627C239.542,58.061 239.721,57.435 239.692,56.959C239.662,56.482 239.483,56.125 239.215,55.767C238.977,55.41 238.65,55.052 238.411,54.606C238.144,54.188 237.965,53.682 237.727,53.146C237.488,52.639 237.221,52.133 237.012,51.686C236.833,51.239 236.744,50.852 236.714,50.316C236.685,49.78 236.744,49.095 236.625,48.588C236.506,48.082 236.208,47.754 235.881,47.456C235.553,47.188 235.166,46.98 234.958,46.712C234.779,46.444 234.749,46.146 234.749,45.788C234.749,45.401 234.749,44.924 234.66,44.537C234.601,44.12 234.422,43.792 234.154,43.435C233.916,43.078 233.528,42.72 233.32,42.422C233.082,42.095 232.993,41.827 232.814,41.469ZM146.294,115.283C147.902,118.529 149.599,119.87 153.112,120.496C154.511,120.734 156.149,121.002 157.757,121.24C157.191,120.466 156.625,119.661 156.268,118.619C155.077,115.134 156.328,111.351 158.203,108.372C157.816,106.257 157.727,105.423 158.203,103.308C156.565,99.525 156.387,95.504 158.024,91.393C156.685,87.342 156.715,84.989 158.203,80.997C155.94,77.482 155.911,71.019 158.203,67.503C156.863,63.035 154.481,59.431 151.683,55.827C149.718,53.324 147.663,50.822 145.579,48.38C143.674,46.146 141.709,43.941 139.744,41.767C137.452,39.176 134.831,36.137 132.092,34.112C129.74,32.384 126.882,31.58 123.964,31.639C123.131,31.639 122.148,31.848 121.315,31.639C120.243,31.401 120.421,31.043 120.004,30.269C119.737,29.792 119.29,29.495 118.575,29.375C117.831,29.226 116.819,29.286 115.926,29.375C115.032,29.465 114.259,29.614 113.812,29.554C113.365,29.495 113.246,29.226 112.919,29.048C112.621,28.869 112.144,28.78 111.668,28.78C111.222,28.809 110.775,28.929 110.477,28.809C110.15,28.69 110.001,28.303 109.703,27.975C109.376,27.648 108.899,27.35 108.155,27.201C107.411,27.052 106.368,27.082 104.94,27.141C103.481,27.201 101.635,27.35 99.997,27.499C98.3,27.678 96.782,27.886 95.263,28.809C93.745,29.733 92.078,31.311 90.738,33.426C89.338,35.601 88.237,38.401 87.82,41.082C87.403,43.763 87.671,46.384 88.475,48.469C88.921,49.363 89.488,50.435 90.649,51.567C90.857,51.746 91.959,52.729 93.477,53.324C95.293,54.039 97.705,54.397 99.789,54.784C101.992,55.201 105.386,55.767 109.465,56.512C111.638,56.929 113.782,57.316 115.985,57.763C117.295,58.031 118.635,58.299 119.975,58.567L120.034,58.597C121.166,58.835 122.297,59.103 123.428,59.342C124.59,59.61 125.721,59.878 127.508,60.414C129.323,60.921 131.794,61.695 133.581,62.32C135.367,62.976 136.439,63.452 137.6,64.108C138.761,64.763 139.953,65.567 140.786,66.461C142.93,68.874 143.287,72.686 143.168,76.44C143.019,80.58 142.811,83.618 142.751,86.895C142.721,88.682 142.721,90.529 142.811,92.704L142.751,92.704C142.781,93.121 142.811,93.538 142.811,93.955L142.87,93.955C142.93,95.414 143.019,96.814 143.108,98.244C143.168,98.989 143.227,99.734 143.287,100.508L143.257,100.508C143.555,103.874 143.972,107.3 144.776,110.576L144.716,110.546C145.073,112.036 145.639,114.032 146.294,115.283ZM212.033,115.968C212.033,115.7 212.062,115.402 212.003,115.044C211.943,114.687 211.824,114.24 211.616,113.823C211.408,113.436 211.11,113.049 210.604,112.781C210.097,112.512 209.412,112.364 208.639,112.453C207.864,112.572 207.001,112.959 206.286,113.555C205.542,114.151 204.917,114.985 204.47,115.849C203.994,116.712 203.696,117.606 203.637,118.708C203.577,119.84 203.726,121.181 204.232,122.134C204.708,123.057 205.513,123.593 206.376,123.772C207.239,123.951 208.162,123.772 208.936,123.415C209.681,123.027 210.306,122.462 210.782,121.866C211.288,121.3 211.646,120.704 211.973,120.108C211.497,120.644 211.02,121.151 210.335,121.627C209.651,122.134 208.757,122.581 207.924,122.7C207.12,122.819 206.316,122.61 205.78,122.164C205.244,121.717 204.946,121.002 204.857,120.168C204.738,119.334 204.798,118.351 205.036,117.398C205.274,116.474 205.691,115.551 206.257,114.836C206.822,114.151 207.507,113.674 208.192,113.436C208.876,113.198 209.562,113.168 210.068,113.347C210.604,113.525 210.991,113.912 211.258,114.27C211.527,114.627 211.705,115.014 211.794,115.283C211.913,115.581 211.973,115.759 212.033,115.968ZM212.3,77.035C211.973,77.333 211.705,77.691 211.527,78.227C211.348,78.733 211.258,79.419 211.348,80.074C211.437,80.729 211.735,81.325 212.092,81.682C212.45,82.04 212.896,82.129 213.313,82.01C213.73,81.891 214.117,81.563 214.415,81.057C214.682,80.55 214.861,79.895 214.89,79.21C214.921,78.525 214.802,77.81 214.534,77.333C214.236,76.857 213.789,76.619 213.402,76.619C212.985,76.589 212.628,76.767 212.3,77.035ZM209.918,78.317C210.008,77.721 210.068,77.125 210.335,76.47C210.604,75.844 211.08,75.129 211.735,74.682C212.39,74.235 213.194,74.027 214.027,74.086C214.861,74.146 215.695,74.474 216.29,75.099C216.916,75.755 217.332,76.678 217.511,77.721C217.66,78.733 217.57,79.865 217.332,80.789C217.094,81.712 216.707,82.427 216.171,83.082C215.665,83.708 215.01,84.274 214.265,84.631C213.551,84.959 212.747,85.108 212.122,84.899C211.467,84.691 211.02,84.184 210.782,83.678C210.574,83.142 210.604,82.576 210.604,82.01C211.02,82.546 211.437,83.082 212.033,83.291C212.598,83.529 213.372,83.44 214.027,83.082C214.682,82.725 215.248,82.099 215.605,81.384C215.963,80.67 216.082,79.865 216.111,79.031C216.111,78.227 216.052,77.423 215.784,76.767C215.516,76.142 215.04,75.695 214.563,75.427C214.057,75.189 213.521,75.129 213.015,75.218C212.479,75.337 212.003,75.606 211.616,75.933C211.199,76.291 210.841,76.738 210.574,77.155C210.306,77.572 210.127,77.959 209.918,78.317ZM214.146,100.24C214.087,100.568 214.027,100.895 213.908,101.342C213.789,101.789 213.611,102.385 213.313,102.921C213.015,103.457 212.598,103.963 212.122,104.291C211.616,104.649 211.08,104.827 210.485,104.887C209.889,104.917 209.234,104.857 208.668,104.678C208.103,104.529 207.626,104.321 207.18,103.814C206.703,103.308 206.257,102.534 206.019,101.58C205.75,100.657 205.691,99.615 205.78,98.572C205.899,97.529 206.227,96.546 206.674,95.712C207.15,94.848 207.775,94.163 208.549,93.716C209.323,93.27 210.216,93.061 211.02,93.121C211.824,93.18 212.509,93.508 212.985,94.163C213.432,94.819 213.67,95.802 213.67,96.785C213.67,97.797 213.432,98.78 213.104,99.615C212.777,100.449 212.33,101.163 211.765,101.551C211.229,101.938 210.544,102.027 210.038,101.878C209.502,101.729 209.145,101.342 209.055,100.687C208.936,100.002 209.055,99.108 209.383,98.423C209.681,97.738 210.187,97.321 210.604,97.112C211.05,96.904 211.437,96.904 211.854,96.904C211.883,96.368 211.913,95.861 211.765,95.444C211.646,95.057 211.318,94.759 210.871,94.64C210.395,94.551 209.74,94.61 209.145,94.938C208.549,95.266 207.954,95.831 207.567,96.457C207.15,97.083 206.911,97.768 206.822,98.542C206.703,99.316 206.703,100.21 206.882,101.014C207.061,101.819 207.418,102.534 207.924,103.01C208.43,103.487 209.085,103.755 209.74,103.785C210.395,103.844 211.05,103.666 211.646,103.338C212.211,103.01 212.717,102.504 213.104,101.968C213.521,101.432 213.819,100.836 214.146,100.24ZM157.995,113.615C158.293,112.781 158.59,111.947 159.067,111.202C159.572,110.487 160.287,109.891 161.181,109.623C162.104,109.385 163.205,109.444 164.158,109.921C165.111,110.368 165.884,111.202 166.42,112.125C166.957,113.049 167.224,114.091 167.284,115.164C167.343,116.266 167.195,117.398 166.748,118.529C166.301,119.661 165.557,120.793 164.545,121.419C163.533,122.074 162.223,122.253 161.181,121.985C160.139,121.747 159.335,121.062 158.858,120.376C158.352,119.721 158.174,119.006 157.995,118.291C158.56,119.096 159.156,119.87 159.781,120.406C160.436,120.913 161.121,121.151 161.835,121.181C162.521,121.21 163.235,121.062 163.89,120.585C164.545,120.108 165.17,119.364 165.557,118.44C165.944,117.547 166.123,116.474 166.153,115.551C166.182,114.657 166.034,113.883 165.676,113.138C165.319,112.364 164.723,111.649 164.068,111.202C163.384,110.725 162.669,110.576 162.014,110.606C161.389,110.636 160.823,110.904 160.347,111.202C159.841,111.529 159.394,111.947 159.037,112.364C158.65,112.781 158.322,113.198 157.995,113.615ZM161.597,111.559C162.014,111.529 162.461,111.47 162.907,111.619C163.384,111.768 163.89,112.096 164.277,112.631C164.694,113.138 165.021,113.883 165.14,114.717C165.259,115.581 165.17,116.593 164.842,117.457C164.485,118.321 163.89,119.006 163.265,119.364C162.639,119.721 161.925,119.721 161.329,119.453C160.764,119.185 160.258,118.619 160.049,117.994C159.811,117.398 159.87,116.712 160.079,116.117C160.317,115.521 160.674,115.044 161.091,114.806C161.508,114.538 161.984,114.478 162.371,114.508C162.758,114.538 163.086,114.657 163.324,114.806C163.592,114.925 163.8,115.134 163.979,115.313C163.979,114.925 163.949,114.568 163.89,114.121C163.8,113.674 163.652,113.198 163.443,112.84C163.235,112.453 162.997,112.155 162.669,111.976C162.371,111.768 161.984,111.679 161.597,111.559ZM158.799,100.24C158.56,99.406 158.352,98.333 158.382,97.053C158.412,95.772 158.62,94.223 159.096,92.912C159.543,91.602 160.228,90.529 161.091,89.874C161.984,89.189 163.026,88.95 163.949,89.159C164.872,89.367 165.646,90.053 166.212,90.976C166.778,91.87 167.105,93.001 167.254,94.342C167.373,95.653 167.314,97.172 166.957,98.602C166.599,100.031 165.974,101.402 165.289,102.265C164.634,103.129 163.919,103.517 163.175,103.666C162.431,103.814 161.687,103.755 161.091,103.487C160.525,103.248 160.109,102.802 159.751,102.265C159.394,101.729 159.067,101.074 158.799,100.24ZM165.855,73.401C165.825,72.329 165.676,70.959 165.349,69.946C165.051,68.933 164.545,68.278 163.83,67.861C163.116,67.444 162.133,67.295 161.181,67.682C160.198,68.099 159.275,69.082 158.68,70.363C158.084,71.674 157.816,73.282 157.905,74.772C157.965,76.261 158.352,77.601 158.888,78.525C159.394,79.419 160.049,79.865 160.793,80.074C161.567,80.312 162.401,80.312 163.146,79.925C163.89,79.567 164.545,78.823 164.932,78.078C165.349,77.363 165.527,76.678 165.676,75.933C165.795,75.218 165.884,74.444 165.855,73.401ZM206.167,119.334C206.078,118.976 206.048,118.559 206.167,117.994C206.286,117.457 206.524,116.802 206.852,116.266C207.209,115.729 207.656,115.283 208.103,115.014C208.579,114.776 209.055,114.687 209.472,114.836C209.889,114.985 210.216,115.372 210.395,115.878C210.574,116.385 210.604,117.011 210.514,117.606C210.425,118.202 210.216,118.768 209.889,119.245C209.591,119.751 209.145,120.168 208.698,120.436C208.251,120.674 207.775,120.763 207.418,120.674C207.031,120.615 206.763,120.406 206.555,120.168C206.346,119.929 206.227,119.661 206.167,119.334ZM205.125,134.496C204.649,135.211 204.143,135.955 203.756,136.73C203.369,137.534 203.071,138.368 203.012,139.172C202.952,139.947 203.131,140.691 203.577,141.198C204.023,141.674 204.768,141.883 205.393,141.764C206.048,141.615 206.614,141.138 207.061,140.602C207.537,140.066 207.894,139.47 208.132,138.874C208.4,138.249 208.549,137.623 208.698,136.998C208.757,137.623 208.817,138.249 208.757,138.964C208.698,139.649 208.52,140.423 208.132,141.138C207.745,141.823 207.209,142.479 206.495,142.866C205.81,143.223 205.006,143.343 204.292,143.253C203.577,143.164 203.012,142.836 202.595,142.389C202.208,141.913 201.999,141.287 201.939,140.632C201.85,139.977 201.91,139.291 202.089,138.606C202.297,137.951 202.624,137.266 203.041,136.67C203.488,136.045 204.023,135.449 204.381,135.091C204.738,134.734 204.946,134.615 205.125,134.496ZM205.81,139.798C206.138,139.589 206.495,139.172 206.792,138.666C207.061,138.159 207.269,137.534 207.358,136.968C207.447,136.402 207.447,135.836 207.269,135.508C207.12,135.151 206.822,134.972 206.465,135.062C206.108,135.151 205.691,135.508 205.334,136.015C204.977,136.491 204.708,137.147 204.56,137.772C204.411,138.398 204.381,138.993 204.47,139.381C204.56,139.768 204.738,139.947 204.946,140.006C205.185,140.066 205.482,140.036 205.81,139.798ZM248.207,85.614C248.475,85.942 248.742,86.27 248.891,86.717C249.04,87.163 249.07,87.7 248.921,88.325C248.742,88.95 248.385,89.665 247.879,90.261C247.343,90.827 246.659,91.334 246.003,91.542C245.348,91.78 244.753,91.721 244.277,91.423C243.8,91.125 243.443,90.589 243.354,89.844C243.264,89.099 243.443,88.176 243.711,87.253C243.979,86.359 244.366,85.525 244.812,84.929C245.259,84.304 245.795,83.916 246.331,83.768C246.837,83.618 247.373,83.678 247.76,83.768C248.147,83.887 248.355,84.036 248.564,84.184C247.938,84.304 247.343,84.423 246.777,84.81C246.212,85.197 245.676,85.853 245.348,86.567C245.021,87.253 244.902,87.997 244.931,88.563C244.961,89.099 245.17,89.427 245.408,89.576C245.676,89.755 245.974,89.725 246.361,89.457C246.718,89.189 247.165,88.652 247.433,88.146C247.73,87.67 247.849,87.223 247.968,86.806C248.058,86.389 248.147,86.002 248.207,85.614ZM242.222,113.674C241.716,113.287 241.21,112.87 240.882,112.274C240.555,111.708 240.376,110.964 240.406,110.278C240.436,109.593 240.644,108.938 241.032,108.461C241.418,107.985 241.954,107.687 242.52,107.597C243.086,107.478 243.651,107.597 244.039,107.866C244.396,108.163 244.604,108.61 244.634,109.027C244.693,109.444 244.604,109.832 244.396,110.1C244.217,110.397 243.889,110.576 243.622,110.606C243.324,110.636 243.116,110.517 242.966,110.427C242.847,110.308 242.818,110.219 242.758,110.159C243.056,110.129 243.324,110.1 243.502,109.921C243.681,109.772 243.741,109.474 243.651,109.206C243.533,108.968 243.294,108.73 242.937,108.73C242.55,108.699 242.074,108.878 241.776,109.266C241.508,109.653 241.359,110.219 241.478,110.725C241.567,111.261 241.865,111.679 242.341,111.947C242.788,112.215 243.413,112.304 243.979,112.185C244.515,112.066 245.021,111.738 245.378,111.291C245.735,110.874 245.944,110.338 246.033,109.742C246.093,109.117 246.003,108.461 245.765,107.895C245.557,107.3 245.17,106.823 244.604,106.495C244.068,106.168 243.324,106.019 242.609,106.048C241.865,106.078 241.151,106.317 240.555,106.793C239.959,107.27 239.483,107.955 239.245,108.73C239.007,109.504 238.977,110.368 239.215,111.112C239.424,111.827 239.87,112.393 240.287,112.781C240.704,113.168 241.091,113.347 241.418,113.466C241.746,113.585 241.984,113.644 242.222,113.674ZM238.263,130.683C238.233,131.249 238.233,131.815 238.441,132.321C238.65,132.857 239.096,133.364 239.662,133.691C240.228,134.019 240.942,134.168 241.686,134.049C242.401,133.93 243.205,133.572 243.83,132.947C244.485,132.351 245.021,131.487 245.319,130.683C245.617,129.849 245.676,129.044 245.617,128.389C245.586,127.704 245.408,127.138 245.17,126.691C244.931,126.244 244.604,125.917 244.187,125.679C243.77,125.44 243.264,125.321 242.728,125.411C242.163,125.5 241.537,125.827 241.061,126.394C240.585,126.959 240.287,127.823 240.228,128.598C240.198,129.372 240.406,130.117 240.704,130.593C241.001,131.07 241.389,131.308 241.776,131.338C242.163,131.368 242.58,131.219 242.996,131.04C242.699,130.832 242.431,130.623 242.193,130.266C241.954,129.908 241.776,129.402 241.805,128.836C241.835,128.3 242.074,127.674 242.431,127.377C242.818,127.049 243.324,127.019 243.711,127.287C244.098,127.555 244.366,128.151 244.396,128.866C244.455,129.551 244.306,130.355 243.919,131.011C243.562,131.695 242.996,132.232 242.401,132.5C241.835,132.798 241.27,132.857 240.763,132.768C240.228,132.678 239.781,132.47 239.453,132.232C239.096,131.964 238.888,131.666 238.709,131.398C238.53,131.13 238.382,130.921 238.263,130.683ZM250.797,146.262C250.559,146.232 250.32,146.202 249.903,146.232C249.517,146.262 248.921,146.351 248.207,146.738C247.492,147.126 246.629,147.84 246.063,148.794C245.498,149.777 245.259,151.028 245.289,152.13C245.319,153.232 245.646,154.185 246.271,154.9C246.867,155.645 247.76,156.092 248.742,156.3C249.725,156.509 250.767,156.419 251.72,156.121C252.643,155.824 253.477,155.258 254.012,154.543C254.548,153.858 254.786,152.994 254.816,152.16C254.876,151.296 254.757,150.462 254.459,149.777C254.191,149.091 253.744,148.526 253.03,148.168C252.285,147.811 251.273,147.632 250.439,147.811C249.576,147.96 248.891,148.407 248.415,149.032C247.938,149.658 247.701,150.432 247.73,151.266C247.73,152.07 248.028,152.964 248.534,153.53C249.07,154.126 249.844,154.394 250.529,154.334C251.243,154.275 251.868,153.858 252.196,153.321C252.494,152.755 252.464,152.07 252.345,151.534C252.226,150.968 251.988,150.581 251.66,150.313C251.333,150.045 250.886,149.926 250.499,149.896C250.142,149.896 249.814,150.015 249.517,150.134C249.784,150.313 250.082,150.492 250.261,150.849C250.439,151.236 250.529,151.772 250.41,152.189C250.261,152.577 249.903,152.815 249.547,152.636C249.189,152.487 248.832,151.921 248.713,151.326C248.624,150.73 248.742,150.104 249.07,149.598C249.427,149.121 249.963,148.734 250.648,148.675C251.303,148.585 252.137,148.794 252.702,149.181C253.268,149.598 253.536,150.253 253.685,150.879C253.834,151.534 253.834,152.189 253.685,152.845C253.566,153.5 253.268,154.126 252.702,154.602C252.137,155.049 251.273,155.377 250.439,155.436C249.576,155.496 248.742,155.317 248.088,154.93C247.433,154.513 246.956,153.887 246.718,153.083C246.48,152.279 246.509,151.266 246.718,150.402C246.926,149.509 247.313,148.704 247.819,148.079C248.355,147.453 248.98,147.006 249.517,146.738C250.023,146.47 250.41,146.351 250.797,146.262ZM246.271,135.389C246.837,135.628 247.403,135.866 248.207,135.955C248.98,136.045 250.053,135.955 250.886,135.479C251.75,135.002 252.434,134.168 252.762,133.274C253.089,132.41 253.089,131.487 252.941,130.713C252.792,129.938 252.464,129.283 251.928,128.687C251.392,128.061 250.618,127.466 249.725,127.049C248.802,126.632 247.79,126.364 246.777,126.095C246.956,126.334 247.165,126.542 247.403,126.87C247.671,127.227 247.968,127.674 248.177,128.329C248.385,129.015 248.534,129.879 248.475,130.772C248.415,131.636 248.147,132.53 247.849,133.185C247.552,133.84 247.224,134.287 246.956,134.615C246.718,134.943 246.48,135.181 246.271,135.389ZM248.236,106.495C249.219,106.853 250.201,107.21 250.946,107.776C251.66,108.342 252.137,109.087 252.196,109.891C252.256,110.725 251.898,111.589 251.482,112.364C251.095,113.138 250.618,113.823 250.023,114.3C249.457,114.776 248.742,115.074 248.088,115.134C247.433,115.193 246.867,115.014 246.271,114.836C246.48,114.746 246.688,114.657 247.045,114.389C247.433,114.121 247.938,113.644 248.355,112.959C248.802,112.274 249.159,111.321 249.278,110.457C249.397,109.593 249.278,108.789 249.07,108.163C248.861,107.508 248.564,107.002 248.236,106.495ZM250.112,83.797C251.631,84.482 253.149,85.167 254.102,85.942C255.054,86.717 255.442,87.61 255.323,88.712C255.233,89.844 254.638,91.214 253.893,92.168C253.149,93.121 252.226,93.657 251.243,93.925C250.291,94.223 249.249,94.253 248.415,94.134C247.611,94.044 246.986,93.806 246.39,93.568C247.105,93.032 247.849,92.495 248.594,91.721C249.308,90.946 249.993,89.933 250.41,88.98C250.826,88.027 250.976,87.133 251.005,86.448C251.005,85.733 250.886,85.227 250.708,84.84C250.529,84.423 250.32,84.095 250.112,83.797ZM164.158,108.134C164.961,108.491 165.765,108.878 166.54,109.742C167.284,110.576 168.028,111.887 168.385,113.317C168.713,114.776 168.713,116.355 168.385,117.755C168.088,119.155 167.522,120.376 166.867,121.3C166.242,122.223 165.587,122.849 164.902,123.444C166.778,122.968 168.654,122.491 171.363,122.223C174.072,121.955 177.645,121.925 180.711,122.104C183.748,122.283 186.279,122.73 188.393,123.087C190.536,123.415 192.293,123.653 193.841,123.534C195.36,123.444 196.67,123.027 197.622,122.283C198.545,121.568 199.141,120.555 199.498,119.304C199.855,118.053 199.974,116.534 199.677,115.223C199.349,113.912 198.605,112.781 197.533,111.947C196.461,111.083 195.122,110.546 192.889,110.1C190.626,109.623 187.529,109.266 184.076,108.908C180.622,108.551 176.812,108.223 173.863,108.044C170.946,107.866 168.891,107.836 167.403,107.895C165.944,107.925 165.051,108.015 164.158,108.134ZM165.765,88.027C166.599,88.623 167.462,89.516 168.088,90.589C168.713,91.631 169.07,93.001 169.189,94.461C169.577,98.602 167.879,102.146 165.676,104.172C168.743,103.338 171.839,102.504 175.084,101.997C178.359,101.491 181.753,101.312 185.177,101.402C188.631,101.491 192.085,101.849 194.556,101.997C197.027,102.176 198.545,102.146 199.647,101.61C200.719,101.074 201.374,100.061 201.761,98.78C202.118,97.5 202.237,95.98 201.969,94.58C201.731,93.18 201.136,91.899 200.183,91.066C199.23,90.202 197.89,89.755 195.896,89.427C193.901,89.099 191.222,88.861 187.798,88.712C184.374,88.533 180.146,88.444 176.96,88.384C173.774,88.295 171.601,88.265 169.904,88.206C168.207,88.146 166.986,88.087 165.765,88.027ZM165.2,66.431C167.105,66.64 169.041,66.818 172.732,67.086C176.454,67.325 181.962,67.652 186.398,67.98C190.864,68.308 194.229,68.635 196.789,69.231C199.32,69.827 201.046,70.661 202.118,71.674C203.22,72.716 203.696,73.908 203.845,75.218C203.964,76.529 203.756,77.959 203.279,79.091C202.803,80.223 202.029,81.116 200.957,81.742C199.855,82.397 198.456,82.814 196.491,82.814C194.526,82.785 191.995,82.367 188.393,81.921C184.82,81.474 180.146,80.997 176.275,80.699C172.405,80.402 169.308,80.252 166.242,80.133C166.659,79.121 167.105,78.138 167.403,76.916C167.671,75.695 167.79,74.265 167.701,73.014C167.641,71.763 167.343,70.72 167.046,69.857C166.748,68.993 166.391,68.337 166.093,67.801C165.765,67.265 165.498,66.848 165.2,66.431ZM217.928,74.831C219.625,75.01 221.352,75.218 223.972,75.725C226.562,76.231 230.075,77.035 232.903,77.78C235.762,78.555 237.935,79.299 239.394,79.984C240.853,80.67 241.597,81.295 242.074,82.159C242.55,82.993 242.758,84.036 242.788,85.108C242.818,86.15 242.639,87.253 242.193,88.236C241.746,89.219 241.001,90.082 239.751,90.648C238.53,91.214 236.804,91.453 234.333,91.125C231.891,90.767 228.676,89.874 226.145,89.159C223.644,88.444 221.798,87.938 220.012,87.55C218.225,87.163 216.439,86.865 214.682,86.597C215.695,85.972 216.707,85.346 217.541,84.482C218.374,83.589 219.029,82.457 219.327,81.295C219.595,80.133 219.535,78.942 219.356,78.018C219.208,77.095 218.94,76.44 218.672,75.963C218.434,75.457 218.166,75.129 217.928,74.831ZM214.265,93.568C215.903,93.836 217.541,94.104 219.654,94.67C221.798,95.236 224.418,96.1 226.949,96.993C229.479,97.916 231.921,98.899 233.558,99.793C235.226,100.657 236.089,101.461 236.655,102.265C237.25,103.07 237.548,103.874 237.607,104.797C237.667,105.751 237.518,106.823 237.131,107.627C236.774,108.402 236.179,108.908 235.493,109.206C234.839,109.504 234.064,109.593 232.755,109.355C231.444,109.146 229.569,108.61 226.443,107.747C223.317,106.883 218.94,105.661 214.563,104.44C214.802,104.142 215.069,103.874 215.337,103.159C215.635,102.474 215.963,101.372 216.111,100.329C216.23,99.287 216.171,98.333 215.992,97.41C215.784,96.487 215.516,95.653 215.188,95.027C214.89,94.402 214.593,93.984 214.265,93.568ZM210.782,124.04C212.926,124.368 215.04,124.725 217.511,125.261C219.982,125.798 222.84,126.513 225.043,127.168C227.217,127.823 228.765,128.419 229.926,128.777C231.087,129.134 231.891,129.253 232.605,129.193C233.32,129.104 233.975,128.836 234.511,128.329C235.047,127.823 235.493,127.138 235.851,126.334C236.208,125.53 236.476,124.606 236.535,123.653C236.565,122.7 236.417,121.747 235.94,120.913C235.434,120.079 234.66,119.393 232.874,118.5C231.087,117.606 228.318,116.504 225.371,115.551C222.394,114.568 219.267,113.734 216.916,113.198C214.563,112.631 213.015,112.364 211.467,112.096C212.003,112.691 212.509,113.287 212.926,114.121C213.343,114.955 213.67,116.057 213.759,117.159C213.849,118.291 213.67,119.423 213.313,120.406C212.926,121.419 212.36,122.283 211.913,122.849C211.467,123.444 211.139,123.742 210.782,124.04ZM207.478,144.058C211.705,144.683 215.933,145.309 219.595,145.874C223.287,146.47 226.413,146.977 228.408,147.572C230.432,148.168 231.325,148.823 232.159,148.823C232.993,148.823 233.767,148.138 234.303,147.155C234.839,146.172 235.166,144.891 235.226,143.611C235.285,142.36 235.077,141.109 234.63,140.126C234.214,139.113 233.558,138.368 232.189,137.683C230.849,136.998 228.735,136.402 224.597,135.449C220.429,134.525 214.206,133.245 208.013,131.934C208.549,132.44 209.085,132.917 209.591,133.781C210.097,134.674 210.574,135.955 210.693,137.236C210.812,138.547 210.604,139.828 210.216,140.84C209.829,141.853 209.323,142.628 208.847,143.104C208.37,143.581 207.924,143.819 207.478,144.058ZM225.371,268.004C225.609,265.978 225.847,263.952 225.549,262.344C225.222,260.765 224.418,259.633 223.555,258.71C222.721,257.816 221.858,257.071 220.875,256.505C219.893,255.91 218.761,255.433 217.66,254.957C218.493,256.059 219.356,257.161 220.31,258.769C221.232,260.348 222.304,262.463 223.167,264.101C224.031,265.71 224.716,266.872 225.371,268.004ZM215.695,272.114C216.29,271.578 216.886,271.042 217.421,270.684C217.987,270.297 218.464,270.089 218.94,269.969C219.446,269.85 219.952,269.82 220.458,269.94C220.994,270.089 221.53,270.357 222.066,270.655C221.619,269.969 221.173,269.254 220.637,268.331C220.101,267.438 219.476,266.305 218.88,264.906C218.255,263.535 217.66,261.927 217.153,260.676C216.618,259.395 216.201,258.501 215.844,258.233C215.516,257.935 215.248,258.293 215.188,259.454C215.129,260.586 215.278,262.552 215.397,264.429C215.486,266.305 215.576,268.123 215.605,269.374C215.665,270.655 215.665,271.37 215.695,272.114ZM212.539,255.731C212.926,257.459 213.343,259.216 213.64,261.301C213.938,263.357 214.176,265.769 214.236,267.586C214.325,269.403 214.265,270.625 214.206,271.489C214.117,272.353 214.027,272.889 213.938,273.395C213.402,273.842 212.836,274.259 212.39,274.438C211.913,274.616 211.556,274.557 211.377,274.289C211.229,274.05 211.229,273.603 211.348,273.038C211.467,272.442 211.705,271.727 211.943,270.535C212.211,269.314 212.479,267.586 212.628,265.74C212.777,263.922 212.777,261.956 212.747,260.289C212.717,258.59 212.628,257.161 212.539,255.731ZM211.139,257.638C211.199,259.425 211.288,261.182 211.258,263.118C211.199,265.055 211.05,267.169 210.782,268.778C210.514,270.386 210.157,271.489 209.799,272.233C209.472,272.948 209.145,273.276 208.757,273.276C208.37,273.246 207.924,272.889 207.715,271.816C207.507,270.744 207.567,268.987 207.894,266.931C208.222,264.876 208.817,262.523 209.412,260.944C210.008,259.335 210.574,258.501 211.139,257.638ZM211.646,276.791C212.181,276.612 212.717,276.404 213.164,276.135C213.611,275.867 213.968,275.54 214.236,275.272C214.504,274.974 214.682,274.735 214.861,274.497C214.95,275.152 215.01,275.808 215.188,276.374C215.367,276.94 215.695,277.446 216.022,277.923C215.665,278.25 215.307,278.548 214.861,278.727C214.415,278.936 213.879,279.025 213.402,278.936C212.926,278.876 212.479,278.667 212.211,278.399C211.943,278.131 211.824,277.804 211.765,277.535C211.705,277.267 211.675,277.029 211.646,276.791ZM218.225,240.778C218.731,240.271 219.625,239.378 220.429,238.395C221.232,237.382 221.947,236.25 222.602,235.833C223.257,235.416 223.853,235.744 224.329,236.637C224.805,237.501 225.133,238.96 225.341,240.51C225.549,242.088 225.609,243.786 225.579,245.395C225.52,246.973 225.401,248.463 225.222,249.565C225.043,250.697 224.835,251.471 224.418,251.888C223.972,252.335 223.317,252.425 222.334,252.007C221.352,251.59 220.071,250.697 218.791,249.803C218.821,248.88 218.88,247.986 218.791,246.973C218.731,245.99 218.553,244.859 218.314,243.935C218.047,243.012 217.719,242.267 217.392,241.522C217.541,241.403 217.689,241.284 218.225,240.778ZM207.834,243.012C206.822,242.684 205.78,242.357 204.56,242.088C203.369,241.85 201.969,241.671 200.749,241.731C199.528,241.82 198.515,242.118 198.099,243.25C197.682,244.382 197.89,246.318 198.188,248.046C198.486,249.744 198.932,251.263 199.528,252.514C200.124,253.735 200.897,254.689 201.552,255.254C202.237,255.85 202.773,256.088 203.071,256.386C203.369,256.655 203.398,257.012 203.666,257.31C203.934,257.638 204.47,257.876 204.977,257.846C205.513,257.816 206.019,257.518 206.882,256.446C207.745,255.373 208.936,253.527 210.127,251.68C209.562,251.084 208.966,250.459 208.52,249.684C208.103,248.91 207.775,247.956 207.626,247.063C207.478,246.139 207.507,245.305 207.567,244.65C207.626,243.965 207.745,243.488 207.834,243.012ZM214.742,243.667C215.129,244.233 215.397,244.948 215.635,245.812C215.874,246.676 216.022,247.659 216.022,248.552C216.022,249.446 215.874,250.25 215.486,250.816C215.129,251.382 214.563,251.71 213.968,251.561C213.343,251.412 212.658,250.786 212.181,249.803C211.705,248.85 211.437,247.569 211.377,246.437C211.348,245.305 211.527,244.292 211.883,243.608C212.241,242.952 212.807,242.654 213.313,242.684C213.849,242.714 214.355,243.101 214.742,243.667ZM217.958,275.421C217.838,276.225 217.689,277.029 217.57,278.072C217.451,279.114 217.362,280.395 217.362,281.289C217.332,282.153 217.421,282.659 217.541,283.076C217.63,283.523 217.749,283.88 217.928,284.148C218.076,284.416 218.255,284.565 218.434,284.744C218.076,284.833 217.749,284.952 217.541,285.131C217.302,285.31 217.243,285.578 217.362,285.816C217.481,286.025 217.779,286.204 218.285,286.263C218.821,286.323 219.535,286.263 220.369,286.085C221.173,285.935 222.066,285.668 223.049,285.221C224.001,284.804 225.014,284.208 225.609,283.404C226.204,282.629 226.353,281.646 226.413,280.603C226.472,279.591 226.443,278.518 226.532,277.446C226.621,276.374 226.83,275.331 227.038,274.259C226.383,274.497 225.728,274.706 224.776,274.974C223.823,275.212 222.542,275.48 221.381,275.569C220.19,275.629 219.089,275.54 217.958,275.421ZM244.664,272.621C244.664,272.918 244.664,273.216 244.693,273.842C244.723,274.438 244.812,275.331 244.991,276.463C245.17,277.565 245.467,278.906 245.795,280.216C246.123,281.527 246.45,282.778 246.569,283.702C246.659,284.625 246.54,285.191 246.271,285.548C246.003,285.935 245.586,286.144 245.081,286.233C244.575,286.293 243.979,286.263 243.235,285.965C242.491,285.668 241.597,285.131 240.436,284.357C239.275,283.553 237.846,282.54 236.923,281.527C235.97,280.544 235.553,279.531 235.464,278.34C235.404,277.178 235.672,275.838 235.94,274.467C237.101,274.408 238.233,274.348 239.483,274.14C240.704,273.931 242.014,273.574 242.877,273.276C243.77,273.008 244.217,272.799 244.664,272.621ZM229.152,276.88C229.211,276.106 229.301,275.629 229.479,275.242C229.658,274.855 229.926,274.527 230.224,274.378C230.521,274.229 230.879,274.259 231.177,274.378C231.444,274.497 231.683,274.735 231.832,275.123C231.98,275.51 232.07,276.046 232.099,276.91C232.099,277.774 232.07,278.965 231.98,279.799C231.891,280.603 231.712,281.021 231.474,281.319C231.236,281.587 230.909,281.736 230.521,281.765C230.164,281.795 229.777,281.676 229.539,281.319C229.271,280.991 229.152,280.425 229.092,279.591C229.063,278.757 229.092,277.654 229.152,276.88ZM227.485,286.978C226.741,287.663 225.847,288.497 225.043,289.182C224.269,289.867 223.555,290.404 223.108,290.91C222.632,291.417 222.394,291.863 222.304,292.25C222.244,292.638 222.334,292.966 222.572,293.174C222.84,293.383 223.227,293.502 223.674,293.472C224.15,293.442 224.656,293.263 225.192,292.787C225.758,292.28 226.383,291.446 226.949,290.553C227.514,289.629 228.021,288.646 228.408,287.753C228.825,286.859 229.092,286.055 229.36,285.221C228.795,285.757 228.229,286.293 227.485,286.978ZM233.856,284.148C234.898,284.952 235.97,285.757 237.131,286.442C238.263,287.157 239.542,287.753 240.406,288.17C241.27,288.587 241.776,288.795 242.044,289.063C242.312,289.361 242.401,289.689 242.252,289.957C242.133,290.225 241.776,290.434 241.329,290.463C240.882,290.493 240.287,290.374 239.632,290.046C239.007,289.718 238.292,289.182 237.518,288.467C236.714,287.753 235.851,286.889 235.226,286.114C234.601,285.37 234.214,284.774 233.856,284.148ZM232.099,287.812C232.457,288.229 232.784,288.646 233.528,289.718C234.243,290.791 235.375,292.548 236.268,294.514C237.191,296.48 237.905,298.655 238.203,300.74C238.5,302.825 238.352,304.761 237.846,306.37C237.34,307.978 236.476,309.259 235.523,310.093C234.57,310.957 233.588,311.404 232.486,311.315C231.415,311.255 230.224,310.659 229.242,309.855C228.289,309.051 227.514,308.008 227.038,306.995C226.591,305.953 226.413,304.91 226.502,304.047C226.562,303.183 226.83,302.527 227.127,301.842C227.246,302.14 227.395,302.468 227.723,302.825C228.021,303.212 228.527,303.63 229.39,303.778C230.254,303.898 231.504,303.719 232.397,303.093C233.261,302.468 233.797,301.366 233.975,299.995C234.124,298.625 233.945,296.987 233.528,295.438C233.112,293.859 232.516,292.369 232.249,291.119C231.951,289.838 232.04,288.825 232.099,287.812ZM242.163,232.884C244.575,226.063 247.016,218.407 248.683,211.884C250.32,205.36 251.214,199.969 251.571,194.726C251.958,189.454 251.779,184.3 251.273,179.683C250.737,175.096 249.903,171.015 248.832,167.709C247.79,164.373 246.509,161.811 245.467,159.815C244.425,157.79 243.592,156.36 242.758,155.287C241.924,154.215 241.061,153.5 240.019,153.262C238.977,153.024 237.786,153.262 237.221,154.066C236.685,154.87 236.744,156.241 237.369,159.011C237.994,161.781 239.186,165.981 239.959,170.509C240.734,175.066 241.121,179.951 241.24,184.747C241.389,189.513 241.27,194.19 240.912,199.73C240.585,205.271 240.019,211.645 239.096,217.365C238.173,223.114 236.923,228.207 235.523,234.522C234.154,240.837 232.665,248.374 231.683,254.212C230.7,260.08 230.224,264.25 229.718,268.421C231.474,262.82 233.201,257.22 235.285,251.442C237.369,245.663 239.751,239.705 242.163,232.884ZM227.158,152.785C228.08,152.994 229.003,153.738 229.748,155.049C230.462,156.36 230.968,158.236 231.177,160.589C231.385,162.913 231.325,165.743 230.76,169.317C230.164,172.862 229.122,177.151 227.753,181.798C226.353,186.415 224.626,191.42 222.84,195.709C221.054,199.969 219.178,203.543 217.63,207.594C216.111,211.645 214.861,216.173 213.968,219.986C213.045,223.769 212.45,226.867 212.152,229.727C211.854,232.586 211.883,235.237 211.913,237.858C210.931,236.131 209.918,234.433 209.174,232.467C208.4,230.501 207.894,228.297 207.805,225.795C207.686,223.293 208.013,220.492 208.549,217.484C209.115,214.445 209.918,211.228 211.169,207.028C212.42,202.858 214.146,197.735 215.874,192.76C217.6,187.756 219.356,182.9 220.637,178.462C221.917,174.053 222.691,170.062 223.257,166.607C223.793,163.122 224.091,160.143 224.24,158.028C224.388,155.913 224.418,154.662 224.895,153.828C225.341,152.994 226.264,152.607 227.158,152.785ZM106.488,24.461C107.589,24.55 108.721,24.639 109.643,24.937C110.596,25.235 111.37,25.741 112.978,26.099C114.586,26.456 116.997,26.665 119.915,27.111C122.833,27.558 126.257,28.243 129.056,29.107C131.854,30.001 134.057,31.043 136.499,32.98C138.94,34.946 141.62,37.776 144.18,40.635C146.711,43.495 149.122,46.384 151.445,48.856C153.767,51.329 156,53.384 157.518,55.261C159.067,57.137 159.93,58.835 160.853,60.205C161.776,61.605 162.729,62.678 164.723,63.274C166.718,63.869 169.725,63.959 173.357,64.108C176.99,64.227 181.247,64.435 186.1,64.882C190.924,65.329 196.372,66.014 200.004,66.908C203.637,67.801 205.453,68.933 206.495,70.036C207.507,71.167 207.745,72.269 207.983,73.401C208.996,72.835 210.038,72.299 211.437,71.912C212.836,71.495 214.623,71.257 217.451,71.465C220.279,71.674 224.18,72.359 227.842,73.223C231.474,74.086 234.928,75.099 238.352,76.142C238.59,74.921 238.798,73.669 238.947,72.508C239.066,71.346 239.096,70.214 238.917,69.291C238.709,68.367 238.322,67.623 238.084,66.878C237.846,66.133 237.756,65.389 237.429,64.912C237.101,64.465 236.535,64.286 235.97,64.406C235.404,64.495 234.868,64.852 234.333,65.24C234.481,64.376 234.66,63.512 234.987,62.738C235.315,61.963 235.821,61.278 236.119,60.146C236.446,59.014 236.565,57.405 236.327,55.737C236.059,54.039 235.404,52.312 234.63,50.822C233.826,49.363 232.903,48.171 232.308,46.98C231.712,45.818 231.444,44.656 230.79,43.465C230.164,42.244 229.211,40.933 228.229,39.712C227.276,38.461 226.353,37.269 225.52,36.286C224.716,35.303 224.031,34.558 223.733,33.844C223.436,33.099 223.495,32.384 223.138,31.818C222.781,31.222 222.007,30.746 221.322,30.15C220.667,29.554 220.16,28.809 219.684,28.065C219.178,27.32 218.731,26.575 218.076,25.92C217.451,25.235 216.618,24.639 215.933,23.924C215.248,23.239 214.712,22.435 214.385,21.541C214.057,20.618 213.998,19.635 213.521,19.069C213.045,18.503 212.181,18.414 211.437,18.414C210.663,18.414 210.008,18.562 209.442,18.026C208.876,17.49 208.37,16.239 207.388,15.375C206.405,14.481 204.917,13.945 203.637,13.32C202.356,12.724 201.255,12.069 200.51,11.473C199.736,10.877 199.32,10.341 198.605,10.282C197.92,10.252 196.938,10.698 196.164,10.49C195.36,10.282 194.764,9.388 194.02,8.792C193.276,8.226 192.382,7.928 190.953,7.928C189.524,7.928 187.559,8.226 186.339,7.899C185.118,7.601 184.671,6.737 183.689,6.111C182.736,5.486 181.247,5.158 179.938,5.128C178.657,5.128 177.585,5.426 176.841,5.277C176.097,5.128 175.68,4.503 174.905,4.264C174.132,3.996 173,4.145 171.958,4.354C170.916,4.592 169.964,4.86 169.16,4.681C168.356,4.503 167.701,3.847 166.718,3.46C165.706,3.073 164.366,2.954 162.997,3.103C161.657,3.222 160.287,3.639 159.275,3.639C158.293,3.669 157.697,3.281 156.893,3.222C156.09,3.162 155.107,3.371 154.065,3.937C153.052,4.503 151.981,5.367 150.82,5.843C149.658,6.32 148.408,6.38 146.86,6.26C145.281,6.141 143.436,5.873 141.441,5.962C139.417,6.082 137.273,6.558 135.397,7.362C133.522,8.196 131.884,9.328 130.217,10.311C128.52,11.264 126.822,12.069 125.334,12.605C123.875,13.171 122.654,13.439 121.702,13.558C120.749,13.647 120.094,13.558 119.677,13.856C119.231,14.154 119.022,14.839 118.427,15.405C117.831,15.941 116.849,16.328 115.926,16.567C115.003,16.775 114.169,16.805 113.544,17.401C112.919,18.026 112.502,19.218 111.727,20.052C110.954,20.886 109.822,21.333 108.959,21.631C108.095,21.928 107.44,22.048 107.083,22.465C106.696,22.911 106.607,23.686 106.488,24.461ZM226.741,259.484C227.574,255.582 228.408,251.65 229.42,247.152C230.432,242.654 231.653,237.561 232.784,231.901C233.916,226.271 235.017,220.105 235.791,213.73C236.565,207.386 237.012,200.862 237.191,195.62C237.399,190.407 237.31,186.445 237.131,182.811C236.952,179.147 236.714,175.811 236.357,173.07C236.059,170.747 235.493,166.845 234.57,164.67C234.63,167.351 234.333,168.811 233.945,171.968C233.558,175.126 232.784,179.088 231.474,183.377C230.194,187.637 228.378,192.254 226.591,196.424C224.805,200.594 223.019,204.318 221.411,208.279C219.803,212.241 218.344,216.382 217.362,219.837C216.379,223.293 215.844,226.063 215.516,228.297C215.159,230.501 215.01,232.169 215.01,233.48C215.01,234.79 215.159,235.714 215.337,236.667C216.647,235.803 217.958,234.939 219.446,234.165C220.905,233.39 222.542,232.705 223.703,232.735C224.835,232.735 225.49,233.45 226.056,234.582C226.621,235.684 227.127,237.203 227.425,238.991C227.753,240.778 227.902,242.833 227.812,245.037C227.753,247.212 227.455,249.535 227.217,251.233C226.979,252.931 226.77,254.033 226.443,254.539C226.115,255.046 225.668,254.957 225.103,254.927C224.507,254.897 223.823,254.927 223.138,254.957C223.644,255.373 224.12,255.82 224.626,256.386C225.103,256.952 225.609,257.667 225.966,258.203C226.324,258.74 226.532,259.127 226.741,259.484Z" style="fill:rgb(2,2,2);"/>
        </g>
        <g transform="matrix(0.317203,0,0,0.317203,44.6474,93.8404)">
            <path d="M165.855,93.27C165.646,92.674 165.408,92.078 165.051,91.602C164.664,91.125 164.128,90.738 163.473,90.618C162.788,90.499 161.984,90.648 161.329,91.155C160.645,91.691 160.079,92.555 159.692,93.597C159.335,94.64 159.156,95.831 159.186,97.053C159.216,98.244 159.483,99.436 159.9,100.299C160.347,101.163 160.942,101.7 161.597,101.997C162.282,102.295 162.967,102.295 163.622,102.057C164.277,101.789 164.842,101.253 165.289,100.478C165.706,99.704 166.003,98.661 166.153,97.738C166.272,96.844 166.272,96.1 166.272,95.325C165.855,96.338 165.438,97.351 164.932,97.976C164.456,98.602 163.919,98.84 163.473,98.81C163.056,98.81 162.729,98.542 162.55,98.036C162.342,97.559 162.312,96.874 162.401,96.1C162.521,95.325 162.758,94.461 163.175,93.895C163.592,93.329 164.158,93.061 164.634,93.001C165.111,92.942 165.468,93.121 165.855,93.27Z" style="fill:rgb(2,2,2);"/>
        </g>
        <g transform="matrix(0.317203,0,0,0.317203,44.6474,93.8404)">
            <path d="M159.632,70.036C159.96,69.559 160.347,69.053 160.793,68.725C161.24,68.367 161.716,68.189 162.163,68.159C162.58,68.099 162.967,68.189 163.324,68.427C163.681,68.695 164.009,69.082 164.277,69.678C164.515,70.274 164.664,71.048 164.723,71.763C164.813,72.478 164.813,73.163 164.753,73.729C164.723,74.325 164.664,74.831 164.605,75.337C164.485,74.653 164.366,73.997 164.158,73.401C163.919,72.776 163.622,72.24 163.146,72.031C162.639,71.823 162.014,71.971 161.567,72.448C161.121,72.954 160.853,73.789 160.823,74.504C160.764,75.248 160.972,75.844 161.27,76.261C161.597,76.678 162.014,76.916 162.431,77.006C162.877,77.095 163.294,77.035 163.622,76.946C163.949,76.887 164.188,76.797 164.426,76.708C164.098,77.244 163.771,77.78 163.354,78.138C162.937,78.525 162.431,78.733 161.865,78.733C161.3,78.733 160.704,78.555 160.168,78.108C159.662,77.661 159.275,77.006 159.007,76.201C158.769,75.367 158.68,74.414 158.68,73.61C158.709,72.806 158.828,72.121 158.977,71.555C159.126,70.988 159.335,70.512 159.632,70.036Z" style="fill:rgb(2,2,2);"/>
        </g>
        <g transform="matrix(1,0,0,1,-68.812,17.1527)">
            <path d="M226.726,150.824L229,151.398C228.523,153.265 227.666,154.689 226.427,155.67C225.189,156.65 223.675,157.14 221.886,157.14C220.035,157.14 218.529,156.763 217.369,156.009C216.209,155.255 215.326,154.164 214.72,152.734C214.115,151.304 213.812,149.769 213.812,148.129C213.812,146.339 214.154,144.779 214.837,143.447C215.521,142.115 216.494,141.103 217.755,140.412C219.017,139.72 220.406,139.375 221.921,139.375C223.64,139.375 225.085,139.812 226.257,140.687C227.429,141.562 228.246,142.793 228.707,144.379L226.468,144.906C226.07,143.656 225.492,142.746 224.734,142.175C223.976,141.605 223.023,141.32 221.875,141.32C220.554,141.32 219.451,141.636 218.564,142.269C217.677,142.902 217.054,143.752 216.695,144.818C216.335,145.884 216.156,146.984 216.156,148.117C216.156,149.578 216.369,150.853 216.794,151.943C217.22,153.033 217.882,153.847 218.781,154.386C219.679,154.925 220.652,155.195 221.699,155.195C222.972,155.195 224.05,154.828 224.933,154.093C225.816,153.359 226.414,152.269 226.726,150.824Z" style="fill-rule:nonzero;"/>
            <path d="M244.304,156.847L241.632,156.847L239.136,153.203C238.847,152.781 238.584,152.431 238.345,152.154C238.107,151.877 237.865,151.654 237.619,151.486C237.373,151.318 237.105,151.201 236.816,151.134C236.527,151.068 236.191,151.035 235.808,151.035L233.91,151.035L233.91,156.847L231.73,156.847L231.73,143.523L238.058,143.523C238.839,143.523 239.542,143.586 240.167,143.711C240.792,143.836 241.324,144.041 241.761,144.326C242.199,144.611 242.535,144.986 242.769,145.451C243.003,145.916 243.121,146.492 243.121,147.179C243.121,148.195 242.783,149.017 242.107,149.646C241.431,150.275 240.433,150.675 239.113,150.847L239.113,150.894C240.074,151.277 240.972,152.07 241.808,153.273L244.304,156.847ZM233.91,149.359L237.601,149.359C238.671,149.359 239.488,149.191 240.05,148.855C240.613,148.519 240.894,147.961 240.894,147.179C240.894,146.562 240.654,146.091 240.173,145.767C239.693,145.443 238.917,145.281 237.847,145.281L233.91,145.281L233.91,149.359Z" style="fill-rule:nonzero;"/>
            <rect x="246.296" y="143.523" width="2.18" height="13.324" style="fill-rule:nonzero;"/>
            <path d="M265.808,156.847L263.769,156.847L263.769,146.218L263.699,146.218L259.714,156.847L258.085,156.847L254.125,146.019L254.078,146.019L254.078,156.847L252.039,156.847L252.039,143.523L255.109,143.523L258.32,152.265C258.476,152.671 258.607,153.066 258.712,153.449C258.818,153.832 258.902,154.148 258.964,154.398L258.988,154.398C259.074,154.156 259.175,153.834 259.292,153.431C259.41,153.029 259.558,152.593 259.738,152.125L263.031,143.523L265.808,143.523L265.808,156.847Z" style="fill-rule:nonzero;"/>
            <rect x="269.371" y="143.523" width="2.18" height="13.324" style="fill-rule:nonzero;"/>
            <path d="M286.316,156.847L284.089,156.847L277.222,146.793L277.175,146.793L277.175,156.847L275.113,156.847L275.113,143.523L277.316,143.523L284.183,153.578L284.23,153.578L284.23,143.523L286.316,143.523L286.316,156.847Z" style="fill-rule:nonzero;"/>
            <path d="M301.421,156.847L299.019,156.847L297.554,153.027L291.742,153.027L290.382,156.847L288.097,156.847L293.382,143.523L295.796,143.523L301.421,156.847ZM296.71,151.164L295.398,147.66C295.289,147.371 295.195,147.123 295.117,146.916C295.039,146.709 294.968,146.521 294.906,146.353C294.843,146.185 294.789,146.019 294.742,145.855C294.695,145.691 294.648,145.507 294.601,145.304L294.554,145.304C294.515,145.523 294.474,145.716 294.431,145.884C294.388,146.052 294.341,146.224 294.291,146.4C294.24,146.576 294.177,146.767 294.103,146.974C294.029,147.181 293.937,147.433 293.828,147.73L292.539,151.164L296.71,151.164Z" style="fill-rule:nonzero;"/>
            <path d="M312.027,156.847L303.203,156.847L303.203,143.523L305.382,143.523L305.382,154.972L312.027,154.972L312.027,156.847Z" style="fill-rule:nonzero;"/>
            <path d="M320.16,156.847L320.16,139.668L322.433,139.668L322.433,154.82L330.894,154.82L330.894,156.847L320.16,156.847Z" style="fill-rule:nonzero;"/>
            <path d="M345.074,156.847L342.671,156.847L341.207,153.027L335.394,153.027L334.035,156.847L331.75,156.847L337.035,143.523L339.449,143.523L345.074,156.847ZM340.363,151.164L339.05,147.66C338.941,147.371 338.847,147.123 338.769,146.916C338.691,146.709 338.621,146.521 338.558,146.353C338.496,146.185 338.441,146.019 338.394,145.855C338.347,145.691 338.3,145.507 338.253,145.304L338.207,145.304C338.167,145.523 338.126,145.716 338.084,145.884C338.041,146.052 337.994,146.224 337.943,146.4C337.892,146.576 337.83,146.767 337.755,146.974C337.681,147.181 337.589,147.433 337.48,147.73L336.191,151.164L340.363,151.164Z" style="fill-rule:nonzero;"/>
            <path d="M362.875,143.523L359.207,156.847L357.214,156.847L354.121,146.629C353.996,146.214 353.906,145.896 353.851,145.673C353.796,145.451 353.757,145.273 353.734,145.14L353.687,145.14C353.664,145.257 353.617,145.459 353.546,145.744C353.476,146.029 353.386,146.355 353.277,146.722L350.23,156.847L348.097,156.847L344.535,143.523L346.703,143.523L348.671,151.925C348.828,152.566 348.951,153.144 349.041,153.66C349.13,154.175 349.199,154.582 349.246,154.879L349.269,154.879C349.277,154.746 349.304,154.564 349.351,154.334C349.398,154.103 349.451,153.865 349.509,153.619C349.568,153.373 349.625,153.136 349.679,152.91C349.734,152.683 349.781,152.507 349.82,152.382L352.48,143.523L355.023,143.523L357.402,151.398C357.496,151.711 357.585,152.041 357.671,152.388C357.757,152.736 357.834,153.07 357.9,153.39C357.966,153.711 358.019,154 358.058,154.257C358.097,154.515 358.121,154.714 358.128,154.855L358.175,154.855C358.222,154.48 358.283,154.062 358.357,153.601C358.431,153.14 358.531,152.656 358.656,152.148L360.765,143.523L362.875,143.523Z" style="fill-rule:nonzero;"/>
            <path d="M376.398,143.523L370.855,151.211L370.855,156.847L368.675,156.847L368.675,151.211L363.32,143.523L365.886,143.523L368.746,147.824C368.972,148.16 369.179,148.476 369.367,148.773C369.554,149.07 369.714,149.355 369.847,149.629C369.949,149.402 370.084,149.15 370.251,148.873C370.419,148.595 370.652,148.238 370.949,147.8L373.878,143.523L376.398,143.523Z" style="fill-rule:nonzero;"/>
            <path d="M388.902,156.847L378.273,156.847L378.273,143.523L388.562,143.523L388.562,145.398L380.453,145.398L380.453,149.019L388.035,149.019L388.035,150.894L380.453,150.894L380.453,154.972L388.902,154.972L388.902,156.847Z" style="fill-rule:nonzero;"/>
            <path d="M404.148,156.847L401.476,156.847L398.98,153.203C398.691,152.781 398.427,152.431 398.189,152.154C397.951,151.877 397.709,151.654 397.462,151.486C397.216,151.318 396.949,151.201 396.66,151.134C396.371,151.068 396.035,151.035 395.652,151.035L393.753,151.035L393.753,156.847L391.574,156.847L391.574,143.523L397.902,143.523C398.683,143.523 399.386,143.586 400.011,143.711C400.636,143.836 401.167,144.041 401.605,144.326C402.042,144.611 402.378,144.986 402.613,145.451C402.847,145.916 402.964,146.492 402.964,147.179C402.964,148.195 402.626,149.017 401.951,149.646C401.275,150.275 400.277,150.675 398.957,150.847L398.957,150.894C399.917,151.277 400.816,152.07 401.652,153.273L404.148,156.847ZM393.753,149.359L397.445,149.359C398.515,149.359 399.332,149.191 399.894,148.855C400.457,148.519 400.738,147.961 400.738,147.179C400.738,146.562 400.498,146.091 400.017,145.767C399.537,145.443 398.761,145.281 397.691,145.281L393.753,145.281L393.753,149.359Z" style="fill-rule:nonzero;"/>
        </g>
        <g transform="matrix(1,0,0,1,-68.322,-3.85757)">
            <path d="M213.322,110.49L222.832,110.49C224.976,110.49 226.611,110.654 227.736,110.982C229.248,111.427 230.543,112.218 231.621,113.355C232.699,114.492 233.519,115.883 234.082,117.53C234.644,119.176 234.926,121.207 234.926,123.621C234.926,125.742 234.662,127.57 234.135,129.105C233.49,130.98 232.57,132.498 231.375,133.658C230.472,134.537 229.254,135.222 227.718,135.714C226.57,136.078 225.035,136.259 223.113,136.259L213.322,136.259L213.322,110.49ZM218.525,114.849L218.525,131.918L222.41,131.918C223.863,131.918 224.912,131.836 225.556,131.671C226.4,131.461 227.1,131.103 227.657,130.599C228.214,130.095 228.668,129.266 229.019,128.112C229.371,126.958 229.547,125.384 229.547,123.392C229.547,121.4 229.371,119.871 229.019,118.804C228.668,117.738 228.176,116.906 227.543,116.308C226.91,115.711 226.107,115.306 225.135,115.095C224.408,114.931 222.984,114.849 220.863,114.849L218.525,114.849Z" style="fill-rule:nonzero;"/>
            <path d="M258.375,136.259L252.89,136.259L251.607,133.043L243.31,133.043L242.08,136.259L236.718,136.259L245.121,116.255L249.744,116.255L258.375,136.259ZM247.353,121.634C247.295,121.962 247.233,122.253 247.169,122.504C247.104,122.756 247.031,123.014 246.949,123.278C246.867,123.542 246.77,123.829 246.659,124.139C246.548,124.45 246.404,124.828 246.228,125.273L244.91,128.947L249.955,128.947L248.566,125.168C248.39,124.734 248.247,124.362 248.135,124.051C248.024,123.741 247.927,123.46 247.845,123.208C247.763,122.956 247.69,122.707 247.626,122.461C247.561,122.214 247.494,121.939 247.424,121.634L247.353,121.634Z" style="fill-rule:nonzero;"/>
            <path d="M266.127,129.826C266.185,129.498 266.241,129.208 266.294,128.956C266.346,128.704 266.411,128.446 266.487,128.182C266.563,127.919 266.654,127.631 266.76,127.321C266.865,127.01 267,126.632 267.164,126.187L270.679,116.255L276.041,116.255L268.236,136.259L263.648,136.259L255.879,116.255L261.345,116.255L264.984,126.293C265.148,126.726 265.283,127.098 265.388,127.409C265.494,127.719 265.588,128.001 265.67,128.253C265.752,128.504 265.822,128.754 265.881,129C265.939,129.246 266.004,129.521 266.074,129.826L266.127,129.826Z" style="fill-rule:nonzero;"/>
            <rect x="278.941" y="116.255" width="5.063" height="20.004" style="fill-rule:nonzero;"/>
            <path d="M289.347,116.255L297.293,116.255C298.136,116.255 298.898,116.285 299.578,116.343C300.258,116.402 300.826,116.496 301.283,116.625C302.244,116.894 303.096,117.316 303.841,117.89C304.585,118.464 305.209,119.171 305.713,120.008C306.217,120.846 306.6,121.807 306.864,122.891C307.128,123.975 307.26,125.156 307.26,126.433C307.26,128.203 306.993,129.732 306.46,131.021C305.927,132.31 305.215,133.377 304.324,134.22C304.008,134.525 303.638,134.8 303.217,135.046C302.795,135.293 302.305,135.506 301.749,135.688C301.192,135.87 300.565,136.01 299.868,136.11C299.171,136.21 298.388,136.259 297.521,136.259L289.347,136.259L289.347,116.255ZM294.41,120.351L294.41,132.164L296.976,132.164C297.832,132.164 298.532,132.114 299.077,132.014C299.622,131.915 300.061,131.762 300.395,131.557C300.729,131.352 300.99,131.091 301.177,130.775C301.365,130.459 301.529,130.089 301.67,129.668C301.927,128.882 302.056,127.746 302.056,126.257C302.056,125.226 301.989,124.368 301.854,123.682C301.719,122.997 301.52,122.437 301.257,122.004C300.993,121.57 300.671,121.242 300.29,121.019C299.909,120.796 299.472,120.632 298.98,120.527C298.711,120.468 298.309,120.424 297.776,120.395C297.243,120.366 296.572,120.351 295.763,120.351L294.41,120.351Z" style="fill-rule:nonzero;"/>
            <path d="M321.463,136.259L321.463,110.49L329.25,110.49L333.926,128.068L338.549,110.49L346.353,110.49L346.353,136.259L341.519,136.259L341.519,115.974L336.404,136.259L331.394,136.259L326.297,115.974L326.297,136.259L321.463,136.259Z" style="fill-rule:nonzero;"/>
            <path d="M370.558,136.259L365.074,136.259L363.791,133.043L355.494,133.043L354.263,136.259L348.902,136.259L357.304,116.255L361.927,116.255L370.558,136.259ZM359.537,121.634C359.478,121.962 359.417,122.253 359.352,122.504C359.288,122.756 359.215,123.014 359.133,123.278C359.051,123.542 358.954,123.829 358.843,124.139C358.731,124.45 358.588,124.828 358.412,125.273L357.093,128.947L362.138,128.947L360.75,125.168C360.574,124.734 360.43,124.362 360.319,124.051C360.208,123.741 360.111,123.46 360.029,123.208C359.947,122.956 359.874,122.707 359.809,122.461C359.745,122.214 359.677,121.939 359.607,121.634L359.537,121.634Z" style="fill-rule:nonzero;"/>
            <path d="M373.23,136.259L373.23,116.255L378.011,116.255L385.763,128.472L385.816,128.472L385.816,116.255L390.597,116.255L390.597,136.259L385.711,136.259L378.064,124.236L378.011,124.236L378.011,136.259L373.23,136.259Z" style="fill-rule:nonzero;"/>
            <path d="M395.941,136.259L395.941,116.255L411.902,116.255L411.902,120.351L401.004,120.351L401.004,123.726L411.146,123.726L411.146,127.822L401.004,127.822L401.004,132.164L412.289,132.164L412.289,136.259L395.941,136.259Z" style="fill-rule:nonzero;"/>
            <path d="M416.297,136.259L416.297,116.255L425.367,116.255C426.504,116.255 427.473,116.299 428.276,116.387C429.079,116.475 429.764,116.619 430.333,116.818C430.901,117.017 431.379,117.278 431.765,117.6C432.152,117.922 432.51,118.318 432.838,118.787C433.154,119.255 433.391,119.765 433.55,120.316C433.708,120.867 433.787,121.441 433.787,122.039C433.787,122.566 433.725,123.111 433.602,123.673C433.479,124.236 433.239,124.772 432.882,125.282C432.524,125.792 432.02,126.26 431.37,126.688C430.719,127.116 429.867,127.464 428.812,127.734L428.812,127.804C429.457,128.05 430.087,128.466 430.702,129.052C431.317,129.638 431.924,130.382 432.521,131.285L435.791,136.259L429.779,136.259L426.914,131.9C426.316,130.986 425.777,130.268 425.297,129.747C424.816,129.225 424.424,128.871 424.119,128.683C423.955,128.589 423.794,128.516 423.635,128.463C423.477,128.411 423.304,128.37 423.117,128.34C422.929,128.311 422.721,128.291 422.493,128.279C422.264,128.267 421.998,128.261 421.693,128.261L421.359,128.261L421.359,136.259L416.297,136.259ZM423.89,124.324C424.722,124.324 425.39,124.315 425.894,124.297C426.398,124.28 426.802,124.248 427.107,124.201C427.623,124.119 428.001,123.896 428.241,123.533C428.481,123.17 428.601,122.754 428.601,122.285C428.601,121.769 428.452,121.347 428.153,121.019C427.854,120.691 427.453,120.492 426.949,120.421C426.761,120.398 426.422,120.38 425.929,120.369C425.437,120.357 424.81,120.351 424.049,120.351L421.359,120.351L421.359,124.324L423.89,124.324Z" style="fill-rule:nonzero;"/>
            <path d="M457.605,136.259L452.121,136.259L450.838,133.043L442.541,133.043L441.31,136.259L435.949,136.259L444.351,116.255L448.974,116.255L457.605,136.259ZM446.584,121.634C446.525,121.962 446.464,122.253 446.399,122.504C446.335,122.756 446.261,123.014 446.179,123.278C446.097,123.542 446.001,123.829 445.889,124.139C445.778,124.45 445.635,124.828 445.459,125.273L444.14,128.947L449.185,128.947L447.797,125.168C447.621,124.734 447.477,124.362 447.366,124.051C447.255,123.741 447.158,123.46 447.076,123.208C446.994,122.956 446.921,122.707 446.856,122.461C446.792,122.214 446.724,121.939 446.654,121.634L446.584,121.634Z" style="fill-rule:nonzero;"/>
        </g>
        <g transform="matrix(0.873239,0,0,1,-43.6197,60.4102)">
            <path d="M216,84L500,84" style="fill:none;stroke:black;stroke-width:3.2px;"/>
        </g>
    </g>
</svg>
