<?xml version="1.0" encoding="UTF-8" standalone="no"?>
<!DOCTYPE svg PUBLIC "-//W3C//DTD SVG 1.1//EN" "http://www.w3.org/Graphics/SVG/1.1/DTD/svg11.dtd">
<svg width="100%" height="100%" viewBox="0 0 1182 266" version="1.1" xmlns="http://www.w3.org/2000/svg" xmlns:xlink="http://www.w3.org/1999/xlink" xml:space="preserve" xmlns:serif="http://www.serif.com/" style="fill-rule:evenodd;clip-rule:evenodd;stroke-linecap:round;stroke-linejoin:round;stroke-miterlimit:1.5;">
    <g transform="matrix(1,0,0,1,-32.5269,-190.528)">
        <g transform="matrix(1,0,0,1,-116.023,102.757)">
            <path d="M148.55,314.586L148.55,271.227L173.951,271.227L173.951,275.563L154.351,275.563L154.351,289.479L170.962,289.479L170.962,293.815L154.351,293.815L154.351,310.251L175.298,310.251L175.298,314.586L148.55,314.586Z" style="fill-rule:nonzero;"/>
            <path d="M204.127,314.586L204.478,308.639L204.127,308.639C202.723,310.856 201.152,312.523 199.416,313.642C197.68,314.76 195.779,315.319 193.711,315.319C190.102,315.319 187.264,313.902 185.197,311.067C183.129,308.233 182.095,304.45 182.095,299.719C182.095,294.48 183.285,290.258 185.665,287.052C186.894,285.41 188.357,284.164 190.054,283.313C191.751,282.463 193.545,282.038 195.437,282.038C196.939,282.038 198.397,282.316 199.811,282.873C201.225,283.429 202.664,284.596 204.127,286.374L204.478,286.374L204.127,282.045L204.127,268.327L209.927,268.327L209.927,314.586L204.127,314.586ZM204.127,290.715C202.781,289.268 201.451,288.183 200.135,287.459C198.819,286.735 197.518,286.374 196.231,286.374C194.126,286.374 192.269,287.332 190.66,289.248C189.052,291.164 188.248,294.46 188.248,299.133C188.248,303.22 188.881,306.114 190.148,307.816C191.416,309.517 193.014,310.368 194.944,310.368C196.27,310.368 197.752,309.884 199.389,308.916C201.027,307.948 202.606,306.398 204.127,304.267L204.127,290.715Z" style="fill-rule:nonzero;"/>
            <path d="M231.138,314.586L231.138,287.106L219.595,287.106L219.595,282.77L236.939,282.77L236.939,314.586L231.138,314.586ZM230.406,275.563L230.406,268.327L237.642,268.327L237.642,275.563L230.406,275.563Z" style="fill-rule:nonzero;"/>
            <path d="M282.964,314.586C280.074,315.075 277.281,315.319 274.585,315.319C269.937,315.319 266.734,314.469 264.976,312.77C263.941,311.793 263.257,310.539 262.925,309.005C262.593,307.472 262.427,305.534 262.427,303.19L262.427,287.838L254.488,287.838L254.488,283.502L262.427,283.502L262.427,276.647L268.228,276.647L268.228,283.502L282.32,283.502L282.32,287.838L268.228,287.838L268.228,304.127C268.228,306.1 268.326,307.36 268.521,307.907C268.716,308.454 269.058,308.922 269.546,309.313C270.328,309.938 271.275,310.373 272.388,310.617C273.502,310.861 274.644,310.983 275.816,310.983C278.218,310.983 280.601,310.719 282.964,310.192L282.964,314.586Z" style="fill-rule:nonzero;"/>
            <path d="M303.443,314.586L303.443,287.106L291.9,287.106L291.9,282.77L309.244,282.77L309.244,314.586L303.443,314.586ZM302.71,275.563L302.71,268.327L309.947,268.327L309.947,275.563L302.71,275.563Z" style="fill-rule:nonzero;"/>
            <path d="M328.316,314.586L328.316,282.77L334.117,282.77L333.765,288.717L334.116,288.717C335.404,286.569 336.998,284.918 338.899,283.766C340.801,282.614 342.815,282.038 344.941,282.038C347.963,282.038 350.304,283.054 351.961,285.087C352.78,286.084 353.322,287.174 353.585,288.357C353.848,289.54 353.98,291.02 353.98,292.799L353.98,314.586L348.209,314.586L348.209,294.379C348.209,293.167 348.155,292.189 348.048,291.446C347.94,290.703 347.682,290.029 347.273,289.423C346.825,288.758 346.24,288.274 345.519,287.971C344.798,287.668 344.018,287.516 343.18,287.516C341.621,287.516 340.12,288.029 338.677,289.056C337.235,290.082 335.715,291.651 334.117,293.763L334.117,314.586L328.316,314.586Z" style="fill-rule:nonzero;"/>
            <path d="M365.347,325.221L365.962,320.358C368.443,321.393 370.357,322.018 371.705,322.233C373.052,322.448 374.351,322.555 375.601,322.555C378.785,322.555 381.08,321.833 382.486,320.387C383.287,319.586 383.838,318.678 384.141,317.663C384.444,316.647 384.683,315.338 384.859,313.737L385.474,307.995L385.123,307.995C384.361,309.362 383.692,310.324 383.116,310.88C382.54,311.437 381.919,311.95 381.255,312.418C380.22,313.161 379.17,313.708 378.106,314.059C377.042,314.411 375.875,314.586 374.605,314.586C372.789,314.586 371.138,314.23 369.654,313.517C368.169,312.804 366.978,311.852 366.08,310.661C364.966,309.215 364.131,307.492 363.575,305.49C363.018,303.488 362.74,301.413 362.74,299.264C362.74,294.616 363.907,290.583 366.241,287.165C368.575,283.747 371.871,282.038 376.128,282.038C377.691,282.038 379.136,282.304 380.464,282.838C381.793,283.371 383.404,284.55 385.298,286.374L385.65,286.374L385.65,282.77L390.718,282.77L390.718,308.229C390.718,311.608 390.538,314.337 390.176,316.418C389.815,318.498 388.96,320.407 387.613,322.145C386.187,323.942 384.502,325.182 382.559,325.866C380.616,326.549 378.277,326.891 375.543,326.891C372.535,326.891 369.136,326.335 365.347,325.221ZM384.947,303.299L384.947,290.774C383.462,289.092 382.081,287.938 380.801,287.312C379.522,286.686 378.218,286.374 376.89,286.374C374.175,286.374 372.164,287.542 370.855,289.879C369.546,292.216 368.892,295.213 368.892,298.87C368.892,302.175 369.507,304.781 370.738,306.687C371.968,308.594 373.687,309.547 375.894,309.547C377.691,309.547 379.537,308.814 381.431,307.347C382.056,306.839 382.613,306.335 383.101,305.837C383.589,305.338 384.205,304.492 384.947,303.299Z" style="fill-rule:nonzero;"/>
            <path d="M455.904,310.749C453.951,312.389 452.134,313.532 450.455,314.176C448.775,314.821 447.105,315.143 445.445,315.143C442.632,315.143 440.259,314.328 438.326,312.697C436.392,311.066 435.425,308.952 435.425,306.354C435.425,303.151 436.866,300.519 439.747,298.459C442.627,296.398 446.519,295.368 451.421,295.368L454.996,295.368L454.996,292.634C454.996,291.361 454.883,290.361 454.659,289.636C454.434,288.911 454.039,288.304 453.472,287.814C452.808,287.245 452.061,286.863 451.231,286.667C450.401,286.472 449.507,286.374 448.55,286.374C447.164,286.374 445.64,286.55 443.98,286.903C442.32,287.255 440.386,288.019 438.179,289.195L438.179,284.238C440.699,283.338 442.794,282.746 444.463,282.463C446.133,282.179 447.886,282.038 449.722,282.038C453.921,282.038 456.861,282.947 458.541,284.765C459.478,285.782 460.088,286.911 460.372,288.152C460.655,289.394 460.796,290.924 460.796,292.742L460.796,306.085C460.796,307.18 460.826,308.001 460.884,308.549C460.943,309.096 461.128,309.575 461.441,309.986C461.675,310.318 461.988,310.577 462.378,310.763C462.769,310.949 463.218,311.042 463.726,311.042C464.097,311.042 464.703,310.944 465.543,310.749L466.07,314.206C464.156,314.831 462.691,315.143 461.675,315.143C460.503,315.143 459.41,314.884 458.394,314.367C457.378,313.849 456.548,312.643 455.904,310.749ZM454.996,306.999L454.996,298.971L453.267,298.971C449.166,298.971 446.163,299.552 444.258,300.714C442.354,301.877 441.402,303.444 441.402,305.417C441.402,306.784 441.866,307.975 442.794,308.991C443.721,310.006 445.113,310.514 446.968,310.514C448.238,310.514 449.542,310.221 450.879,309.635C452.217,309.049 453.589,308.17 454.996,306.999Z" style="fill-rule:nonzero;"/>
            <path d="M472.925,314.586L472.925,282.77L478.726,282.77L478.375,288.717L478.726,288.717C480.013,286.569 481.607,284.918 483.509,283.766C485.41,282.614 487.424,282.038 489.55,282.038C492.573,282.038 494.913,283.054 496.571,285.087C497.39,286.084 497.931,287.174 498.194,288.357C498.458,289.54 498.589,291.02 498.589,292.799L498.589,314.586L492.818,314.586L492.818,294.379C492.818,293.167 492.764,292.189 492.657,291.446C492.55,290.703 492.291,290.029 491.882,289.423C491.434,288.758 490.849,288.274 490.128,287.971C489.407,287.668 488.627,287.516 487.789,287.516C486.23,287.516 484.729,288.029 483.287,289.056C481.845,290.082 480.324,291.651 478.726,293.763L478.726,314.586L472.925,314.586Z" style="fill-rule:nonzero;"/>
            <path d="M529.498,314.586L529.849,308.639L529.498,308.639C528.094,310.856 526.523,312.523 524.787,313.642C523.051,314.76 521.15,315.319 519.082,315.319C515.473,315.319 512.635,313.902 510.568,311.067C508.5,308.233 507.466,304.45 507.466,299.719C507.466,294.48 508.656,290.258 511.036,287.052C512.265,285.41 513.728,284.164 515.425,283.313C517.122,282.463 518.916,282.038 520.808,282.038C522.31,282.038 523.768,282.316 525.182,282.873C526.596,283.429 528.035,284.596 529.498,286.374L529.849,286.374L529.498,282.045L529.498,268.327L535.298,268.327L535.298,314.586L529.498,314.586ZM529.498,290.715C528.152,289.268 526.822,288.183 525.506,287.459C524.19,286.735 522.889,286.374 521.602,286.374C519.497,286.374 517.64,287.332 516.031,289.248C514.423,291.164 513.619,294.46 513.619,299.133C513.619,303.22 514.252,306.114 515.52,307.816C516.787,309.517 518.385,310.368 520.315,310.368C521.641,310.368 523.123,309.884 524.76,308.916C526.398,307.948 527.977,306.398 529.498,304.267L529.498,290.715Z" style="fill-rule:nonzero;"/>
            <path d="M582.73,314.586L582.73,271.227L594.947,271.227C597.486,271.227 599.654,271.393 601.451,271.725C604.146,272.233 606.236,273.434 607.72,275.329C609.205,277.223 609.947,279.713 609.947,282.799C609.947,287.35 608.425,290.895 605.383,293.434C602.34,295.973 598.127,297.243 592.744,297.243L588.531,297.243L588.531,314.586L582.73,314.586ZM588.531,292.907L592.134,292.907C596.841,292.907 599.966,291.886 601.509,289.845C603.052,287.804 603.824,285.465 603.824,282.829C603.824,280.192 602.916,278.249 601.099,276.999C600.298,276.452 599.434,276.076 598.506,275.871C597.579,275.666 596.168,275.563 594.273,275.563L588.531,275.563L588.531,292.907Z" style="fill-rule:nonzero;"/>
            <path d="M621.226,314.586L621.226,282.77L627.027,282.77L626.675,288.717L627.026,288.717C628.352,286.706 629.947,285.089 631.809,283.869C633.671,282.648 636.016,282.038 638.843,282.038C640.559,282.038 642.519,282.282 644.722,282.77L644.722,291.793L640.386,291.793L640.386,287.252C639.49,287.057 638.681,286.96 637.96,286.96C635.992,286.96 634.096,287.531 632.274,288.675C630.452,289.819 628.703,291.544 627.027,293.852L627.027,314.586L621.226,314.586Z" style="fill-rule:nonzero;"/>
            <path d="M666.417,315.319C661.616,315.319 657.919,313.779 655.324,310.701C652.729,307.622 651.431,303.609 651.431,298.664C651.431,293.718 652.729,289.711 655.324,286.641C657.919,283.572 661.616,282.038 666.417,282.038C671.217,282.038 674.914,283.572 677.509,286.641C680.104,289.711 681.402,293.718 681.402,298.664C681.402,303.609 680.104,307.622 677.509,310.701C674.914,313.779 671.217,315.319 666.417,315.319ZM666.417,310.983C669.205,310.983 671.374,309.893 672.924,307.712C674.474,305.532 675.25,302.516 675.25,298.664C675.25,294.831 674.47,291.824 672.91,289.644C671.35,287.464 669.185,286.374 666.417,286.374C663.648,286.374 661.483,287.464 659.923,289.644C658.363,291.824 657.584,294.831 657.584,298.664C657.584,302.516 658.359,305.532 659.909,307.712C661.459,309.893 663.628,310.983 666.417,310.983Z" style="fill-rule:nonzero;"/>
            <path d="M702.569,315.319C697.769,315.319 694.071,313.779 691.476,310.701C688.881,307.622 687.584,303.609 687.584,298.664C687.584,293.718 688.881,289.711 691.476,286.641C694.071,283.572 697.769,282.038 702.569,282.038C707.369,282.038 711.067,283.572 713.662,286.641C716.257,289.711 717.554,293.718 717.554,298.664C717.554,303.609 716.257,307.622 713.662,310.701C711.067,313.779 707.369,315.319 702.569,315.319ZM702.569,310.983C705.357,310.983 707.527,309.893 709.077,307.712C710.627,305.532 711.402,302.516 711.402,298.664C711.402,294.831 710.622,291.824 709.062,289.644C707.502,287.464 705.338,286.374 702.569,286.374C699.8,286.374 697.636,287.464 696.076,289.644C694.516,291.824 693.736,294.831 693.736,298.664C693.736,302.516 694.511,305.532 696.061,307.712C697.611,309.893 699.781,310.983 702.569,310.983Z" style="fill-rule:nonzero;"/>
            <path d="M733.668,314.586L733.668,287.838L724.996,287.838L724.996,283.502L733.668,283.502L733.668,280.133C733.668,277.77 733.882,275.885 734.312,274.479C734.937,272.409 736.285,270.744 738.355,269.484C740.425,268.224 743.296,267.594 746.968,267.594C750.093,267.594 753.052,268.014 755.845,268.854L755.845,273.424C752.999,272.428 750.191,271.93 747.423,271.93C744.693,271.93 742.646,272.506 741.282,273.659C740.638,274.206 740.175,274.875 739.892,275.666C739.61,276.457 739.468,277.741 739.468,279.518L739.468,283.502L754.644,283.502L754.644,287.838L739.468,287.838L739.468,314.586L733.668,314.586Z" style="fill-rule:nonzero;"/>
            <path d="M762.203,314.586L762.203,271.227L772.708,271.227C776.766,271.227 779.692,271.608 781.487,272.37C783.282,273.131 784.691,274.386 785.715,276.134C786.739,277.882 787.252,279.762 787.252,281.774C787.252,283.864 786.663,286.042 785.486,288.307C784.309,290.573 781.999,292.585 778.556,294.342L792.042,314.586L785.057,314.586L773.196,296.042L768.003,296.042L768.003,314.586L762.203,314.586ZM768.003,291.706L771.043,291.706C774.376,291.706 776.89,290.763 778.585,288.878C780.281,286.994 781.128,284.782 781.128,282.243C781.128,280.895 780.851,279.723 780.295,278.727C779.74,277.731 778.858,276.955 777.65,276.398C776.442,275.841 774.405,275.563 771.541,275.563L768.003,275.563L768.003,291.706Z" style="fill-rule:nonzero;"/>
            <path d="M825.132,313.327C824.117,313.659 823.355,313.903 822.847,314.059C821.363,314.489 819.903,314.806 818.467,315.011C817.032,315.216 815.582,315.319 814.117,315.319C808.14,315.319 803.809,313.779 801.124,310.701C798.438,307.622 797.095,303.727 797.095,299.016C797.095,294.343 798.467,290.346 801.211,287.022C803.956,283.699 807.593,282.038 812.125,282.038C815.972,282.038 819.068,283.207 821.412,285.544C823.755,287.882 824.927,292.142 824.927,298.323L824.927,300.172L803.248,300.172C803.482,304.254 804.712,307.077 806.939,308.639C809.166,310.202 811.822,310.983 814.908,310.983C818.013,310.983 821.421,310.241 825.132,308.756L825.132,313.327ZM803.423,295.836L818.775,295.836L818.775,295.013C818.775,291.918 818.096,289.704 816.739,288.372C815.381,287.04 813.668,286.374 811.597,286.374C809.39,286.374 807.544,287.192 806.06,288.827C804.576,290.463 803.697,292.8 803.423,295.836Z" style="fill-rule:nonzero;"/>
            <path d="M853.58,310.749C851.627,312.389 849.81,313.532 848.13,314.176C846.451,314.821 844.781,315.143 843.121,315.143C840.308,315.143 837.935,314.328 836.002,312.697C834.068,311.066 833.101,308.952 833.101,306.354C833.101,303.151 834.542,300.519 837.422,298.459C840.303,296.398 844.195,295.368 849.097,295.368L852.671,295.368L852.671,292.634C852.671,291.361 852.559,290.361 852.335,289.636C852.11,288.911 851.714,288.304 851.148,287.814C850.484,287.245 849.737,286.863 848.907,286.667C848.077,286.472 847.183,286.374 846.226,286.374C844.839,286.374 843.316,286.55 841.656,286.903C839.996,287.255 838.062,288.019 835.855,289.195L835.855,284.238C838.375,283.338 840.469,282.746 842.139,282.463C843.809,282.179 845.562,282.038 847.398,282.038C851.597,282.038 854.537,282.947 856.216,284.765C857.154,285.782 857.764,286.911 858.047,288.152C858.331,289.394 858.472,290.924 858.472,292.742L858.472,306.085C858.472,307.18 858.502,308.001 858.56,308.549C858.619,309.096 858.804,309.575 859.117,309.986C859.351,310.318 859.664,310.577 860.054,310.763C860.445,310.949 860.894,311.042 861.402,311.042C861.773,311.042 862.378,310.944 863.218,310.749L863.746,314.206C861.832,314.831 860.367,315.143 859.351,315.143C858.179,315.143 857.085,314.884 856.07,314.367C855.054,313.849 854.224,312.643 853.58,310.749ZM852.671,306.999L852.671,298.971L850.943,298.971C846.841,298.971 843.838,299.552 841.934,300.714C840.03,301.877 839.078,303.444 839.078,305.417C839.078,306.784 839.542,307.975 840.469,308.991C841.397,310.006 842.789,310.514 844.644,310.514C845.914,310.514 847.217,310.221 848.555,309.635C849.893,309.049 851.265,308.17 852.671,306.999Z" style="fill-rule:nonzero;"/>
            <path d="M891.021,314.586L891.373,308.639L891.022,308.639C889.617,310.856 888.047,312.523 886.311,313.642C884.575,314.76 882.673,315.319 880.606,315.319C876.997,315.319 874.159,313.902 872.091,311.067C870.024,308.233 868.99,304.45 868.99,299.719C868.99,294.48 870.18,290.258 872.559,287.052C873.788,285.41 875.251,284.164 876.948,283.313C878.645,282.463 880.44,282.038 882.332,282.038C883.834,282.038 885.292,282.316 886.706,282.873C888.12,283.429 889.558,284.596 891.022,286.374L891.373,286.374L891.021,282.045L891.021,268.327L896.822,268.327L896.822,314.586L891.021,314.586ZM891.021,290.715C889.676,289.268 888.345,288.183 887.029,287.459C885.713,286.735 884.412,286.374 883.126,286.374C881.02,286.374 879.163,287.332 877.555,289.248C875.946,291.164 875.142,294.46 875.142,299.133C875.142,303.22 875.776,306.114 877.043,307.816C878.31,309.517 879.909,310.368 881.839,310.368C883.164,310.368 884.646,309.884 886.284,308.916C887.921,307.948 889.5,306.398 891.021,304.267L891.021,290.715Z" style="fill-rule:nonzero;"/>
            <path d="M918.033,314.586L918.033,287.106L906.49,287.106L906.49,282.77L923.834,282.77L923.834,314.586L918.033,314.586ZM917.3,275.563L917.3,268.327L924.537,268.327L924.537,275.563L917.3,275.563Z" style="fill-rule:nonzero;"/>
            <path d="M942.906,314.586L942.906,282.77L948.707,282.77L948.355,288.717L948.706,288.717C949.993,286.569 951.588,284.918 953.489,283.766C955.391,282.614 957.405,282.038 959.53,282.038C962.553,282.038 964.893,283.054 966.551,285.087C967.37,286.084 967.911,287.174 968.175,288.357C968.438,289.54 968.57,291.02 968.57,292.799L968.57,314.586L962.798,314.586L962.798,294.379C962.798,293.167 962.745,292.189 962.637,291.446C962.53,290.703 962.272,290.029 961.863,289.423C961.414,288.758 960.83,288.274 960.109,287.971C959.387,287.668 958.608,287.516 957.77,287.516C956.21,287.516 954.71,288.029 953.267,289.056C951.825,290.082 950.305,291.651 948.707,293.763L948.707,314.586L942.906,314.586Z" style="fill-rule:nonzero;"/>
            <path d="M979.937,325.221L980.552,320.358C983.033,321.393 984.947,322.018 986.294,322.233C987.642,322.448 988.941,322.555 990.191,322.555C993.375,322.555 995.669,321.833 997.076,320.387C997.877,319.586 998.428,318.678 998.731,317.663C999.034,316.647 999.273,315.338 999.449,313.737L1000.06,307.995L999.712,307.995C998.951,309.362 998.282,310.324 997.706,310.88C997.129,311.437 996.509,311.95 995.845,312.418C994.81,313.161 993.76,313.708 992.696,314.059C991.631,314.411 990.464,314.586 989.195,314.586C987.378,314.586 985.728,314.23 984.244,313.517C982.759,312.804 981.568,311.852 980.669,310.661C979.556,309.215 978.721,307.492 978.165,305.49C977.608,303.488 977.33,301.413 977.33,299.264C977.33,294.616 978.497,290.583 980.831,287.165C983.165,283.747 986.46,282.038 990.718,282.038C992.281,282.038 993.726,282.304 995.054,282.838C996.382,283.371 997.994,284.55 999.888,286.374L1000.24,286.374L1000.24,282.77L1005.31,282.77L1005.31,308.229C1005.31,311.608 1005.13,314.337 1004.77,316.418C1004.4,318.498 1003.55,320.407 1002.2,322.145C1000.78,323.942 999.092,325.182 997.149,325.866C995.206,326.549 992.867,326.891 990.132,326.891C987.125,326.891 983.726,326.335 979.937,325.221ZM999.537,303.299L999.537,290.774C998.052,289.092 996.67,287.938 995.391,287.312C994.112,286.686 992.808,286.374 991.48,286.374C988.765,286.374 986.753,287.542 985.445,289.879C984.136,292.216 983.482,295.213 983.482,298.87C983.482,302.175 984.097,304.781 985.328,306.687C986.558,308.594 988.277,309.547 990.484,309.547C992.281,309.547 994.127,308.814 996.021,307.347C996.646,306.839 997.203,306.335 997.691,305.837C998.179,305.338 998.794,304.492 999.537,303.299Z" style="fill-rule:nonzero;"/>
            <path d="M1050.84,313.59L1050.84,307.877C1055.91,310.182 1060.28,311.335 1063.93,311.335C1065.57,311.335 1067.11,311.027 1068.55,310.412C1069.98,309.796 1071.08,308.883 1071.83,307.672C1072.58,306.461 1072.95,305.172 1072.95,303.805C1072.95,301.031 1071.24,298.746 1067.8,296.949L1059.39,292.555C1056.3,290.934 1054.16,289.254 1052.94,287.516C1051.73,285.778 1051.13,283.747 1051.13,281.422C1051.13,278.415 1052.18,275.783 1054.29,273.527C1056.4,271.271 1059.74,270.143 1064.31,270.143C1067.63,270.143 1071.4,270.729 1075.62,271.901L1075.62,276.911C1071.4,275.29 1067.63,274.479 1064.31,274.479C1062.77,274.479 1061.39,274.709 1060.17,275.168C1058.95,275.627 1058.03,276.349 1057.43,277.335C1056.82,278.322 1056.52,279.372 1056.52,280.485C1056.52,281.793 1056.94,283.004 1057.78,284.118C1058.6,285.231 1060.11,286.354 1062.32,287.487L1070.17,291.559C1073.51,293.278 1075.78,295.016 1076.97,296.774C1078.16,298.532 1078.76,300.563 1078.76,302.868C1078.76,306.501 1077.43,309.543 1074.77,311.994C1072.12,314.445 1068.28,315.67 1063.26,315.67C1061.97,315.67 1060.52,315.578 1058.92,315.392C1057.32,315.207 1054.63,314.606 1050.84,313.59Z" style="fill-rule:nonzero;"/>
            <path d="M1114.35,313.327C1113.34,313.659 1112.57,313.903 1112.07,314.059C1110.58,314.489 1109.12,314.806 1107.69,315.011C1106.25,315.216 1104.8,315.319 1103.34,315.319C1097.36,315.319 1093.03,313.779 1090.34,310.701C1087.66,307.622 1086.31,303.727 1086.31,299.016C1086.31,294.343 1087.69,290.346 1090.43,287.022C1093.17,283.699 1096.81,282.038 1101.34,282.038C1105.19,282.038 1108.29,283.207 1110.63,285.544C1112.97,287.882 1114.15,292.142 1114.15,298.323L1114.15,300.172L1092.47,300.172C1092.7,304.254 1093.93,307.077 1096.16,308.639C1098.38,310.202 1101.04,310.983 1104.13,310.983C1107.23,310.983 1110.64,310.241 1114.35,308.756L1114.35,313.327ZM1092.64,295.836L1107.99,295.836L1107.99,295.013C1107.99,291.918 1107.32,289.704 1105.96,288.372C1104.6,287.04 1102.89,286.374 1100.82,286.374C1098.61,286.374 1096.76,287.192 1095.28,288.827C1093.79,290.463 1092.92,292.8 1092.64,295.836Z" style="fill-rule:nonzero;"/>
            <path d="M1127.36,314.586L1127.36,282.77L1133.16,282.77L1132.81,288.717L1133.16,288.717C1134.49,286.706 1136.08,285.089 1137.94,283.869C1139.8,282.648 1142.15,282.038 1144.98,282.038C1146.69,282.038 1148.65,282.282 1150.86,282.77L1150.86,291.793L1146.52,291.793L1146.52,287.252C1145.62,287.057 1144.81,286.96 1144.09,286.96C1142.13,286.96 1140.23,287.531 1138.41,288.675C1136.59,289.819 1134.84,291.544 1133.16,293.852L1133.16,314.586L1127.36,314.586Z" style="fill-rule:nonzero;"/>
            <path d="M1169.49,314.586L1156.3,282.77L1162.26,282.77L1172.84,308.295L1183.7,282.77L1188.82,282.77L1175.29,314.586L1169.49,314.586Z" style="fill-rule:nonzero;"/>
            <path d="M1207.25,314.586L1207.25,287.106L1195.71,287.106L1195.71,282.77L1213.05,282.77L1213.05,314.586L1207.25,314.586ZM1206.52,275.563L1206.52,268.327L1213.76,268.327L1213.76,275.563L1206.52,275.563Z" style="fill-rule:nonzero;"/>
            <path d="M1259.08,313.561C1255.66,314.733 1252.26,315.319 1248.86,315.319C1243.07,315.319 1238.74,313.809 1235.87,310.789C1233,307.768 1231.57,303.727 1231.57,298.664C1231.57,293.659 1233.01,289.637 1235.88,286.597C1238.76,283.558 1242.91,282.038 1248.34,282.038C1251.69,282.038 1255.08,282.545 1258.49,283.561L1258.49,288.397C1254.73,287.048 1251.52,286.374 1248.87,286.374C1245.36,286.374 1242.62,287.478 1240.66,289.688C1238.7,291.898 1237.72,294.89 1237.72,298.664C1237.72,302.516 1238.78,305.532 1240.91,307.712C1243.04,309.893 1245.95,310.983 1249.66,310.983C1252.45,310.983 1255.59,310.328 1259.08,309.018L1259.08,313.561Z" style="fill-rule:nonzero;"/>
            <path d="M1295.11,313.327C1294.1,313.659 1293.34,313.903 1292.83,314.059C1291.34,314.489 1289.88,314.806 1288.45,315.011C1287.01,315.216 1285.56,315.319 1284.1,315.319C1278.12,315.319 1273.79,313.779 1271.1,310.701C1268.42,307.622 1267.08,303.727 1267.08,299.016C1267.08,294.343 1268.45,290.346 1271.19,287.022C1273.94,283.699 1277.57,282.038 1282.11,282.038C1285.95,282.038 1289.05,283.207 1291.39,285.544C1293.74,287.882 1294.91,292.142 1294.91,298.323L1294.91,300.172L1273.23,300.172C1273.46,304.254 1274.69,307.077 1276.92,308.639C1279.15,310.202 1281.8,310.983 1284.89,310.983C1287.99,310.983 1291.4,310.241 1295.11,308.756L1295.11,313.327ZM1273.4,295.836L1288.76,295.836L1288.76,295.013C1288.76,291.918 1288.08,289.704 1286.72,288.372C1285.36,287.04 1283.65,286.374 1281.58,286.374C1279.37,286.374 1277.53,287.192 1276.04,288.827C1274.56,290.463 1273.68,292.8 1273.4,295.836Z" style="fill-rule:nonzero;"/>
            <path d="M1304.58,313.295L1304.58,308.073C1309.05,310.013 1312.92,310.983 1316.18,310.983C1318.81,310.983 1320.83,310.454 1322.21,309.396C1323.6,308.337 1324.29,307.191 1324.29,305.956C1324.29,305.055 1323.96,304.251 1323.3,303.546C1322.62,302.86 1321.12,302.145 1318.82,301.4L1312.63,299.391C1310.43,298.688 1308.67,297.642 1307.36,296.254C1306.05,294.887 1305.4,293.177 1305.4,291.125C1305.4,288.447 1306.43,286.264 1308.49,284.573C1310.55,282.883 1313.69,282.038 1317.91,282.038C1319.16,282.038 1320.47,282.096 1321.86,282.213C1323.25,282.331 1325.4,282.731 1328.31,283.415L1328.31,288.104C1324.5,286.95 1321.02,286.374 1317.88,286.374C1315.67,286.374 1313.96,286.774 1312.75,287.576C1311.54,288.378 1310.93,289.385 1310.93,290.597C1310.93,291.399 1311.23,292.093 1311.81,292.68C1312.38,293.286 1313.52,293.883 1315.24,294.469L1322.54,297.021C1325.46,298.038 1327.45,299.22 1328.48,300.569C1329.5,301.938 1330.01,303.56 1330.01,305.437C1330.01,308.154 1328.85,310.481 1326.53,312.416C1324.22,314.351 1320.81,315.319 1316.29,315.319C1312.64,315.319 1308.74,314.644 1304.58,313.295Z" style="fill-rule:nonzero;"/>
        </g>
        <g transform="matrix(0.967562,-0.252632,0.252632,0.967562,249.449,202.669)">
            <path d="M413.733,250.455C413.733,252.33 414.194,254.073 415.116,255.682C416.038,257.291 417.249,258.698 418.749,259.901C420.249,261.104 421.968,262.041 423.905,262.713C425.843,263.385 427.827,263.721 429.858,263.721C430.483,263.721 431.124,263.666 431.78,263.557C432.437,263.448 433.03,263.252 433.562,262.971C434.093,262.69 434.53,262.323 434.874,261.869C435.218,261.416 435.39,260.846 435.39,260.159C435.39,258.846 434.929,257.549 434.007,256.268C433.085,254.987 431.874,253.713 430.374,252.448C428.874,251.182 427.155,249.916 425.218,248.651C423.28,247.385 421.312,246.127 419.312,244.877C417.312,243.627 415.343,242.369 413.405,241.104C411.468,239.838 409.749,238.573 408.249,237.307C406.749,236.041 405.538,234.76 404.616,233.463C403.694,232.166 403.233,230.862 403.233,229.549C403.233,228.299 403.554,227.135 404.194,226.057C404.835,224.979 405.687,224.002 406.749,223.127C407.812,222.252 409.046,221.471 410.452,220.784C411.858,220.096 413.327,219.518 414.858,219.049C416.39,218.58 417.929,218.229 419.476,217.994C421.023,217.76 422.499,217.643 423.905,217.643C424.937,217.643 426.069,217.666 427.304,217.713C428.538,217.76 429.694,217.901 430.773,218.135C431.851,218.369 432.749,218.721 433.468,219.19C434.187,219.659 434.546,220.33 434.546,221.205C434.546,221.487 434.499,221.838 434.405,222.26C434.312,222.682 434.046,223.377 433.608,224.346C433.171,225.252 432.663,225.932 432.085,226.385C431.507,226.838 430.765,227.065 429.858,227.065C428.577,227.065 427.226,226.916 425.804,226.619C424.382,226.323 422.952,226.174 421.515,226.174C420.733,226.174 419.944,226.213 419.148,226.291C418.351,226.369 417.624,226.51 416.968,226.713C416.312,226.916 415.78,227.213 415.374,227.604C414.968,227.994 414.765,228.487 414.765,229.08C414.765,229.674 415.194,230.346 416.054,231.096C416.913,231.846 418.054,232.674 419.476,233.58C420.898,234.487 422.515,235.479 424.327,236.557C426.14,237.635 427.991,238.791 429.882,240.026C431.773,241.26 433.624,242.573 435.437,243.963C437.249,245.354 438.866,246.823 440.288,248.369C441.71,249.916 442.851,251.549 443.71,253.268C444.569,254.987 444.999,256.768 444.999,258.612C444.999,260.862 444.483,262.846 443.452,264.565C442.421,266.284 441.093,267.721 439.468,268.877C437.843,270.034 436.046,270.901 434.077,271.479C432.108,272.057 430.187,272.346 428.312,272.346C426.405,272.346 424.476,272.119 422.523,271.666C420.569,271.213 418.687,270.573 416.874,269.744C415.062,268.916 413.366,267.916 411.788,266.744C410.21,265.573 408.843,264.26 407.687,262.807C406.53,261.354 405.616,259.784 404.944,258.096C404.273,256.409 403.937,254.643 403.937,252.799C403.937,252.018 403.991,251.229 404.101,250.432C404.21,249.635 404.405,248.932 404.687,248.323C404.968,247.713 405.358,247.213 405.858,246.823C406.358,246.432 406.999,246.237 407.78,246.237C408.03,246.237 408.312,246.26 408.624,246.307C408.937,246.354 409.483,246.502 410.265,246.752C411.171,247.034 411.976,247.479 412.679,248.088C413.382,248.698 413.733,249.487 413.733,250.455Z" style="fill:rgb(193,0,0);fill-rule:nonzero;"/>
            <path d="M488.78,259.409C489.687,258.627 490.577,258.237 491.452,258.237C491.952,258.237 492.405,258.362 492.812,258.612C493.218,258.862 493.671,259.252 494.171,259.784C494.64,260.502 494.976,261.088 495.179,261.541C495.382,261.994 495.483,262.44 495.483,262.877C495.483,263.815 495.015,264.705 494.077,265.549C492.577,266.799 490.952,267.916 489.202,268.901C487.452,269.885 485.624,270.721 483.718,271.409C481.812,272.096 479.843,272.619 477.812,272.979C475.78,273.338 473.765,273.518 471.765,273.518C469.233,273.518 466.858,273.198 464.64,272.557C462.421,271.916 460.444,271.002 458.71,269.815C456.976,268.627 455.515,267.198 454.327,265.526C453.14,263.854 452.296,261.971 451.796,259.877C451.515,259.002 451.257,258.432 451.023,258.166C450.788,257.901 450.405,257.768 449.874,257.768C448.718,257.768 447.827,257.487 447.202,256.924C446.577,256.362 446.265,255.549 446.265,254.487C446.265,254.049 446.296,253.768 446.358,253.643L446.452,252.705C446.608,251.58 446.913,250.768 447.366,250.268C447.819,249.768 448.53,249.518 449.499,249.518L450.202,249.518C451.515,249.518 452.437,248.909 452.968,247.69C453.937,245.534 455.171,243.565 456.671,241.784C458.171,240.002 459.858,238.479 461.733,237.213C463.608,235.948 465.616,234.963 467.757,234.26C469.898,233.557 472.077,233.205 474.296,233.205C476.608,233.205 478.773,233.541 480.788,234.213C482.804,234.885 484.562,235.815 486.062,237.002C487.562,238.19 488.741,239.58 489.601,241.174C490.46,242.768 490.89,244.487 490.89,246.33C490.89,247.612 490.64,248.784 490.14,249.846C489.64,250.909 488.921,251.838 487.983,252.635C487.046,253.432 485.913,254.08 484.585,254.58C483.257,255.08 481.749,255.409 480.062,255.565L463.796,257.205C463.171,257.205 462.663,257.362 462.273,257.674C461.882,257.987 461.687,258.409 461.687,258.94C461.687,259.752 461.991,260.534 462.601,261.284C463.21,262.034 464.023,262.698 465.038,263.276C466.054,263.854 467.226,264.315 468.554,264.659C469.882,265.002 471.249,265.174 472.655,265.174C473.999,265.174 475.382,265.041 476.804,264.776C478.226,264.51 479.632,264.127 481.023,263.627C482.413,263.127 483.765,262.526 485.077,261.823C486.39,261.119 487.624,260.315 488.78,259.409ZM478.327,247.315C478.796,247.221 479.202,246.994 479.546,246.635C479.89,246.276 480.062,245.83 480.062,245.299C480.062,244.83 479.89,244.393 479.546,243.987C479.202,243.58 478.733,243.213 478.14,242.885C477.546,242.557 476.858,242.299 476.077,242.112C475.296,241.924 474.468,241.83 473.593,241.83C472.312,241.83 470.999,242.018 469.655,242.393C468.312,242.768 467.093,243.26 465.999,243.869C464.905,244.479 464.015,245.151 463.327,245.885C462.64,246.619 462.296,247.346 462.296,248.065C462.296,248.784 462.733,249.143 463.608,249.143C464.14,249.143 464.999,249.08 466.187,248.955C467.374,248.83 468.687,248.682 470.124,248.51C471.562,248.338 473.015,248.143 474.483,247.924C475.952,247.705 477.233,247.502 478.327,247.315Z" style="fill:rgb(193,0,0);fill-rule:nonzero;"/>
            <path d="M538.327,259.409C539.233,258.627 540.124,258.237 540.999,258.237C541.499,258.237 541.952,258.362 542.358,258.612C542.765,258.862 543.218,259.252 543.718,259.784C544.187,260.502 544.523,261.088 544.726,261.541C544.929,261.994 545.03,262.44 545.03,262.877C545.03,263.815 544.562,264.705 543.624,265.549C542.124,266.799 540.499,267.916 538.749,268.901C536.999,269.885 535.171,270.721 533.265,271.409C531.358,272.096 529.39,272.619 527.358,272.979C525.327,273.338 523.312,273.518 521.312,273.518C518.78,273.518 516.405,273.198 514.187,272.557C511.968,271.916 509.991,271.002 508.257,269.815C506.523,268.627 505.062,267.198 503.874,265.526C502.687,263.854 501.843,261.971 501.343,259.877C501.062,259.002 500.804,258.432 500.569,258.166C500.335,257.901 499.952,257.768 499.421,257.768C498.265,257.768 497.374,257.487 496.749,256.924C496.124,256.362 495.812,255.549 495.812,254.487C495.812,254.049 495.843,253.768 495.905,253.643L495.999,252.705C496.155,251.58 496.46,250.768 496.913,250.268C497.366,249.768 498.077,249.518 499.046,249.518L499.749,249.518C501.062,249.518 501.983,248.909 502.515,247.69C503.483,245.534 504.718,243.565 506.218,241.784C507.718,240.002 509.405,238.479 511.28,237.213C513.155,235.948 515.163,234.963 517.304,234.26C519.444,233.557 521.624,233.205 523.843,233.205C526.155,233.205 528.319,233.541 530.335,234.213C532.351,234.885 534.108,235.815 535.608,237.002C537.108,238.19 538.288,239.58 539.148,241.174C540.007,242.768 540.437,244.487 540.437,246.33C540.437,247.612 540.187,248.784 539.687,249.846C539.187,250.909 538.468,251.838 537.53,252.635C536.593,253.432 535.46,254.08 534.132,254.58C532.804,255.08 531.296,255.409 529.608,255.565L513.343,257.205C512.718,257.205 512.21,257.362 511.819,257.674C511.429,257.987 511.233,258.409 511.233,258.94C511.233,259.752 511.538,260.534 512.148,261.284C512.757,262.034 513.569,262.698 514.585,263.276C515.601,263.854 516.773,264.315 518.101,264.659C519.429,265.002 520.796,265.174 522.202,265.174C523.546,265.174 524.929,265.041 526.351,264.776C527.773,264.51 529.179,264.127 530.569,263.627C531.96,263.127 533.312,262.526 534.624,261.823C535.937,261.119 537.171,260.315 538.327,259.409ZM527.874,247.315C528.343,247.221 528.749,246.994 529.093,246.635C529.437,246.276 529.608,245.83 529.608,245.299C529.608,244.83 529.437,244.393 529.093,243.987C528.749,243.58 528.28,243.213 527.687,242.885C527.093,242.557 526.405,242.299 525.624,242.112C524.843,241.924 524.015,241.83 523.14,241.83C521.858,241.83 520.546,242.018 519.202,242.393C517.858,242.768 516.64,243.26 515.546,243.869C514.452,244.479 513.562,245.151 512.874,245.885C512.187,246.619 511.843,247.346 511.843,248.065C511.843,248.784 512.28,249.143 513.155,249.143C513.687,249.143 514.546,249.08 515.733,248.955C516.921,248.83 518.233,248.682 519.671,248.51C521.108,248.338 522.562,248.143 524.03,247.924C525.499,247.705 526.78,247.502 527.874,247.315Z" style="fill:rgb(193,0,0);fill-rule:nonzero;"/>
            <path d="M616.187,244.127C615.812,244.127 615.483,244.424 615.202,245.018C614.015,247.33 612.757,249.424 611.429,251.299C610.101,253.174 608.765,254.768 607.421,256.08C606.077,257.393 604.749,258.401 603.437,259.104C602.124,259.807 600.89,260.159 599.733,260.159C598.608,260.159 597.569,259.916 596.616,259.432C595.663,258.948 594.632,258.034 593.523,256.69C592.413,255.346 591.148,253.487 589.726,251.112C588.304,248.737 586.562,245.643 584.499,241.83C584.155,241.205 583.804,240.744 583.444,240.448C583.085,240.151 582.765,240.002 582.483,240.002C582.077,240.002 581.702,240.432 581.358,241.291C581.015,242.151 580.718,243.354 580.468,244.901C580.218,246.448 580.023,248.307 579.882,250.479C579.741,252.651 579.671,255.049 579.671,257.674C579.671,259.237 579.757,260.799 579.929,262.362C580.101,263.924 580.187,265.534 580.187,267.19C580.187,267.752 580.03,268.276 579.718,268.76C579.405,269.244 578.991,269.666 578.476,270.026C577.96,270.385 577.351,270.674 576.648,270.893C575.944,271.112 575.202,271.221 574.421,271.221C572.858,271.221 571.733,270.284 571.046,268.409C570.358,266.534 570.015,263.534 570.015,259.409C570.015,254.19 570.304,249.448 570.882,245.182C571.46,240.916 572.288,237.26 573.366,234.213C574.444,231.166 575.726,228.807 577.21,227.135C578.694,225.463 580.358,224.627 582.202,224.627C583.827,224.627 585.382,225.557 586.866,227.416C588.351,229.276 589.952,232.284 591.671,236.44C592.358,238.127 593.101,239.705 593.898,241.174C594.694,242.643 595.491,243.916 596.288,244.994C597.085,246.073 597.858,246.916 598.608,247.526C599.358,248.135 600.03,248.44 600.624,248.44C601.218,248.44 601.788,248.307 602.335,248.041C602.882,247.776 603.507,247.198 604.21,246.307C604.913,245.416 605.741,244.112 606.694,242.393C607.648,240.674 608.827,238.377 610.233,235.502C610.983,234.002 611.655,232.752 612.249,231.752C612.843,230.752 613.437,229.948 614.03,229.338C614.624,228.729 615.249,228.291 615.905,228.026C616.562,227.76 617.296,227.627 618.108,227.627C619.077,227.627 620.03,228.143 620.968,229.174C621.905,230.205 622.819,231.58 623.71,233.299C624.601,235.018 625.468,237.018 626.312,239.299C627.155,241.58 627.976,243.971 628.773,246.471C629.569,248.971 630.351,251.51 631.116,254.088C631.882,256.666 632.624,259.112 633.343,261.424C633.53,262.112 633.663,262.588 633.741,262.854C633.819,263.119 633.858,263.44 633.858,263.815C633.858,264.346 633.694,264.869 633.366,265.385C633.038,265.901 632.608,266.362 632.077,266.768C631.546,267.174 630.944,267.502 630.273,267.752C629.601,268.002 628.937,268.127 628.28,268.127C627.405,268.127 626.726,268.026 626.241,267.823C625.757,267.619 625.374,267.252 625.093,266.721C624.937,266.44 624.671,265.69 624.296,264.471C623.921,263.252 623.476,261.807 622.96,260.135C622.444,258.463 621.882,256.69 621.273,254.815C620.663,252.94 620.054,251.213 619.444,249.635C618.835,248.057 618.249,246.744 617.687,245.698C617.124,244.651 616.624,244.127 616.187,244.127Z" style="fill:rgb(193,0,0);fill-rule:nonzero;"/>
            <path d="M677.218,259.409C678.124,258.627 679.015,258.237 679.89,258.237C680.39,258.237 680.843,258.362 681.249,258.612C681.655,258.862 682.108,259.252 682.608,259.784C683.077,260.502 683.413,261.088 683.616,261.541C683.819,261.994 683.921,262.44 683.921,262.877C683.921,263.815 683.452,264.705 682.515,265.549C681.015,266.799 679.39,267.916 677.64,268.901C675.89,269.885 674.062,270.721 672.155,271.409C670.249,272.096 668.28,272.619 666.249,272.979C664.218,273.338 662.202,273.518 660.202,273.518C657.671,273.518 655.296,273.198 653.077,272.557C650.858,271.916 648.882,271.002 647.148,269.815C645.413,268.627 643.952,267.198 642.765,265.526C641.577,263.854 640.733,261.971 640.233,259.877C639.952,259.002 639.694,258.432 639.46,258.166C639.226,257.901 638.843,257.768 638.312,257.768C637.155,257.768 636.265,257.487 635.64,256.924C635.015,256.362 634.702,255.549 634.702,254.487C634.702,254.049 634.733,253.768 634.796,253.643L634.89,252.705C635.046,251.58 635.351,250.768 635.804,250.268C636.257,249.768 636.968,249.518 637.937,249.518L638.64,249.518C639.952,249.518 640.874,248.909 641.405,247.69C642.374,245.534 643.608,243.565 645.108,241.784C646.608,240.002 648.296,238.479 650.171,237.213C652.046,235.948 654.054,234.963 656.194,234.26C658.335,233.557 660.515,233.205 662.733,233.205C665.046,233.205 667.21,233.541 669.226,234.213C671.241,234.885 672.999,235.815 674.499,237.002C675.999,238.19 677.179,239.58 678.038,241.174C678.898,242.768 679.327,244.487 679.327,246.33C679.327,247.612 679.077,248.784 678.577,249.846C678.077,250.909 677.358,251.838 676.421,252.635C675.483,253.432 674.351,254.08 673.023,254.58C671.694,255.08 670.187,255.409 668.499,255.565L652.233,257.205C651.608,257.205 651.101,257.362 650.71,257.674C650.319,257.987 650.124,258.409 650.124,258.94C650.124,259.752 650.429,260.534 651.038,261.284C651.648,262.034 652.46,262.698 653.476,263.276C654.491,263.854 655.663,264.315 656.991,264.659C658.319,265.002 659.687,265.174 661.093,265.174C662.437,265.174 663.819,265.041 665.241,264.776C666.663,264.51 668.069,264.127 669.46,263.627C670.851,263.127 672.202,262.526 673.515,261.823C674.827,261.119 676.062,260.315 677.218,259.409ZM666.765,247.315C667.233,247.221 667.64,246.994 667.983,246.635C668.327,246.276 668.499,245.83 668.499,245.299C668.499,244.83 668.327,244.393 667.983,243.987C667.64,243.58 667.171,243.213 666.577,242.885C665.983,242.557 665.296,242.299 664.515,242.112C663.733,241.924 662.905,241.83 662.03,241.83C660.749,241.83 659.437,242.018 658.093,242.393C656.749,242.768 655.53,243.26 654.437,243.869C653.343,244.479 652.452,245.151 651.765,245.885C651.077,246.619 650.733,247.346 650.733,248.065C650.733,248.784 651.171,249.143 652.046,249.143C652.577,249.143 653.437,249.08 654.624,248.955C655.812,248.83 657.124,248.682 658.562,248.51C659.999,248.338 661.452,248.143 662.921,247.924C664.39,247.705 665.671,247.502 666.765,247.315Z" style="fill:rgb(193,0,0);fill-rule:nonzero;"/>
            <path d="M708.671,260.346C708.14,260.346 707.741,260.08 707.476,259.549C707.21,259.018 707.077,258.268 707.077,257.299C707.077,257.143 707.077,256.963 707.077,256.76C707.077,256.557 707.108,256.159 707.171,255.565C707.265,253.315 708.374,252.002 710.499,251.627L711.577,251.534C712.296,251.44 712.858,251.213 713.265,250.854C713.671,250.494 713.968,249.987 714.155,249.33C714.687,247.549 715.218,245.752 715.749,243.94C716.28,242.127 716.843,240.33 717.437,238.549C717.749,237.549 718.069,236.479 718.398,235.338C718.726,234.198 719.085,233.065 719.476,231.94C719.866,230.815 720.319,229.705 720.835,228.612C721.351,227.518 721.937,226.518 722.593,225.612C722.874,225.237 723.265,224.846 723.765,224.44C724.265,224.034 724.835,223.666 725.476,223.338C726.116,223.01 726.804,222.744 727.538,222.541C728.273,222.338 728.999,222.237 729.718,222.237C730.655,222.237 731.577,222.534 732.483,223.127C733.702,223.971 734.905,224.987 736.093,226.174C737.28,227.362 738.608,228.877 740.077,230.721C741.546,232.565 743.249,234.791 745.187,237.401C747.124,240.01 749.452,243.159 752.171,246.846C752.577,247.315 753.007,247.666 753.46,247.901C753.913,248.135 754.452,248.252 755.077,248.252L757.749,248.252C758.843,248.252 759.694,248.51 760.304,249.026C760.913,249.541 761.218,250.252 761.218,251.159C761.218,251.346 761.21,251.565 761.194,251.815C761.179,252.065 761.124,252.315 761.03,252.565L760.14,255.19C760.077,255.44 760.03,255.659 759.999,255.846C759.968,256.034 759.952,256.221 759.952,256.409C759.952,257.065 760.171,257.737 760.608,258.424L765.624,265.268C766.187,266.112 766.468,266.909 766.468,267.659C766.468,268.784 765.827,269.768 764.546,270.612L762.765,271.877C762.327,272.159 761.913,272.377 761.523,272.534C761.132,272.69 760.733,272.768 760.327,272.768C759.765,272.768 759.241,272.604 758.757,272.276C758.273,271.948 757.812,271.502 757.374,270.94C755.874,268.815 754.366,266.721 752.851,264.659C751.335,262.596 749.796,260.549 748.233,258.518C747.515,257.518 746.562,257.018 745.374,257.018C741.562,257.174 737.788,257.385 734.054,257.651C730.319,257.916 726.577,258.237 722.827,258.612C721.483,258.737 720.64,259.455 720.296,260.768L718.187,268.502C717.624,270.565 716.374,271.596 714.437,271.596L713.687,271.596L712.233,271.409C711.171,271.315 710.366,270.987 709.819,270.424C709.273,269.862 708.999,269.127 708.999,268.221C708.999,268.034 709.015,267.83 709.046,267.612C709.077,267.393 709.124,267.159 709.187,266.909C709.343,266.284 709.507,265.643 709.679,264.987C709.851,264.33 710.03,263.69 710.218,263.065C710.28,262.815 710.327,262.588 710.358,262.385C710.39,262.182 710.405,261.987 710.405,261.799C710.405,260.83 710.03,260.346 709.28,260.346L708.671,260.346ZM730.983,235.596C730.671,235.315 730.39,235.08 730.14,234.893C729.89,234.705 729.624,234.612 729.343,234.612C728.562,234.612 728.015,235.159 727.702,236.252C727.077,238.096 726.476,239.916 725.898,241.713C725.319,243.51 724.733,245.346 724.14,247.221C724.077,247.377 724.046,247.518 724.046,247.643C724.046,247.768 724.046,247.909 724.046,248.065C724.046,249.221 724.655,249.799 725.874,249.799L726.343,249.799C728.218,249.549 730.093,249.354 731.968,249.213C733.843,249.073 735.718,248.955 737.593,248.862C738.218,248.799 738.71,248.635 739.069,248.369C739.429,248.104 739.608,247.752 739.608,247.315C739.608,246.909 739.421,246.424 739.046,245.862C737.733,244.112 736.413,242.385 735.085,240.682C733.757,238.979 732.39,237.284 730.983,235.596Z" style="fill:rgb(193,0,0);fill-rule:nonzero;"/>
            <path d="M762.249,243.846C761.53,243.784 760.952,243.315 760.515,242.44C760.077,241.565 759.858,240.596 759.858,239.534C759.858,239.034 759.898,238.541 759.976,238.057C760.054,237.573 760.187,237.143 760.374,236.768C760.562,236.393 760.796,236.088 761.077,235.854C761.358,235.619 761.687,235.502 762.062,235.502C763.218,235.502 764.546,235.463 766.046,235.385C767.546,235.307 769.155,235.221 770.874,235.127C771.749,235.034 772.233,234.518 772.327,233.58C772.608,229.049 772.999,225.143 773.499,221.862C773.999,218.58 774.608,215.807 775.327,213.541C776.046,211.276 776.866,209.44 777.788,208.034C778.71,206.627 779.733,205.549 780.858,204.799C781.202,204.549 781.608,204.291 782.077,204.026C782.546,203.76 782.983,203.627 783.39,203.627C784.171,203.627 784.991,203.823 785.851,204.213C786.71,204.604 787.507,205.104 788.241,205.713C788.976,206.323 789.577,207.01 790.046,207.776C790.515,208.541 790.749,209.299 790.749,210.049C790.749,210.33 790.687,210.557 790.562,210.729C790.437,210.901 790.28,211.065 790.093,211.221C788.874,212.127 787.796,213.143 786.858,214.268C785.921,215.393 785.124,216.768 784.468,218.393C783.812,220.018 783.265,221.971 782.827,224.252C782.39,226.534 782.062,229.284 781.843,232.502C781.843,233.002 781.929,233.369 782.101,233.604C782.273,233.838 782.593,233.955 783.062,233.955C784.28,233.955 785.507,233.862 786.741,233.674C787.976,233.487 789.155,233.291 790.28,233.088C791.405,232.885 792.468,232.69 793.468,232.502C794.468,232.315 795.358,232.221 796.14,232.221C796.702,232.221 797.116,232.557 797.382,233.229C797.648,233.901 797.78,234.721 797.78,235.69C797.78,236.252 797.733,236.83 797.64,237.424C797.546,238.018 797.398,238.549 797.194,239.018C796.991,239.487 796.733,239.885 796.421,240.213C796.108,240.541 795.718,240.737 795.249,240.799L782.78,242.112C782.124,242.205 781.726,242.471 781.585,242.909C781.444,243.346 781.374,243.955 781.374,244.737C781.374,251.643 781.546,257.58 781.89,262.549C782.233,267.518 782.616,271.698 783.038,275.088C783.46,278.479 783.843,281.151 784.187,283.104C784.53,285.057 784.702,286.471 784.702,287.346C784.702,288.002 784.444,288.596 783.929,289.127C783.413,289.659 782.757,290.112 781.96,290.487C781.163,290.862 780.296,291.151 779.358,291.354C778.421,291.557 777.546,291.659 776.733,291.659C775.952,291.659 775.257,291.526 774.648,291.26C774.038,290.994 773.687,290.549 773.593,289.924C773.28,287.737 773.015,285.338 772.796,282.729C772.577,280.119 772.398,277.229 772.257,274.057C772.116,270.885 772.015,267.416 771.952,263.651C771.89,259.885 771.858,255.752 771.858,251.252C771.858,250.096 771.858,248.971 771.858,247.877C771.858,246.784 771.89,245.69 771.952,244.596C771.952,243.659 771.437,243.19 770.405,243.19L762.249,243.846Z" style="fill:rgb(193,0,0);fill-rule:nonzero;"/>
            <path d="M799.983,215.534C799.983,213.877 800.452,212.713 801.39,212.041C802.327,211.369 803.874,211.034 806.03,211.034C806.812,211.034 807.476,211.104 808.023,211.244C808.569,211.385 809.038,211.643 809.429,212.018C809.819,212.393 810.132,212.885 810.366,213.494C810.601,214.104 810.796,214.877 810.952,215.815C811.327,218.721 811.741,221.721 812.194,224.815C812.648,227.909 813.124,231.018 813.624,234.143C813.812,235.549 814.546,236.252 815.827,236.252C816.171,236.252 816.741,236.213 817.538,236.135C818.335,236.057 819.28,235.963 820.374,235.854C821.468,235.744 822.648,235.627 823.913,235.502C825.179,235.377 826.444,235.26 827.71,235.151C828.976,235.041 830.179,234.948 831.319,234.869C832.46,234.791 833.468,234.752 834.343,234.752C835.03,234.752 835.577,234.885 835.983,235.151C836.39,235.416 836.71,235.76 836.944,236.182C837.179,236.604 837.335,237.073 837.413,237.588C837.491,238.104 837.53,238.627 837.53,239.159C837.53,239.627 837.444,240.112 837.273,240.612C837.101,241.112 836.866,241.557 836.569,241.948C836.273,242.338 835.905,242.659 835.468,242.909C835.03,243.159 834.53,243.284 833.968,243.284C831.249,243.284 828.507,243.369 825.741,243.541C822.976,243.713 820.218,243.94 817.468,244.221C816.062,244.409 815.358,245.112 815.358,246.33C815.358,246.424 815.374,246.541 815.405,246.682C815.437,246.823 815.452,246.94 815.452,247.034C815.827,249.752 816.179,252.299 816.507,254.674C816.835,257.049 817.116,259.166 817.351,261.026C817.585,262.885 817.773,264.432 817.913,265.666C818.054,266.901 818.124,267.721 818.124,268.127C818.124,269.252 818.015,270.198 817.796,270.963C817.577,271.729 817.218,272.354 816.718,272.838C816.218,273.323 815.554,273.666 814.726,273.869C813.898,274.073 812.858,274.174 811.608,274.174C810.421,274.174 809.546,273.893 808.983,273.33C808.421,272.768 808.108,271.909 808.046,270.752C807.858,267.065 807.562,263.354 807.155,259.619C806.749,255.885 806.28,252.159 805.749,248.44C805.468,247.096 804.765,246.424 803.64,246.424C803.546,246.424 803.437,246.44 803.312,246.471C803.187,246.502 803.077,246.518 802.983,246.518C801.046,246.955 799.218,247.393 797.499,247.83C795.78,248.268 794.171,248.737 792.671,249.237C791.827,249.518 791.077,249.713 790.421,249.823C789.765,249.932 789.171,249.987 788.64,249.987C787.921,249.987 787.39,249.666 787.046,249.026C786.702,248.385 786.53,247.58 786.53,246.612C786.53,246.268 786.562,245.869 786.624,245.416C786.687,244.963 786.804,244.51 786.976,244.057C787.148,243.604 787.398,243.182 787.726,242.791C788.054,242.401 788.499,242.08 789.062,241.83C790.374,241.299 792.124,240.744 794.312,240.166C796.499,239.588 798.968,239.049 801.718,238.549C802.343,238.393 802.835,238.135 803.194,237.776C803.554,237.416 803.733,236.877 803.733,236.159C803.733,236.002 803.733,235.838 803.733,235.666C803.733,235.494 803.702,235.315 803.64,235.127C803.14,232.252 802.663,229.635 802.21,227.276C801.757,224.916 801.366,222.893 801.038,221.205C800.71,219.518 800.452,218.19 800.265,217.221C800.077,216.252 799.983,215.69 799.983,215.534Z" style="fill:rgb(193,0,0);fill-rule:nonzero;"/>
            <path d="M874.702,259.409C875.608,258.627 876.499,258.237 877.374,258.237C877.874,258.237 878.327,258.362 878.733,258.612C879.14,258.862 879.593,259.252 880.093,259.784C880.562,260.502 880.898,261.088 881.101,261.541C881.304,261.994 881.405,262.44 881.405,262.877C881.405,263.815 880.937,264.705 879.999,265.549C878.499,266.799 876.874,267.916 875.124,268.901C873.374,269.885 871.546,270.721 869.64,271.409C867.733,272.096 865.765,272.619 863.733,272.979C861.702,273.338 859.687,273.518 857.687,273.518C855.155,273.518 852.78,273.198 850.562,272.557C848.343,271.916 846.366,271.002 844.632,269.815C842.898,268.627 841.437,267.198 840.249,265.526C839.062,263.854 838.218,261.971 837.718,259.877C837.437,259.002 837.179,258.432 836.944,258.166C836.71,257.901 836.327,257.768 835.796,257.768C834.64,257.768 833.749,257.487 833.124,256.924C832.499,256.362 832.187,255.549 832.187,254.487C832.187,254.049 832.218,253.768 832.28,253.643L832.374,252.705C832.53,251.58 832.835,250.768 833.288,250.268C833.741,249.768 834.452,249.518 835.421,249.518L836.124,249.518C837.437,249.518 838.358,248.909 838.89,247.69C839.858,245.534 841.093,243.565 842.593,241.784C844.093,240.002 845.78,238.479 847.655,237.213C849.53,235.948 851.538,234.963 853.679,234.26C855.819,233.557 857.999,233.205 860.218,233.205C862.53,233.205 864.694,233.541 866.71,234.213C868.726,234.885 870.483,235.815 871.983,237.002C873.483,238.19 874.663,239.58 875.523,241.174C876.382,242.768 876.812,244.487 876.812,246.33C876.812,247.612 876.562,248.784 876.062,249.846C875.562,250.909 874.843,251.838 873.905,252.635C872.968,253.432 871.835,254.08 870.507,254.58C869.179,255.08 867.671,255.409 865.983,255.565L849.718,257.205C849.093,257.205 848.585,257.362 848.194,257.674C847.804,257.987 847.608,258.409 847.608,258.94C847.608,259.752 847.913,260.534 848.523,261.284C849.132,262.034 849.944,262.698 850.96,263.276C851.976,263.854 853.148,264.315 854.476,264.659C855.804,265.002 857.171,265.174 858.577,265.174C859.921,265.174 861.304,265.041 862.726,264.776C864.148,264.51 865.554,264.127 866.944,263.627C868.335,263.127 869.687,262.526 870.999,261.823C872.312,261.119 873.546,260.315 874.702,259.409ZM864.249,247.315C864.718,247.221 865.124,246.994 865.468,246.635C865.812,246.276 865.983,245.83 865.983,245.299C865.983,244.83 865.812,244.393 865.468,243.987C865.124,243.58 864.655,243.213 864.062,242.885C863.468,242.557 862.78,242.299 861.999,242.112C861.218,241.924 860.39,241.83 859.515,241.83C858.233,241.83 856.921,242.018 855.577,242.393C854.233,242.768 853.015,243.26 851.921,243.869C850.827,244.479 849.937,245.151 849.249,245.885C848.562,246.619 848.218,247.346 848.218,248.065C848.218,248.784 848.655,249.143 849.53,249.143C850.062,249.143 850.921,249.08 852.108,248.955C853.296,248.83 854.608,248.682 856.046,248.51C857.483,248.338 858.937,248.143 860.405,247.924C861.874,247.705 863.155,247.502 864.249,247.315Z" style="fill:rgb(193,0,0);fill-rule:nonzero;"/>
            <path d="M909.765,234.612C908.608,234.612 907.593,234.916 906.718,235.526C905.843,236.135 905.093,236.979 904.468,238.057C903.843,239.135 903.327,240.401 902.921,241.854C902.515,243.307 902.187,244.893 901.937,246.612C901.687,248.33 901.515,250.127 901.421,252.002C901.327,253.877 901.28,255.768 901.28,257.674C901.28,260.174 901.382,262.635 901.585,265.057C901.788,267.479 901.89,269.721 901.89,271.784C901.89,273.127 901.39,274.182 900.39,274.948C899.39,275.713 897.968,276.096 896.124,276.096C895.78,276.096 895.39,276.065 894.952,276.002C894.515,275.94 894.101,275.815 893.71,275.627C893.319,275.44 892.976,275.182 892.679,274.854C892.382,274.526 892.218,274.08 892.187,273.518C891.905,270.768 891.499,267.955 890.968,265.08C890.437,262.205 889.773,259.338 888.976,256.479C888.179,253.619 887.226,250.784 886.116,247.971C885.007,245.159 883.733,242.409 882.296,239.721C882.046,239.252 881.835,238.815 881.663,238.409C881.491,238.002 881.405,237.612 881.405,237.237C881.405,236.768 881.616,236.26 882.038,235.713C882.46,235.166 882.991,234.659 883.632,234.19C884.273,233.721 884.976,233.338 885.741,233.041C886.507,232.744 887.249,232.596 887.968,232.596C889.155,232.596 890.202,233.416 891.108,235.057C892.015,236.698 892.858,239.315 893.64,242.909C893.796,243.534 893.921,243.971 894.015,244.221C894.108,244.471 894.233,244.596 894.39,244.596C894.733,244.596 894.952,244.065 895.046,243.002C895.421,240.034 896.062,237.479 896.968,235.338C897.874,233.198 899.007,231.432 900.366,230.041C901.726,228.651 903.288,227.627 905.054,226.971C906.819,226.315 908.765,225.987 910.89,225.987C912.108,225.987 913.343,226.096 914.593,226.315C915.843,226.534 916.968,226.862 917.968,227.299C918.968,227.737 919.78,228.268 920.405,228.893C921.03,229.518 921.343,230.221 921.343,231.002C921.343,231.565 921.226,232.229 920.991,232.994C920.757,233.76 920.452,234.494 920.077,235.198C919.702,235.901 919.273,236.494 918.788,236.979C918.304,237.463 917.812,237.705 917.312,237.705C916.749,237.705 916.202,237.541 915.671,237.213C915.14,236.885 914.569,236.534 913.96,236.159C913.351,235.784 912.71,235.432 912.038,235.104C911.366,234.776 910.608,234.612 909.765,234.612Z" style="fill:rgb(193,0,0);fill-rule:nonzero;"/>
        </g>
        <g transform="matrix(1,0,0,1,-3.74271,22.9908)">
            <path d="M619.049,344.736C603.724,358.358 592.067,377.147 598.978,398.934C603.372,412.788 614.428,416.206 628.176,422.009C647.397,430.123 672.167,437.691 690.775,418.062C710.172,397.601 697.873,337.523 689.35,329.24C680.487,320.627 670.031,312.967 653.259,315.602C634.845,318.496 621.417,328.235 607.606,340.698" style="fill:none;stroke:rgb(193,0,0);stroke-width:6px;"/>
        </g>
    </g>
</svg>
