<svg viewBox="0 0 3990 1758">
	<path fill="currentColor" d="M1635.19 275.345c378.78-154.412 618.46 61.308 1008.43-35.33 492.96-100.967 675.02-373.529 985.43-161.062 291.47 199.509 65.97 523.621 104.99 696.204 60.49 267.573 288.73 352.263 251.98 597.493-77.29 515.71-603.66 413.24-827.44 264.97-217.98-144.44-380.97-205.2-719.95-144.44-199.98 35.85-535.84 55.02-824.43-169.37-283.98-220.81-436.47 62.86-661.955 191.19-507.965 289.1-814.877 38.97-937.93-327.84C-61.68 960.638 182.302 731.631 336.79 762.485c307.977 61.51 667.95 20.984 888.43-154.106 159.99-139.241 238.99-263.329 409.97-333.034z" />
</svg>
