<svg viewBox="0 0 3990 1758" fill="none" xmlns="http://www.w3.org/2000/svg">
	<path d="M1635.19 275.345C2013.97 120.933 2253.65 336.653 2643.62 240.015C3136.58 139.048 3318.64 -133.514 3629.05 78.953C3920.52 278.462 3695.02 602.574 3734.04 775.157C3794.53 1042.73 4022.77 1127.42 3986.02 1372.65C3908.73 1888.36 3382.36 1785.89 3158.58 1637.62C2940.6 1493.18 2777.61 1432.42 2438.63 1493.18C2238.65 1529.03 1902.79 1548.2 1614.2 1323.81C1330.22 1103 1177.73 1386.67 952.245 1515C444.28 1804.1 137.368 1553.97 14.3148 1187.16C-61.6793 960.638 182.302 731.631 336.79 762.485C644.767 823.995 1004.74 783.469 1225.22 608.379C1385.21 469.138 1464.21 345.05 1635.19 275.345Z" fill="url(#_BackgroundAboutBlob)" />
	<defs>
		<linearGradient id="_BackgroundAboutBlob" x1="1822.83" y1="-89.1461" x2="2544.19" y2="1740.26" gradientUnits="userSpaceOnUse">
			<stop stop-color="#007CBB" />
			<stop offset="1" stop-color="#00ACBB" />
		</linearGradient>
	</defs>
</svg>
