<svg viewBox="0 0 518 520">
	<path d="M11.2129 166.898C16.8569 153.898 32.9471 150.151 42.277 159.899C45.185 162.842 46.9952 166.826 49.618 170.007C57.2048 179.178 64.4617 188.761 72.861 197.129C81.5416 205.913 93.0589 207.553 104.653 203.604C115.109 200.173 125.35 196.173 135.698 192.545C164.268 182.672 183.751 188.463 202.364 212.13C209.147 220.75 215.885 229.457 223.04 237.752C234.857 251.51 250.049 255.682 267.405 251.899C278.117 249.561 288.637 246.24 299.328 243.792C314.325 240.344 329.222 238.904 343.851 246.021C353.413 251.169 361.305 258.941 366.598 268.424C371.571 276.531 376.105 285.072 381.122 293.136C384.589 298.501 388.333 303.683 392.339 308.659C394.526 311.667 397.568 313.946 401.069 315.202C404.57 316.457 408.367 316.629 411.968 315.696C420.755 313.783 429.565 311.892 438.436 310.504C462.932 306.654 484.193 314.683 503.23 329.423C506.813 332.268 509.161 336.386 509.786 340.918C510.411 345.451 509.265 350.05 506.586 353.76C503.907 357.469 499.902 360.003 495.402 360.835C490.903 361.667 486.256 360.733 482.428 358.226C464.909 345.155 446.536 343.605 426.175 349.619C396.695 358.308 374.098 347.52 357.433 322.97C350.486 312.734 344.459 301.848 338.147 291.2C329.652 276.938 325.538 274.926 309.23 278.585C299.305 280.84 289.528 283.817 279.559 286.203C243.965 295.074 214.529 285.098 191.293 256.841C185.094 249.294 179.29 241.4 173.135 233.766C164.596 223.106 160.477 221.924 147.766 226.412C137.003 230.19 126.411 234.494 115.672 237.858C90.8832 245.6 68.482 241.042 48.4677 224.186C34.5497 212.116 22.9724 197.587 14.3148 181.325C12.177 177.361 12.2535 171.816 11.2129 166.898Z" fill="currentColor" />
</svg>
