<svg viewBox="0 0 1205 8">
	<path fill="none" d="M.77 4.008c2.328-1.911 5.291-2.962 8.356-2.962 3.064 0 6.027 1.05 8.355 2.962 2.328 1.911 5.291 2.962 8.355 2.962 3.065 0 6.028-1.05 8.356-2.962 2.328-1.911 5.291-2.962 8.355-2.962 3.065 0 6.028 1.05 8.356 2.962 2.328 1.911 5.291 2.962 8.355 2.962 3.065 0 6.028-1.05 8.356-2.962 2.328-1.911 5.291-2.962 8.355-2.962 3.065 0 6.028 1.05 8.356 2.962 2.328 1.911 5.291 2.962 8.355 2.962 3.065 0 6.028-1.05 8.356-2.962 2.328-1.911 5.291-2.962 8.356-2.962 3.064 0 6.027 1.05 8.355 2.962 2.328 1.911 5.291 2.962 8.356 2.962 3.064 0 6.027-1.05 8.355-2.962 2.33-1.908 5.292-2.957 8.356-2.957 3.063 0 6.025 1.049 8.355 2.957 2.328 1.911 5.291 2.962 8.355 2.962 3.065 0 6.028-1.05 8.356-2.962 2.328-1.911 5.291-2.962 8.355-2.962 3.065 0 6.028 1.05 8.356 2.962 2.328 1.911 5.291 2.962 8.355 2.962 3.065 0 6.028-1.05 8.356-2.962 2.328-1.911 5.291-2.962 8.355-2.962 3.065 0 6.028 1.05 8.356 2.962 2.328 1.911 5.291 2.962 8.355 2.962 3.065 0 6.028-1.05 8.356-2.962 2.328-1.911 5.291-2.962 8.355-2.962 3.065 0 6.028 1.05 8.356 2.962 2.328 1.911 5.291 2.962 8.355 2.962 3.065 0 6.028-1.05 8.356-2.962 2.328-1.911 5.291-2.962 8.355-2.962 3.065 0 6.028 1.05 8.356 2.962 2.328 1.911 5.291 2.962 8.355 2.962 3.065 0 6.028-1.05 8.356-2.962 2.328-1.911 5.291-2.962 8.355-2.962 3.065 0 6.028 1.05 8.356 2.962 2.328 1.911 5.291 2.962 8.355 2.962 3.065 0 6.028-1.05 8.356-2.962 2.328-1.911 5.291-2.962 8.355-2.962 3.065 0 6.028 1.05 8.356 2.962 2.328 1.911 5.291 2.962 8.355 2.962 3.065 0 6.028-1.05 8.356-2.962 2.328-1.911 5.291-2.962 8.355-2.962 3.065 0 6.028 1.05 8.356 2.962 2.328 1.911 5.291 2.962 8.355 2.962 3.065 0 6.028-1.05 8.356-2.962 2.33-1.908 5.292-2.957 8.355-2.957 3.064 0 6.026 1.049 8.356 2.957 2.328 1.911 5.291 2.962 8.355 2.962 3.065 0 6.028-1.05 8.356-2.962 2.328-1.911 5.291-2.962 8.355-2.962 3.065 0 6.028 1.05 8.356 2.962 2.328 1.911 5.291 2.962 8.355 2.962 3.065 0 6.028-1.05 8.356-2.962 2.328-1.911 5.291-2.962 8.355-2.962 3.065 0 6.028 1.05 8.356 2.962 2.328 1.911 5.291 2.962 8.355 2.962 3.065 0 6.028-1.05 8.356-2.962 2.328-1.911 5.291-2.962 8.355-2.962 3.065 0 6.028 1.05 8.356 2.962 2.328 1.911 5.291 2.962 8.355 2.962 3.065 0 6.028-1.05 8.356-2.962 2.328-1.911 5.291-2.962 8.355-2.962 3.065 0 6.028 1.05 8.356 2.962 2.328 1.911 5.291 2.962 8.355 2.962 3.065 0 6.028-1.05 8.356-2.962 2.328-1.911 5.291-2.962 8.355-2.962 3.065 0 6.028 1.05 8.356 2.962 2.328 1.911 5.291 2.962 8.355 2.962 3.065 0 6.028-1.05 8.356-2.962 2.328-1.911 5.291-2.962 8.355-2.962 3.065 0 6.028 1.05 8.356 2.962 2.328 1.911 5.291 2.962 8.355 2.962 3.065 0 6.028-1.05 8.356-2.962 2.328-1.911 5.291-2.962 8.355-2.962 3.065 0 6.028 1.05 8.356 2.962 2.328 1.911 5.291 2.962 8.355 2.962 3.065 0 6.028-1.05 8.356-2.962 2.329-1.908 5.292-2.957 8.355-2.957 3.064 0 6.026 1.049 8.356 2.957 2.328 1.911 5.291 2.962 8.355 2.962 3.065 0 6.028-1.05 8.356-2.962 2.328-1.911 5.291-2.962 8.355-2.962 3.065 0 6.028 1.05 8.356 2.962 2.328 1.911 5.291 2.962 8.355 2.962 3.065 0 6.028-1.05 8.356-2.962 2.328-1.911 5.291-2.962 8.355-2.962 3.065 0 6.028 1.05 8.356 2.962 2.328 1.911 5.291 2.962 8.355 2.962 3.065 0 6.028-1.05 8.356-2.962 2.328-1.911 5.291-2.962 8.355-2.962 3.065 0 6.028 1.05 8.356 2.962 2.328 1.911 5.291 2.962 8.355 2.962 3.065 0 6.028-1.05 8.356-2.962 2.328-1.911 5.291-2.962 8.355-2.962 3.065 0 6.028 1.05 8.356 2.962 2.328 1.911 5.291 2.962 8.355 2.962 3.065 0 6.028-1.05 8.356-2.962 2.328-1.911 5.291-2.962 8.355-2.962 3.065 0 6.028 1.05 8.356 2.962 2.328 1.911 5.291 2.962 8.355 2.962 3.065 0 6.028-1.05 8.356-2.962 2.328-1.911 5.291-2.962 8.355-2.962 3.065 0 6.028 1.05 8.356 2.962 2.328 1.911 5.291 2.962 8.355 2.962 3.065 0 6.028-1.05 8.356-2.962 2.329-1.908 5.292-2.957 8.355-2.957 3.064 0 6.026 1.049 8.356 2.957 2.321 1.893 5.267 2.933 8.314 2.933 3.046 0 5.993-1.04 8.313-2.933 2.33-1.908 5.293-2.957 8.356-2.957 3.063 0 6.026 1.049 8.355 2.957 2.328 1.911 5.292 2.962 8.356 2.962s6.027-1.05 8.355-2.962c2.328-1.911 5.292-2.962 8.356-2.962s6.027 1.05 8.355 2.962c2.328 1.911 5.292 2.962 8.356 2.962s6.029-1.05 8.359-2.962c2.32-1.911 5.29-2.962 8.35-2.962 3.07 0 6.03 1.05 8.36 2.962 2.33 1.911 5.29 2.962 8.35 2.962 3.07 0 6.03-1.05 8.36-2.962 2.33-1.911 5.29-2.962 8.35-2.962 3.07 0 6.03 1.05 8.36 2.962 2.33 1.911 5.29 2.962 8.35 2.962 3.07 0 6.03-1.05 8.36-2.962 2.33-1.911 5.29-2.962 8.36-2.962 3.06 0 6.02 1.05 8.35 2.962 2.33 1.911 5.29 2.962 8.36 2.962 3.06 0 6.02-1.05 8.35-2.962 2.33-1.911 5.29-2.962 8.36-2.962 3.06 0 6.03 1.05 8.35 2.962 2.33 1.911 5.29 2.962 8.36 2.962 3.06 0 6.03-1.05 8.35-2.962 2.33-1.911 5.3-2.962 8.36-2.962 3.06 0 6.03 1.05 8.36 2.962 2.32 1.911 5.29 2.962 8.35 2.962 3.06 0 6.03-1.05 8.36-2.962 2.33-1.908 5.29-2.957 8.35-2.957 3.07 0 6.03 1.049 8.36 2.957 2.32 1.893 5.26 2.933 8.31 2.933 3.05 0 5.99-1.04 8.31-2.933" stroke="currentColor" stroke-width="1.33">
	</path>
</svg>
