<?xml version="1.0" standalone="no"?>
<svg xmlns="http://www.w3.org/2000/svg" version="1.2" baseProfile="tiny" width="159" height="256" viewBox="0 0 159 256">
<rect x="0" y="0" width="159" height="256" id="0" fill="rgb(220,220,220)" fill-opacity="1" />
<ellipse cx="88" cy="7" rx="158" ry="15" id="1" fill="rgb(0,0,0)" fill-opacity="0.501961" />
<ellipse cx="0" cy="140" rx="7" ry="234" id="2" fill="rgb(0,0,0)" fill-opacity="0.501961" />
<ellipse cx="80" cy="162" rx="74" ry="142" id="3" fill="rgb(255,255,255)" fill-opacity="0.501961" />
<ellipse cx="158" cy="177" rx="5" ry="210" id="4" fill="rgb(0,0,0)" fill-opacity="0.501961" />
<ellipse cx="131" cy="61" rx="23" ry="40" id="5" fill="rgb(255,255,255)" fill-opacity="0.501961" />
<ellipse cx="124" cy="242" rx="29" ry="125" id="6" fill="rgb(255,255,255)" fill-opacity="0.501961" />
<ellipse cx="24" cy="64" rx="18" ry="43" id="7" fill="rgb(252,252,252)" fill-opacity="0.501961" />
<ellipse cx="84" cy="176" rx="42" ry="41" id="8" fill="rgb(255,255,255)" fill-opacity="0.501961" />
<ellipse cx="62" cy="34" rx="56" ry="2" id="9" fill="rgb(110,110,110)" fill-opacity="0.501961" />
<ellipse cx="44" cy="4" rx="158" ry="18" id="10" fill="rgb(100,100,100)" fill-opacity="0.501961" />
<ellipse cx="68" cy="26" rx="62" ry="5" id="11" fill="rgb(255,255,255)" fill-opacity="0.501961" />
<ellipse cx="44" cy="247" rx="38" ry="46" id="12" fill="rgb(251,251,251)" fill-opacity="0.501961" />
<ellipse cx="158" cy="18" rx="6" ry="43" id="13" fill="rgb(96,96,96)" fill-opacity="0.501961" />
<ellipse cx="139" cy="92" rx="14" ry="71" id="14" fill="rgb(251,251,251)" fill-opacity="0.501961" />
<ellipse cx="83" cy="10" rx="18" ry="2" id="15" fill="rgb(244,244,244)" fill-opacity="0.501961" />
<ellipse cx="154" cy="51" rx="1" ry="49" id="16" fill="rgb(72,72,72)" fill-opacity="0.501961" />
<ellipse cx="70" cy="48" rx="62" ry="7" id="17" fill="rgb(255,255,255)" fill-opacity="0.501961" />
<ellipse cx="76" cy="160" rx="56" ry="2" id="18" fill="rgb(195,195,195)" fill-opacity="0.501961" />
<ellipse cx="38" cy="199" rx="21" ry="3" id="19" fill="rgb(137,137,137)" fill-opacity="0.501961" />
<ellipse cx="62" cy="65" rx="55" ry="7" id="20" fill="rgb(255,255,255)" fill-opacity="0.501961" />
<ellipse cx="83" cy="99" rx="70" ry="2" id="21" fill="rgb(199,199,199)" fill-opacity="0.501961" />
<ellipse cx="79" cy="91" rx="71" ry="2" id="22" fill="rgb(194,194,194)" fill-opacity="0.501961" />
<ellipse cx="86" cy="222" rx="48" ry="2" id="23" fill="rgb(191,191,191)" fill-opacity="0.501961" />
<ellipse cx="101" cy="254" rx="51" ry="22" id="24" fill="rgb(255,255,255)" fill-opacity="0.501961" />
<ellipse cx="111" cy="82" rx="31" ry="2" id="25" fill="rgb(193,193,193)" fill-opacity="0.501961" />
<ellipse cx="12" cy="107" rx="5" ry="86" id="26" fill="rgb(255,255,255)" fill-opacity="0.501961" />
<ellipse cx="45" cy="230" rx="36" ry="2" id="27" fill="rgb(198,198,198)" fill-opacity="0.501961" />
<ellipse cx="2" cy="48" rx="4" ry="253" id="28" fill="rgb(93,93,93)" fill-opacity="0.501961" />
<ellipse cx="34" cy="177" rx="27" ry="21" id="29" fill="rgb(251,251,251)" fill-opacity="0.501961" />
<ellipse cx="116" cy="21" rx="109" ry="1" id="30" fill="rgb(150,150,150)" fill-opacity="0.501961" />
<ellipse cx="97" cy="108" rx="47" ry="2" id="31" fill="rgb(200,200,200)" fill-opacity="0.501961" />
<ellipse cx="121" cy="51" rx="12" ry="30" id="32" fill="rgb(245,245,245)" fill-opacity="0.501961" />
<ellipse cx="131" cy="208" rx="16" ry="3" id="33" fill="rgb(195,195,195)" fill-opacity="0.501961" />
<ellipse cx="146" cy="98" rx="7" ry="76" id="34" fill="rgb(255,255,255)" fill-opacity="0.501961" />
<ellipse cx="69" cy="134" rx="67" ry="2" id="35" fill="rgb(192,192,192)" fill-opacity="0.501961" />
<ellipse cx="17" cy="220" rx="11" ry="19" id="36" fill="rgb(247,247,247)" fill-opacity="0.501961" />
<ellipse cx="132" cy="43" rx="15" ry="2" id="37" fill="rgb(170,170,170)" fill-opacity="0.501961" />
<ellipse cx="85" cy="125" rx="68" ry="2" id="38" fill="rgb(201,201,201)" fill-opacity="0.501961" />
<ellipse cx="150" cy="231" rx="4" ry="94" id="39" fill="rgb(253,253,253)" fill-opacity="0.501961" />
<ellipse cx="97" cy="117" rx="43" ry="2" id="40" fill="rgb(200,200,200)" fill-opacity="0.501961" />
<ellipse cx="37" cy="239" rx="20" ry="2" id="41" fill="rgb(193,193,193)" fill-opacity="0.501961" />
<ellipse cx="67" cy="74" rx="59" ry="2" id="42" fill="rgb(196,196,196)" fill-opacity="0.501961" />
<ellipse cx="148" cy="0" rx="58" ry="22" id="43" fill="rgb(96,96,96)" fill-opacity="0.501961" />
<ellipse cx="119" cy="231" rx="24" ry="2" id="44" fill="rgb(193,193,193)" fill-opacity="0.501961" />
<ellipse cx="51" cy="151" rx="45" ry="7" id="45" fill="rgb(255,255,255)" fill-opacity="0.501961" />
<ellipse cx="38" cy="82" rx="28" ry="2" id="46" fill="rgb(196,196,196)" fill-opacity="0.501961" />
<ellipse cx="99" cy="33" rx="12" ry="2" id="47" fill="rgb(174,174,174)" fill-opacity="0.501961" />
<ellipse cx="157" cy="182" rx="4" ry="109" id="48" fill="rgb(90,90,90)" fill-opacity="0.501961" />
<ellipse cx="52" cy="38" rx="46" ry="3" id="49" fill="rgb(255,255,255)" fill-opacity="0.501961" />
<ellipse cx="37" cy="142" rx="27" ry="2" id="50" fill="rgb(204,204,204)" fill-opacity="0.501961" />
<ellipse cx="18" cy="3" rx="47" ry="19" id="51" fill="rgb(99,99,99)" fill-opacity="0.501961" />
<ellipse cx="55" cy="108" rx="48" ry="2" id="52" fill="rgb(206,206,206)" fill-opacity="0.501961" />
<ellipse cx="133" cy="32" rx="21" ry="10" id="53" fill="rgb(255,255,255)" fill-opacity="0.501961" />
<ellipse cx="48" cy="56" rx="41" ry="2" id="54" fill="rgb(204,204,204)" fill-opacity="0.501961" />
<ellipse cx="27" cy="183" rx="16" ry="4" id="55" fill="rgb(204,204,204)" fill-opacity="0.501961" />
<ellipse cx="106" cy="26" rx="47" ry="5" id="56" fill="rgb(255,255,255)" fill-opacity="0.501961" />
<ellipse cx="85" cy="203" rx="30" ry="18" id="57" fill="rgb(253,253,253)" fill-opacity="0.501961" />
<ellipse cx="82" cy="112" rx="71" ry="3" id="58" fill="rgb(255,255,255)" fill-opacity="0.501961" />
<ellipse cx="9" cy="214" rx="3" ry="193" id="59" fill="rgb(255,255,255)" fill-opacity="0.501961" />
<ellipse cx="30" cy="174" rx="20" ry="8" id="60" fill="rgb(255,255,255)" fill-opacity="0.501961" />
<ellipse cx="153" cy="69" rx="1" ry="47" id="61" fill="rgb(219,219,219)" fill-opacity="0.501961" />
<ellipse cx="106" cy="56" rx="25" ry="2" id="62" fill="rgb(198,198,198)" fill-opacity="0.501961" />
<ellipse cx="65" cy="129" rx="59" ry="3" id="63" fill="rgb(255,255,255)" fill-opacity="0.501961" />
</svg>