<?xml version="1.0" standalone="no"?>
<svg xmlns="http://www.w3.org/2000/svg" version="1.2" baseProfile="tiny" width="182" height="256" viewBox="0 0 182 256">
<rect x="0" y="0" width="182" height="256" id="0" fill="rgb(211,211,211)" fill-opacity="1" />
<ellipse cx="115" cy="73" rx="16" ry="50" id="1" fill="rgb(0,0,0)" fill-opacity="0.501961" />
<polygon points="118,10 63,137 71,16" id="2" fill="rgb(48,48,48)" fill-opacity="0.501961" />
<circle cx="90" cy="62" r="24" id="3" fill="rgb(220,220,220)" fill-opacity="0.501961" />
<g transform="translate(22 26) rotate(281) scale(169 45)"><ellipse cx="0" cy="0" rx="1" ry="1" id="4" fill="rgb(255,255,255)" fill-opacity="0.501961" /></g>
<circle cx="53" cy="195" r="24" id="5" fill="rgb(104,104,104)" fill-opacity="0.501961" />
<polygon points="64,105 80,97 91,118 75,126" id="6" fill="rgb(9,9,9)" fill-opacity="0.501961"/>
<ellipse cx="173" cy="135" rx="40" ry="234" id="7" fill="rgb(255,255,255)" fill-opacity="0.501961" />
<polygon points="106,138 141,68 112,34" id="8" fill="rgb(24,24,24)" fill-opacity="0.501961" />
<g transform="translate(106 33) rotate(315) scale(11 26)"><ellipse cx="0" cy="0" rx="1" ry="1" id="9" fill="rgb(16,16,16)" fill-opacity="0.501961" /></g>
<g transform="translate(107 239) rotate(194) scale(18 129)"><ellipse cx="0" cy="0" rx="1" ry="1" id="10" fill="rgb(253,253,253)" fill-opacity="0.501961" /></g>
<ellipse cx="142" cy="15" rx="24" ry="40" id="11" fill="rgb(255,255,255)" fill-opacity="0.501961" />
<rect x="74" y="181" width="24" height="34" id="12" fill="rgb(138,138,138)" fill-opacity="0.501961" />
<ellipse cx="124" cy="0" rx="24" ry="20" id="13" fill="rgb(255,255,255)" fill-opacity="0.501961" />
<rect x="0" y="211" width="89" height="44" id="14" fill="rgb(241,241,241)" fill-opacity="0.501961" />
<rect x="46" y="125" width="103" height="44" id="15" fill="rgb(232,232,232)" fill-opacity="0.501961" />
<polygon points="93,76 84,52 108,43 117,66" id="16" fill="rgb(206,206,206)" fill-opacity="0.501961"/>
<ellipse cx="69" cy="64" rx="5" ry="39" id="17" fill="rgb(71,71,71)" fill-opacity="0.501961" />
<ellipse cx="101" cy="3" rx="181" ry="9" id="18" fill="rgb(255,255,255)" fill-opacity="0.501961" />
<rect x="46" y="174" width="10" height="13" id="19" fill="rgb(0,0,0)" fill-opacity="0.501961" />
<polygon points="59,72 68,69 79,96 70,99" id="20" fill="rgb(13,13,13)" fill-opacity="0.501961"/>
<rect x="24" y="3" width="37" height="96" id="21" fill="rgb(255,255,255)" fill-opacity="0.501961" />
<polygon points="87,26 118,171 60,52" id="22" fill="rgb(183,183,183)" fill-opacity="0.501961" />
<ellipse cx="167" cy="66" rx="32" ry="58" id="23" fill="rgb(244,244,244)" fill-opacity="0.501961" />
<ellipse cx="118" cy="100" rx="16" ry="5" id="24" fill="rgb(27,27,27)" fill-opacity="0.501961" />
<rect x="42" y="225" width="11" height="30" id="25" fill="rgb(162,162,162)" fill-opacity="0.501961" />
<rect x="83" y="63" width="19" height="61" id="26" fill="rgb(192,192,192)" fill-opacity="0.501961" />
<polygon points="106,86 109,71 135,76 132,91" id="27" fill="rgb(40,40,40)" fill-opacity="0.501961"/>
<polygon points="95,12 68,28 110,14" id="28" fill="rgb(5,5,5)" fill-opacity="0.501961" />
<ellipse cx="62" cy="53" rx="5" ry="16" id="29" fill="rgb(255,255,255)" fill-opacity="0.501961" />
<ellipse cx="58" cy="12" rx="20" ry="12" id="30" fill="rgb(255,255,255)" fill-opacity="0.501961" />
<polygon points="103,129 123,112 123,55" id="31" fill="rgb(40,40,40)" fill-opacity="0.501961" />
<polygon points="29,186 20,205 55,212" id="32" fill="rgb(133,133,133)" fill-opacity="0.501961" />
<rect x="75" y="42" width="5" height="31" id="33" fill="rgb(103,103,103)" fill-opacity="0.501961" />
<g transform="translate(57 108) rotate(213) scale(9 17)"><ellipse cx="0" cy="0" rx="1" ry="1" id="34" fill="rgb(211,211,211)" fill-opacity="0.501961" /></g>
<ellipse cx="147" cy="226" rx="29" ry="61" id="35" fill="rgb(223,223,223)" fill-opacity="0.501961" />
<polygon points="111,174 100,168 111,148 122,155" id="36" fill="rgb(169,169,169)" fill-opacity="0.501961"/>
<ellipse cx="103" cy="59" rx="17" ry="9" id="37" fill="rgb(202,202,202)" fill-opacity="0.501961" />
<polygon points="92,169 84,114 121,130" id="38" fill="rgb(237,237,237)" fill-opacity="0.501961" />
<g transform="translate(89 20) rotate(291) scale(6 11)"><ellipse cx="0" cy="0" rx="1" ry="1" id="39" fill="rgb(17,17,17)" fill-opacity="0.501961" /></g>
<polygon points="115,173 127,188 103,208 90,194" id="40" fill="rgb(254,254,254)" fill-opacity="0.501961"/>
<rect x="74" y="87" width="4" height="45" id="41" fill="rgb(41,41,41)" fill-opacity="0.501961" />
<rect x="100" y="21" width="16" height="8" id="42" fill="rgb(27,27,27)" fill-opacity="0.501961" />
<polygon points="0,176 64,145 0,215" id="43" fill="rgb(239,239,239)" fill-opacity="0.501961" />
<polygon points="116,0 122,19 72,0" id="44" fill="rgb(255,255,255)" fill-opacity="0.501961" />
<ellipse cx="69" cy="117" rx="3" ry="6" id="45" fill="rgb(17,17,17)" fill-opacity="0.501961" />
<polygon points="96,112 107,96 123,107 112,123" id="46" fill="rgb(73,73,73)" fill-opacity="0.501961"/>
<polygon points="57,175 62,149 90,154 85,180" id="47" fill="rgb(239,239,239)" fill-opacity="0.501961"/>
<g transform="translate(66 194) rotate(252) scale(15 20)"><ellipse cx="0" cy="0" rx="1" ry="1" id="48" fill="rgb(157,157,157)" fill-opacity="0.501961" /></g>
<ellipse cx="29" cy="11" rx="47" ry="24" id="49" fill="rgb(250,250,250)" fill-opacity="0.501961" />
<g transform="translate(85 40) rotate(138) scale(6 13)"><ellipse cx="0" cy="0" rx="1" ry="1" id="50" fill="rgb(215,215,215)" fill-opacity="0.501961" /></g>
<circle cx="97" cy="240" r="27" id="51" fill="rgb(243,243,243)" fill-opacity="0.501961" />
<polygon points="93,192 92,176 108,162" id="52" fill="rgb(147,147,147)" fill-opacity="0.501961" />
<circle cx="154" cy="24" r="33" id="53" fill="rgb(247,247,247)" fill-opacity="0.501961" />
<polygon points="109,60 104,90 98,89 103,59" id="54" fill="rgb(197,197,197)" fill-opacity="0.501961"/>
<polygon points="115,34 92,53 89,49 111,30" id="55" fill="rgb(110,110,110)" fill-opacity="0.501961"/>
<ellipse cx="129" cy="72" rx="7" ry="19" id="56" fill="rgb(70,70,70)" fill-opacity="0.501961" />
<rect x="20" y="210" width="26" height="25" id="57" fill="rgb(244,244,244)" fill-opacity="0.501961" />
<rect x="54" y="103" width="11" height="29" id="58" fill="rgb(204,204,204)" fill-opacity="0.501961" />
<g transform="translate(106 24) rotate(121) scale(7 18)"><ellipse cx="0" cy="0" rx="1" ry="1" id="59" fill="rgb(58,58,58)" fill-opacity="0.501961" /></g>
<g transform="translate(48 92) rotate(316) scale(18 14)"><ellipse cx="0" cy="0" rx="1" ry="1" id="60" fill="rgb(250,250,250)" fill-opacity="0.501961" /></g>
<rect x="135" y="33" width="27" height="166" id="61" fill="rgb(231,231,231)" fill-opacity="0.501961" />
<rect x="38" y="122" width="35" height="20" id="62" fill="rgb(210,210,210)" fill-opacity="0.501961" />
</svg>