<svg width="113" height="78" viewBox="0 0 113 78" fill="none" xmlns="http://www.w3.org/2000/svg">
<path d="M95.0628 0H17.063C13.0306 0 9.75049 3.28016 9.75049 7.31248V65.8123C9.75049 67.1583 10.8408 68.2498 12.188 68.2498H99.9378C101.285 68.2498 102.375 67.1583 102.375 65.8123V7.31248C102.375 3.28016 99.0951 0 95.0628 0Z" fill="#444444"/>
<path d="M0 60.9375V65.8125C0 72.5322 5.46779 78 12.1875 78H99.9372C106.657 78 112.125 72.5322 112.125 65.8125V60.9375H0Z" fill="#E6E6E6"/>
<path d="M95.0628 7.3125H17.063V53.6249H95.0628V7.3125Z" fill="white"/>
<path d="M63.375 68.25H48.75C46.0578 68.25 43.875 66.0672 43.875 63.375V60.9375H68.2499V63.375C68.2499 66.0672 66.0672 68.25 63.375 68.25Z" fill="#B3B3B3"/>
<path d="M58.4995 12.1877H53.6245C52.2783 12.1877 51.187 13.279 51.187 14.6252V46.3127C51.187 47.6588 52.2783 48.7501 53.6245 48.7501H58.4995C59.8457 48.7501 60.937 47.6588 60.937 46.3127V14.6252C60.937 13.279 59.8457 12.1877 58.4995 12.1877Z" fill="#43A6DD"/>
<path d="M38.9995 30.4688H34.1245C32.7783 30.4688 31.687 31.5601 31.687 32.9062V46.3125C31.687 47.6586 32.7783 48.75 34.1245 48.75H38.9995C40.3457 48.75 41.437 47.6586 41.437 46.3125V32.9062C41.437 31.5601 40.3457 30.4688 38.9995 30.4688Z" fill="#43A6DD"/>
<path d="M77.999 25.8982H73.124C71.7778 25.8982 70.6865 26.9895 70.6865 28.3357V46.3122C70.6865 47.6584 71.7778 48.7497 73.124 48.7497H77.999C79.3452 48.7497 80.4365 47.6584 80.4365 46.3122V28.3357C80.4365 26.9895 79.3452 25.8982 77.999 25.8982Z" fill="#43A6DD"/>
</svg>
