<svg width="89" height="89" viewBox="0 0 89 89" fill="none" xmlns="http://www.w3.org/2000/svg">
<path d="M79.9049 2.04932H6.14653C2.7519 2.04932 0 4.80121 0 8.19585V81.9543C0 85.3489 2.7519 88.1008 6.14653 88.1008H79.9049C83.2996 88.1008 86.0515 85.3489 86.0515 81.9543V8.19585C86.0515 4.80121 83.2996 2.04932 79.9049 2.04932Z" fill="#A4DAE0"/>
<path d="M86.0008 2.10058C85.335 1.43462 84.5444 0.906346 83.6743 0.545926C82.8043 0.185506 81.8717 0 80.93 0C79.9882 0 79.0557 0.185506 78.1856 0.545926C77.3155 0.906346 76.525 1.43462 75.8591 2.10058L35.7816 37.8304C33.8602 39.7518 32.7808 42.3578 32.7808 45.0751C32.7808 47.7924 33.8602 50.3984 35.7816 52.3198C37.703 54.2412 40.309 55.3207 43.0263 55.3207C45.7436 55.3207 48.3496 54.2412 50.271 52.3198L86.0008 12.2424C86.6668 11.5765 87.1951 10.7859 87.5555 9.91585C87.9159 9.04578 88.1014 8.11324 88.1014 7.17147C88.1014 6.22971 87.9159 5.29717 87.5555 4.4271C87.1951 3.55703 86.6668 2.76648 86.0008 2.10058Z" fill="#A67C52"/>
<path d="M54.2581 33.8494C51.9998 31.5908 49.4138 29.6858 46.5872 28.1987L35.7816 37.8283C33.8602 39.7497 32.7808 42.3557 32.7808 45.073C32.7808 47.7903 33.8602 50.3963 35.7816 52.3177C37.703 54.2391 40.309 55.3186 43.0263 55.3186C45.7436 55.3186 48.3496 54.2391 50.271 52.3177L59.9006 41.5121C58.4157 38.6888 56.5134 36.1055 54.2581 33.8494Z" fill="#E6E6E6"/>
<path d="M31.8985 40.9776C29.898 40.9722 27.9164 41.3637 26.0683 42.1293C24.2202 42.8949 22.5423 44.0195 21.1318 45.4379C15.5999 50.9698 14.4587 69.3848 14.346 71.4583C14.3287 71.7541 14.372 72.0503 14.4734 72.3287C14.5747 72.6072 14.7319 72.8619 14.9353 73.0774C15.1387 73.2929 15.384 73.4645 15.6561 73.5818C15.9282 73.699 16.2215 73.7593 16.5178 73.7591C16.5574 73.7612 16.597 73.7612 16.6366 73.7591C18.7182 73.6464 37.1394 72.4991 42.6569 66.9733C44.7865 64.8444 46.237 62.1319 46.8252 59.1786C47.4133 56.2254 47.1126 53.1641 45.9611 50.3818C44.8096 47.5994 42.859 45.221 40.356 43.5471C37.8529 41.8732 34.9097 40.979 31.8985 40.9776Z" fill="#444444"/>
</svg>
