<svg width="95" height="93" viewBox="0 0 95 93" fill="none" xmlns="http://www.w3.org/2000/svg">
<path d="M87.6389 47.9999L49.1985 9.42425C45.7891 6.01492 41.1655 4.09887 36.344 4.09725H29.5316L26.0342 0.599874C25.65 0.215775 25.129 0 24.5857 0C24.0424 0 23.5214 0.215775 23.1372 0.599874L0.599874 23.1372C0.215775 23.5214 0 24.0424 0 24.5857C0 25.129 0.215775 25.65 0.599874 26.0342L4.09725 29.5316V36.6227C4.09725 44.1358 10.3913 50.2167 10.3913 50.2167L44.1419 87.0632C45.3144 88.2454 46.8066 89.0594 48.4353 89.4053C50.064 89.7512 51.7582 89.6139 53.31 89.0103C54.8617 88.4066 56.2034 87.3629 57.1702 86.0074C58.137 84.6518 58.6868 83.0434 58.7522 81.3797C59.979 82.3487 61.4959 82.8769 63.0592 82.8793C64.6225 82.8818 66.1411 82.3584 67.3709 81.3932C68.6007 80.4281 69.47 79.0774 69.8392 77.5583C70.2084 76.0393 70.0559 74.4402 69.4062 73.0183C70.8936 73.5622 72.5031 73.6809 74.0542 73.3612C75.6053 73.0414 77.0367 72.2958 78.1877 71.208C79.3387 70.1201 80.1638 68.7331 80.5706 67.2026C80.9773 65.672 80.9496 64.0583 80.4905 62.5426C82.2657 62.7796 84.0705 62.4532 85.6503 61.6093C87.23 60.7655 88.5048 59.4469 89.2949 57.8396C90.085 56.2323 90.3503 54.4175 90.0536 52.6513C89.7568 50.8851 88.9129 49.2566 87.6409 47.9958L87.6389 47.9999Z" fill="#A67C52"/>
<path d="M7.67696 48.7785L6.21517 50.2403C3.39073 53.0647 3.39073 57.644 6.21517 60.4685C9.0396 63.2929 13.6189 63.2929 16.4434 60.4685L17.9051 59.0067C20.7296 56.1822 20.7296 51.6029 17.9051 48.7785C15.0807 45.954 10.5014 45.954 7.67696 48.7785Z" fill="#EEBC99"/>
<path d="M17.4665 57.7691L15.205 60.0306C12.3854 62.8502 12.3854 67.4218 15.205 70.2414C18.0246 73.061 22.5962 73.061 25.4158 70.2414L27.6773 67.9799C30.497 65.1603 30.497 60.5887 27.6773 57.7691C24.8577 54.9494 20.2861 54.9494 17.4665 57.7691Z" fill="#EEBC99"/>
<path d="M26.0421 67.8617L24.5702 69.3336C21.7242 72.1796 21.7238 76.7937 24.5695 79.6393C27.4151 82.4849 32.0291 82.4846 34.8752 79.6386L36.3471 78.1666C39.1931 75.3206 39.1935 70.7066 36.3478 67.861C33.5022 65.0153 28.8882 65.0156 26.0421 67.8617Z" fill="#EEBC99"/>
<path d="M35.6685 77.1762L34.0416 78.8032C31.4459 81.3988 31.4459 85.6071 34.0415 88.2027C36.6371 90.7983 40.8454 90.7983 43.4411 88.2027L45.068 86.5757C47.6636 83.9801 47.6636 79.7718 45.068 77.1762C42.4724 74.5806 38.2641 74.5806 35.6685 77.1762Z" fill="#EEBC99"/>
<path d="M93.6463 23.1372L71.109 0.599874C70.7248 0.215775 70.2037 0 69.6605 0C69.1172 0 68.5961 0.215775 68.2119 0.599874L64.7145 4.09725H57.9021C53.0806 4.09887 48.457 6.01492 45.0477 9.42425L25.8152 28.6649C25.1286 29.3241 24.585 30.1177 24.2184 30.9961C23.8519 31.8745 23.6701 32.8189 23.6844 33.7707C23.7216 34.9648 24.0784 36.127 24.7176 37.1363C25.3569 38.1456 26.2551 38.965 27.3187 39.509C28.3823 40.0531 29.5724 40.3019 30.7649 40.2295C31.9574 40.1572 33.1086 39.7663 34.0987 39.0977L49.1392 29.5582C52.3224 32.3497 56.4243 33.8674 60.6578 33.8198C64.1782 33.8428 67.6238 32.8047 70.5456 30.8408L86.5532 46.9181C88.7449 43.9181 89.9964 40.3348 90.1489 36.6227V29.5316L93.6463 26.0342C94.0304 25.65 94.2462 25.129 94.2462 24.5857C94.2462 24.0424 94.0304 23.5214 93.6463 23.1372Z" fill="#EEBC99"/>
</svg>
