<svg width="114" height="113" viewBox="0 0 114 113" fill="none" xmlns="http://www.w3.org/2000/svg">
<path d="M73.9464 2.47021L49.2812 23.0236V59.2C49.2812 59.8541 49.5411 60.4815 50.0037 60.944C50.4662 61.4066 51.0936 61.6665 51.7478 61.6665H66.5468V44.4009H81.3459V61.6665H96.145C96.7991 61.6665 97.4265 61.4066 97.889 60.944C98.3516 60.4815 98.6115 59.8541 98.6115 59.2V23.0236L73.9464 2.47021Z" fill="#6CA5B7"/>
<path d="M111.264 73.8334C110.053 72.5994 108.478 71.7875 106.77 71.5175C105.062 71.2474 103.313 71.5336 101.781 72.3338L80.7437 82.8411C79.9473 85.2585 78.4531 87.3859 76.4492 88.9552C74.4454 90.5244 72.0218 91.4652 69.4841 91.6589L42.1058 93.6148H41.9257C41.2716 93.6377 40.6351 93.3998 40.1564 92.9535C39.6776 92.5071 39.3958 91.8888 39.3729 91.2347C39.35 90.5805 39.5879 89.944 40.0343 89.4653C40.4807 88.9865 41.0989 88.7047 41.7531 88.6818L41.9282 88.6695L69.0796 87.2562C71.0821 87.1104 72.9553 86.2121 74.3225 84.7417C75.6898 83.2713 76.4498 81.3379 76.4498 79.3301C76.4498 77.3222 75.6898 75.3888 74.3225 73.9184C72.9553 72.448 71.0821 71.5497 69.0796 71.4039L43.6745 66.7866C42.5151 66.5761 41.3768 66.2624 40.2732 65.8493L26.6186 60.7289C23.7139 59.639 20.5932 59.2495 17.5098 59.5918L2.19519 61.2937C1.59167 61.3605 1.03399 61.6476 0.628946 62.0999C0.223901 62.5523 -4.1535e-05 63.1382 5.77825e-09 63.7454V93.5902C5.77825e-09 94.2443 0.259864 94.8717 0.722424 95.3343C1.18498 95.7968 1.81235 96.0567 2.46651 96.0567H4.53345C8.02718 96.0569 11.4582 96.9846 14.476 98.7452L32.8983 109.516C37.1245 111.981 42.1156 112.788 46.9032 111.781L82.0731 104.381C84.8931 103.787 87.5491 102.583 89.855 100.854L110.268 85.5296C111.937 84.2752 113.039 82.4092 113.332 80.342C113.626 78.2749 113.086 76.1759 111.832 74.5068C111.656 74.2713 111.467 74.0465 111.264 73.8334Z" fill="#F5C09A"/>
<path d="M49.2812 23.0236V32.6578L73.9464 12.1019L98.6115 32.6578V23.0236L73.9464 2.47021L49.2812 23.0236Z" fill="#4D8B9D"/>
<path d="M103.544 29.6017C102.967 29.6022 102.409 29.4006 101.965 29.032L73.9458 5.67657L45.9287 29.032C45.6796 29.2396 45.3921 29.3961 45.0825 29.4926C44.7729 29.5891 44.4474 29.6237 44.1244 29.5944C43.8015 29.5651 43.4875 29.4724 43.2004 29.3218C42.9132 29.1711 42.6586 28.9653 42.4509 28.7162C42.2433 28.4672 42.0868 28.1796 41.9903 27.87C41.8938 27.5605 41.8592 27.2349 41.8885 26.912C41.9178 26.589 42.0105 26.275 42.1612 25.9879C42.3118 25.7007 42.5176 25.4461 42.7667 25.2385L72.3648 0.573363C72.8084 0.202925 73.3679 0 73.9458 0C74.5237 0 75.0833 0.202925 75.5269 0.573363L105.125 25.2385C105.515 25.5629 105.796 25.9998 105.929 26.4896C106.062 26.9795 106.04 27.4983 105.867 27.9755C105.694 28.4527 105.378 28.8649 104.963 29.1559C104.547 29.4469 104.051 29.6026 103.544 29.6017Z" fill="#6CA5B7"/>
</svg>
