<svg width="95" height="87" viewBox="0 0 95 87" fill="none" xmlns="http://www.w3.org/2000/svg">
<path d="M57.3678 63.5142H36.8794V84.0026H57.3678V63.5142Z" fill="#282828"/>
<path d="M90.1492 0H4.09769C1.83474 0 0 1.83475 0 4.09769V65.563C0 67.826 1.83474 69.6607 4.09769 69.6607H90.1492C92.4121 69.6607 94.2468 67.826 94.2468 65.563V4.09769C94.2468 1.83475 92.4121 0 90.1492 0Z" fill="#444444"/>
<path d="M88.1003 6.14661H6.14648V57.3677H88.1003V6.14661Z" fill="#43A6DD"/>
<path d="M67.6117 79.905H26.6348V86.0516H67.6117V79.905Z" fill="#444444"/>
<path d="M86.0513 65.5628C87.1828 65.5628 88.1001 64.6455 88.1001 63.5139C88.1001 62.3824 87.1828 61.4651 86.0513 61.4651C84.9197 61.4651 84.0024 62.3824 84.0024 63.5139C84.0024 64.6455 84.9197 65.5628 86.0513 65.5628Z" fill="#B3B3B3"/>
<path d="M77.8555 65.5628C78.987 65.5628 79.9043 64.6455 79.9043 63.5139C79.9043 62.3824 78.987 61.4651 77.8555 61.4651C76.7239 61.4651 75.8066 62.3824 75.8066 63.5139C75.8066 64.6455 76.7239 65.5628 77.8555 65.5628Z" fill="#B3B3B3"/>
</svg>
