<svg width="82" height="95" viewBox="0 0 82 95" fill="none" xmlns="http://www.w3.org/2000/svg">
<path d="M81.2369 12.7868L67.6121 0H14.3422L0.717347 12.7868C0.0637658 13.3441 -0.169803 14.2497 0.12728 15.0529C0.424362 15.856 1.19063 16.3908 2.0491 16.3908H79.9052C80.7637 16.3908 81.5299 15.856 81.825 15.0529C82.1241 14.2497 81.8905 13.3441 81.2369 12.7868Z" fill="#D1B43D"/>
<path d="M67.6122 0H14.3423V26.635H67.6122V0Z" fill="#BCA02A"/>
<path d="M79.9049 12.2932H2.04884C0.917883 12.2932 0 13.2111 0 14.3421V90.1493C0 92.4133 1.83372 94.247 4.09769 94.247H77.8561C80.1201 94.247 81.9538 92.4133 81.9538 90.1493V14.3421C81.9538 13.2111 81.0359 12.2932 79.9049 12.2932Z" fill="#EFD358"/>
<path d="M40.9767 57.3679C30.8083 57.3679 22.5371 49.0947 22.5371 38.9283V32.7818C22.5371 31.6508 23.4529 30.7329 24.586 30.7329C25.719 30.7329 26.6348 31.6508 26.6348 32.7818V38.9283C26.6348 46.8368 33.0702 53.2702 40.9767 53.2702C48.8832 53.2702 55.3186 46.8368 55.3186 38.9283V32.7818C55.3186 31.6508 56.2345 30.7329 57.3675 30.7329C58.5005 30.7329 59.4163 31.6508 59.4163 32.7818V38.9283C59.4163 49.0947 51.1451 57.3679 40.9767 57.3679Z" fill="white"/>
</svg>
