<svg width="99" height="80" viewBox="0 0 99 80" fill="none" xmlns="http://www.w3.org/2000/svg">
<path d="M98.3445 9.46101C94.7262 11.0657 90.8378 12.1505 86.7561 12.6381C90.9221 10.1411 94.1213 6.18696 95.6276 1.47541C91.7293 3.78764 87.4113 5.46679 82.8153 6.37174C79.1349 2.45025 73.8911 0 68.0881 0C56.9448 0 47.911 9.03383 47.911 20.1761C47.911 21.7576 48.0894 23.2973 48.4333 24.7742C31.6648 23.9328 16.7977 15.9002 6.84632 3.69315C5.10955 6.67317 4.11469 10.139 4.11469 13.8367C4.11469 20.8365 7.67677 27.0123 13.0905 30.6306C9.78315 30.5259 6.67208 29.6181 3.95167 28.1069C3.95025 28.1912 3.94995 28.2755 3.94995 28.3605C3.94995 38.1365 10.9048 46.2914 20.135 48.1448C18.4418 48.6056 16.6593 48.8523 14.8193 48.8523C13.5191 48.8523 12.2552 48.7258 11.0232 48.4904C13.5908 56.5062 21.042 62.3398 29.8711 62.5028C22.9657 67.9141 14.266 71.1397 4.81306 71.1397C3.18446 71.1396 1.57835 71.0441 0 70.8579C8.92915 76.5825 19.5346 79.9226 30.9288 79.9226C68.041 79.9226 88.3352 49.1783 88.3352 22.5157C88.3352 21.641 88.3155 20.7708 88.2769 19.9056C92.2187 17.0609 95.6396 13.5072 98.3445 9.46101Z" fill="#69ACE0"/>
</svg>
