<svg width="95" height="95" viewBox="0 0 95 95" fill="none" xmlns="http://www.w3.org/2000/svg">
<path d="M71.7095 0H10.2441C15.901 0 20.4884 4.58736 20.4884 10.2442V84.0026C20.4884 89.6595 25.0757 94.2468 30.7326 94.2468H81.9537V10.2442C81.9537 4.58736 77.3663 0 71.7095 0Z" fill="#E6E6E6"/>
<path d="M67.6116 22.5374H34.8301C33.6991 22.5374 32.7812 21.6195 32.7812 20.4885C32.7812 19.3576 33.6991 18.4397 34.8301 18.4397H67.6116C68.7426 18.4397 69.6605 19.3576 69.6605 20.4885C69.6605 21.6195 68.7426 22.5374 67.6116 22.5374Z" fill="#B3B3B3"/>
<path d="M67.6116 38.928H34.8301C33.6991 38.928 32.7812 38.0101 32.7812 36.8792C32.7812 35.7482 33.6991 34.8303 34.8301 34.8303H67.6116C68.7426 34.8303 69.6605 35.7482 69.6605 36.8792C69.6605 38.0101 68.7426 38.928 67.6116 38.928Z" fill="#B3B3B3"/>
<path d="M67.6116 55.3189H34.8301C33.6991 55.3189 32.7812 54.401 32.7812 53.27C32.7812 52.1391 33.6991 51.2212 34.8301 51.2212H67.6116C68.7426 51.2212 69.6605 52.1391 69.6605 53.27C69.6605 54.401 68.7426 55.3189 67.6116 55.3189Z" fill="#B3B3B3"/>
<path d="M49.172 71.7097H34.8301C33.6991 71.7097 32.7812 70.7919 32.7812 69.6609C32.7812 68.5299 33.6991 67.6121 34.8301 67.6121H49.172C50.303 67.6121 51.2209 68.5299 51.2209 69.6609C51.2209 70.7919 50.303 71.7097 49.172 71.7097Z" fill="#B3B3B3"/>
<path d="M10.2442 0C4.58736 0 0 4.58736 0 10.2442H20.4884C20.4884 4.58736 15.9011 0 10.2442 0Z" fill="#B3B3B3"/>
<path d="M40.9771 84.0027C40.9771 89.6595 36.3898 94.2469 30.7329 94.2469H84.0029C89.6597 94.2469 94.2471 89.6595 94.2471 84.0027H40.9771Z" fill="#B3B3B3"/>
</svg>
