<?xml version="1.0" standalone="no"?>
<svg xmlns="http://www.w3.org/2000/svg" version="1.2" baseProfile="tiny" width="256" height="256" viewBox="0 0 256 256">
<rect x="0" y="0" width="256" height="256" id="0" fill="rgb(96,84,78)" fill-opacity="1" />
<circle cx="154" cy="154" r="55" id="1" fill="rgb(214,234,255)" fill-opacity="0.501961" />
<circle cx="90" cy="41" r="73" id="2" fill="rgb(0,0,0)" fill-opacity="0.501961" />
<ellipse cx="108" cy="186" rx="68" ry="23" id="3" fill="rgb(236,230,232)" fill-opacity="0.501961" />
<circle cx="54" cy="151" r="30" id="4" fill="rgb(202,198,204)" fill-opacity="0.501961" />
<ellipse cx="207" cy="238" rx="93" ry="47" id="5" fill="rgb(0,0,4)" fill-opacity="0.501961" />
<g transform="translate(255 40) rotate(67) scale(80 39)"><ellipse cx="0" cy="0" rx="1" ry="1" id="6" fill="rgb(3,0,0)" fill-opacity="0.501961" /></g>
<g transform="translate(221 119) rotate(142) scale(34 79)"><ellipse cx="0" cy="0" rx="1" ry="1" id="7" fill="rgb(225,159,103)" fill-opacity="0.501961" /></g>
<ellipse cx="107" cy="0" rx="55" ry="17" id="8" fill="rgb(177,195,208)" fill-opacity="0.501961" />
<ellipse cx="92" cy="59" rx="73" ry="40" id="9" fill="rgb(0,0,0)" fill-opacity="0.501961" />
<ellipse cx="78" cy="115" rx="19" ry="32" id="10" fill="rgb(95,140,209)" fill-opacity="0.501961" />
<ellipse cx="117" cy="144" rx="50" ry="20" id="11" fill="rgb(53,77,110)" fill-opacity="0.501961" />
<ellipse cx="50" cy="19" rx="36" ry="7" id="12" fill="rgb(190,215,233)" fill-opacity="0.501961" />
<polygon points="57,117 28,125 22,29" id="13" fill="rgb(0,0,0)" fill-opacity="0.501961" />
<circle cx="133" cy="71" r="33" id="14" fill="rgb(0,0,0)" fill-opacity="0.501961" />
<rect x="141" y="155" width="44" height="40" id="15" fill="rgb(228,243,254)" fill-opacity="0.501961" />
<polygon points="105,252 79,251 80,223 106,224" id="16" fill="rgb(248,218,211)" fill-opacity="0.501961"/>
<g transform="translate(19 190) rotate(65) scale(196 24)"><ellipse cx="0" cy="0" rx="1" ry="1" id="17" fill="rgb(157,74,3)" fill-opacity="0.501961" /></g>
<g transform="translate(203 75) rotate(163) scale(26 73)"><ellipse cx="0" cy="0" rx="1" ry="1" id="18" fill="rgb(176,97,35)" fill-opacity="0.501961" /></g>
<ellipse cx="255" cy="203" rx="41" ry="30" id="19" fill="rgb(0,15,35)" fill-opacity="0.501961" />
<polygon points="5,21 16,20 23,82 12,83" id="20" fill="rgb(180,197,211)" fill-opacity="0.501961"/>
<polygon points="262,148 245,159 229,133 246,122" id="21" fill="rgb(215,251,255)" fill-opacity="0.501961"/>
<g transform="translate(1 193) rotate(357) scale(11 31)"><ellipse cx="0" cy="0" rx="1" ry="1" id="22" fill="rgb(0,0,17)" fill-opacity="0.501961" /></g>
<circle cx="125" cy="50" r="38" id="23" fill="rgb(0,0,0)" fill-opacity="0.501961" />
<circle cx="20" cy="0" r="20" id="24" fill="rgb(0,0,0)" fill-opacity="0.501961" />
<circle cx="77" cy="56" r="36" id="25" fill="rgb(0,0,0)" fill-opacity="0.501961" />
<g transform="translate(40 161) rotate(158) scale(6 60)"><ellipse cx="0" cy="0" rx="1" ry="1" id="26" fill="rgb(226,246,255)" fill-opacity="0.501961" /></g>
<polygon points="184,128 211,127 212,152 185,153" id="27" fill="rgb(228,239,246)" fill-opacity="0.501961"/>
<ellipse cx="200" cy="169" rx="14" ry="14" id="28" fill="rgb(99,36,5)" fill-opacity="0.501961" />
<g transform="translate(61 176) rotate(247) scale(30 4)"><ellipse cx="0" cy="0" rx="1" ry="1" id="29" fill="rgb(61,24,0)" fill-opacity="0.501961" /></g>
<ellipse cx="7" cy="107" rx="19" ry="62" id="30" fill="rgb(177,131,90)" fill-opacity="0.501961" />
<circle cx="100" cy="150" r="21" id="31" fill="rgb(67,82,112)" fill-opacity="0.501961" />
<g transform="translate(241 53) rotate(78) scale(54 21)"><ellipse cx="0" cy="0" rx="1" ry="1" id="32" fill="rgb(46,17,0)" fill-opacity="0.501961" /></g>
<circle cx="64" cy="0" r="12" id="33" fill="rgb(7,0,0)" fill-opacity="0.501961" />
<rect x="147" y="120" width="32" height="22" id="34" fill="rgb(62,88,113)" fill-opacity="0.501961" />
<rect x="109" y="209" width="47" height="16" id="35" fill="rgb(172,117,72)" fill-opacity="0.501961" />
<ellipse cx="181" cy="246" rx="70" ry="31" id="36" fill="rgb(12,21,41)" fill-opacity="0.501961" />
<polygon points="103,110 128,110 128,126 103,126" id="37" fill="rgb(201,211,224)" fill-opacity="0.501961"/>
<polygon points="182,190 256,146 206,199" id="38" fill="rgb(163,129,118)" fill-opacity="0.501961" />
<polygon points="166,109 233,178 174,102" id="39" fill="rgb(244,255,255)" fill-opacity="0.501961" />
<ellipse cx="167" cy="28" rx="4" ry="58" id="40" fill="rgb(159,187,213)" fill-opacity="0.501961" />
<rect x="231" y="151" width="16" height="14" id="41" fill="rgb(36,0,0)" fill-opacity="0.501961" />
<circle cx="154" cy="88" r="12" id="42" fill="rgb(0,0,0)" fill-opacity="0.501961" />
<circle cx="87" cy="133" r="18" id="43" fill="rgb(77,121,178)" fill-opacity="0.501961" />
<polygon points="29,24 14,42 9,37 23,19" id="44" fill="rgb(164,183,199)" fill-opacity="0.501961"/>
<polygon points="87,22 34,127 23,78" id="45" fill="rgb(0,0,0)" fill-opacity="0.501961" />
<polygon points="108,223 95,218 102,197" id="46" fill="rgb(0,0,0)" fill-opacity="0.501961" />
<rect x="60" y="145" width="17" height="24" id="47" fill="rgb(235,188,174)" fill-opacity="0.501961" />
<g transform="translate(116 195) rotate(360) scale(9 18)"><ellipse cx="0" cy="0" rx="1" ry="1" id="48" fill="rgb(215,238,255)" fill-opacity="0.501961" /></g>
<g transform="translate(208 0) rotate(8) scale(48 10)"><ellipse cx="0" cy="0" rx="1" ry="1" id="49" fill="rgb(13,1,0)" fill-opacity="0.501961" /></g>
<rect x="19" y="30" width="143" height="23" id="50" fill="rgb(0,0,0)" fill-opacity="0.501961" />
<polygon points="162,8 14,34 163,96" id="51" fill="rgb(0,0,0)" fill-opacity="0.501961" />
<g transform="translate(30 24) rotate(0) scale(19 5)"><ellipse cx="0" cy="0" rx="1" ry="1" id="52" fill="rgb(182,201,215)" fill-opacity="0.501961" /></g>
<polygon points="83,85 84,121 58,122 57,86" id="53" fill="rgb(91,116,155)" fill-opacity="0.501961"/>
<g transform="translate(2 255) rotate(69) scale(23 27)"><ellipse cx="0" cy="0" rx="1" ry="1" id="54" fill="rgb(139,64,0)" fill-opacity="0.501961" /></g>
<rect x="64" y="209" width="9" height="46" id="55" fill="rgb(26,6,0)" fill-opacity="0.501961" />
<polygon points="79,6 0,0 0,23" id="56" fill="rgb(23,22,22)" fill-opacity="0.501961" />
<polygon points="188,168 195,164 211,192 205,196" id="57" fill="rgb(217,186,183)" fill-opacity="0.501961"/>
<rect x="139" y="202" width="38" height="11" id="58" fill="rgb(156,88,36)" fill-opacity="0.501961" />
<polygon points="44,26 167,6 50,11" id="59" fill="rgb(160,178,192)" fill-opacity="0.501961" />
<polygon points="180,149 196,155 115,212" id="60" fill="rgb(220,229,237)" fill-opacity="0.501961" />
<ellipse cx="238" cy="171" rx="22" ry="8" id="61" fill="rgb(129,171,173)" fill-opacity="0.501961" />
<polygon points="68,130 80,131 79,151 67,150" id="62" fill="rgb(94,68,61)" fill-opacity="0.501961"/>
</svg>