<?xml version="1.0" standalone="no"?>
<svg xmlns="http://www.w3.org/2000/svg" version="1.2" baseProfile="tiny" width="256" height="256" viewBox="0 0 256 256">
<rect x="0" y="0" width="256" height="256" id="0" fill="rgb(103,105,101)" fill-opacity="1" />
<ellipse cx="70" cy="185" rx="79" ry="48" id="1" fill="rgb(255,255,255)" fill-opacity="0.501961" />
<circle cx="167" cy="128" r="49" id="2" fill="rgb(255,230,210)" fill-opacity="0.501961" />
<g transform="translate(167 229) rotate(196) scale(41 57)"><ellipse cx="0" cy="0" rx="1" ry="1" id="3" fill="rgb(0,0,0)" fill-opacity="0.501961" /></g>
<ellipse cx="32" cy="52" rx="71" ry="66" id="4" fill="rgb(0,0,0)" fill-opacity="0.501961" />
<ellipse cx="61" cy="200" rx="83" ry="30" id="5" fill="rgb(246,246,251)" fill-opacity="0.501961" />
<g transform="translate(247 169) rotate(287) scale(26 42)"><ellipse cx="0" cy="0" rx="1" ry="1" id="6" fill="rgb(0,0,0)" fill-opacity="0.501961" /></g>
<circle cx="235" cy="37" r="76" id="7" fill="rgb(23,32,15)" fill-opacity="0.501961" />
<polygon points="189,134 227,107 240,125 202,152" id="8" fill="rgb(255,255,255)" fill-opacity="0.501961"/>
<rect x="56" y="105" width="37" height="36" id="9" fill="rgb(0,0,0)" fill-opacity="0.501961" />
<rect x="44" y="223" width="37" height="32" id="10" fill="rgb(0,20,25)" fill-opacity="0.501961" />
<ellipse cx="39" cy="119" rx="14" ry="32" id="11" fill="rgb(253,192,169)" fill-opacity="0.501961" />
<g transform="translate(114 34) rotate(261) scale(38 62)"><ellipse cx="0" cy="0" rx="1" ry="1" id="12" fill="rgb(48,54,42)" fill-opacity="0.501961" /></g>
<polygon points="256,106 256,72 125,134" id="13" fill="rgb(25,0,0)" fill-opacity="0.501961" />
<g transform="translate(255 239) rotate(206) scale(128 13)"><ellipse cx="0" cy="0" rx="1" ry="1" id="14" fill="rgb(0,0,0)" fill-opacity="0.501961" /></g>
<g transform="translate(108 102) rotate(50) scale(41 15)"><ellipse cx="0" cy="0" rx="1" ry="1" id="15" fill="rgb(199,193,178)" fill-opacity="0.501961" /></g>
<polygon points="166,140 256,216 205,205" id="16" fill="rgb(255,208,170)" fill-opacity="0.501961" />
<ellipse cx="0" cy="167" rx="31" ry="19" id="17" fill="rgb(151,53,20)" fill-opacity="0.501961" />
<g transform="translate(57 157) rotate(296) scale(17 57)"><ellipse cx="0" cy="0" rx="1" ry="1" id="18" fill="rgb(251,244,245)" fill-opacity="0.501961" /></g>
<circle cx="0" cy="96" r="30" id="19" fill="rgb(0,0,0)" fill-opacity="0.501961" />
<g transform="translate(230 153) rotate(152) scale(43 12)"><ellipse cx="0" cy="0" rx="1" ry="1" id="20" fill="rgb(0,15,25)" fill-opacity="0.501961" /></g>
<polygon points="103,23 98,39 176,74" id="21" fill="rgb(255,227,208)" fill-opacity="0.501961" />
<circle cx="147" cy="254" r="37" id="22" fill="rgb(0,16,21)" fill-opacity="0.501961" />
<g transform="translate(99 54) rotate(278) scale(16 33)"><ellipse cx="0" cy="0" rx="1" ry="1" id="23" fill="rgb(0,0,0)" fill-opacity="0.501961" /></g>
<polygon points="169,107 101,126 107,153" id="24" fill="rgb(255,214,180)" fill-opacity="0.501961" />
<polygon points="146,95 134,68 160,56 172,83" id="25" fill="rgb(184,228,237)" fill-opacity="0.501961"/>
<rect x="174" y="84" width="32" height="15" id="26" fill="rgb(255,244,210)" fill-opacity="0.501961" />
<ellipse cx="9" cy="243" rx="31" ry="33" id="27" fill="rgb(186,186,177)" fill-opacity="0.501961" />
<polygon points="155,123 115,169 93,150" id="28" fill="rgb(179,90,52)" fill-opacity="0.501961" />
<ellipse cx="248" cy="150" rx="16" ry="47" id="29" fill="rgb(0,1,9)" fill-opacity="0.501961" />
<g transform="translate(132 87) rotate(194) scale(15 35)"><ellipse cx="0" cy="0" rx="1" ry="1" id="30" fill="rgb(68,133,144)" fill-opacity="0.501961" /></g>
<g transform="translate(91 229) rotate(11) scale(28 10)"><ellipse cx="0" cy="0" rx="1" ry="1" id="31" fill="rgb(190,193,192)" fill-opacity="0.501961" /></g>
<ellipse cx="188" cy="150" rx="16" ry="13" id="32" fill="rgb(255,255,255)" fill-opacity="0.501961" />
<g transform="translate(113 183) rotate(341) scale(50 12)"><ellipse cx="0" cy="0" rx="1" ry="1" id="33" fill="rgb(255,255,255)" fill-opacity="0.501961" /></g>
<polygon points="236,208 184,169 249,198" id="34" fill="rgb(255,255,240)" fill-opacity="0.501961" />
<circle cx="16" cy="43" r="36" id="35" fill="rgb(0,11,12)" fill-opacity="0.501961" />
<ellipse cx="242" cy="245" rx="13" ry="40" id="36" fill="rgb(0,14,23)" fill-opacity="0.501961" />
<polygon points="34,222 147,256 55,256" id="37" fill="rgb(0,21,25)" fill-opacity="0.501961" />
<ellipse cx="69" cy="114" rx="15" ry="30" id="38" fill="rgb(0,0,0)" fill-opacity="0.501961" />
<g transform="translate(40 103) rotate(251) scale(26 8)"><ellipse cx="0" cy="0" rx="1" ry="1" id="39" fill="rgb(227,163,137)" fill-opacity="0.501961" /></g>
<ellipse cx="31" cy="129" rx="18" ry="17" id="40" fill="rgb(135,125,120)" fill-opacity="0.501961" />
<circle cx="69" cy="7" r="27" id="41" fill="rgb(98,114,107)" fill-opacity="0.501961" />
<ellipse cx="166" cy="205" rx="25" ry="26" id="42" fill="rgb(0,0,3)" fill-opacity="0.501961" />
<circle cx="212" cy="255" r="27" id="43" fill="rgb(48,127,151)" fill-opacity="0.501961" />
<g transform="translate(68 217) rotate(268) scale(9 74)"><ellipse cx="0" cy="0" rx="1" ry="1" id="44" fill="rgb(175,181,183)" fill-opacity="0.501961" /></g>
<polygon points="174,87 151,25 223,72" id="45" fill="rgb(9,32,27)" fill-opacity="0.501961" />
<rect x="159" y="159" width="20" height="15" id="46" fill="rgb(126,55,16)" fill-opacity="0.501961" />
<polygon points="80,14 112,0 181,64" id="47" fill="rgb(15,34,25)" fill-opacity="0.501961" />
<ellipse cx="24" cy="124" rx="9" ry="8" id="48" fill="rgb(255,255,255)" fill-opacity="0.501961" />
<circle cx="100" cy="28" r="6" id="49" fill="rgb(245,249,252)" fill-opacity="0.501961" />
<polygon points="235,129 157,156 228,113" id="50" fill="rgb(255,255,255)" fill-opacity="0.501961" />
<polygon points="151,116 165,78 132,100" id="51" fill="rgb(245,248,252)" fill-opacity="0.501961" />
<g transform="translate(233 18) rotate(303) scale(24 50)"><ellipse cx="0" cy="0" rx="1" ry="1" id="52" fill="rgb(100,103,84)" fill-opacity="0.501961" /></g>
<ellipse cx="0" cy="117" rx="14" ry="14" id="53" fill="rgb(0,0,0)" fill-opacity="0.501961" />
<rect x="125" y="108" width="7" height="12" id="54" fill="rgb(0,0,0)" fill-opacity="0.501961" />
<polygon points="74,66 106,75 102,89 70,80" id="55" fill="rgb(196,142,103)" fill-opacity="0.501961"/>
<polygon points="23,186 160,98 245,63" id="56" fill="rgb(248,226,220)" fill-opacity="0.501961" />
<polygon points="45,41 78,84 55,0" id="57" fill="rgb(107,119,108)" fill-opacity="0.501961" />
</svg>