<?xml version="1.0" encoding="UTF-8" standalone="no"?>
<!DOCTYPE svg PUBLIC "-//W3C//DTD SVG 1.1//EN" "http://www.w3.org/Graphics/SVG/1.1/DTD/svg11.dtd">
<svg width="100%" height="100%" viewBox="0 0 650 391" version="1.1" xmlns="http://www.w3.org/2000/svg" xmlns:xlink="http://www.w3.org/1999/xlink" xml:space="preserve" xmlns:serif="http://www.serif.com/" style="fill-rule:evenodd;clip-rule:evenodd;stroke-linejoin:round;stroke-miterlimit:1.41421;">
    <g transform="matrix(1,0,0,1,-971.275,-1276.42)">
        <g transform="matrix(4.16667,0,0,4.16667,0,0)">
            <g transform="matrix(-0.999814,-0.0192779,0.0192779,-0.999814,403.56,432.024)">
                <path d="M167.407,100.938L171.606,101.135C172.686,101.184 172.681,101.293 171.771,100.619L168.041,97.933L167.949,97.877L140.773,87.216C140.124,86.962 139.184,87.446 138.933,88.096L138.749,88.572C138.498,89.222 138.888,90.27 139.543,90.516L167.385,100.945L167.407,100.938Z" style="fill:rgb(153,156,161);"/>
            </g>
        </g>
        <g transform="matrix(4.16667,0,0,4.16667,0,0)">
            <g transform="matrix(-0.999814,-0.0192779,0.0192779,-0.999814,403.56,432.024)">
                <path d="M166.769,100.808L170.045,100.966L171.012,101.009C172.093,101.057 172.087,101.166 171.177,100.491L169.582,99.312L167.695,98.01L166.769,100.808Z" style="fill:rgb(97,99,102);"/>
            </g>
        </g>
        <g transform="matrix(4.16667,0,0,4.16667,0,0)">
            <g transform="matrix(-0.999814,-0.0192779,0.0192779,-0.999814,403.56,432.024)">
                <path d="M166.791,100.818L138.949,90.388C138.294,90.143 137.904,89.096 138.155,88.445L138.339,87.97C138.59,87.319 139.53,86.832 140.179,87.09L167.786,98.066C168.191,98.453 167.293,100.68 166.791,100.818Z" style="fill:rgb(26,26,39);"/>
            </g>
        </g>
        <g transform="matrix(4.16667,0,0,4.16667,0,0)">
            <g transform="matrix(-0.999814,-0.0192779,0.0192779,-0.999814,403.56,432.024)">
                <path d="M140.859,91.077C149.385,91.077 156.296,97.988 156.296,106.514C156.296,115.039 149.385,121.95 140.859,121.95C132.334,121.95 125.423,115.039 125.423,106.514C125.423,97.988 132.334,91.077 140.859,91.077Z" style="fill:rgb(153,156,161);"/>
            </g>
        </g>
        <g transform="matrix(4.16667,0,0,4.16667,0,0)">
            <g transform="matrix(-0.999814,-0.0192779,0.0192779,-0.999814,403.56,432.024)">
                <path d="M141.962,92.095C150.487,92.095 157.398,99.006 157.398,107.532C157.398,116.057 150.487,122.968 141.962,122.968C133.436,122.968 126.524,116.057 126.524,107.532C126.524,99.006 133.436,92.095 141.962,92.095Z" style="fill:rgb(230,230,230);"/>
            </g>
        </g>
        <g transform="matrix(4.16667,0,0,4.16667,0,0)">
            <g transform="matrix(-0.999814,-0.0192779,0.0192779,-0.999814,403.56,432.024)">
                <path d="M141.962,92.095C142.232,92.095 142.5,92.102 142.767,92.116C134.616,92.535 128.136,99.276 128.136,107.532C128.136,115.787 134.616,122.528 142.767,122.948C142.5,122.961 142.232,122.968 141.962,122.968C133.436,122.968 126.524,116.057 126.524,107.532C126.524,99.006 133.436,92.095 141.962,92.095Z" style="fill:rgb(205,204,204);"/>
            </g>
        </g>
        <g transform="matrix(4.16667,0,0,4.16667,0,0)">
            <g transform="matrix(-0.999814,-0.0192779,0.0192779,-0.999814,403.56,432.024)">
                <path d="M141.981,92.095C150.498,92.105 157.398,99.013 157.398,107.532C157.398,116.057 150.487,122.968 141.962,122.968C141.411,122.968 140.866,122.939 140.33,122.883L140.35,122.883C148.876,122.883 155.788,115.971 155.788,107.446C155.788,99.472 149.74,92.91 141.981,92.095Z" style="fill:white;"/>
            </g>
        </g>
        <g transform="matrix(4.16667,0,0,4.16667,0,0)">
            <g transform="matrix(-0.999814,-0.0192779,0.0192779,-0.999814,403.56,432.024)">
                <path d="M141.198,98.541C146,98.541 149.892,102.433 149.892,107.234C149.892,112.036 146,115.928 141.198,115.928C136.396,115.928 132.503,112.036 132.503,107.234C132.503,102.433 136.396,98.541 141.198,98.541Z" style="fill:rgb(205,204,204);"/>
            </g>
        </g>
        <g transform="matrix(4.16667,0,0,4.16667,0,0)">
            <g transform="matrix(-0.999814,-0.0192779,0.0192779,-0.999814,403.56,432.024)">
                <path d="M141.962,98.838C146.763,98.838 150.655,102.73 150.655,107.532C150.655,112.333 146.763,116.225 141.962,116.225C137.16,116.225 133.268,112.333 133.268,107.532C133.268,102.73 137.16,98.838 141.962,98.838Z" style="fill:white;"/>
            </g>
        </g>
        <g transform="matrix(4.16667,0,0,4.16667,0,0)">
            <g transform="matrix(-0.999814,-0.0192779,0.0192779,-0.999814,403.56,432.024)">
                <path d="M141.962,99.604C146.34,99.604 149.89,103.153 149.89,107.532C149.89,111.91 146.34,115.459 141.962,115.459C137.583,115.459 134.032,111.91 134.032,107.532C134.032,103.153 137.583,99.604 141.962,99.604Z" style="fill:rgb(176,139,102);"/>
            </g>
        </g>
        <g transform="matrix(4.16667,0,0,4.16667,0,0)">
            <g transform="matrix(-0.999814,-0.0192779,0.0192779,-0.999814,403.56,432.024)">
                <path d="M145.028,100.447C147.764,101.634 149.679,104.358 149.679,107.532C149.679,111.793 146.224,115.249 141.962,115.249C139.053,115.249 136.521,113.64 135.206,111.264C136.146,111.672 137.182,111.898 138.272,111.898C142.535,111.898 145.989,108.443 145.989,104.18C145.989,102.827 145.641,101.554 145.028,100.447Z" style="fill:rgb(204,163,120);"/>
            </g>
        </g>
        <g transform="matrix(4.16667,0,0,4.16667,0,0)">
            <g transform="matrix(-0.999814,-0.0192779,0.0192779,-0.999814,403.56,432.024)">
                <path d="M150.822,106.302L152.519,106.302C152.75,106.302 152.941,106.493 152.941,106.726L152.941,107.915C152.941,108.148 152.75,108.338 152.519,108.338L150.822,108.338C150.587,108.338 150.397,108.148 150.397,107.915L150.397,106.726C150.397,106.493 150.587,106.302 150.822,106.302Z" style="fill:white;"/>
            </g>
        </g>
        <g transform="matrix(4.16667,0,0,4.16667,0,0)">
            <path d="M298.62,314.797L336.141,315.98C337.443,316.02 338.476,317.119 338.437,318.424L336.802,370.378C336.759,371.68 335.659,372.713 334.354,372.673L296.833,371.491C295.53,371.451 294.497,370.352 294.537,369.046L296.172,317.093C296.215,315.79 297.314,314.757 298.62,314.797Z" style="fill:rgb(3,4,4);"/>
        </g>
        <g transform="matrix(4.16667,0,0,4.16667,0,0)">
            <path d="M298.078,314.279L335.6,315.461C336.905,315.501 337.938,316.605 337.895,317.906L336.261,369.86C336.221,371.162 335.118,372.195 333.815,372.155L296.295,370.973C294.989,370.933 293.956,369.833 293.999,368.528L295.634,316.577C295.674,315.272 296.776,314.239 298.078,314.279Z" style="fill:rgb(30,29,28);"/>
        </g>
        <g transform="matrix(4.16667,0,0,4.16667,0,0)">
            <path d="M306.426,314.801L335.45,315.674C336.742,315.714 337.769,316.807 337.729,318.103L336.104,369.654C336.064,370.949 334.972,371.973 333.68,371.933L296.444,370.76C296.142,370.75 295.853,370.684 295.59,370.57C295.836,370.667 296.099,370.724 296.378,370.733L333.49,371.902C334.779,371.942 335.868,370.92 335.908,369.631L337.526,318.245C337.566,316.956 336.546,315.866 335.254,315.827C334.36,315.8 313.577,315.674 306.426,314.801Z" style="fill:rgb(94,90,88);"/>
        </g>
        <g transform="matrix(4.16667,0,0,4.16667,0,0)">
            <path d="M298.554,318.281L334.875,319.428L333.341,368.152L297.019,367.01L298.554,318.281Z" style="fill:rgb(251,252,252);"/>
        </g>
        <g transform="matrix(4.16667,0,0,4.16667,0,0)">
            <path d="M300.287,353.215L331.168,353.883L331.155,354.557L300.271,353.89L300.287,353.215Z" style="fill:rgb(163,166,166);"/>
        </g>
        <g transform="matrix(4.16667,0,0,4.16667,0,0)">
            <path d="M300.168,358.291L331.049,358.958L331.032,359.633L300.151,358.965L300.168,358.291Z" style="fill:rgb(163,166,166);"/>
        </g>
        <g transform="matrix(4.16667,0,0,4.16667,0,0)">
            <path d="M300.048,363.366L330.93,364.034L330.913,364.708L300.031,364.04L300.048,363.366Z" style="fill:rgb(163,166,166);"/>
        </g>
        <g transform="matrix(4.16667,0,0,4.16667,0,0)">
            <path d="M302.755,336.67L306.881,336.826L306.488,347.149L302.363,346.994L302.755,336.67Z" style="fill:rgb(99,153,178);"/>
        </g>
        <g transform="matrix(4.16667,0,0,4.16667,0,0)">
            <path d="M306.831,338.115L310.953,338.272L310.61,347.306L306.488,347.149L306.831,338.115Z" style="fill:rgb(99,153,178);"/>
        </g>
        <g transform="matrix(4.16667,0,0,4.16667,0,0)">
            <path d="M310.906,339.564L315.032,339.72L314.736,347.462L310.61,347.306L310.906,339.564Z" style="fill:rgb(99,153,178);"/>
        </g>
        <g transform="matrix(4.16667,0,0,4.16667,0,0)">
            <path d="M314.982,341.008L319.107,341.168L318.861,347.618L314.736,347.462L314.982,341.008Z" style="fill:rgb(99,153,178);"/>
        </g>
        <g transform="matrix(4.16667,0,0,4.16667,0,0)">
            <path d="M302.177,335.358L301.686,348.319L301.42,348.31L301.911,335.348L302.177,335.358Z" style="fill:rgb(99,153,178);"/>
        </g>
        <g transform="matrix(4.16667,0,0,4.16667,0,0)">
            <path d="M300.576,347.313L320.665,348.076L320.659,348.296L300.566,347.535L300.576,347.313Z" style="fill:rgb(99,153,178);"/>
        </g>
        <g transform="matrix(4.16667,0,0,4.16667,0,0)">
            <path d="M300.344,350.894L331.225,351.561L331.208,352.235L300.327,351.567L300.344,350.894Z" style="fill:rgb(163,166,166);"/>
        </g>
        <g transform="matrix(4.16667,0,0,4.16667,0,0)">
            <path d="M300.224,355.969L331.105,356.637L331.089,357.311L300.207,356.644L300.224,355.969Z" style="fill:rgb(163,166,166);"/>
        </g>
        <g transform="matrix(4.16667,0,0,4.16667,0,0)">
            <path d="M300.102,361.044L330.985,361.712L330.969,362.386L300.085,361.715L300.102,361.044Z" style="fill:rgb(163,166,166);"/>
        </g>
        <g transform="matrix(4.16667,0,0,4.16667,0,0)">
            <path d="M326.628,333.361C328.621,333.361 330.238,334.98 330.238,336.973C330.238,338.965 328.621,340.583 326.628,340.583C324.635,340.583 323.018,338.965 323.018,336.973C323.018,334.98 324.635,333.361 326.628,333.361Z" style="fill:rgb(99,153,178);"/>
        </g>
        <g transform="matrix(4.16667,0,0,4.16667,0,0)">
            <path d="M326.628,333.361C326.804,333.361 326.977,333.375 327.149,333.398L326.628,337.042L323.018,336.973C323.018,336.278 323.213,335.63 323.552,335.079C324.189,334.049 325.329,333.361 326.628,333.361Z" style="fill:rgb(230,230,230);"/>
        </g>
        <g transform="matrix(4.16667,0,0,4.16667,0,0)">
            <path d="M326.661,336.973L326.628,340.583C324.635,340.583 323.018,338.965 323.018,336.973C323.018,335.869 323.512,334.883 324.289,334.222L326.661,336.973Z" style="fill:rgb(34,45,96);"/>
        </g>
        <g transform="matrix(4.16667,0,0,4.16667,0,0)">
            <path d="M326.628,333.361C327.86,333.361 328.949,333.98 329.601,334.923L326.628,337.042L326.628,333.361Z" style="fill:rgb(63,111,134);"/>
        </g>
        <g transform="matrix(4.16667,0,0,4.16667,0,0)">
            <path d="M320.426,329.841C320.267,330.768 316.696,331.27 312.364,330.964C308.033,330.658 304.565,329.661 304.539,328.725L304.539,328.722L304.539,328.685L304.841,324.417L320.731,325.532L320.43,329.805L320.43,329.841L320.426,329.841Z" style="fill:rgb(100,112,133);"/>
        </g>
        <g transform="matrix(4.16667,0,0,4.16667,0,0)">
            <path d="M312.913,323.19C317.301,323.5 320.802,324.52 320.735,325.47C320.669,326.416 317.059,326.938 312.67,326.629C308.282,326.319 304.778,325.3 304.845,324.351C304.911,323.4 308.521,322.882 312.913,323.19Z" style="fill:rgb(111,125,149);"/>
        </g>
        <g transform="matrix(4.16667,0,0,4.16667,0,0)">
            <path d="M311.435,330.953C309.066,330.711 307.057,330.266 305.881,329.758L306.256,325.586L312.511,324.785L311.74,326.619L311.435,330.953Z" style="fill:rgb(89,102,123);"/>
        </g>
        <g transform="matrix(4.16667,0,0,4.16667,0,0)">
            <path d="M311.435,330.953L312.079,329.216L312.511,324.785L311.74,326.619L311.435,330.953Z" style="fill:rgb(89,102,123);"/>
        </g>
        <g transform="matrix(4.16667,0,0,4.16667,0,0)">
            <path d="M306.232,325.586L312.511,324.785L311.74,326.619L311.74,326.622C309.551,326.403 307.438,326.044 306.232,325.586Z" style="fill:rgb(89,102,123);"/>
        </g>
        <g transform="matrix(4.16667,0,0,4.16667,0,0)">
            <path d="M311.179,331.389C308.811,331.147 306.801,330.701 305.625,330.189L306,326.018L312.255,325.221L311.484,327.051L311.179,331.389Z" style="fill:rgb(190,97,95);"/>
        </g>
        <g transform="matrix(4.16667,0,0,4.16667,0,0)">
            <path d="M311.179,331.389L311.823,329.651L312.255,325.221L311.484,327.051L311.179,331.389Z" style="fill:rgb(161,79,77);"/>
        </g>
        <g transform="matrix(4.16667,0,0,4.16667,0,0)">
            <path d="M305.978,326.021L312.255,325.221L311.484,327.051L311.484,327.054C309.296,326.835 307.187,326.476 305.978,326.021Z" style="fill:rgb(215,117,113);"/>
        </g>
        <g transform="matrix(4.16667,0,0,4.16667,0,0)">
            <path d="M307.322,327.233L306.934,323.071L300.513,322.603L300.543,322.171L307.146,322.652L307.329,322.666L307.346,322.849L307.754,327.196L307.322,327.233Z" style="fill:rgb(3,4,4);"/>
        </g>
        <g transform="matrix(4.16667,0,0,4.16667,0,0)">
            <path d="M307.548,327.034C307.631,327.041 307.694,327.11 307.691,327.196C307.685,327.28 307.611,327.343 307.528,327.336C307.442,327.329 307.379,327.257 307.386,327.174C307.393,327.091 307.465,327.027 307.548,327.034Z" style="fill:rgb(3,4,4);"/>
        </g>
        <g transform="matrix(4.16667,0,0,4.16667,0,0)">
            <path d="M316.042,325.825L317.052,321.576L317.095,321.397L317.277,321.41L323.326,321.822L323.296,322.254L317.434,321.855L316.464,325.925L316.042,325.825Z" style="fill:rgb(3,4,4);"/>
        </g>
        <g transform="matrix(4.16667,0,0,4.16667,0,0)">
            <path d="M316.268,325.692C316.185,325.689 316.111,325.752 316.104,325.835C316.098,325.918 316.161,325.991 316.244,325.998C316.331,326.001 316.403,325.938 316.407,325.855C316.414,325.772 316.351,325.698 316.268,325.692Z" style="fill:rgb(3,4,4);"/>
        </g>
        <g transform="matrix(4.16667,0,0,4.16667,0,0)">
            <path d="M240.584,400L249.316,395.048C250.452,396.403 252.106,398.141 253.993,400L240.584,400Z" style="fill:rgb(176,96,94);"/>
        </g>
        <g transform="matrix(4.16667,0,0,4.16667,0,0)">
            <path d="M295.494,326.878C296.557,326.532 296.703,326.343 297.391,326.825C298.995,327.94 298.908,330.91 298.447,333.441C298.151,335.065 297.952,336.189 297.782,337.517C297.182,342.204 297.886,345.077 297.523,348.037C297.291,349.92 296.57,351.551 294.982,354.627C295.146,356.67 295.464,359.732 294.919,361.184C294.574,362.107 293.939,362.24 292.352,363.058C288.805,364.888 286.336,366.851 279.68,373.245L274.152,366.249C279.301,361.516 282.211,358.569 284.32,354.527C285.354,352.544 286.008,349.811 286.765,346.528C287.672,342.605 287.698,339.517 288.645,338.019C289.525,336.624 291.581,335.909 294.226,334.478C294.338,332.96 294.647,332.023 294.926,330.718C295.175,329.562 295.335,328.13 295.494,326.878Z" style="fill:rgb(242,179,135);"/>
        </g>
        <g transform="matrix(4.16667,0,0,4.16667,0,0)">
            <path d="M298.009,335.952C297.929,336.471 297.853,336.976 297.782,337.517C297.182,342.204 297.886,345.08 297.523,348.037C297.291,349.917 296.57,351.551 294.982,354.627C295.146,356.67 295.464,359.732 294.919,361.184C294.617,361.987 292.401,363.041 290.213,363.784C291.96,361.493 294.129,360.649 293.684,357.613C293.581,356.909 293.365,356.371 293.043,356.165C292.733,355.966 292.494,356.244 291.896,356.706C289.964,358.201 290.624,357.324 291.479,355.969C292.704,354.016 293.847,352.398 294.471,350.571C296.135,345.682 296.212,341.062 298.009,335.952Z" style="fill:rgb(245,188,150);"/>
        </g>
        <g transform="matrix(4.16667,0,0,4.16667,0,0)">
            <path d="M295.534,326.855C295.627,326.825 296.314,326.629 296.411,326.608C296.736,328.356 295.793,330.419 294.969,333.223C294.61,334.428 294.288,335.577 293.856,336.757C293.335,338.185 292.282,340.995 291.368,340.593C291.239,340.486 291.718,339.225 292.574,337.966C291.219,339.059 290.27,339.4 290,340.789C289.339,344.193 287.954,350.216 285.791,355.511C283.323,361.556 280.646,362.286 275.468,367.13L273.628,365.13C284.077,355.822 284.543,356.5 286.848,346.528C287.755,342.605 287.781,339.517 288.728,338.019C289.608,336.624 291.668,335.909 294.309,334.478C294.421,332.96 294.67,332.023 294.946,330.718C295.195,329.562 295.374,328.106 295.534,326.855Z" style="fill:rgb(232,164,119);"/>
        </g>
        <g transform="matrix(4.16667,0,0,4.16667,0,0)">
            <path d="M295.438,326.752L295.175,328.997C295.112,329.525 295.435,329.977 295.886,330.007C296.338,330.033 296.756,329.628 296.819,329.1L297.082,326.855C297.142,326.326 296.822,325.875 296.371,325.845C295.919,325.818 295.501,326.227 295.438,326.752Z" style="fill:rgb(238,165,128);"/>
        </g>
        <g transform="matrix(4.16667,0,0,4.16667,0,0)">
            <path d="M296.045,326.257L295.657,329.562C295.63,329.798 295.773,330 295.976,330.014C296.175,330.023 296.364,329.844 296.391,329.608L296.776,326.3C296.806,326.067 296.663,325.864 296.461,325.852C296.258,325.838 296.072,326.021 296.045,326.257Z" style="fill:rgb(243,178,146);"/>
        </g>
        <g transform="matrix(4.16667,0,0,4.16667,0,0)">
            <path d="M296.414,326.752L296.075,329.638C296.065,329.731 296.118,329.808 296.198,329.814C296.278,329.821 296.351,329.748 296.361,329.658L296.696,326.769C296.71,326.679 296.653,326.599 296.573,326.596C296.497,326.589 296.424,326.658 296.414,326.752Z" style="fill:rgb(248,191,163);"/>
        </g>
        <g transform="matrix(4.16667,0,0,4.16667,0,0)">
            <path d="M297.072,326.821C297.065,326.293 296.776,325.871 296.371,325.845C295.966,325.821 295.58,326.203 295.454,326.722C295.66,326.582 295.893,326.506 296.129,326.522L296.454,326.542C296.689,326.556 296.899,326.658 297.072,326.821Z" style="fill:white;"/>
        </g>
        <g transform="matrix(4.16667,0,0,4.16667,0,0)">
            <path d="M296.428,327.828L296.229,329.528C296.225,329.552 296.238,329.571 296.258,329.571C296.278,329.575 296.298,329.555 296.301,329.532L296.5,327.835C296.504,327.812 296.487,327.788 296.467,327.788C296.447,327.788 296.428,327.805 296.428,327.828Z" style="fill:rgb(253,227,214);"/>
        </g>
        <g transform="matrix(4.16667,0,0,4.16667,0,0)">
            <path d="M237.06,394.467C250.024,380.466 267.276,365.243 283.048,353.202C285.001,356.251 289.426,362.456 293.089,366.299C280.145,376.975 268.778,388.441 257.088,400L236.156,400C236.06,398.316 236.339,396.446 237.06,394.467Z" style="fill:rgb(176,96,94);"/>
        </g>
        <g transform="matrix(4.16667,0,0,4.16667,0,0)">
            <path d="M236.156,400C236.06,398.316 236.339,396.446 237.057,394.467C250.024,380.466 267.276,365.243 283.048,353.202C283.5,353.902 284.077,354.773 284.752,355.743C269.589,367.495 253.326,381.961 240.959,395.317C240.358,396.968 240.065,398.546 240.039,400L236.156,400Z" style="fill:rgb(150,82,79);"/>
        </g>
        <g transform="matrix(4.16667,0,0,4.16667,0,0)">
            <path d="M290.758,363.675C291.548,364.615 292.335,365.509 293.089,366.299C280.145,376.975 268.778,388.441 257.088,400L252.011,400C262.371,389.833 278.295,374.62 290.758,363.675Z" style="fill:rgb(199,120,118);"/>
        </g>
        <g transform="matrix(4.16667,0,0,4.16667,0,0)">
            <path d="M321.98,343.48C322.044,343.738 321.791,343.991 321.546,344.004C320.643,344.054 318.317,342.666 318.071,342.569C318.45,342.366 318.676,341.998 319.2,341.965C319.726,341.932 320.549,342.121 321.037,342.387C321.522,342.652 321.897,343.127 321.98,343.48Z" style="fill:rgb(232,164,119);"/>
        </g>
        <g transform="matrix(4.16667,0,0,4.16667,0,0)">
            <path d="M318.506,342.649C319.311,342.446 320.081,342.406 320.818,342.735C322.313,343.403 324.203,345.091 325.92,346.386C324.396,345.938 322.018,344.131 320.845,343.705C319.098,343.071 318.506,342.649 318.506,342.649ZM349.245,361.197C343.697,355.972 344.093,354.959 340.632,349.149C339.569,347.366 338.134,345.436 336.234,343.437C334.836,341.965 333.009,339.417 331.567,338.474C330.411,337.72 329.132,337.583 328.401,338.886C327.382,338.175 326.08,336.504 324.983,336.644C324.193,336.743 323.286,337.291 322.864,338.427C321.881,337.753 321.297,337.474 320.771,337.483C319.951,337.504 318.756,338.53 318.008,339.132C316.553,340.297 317.33,341.423 318.058,342.775C315.201,342.669 317.885,347.289 319.51,348.203C318.104,348.04 317.543,347.718 316.237,349.585C317.424,350.674 318.766,352.089 319.984,353.521C322.492,356.474 323.642,357.965 325.545,359.271C332.438,363.99 334.825,359.403 341.386,367.512L349.245,361.197Z" style="fill:rgb(242,179,135);"/>
        </g>
        <g transform="matrix(4.16667,0,0,4.16667,0,0)">
            <path d="M316.265,349.495C320.21,344.901 323.509,352.143 325.694,354.644C322.994,352.634 320.449,346.845 317.161,349.607C317.32,349.688 318.596,350.595 320.821,353.345C323.213,356.301 325.581,357.706 327.398,358.825C331.328,361.247 336.739,359.107 342.814,366.362L341.316,367.611C334.427,358.984 332.438,363.99 325.545,359.271C323.642,357.965 322.492,356.474 319.984,353.521C318.766,352.089 317.241,350.598 316.265,349.495ZM317.719,342.15L318.058,342.775L317.932,342.772L317.968,342.782C318.749,343.001 319.383,343.383 320.47,343.52L318.49,342.612C319.423,342.593 320.008,342.37 320.599,342.593C321.729,343.022 322.559,344.147 323.559,344.895C324.31,345.459 325.993,346.655 326.535,346.473C326.611,346.445 324.934,345.27 323.871,344.37C322.563,343.264 321.233,341.855 320.37,341.6C319.944,341.474 319.662,341.815 319.24,341.878C318.928,341.925 318.463,341.643 318.164,341.822C318.015,341.911 317.865,342.022 317.719,342.15ZM323.137,337.926C323.16,337.999 323.193,338.075 323.246,338.151C324.412,339.872 326.275,341.356 327.571,342.413C328.285,342.998 329.043,343.496 329.01,343.659C328.96,343.921 327.993,343.347 326.967,342.586C325.332,341.377 323.256,339.497 322.303,338.294C322.303,338.294 322.153,338.102 321.957,337.862C322.224,338.009 322.525,338.201 322.881,338.443C322.947,338.261 323.034,338.089 323.137,337.926ZM330.352,337.949C329.591,337.796 328.873,338.032 328.392,338.886C327.934,338.564 327.418,338.049 326.891,337.594C327.894,338.716 328.266,339.604 329.392,340.616C329.627,340.825 331.518,342.406 331.604,342.423C332.218,342.556 331.162,341.603 330.368,340.842C329.747,340.247 329.182,339.666 329.129,339.47C328.97,338.882 329.428,338.351 329.764,338.148C329.92,338.056 330.119,337.988 330.352,337.949Z" style="fill:rgb(232,164,119);"/>
        </g>
        <g transform="matrix(4.16667,0,0,4.16667,0,0)">
            <path d="M323.189,350.398L316.098,345.968L310.411,340.872C307.442,338.115 307.631,336.597 308.166,336.096C308.638,335.653 309.156,335.641 311.01,336.873C312.411,337.806 313.999,339.4 315.377,340.37C317.785,342.067 318.686,342.762 320.396,343.609C321.722,344.267 322.037,344.293 323.227,345.29C324.033,345.968 324.927,346.734 325.05,346.622C325.754,349.106 324.728,349.953 323.189,350.398Z" style="fill:rgb(242,179,135);"/>
        </g>
        <g transform="matrix(4.16667,0,0,4.16667,0,0)">
            <path d="M310.411,340.872C308.797,339.374 308.119,338.241 307.917,337.44C309.811,339.696 311.598,341.477 313.557,343.31C315.032,344.689 316.875,345.838 318.32,346.731C318.603,346.904 322.041,349.386 323.153,351.116C320.33,348.87 313.8,344.227 310.411,340.872Z" style="fill:rgb(232,164,119);"/>
        </g>
        <g transform="matrix(4.16667,0,0,4.16667,0,0)">
            <path d="M307.771,336.949L309.524,338.623C309.937,339.015 310.541,339.082 310.866,338.77C311.192,338.457 311.122,337.879 310.711,337.487L308.957,335.81C308.545,335.418 307.94,335.352 307.614,335.664C307.289,335.976 307.359,336.554 307.771,336.949Z" style="fill:rgb(238,165,128);"/>
        </g>
        <g transform="matrix(4.16667,0,0,4.16667,0,0)">
            <path d="M307.751,336.175L310.335,338.644C310.518,338.815 310.787,338.846 310.933,338.706C311.076,338.566 311.046,338.311 310.863,338.135L308.279,335.667C308.093,335.491 307.824,335.464 307.681,335.604C307.535,335.743 307.564,335.999 307.751,336.175Z" style="fill:rgb(243,178,146);"/>
        </g>
        <g transform="matrix(4.16667,0,0,4.16667,0,0)">
            <path d="M308.422,336.231L310.678,338.388C310.75,338.454 310.854,338.467 310.91,338.414C310.966,338.357 310.956,338.258 310.883,338.191L308.628,336.035C308.555,335.966 308.452,335.956 308.396,336.009C308.339,336.065 308.349,336.165 308.422,336.231Z" style="fill:rgb(248,191,163);"/>
        </g>
        <g transform="matrix(4.16667,0,0,4.16667,0,0)">
            <path d="M308.924,335.797C308.465,335.451 307.907,335.385 307.614,335.664C307.322,335.942 307.396,336.478 307.758,336.916C307.774,336.67 307.864,336.451 308.033,336.288L308.27,336.063C308.438,335.899 308.668,335.814 308.924,335.797Z" style="fill:white;"/>
        </g>
        <g transform="matrix(4.16667,0,0,4.16667,0,0)">
            <path d="M309.355,336.933L310.684,338.201C310.704,338.218 310.73,338.222 310.744,338.208C310.761,338.194 310.757,338.168 310.737,338.151L309.408,336.883C309.392,336.866 309.365,336.862 309.349,336.876C309.335,336.89 309.339,336.916 309.355,336.933Z" style="fill:rgb(253,227,214);"/>
        </g>
        <g transform="matrix(4.16667,0,0,4.16667,0,0)">
            <path d="M315.902,349.256L317.496,350.86C317.868,351.235 318.423,351.269 318.726,350.934C319.031,350.598 318.975,350.013 318.6,349.638L317.005,348.033C316.633,347.658 316.078,347.625 315.776,347.96C315.474,348.296 315.53,348.881 315.902,349.256Z" style="fill:rgb(238,165,128);"/>
        </g>
        <g transform="matrix(4.16667,0,0,4.16667,0,0)">
            <path d="M315.893,348.472L318.237,350.834C318.406,351.003 318.652,351.017 318.789,350.867C318.922,350.718 318.898,350.458 318.732,350.289L316.384,347.927C316.218,347.758 315.972,347.744 315.836,347.894C315.699,348.043 315.727,348.303 315.893,348.472Z" style="fill:rgb(243,178,146);"/>
        </g>
        <g transform="matrix(4.16667,0,0,4.16667,0,0)">
            <path d="M316.51,348.492L318.56,350.555C318.623,350.621 318.719,350.628 318.772,350.567C318.825,350.512 318.815,350.408 318.749,350.346L316.703,348.279C316.637,348.216 316.54,348.209 316.486,348.266C316.437,348.325 316.447,348.426 316.51,348.492Z" style="fill:rgb(248,191,163);"/>
        </g>
        <g transform="matrix(4.16667,0,0,4.16667,0,0)">
            <path d="M316.979,348.021C316.56,347.694 316.049,347.661 315.776,347.96C315.504,348.263 315.563,348.801 315.889,349.226C315.909,348.974 315.995,348.747 316.154,348.571L316.37,348.329C316.53,348.153 316.739,348.054 316.979,348.021Z" style="fill:white;"/>
        </g>
        <g transform="matrix(4.16667,0,0,4.16667,0,0)">
            <path d="M317.36,349.152L318.566,350.368C318.583,350.382 318.606,350.385 318.623,350.368C318.636,350.355 318.633,350.329 318.616,350.313L317.41,349.1C317.394,349.083 317.37,349.08 317.357,349.097C317.344,349.109 317.344,349.136 317.36,349.152Z" style="fill:rgb(253,227,214);"/>
        </g>
        <g transform="matrix(4.16667,0,0,4.16667,0,0)">
            <path d="M381.617,400L376.067,396.311C375.061,397.354 373.682,398.625 372.111,400L381.617,400Z" style="fill:rgb(176,96,94);"/>
        </g>
        <g transform="matrix(4.16667,0,0,4.16667,0,0)">
            <path d="M388.337,396.603C376.396,381.715 360.27,365.303 345.395,352.176C343.229,355.078 338.373,360.951 334.45,364.522C346.371,375.875 356.729,387.88 367.352,400L388.922,400C388.865,398.924 388.676,397.788 388.337,396.603Z" style="fill:rgb(176,96,94);"/>
        </g>
        <g transform="matrix(4.16667,0,0,4.16667,0,0)">
            <path d="M388.251,396.098C375.907,381.542 360.694,364.9 345.465,352.186C344.983,352.866 344.109,353.797 343.398,354.733C358.03,367.136 372.546,382.894 384.318,396.775C384.646,397.828 384.856,398.907 384.963,400L388.948,400C388.872,398.679 388.649,397.366 388.251,396.098Z" style="fill:rgb(199,120,118);"/>
        </g>
        <g transform="matrix(4.16667,0,0,4.16667,0,0)">
            <path d="M336.839,362.184C336.008,363.091 335.185,363.947 334.394,364.701C346.617,375.72 356.396,388.099 367.234,400L371.775,400C362.06,389.305 348.484,373.355 336.839,362.184Z" style="fill:rgb(150,82,79);"/>
        </g>
    </g>
</svg>
