<?xml version="1.0" encoding="UTF-8" standalone="no"?>
<!DOCTYPE svg PUBLIC "-//W3C//DTD SVG 1.1//EN" "http://www.w3.org/Graphics/SVG/1.1/DTD/svg11.dtd">
<svg width="100%" height="100%" viewBox="0 0 610 470" version="1.1" xmlns="http://www.w3.org/2000/svg" xmlns:xlink="http://www.w3.org/1999/xlink" xml:space="preserve" xmlns:serif="http://www.serif.com/" style="fill-rule:evenodd;clip-rule:evenodd;stroke-linejoin:round;stroke-miterlimit:1.41421;">
    <g transform="matrix(1,0,0,1,-325.546,-1197.17)">
        <g transform="matrix(4.16667,0,0,4.16667,0,0)">
            <path d="M133.22,303.427L176.451,298.172L183.295,354.474L140.065,359.732L133.22,303.427Z" style="fill:rgb(153,156,161);"/>
        </g>
        <g transform="matrix(4.16667,0,0,4.16667,0,0)">
            <path d="M134.407,304.191L177.638,298.937L184.483,355.238L141.253,360.493L134.407,304.191Z" style="fill:white;"/>
        </g>
        <g transform="matrix(4.16667,0,0,4.16667,0,0)">
            <path d="M136.961,307.882L176.042,303.132L176.128,303.843L137.048,308.596L136.961,307.882Z" style="fill:rgb(176,176,177);"/>
        </g>
        <g transform="matrix(4.16667,0,0,4.16667,0,0)">
            <path d="M137.519,312.472L176.6,307.722L176.687,308.433L137.606,313.187L137.519,312.472Z" style="fill:rgb(176,176,177);"/>
        </g>
        <g transform="matrix(4.16667,0,0,4.16667,0,0)">
            <path d="M138.068,316.986L177.148,312.232L177.235,312.947L138.154,317.697L138.068,316.986Z" style="fill:rgb(176,176,177);"/>
        </g>
        <g transform="matrix(4.16667,0,0,4.16667,0,0)">
            <path d="M138.626,321.576L177.706,316.823L177.793,317.537L138.712,322.287L138.626,321.576Z" style="fill:rgb(176,176,177);"/>
        </g>
        <g transform="matrix(4.16667,0,0,4.16667,0,0)">
            <path d="M139.117,325.612L178.197,320.859L178.284,321.573L139.203,326.323L139.117,325.612Z" style="fill:rgb(176,176,177);"/>
        </g>
        <g transform="matrix(4.16667,0,0,4.16667,0,0)">
            <path d="M139.665,330.123L178.746,325.37L178.832,326.084L139.752,330.834L139.665,330.123Z" style="fill:rgb(176,176,177);"/>
        </g>
        <g transform="matrix(4.16667,0,0,4.16667,0,0)">
            <path d="M140.224,334.714L179.304,329.96L179.39,330.675L140.31,335.425L140.224,334.714Z" style="fill:rgb(176,176,177);"/>
        </g>
        <g transform="matrix(4.16667,0,0,4.16667,0,0)">
            <path d="M140.752,339.065L179.833,334.315L179.92,335.029L140.839,339.779L140.752,339.065Z" style="fill:rgb(176,176,177);"/>
        </g>
        <g transform="matrix(4.16667,0,0,4.16667,0,0)">
            <path d="M141.301,343.579L180.382,338.826L180.468,339.54L141.388,344.29L141.301,343.579Z" style="fill:rgb(176,176,177);"/>
        </g>
        <g transform="matrix(4.16667,0,0,4.16667,0,0)">
            <path d="M141.859,348.17L180.94,343.416L181.026,344.131L141.945,348.881L141.859,348.17Z" style="fill:rgb(176,176,177);"/>
        </g>
        <g transform="matrix(4.16667,0,0,4.16667,0,0)">
            <path d="M160.739,313.628L164.165,316.325L182.49,341.164C183.297,342.297 180.81,344.33 179.974,343.074L162.171,318.016L160.739,313.628Z" style="fill:rgb(128,129,129);"/>
        </g>
        <g transform="matrix(4.16667,0,0,4.16667,0,0)">
            <path d="M172.625,316.866C171.599,317.003 169.439,317.926 168.249,318.212C166.973,318.959 166.619,319.544 166.524,320.623C168.099,319.866 171.471,318.231 172.625,316.866ZM171.018,323.4C169.451,323.892 168.741,323.579 167.071,323.596C167.087,324.394 167.329,325.107 167.354,326.26C168.239,327.26 168.832,327.489 169.545,328.625C171.522,327.762 171.741,327.393 173.98,327.516L173.634,325.809C172.342,325.273 171.768,324.855 171.018,323.4ZM183.214,352.97C179.921,346.313 175.937,341.503 173.077,338.999C170.243,336.514 166.999,336.68 165.129,335.309C164.265,334.674 163.922,333.112 163.519,331.917C162.793,329.771 162.399,328.602 162.081,327.947C161.404,326.556 161.192,325.526 161.37,322.145C161.507,319.514 161.469,317.604 163.931,317.973C164.238,316.418 163.623,316.494 164.413,315.678C165.335,314.721 169.875,312.758 171.168,312.585C172.022,312.469 172.079,312.279 173.166,312.276C174.332,310.545 171.817,312.522 173.815,311.555C175.157,310.106 177.359,309.596 179.145,310.495C180.377,311.12 182.032,312.372 183.746,313.661C185.942,315.312 188.335,317.006 188.794,317.743C189.245,318.464 188.836,319.447 188.716,320.687C188.595,321.962 188.746,323.507 187.641,324.609C188.69,329.455 186.183,328.336 186.37,330.931C188.84,335.7 193.248,342.629 195.764,347.007L183.214,352.97Z" style="fill:rgb(242,179,135);"/>
        </g>
        <g transform="matrix(4.16667,0,0,4.16667,0,0)">
            <path d="M171.703,317.428C170.677,317.564 170.129,318.248 168.421,318.219C167.408,319.312 166.775,319.222 166.682,320.305C168.256,319.544 170.549,318.793 171.703,317.428ZM171.018,323.4C169.451,323.892 168.844,323.726 167.173,323.745C167.19,324.543 167.481,325.221 167.507,326.373C168.392,327.373 168.832,327.489 169.545,328.625C171.522,327.762 171.741,327.393 173.98,327.516L173.634,325.809C172.342,325.273 171.768,324.855 171.018,323.4ZM183.469,353.139C179.243,346.316 175.343,341.756 172.992,339.165C170.46,336.374 166.999,336.68 165.129,335.309C164.265,334.674 163.922,333.112 163.519,331.917C162.793,329.771 162.399,328.602 162.081,327.947C161.404,326.556 161.192,325.526 161.37,322.145C161.507,319.514 161.469,317.604 163.931,317.973C164.238,316.418 163.623,316.494 164.413,315.678C165.335,314.721 169.573,312.206 170.867,312.03C172.833,312.021 173.344,311.227 174.338,310.848C175.68,309.402 177.359,309.592 179.145,310.495L179.267,310.562C178.488,310.429 177.855,310.396 177.51,310.525C176.966,310.728 178.193,311.734 179.364,312.721L186.203,319.305C186.01,319.391 185.474,319.035 184.731,318.431C181.907,316.136 176.099,310.27 174.898,311.755C174.77,311.914 175.472,312.476 176.002,313.064C177.896,315.162 185.041,320.945 185.06,322.394C182.627,319.367 177.483,315.664 174.787,313.13C174.032,312.422 166.902,313.445 165.332,315.65C164.519,316.79 164.876,317.667 165.108,318.049C165.429,318.577 166.971,318.421 168.226,317.471C170.514,317.644 171.958,316.112 173.699,315.794C173.928,315.754 179.07,320.976 180.694,323.878C181.43,325.193 181.327,325.394 180.261,324.237C178.174,321.969 173.841,316.97 173.631,317.103C171.414,318.521 168.542,320.268 167.943,321.609C169.37,322.168 170.032,322.154 171.54,322.42C172.484,323.792 173.101,324.33 174.347,325.437C174.513,325.835 174.456,327.987 174.165,328.423C173.749,329.044 172.904,329.359 172.052,329.585C171.336,329.774 170.82,330.13 170.111,329.954C168.969,329.665 168.367,329.469 167.048,327.236C166.999,326.027 166.939,325.067 166.764,323.872C166.366,321.185 166.033,319.089 163.905,318.504C161.788,319.338 162.276,323.064 162.677,326.333C162.831,327.596 163.772,328.29 164.154,329.718C165.078,333.173 165.385,335.518 169.896,334.564C171.932,334.136 173.082,334.966 175.773,333.169C177.646,333.688 179.003,333.498 180.047,332.917C181.02,332.375 181.724,331.495 182.322,330.535C184.832,329.971 184.621,330.123 186.622,328.502L185.828,330.459C181.484,339.58 184.018,335.428 176.181,339.324C179.696,343.599 181.943,347.017 184.891,351.7L183.469,353.139Z" style="fill:rgb(232,164,119);"/>
        </g>
        <g transform="matrix(4.16667,0,0,4.16667,0,0)">
            <path d="M162.326,319.258C162.238,320.022 162.388,321.437 162.539,321.969C163.069,322.38 164.816,322.071 165.019,321.872C165.335,321.56 165.227,321.065 165.155,320.507C165.077,319.896 165.006,319.212 164.634,318.916C164.494,318.807 162.909,318.601 162.326,319.258Z" style="fill:rgb(247,190,151);"/>
        </g>
        <g transform="matrix(4.16667,0,0,4.16667,0,0)">
            <path d="M191.571,339.985L188.503,348.711L181.251,349.439C188.681,363.439 193.856,379.818 202.707,393.367C206.879,395.4 215.655,399.117 223.447,389.897C219.894,376.858 201.124,356.616 191.571,339.985Z" style="fill:rgb(242,179,135);"/>
        </g>
        <g transform="matrix(4.16667,0,0,4.16667,0,0)">
            <path d="M223.447,389.897C220.149,377.795 203.74,359.486 193.763,343.619C191.313,339.54 188.269,334.598 186.37,330.931C186.184,328.336 188.69,329.455 187.641,324.609C188.747,323.507 188.595,321.962 188.716,320.687C188.836,319.447 189.244,318.464 188.794,317.743C188.335,317.006 185.942,315.312 183.746,313.661C182.032,312.376 180.377,311.12 179.144,310.495C181.522,313.047 187.435,317.275 188.201,318.507C188.836,319.527 188.244,323.666 187.301,324.609C187.841,328.14 185.293,330.542 185.48,333.136C194.675,353.314 217.289,382.416 219.884,391.933C212.124,401.113 220.807,393.022 223.447,389.897Z" style="fill:rgb(245,188,150);"/>
        </g>
        <g transform="matrix(4.16667,0,0,4.16667,0,0)">
            <path d="M181.251,349.441C188.681,363.439 193.856,379.818 202.707,393.37L208.327,390.976C201.084,378.46 190.714,361.027 183.117,348.761L181.251,349.441Z" style="fill:rgb(232,164,119);"/>
        </g>
        <g transform="matrix(4.16667,0,0,4.16667,0,0)">
            <path d="M169.607,323.729L182.486,341.185C183.293,342.316 180.81,344.33 179.974,343.074L167.56,325.603L167.916,324.105L169.607,323.729Z" style="fill:rgb(128,129,129);"/>
        </g>
        <g transform="matrix(4.16667,0,0,4.16667,0,0)">
            <path d="M169.443,324.233L181.738,341.268C181.539,341.277 180.718,341.799 180.584,342.062L168.619,324.775L169.443,324.233Z" style="fill:rgb(153,153,153);"/>
        </g>
        <g transform="matrix(4.16667,0,0,4.16667,0,0)">
            <path d="M224.374,400C224.421,395.975 224.354,391.992 224.238,388.226C221.544,387.222 211.168,389.833 201.844,392.637C201.248,395.005 200.713,397.48 200.253,400L224.374,400Z" style="fill:rgb(212,214,200);"/>
        </g>
        <g transform="matrix(4.16667,0,0,4.16667,0,0)">
            <path d="M207.115,400C207.111,397.224 207.371,394.434 208.121,391.447C211.5,390.431 214.729,389.418 217.599,388.587C213.167,389.408 207.324,390.989 201.844,392.637C201.248,395.005 200.713,397.48 200.253,400L207.115,400Z" style="fill:rgb(196,199,169);"/>
        </g>
        <g transform="matrix(4.16667,0,0,4.16667,0,0)">
            <path d="M113.706,344.582C107.712,355.573 85.405,381.525 84.002,390.234C87.215,391.255 98.821,400.884 104.091,394.799C110.75,385.986 116.118,361.871 125.419,351.02C118.126,343.52 126.388,344.582 113.706,344.582Z" style="fill:rgb(242,179,135);"/>
        </g>
        <g transform="matrix(4.16667,0,0,4.16667,0,0)">
            <path d="M81.849,400C82.282,396.124 82.917,392.168 83.72,388.226C90.655,388.92 100.181,393.394 104.247,395.351C104.412,396.838 104.518,398.397 104.574,400L81.849,400Z" style="fill:rgb(212,214,200);"/>
        </g>
        <g transform="matrix(4.16667,0,0,4.16667,0,0)">
            <path d="M81.849,400C82.282,396.124 82.917,392.168 83.72,388.226C85.939,388.448 88.424,389.059 90.91,389.85L90.835,389.919C89.817,393.135 88.993,396.516 88.368,400L81.849,400Z" style="fill:rgb(196,199,169);"/>
        </g>
        <g transform="matrix(4.16667,0,0,4.16667,0,0)">
            <path d="M138.354,324.702C138.339,324.981 138.651,325.2 138.912,325.171C139.866,325.055 142.043,323.168 142.283,323.019C141.85,322.875 141.543,322.533 140.987,322.597C140.431,322.659 139.602,323.012 139.142,323.38C138.682,323.749 138.377,324.316 138.354,324.702Z" style="fill:rgb(232,164,119);"/>
        </g>
        <g transform="matrix(4.16667,0,0,4.16667,0,0)">
            <path d="M142.789,328.878C142.782,329.199 143.096,329.426 143.351,329.372C144.286,329.17 146.369,326.855 146.599,326.665C146.169,326.539 145.857,326.167 145.312,326.283C144.767,326.397 143.963,326.858 143.522,327.314C143.081,327.769 142.798,328.439 142.789,328.878Z" style="fill:rgb(232,164,119);"/>
        </g>
        <g transform="matrix(4.16667,0,0,4.16667,0,0)">
            <path d="M141.841,323.185C140.962,323.121 140.148,323.221 139.435,323.702C137.994,324.683 136.33,326.805 134.77,328.482C136.285,327.729 138.438,325.39 139.586,324.726C141.301,323.735 141.841,323.181 141.841,323.185ZM112.344,346.834C116.587,340.028 115.349,339.178 118.346,332.524C119.253,330.509 120.634,328.615 122.255,326.164C123.448,324.36 125.047,321.969 126.383,320.713C127.453,319.703 128.766,319.328 129.776,320.554C130.711,319.617 131.763,317.627 132.937,317.567C133.789,317.524 135.229,318.155 135.879,319.268C136.785,318.378 137.347,317.976 137.897,317.893C138.761,317.757 140.812,318.916 141.708,319.404C143.452,320.355 142.845,321.68 142.336,323.23C143.231,323.028 144.769,322.908 145.695,323.5C146.439,323.975 147.183,325.041 146.52,326.605C144.731,327.39 143.604,327.725 141.826,329.193C143.271,328.758 143.91,328.426 145.629,330.14C144.43,331.505 143.331,333.122 142.321,334.85C140.242,338.414 140.157,340.367 138.404,342.088C132.062,348.319 126.216,345.409 122.75,353.992L112.344,346.834Z" style="fill:rgb(242,179,135);"/>
        </g>
        <g transform="matrix(4.16667,0,0,4.16667,0,0)">
            <path d="M114.565,342.845C116.238,339.301 116.058,337.604 118.345,332.524C119.253,330.509 120.634,328.615 122.255,326.164C123.372,324.473 127.291,317.541 129.776,320.554C129.491,320.822 128.002,319.321 126.362,321.403C124.821,323.356 121.285,328.698 119.448,332.777C116.454,339.431 119.303,340.028 115.058,346.834C115.499,347.14 95.634,379.001 90.818,389.819C88.682,389.142 86.549,388.604 84.587,388.331L84.533,388.325C87.73,379.605 102.926,361.055 110.65,349.519C112.045,347.433 113.5,345.104 114.565,342.845Z" style="fill:rgb(232,164,119);"/>
        </g>
        <g transform="matrix(4.16667,0,0,4.16667,0,0)">
            <path d="M141.988,329.061C139.42,330.465 138.796,332.481 137.258,336.314C136.899,337.212 137.103,338.301 137.764,336.836C138.695,334.776 140.025,331.223 141.937,330.023C142.752,329.512 143.928,329.439 144.863,330.083C144.711,330.196 143.377,331.611 141.412,334.823C139.3,338.274 137.686,340.228 135.991,341.739C132.323,345.011 126.386,344.885 122.73,352.627L123.514,353.567C128.167,345.748 132.063,348.322 138.404,342.091C140.156,340.367 140.242,338.414 142.321,334.85C143.331,333.122 144.43,331.502 145.629,330.14C143.91,328.426 143.271,328.758 141.826,329.193L141.988,329.061ZM142.575,322.514L142.336,323.23L142.467,323.204L142.43,323.221C141.655,323.6 141.061,324.114 139.947,324.46L141.853,323.141C140.872,323.294 140.218,323.168 139.64,323.513C138.536,324.174 137.875,325.51 136.965,326.48C136.284,327.21 134.745,328.778 134.146,328.689C134.057,328.675 135.595,327.127 136.542,325.987C137.708,324.583 138.837,322.858 139.695,322.431C140.115,322.221 140.474,322.526 140.93,322.514C141.265,322.503 141.7,322.121 142.046,322.254C142.22,322.32 142.397,322.407 142.575,322.514ZM135.513,318.773C135.505,318.856 135.481,318.939 135.442,319.032C134.538,321.052 132.865,322.955 131.704,324.307C131.065,325.048 130.365,325.712 130.427,325.878C130.53,326.144 131.436,325.36 132.371,324.37C133.857,322.799 135.681,320.444 136.455,319.006C136.455,319.006 136.579,318.773 136.737,318.491C136.485,318.693 136.205,318.949 135.879,319.268C135.775,319.092 135.652,318.926 135.513,318.773ZM127.549,319.936C128.319,319.634 129.113,319.75 129.776,320.554C130.198,320.132 130.642,319.497 131.112,318.919C130.27,320.281 130.045,321.281 129.052,322.553C128.845,322.818 127.161,324.825 127.074,324.861C126.452,325.11 127.379,323.918 128.072,322.972C128.612,322.234 129.095,321.521 129.114,321.304C129.169,320.66 128.591,320.185 128.201,320.035C128.022,319.969 127.801,319.936 127.549,319.936Z" style="fill:rgb(232,164,119);"/>
        </g>
        <g transform="matrix(4.16667,0,0,4.16667,0,0)">
            <path d="M145.3,329.824C145.405,329.921 145.515,330.026 145.629,330.14C144.43,331.505 143.331,333.122 142.321,334.85C140.242,338.414 140.156,340.367 138.404,342.091C132.063,348.319 128.294,345.748 123.642,353.567L122.73,352.627C126.386,344.885 132.323,345.011 135.991,341.739C137.686,340.228 139.3,338.274 141.412,334.823C143.377,331.611 144.711,330.196 144.863,330.083L144.836,330.066L145.3,329.824Z" style="fill:rgb(245,188,150);"/>
        </g>
        <g transform="matrix(4.16667,0,0,4.16667,0,0)">
            <path d="M103.785,395.128C110.435,386.657 116.766,361.918 125.546,350.851L123.808,350.807C114.506,361.659 106.933,384.801 100.274,393.613C101.508,394.164 102.565,394.546 103.785,395.128Z" style="fill:rgb(245,188,150);"/>
        </g>
        <g transform="matrix(4.16667,0,0,4.16667,0,0)">
            <path d="M93.568,325.044C102.094,325.044 109.006,331.957 109.006,340.48C109.006,349.007 102.094,355.916 93.568,355.916C85.043,355.916 78.131,349.007 78.131,340.48C78.131,331.957 85.043,325.044 93.568,325.044Z" style="fill:rgb(153,156,161);"/>
        </g>
        <g transform="matrix(4.16667,0,0,4.16667,0,0)">
            <path d="M94.67,326.061C103.196,326.061 110.108,332.973 110.108,341.5C110.108,350.023 103.196,356.936 94.67,356.936C86.146,356.936 79.233,350.023 79.233,341.5C79.233,332.973 86.146,326.061 94.67,326.061Z" style="fill:rgb(230,230,230);"/>
        </g>
        <g transform="matrix(4.16667,0,0,4.16667,0,0)">
            <path d="M94.67,326.061C94.94,326.061 95.21,326.067 95.476,326.081C87.326,326.503 80.845,333.242 80.845,341.5C80.845,349.754 87.326,356.497 95.476,356.915C95.21,356.929 94.94,356.936 94.67,356.936C86.146,356.936 79.233,350.023 79.233,341.5C79.233,332.973 86.146,326.061 94.67,326.061Z" style="fill:rgb(205,204,204);"/>
        </g>
        <g transform="matrix(4.16667,0,0,4.16667,0,0)">
            <path d="M94.69,326.061C103.208,326.074 110.108,332.98 110.108,341.5C110.108,350.023 103.196,356.936 94.67,356.936C94.12,356.936 93.575,356.905 93.04,356.849L93.06,356.849C101.585,356.849 108.497,349.94 108.497,341.413C108.497,333.439 102.449,326.878 94.69,326.061Z" style="fill:white;"/>
        </g>
        <g transform="matrix(4.16667,0,0,4.16667,0,0)">
            <path d="M93.907,332.508C98.708,332.508 102.602,336.401 102.602,341.201C102.602,346.004 98.708,349.897 93.907,349.897C89.106,349.897 85.213,346.004 85.213,341.201C85.213,336.401 89.106,332.508 93.907,332.508Z" style="fill:rgb(205,204,204);"/>
        </g>
        <g transform="matrix(4.16667,0,0,4.16667,0,0)">
            <path d="M94.67,332.804C99.472,332.804 103.365,336.696 103.365,341.5C103.365,346.3 99.472,350.192 94.67,350.192C89.869,350.192 85.976,346.3 85.976,341.5C85.976,336.696 89.869,332.804 94.67,332.804Z" style="fill:white;"/>
        </g>
        <g transform="matrix(4.16667,0,0,4.16667,0,0)">
            <path d="M94.67,333.571C99.049,333.571 102.6,337.118 102.6,341.5C102.6,345.878 99.049,349.429 94.67,349.429C90.292,349.429 86.742,345.878 86.742,341.5C86.742,337.118 90.292,333.571 94.67,333.571Z" style="fill:rgb(62,23,13);"/>
        </g>
        <g transform="matrix(4.16667,0,0,4.16667,0,0)">
            <path d="M97.737,334.415C100.474,335.601 102.388,338.327 102.388,341.5C102.388,345.762 98.933,349.216 94.67,349.216C91.762,349.216 89.231,347.608 87.915,345.23C88.855,345.639 89.892,345.864 90.981,345.864C95.244,345.864 98.699,342.41 98.699,338.148C98.699,336.793 98.349,335.521 97.737,334.415Z" style="fill:rgb(99,40,23);"/>
        </g>
        <g transform="matrix(4.16667,0,0,4.16667,0,0)">
            <path d="M103.531,340.271L105.228,340.271C105.46,340.271 105.651,340.46 105.651,340.692L105.651,341.882C105.651,342.114 105.46,342.304 105.228,342.304L103.531,342.304C103.297,342.304 103.107,342.114 103.107,341.882L103.107,340.692C103.107,340.46 103.297,340.271 103.531,340.271Z" style="fill:white;"/>
        </g>
        <g transform="matrix(4.16667,0,0,4.16667,0,0)">
            <path d="M198.359,287.341L211.935,287.32C212.406,287.32 212.792,287.815 212.792,288.423L212.815,312.598C212.815,313.206 212.43,313.701 211.958,313.704L198.383,313.725C197.912,313.725 197.525,313.23 197.525,312.621L197.503,288.446C197.502,287.839 197.888,287.341 198.359,287.341Z" style="fill:rgb(153,156,161);"/>
        </g>
        <g transform="matrix(4.16667,0,0,4.16667,0,0)">
            <path d="M199.068,287.991L212.643,287.968C213.114,287.968 213.499,288.463 213.503,289.071L213.522,313.246C213.525,313.854 213.138,314.352 212.666,314.352L199.092,314.372C198.621,314.372 198.234,313.877 198.234,313.27L198.212,289.094C198.21,288.486 198.597,287.991 199.068,287.991Z" style="fill:rgb(3,4,4);"/>
        </g>
        <g transform="matrix(4.16667,0,0,4.16667,0,0)">
            <path d="M198.867,287.759L212.443,287.735C212.915,287.735 213.3,288.233 213.3,288.839L213.323,313.014C213.323,313.621 212.938,314.119 212.466,314.119L198.892,314.14C198.42,314.14 198.033,313.645 198.033,313.036L198.011,288.861C198.01,288.254 198.396,287.759 198.867,287.759Z" style="fill:rgb(30,29,28);"/>
        </g>
        <g transform="matrix(4.16667,0,0,4.16667,0,0)">
            <path d="M201.891,287.872L212.39,287.839C212.858,287.835 213.24,288.33 213.24,288.932L213.264,312.92C213.264,313.524 212.882,314.017 212.413,314.017L198.943,314.04C198.833,314.04 198.729,314.013 198.632,313.963C198.721,314.003 198.818,314.026 198.919,314.026L212.347,314.007C212.812,314.007 213.193,313.515 213.193,312.914L213.171,289.001C213.171,288.403 212.788,287.912 212.32,287.912C211.998,287.912 204.484,288.171 201.891,287.872Z" style="fill:rgb(94,90,88);"/>
        </g>
        <g transform="matrix(4.16667,0,0,4.16667,0,0)">
            <path d="M199.086,289.612L212.228,289.593L212.247,312.266L199.106,312.286L199.086,289.612Z" style="fill:rgb(128,129,129);"/>
        </g>
        <g transform="matrix(4.16667,0,0,4.16667,0,0)">
            <path d="M205.162,288.174C205.421,288.164 205.637,288.423 205.646,288.755C205.653,289.088 205.451,289.366 205.195,289.377C204.937,289.387 204.721,289.127 204.71,288.795C204.703,288.463 204.906,288.184 205.162,288.174Z" style="fill:rgb(56,54,52);"/>
        </g>
        <g transform="matrix(4.16667,0,0,4.16667,0,0)">
            <path d="M205.169,288.36C205.345,288.354 205.494,288.533 205.501,288.762C205.508,288.991 205.368,289.184 205.188,289.19C205.013,289.197 204.863,289.018 204.856,288.789C204.85,288.56 204.989,288.37 205.169,288.36Z" style="fill:rgb(3,4,4);"/>
        </g>
        <g transform="matrix(4.16667,0,0,4.16667,0,0)">
            <rect x="199.74" y="290.406" width="11.737" height="11.828" style="fill:rgb(230,230,230);"/>
        </g>
        <g transform="matrix(4.16667,0,0,4.16667,0,0)">
            <rect x="199.78" y="306.178" width="2.519" height="2.52" style="fill:rgb(51,51,51);"/>
        </g>
        <g transform="matrix(4.16667,0,0,4.16667,0,0)">
            <rect x="202.804" y="306.178" width="2.517" height="2.52" style="fill:rgb(51,51,51);"/>
        </g>
        <g transform="matrix(4.16667,0,0,4.16667,0,0)">
            <rect x="205.826" y="306.178" width="2.518" height="2.52" style="fill:rgb(51,51,51);"/>
        </g>
        <g transform="matrix(4.16667,0,0,4.16667,0,0)">
            <rect x="208.849" y="306.178" width="2.518" height="2.52" style="fill:rgb(51,51,51);"/>
        </g>
        <g transform="matrix(4.16667,0,0,4.16667,0,0)">
            <rect x="199.78" y="309.243" width="2.519" height="2.522" style="fill:rgb(51,51,51);"/>
        </g>
        <g transform="matrix(4.16667,0,0,4.16667,0,0)">
            <rect x="202.804" y="309.243" width="2.517" height="2.522" style="fill:rgb(51,51,51);"/>
        </g>
        <g transform="matrix(4.16667,0,0,4.16667,0,0)">
            <rect x="205.826" y="309.243" width="2.518" height="2.522" style="fill:rgb(51,51,51);"/>
        </g>
        <g transform="matrix(4.16667,0,0,4.16667,0,0)">
            <rect x="208.849" y="309.243" width="2.518" height="2.522" style="fill:rgb(51,51,51);"/>
        </g>
        <g transform="matrix(4.16667,0,0,4.16667,0,0)">
            <path d="M204.375,297.515C204.032,300.454 200.041,299.797 199.807,302.234L211.406,302.234C211.174,299.79 207.162,300.458 206.84,297.491C207.653,296.923 208.205,295.817 208.205,294.548C208.205,292.698 207.032,291.2 205.591,291.2C204.146,291.2 202.973,292.698 202.973,294.548C202.973,295.837 203.541,296.953 204.375,297.515Z" style="fill:rgb(45,91,159);"/>
        </g>
        <g transform="matrix(4.16667,0,0,4.16667,0,0)">
            <rect x="199.78" y="303.154" width="2.519" height="2.519" style="fill:rgb(51,51,51);"/>
        </g>
        <g transform="matrix(4.16667,0,0,4.16667,0,0)">
            <rect x="202.804" y="303.154" width="2.517" height="2.519" style="fill:rgb(51,51,51);"/>
        </g>
        <g transform="matrix(4.16667,0,0,4.16667,0,0)">
            <rect x="205.826" y="303.154" width="2.518" height="2.519" style="fill:rgb(51,51,51);"/>
        </g>
        <g transform="matrix(4.16667,0,0,4.16667,0,0)">
            <rect x="208.849" y="303.154" width="2.518" height="2.519" style="fill:rgb(51,51,51);"/>
        </g>
        <g transform="matrix(4.16667,0,0,4.16667,0,0)">
            <path d="M199.881,312.837L202.209,312.837C202.429,312.837 202.607,313.017 202.607,313.236C202.607,313.455 202.429,313.635 202.209,313.635L199.881,313.635C199.662,313.635 199.483,313.455 199.483,313.236C199.483,313.017 199.662,312.837 199.881,312.837Z" style="fill:rgb(25,167,74);"/>
        </g>
        <g transform="matrix(4.16667,0,0,4.16667,0,0)">
            <path d="M208.938,312.837L211.268,312.837C211.486,312.837 211.666,313.017 211.666,313.236C211.666,313.455 211.486,313.635 211.268,313.635L208.938,313.635C208.72,313.635 208.54,313.455 208.54,313.236C208.54,313.017 208.72,312.837 208.938,312.837Z" style="fill:rgb(220,36,39);"/>
        </g>
    </g>
</svg>
