<?xml version="1.0" encoding="UTF-8" standalone="no"?>
<!DOCTYPE svg PUBLIC "-//W3C//DTD SVG 1.1//EN" "http://www.w3.org/Graphics/SVG/1.1/DTD/svg11.dtd">
<svg width="100%" height="100%" viewBox="0 0 2812 1972" version="1.1" style="fill-rule:evenodd;clip-rule:evenodd;stroke-linejoin:round;stroke-miterlimit:1.41421;">
    <g transform="matrix(1,0,0,1,-297.021,-1025.02)">
        <g transform="matrix(4.16667,0,0,4.16667,0,0)">
            <path d="M154.958,407.708L528.91,407.708C536.554,407.708 542.808,413.96 542.808,421.605L542.808,657.851C542.808,665.495 536.554,671.747 528.91,671.747L154.958,671.747C147.314,671.747 141.062,665.495 141.062,657.851L141.062,421.605C141.062,413.96 147.314,407.708 154.958,407.708Z" style="fill:rgb(33,48,78);"/>
        </g>
        <g transform="matrix(4.16667,0,0,4.16667,0,0)">
            <path d="M141.062,671.747L542.808,671.747L612.584,701.433L71.285,701.433L141.062,671.747Z" style="fill:rgb(220,219,219);"/>
        </g>
        <g transform="matrix(4.16667,0,0,4.16667,0,0)">
            <path d="M71.285,701.433L612.584,701.433L612.584,709.226C612.584,714.747 608.063,719.269 602.539,719.269L81.329,719.269C75.805,719.269 71.285,714.75 71.285,709.226L71.285,701.433Z" style="fill:rgb(199,199,199);"/>
        </g>
        <g transform="matrix(4.16667,0,0,4.16667,0,0)">
            <rect x="287.264" y="706.922" width="109.339" height="6.971" style="fill:rgb(165,165,165);"/>
        </g>
        <g transform="matrix(4.16667,0,0,4.16667,0,0)">
            <path d="M731.949,256.582L687.327,302.866L740.134,342.406L740.614,347.456L682.142,308.249L667.049,323.902L649.268,311.383L599.262,360.936L598.779,355.887L643.154,307.078L590.596,270.063L590.113,265.015L665.607,308.756L731.467,251.535L731.949,256.582ZM584.58,260.449L594.689,366.464L746.145,352.019L736.031,246.006L584.58,260.449Z" style="fill:rgb(28,117,188);fill-rule:nonzero;"/>
        </g>
        <g transform="matrix(4.16667,0,0,4.16667,0,0)">
            <path d="M731.949,256.582L687.327,302.866L740.134,342.406L740.614,347.456L682.142,308.249L667.049,323.902L649.268,311.383L599.262,360.936L598.779,355.887L643.154,307.078L590.596,270.063L590.113,265.015L665.607,308.756L731.467,251.535L731.949,256.582Z" style="fill:white;fill-rule:nonzero;"/>
        </g>
        <g transform="matrix(4.16667,0,0,4.16667,0,0)">
            <path d="M507.194,403.206L500.919,434.851L533.938,437.214L535.511,439.214L500.189,438.53L498.066,449.234L487.163,448.773L479.497,483.261L477.925,481.26L483.415,448.615L451.183,447.252L449.609,445.251L493.347,443.232L505.621,401.205L507.194,403.206ZM446.035,444.824L479.07,486.834L539.085,439.641L506.049,397.631L446.035,444.824Z" style="fill:rgb(28,117,188);fill-rule:nonzero;"/>
        </g>
        <g transform="matrix(4.16667,0,0,4.16667,0,0)">
            <path d="M507.194,403.206L500.919,434.851L533.938,437.214L535.511,439.214L500.189,438.53L498.066,449.234L487.163,448.773L479.497,483.261L477.925,481.26L483.415,448.615L451.183,447.252L449.609,445.251L493.347,443.232L505.621,401.205L507.194,403.206Z" style="fill:white;fill-rule:nonzero;"/>
        </g>
        <g transform="matrix(4.16667,0,0,4.16667,0,0)">
            <path d="M371.896,536.379L351.298,554.034L371.896,572.76L371.896,574.9L348.902,556.088L341.935,562.06L334.967,556.088L311.975,574.9L311.975,572.76L332.571,554.034L311.975,536.379L311.975,534.238L341.935,555.639L371.896,534.238L371.896,536.379ZM309.834,532.099L309.834,577.04L374.036,577.04L374.036,532.099L309.834,532.099Z" style="fill:rgb(22,166,177);fill-rule:nonzero;"/>
        </g>
        <g transform="matrix(4.16667,0,0,4.16667,0,0)">
            <path d="M371.896,536.379L351.298,554.034L371.896,572.76L371.896,574.9L348.902,556.088L341.935,562.06L334.967,556.088L311.975,574.9L311.975,572.76L332.571,554.034L311.975,536.379L311.975,534.238L341.935,555.639L371.896,534.238L371.896,536.379Z" style="fill:white;fill-rule:nonzero;"/>
        </g>
        <g transform="matrix(4.16667,0,0,4.16667,0,0)">
            <path d="M674.633,392.281L607.645,384.52L608.268,453.713L604.363,457.327L599.856,383.617L577.197,380.992L576.325,358.198L503.184,348.019L507.087,344.406L576.026,350.36L573.453,282.974L577.357,279.36L588.91,370.151L678.537,388.667L674.633,392.281ZM577.646,271.843L495.666,347.729L604.074,464.845L686.055,388.959L577.646,271.843Z" style="fill:rgb(22,166,177);fill-rule:nonzero;"/>
        </g>
        <g transform="matrix(4.16667,0,0,4.16667,0,0)">
            <path d="M674.633,392.281L607.645,384.52L608.268,453.713L604.363,457.327L599.856,383.617L577.197,380.992L576.325,358.198L503.184,348.019L507.087,344.406L576.026,350.36L573.453,282.974L577.357,279.36L588.91,370.151L678.537,388.667L674.633,392.281Z" style="fill:white;fill-rule:nonzero;"/>
        </g>
        <g transform="matrix(4.16667,0,0,4.16667,0,0)">
            <path d="M721.75,448.719L680.946,444.885L682.235,486.918L679.91,489.166L676.201,444.439L662.399,443.142L661.57,429.304L616.996,424.083L619.321,421.836L661.285,424.546L658.836,383.637L661.159,381.39L669.374,436.4L724.074,446.473L721.75,448.719ZM661.235,376.818L612.424,424.004L679.834,493.735L728.645,446.549L661.235,376.818Z" style="fill:rgb(28,117,188);fill-rule:nonzero;"/>
        </g>
        <g transform="matrix(4.16667,0,0,4.16667,0,0)">
            <path d="M721.75,448.719L680.946,444.885L682.235,486.918L679.91,489.166L676.201,444.439L662.399,443.142L661.57,429.304L616.996,424.083L619.321,421.836L661.285,424.546L658.836,383.637L661.159,381.39L669.374,436.4L724.074,446.473L721.75,448.719Z" style="fill:white;fill-rule:nonzero;"/>
        </g>
        <g transform="matrix(4.16667,0,0,4.16667,0,0)">
            <path d="M323.569,555.38L295.535,570.036L314.025,596.716L313.464,599.147L292.275,571.741L282.792,576.698L276.442,568.086L245.384,583.429L245.946,580.997L274.259,565.124L255.489,539.661L256.049,537.23L284.477,569.403L324.13,552.949L323.569,555.38ZM254.179,534.238L242.39,585.298L315.334,602.139L327.123,551.079L254.179,534.238Z" style="fill:rgb(28,117,188);fill-rule:nonzero;"/>
        </g>
        <g transform="matrix(4.16667,0,0,4.16667,0,0)">
            <path d="M323.569,555.38L295.535,570.036L314.025,596.716L313.464,599.147L292.275,571.741L282.792,576.698L276.442,568.086L245.384,583.429L245.946,580.997L274.259,565.124L255.489,539.661L256.049,537.23L284.477,569.403L324.13,552.949L323.569,555.38Z" style="fill:white;fill-rule:nonzero;"/>
        </g>
        <g transform="matrix(4.16667,0,0,4.16667,0,0)">
            <path d="M490.081,502.806L459.888,512.248L473.346,541.788L472.36,544.081L456.377,513.347L446.165,516.54L441.446,506.936L408.156,516.518L409.141,514.225L439.823,503.634L425.876,475.242L426.859,472.949L449.12,509.661L491.064,500.513L490.081,502.806ZM425.55,469.672L404.877,517.825L473.67,547.357L494.341,499.204L425.55,469.672Z" style="fill:rgb(28,117,188);fill-rule:nonzero;"/>
        </g>
        <g transform="matrix(4.16667,0,0,4.16667,0,0)">
            <path d="M490.081,502.806L459.888,512.248L473.346,541.788L472.36,544.081L456.377,513.347L446.165,516.54L441.446,506.936L408.156,516.518L409.141,514.225L439.823,503.634L425.876,475.242L426.859,472.949L449.12,509.661L491.064,500.513L490.081,502.806Z" style="fill:white;fill-rule:nonzero;"/>
        </g>
        <g transform="matrix(4.16667,0,0,4.16667,0,0)">
            <path d="M620.953,505.464L586.895,522.333L608.405,554.862L607.667,557.767L582.935,524.294L571.416,530L564.015,519.488L526.307,537.102L527.044,534.196L561.47,515.875L539.592,484.798L540.33,481.892L573.63,521.284L621.69,502.559L620.953,505.464ZM538.162,478.248L522.662,539.27L609.835,561.412L625.335,500.391L538.162,478.248Z" style="fill:rgb(22,166,177);fill-rule:nonzero;"/>
        </g>
        <g transform="matrix(4.16667,0,0,4.16667,0,0)">
            <path d="M620.953,505.464L586.895,522.333L608.405,554.862L607.667,557.767L582.935,524.294L571.416,530L564.015,519.488L526.307,537.102L527.044,534.196L561.47,515.875L539.592,484.798L540.33,481.892L573.63,521.284L621.69,502.559L620.953,505.464Z" style="fill:white;fill-rule:nonzero;"/>
        </g>
        <g transform="matrix(4.16667,0,0,4.16667,0,0)">
            <path d="M390.767,466.351L381.211,498.817L415.481,504.414L416.935,506.651L380.1,502.591L376.868,513.571L365.522,512.057L354.247,547.357L352.793,545.118L361.621,511.536L328.079,507.058L326.625,504.818L372.507,506.854L389.312,464.113L390.767,466.351ZM322.932,504.034L353.461,551.05L420.627,507.438L390.098,460.421L322.932,504.034Z" style="fill:rgb(22,166,177);fill-rule:nonzero;"/>
        </g>
        <g transform="matrix(4.16667,0,0,4.16667,0,0)">
            <path d="M390.767,466.351L381.211,498.817L415.481,504.414L416.935,506.651L380.1,502.591L376.868,513.571L365.522,512.057L354.247,547.357L352.793,545.118L361.621,511.536L328.079,507.058L326.625,504.818L372.507,506.854L389.312,464.113L390.767,466.351Z" style="fill:white;fill-rule:nonzero;"/>
        </g>
        <g transform="matrix(4.16667,0,0,4.16667,0,0)">
            <path d="M735.253,407.534L724.379,394.732L712.729,407.434L711.405,407.428L723.115,393.244L719.436,388.915L723.153,384.618L711.569,370.331L712.894,370.337L724.431,383.141L735.418,370.436L736.742,370.442L723.412,388.933L736.578,407.539L735.253,407.534ZM738.073,369.123L710.251,369L710.074,408.747L737.897,408.87L738.073,369.123Z" style="fill:rgb(22,166,177);fill-rule:nonzero;"/>
        </g>
        <g transform="matrix(4.16667,0,0,4.16667,0,0)">
            <path d="M735.253,407.534L724.379,394.732L712.729,407.434L711.405,407.428L723.115,393.244L719.436,388.915L723.153,384.618L711.569,370.331L712.894,370.337L724.431,383.141L735.418,370.436L736.742,370.442L723.412,388.933L736.578,407.539L735.253,407.534Z" style="fill:white;fill-rule:nonzero;"/>
        </g>
        <g transform="matrix(4.16667,0,0,4.16667,0,0)">
            <path d="M161.905,641.403L161.905,435.276L458.177,435.276L446.035,444.824L464.427,468.213L446.311,478.585L425.55,469.672L413.83,496.97L390.098,460.421L322.932,504.034L341.156,532.099L309.834,532.099L309.834,547.088L254.179,534.238L242.39,585.298L254.874,588.18L161.905,641.403Z" style="fill:white;fill-opacity:0.956863;fill-rule:nonzero;"/>
        </g>
        <g transform="matrix(4.16667,0,0,4.16667,0,0)">
            <path d="M612.584,701.433L71.285,701.433L141.062,671.747L542.808,671.747L612.584,701.433Z" style="fill:rgb(220,219,219);fill-rule:nonzero;"/>
        </g>
        <g transform="matrix(4.16667,0,0,4.16667,0,0)">
            <path d="M602.539,719.269L81.329,719.269C75.805,719.269 71.285,714.75 71.285,709.226L71.285,701.433L612.584,701.433L612.584,709.226C612.584,714.747 608.063,719.269 602.539,719.269ZM287.264,706.922L287.264,713.893L396.603,713.893L396.603,706.922L287.264,706.922Z" style="fill:rgb(199,199,199);fill-rule:nonzero;"/>
        </g>
        <g transform="matrix(4.16667,0,0,4.16667,0,0)">
            <rect x="287.264" y="706.922" width="109.339" height="6.971" style="fill:rgb(169,168,168);fill-rule:nonzero;"/>
        </g>
        <g transform="matrix(4.16667,0,0,4.16667,0,0)">
            <path d="M521.96,641.403L161.905,641.403L254.874,588.18L315.334,602.139L321.129,577.04L374.036,577.04L374.036,537.69L404.973,517.602L404.877,517.825L473.67,547.357L494.341,499.204L446.311,478.585L464.427,468.213L479.07,486.834L521.96,453.107L521.96,641.403Z" style="fill:white;fill-rule:nonzero;"/>
        </g>
        <g transform="matrix(4.16667,0,0,4.16667,0,0)">
            <path d="M659.51,360.282L631.002,329.484L649.268,311.383L667.049,323.902L682.142,308.249L740.614,347.456L740.134,342.406L687.327,302.866L706.308,283.178L712.107,287.17L736.568,251.634L746.145,352.019L659.51,360.282ZM626.856,325.005L607.99,304.624L607.99,282.313L643.154,307.078L626.856,325.005ZM665.607,308.756L607.99,275.373L607.99,258.217L662.494,253.019L700.024,278.853L665.607,308.756Z" style="fill:rgb(28,117,188);fill-rule:nonzero;"/>
        </g>
        <g transform="matrix(4.16667,0,0,4.16667,0,0)">
            <path d="M740.614,347.456L682.142,308.249L667.049,323.902L649.268,311.383L631.002,329.484L626.856,325.005L643.154,307.078L607.99,282.313L607.99,275.373L665.607,308.756L700.024,278.853L706.308,283.178L687.327,302.866L740.134,342.406L740.614,347.456Z" style="fill:white;fill-rule:nonzero;"/>
        </g>
        <g transform="matrix(4.16667,0,0,4.16667,0,0)">
            <path d="M479.07,486.834L464.427,468.213L446.035,444.824L458.177,435.276L493.235,407.708L506.049,397.631L513.973,407.708L539.085,439.641L521.96,453.107L479.07,486.834ZM477.925,481.26L479.497,483.261L487.163,448.773L498.066,449.234L500.189,438.53L535.511,439.214L533.938,437.214L500.919,434.851L507.194,403.206L505.621,401.205L493.347,443.232L449.609,445.251L451.183,447.252L483.415,448.615L477.925,481.26Z" style="fill:rgb(28,117,188);fill-rule:nonzero;"/>
        </g>
        <g transform="matrix(4.16667,0,0,4.16667,0,0)">
            <path d="M479.497,483.261L477.925,481.26L483.415,448.615L451.183,447.252L449.609,445.251L493.347,443.232L505.621,401.205L507.194,403.206L500.919,434.851L533.938,437.214L535.511,439.214L500.189,438.53L498.066,449.234L487.163,448.773L479.497,483.261Z" style="fill:white;fill-rule:nonzero;"/>
        </g>
        <g transform="matrix(4.16667,0,0,4.16667,0,0)">
            <path d="M374.036,577.04L321.129,577.04L323.87,565.168L334.967,556.088L341.935,562.06L348.902,556.088L371.896,574.9L371.896,572.76L351.298,554.034L358.899,547.519L374.036,537.69L374.036,577.04ZM324.811,561.089L327.123,551.079L309.834,547.088L309.834,532.099L341.156,532.099L351.845,548.561L341.935,555.639L311.975,534.238L311.975,536.379L332.571,554.034L324.811,561.089Z" style="fill:rgb(22,166,177);fill-rule:nonzero;"/>
        </g>
        <g transform="matrix(4.16667,0,0,4.16667,0,0)">
            <path d="M371.896,574.9L348.902,556.088L341.935,562.06L334.967,556.088L323.87,565.168L324.811,561.089L332.571,554.034L311.975,536.379L311.975,534.238L341.935,555.639L351.845,548.561L353.461,551.05L358.899,547.519L351.298,554.034L371.896,572.76L371.896,574.9Z" style="fill:white;fill-rule:nonzero;"/>
        </g>
        <g transform="matrix(4.16667,0,0,4.16667,0,0)">
            <path d="M604.074,464.845L495.666,347.729L536.535,309.898L574.481,309.898L576.026,350.36L507.087,344.406L503.184,348.019L576.325,358.198L577.197,380.992L599.856,383.617L604.363,457.327L608.268,453.713L607.645,384.52L648.385,389.24L612.424,424.004L629.317,441.479L604.074,464.845ZM679.151,395.35L675.451,391.523L678.537,388.667L671.231,387.158L661.235,376.818L654.183,383.636L588.91,370.151L581.243,309.898L607.99,309.898L607.99,304.624L626.856,325.005L631.002,329.484L659.51,360.282L686.055,388.959L679.151,395.35Z" style="fill:rgb(22,166,177);fill-rule:nonzero;"/>
        </g>
        <g transform="matrix(4.16667,0,0,4.16667,0,0)">
            <path d="M604.363,457.327L599.856,383.617L577.197,380.992L576.325,358.198L503.184,348.019L507.087,344.406L576.026,350.36L574.481,309.898L581.243,309.898L588.91,370.151L654.183,383.636L648.385,389.24L607.645,384.52L608.268,453.713L604.363,457.327ZM675.451,391.523L671.231,387.158L678.537,388.667L675.451,391.523Z" style="fill:white;fill-rule:nonzero;"/>
        </g>
        <g transform="matrix(4.16667,0,0,4.16667,0,0)">
            <path d="M679.834,493.735L629.317,441.479L612.424,424.004L648.385,389.24L654.183,383.636L661.235,376.818L671.231,387.158L675.451,391.523L679.151,395.35L728.645,446.549L679.834,493.735ZM616.996,424.083L661.57,429.304L662.399,443.142L676.201,444.439L679.91,489.166L682.235,486.918L680.946,444.885L721.75,448.719L724.074,446.473L669.374,436.4L661.159,381.39L658.836,383.637L661.285,424.546L619.321,421.836L616.996,424.083Z" style="fill:rgb(28,117,188);fill-rule:nonzero;"/>
        </g>
        <g transform="matrix(4.16667,0,0,4.16667,0,0)">
            <path d="M679.91,489.166L676.201,444.439L662.399,443.142L661.57,429.304L616.996,424.083L619.321,421.836L661.285,424.546L658.836,383.637L661.159,381.39L669.374,436.4L724.074,446.473L721.75,448.719L680.946,444.885L682.235,486.918L679.91,489.166Z" style="fill:white;fill-rule:nonzero;"/>
        </g>
        <g transform="matrix(4.16667,0,0,4.16667,0,0)">
            <path d="M315.334,602.139L254.874,588.18L242.39,585.298L254.179,534.238L309.834,547.088L327.123,551.079L324.811,561.089L323.87,565.168L321.129,577.04L315.334,602.139ZM292.275,571.741L313.464,599.147L314.025,596.716L295.535,570.036L323.569,555.38L324.13,552.949L284.477,569.403L256.049,537.23L255.489,539.661L274.259,565.124L245.946,580.997L245.384,583.429L276.442,568.086L282.792,576.698L292.275,571.741Z" style="fill:rgb(28,117,188);fill-rule:nonzero;"/>
        </g>
        <g transform="matrix(4.16667,0,0,4.16667,0,0)">
            <path d="M313.464,599.147L292.275,571.741L282.792,576.698L276.442,568.086L245.384,583.429L245.946,580.997L274.259,565.124L255.489,539.661L256.049,537.23L284.477,569.403L324.13,552.949L323.569,555.38L295.535,570.036L314.025,596.716L313.464,599.147Z" style="fill:white;fill-rule:nonzero;"/>
        </g>
        <g transform="matrix(4.16667,0,0,4.16667,0,0)">
            <path d="M473.67,547.357L404.877,517.825L404.973,517.602L408.741,515.156L408.156,516.518L441.446,506.936L446.165,516.54L456.377,513.347L472.36,544.081L473.346,541.788L459.888,512.248L490.081,502.806L491.064,500.513L449.12,509.661L426.859,472.949L425.876,475.242L439.823,503.634L411.348,513.463L420.627,507.438L413.83,496.97L425.55,469.672L446.311,478.585L494.341,499.204L473.67,547.357Z" style="fill:rgb(28,117,188);fill-rule:nonzero;"/>
        </g>
        <g transform="matrix(4.16667,0,0,4.16667,0,0)">
            <path d="M472.36,544.081L456.377,513.347L446.165,516.54L441.446,506.936L408.156,516.518L408.741,515.156L411.348,513.463L439.823,503.634L425.876,475.242L426.859,472.949L449.12,509.661L491.064,500.513L490.081,502.806L459.888,512.248L473.346,541.788L472.36,544.081Z" style="fill:white;fill-rule:nonzero;"/>
        </g>
        <g transform="matrix(4.16667,0,0,4.16667,0,0)">
            <path d="M609.835,561.412L542.808,544.387L522.662,539.27L538.162,478.248L542.808,479.428L625.335,500.391L609.835,561.412ZM582.935,524.294L607.667,557.767L608.405,554.862L586.895,522.333L620.953,505.464L621.69,502.559L573.63,521.284L540.33,481.892L539.592,484.798L561.47,515.875L527.044,534.196L526.307,537.102L564.015,519.488L571.416,530L582.935,524.294Z" style="fill:rgb(22,166,177);fill-rule:nonzero;"/>
        </g>
        <g transform="matrix(4.16667,0,0,4.16667,0,0)">
            <path d="M607.667,557.767L582.935,524.294L571.416,530L564.015,519.488L526.307,537.102L527.044,534.196L561.47,515.875L539.592,484.798L540.33,481.892L573.63,521.284L621.69,502.559L620.953,505.464L586.895,522.333L608.405,554.862L607.667,557.767Z" style="fill:white;fill-rule:nonzero;"/>
        </g>
        <g transform="matrix(4.16667,0,0,4.16667,0,0)">
            <path d="M353.461,551.05L351.845,548.561L341.156,532.099L322.932,504.034L390.098,460.421L413.83,496.97L420.627,507.438L411.348,513.463L408.741,515.156L404.973,517.602L374.036,537.69L358.899,547.519L353.461,551.05ZM352.793,545.118L354.247,547.357L365.522,512.057L376.868,513.571L380.1,502.591L416.935,506.651L415.481,504.414L381.211,498.817L390.767,466.351L389.312,464.113L372.507,506.854L326.625,504.818L328.079,507.058L361.621,511.536L352.793,545.118Z" style="fill:rgb(22,166,177);fill-rule:nonzero;"/>
        </g>
        <g transform="matrix(4.16667,0,0,4.16667,0,0)">
            <path d="M354.247,547.357L352.793,545.118L361.621,511.536L328.079,507.058L326.625,504.818L372.507,506.854L389.312,464.113L390.767,466.351L381.211,498.817L415.481,504.414L416.935,506.651L380.1,502.591L376.868,513.571L365.522,512.057L354.247,547.357Z" style="fill:white;fill-rule:nonzero;"/>
        </g>
        <g transform="matrix(4.16667,0,0,4.16667,0,0)">
            <path d="M737.897,408.87L710.074,408.747L710.251,369L738.073,369.123L737.897,408.87ZM736.578,407.539L723.412,388.933L736.742,370.442L735.418,370.436L724.431,383.141L712.894,370.337L711.569,370.331L723.153,384.618L719.436,388.915L723.115,393.244L711.405,407.428L712.729,407.434L724.379,394.732L735.253,407.534L736.578,407.539Z" style="fill:rgb(22,166,177);fill-rule:nonzero;"/>
        </g>
        <g transform="matrix(4.16667,0,0,4.16667,0,0)">
            <path d="M736.578,407.539L735.253,407.534L724.379,394.732L712.729,407.434L711.405,407.428L723.115,393.244L719.436,388.915L723.153,384.618L711.569,370.331L712.894,370.337L724.431,383.141L735.418,370.436L736.742,370.442L723.412,388.933L736.578,407.539Z" style="fill:white;fill-rule:nonzero;"/>
        </g>
    </g>
</svg>
