<?xml version="1.0" standalone="no"?>
<svg xmlns="http://www.w3.org/2000/svg" version="1.2" baseProfile="tiny" width="256" height="256" viewBox="0 0 256 256">
<rect x="0" y="0" width="256" height="256" id="0" fill="rgb(239,238,237)" fill-opacity="1" />
<g transform="translate(90 40) rotate(62) scale(15 48)"><ellipse cx="0" cy="0" rx="1" ry="1" id="1" fill="rgb(66,144,217)" fill-opacity="0.501961" /></g>
<polygon points="235,221 237,245 211,248 209,224" id="2" fill="rgb(0,81,63)" fill-opacity="0.501961"/>
<rect x="184" y="42" width="18" height="28" id="3" fill="rgb(251,163,0)" fill-opacity="0.501961" />
<circle cx="159" cy="37" r="15" id="4" fill="rgb(37,128,73)" fill-opacity="0.501961" />
<rect x="76" y="89" width="107" height="18" id="5" fill="rgb(150,151,152)" fill-opacity="0.501961" />
<rect x="127" y="217" width="69" height="32" id="6" fill="rgb(203,172,145)" fill-opacity="0.501961" />
<g transform="translate(68 241) rotate(182) scale(4 25)"><ellipse cx="0" cy="0" rx="1" ry="1" id="7" fill="rgb(69,68,50)" fill-opacity="0.501961" /></g>
<g transform="translate(39 243) rotate(94) scale(23 6)"><ellipse cx="0" cy="0" rx="1" ry="1" id="8" fill="rgb(108,81,79)" fill-opacity="0.501961" /></g>
<ellipse cx="100" cy="231" rx="10" ry="19" id="9" fill="rgb(189,153,103)" fill-opacity="0.501961" />
<g transform="translate(34 65) rotate(264) scale(171 20)"><ellipse cx="0" cy="0" rx="1" ry="1" id="10" fill="rgb(255,255,255)" fill-opacity="0.501961" /></g>
<circle cx="238" cy="23" r="46" id="11" fill="rgb(255,255,255)" fill-opacity="0.501961" />
<ellipse cx="117" cy="181" rx="19" ry="6" id="12" fill="rgb(230,110,88)" fill-opacity="0.501961" />
<rect x="116" y="13" width="14" height="25" id="13" fill="rgb(1,167,41)" fill-opacity="0.501961" />
<ellipse cx="124" cy="64" rx="16" ry="13" id="14" fill="rgb(216,135,128)" fill-opacity="0.501961" />
<g transform="translate(94 35) rotate(344) scale(12 17)"><ellipse cx="0" cy="0" rx="1" ry="1" id="15" fill="rgb(46,117,255)" fill-opacity="0.501961" /></g>
<ellipse cx="67" cy="28" rx="15" ry="19" id="16" fill="rgb(255,255,255)" fill-opacity="0.501961" />
<polygon points="100,0 127,55 108,51" id="17" fill="rgb(255,255,255)" fill-opacity="0.501961" />
<ellipse cx="101" cy="255" rx="221" ry="7" id="18" fill="rgb(255,255,255)" fill-opacity="0.501961" />
<rect x="127" y="217" width="9" height="33" id="19" fill="rgb(209,146,22)" fill-opacity="0.501961" />
<rect x="135" y="194" width="15" height="61" id="20" fill="rgb(255,255,255)" fill-opacity="0.501961" />
<ellipse cx="240" cy="101" rx="57" ry="45" id="21" fill="rgb(255,255,255)" fill-opacity="0.501961" />
<ellipse cx="14" cy="60" rx="39" ry="91" id="22" fill="rgb(255,255,255)" fill-opacity="0.501961" />
<ellipse cx="217" cy="189" rx="60" ry="31" id="23" fill="rgb(255,255,255)" fill-opacity="0.501961" />
<g transform="translate(12 207) rotate(120) scale(59 28)"><ellipse cx="0" cy="0" rx="1" ry="1" id="24" fill="rgb(255,255,255)" fill-opacity="0.501961" /></g>
<rect x="101" y="205" width="26" height="50" id="25" fill="rgb(255,255,255)" fill-opacity="0.501961" />
<g transform="translate(163 25) rotate(52) scale(22 4)"><ellipse cx="0" cy="0" rx="1" ry="1" id="26" fill="rgb(255,238,95)" fill-opacity="0.501961" /></g>
<g transform="translate(119 134) rotate(187) scale(4 3)"><ellipse cx="0" cy="0" rx="1" ry="1" id="27" fill="rgb(0,8,152)" fill-opacity="0.501961" /></g>
<g transform="translate(88 83) rotate(2) scale(10 3)"><ellipse cx="0" cy="0" rx="1" ry="1" id="28" fill="rgb(53,54,55)" fill-opacity="0.501961" /></g>
<ellipse cx="96" cy="224" rx="4" ry="11" id="29" fill="rgb(42,27,22)" fill-opacity="0.501961" />
<ellipse cx="158" cy="6" rx="39" ry="15" id="30" fill="rgb(255,255,255)" fill-opacity="0.501961" />
<circle cx="86" cy="61" r="12" id="31" fill="rgb(255,255,255)" fill-opacity="0.501961" />
<g transform="translate(103 125) rotate(188) scale(7 38)"><ellipse cx="0" cy="0" rx="1" ry="1" id="32" fill="rgb(255,255,255)" fill-opacity="0.501961" /></g>
<polygon points="171,42 172,50 157,51 156,43" id="33" fill="rgb(8,92,255)" fill-opacity="0.501961"/>
<polygon points="77,146 76,140 80,139 82,144" id="34" fill="rgb(231,0,0)" fill-opacity="0.501961"/>
<circle cx="65" cy="56" r="11" id="35" fill="rgb(23,76,220)" fill-opacity="0.501961" />
<rect x="215" y="246" width="24" height="3" id="36" fill="rgb(26,127,1)" fill-opacity="0.501961" />
<rect x="163" y="195" width="16" height="60" id="37" fill="rgb(255,255,255)" fill-opacity="0.501961" />
<circle cx="32" cy="241" r="4" id="38" fill="rgb(18,14,102)" fill-opacity="0.501961" />
<circle cx="218" cy="131" r="4" id="39" fill="rgb(0,31,132)" fill-opacity="0.501961" />
<polygon points="151,185 155,177 165,181 162,189" id="40" fill="rgb(233,136,116)" fill-opacity="0.501961"/>
<polygon points="137,72 121,102 102,91 118,61" id="41" fill="rgb(231,243,245)" fill-opacity="0.501961"/>
<rect x="154" y="214" width="5" height="35" id="42" fill="rgb(104,88,120)" fill-opacity="0.501961" />
<polygon points="188,244 179,217 186,215 195,242" id="43" fill="rgb(133,97,71)" fill-opacity="0.501961"/>
<rect x="0" y="0" width="80" height="47" id="44" fill="rgb(255,255,255)" fill-opacity="0.501961" />
<g transform="translate(189 242) rotate(359) scale(17 8)"><ellipse cx="0" cy="0" rx="1" ry="1" id="45" fill="rgb(192,166,159)" fill-opacity="0.501961" /></g>
<ellipse cx="130" cy="158" rx="60" ry="20" id="46" fill="rgb(255,251,249)" fill-opacity="0.501961" />
<circle cx="13" cy="155" r="4" id="47" fill="rgb(0,0,125)" fill-opacity="0.501961" />
<ellipse cx="155" cy="119" rx="96" ry="14" id="48" fill="rgb(255,255,255)" fill-opacity="0.501961" />
<polygon points="75,0 109,31 122,0" id="49" fill="rgb(255,255,255)" fill-opacity="0.501961" />
<rect x="178" y="0" width="42" height="44" id="50" fill="rgb(255,255,255)" fill-opacity="0.501961" />
<rect x="159" y="83" width="2" height="13" id="51" fill="rgb(19,19,20)" fill-opacity="0.501961" />
<ellipse cx="84" cy="200" rx="12" ry="32" id="52" fill="rgb(255,255,255)" fill-opacity="0.501961" />
<g transform="translate(66 167) rotate(126) scale(3 7)"><ellipse cx="0" cy="0" rx="1" ry="1" id="53" fill="rgb(70,149,93)" fill-opacity="0.501961" /></g>
<rect x="111" y="79" width="13" height="16" id="54" fill="rgb(153,147,147)" fill-opacity="0.501961" />
<g transform="translate(151 12) rotate(207) scale(7 49)"><ellipse cx="0" cy="0" rx="1" ry="1" id="55" fill="rgb(255,255,255)" fill-opacity="0.501961" /></g>
<circle cx="42" cy="118" r="40" id="56" fill="rgb(255,255,255)" fill-opacity="0.501961" />
<ellipse cx="204" cy="218" rx="9" ry="21" id="57" fill="rgb(255,255,255)" fill-opacity="0.501961" />
<polygon points="139,69 135,70 134,51 138,50" id="58" fill="rgb(191,31,15)" fill-opacity="0.501961"/>
<rect x="227" y="233" width="7" height="10" id="59" fill="rgb(255,255,242)" fill-opacity="0.501961" />
<rect x="132" y="181" width="29" height="6" id="60" fill="rgb(228,130,109)" fill-opacity="0.501961" />
<ellipse cx="36" cy="135" rx="3" ry="5" id="61" fill="rgb(0,36,129)" fill-opacity="0.501961" />
<rect x="62" y="224" width="11" height="11" id="62" fill="rgb(47,76,40)" fill-opacity="0.501961" />
<rect x="184" y="47" width="18" height="22" id="63" fill="rgb(242,187,0)" fill-opacity="0.501961" />
<polygon points="108,59 110,52 140,58 139,64" id="64" fill="rgb(214,105,96)" fill-opacity="0.501961"/>
<rect x="159" y="21" width="10" height="20" id="65" fill="rgb(255,233,103)" fill-opacity="0.501961" />
<circle cx="236" cy="77" r="35" id="66" fill="rgb(255,255,255)" fill-opacity="0.501961" />
<circle cx="155" cy="66" r="17" id="67" fill="rgb(255,255,255)" fill-opacity="0.501961" />
<ellipse cx="89" cy="102" rx="10" ry="3" id="68" fill="rgb(69,69,69)" fill-opacity="0.501961" />
<circle cx="219" cy="234" r="7" id="69" fill="rgb(0,90,86)" fill-opacity="0.501961" />
<polygon points="135,100 138,82 145,83 142,101" id="70" fill="rgb(255,255,255)" fill-opacity="0.501961"/>
<rect x="139" y="187" width="12" height="52" id="71" fill="rgb(255,255,255)" fill-opacity="0.501961" />
<ellipse cx="35" cy="190" rx="68" ry="25" id="72" fill="rgb(255,255,255)" fill-opacity="0.501961" />
<polygon points="134,21 116,32 133,35" id="73" fill="rgb(66,177,122)" fill-opacity="0.501961" />
<polygon points="160,135 175,136 172,130" id="74" fill="rgb(56,107,177)" fill-opacity="0.501961" />
<rect x="75" y="49" width="6" height="33" id="75" fill="rgb(255,255,255)" fill-opacity="0.501961" />
<ellipse cx="53" cy="255" rx="20" ry="8" id="76" fill="rgb(255,255,255)" fill-opacity="0.501961" />
<rect x="106" y="7" width="9" height="42" id="77" fill="rgb(255,255,255)" fill-opacity="0.501961" />
<g transform="translate(235 28) rotate(200) scale(78 32)"><ellipse cx="0" cy="0" rx="1" ry="1" id="78" fill="rgb(255,255,255)" fill-opacity="0.501961" /></g>
<polygon points="80,52 106,51 111,109" id="79" fill="rgb(255,255,255)" fill-opacity="0.501961" />
<polygon points="44,242 40,243 39,221 43,220" id="80" fill="rgb(61,44,41)" fill-opacity="0.501961"/>
<ellipse cx="210" cy="241" rx="2" ry="49" id="81" fill="rgb(255,255,255)" fill-opacity="0.501961" />
<ellipse cx="217" cy="187" rx="60" ry="23" id="82" fill="rgb(255,255,255)" fill-opacity="0.501961" />
<polygon points="156,23 156,45 141,46" id="83" fill="rgb(0,148,78)" fill-opacity="0.501961" />
<rect x="82" y="18" width="8" height="33" id="84" fill="rgb(57,127,249)" fill-opacity="0.501961" />
<polygon points="83,256 64,170 114,118" id="85" fill="rgb(255,249,247)" fill-opacity="0.501961" />
<g transform="translate(250 246) rotate(350) scale(10 68)"><ellipse cx="0" cy="0" rx="1" ry="1" id="86" fill="rgb(255,255,255)" fill-opacity="0.501961" /></g>
<ellipse cx="36" cy="245" rx="7" ry="5" id="87" fill="rgb(146,116,125)" fill-opacity="0.501961" />
<circle cx="39" cy="97" r="36" id="88" fill="rgb(255,255,255)" fill-opacity="0.501961" />
<circle cx="161" cy="37" r="4" id="89" fill="rgb(255,255,255)" fill-opacity="0.501961" />
<ellipse cx="140" cy="22" rx="8" ry="25" id="90" fill="rgb(255,255,255)" fill-opacity="0.501961" />
<ellipse cx="169" cy="76" rx="75" ry="5" id="91" fill="rgb(255,255,255)" fill-opacity="0.501961" />
<circle cx="129" cy="226" r="4" id="92" fill="rgb(230,164,0)" fill-opacity="0.501961" />
<g transform="translate(218 155) rotate(83) scale(4 28)"><ellipse cx="0" cy="0" rx="1" ry="1" id="93" fill="rgb(196,185,218)" fill-opacity="0.501961" /></g>
<rect x="122" y="106" width="45" height="53" id="94" fill="rgb(255,253,253)" fill-opacity="0.501961" />
<circle cx="218" cy="174" r="24" id="95" fill="rgb(255,255,254)" fill-opacity="0.501961" />
<rect x="122" y="36" width="22" height="15" id="96" fill="rgb(255,255,255)" fill-opacity="0.501961" />
<polygon points="29,138 37,231 35,256" id="97" fill="rgb(255,247,241)" fill-opacity="0.501961" />
<polygon points="80,90 77,87 83,81 86,84" id="98" fill="rgb(48,48,49)" fill-opacity="0.501961"/>
</svg>