<?xml version="1.0" standalone="no"?>
<svg xmlns="http://www.w3.org/2000/svg" version="1.2" baseProfile="tiny" width="256" height="256" viewBox="0 0 256 256">
<rect x="0" y="0" width="256" height="256" id="0" fill="rgb(238,237,237)" fill-opacity="1" />
<g transform="translate(147 194) rotate(0) scale(82 4)"><ellipse cx="0" cy="0" rx="1" ry="1" id="1" fill="rgb(86,80,80)" fill-opacity="0.501961" /></g>
<ellipse cx="114" cy="65" rx="94" ry="5" id="2" fill="rgb(89,113,102)" fill-opacity="0.501961" />
<rect x="41" y="126" width="119" height="7" id="3" fill="rgb(60,59,60)" fill-opacity="0.501961" />
<polygon points="63,200 80,190 0,189" id="4" fill="rgb(234,137,126)" fill-opacity="0.501961" />
<g transform="translate(54 28) rotate(115) scale(43 56)"><ellipse cx="0" cy="0" rx="1" ry="1" id="5" fill="rgb(243,249,246)" fill-opacity="0.501961" /></g>
<rect x="219" y="179" width="36" height="76" id="6" fill="rgb(250,251,251)" fill-opacity="0.501961" />
<ellipse cx="215" cy="130" rx="50" ry="16" id="7" fill="rgb(255,255,255)" fill-opacity="0.501961" />
<ellipse cx="106" cy="227" rx="255" ry="30" id="8" fill="rgb(247,248,248)" fill-opacity="0.501961" />
<circle cx="80" cy="205" r="15" id="9" fill="rgb(248,240,240)" fill-opacity="0.501961" />
<rect x="24" y="195" width="14" height="3" id="10" fill="rgb(170,0,0)" fill-opacity="0.501961" />
<ellipse cx="220" cy="73" rx="17" ry="86" id="11" fill="rgb(252,253,253)" fill-opacity="0.501961" />
<ellipse cx="117" cy="181" rx="122" ry="7" id="12" fill="rgb(255,255,255)" fill-opacity="0.501961" />
<g transform="translate(14 136) rotate(252) scale(11 36)"><ellipse cx="0" cy="0" rx="1" ry="1" id="13" fill="rgb(233,234,234)" fill-opacity="0.501961" /></g>
<rect x="44" y="61" width="158" height="8" id="14" fill="rgb(138,148,144)" fill-opacity="0.501961" />
<ellipse cx="110" cy="58" rx="77" ry="4" id="15" fill="rgb(255,255,255)" fill-opacity="0.501961" />
<polygon points="136,131 145,109 56,38" id="16" fill="rgb(250,251,251)" fill-opacity="0.501961" />
<ellipse cx="13" cy="63" rx="13" ry="31" id="17" fill="rgb(250,250,250)" fill-opacity="0.501961" />
<polygon points="0,121 39,63 153,125" id="18" fill="rgb(249,250,249)" fill-opacity="0.501961" />
<ellipse cx="183" cy="44" rx="128" ry="17" id="19" fill="rgb(249,249,249)" fill-opacity="0.501961" />
<circle cx="3" cy="173" r="29" id="20" fill="rgb(246,249,250)" fill-opacity="0.501961" />
<rect x="0" y="134" width="255" height="46" id="21" fill="rgb(244,245,245)" fill-opacity="0.501961" />
<rect x="104" y="72" width="106" height="53" id="22" fill="rgb(247,247,247)" fill-opacity="0.501961" />
<ellipse cx="178" cy="20" rx="255" ry="31" id="23" fill="rgb(243,242,243)" fill-opacity="0.501961" />
<circle cx="31" cy="192" r="5" id="24" fill="rgb(189,39,28)" fill-opacity="0.501961" />
<polygon points="72,171 89,214 77,119" id="25" fill="rgb(243,244,244)" fill-opacity="0.501961" />
<rect x="88" y="69" width="167" height="46" id="26" fill="rgb(239,240,240)" fill-opacity="0.501961" />
<g transform="translate(133 67) rotate(1) scale(5 6)"><ellipse cx="0" cy="0" rx="1" ry="1" id="27" fill="rgb(97,89,96)" fill-opacity="0.501961" /></g>
<g transform="translate(31 126) rotate(94) scale(9 7)"><ellipse cx="0" cy="0" rx="1" ry="1" id="28" fill="rgb(166,166,167)" fill-opacity="0.501961" /></g>
<rect x="187" y="168" width="4" height="32" id="29" fill="rgb(255,255,255)" fill-opacity="0.501961" />
<polygon points="48,224 29,221 41,179" id="30" fill="rgb(250,254,254)" fill-opacity="0.501961" />
<rect x="54" y="190" width="25" height="8" id="31" fill="rgb(226,134,123)" fill-opacity="0.501961" />
<rect x="206" y="52" width="30" height="24" id="32" fill="rgb(255,255,255)" fill-opacity="0.501961" />
<polygon points="139,191 141,188 145,191 143,194" id="33" fill="rgb(255,255,255)" fill-opacity="0.501961"/>
<rect x="200" y="190" width="16" height="3" id="34" fill="rgb(70,72,70)" fill-opacity="0.501961" />
<rect x="30" y="116" width="97" height="6" id="35" fill="rgb(255,255,255)" fill-opacity="0.501961" />
<rect x="98" y="127" width="67" height="7" id="36" fill="rgb(139,138,139)" fill-opacity="0.501961" />
<polygon points="72,183 97,234 88,170" id="37" fill="rgb(240,243,243)" fill-opacity="0.501961" />
<circle cx="142" cy="129" r="2" id="38" fill="rgb(255,255,255)" fill-opacity="0.501961" />
<polygon points="229,202 219,194 225,186 236,193" id="39" fill="rgb(255,255,255)" fill-opacity="0.501961"/>
<rect x="25" y="59" width="7" height="10" id="40" fill="rgb(0,123,50)" fill-opacity="0.501961" />
<ellipse cx="30" cy="65" rx="5" ry="4" id="41" fill="rgb(0,110,40)" fill-opacity="0.501961" />
<polygon points="112,161 140,122 105,194" id="42" fill="rgb(248,248,248)" fill-opacity="0.501961" />
<rect x="166" y="117" width="69" height="23" id="43" fill="rgb(255,255,255)" fill-opacity="0.501961" />
<ellipse cx="104" cy="96" rx="155" ry="2" id="44" fill="rgb(217,217,217)" fill-opacity="0.501961" />
<polygon points="17,76 32,51 18,54" id="45" fill="rgb(255,255,255)" fill-opacity="0.501961" />
<ellipse cx="184" cy="62" rx="18" ry="1" id="46" fill="rgb(52,44,49)" fill-opacity="0.501961" />
<polygon points="214,256 204,246 211,187" id="47" fill="rgb(245,245,245)" fill-opacity="0.501961" />
<polygon points="14,49 37,0 25,68" id="48" fill="rgb(248,246,247)" fill-opacity="0.501961" />
<rect x="146" y="188" width="1" height="10" id="49" fill="rgb(0,0,9)" fill-opacity="0.501961" />
<g transform="translate(111 197) rotate(56) scale(1 4)"><ellipse cx="0" cy="0" rx="1" ry="1" id="50" fill="rgb(32,30,28)" fill-opacity="0.501961" /></g>
<circle cx="167" cy="188" r="1" id="51" fill="rgb(0,0,0)" fill-opacity="0.501961" />
<polygon points="183,65 178,70 158,50 163,45" id="52" fill="rgb(250,247,248)" fill-opacity="0.501961"/>
</svg>