<?xml version="1.0" encoding="UTF-8" standalone="no"?>
<!DOCTYPE svg PUBLIC "-//W3C//DTD SVG 1.1//EN" "http://www.w3.org/Graphics/SVG/1.1/DTD/svg11.dtd">
<svg width="100%" height="100%" viewBox="0 0 3360 2438" version="1.1" style="fill-rule:evenodd;clip-rule:evenodd;stroke-linejoin:round;stroke-miterlimit:1.41421;">
    <g transform="matrix(1,0,0,1,-820.258,-780.354)">
        <g transform="matrix(4.16667,0,0,4.16667,0,0)">
            <path d="M905.777,763.097C908.607,758.553 911.365,753.884 913.993,749.225L911.655,747.909C909.052,752.535 906.31,757.171 903.506,761.678L905.777,763.097Z" style="fill:white;fill-rule:nonzero;"/>
        </g>
        <g transform="matrix(4.16667,0,0,4.16667,0,0)">
            <path d="M197.213,755.152C197.213,755.152 192.212,764.466 227.732,772.226L971.355,772.226C971.355,772.226 996.235,770.632 1002.79,758.902L1002.83,752.479L197.213,755.152Z" style="fill:rgb(176,176,177);fill-rule:nonzero;"/>
        </g>
        <g transform="matrix(4.16667,0,0,4.16667,0,0)">
            <path d="M197.387,736.356L1003.09,736.356L1003.09,757.039C1003.09,757.039 1004.3,759.813 994.812,759.117L204.971,759.117C204.971,759.117 197.551,761.2 196.862,756.356L197.387,736.356Z" style="fill:white;fill-rule:nonzero;"/>
        </g>
        <g transform="matrix(4.16667,0,0,4.16667,0,0)">
            <path d="M965.667,748.449C965.667,749.244 965.135,749.888 964.47,749.888L937.056,749.888C936.396,749.888 935.864,749.244 935.864,748.449C935.864,747.633 936.396,746.977 937.056,746.977L964.47,746.977C965.135,746.977 965.667,747.633 965.667,748.449Z" style="fill:rgb(176,176,177);fill-rule:nonzero;"/>
        </g>
        <g transform="matrix(4.16667,0,0,4.16667,0,0)">
            <path d="M545.513,736.52C545.513,736.52 542.406,746.879 552.754,747.907L646.227,747.907C646.227,747.907 656.166,749.195 654.845,736.873L545.513,736.52Z" style="fill:rgb(176,176,177);fill-rule:nonzero;"/>
        </g>
        <g transform="matrix(4.16667,0,0,4.16667,0,0)">
            <clipPath id="_clip1">
                <path d="M654.361,737.091L654.361,736.85L654.348,736.85L654.361,737.091Z"/>
            </clipPath>
            <g clip-path="url(#_clip1)">
                <path d="M654.347,737.091L654.36,737.091L654.36,737.092L654.347,737.091Z" style="fill:rgb(96,105,104);fill-rule:nonzero;"/>
                <rect x="654.347" y="737.09" width="0.013" height="0.001" style="fill:rgb(96,105,104);fill-rule:nonzero;"/>
                <rect x="654.347" y="737.089" width="0.013" height="0.001" style="fill:rgb(96,105,104);fill-rule:nonzero;"/>
                <rect x="654.347" y="737.088" width="0.013" height="0.001" style="fill:rgb(96,105,104);fill-rule:nonzero;"/>
                <rect x="654.347" y="737.087" width="0.013" height="0.001" style="fill:rgb(96,105,104);fill-rule:nonzero;"/>
                <rect x="654.347" y="737.086" width="0.013" height="0.001" style="fill:rgb(96,105,104);fill-rule:nonzero;"/>
                <rect x="654.347" y="737.085" width="0.013" height="0.001" style="fill:rgb(96,105,104);fill-rule:nonzero;"/>
                <rect x="654.347" y="737.084" width="0.013" height="0.001" style="fill:rgb(96,105,104);fill-rule:nonzero;"/>
                <rect x="654.347" y="737.083" width="0.013" height="0.001" style="fill:rgb(96,105,104);fill-rule:nonzero;"/>
                <rect x="654.347" y="737.082" width="0.013" height="0.001" style="fill:rgb(96,105,104);fill-rule:nonzero;"/>
                <rect x="654.347" y="737.081" width="0.013" height="0.001" style="fill:rgb(96,105,104);fill-rule:nonzero;"/>
                <rect x="654.347" y="737.08" width="0.013" height="0.001" style="fill:rgb(96,105,104);fill-rule:nonzero;"/>
                <rect x="654.347" y="737.079" width="0.013" height="0.001" style="fill:rgb(96,105,104);fill-rule:nonzero;"/>
                <rect x="654.347" y="737.078" width="0.013" height="0.001" style="fill:rgb(96,105,104);fill-rule:nonzero;"/>
                <rect x="654.347" y="737.077" width="0.013" height="0.001" style="fill:rgb(96,105,104);fill-rule:nonzero;"/>
                <rect x="654.347" y="737.076" width="0.013" height="0.001" style="fill:rgb(96,105,104);fill-rule:nonzero;"/>
                <rect x="654.347" y="737.075" width="0.013" height="0.001" style="fill:rgb(97,105,105);fill-rule:nonzero;"/>
                <path d="M654.347,737.075L654.36,737.075L654.347,737.075Z" style="fill:rgb(97,105,105);fill-rule:nonzero;"/>
                <rect x="654.347" y="737.074" width="0.013" height="0.001" style="fill:rgb(97,105,105);fill-rule:nonzero;"/>
                <rect x="654.347" y="737.073" width="0.013" height="0.001" style="fill:rgb(97,105,105);fill-rule:nonzero;"/>
                <rect x="654.347" y="737.072" width="0.013" height="0.001" style="fill:rgb(97,105,105);fill-rule:nonzero;"/>
                <rect x="654.347" y="737.071" width="0.013" height="0.001" style="fill:rgb(97,105,105);fill-rule:nonzero;"/>
                <rect x="654.347" y="737.07" width="0.013" height="0.001" style="fill:rgb(97,105,105);fill-rule:nonzero;"/>
                <rect x="654.347" y="737.069" width="0.013" height="0.001" style="fill:rgb(97,105,105);fill-rule:nonzero;"/>
                <rect x="654.347" y="737.068" width="0.013" height="0.001" style="fill:rgb(97,105,105);fill-rule:nonzero;"/>
                <rect x="654.347" y="737.067" width="0.013" height="0.001" style="fill:rgb(97,105,105);fill-rule:nonzero;"/>
                <rect x="654.347" y="737.066" width="0.013" height="0.001" style="fill:rgb(97,105,105);fill-rule:nonzero;"/>
                <rect x="654.347" y="737.065" width="0.013" height="0.001" style="fill:rgb(97,105,105);fill-rule:nonzero;"/>
                <rect x="654.347" y="737.064" width="0.013" height="0.001" style="fill:rgb(97,105,105);fill-rule:nonzero;"/>
                <rect x="654.347" y="737.063" width="0.013" height="0.001" style="fill:rgb(97,105,105);fill-rule:nonzero;"/>
                <rect x="654.347" y="737.062" width="0.013" height="0.001" style="fill:rgb(97,105,105);fill-rule:nonzero;"/>
                <rect x="654.347" y="737.061" width="0.013" height="0.001" style="fill:rgb(97,105,105);fill-rule:nonzero;"/>
                <rect x="654.347" y="737.06" width="0.013" height="0.001" style="fill:rgb(98,106,106);fill-rule:nonzero;"/>
                <rect x="654.347" y="737.059" width="0.013" height="0.001" style="fill:rgb(98,106,106);fill-rule:nonzero;"/>
                <path d="M654.347,737.059L654.36,737.059L654.36,737.06L654.347,737.059Z" style="fill:rgb(98,106,106);fill-rule:nonzero;"/>
                <rect x="654.347" y="737.058" width="0.013" height="0.001" style="fill:rgb(98,106,106);fill-rule:nonzero;"/>
                <rect x="654.347" y="737.057" width="0.013" height="0.001" style="fill:rgb(98,106,106);fill-rule:nonzero;"/>
                <rect x="654.347" y="737.056" width="0.013" height="0.001" style="fill:rgb(98,106,106);fill-rule:nonzero;"/>
                <rect x="654.347" y="737.055" width="0.013" height="0.001" style="fill:rgb(99,106,106);fill-rule:nonzero;"/>
                <rect x="654.347" y="737.054" width="0.013" height="0.001" style="fill:rgb(99,106,106);fill-rule:nonzero;"/>
                <rect x="654.347" y="737.053" width="0.013" height="0.001" style="fill:rgb(99,106,106);fill-rule:nonzero;"/>
                <rect x="654.347" y="737.052" width="0.013" height="0.001" style="fill:rgb(99,106,106);fill-rule:nonzero;"/>
                <rect x="654.347" y="737.051" width="0.013" height="0.001" style="fill:rgb(99,106,106);fill-rule:nonzero;"/>
                <rect x="654.347" y="737.05" width="0.013" height="0.001" style="fill:rgb(99,106,106);fill-rule:nonzero;"/>
                <rect x="654.347" y="737.049" width="0.013" height="0.001" style="fill:rgb(99,106,106);fill-rule:nonzero;"/>
                <rect x="654.347" y="737.048" width="0.013" height="0.001" style="fill:rgb(99,106,106);fill-rule:nonzero;"/>
                <rect x="654.347" y="737.047" width="0.013" height="0.001" style="fill:rgb(99,106,106);fill-rule:nonzero;"/>
                <rect x="654.347" y="737.046" width="0.013" height="0.001" style="fill:rgb(99,106,106);fill-rule:nonzero;"/>
                <rect x="654.347" y="737.045" width="0.013" height="0.001" style="fill:rgb(99,106,106);fill-rule:nonzero;"/>
                <rect x="654.347" y="737.044" width="0.013" height="0.001" style="fill:rgb(99,106,106);fill-rule:nonzero;"/>
                <rect x="654.347" y="737.043" width="0.013" height="0.001" style="fill:rgb(99,106,106);fill-rule:nonzero;"/>
                <rect x="654.347" y="737.042" width="0.013" height="0.001" style="fill:rgb(99,106,106);fill-rule:nonzero;"/>
                <path d="M654.347,737.042L654.36,737.042L654.347,737.042Z" style="fill:rgb(99,106,106);fill-rule:nonzero;"/>
                <rect x="654.347" y="737.041" width="0.013" height="0.001" style="fill:rgb(99,106,106);fill-rule:nonzero;"/>
                <rect x="654.347" y="737.04" width="0.013" height="0.001" style="fill:rgb(100,106,106);fill-rule:nonzero;"/>
                <rect x="654.347" y="737.039" width="0.013" height="0.001" style="fill:rgb(100,106,106);fill-rule:nonzero;"/>
                <rect x="654.347" y="737.038" width="0.013" height="0.001" style="fill:rgb(100,106,106);fill-rule:nonzero;"/>
                <rect x="654.347" y="737.037" width="0.013" height="0.001" style="fill:rgb(100,106,106);fill-rule:nonzero;"/>
                <rect x="654.347" y="737.036" width="0.013" height="0.001" style="fill:rgb(100,106,106);fill-rule:nonzero;"/>
                <rect x="654.347" y="737.035" width="0.013" height="0.001" style="fill:rgb(100,106,106);fill-rule:nonzero;"/>
                <rect x="654.347" y="737.034" width="0.013" height="0.001" style="fill:rgb(100,106,106);fill-rule:nonzero;"/>
                <rect x="654.347" y="737.033" width="0.013" height="0.001" style="fill:rgb(100,106,106);fill-rule:nonzero;"/>
                <rect x="654.347" y="737.032" width="0.013" height="0.001" style="fill:rgb(100,106,106);fill-rule:nonzero;"/>
                <rect x="654.347" y="737.031" width="0.013" height="0.001" style="fill:rgb(100,106,106);fill-rule:nonzero;"/>
                <rect x="654.347" y="737.03" width="0.013" height="0.001" style="fill:rgb(100,106,107);fill-rule:nonzero;"/>
                <rect x="654.347" y="737.029" width="0.013" height="0.001" style="fill:rgb(100,107,107);fill-rule:nonzero;"/>
                <rect x="654.347" y="737.028" width="0.013" height="0.001" style="fill:rgb(100,107,107);fill-rule:nonzero;"/>
                <rect x="654.347" y="737.027" width="0.013" height="0.001" style="fill:rgb(100,107,107);fill-rule:nonzero;"/>
                <rect x="654.347" y="737.026" width="0.013" height="0.001" style="fill:rgb(100,107,107);fill-rule:nonzero;"/>
                <path d="M654.347,737.026L654.36,737.026L654.347,737.026Z" style="fill:rgb(100,107,107);fill-rule:nonzero;"/>
                <rect x="654.347" y="737.025" width="0.013" height="0.001" style="fill:rgb(100,107,107);fill-rule:nonzero;"/>
                <rect x="654.347" y="737.024" width="0.013" height="0.001" style="fill:rgb(101,107,107);fill-rule:nonzero;"/>
                <rect x="654.347" y="737.023" width="0.013" height="0.001" style="fill:rgb(101,107,107);fill-rule:nonzero;"/>
                <rect x="654.347" y="737.022" width="0.013" height="0.001" style="fill:rgb(101,107,107);fill-rule:nonzero;"/>
                <rect x="654.347" y="737.021" width="0.013" height="0.001" style="fill:rgb(101,107,107);fill-rule:nonzero;"/>
                <rect x="654.347" y="737.02" width="0.013" height="0.001" style="fill:rgb(101,107,107);fill-rule:nonzero;"/>
                <rect x="654.347" y="737.019" width="0.013" height="0.001" style="fill:rgb(101,107,107);fill-rule:nonzero;"/>
                <rect x="654.347" y="737.018" width="0.013" height="0.001" style="fill:rgb(101,107,107);fill-rule:nonzero;"/>
                <rect x="654.347" y="737.017" width="0.013" height="0.001" style="fill:rgb(101,107,107);fill-rule:nonzero;"/>
                <rect x="654.347" y="737.016" width="0.013" height="0.001" style="fill:rgb(101,107,107);fill-rule:nonzero;"/>
                <rect x="654.347" y="737.015" width="0.013" height="0.001" style="fill:rgb(101,107,107);fill-rule:nonzero;"/>
                <rect x="654.347" y="737.014" width="0.013" height="0.001" style="fill:rgb(101,107,107);fill-rule:nonzero;"/>
                <rect x="654.347" y="737.013" width="0.013" height="0.001" style="fill:rgb(101,107,108);fill-rule:nonzero;"/>
                <rect x="654.347" y="737.012" width="0.013" height="0.001" style="fill:rgb(101,107,108);fill-rule:nonzero;"/>
                <rect x="654.347" y="737.011" width="0.013" height="0.001" style="fill:rgb(101,107,108);fill-rule:nonzero;"/>
                <rect x="654.347" y="737.01" width="0.013" height="0.001" style="fill:rgb(101,107,108);fill-rule:nonzero;"/>
                <path d="M654.347,737.01L654.36,737.01L654.36,737.011L654.347,737.01Z" style="fill:rgb(101,107,108);fill-rule:nonzero;"/>
                <rect x="654.347" y="737.009" width="0.013" height="0.001" style="fill:rgb(102,107,108);fill-rule:nonzero;"/>
                <rect x="654.347" y="737.008" width="0.013" height="0.001" style="fill:rgb(102,107,108);fill-rule:nonzero;"/>
                <rect x="654.347" y="737.007" width="0.013" height="0.001" style="fill:rgb(102,107,108);fill-rule:nonzero;"/>
                <rect x="654.347" y="737.006" width="0.013" height="0.001" style="fill:rgb(102,107,108);fill-rule:nonzero;"/>
                <rect x="654.347" y="737.005" width="0.013" height="0.001" style="fill:rgb(102,107,108);fill-rule:nonzero;"/>
                <rect x="654.347" y="737.004" width="0.013" height="0.001" style="fill:rgb(102,107,108);fill-rule:nonzero;"/>
                <rect x="654.347" y="737.003" width="0.013" height="0.001" style="fill:rgb(102,107,108);fill-rule:nonzero;"/>
                <rect x="654.347" y="737.002" width="0.013" height="0.001" style="fill:rgb(102,107,108);fill-rule:nonzero;"/>
                <rect x="654.347" y="737.001" width="0.013" height="0.001" style="fill:rgb(102,107,108);fill-rule:nonzero;"/>
                <rect x="654.347" y="737" width="0.013" height="0.001" style="fill:rgb(102,107,108);fill-rule:nonzero;"/>
                <rect x="654.347" y="736.999" width="0.013" height="0.001" style="fill:rgb(102,107,108);fill-rule:nonzero;"/>
                <rect x="654.347" y="736.998" width="0.013" height="0.001" style="fill:rgb(102,108,108);fill-rule:nonzero;"/>
                <rect x="654.347" y="736.997" width="0.013" height="0.001" style="fill:rgb(102,108,108);fill-rule:nonzero;"/>
                <rect x="654.347" y="736.996" width="0.013" height="0.001" style="fill:rgb(102,108,108);fill-rule:nonzero;"/>
                <rect x="654.347" y="736.995" width="0.013" height="0.001" style="fill:rgb(102,108,108);fill-rule:nonzero;"/>
                <rect x="654.347" y="736.994" width="0.013" height="0.001" style="fill:rgb(103,108,108);fill-rule:nonzero;"/>
                <rect x="654.347" y="736.993" width="0.013" height="0.001" style="fill:rgb(103,108,108);fill-rule:nonzero;"/>
                <path d="M654.347,736.993L654.36,736.993L654.347,736.993Z" style="fill:rgb(103,108,109);fill-rule:nonzero;"/>
                <rect x="654.347" y="736.992" width="0.013" height="0.001" style="fill:rgb(103,108,109);fill-rule:nonzero;"/>
                <rect x="654.347" y="736.991" width="0.013" height="0.001" style="fill:rgb(103,108,109);fill-rule:nonzero;"/>
                <rect x="654.347" y="736.99" width="0.013" height="0.001" style="fill:rgb(103,108,109);fill-rule:nonzero;"/>
                <rect x="654.347" y="736.989" width="0.013" height="0.001" style="fill:rgb(103,108,109);fill-rule:nonzero;"/>
                <rect x="654.347" y="736.988" width="0.013" height="0.001" style="fill:rgb(103,108,109);fill-rule:nonzero;"/>
                <rect x="654.347" y="736.987" width="0.013" height="0.001" style="fill:rgb(103,108,109);fill-rule:nonzero;"/>
                <rect x="654.347" y="736.986" width="0.013" height="0.001" style="fill:rgb(103,108,109);fill-rule:nonzero;"/>
                <rect x="654.347" y="736.985" width="0.013" height="0.001" style="fill:rgb(103,108,109);fill-rule:nonzero;"/>
                <rect x="654.347" y="736.984" width="0.013" height="0.001" style="fill:rgb(103,108,109);fill-rule:nonzero;"/>
                <rect x="654.347" y="736.983" width="0.013" height="0.001" style="fill:rgb(103,108,109);fill-rule:nonzero;"/>
                <rect x="654.347" y="736.982" width="0.013" height="0.001" style="fill:rgb(103,108,109);fill-rule:nonzero;"/>
                <rect x="654.347" y="736.981" width="0.013" height="0.001" style="fill:rgb(103,108,109);fill-rule:nonzero;"/>
                <rect x="654.347" y="736.98" width="0.013" height="0.001" style="fill:rgb(104,108,109);fill-rule:nonzero;"/>
                <rect x="654.347" y="736.979" width="0.013" height="0.001" style="fill:rgb(104,108,109);fill-rule:nonzero;"/>
                <rect x="654.347" y="736.978" width="0.013" height="0.001" style="fill:rgb(104,108,109);fill-rule:nonzero;"/>
                <path d="M654.347,736.978L654.36,736.978L654.36,736.979L654.347,736.978Z" style="fill:rgb(104,108,109);fill-rule:nonzero;"/>
                <path d="M654.347,736.977L654.36,736.977L654.36,736.978L654.347,736.977Z" style="fill:rgb(104,108,109);fill-rule:nonzero;"/>
                <rect x="654.347" y="736.976" width="0.013" height="0.001" style="fill:rgb(104,108,109);fill-rule:nonzero;"/>
                <rect x="654.347" y="736.975" width="0.013" height="0.001" style="fill:rgb(104,109,110);fill-rule:nonzero;"/>
                <rect x="654.347" y="736.974" width="0.013" height="0.001" style="fill:rgb(106,110,112);fill-rule:nonzero;"/>
                <rect x="654.347" y="736.973" width="0.013" height="0.001" style="fill:rgb(107,111,113);fill-rule:nonzero;"/>
                <rect x="654.347" y="736.972" width="0.013" height="0.001" style="fill:rgb(108,113,114);fill-rule:nonzero;"/>
                <rect x="654.347" y="736.971" width="0.013" height="0.001" style="fill:rgb(109,113,114);fill-rule:nonzero;"/>
                <rect x="654.347" y="736.97" width="0.013" height="0.001" style="fill:rgb(110,114,115);fill-rule:nonzero;"/>
                <rect x="654.347" y="736.969" width="0.013" height="0.001" style="fill:rgb(111,116,116);fill-rule:nonzero;"/>
                <rect x="654.347" y="736.968" width="0.013" height="0.001" style="fill:rgb(113,117,118);fill-rule:nonzero;"/>
                <rect x="654.347" y="736.967" width="0.013" height="0.001" style="fill:rgb(113,117,118);fill-rule:nonzero;"/>
                <rect x="654.347" y="736.966" width="0.013" height="0.001" style="fill:rgb(114,118,119);fill-rule:nonzero;"/>
                <rect x="654.347" y="736.965" width="0.013" height="0.001" style="fill:rgb(115,119,120);fill-rule:nonzero;"/>
                <rect x="654.347" y="736.964" width="0.013" height="0.001" style="fill:rgb(116,120,121);fill-rule:nonzero;"/>
                <rect x="654.347" y="736.963" width="0.013" height="0.001" style="fill:rgb(117,121,122);fill-rule:nonzero;"/>
                <rect x="654.347" y="736.962" width="0.013" height="0.001" style="fill:rgb(118,122,123);fill-rule:nonzero;"/>
                <rect x="654.347" y="736.961" width="0.013" height="0.001" style="fill:rgb(119,123,124);fill-rule:nonzero;"/>
                <path d="M654.347,736.961L654.36,736.961L654.347,736.961Z" style="fill:rgb(119,124,125);fill-rule:nonzero;"/>
                <rect x="654.347" y="736.96" width="0.013" height="0.001" style="fill:rgb(120,125,126);fill-rule:nonzero;"/>
                <rect x="654.347" y="736.959" width="0.013" height="0.001" style="fill:rgb(121,126,127);fill-rule:nonzero;"/>
                <rect x="654.347" y="736.958" width="0.013" height="0.001" style="fill:rgb(122,127,128);fill-rule:nonzero;"/>
                <rect x="654.347" y="736.957" width="0.013" height="0.001" style="fill:rgb(122,127,128);fill-rule:nonzero;"/>
                <rect x="654.347" y="736.956" width="0.013" height="0.001" style="fill:rgb(123,128,129);fill-rule:nonzero;"/>
                <rect x="654.347" y="736.955" width="0.013" height="0.001" style="fill:rgb(125,129,130);fill-rule:nonzero;"/>
                <rect x="654.347" y="736.954" width="0.013" height="0.001" style="fill:rgb(126,130,131);fill-rule:nonzero;"/>
                <rect x="654.347" y="736.953" width="0.013" height="0.001" style="fill:rgb(126,130,131);fill-rule:nonzero;"/>
                <rect x="654.347" y="736.952" width="0.013" height="0.001" style="fill:rgb(127,131,132);fill-rule:nonzero;"/>
                <rect x="654.347" y="736.951" width="0.013" height="0.001" style="fill:rgb(128,132,133);fill-rule:nonzero;"/>
                <rect x="654.347" y="736.95" width="0.013" height="0.001" style="fill:rgb(128,132,133);fill-rule:nonzero;"/>
                <rect x="654.347" y="736.949" width="0.013" height="0.001" style="fill:rgb(129,133,135);fill-rule:nonzero;"/>
                <rect x="654.347" y="736.948" width="0.013" height="0.001" style="fill:rgb(130,134,135);fill-rule:nonzero;"/>
                <rect x="654.347" y="736.947" width="0.013" height="0.001" style="fill:rgb(131,135,136);fill-rule:nonzero;"/>
                <rect x="654.347" y="736.946" width="0.013" height="0.001" style="fill:rgb(131,135,136);fill-rule:nonzero;"/>
                <rect x="654.347" y="736.945" width="0.013" height="0.001" style="fill:rgb(133,136,138);fill-rule:nonzero;"/>
                <path d="M654.347,736.945L654.36,736.945L654.347,736.945Z" style="fill:rgb(134,137,139);fill-rule:nonzero;"/>
                <path d="M654.347,736.944L654.36,736.944L654.347,736.944Z" style="fill:rgb(135,139,140);fill-rule:nonzero;"/>
                <rect x="654.347" y="736.943" width="0.013" height="0.001" style="fill:rgb(135,139,140);fill-rule:nonzero;"/>
                <rect x="654.347" y="736.942" width="0.013" height="0.001" style="fill:rgb(135,139,140);fill-rule:nonzero;"/>
                <rect x="654.347" y="736.941" width="0.013" height="0.001" style="fill:rgb(136,140,142);fill-rule:nonzero;"/>
                <rect x="654.347" y="736.94" width="0.013" height="0.001" style="fill:rgb(138,142,143);fill-rule:nonzero;"/>
                <rect x="654.347" y="736.939" width="0.013" height="0.001" style="fill:rgb(138,142,143);fill-rule:nonzero;"/>
                <rect x="654.347" y="736.938" width="0.013" height="0.001" style="fill:rgb(138,142,143);fill-rule:nonzero;"/>
                <rect x="654.347" y="736.937" width="0.013" height="0.001" style="fill:rgb(140,143,144);fill-rule:nonzero;"/>
                <rect x="654.347" y="736.936" width="0.013" height="0.001" style="fill:rgb(140,143,144);fill-rule:nonzero;"/>
                <rect x="654.347" y="736.935" width="0.013" height="0.001" style="fill:rgb(141,144,145);fill-rule:nonzero;"/>
                <rect x="654.347" y="736.934" width="0.013" height="0.001" style="fill:rgb(142,145,146);fill-rule:nonzero;"/>
                <rect x="654.347" y="736.933" width="0.013" height="0.001" style="fill:rgb(143,146,147);fill-rule:nonzero;"/>
                <rect x="654.347" y="736.932" width="0.013" height="0.001" style="fill:rgb(143,146,147);fill-rule:nonzero;"/>
                <rect x="654.347" y="736.931" width="0.013" height="0.001" style="fill:rgb(143,146,148);fill-rule:nonzero;"/>
                <rect x="654.347" y="736.93" width="0.013" height="0.001" style="fill:rgb(144,147,148);fill-rule:nonzero;"/>
                <rect x="654.347" y="736.929" width="0.013" height="0.001" style="fill:rgb(145,148,149);fill-rule:nonzero;"/>
                <path d="M654.347,736.929L654.347,736.928L654.36,736.929L654.347,736.929Z" style="fill:rgb(145,148,149);fill-rule:nonzero;"/>
                <path d="M654.347,736.928L654.36,736.928L654.36,736.929L654.347,736.928Z" style="fill:rgb(145,149,150);fill-rule:nonzero;"/>
                <rect x="654.347" y="736.927" width="0.013" height="0.001" style="fill:rgb(146,149,150);fill-rule:nonzero;"/>
                <rect x="654.347" y="736.926" width="0.013" height="0.001" style="fill:rgb(147,150,151);fill-rule:nonzero;"/>
                <rect x="654.347" y="736.925" width="0.013" height="0.001" style="fill:rgb(147,150,151);fill-rule:nonzero;"/>
                <rect x="654.347" y="736.924" width="0.013" height="0.001" style="fill:rgb(147,150,151);fill-rule:nonzero;"/>
                <rect x="654.347" y="736.923" width="0.013" height="0.001" style="fill:rgb(148,151,152);fill-rule:nonzero;"/>
                <rect x="654.347" y="736.922" width="0.013" height="0.001" style="fill:rgb(148,151,152);fill-rule:nonzero;"/>
                <rect x="654.347" y="736.921" width="0.013" height="0.001" style="fill:rgb(148,151,152);fill-rule:nonzero;"/>
                <rect x="654.347" y="736.92" width="0.013" height="0.001" style="fill:rgb(149,152,154);fill-rule:nonzero;"/>
                <rect x="654.347" y="736.919" width="0.013" height="0.001" style="fill:rgb(150,153,154);fill-rule:nonzero;"/>
                <rect x="654.347" y="736.918" width="0.013" height="0.001" style="fill:rgb(150,153,154);fill-rule:nonzero;"/>
                <rect x="654.347" y="736.917" width="0.013" height="0.001" style="fill:rgb(150,153,154);fill-rule:nonzero;"/>
                <rect x="654.347" y="736.916" width="0.013" height="0.001" style="fill:rgb(151,153,155);fill-rule:nonzero;"/>
                <rect x="654.347" y="736.915" width="0.013" height="0.001" style="fill:rgb(151,154,155);fill-rule:nonzero;"/>
                <rect x="654.347" y="736.914" width="0.013" height="0.001" style="fill:rgb(151,154,155);fill-rule:nonzero;"/>
                <rect x="654.347" y="736.913" width="0.013" height="0.001" style="fill:rgb(151,154,155);fill-rule:nonzero;"/>
                <rect x="654.347" y="736.912" width="0.013" height="0.001" style="fill:rgb(152,155,156);fill-rule:nonzero;"/>
                <path d="M654.347,736.912L654.36,736.912L654.347,736.912Z" style="fill:rgb(152,155,157);fill-rule:nonzero;"/>
                <rect x="654.347" y="736.911" width="0.013" height="0.001" style="fill:rgb(152,155,157);fill-rule:nonzero;"/>
                <rect x="654.347" y="736.91" width="0.013" height="0.001" style="fill:rgb(153,156,157);fill-rule:nonzero;"/>
                <rect x="654.347" y="736.909" width="0.013" height="0.001" style="fill:rgb(153,156,157);fill-rule:nonzero;"/>
                <rect x="654.347" y="736.908" width="0.013" height="0.001" style="fill:rgb(153,156,157);fill-rule:nonzero;"/>
                <rect x="654.347" y="736.907" width="0.013" height="0.001" style="fill:rgb(153,156,157);fill-rule:nonzero;"/>
                <rect x="654.347" y="736.906" width="0.013" height="0.001" style="fill:rgb(154,156,158);fill-rule:nonzero;"/>
                <rect x="654.347" y="736.905" width="0.013" height="0.001" style="fill:rgb(154,156,158);fill-rule:nonzero;"/>
                <rect x="654.347" y="736.904" width="0.013" height="0.001" style="fill:rgb(154,156,158);fill-rule:nonzero;"/>
                <rect x="654.347" y="736.903" width="0.013" height="0.001" style="fill:rgb(153,157,158);fill-rule:nonzero;"/>
                <rect x="654.347" y="736.902" width="0.013" height="0.001" style="fill:rgb(153,157,158);fill-rule:nonzero;"/>
                <rect x="654.347" y="736.901" width="0.013" height="0.001" style="fill:rgb(154,157,159);fill-rule:nonzero;"/>
                <rect x="654.347" y="736.9" width="0.013" height="0.001" style="fill:rgb(154,157,159);fill-rule:nonzero;"/>
                <rect x="654.347" y="736.899" width="0.013" height="0.001" style="fill:rgb(154,157,159);fill-rule:nonzero;"/>
                <rect x="654.347" y="736.898" width="0.013" height="0.001" style="fill:rgb(154,157,159);fill-rule:nonzero;"/>
                <rect x="654.347" y="736.897" width="0.013" height="0.001" style="fill:rgb(154,157,159);fill-rule:nonzero;"/>
                <path d="M654.347,736.897L654.347,736.896L654.36,736.897L654.347,736.897Z" style="fill:rgb(154,157,159);fill-rule:nonzero;"/>
                <path d="M654.347,736.896L654.36,736.896L654.347,736.896Z" style="fill:rgb(154,157,159);fill-rule:nonzero;"/>
                <rect x="654.347" y="736.895" width="0.013" height="0.001" style="fill:rgb(154,157,159);fill-rule:nonzero;"/>
                <rect x="654.347" y="736.894" width="0.013" height="0.001" style="fill:rgb(154,157,159);fill-rule:nonzero;"/>
                <rect x="654.347" y="736.893" width="0.013" height="0.001" style="fill:rgb(154,157,159);fill-rule:nonzero;"/>
                <rect x="654.347" y="736.892" width="0.013" height="0.001" style="fill:rgb(154,157,159);fill-rule:nonzero;"/>
                <rect x="654.347" y="736.891" width="0.013" height="0.001" style="fill:rgb(154,157,159);fill-rule:nonzero;"/>
                <rect x="654.347" y="736.89" width="0.013" height="0.001" style="fill:rgb(154,157,159);fill-rule:nonzero;"/>
                <rect x="654.347" y="736.889" width="0.013" height="0.001" style="fill:rgb(154,157,159);fill-rule:nonzero;"/>
                <rect x="654.347" y="736.888" width="0.013" height="0.001" style="fill:rgb(154,157,159);fill-rule:nonzero;"/>
                <rect x="654.347" y="736.887" width="0.013" height="0.001" style="fill:rgb(154,157,159);fill-rule:nonzero;"/>
                <rect x="654.347" y="736.886" width="0.013" height="0.001" style="fill:rgb(154,157,159);fill-rule:nonzero;"/>
                <rect x="654.347" y="736.885" width="0.013" height="0.001" style="fill:rgb(154,157,159);fill-rule:nonzero;"/>
                <rect x="654.347" y="736.884" width="0.013" height="0.001" style="fill:rgb(154,157,159);fill-rule:nonzero;"/>
                <rect x="654.347" y="736.883" width="0.013" height="0.001" style="fill:rgb(154,157,159);fill-rule:nonzero;"/>
                <rect x="654.347" y="736.882" width="0.013" height="0.001" style="fill:rgb(154,157,159);fill-rule:nonzero;"/>
                <rect x="654.347" y="736.881" width="0.013" height="0.001" style="fill:rgb(154,157,159);fill-rule:nonzero;"/>
                <rect x="654.347" y="736.88" width="0.013" height="0.001" style="fill:rgb(154,157,159);fill-rule:nonzero;"/>
                <rect x="654.347" y="736.879" width="0.013" height="0.001" style="fill:rgb(154,157,159);fill-rule:nonzero;"/>
                <path d="M654.347,736.879L654.36,736.879L654.36,736.88L654.347,736.879Z" style="fill:rgb(154,157,159);fill-rule:nonzero;"/>
                <rect x="654.347" y="736.878" width="0.013" height="0.001" style="fill:rgb(154,157,159);fill-rule:nonzero;"/>
                <rect x="654.347" y="736.877" width="0.013" height="0.001" style="fill:rgb(154,157,159);fill-rule:nonzero;"/>
                <rect x="654.347" y="736.876" width="0.013" height="0.001" style="fill:rgb(154,157,159);fill-rule:nonzero;"/>
                <rect x="654.347" y="736.875" width="0.013" height="0.001" style="fill:rgb(154,157,159);fill-rule:nonzero;"/>
                <rect x="654.347" y="736.874" width="0.013" height="0.001" style="fill:rgb(154,157,159);fill-rule:nonzero;"/>
                <rect x="654.347" y="736.873" width="0.013" height="0.001" style="fill:rgb(154,157,159);fill-rule:nonzero;"/>
                <rect x="654.347" y="736.872" width="0.013" height="0.001" style="fill:rgb(154,157,159);fill-rule:nonzero;"/>
                <rect x="654.347" y="736.871" width="0.013" height="0.001" style="fill:rgb(154,157,159);fill-rule:nonzero;"/>
                <rect x="654.347" y="736.87" width="0.013" height="0.001" style="fill:rgb(154,157,159);fill-rule:nonzero;"/>
                <rect x="654.347" y="736.869" width="0.013" height="0.001" style="fill:rgb(154,157,159);fill-rule:nonzero;"/>
                <rect x="654.347" y="736.868" width="0.013" height="0.001" style="fill:rgb(154,157,159);fill-rule:nonzero;"/>
                <rect x="654.347" y="736.867" width="0.013" height="0.001" style="fill:rgb(154,157,159);fill-rule:nonzero;"/>
                <rect x="654.347" y="736.866" width="0.013" height="0.001" style="fill:rgb(154,157,159);fill-rule:nonzero;"/>
                <rect x="654.347" y="736.865" width="0.013" height="0.001" style="fill:rgb(154,157,159);fill-rule:nonzero;"/>
                <rect x="654.347" y="736.864" width="0.013" height="0.001" style="fill:rgb(154,157,159);fill-rule:nonzero;"/>
                <rect x="654.347" y="736.863" width="0.013" height="0.001" style="fill:rgb(154,157,159);fill-rule:nonzero;"/>
                <path d="M654.347,736.863L654.36,736.863L654.347,736.863Z" style="fill:rgb(154,157,159);fill-rule:nonzero;"/>
                <rect x="654.347" y="736.862" width="0.013" height="0.001" style="fill:rgb(154,157,159);fill-rule:nonzero;"/>
                <rect x="654.347" y="736.861" width="0.013" height="0.001" style="fill:rgb(154,157,159);fill-rule:nonzero;"/>
                <rect x="654.347" y="736.86" width="0.013" height="0.001" style="fill:rgb(154,157,159);fill-rule:nonzero;"/>
                <rect x="654.347" y="736.859" width="0.013" height="0.001" style="fill:rgb(154,157,159);fill-rule:nonzero;"/>
                <rect x="654.347" y="736.858" width="0.013" height="0.001" style="fill:rgb(154,157,159);fill-rule:nonzero;"/>
                <rect x="654.347" y="736.857" width="0.013" height="0.001" style="fill:rgb(154,157,159);fill-rule:nonzero;"/>
                <rect x="654.347" y="736.856" width="0.013" height="0.001" style="fill:rgb(154,157,159);fill-rule:nonzero;"/>
                <rect x="654.347" y="736.855" width="0.013" height="0.001" style="fill:rgb(154,157,159);fill-rule:nonzero;"/>
                <rect x="654.347" y="736.854" width="0.013" height="0.001" style="fill:rgb(154,157,159);fill-rule:nonzero;"/>
                <rect x="654.347" y="736.853" width="0.013" height="0.001" style="fill:rgb(154,157,159);fill-rule:nonzero;"/>
                <rect x="654.347" y="736.852" width="0.013" height="0.001" style="fill:rgb(154,157,159);fill-rule:nonzero;"/>
                <rect x="654.347" y="736.851" width="0.013" height="0.001" style="fill:rgb(154,157,159);fill-rule:nonzero;"/>
                <rect x="654.347" y="736.85" width="0.013" height="0.001" style="fill:rgb(154,157,159);fill-rule:nonzero;"/>
            </g>
        </g>
        <g transform="matrix(4.16667,0,0,4.16667,0,0)">
            <path d="M923.872,736.266L923.872,369.032C923.872,352.361 910.237,338.727 893.574,338.727L306.441,338.727C289.774,338.727 276.137,352.361 276.137,369.032L276.137,736.266L923.872,736.266Z" style="fill:rgb(16,53,68);fill-rule:nonzero;"/>
        </g>
        <g transform="matrix(4.16667,0,0,4.16667,0,0)">
            <rect x="296.969" y="361.463" width="606.064" height="352.26" style="fill:rgb(35,31,32);fill-rule:nonzero;"/>
        </g>
        <g transform="matrix(4.16667,0,0,4.16667,0,0)">
            <path d="M757.881,267.997C757.752,268.048 744.701,272.978 723.685,272.978C710.72,272.978 697.336,271.156 683.907,267.566C635.226,254.546 620.043,226.001 619.066,224.069L601.91,187.285L581.596,222.292C580.698,223.664 562.669,250.383 513.156,267.388C501.33,271.448 488.874,273.507 476.135,273.508C456.183,273.509 442.094,268.318 442.05,268.303L412.425,256.636L413.513,317.737C414.798,389.867 415.26,397.662 415.418,399.995C421.492,585.932 584.272,653.787 585.923,654.45L600.186,660.196L614.34,654.223C621.301,651.291 784.773,580.34 785.595,397.515C785.808,393.314 786.16,380.048 786.754,317.109L787.02,287.974L787.432,255.856L757.881,267.997Z" style="fill:white;fill-rule:nonzero;"/>
        </g>
        <g transform="matrix(4.16667,0,0,4.16667,0,0)">
            <path d="M678.413,288.111C618.129,271.988 599.857,233.196 599.857,233.196C599.857,233.196 580.359,266.795 520.063,287.501C473.432,303.516 434.256,288.09 434.256,288.09L434.777,317.358C436.011,386.55 436.483,396.395 436.661,398.919C442.086,571.629 592.349,634.113 593.867,634.725L599.996,637.193L606.085,634.622C612.538,631.906 763.881,566.159 764.33,396.891C764.525,393.684 764.875,381.71 765.487,316.915L765.753,287.753C765.753,287.753 730.789,302.118 678.413,288.111Z" style="fill:rgb(22,166,177);fill-rule:nonzero;"/>
        </g>
        <g transform="matrix(4.16667,0,0,4.16667,0,0)">
            <path d="M599.996,637.193L599.857,233.196C599.857,233.196 618.129,271.988 678.413,288.111C695.58,292.702 710.874,294.245 723.682,294.245C749.951,294.245 765.753,287.753 765.753,287.753L765.487,316.915C764.875,381.71 764.525,393.684 764.33,396.891C763.881,566.159 612.538,631.906 606.085,634.622L599.996,637.193Z" style="fill:rgb(197,233,236);fill-rule:nonzero;"/>
        </g>
        <g transform="matrix(4.16667,0,0,4.16667,0,0)">
            <path d="M601.872,359.618C580.825,359.618 563.7,368.062 563.7,387.332L563.7,422.969C563.7,442.238 580.825,457.916 601.872,457.916C622.92,457.916 640.044,442.238 640.044,422.969L640.044,387.332C640.044,368.062 622.92,359.618 601.872,359.618ZM601.872,474.014C572.633,474.014 548.838,451.837 548.838,424.572L548.838,384.913C548.838,357.649 572.633,343.518 601.872,343.518C631.113,343.518 654.906,357.649 654.906,384.913L654.906,424.572C654.906,451.837 631.113,474.014 601.872,474.014Z" style="fill:white;fill-rule:nonzero;"/>
        </g>
        <g transform="matrix(4.16667,0,0,4.16667,0,0)">
            <path d="M671.168,418.36L530.453,418.36C529.909,418.36 529.375,418.401 528.841,418.439L528.841,519.999L671.168,519.999L671.168,418.36Z" style="fill:rgb(241,96,52);fill-rule:nonzero;"/>
        </g>
        <g transform="matrix(4.16667,0,0,4.16667,0,0)">
            <rect x="528.841" y="519.999" width="142.327" height="6.61" style="fill:white;fill-rule:nonzero;"/>
        </g>
        <g transform="matrix(4.16667,0,0,4.16667,0,0)">
            <rect x="594.589" y="442.72" width="10.827" height="10.237" style="fill:white;fill-rule:nonzero;"/>
        </g>
        <g transform="matrix(4.16667,0,0,4.16667,0,0)">
            <rect x="572.929" y="442.72" width="10.838" height="10.237" style="fill:white;fill-rule:nonzero;"/>
        </g>
        <g transform="matrix(4.16667,0,0,4.16667,0,0)">
            <rect x="616.249" y="442.72" width="10.83" height="10.237" style="fill:white;fill-rule:nonzero;"/>
        </g>
        <g transform="matrix(4.16667,0,0,4.16667,0,0)">
            <rect x="594.589" y="463.15" width="10.827" height="10.237" style="fill:white;fill-rule:nonzero;"/>
        </g>
        <g transform="matrix(4.16667,0,0,4.16667,0,0)">
            <rect x="572.929" y="463.15" width="10.838" height="10.237" style="fill:white;fill-rule:nonzero;"/>
        </g>
        <g transform="matrix(4.16667,0,0,4.16667,0,0)">
            <rect x="616.249" y="463.15" width="10.83" height="10.237" style="fill:white;fill-rule:nonzero;"/>
        </g>
        <g transform="matrix(4.16667,0,0,4.16667,0,0)">
            <rect x="594.589" y="483.581" width="10.827" height="10.237" style="fill:white;fill-rule:nonzero;"/>
        </g>
        <g transform="matrix(4.16667,0,0,4.16667,0,0)">
            <rect x="572.929" y="483.581" width="10.838" height="10.237" style="fill:white;fill-rule:nonzero;"/>
        </g>
        <g transform="matrix(4.16667,0,0,4.16667,0,0)">
            <rect x="616.249" y="483.581" width="10.83" height="10.237" style="fill:white;fill-rule:nonzero;"/>
        </g>
    </g>
</svg>
