<?xml version="1.0" standalone="no"?>
<svg xmlns="http://www.w3.org/2000/svg" version="1.2" baseProfile="tiny" width="256" height="256" viewBox="0 0 256 256">
<rect x="0" y="0" width="256" height="256" id="0" fill="rgb(126,124,125)" fill-opacity="1" />
<circle cx="221" cy="238" r="85" id="1" fill="rgb(5,1,0)" fill-opacity="0.501961" />
<g transform="translate(3 141) rotate(80) scale(204 23)"><ellipse cx="0" cy="0" rx="1" ry="1" id="2" fill="rgb(255,255,255)" fill-opacity="0.501961" /></g>
<g transform="translate(210 97) rotate(20) scale(50 24)"><ellipse cx="0" cy="0" rx="1" ry="1" id="3" fill="rgb(255,255,255)" fill-opacity="0.501961" /></g>
<g transform="translate(81 238) rotate(162) scale(58 15)"><ellipse cx="0" cy="0" rx="1" ry="1" id="4" fill="rgb(255,255,255)" fill-opacity="0.501961" /></g>
<ellipse cx="218" cy="40" rx="24" ry="35" id="5" fill="rgb(0,0,2)" fill-opacity="0.501961" />
<circle cx="73" cy="88" r="50" id="6" fill="rgb(185,196,213)" fill-opacity="0.501961" />
<circle cx="49" cy="0" r="50" id="7" fill="rgb(29,36,36)" fill-opacity="0.501961" />
<ellipse cx="165" cy="163" rx="132" ry="37" id="8" fill="rgb(99,75,64)" fill-opacity="0.501961" />
<circle cx="174" cy="38" r="19" id="9" fill="rgb(255,255,255)" fill-opacity="0.501961" />
<polygon points="19,194 20,218 96,215" id="10" fill="rgb(15,22,28)" fill-opacity="0.501961" />
<circle cx="162" cy="196" r="20" id="11" fill="rgb(197,175,167)" fill-opacity="0.501961" />
<polygon points="106,256 234,201 252,256" id="12" fill="rgb(0,0,0)" fill-opacity="0.501961" />
<ellipse cx="165" cy="10" rx="38" ry="12" id="13" fill="rgb(9,14,17)" fill-opacity="0.501961" />
<polygon points="231,79 256,80 255,128 230,127" id="14" fill="rgb(255,254,252)" fill-opacity="0.501961"/>
<g transform="translate(200 188) rotate(20) scale(31 13)"><ellipse cx="0" cy="0" rx="1" ry="1" id="15" fill="rgb(160,159,160)" fill-opacity="0.501961" /></g>
<polygon points="124,142 119,128 159,115 164,129" id="16" fill="rgb(0,0,0)" fill-opacity="0.501961"/>
<polygon points="172,130 166,100 207,91 213,121" id="17" fill="rgb(255,255,255)" fill-opacity="0.501961"/>
<ellipse cx="2" cy="245" rx="68" ry="21" id="18" fill="rgb(255,255,255)" fill-opacity="0.501961" />
<polygon points="38,178 179,113 39,153" id="19" fill="rgb(0,0,2)" fill-opacity="0.501961" />
<circle cx="9" cy="177" r="28" id="20" fill="rgb(247,248,245)" fill-opacity="0.501961" />
<ellipse cx="255" cy="18" rx="15" ry="22" id="21" fill="rgb(255,255,255)" fill-opacity="0.501961" />
<rect x="39" y="43" width="108" height="76" id="22" fill="rgb(156,163,175)" fill-opacity="0.501961" />
<circle cx="144" cy="187" r="36" id="23" fill="rgb(160,125,106)" fill-opacity="0.501961" />
<polygon points="87,236 127,212 66,238" id="24" fill="rgb(45,52,73)" fill-opacity="0.501961" />
<polygon points="188,126 167,102 155,16" id="25" fill="rgb(255,255,255)" fill-opacity="0.501961" />
<ellipse cx="61" cy="23" rx="93" ry="9" id="26" fill="rgb(60,63,64)" fill-opacity="0.501961" />
<g transform="translate(14 48) rotate(79) scale(136 4)"><ellipse cx="0" cy="0" rx="1" ry="1" id="27" fill="rgb(0,0,3)" fill-opacity="0.501961" /></g>
<g transform="translate(202 30) rotate(152) scale(9 53)"><ellipse cx="0" cy="0" rx="1" ry="1" id="28" fill="rgb(22,27,31)" fill-opacity="0.501961" /></g>
<polygon points="159,88 152,50 156,49 163,87" id="29" fill="rgb(0,0,0)" fill-opacity="0.501961"/>
<polygon points="210,136 219,116 247,129 238,149" id="30" fill="rgb(161,99,66)" fill-opacity="0.501961"/>
<polygon points="76,143 43,154 31,117 63,106" id="31" fill="rgb(180,189,201)" fill-opacity="0.501961"/>
<g transform="translate(241 168) rotate(88) scale(10 43)"><ellipse cx="0" cy="0" rx="1" ry="1" id="32" fill="rgb(14,13,14)" fill-opacity="0.501961" /></g>
<polygon points="255,82 172,138 168,65" id="33" fill="rgb(229,229,226)" fill-opacity="0.501961" />
<rect x="40" y="0" width="46" height="31" id="34" fill="rgb(119,121,122)" fill-opacity="0.501961" />
<polygon points="213,130 224,143 156,158" id="35" fill="rgb(54,19,0)" fill-opacity="0.501961" />
<polygon points="132,228 83,184 0,172" id="36" fill="rgb(195,199,203)" fill-opacity="0.501961" />
<circle cx="7" cy="134" r="20" id="37" fill="rgb(252,253,249)" fill-opacity="0.501961" />
<polygon points="158,24 183,15 195,45 169,55" id="38" fill="rgb(251,253,253)" fill-opacity="0.501961"/>
<polygon points="84,206 90,218 53,234 48,222" id="39" fill="rgb(54,61,69)" fill-opacity="0.501961"/>
<polygon points="75,188 70,176 108,162 112,174" id="40" fill="rgb(30,37,41)" fill-opacity="0.501961"/>
<g transform="translate(153 241) rotate(326) scale(53 16)"><ellipse cx="0" cy="0" rx="1" ry="1" id="41" fill="rgb(18,23,26)" fill-opacity="0.501961" /></g>
<rect x="163" y="97" width="5" height="30" id="42" fill="rgb(0,0,0)" fill-opacity="0.501961" />
<polygon points="0,213 44,193 86,208" id="43" fill="rgb(39,43,46)" fill-opacity="0.501961" />
<g transform="translate(40 73) rotate(59) scale(30 18)"><ellipse cx="0" cy="0" rx="1" ry="1" id="44" fill="rgb(178,183,193)" fill-opacity="0.501961" /></g>
<polygon points="116,148 156,133 170,174 130,188" id="45" fill="rgb(163,139,130)" fill-opacity="0.501961"/>
<polygon points="31,34 188,15 13,48" id="46" fill="rgb(0,3,9)" fill-opacity="0.501961" />
<polygon points="169,129 36,176 55,182" id="47" fill="rgb(160,176,190)" fill-opacity="0.501961" />
<ellipse cx="4" cy="96" rx="10" ry="47" id="48" fill="rgb(244,245,243)" fill-opacity="0.501961" />
<polygon points="150,218 146,224 84,181 88,175" id="49" fill="rgb(34,33,30)" fill-opacity="0.501961"/>
<rect x="178" y="53" width="37" height="15" id="50" fill="rgb(33,37,41)" fill-opacity="0.501961" />
<rect x="189" y="181" width="47" height="11" id="51" fill="rgb(158,165,172)" fill-opacity="0.501961" />
<g transform="translate(210 7) rotate(332) scale(27 17)"><ellipse cx="0" cy="0" rx="1" ry="1" id="52" fill="rgb(52,58,61)" fill-opacity="0.501961" /></g>
<ellipse cx="122" cy="5" rx="21" ry="13" id="53" fill="rgb(150,151,151)" fill-opacity="0.501961" />
<polygon points="95,256 0,210 0,256" id="54" fill="rgb(240,241,241)" fill-opacity="0.501961" />
<polygon points="162,104 80,121 63,40 145,23" id="55" fill="rgb(145,151,161)" fill-opacity="0.501961"/>
</svg>