<?xml version="1.0" encoding="UTF-8" standalone="no"?>
<!DOCTYPE svg PUBLIC "-//W3C//DTD SVG 1.1//EN" "http://www.w3.org/Graphics/SVG/1.1/DTD/svg11.dtd">
<svg width="100%" height="100%" viewBox="0 0 815 698" version="1.1" xmlns="http://www.w3.org/2000/svg" xmlns:xlink="http://www.w3.org/1999/xlink" xml:space="preserve" xmlns:serif="http://www.serif.com/" style="fill-rule:evenodd;clip-rule:evenodd;stroke-linejoin:round;stroke-miterlimit:1.41421;">
    <g transform="matrix(1,0,0,1,-371.433,-650.768)">
        <g transform="matrix(2,0,0,2,0,0)">
            <path d="M428.73,534.065L409.279,534.065L390.721,534.065L371.27,534.065C371.27,534.065 375.91,615.595 347.359,615.595L452.641,615.595C424.09,615.595 428.73,534.065 428.73,534.065Z" style="fill:rgb(91,111,128);fill-rule:nonzero;"/>
        </g>
        <g transform="matrix(2,0,0,2,0,0)">
            <path d="M582.562,325.384L217.438,325.384C211.638,325.384 206.937,330.086 206.937,335.885L206.937,569.877C206.937,574.933 211.035,579.032 216.092,579.032L583.908,579.032C588.965,579.032 593.063,574.933 593.063,569.877L593.063,553.183L593.063,551.029L593.063,335.885C593.063,330.086 588.362,325.384 582.562,325.384Z" style="fill:rgb(45,73,90);fill-rule:nonzero;"/>
        </g>
        <g transform="matrix(2,0,0,2,0,0)">
            <rect x="219.457" y="337.501" width="361.086" height="193.871" style="fill:white;fill-rule:nonzero;"/>
        </g>
        <g transform="matrix(2,0,0,2,0,0)">
            <rect x="219.323" y="529.757" width="361.354" height="11.309" style="fill:rgb(91,111,128);fill-rule:nonzero;"/>
        </g>
        <g transform="matrix(2,0,0,2,0,0)">
            <path d="M409.492,559.578C409.492,564.82 405.242,569.069 400,569.069C394.758,569.069 390.508,564.82 390.508,559.578C390.508,554.336 394.758,550.086 400,550.086C405.242,550.086 409.492,554.336 409.492,559.578Z" style="fill:rgb(91,111,128);fill-rule:nonzero;"/>
        </g>
        <g transform="matrix(2,0,0,2,0,0)">
            <rect x="346.273" y="613.962" width="107.454" height="3.655" style="fill:rgb(45,73,90);fill-rule:nonzero;"/>
        </g>
        <g transform="matrix(2,0,0,2,0,0)">
            <path d="M442.947,489.341L357.053,489.341L357.053,403.818C357.053,397.613 362.084,392.582 368.289,392.582L431.711,392.582C437.916,392.582 442.947,397.613 442.947,403.818L442.947,489.341Z" style="fill:rgb(45,73,90);fill-rule:nonzero;"/>
        </g>
        <g transform="matrix(2,0,0,2,0,0)">
            <rect x="359.534" y="408.225" width="80.932" height="78.287" style="fill:white;fill-rule:nonzero;"/>
        </g>
        <g transform="matrix(2,0,0,2,0,0)">
            <path d="M369.186,397.884C370.514,399.628 368.543,401.599 366.8,400.271C365.472,398.527 367.443,396.556 369.186,397.884Z" style="fill:rgb(255,209,103);fill-rule:nonzero;"/>
        </g>
        <g transform="matrix(2,0,0,2,0,0)">
            <path d="M364.694,399.078C364.694,399.977 363.965,400.706 363.065,400.706C362.166,400.706 361.436,399.977 361.436,399.078C361.436,398.178 362.166,397.449 363.065,397.449C363.965,397.449 364.694,398.178 364.694,399.078Z" style="fill:rgb(241,92,77);fill-rule:nonzero;"/>
        </g>
        <g transform="matrix(2,0,0,2,0,0)">
            <path d="M374.114,397.884C375.442,399.628 373.472,401.599 371.728,400.271C370.4,398.527 372.371,396.556 374.114,397.884Z" style="fill:rgb(87,195,181);fill-rule:nonzero;"/>
        </g>
        <g transform="matrix(2,0,0,2,0,0)">
            <path d="M435.22,401.35L380.974,401.35C379.724,401.35 378.701,400.328 378.701,399.078C378.701,397.828 379.724,396.805 380.974,396.805L435.22,396.805C436.47,396.805 437.493,397.828 437.493,399.078C437.493,400.328 436.47,401.35 435.22,401.35Z" style="fill:rgb(62,91,107);fill-rule:nonzero;"/>
        </g>
        <g transform="matrix(2,0,0,2,0,0)">
            <path d="M383.321,441.879C381.458,443.027 379.016,442.447 377.868,440.583C376.72,438.719 377.3,436.278 379.164,435.13C381.028,433.982 383.469,434.562 384.617,436.426C385.765,438.29 385.185,440.731 383.321,441.879ZM387.399,432.805L385.773,433.807C385.325,433.374 384.822,433.015 384.284,432.732L384.726,430.873C384.766,430.702 384.661,430.531 384.491,430.491L381.948,429.886C381.778,429.846 381.606,429.951 381.566,430.122L381.124,431.981C380.516,431.992 379.906,432.086 379.311,432.271L378.309,430.645C378.217,430.496 378.022,430.449 377.873,430.541L375.647,431.912C375.498,432.004 375.452,432.199 375.544,432.348L376.545,433.974C376.112,434.423 375.753,434.925 375.47,435.463L373.611,435.021C373.44,434.981 373.269,435.086 373.229,435.257L372.625,437.799C372.584,437.97 372.689,438.141 372.86,438.181L374.719,438.623C374.73,439.231 374.824,439.842 375.009,440.437L373.383,441.438C373.234,441.53 373.188,441.725 373.28,441.875L374.65,444.1C374.742,444.249 374.937,444.296 375.087,444.204L376.713,443.202C377.161,443.635 377.664,443.994 378.202,444.277L377.76,446.136C377.719,446.307 377.824,446.478 377.995,446.519L380.538,447.123C380.708,447.163 380.879,447.058 380.92,446.887L381.362,445.028C381.969,445.017 382.58,444.923 383.175,444.738L384.176,446.364C384.268,446.513 384.464,446.56 384.613,446.468L386.838,445.097C386.987,445.005 387.034,444.81 386.942,444.661L385.94,443.035C386.373,442.586 386.732,442.084 387.015,441.546L388.875,441.988C389.045,442.028 389.216,441.923 389.257,441.752L389.861,439.21C389.902,439.039 389.796,438.868 389.626,438.828L387.766,438.386C387.756,437.778 387.661,437.167 387.476,436.572L389.102,435.571C389.251,435.479 389.298,435.284 389.206,435.134L387.836,432.909C387.744,432.76 387.548,432.713 387.399,432.805Z" style="fill:rgb(45,73,90);fill-rule:nonzero;"/>
        </g>
        <g transform="matrix(2,0,0,2,0,0)">
            <path d="M384.677,425.188C383.611,425.844 382.216,425.512 381.559,424.447C380.903,423.381 381.235,421.986 382.3,421.33C383.366,420.673 384.761,421.005 385.418,422.07C386.074,423.136 385.742,424.532 384.677,425.188ZM387.008,420.001L386.078,420.573C385.822,420.326 385.535,420.121 385.227,419.959L385.48,418.896C385.503,418.799 385.443,418.701 385.345,418.678L383.892,418.332C383.794,418.309 383.696,418.369 383.673,418.467L383.421,419.53C383.073,419.536 382.724,419.59 382.384,419.695L381.812,418.766L381.562,418.707L380.29,419.49L380.231,419.74L380.803,420.669C380.556,420.925 380.35,421.213 380.189,421.52L379.126,421.268C379.028,421.244 378.931,421.305 378.907,421.402L378.562,422.856C378.539,422.953 378.599,423.051 378.697,423.074L379.759,423.327C379.766,423.674 379.819,424.023 379.925,424.363L378.996,424.936L378.936,425.185L379.72,426.457L379.969,426.517L380.899,425.944C381.155,426.192 381.443,426.397 381.75,426.558L381.497,427.621C381.474,427.719 381.534,427.817 381.632,427.84L383.085,428.185C383.183,428.208 383.281,428.148 383.304,428.051L383.556,426.988C383.904,426.982 384.253,426.928 384.593,426.822L385.165,427.751L385.415,427.811L386.687,427.027L386.746,426.778L386.174,425.848C386.421,425.592 386.627,425.305 386.788,424.997L387.851,425.25C387.949,425.273 388.046,425.213 388.07,425.115L388.415,423.662C388.438,423.564 388.378,423.467 388.281,423.443L387.218,423.191C387.212,422.843 387.158,422.494 387.052,422.154L387.981,421.582L388.041,421.332L387.257,420.06L387.008,420.001Z" style="fill:rgb(45,73,90);fill-rule:nonzero;"/>
        </g>
        <g transform="matrix(2,0,0,2,0,0)">
            <path d="M372.062,428.235C370.59,429.142 368.661,428.684 367.754,427.211C366.847,425.739 367.306,423.81 368.778,422.903C370.251,421.996 372.18,422.455 373.086,423.927C373.993,425.399 373.535,427.328 372.062,428.235ZM375.284,421.067L373.999,421.858C373.645,421.516 373.248,421.232 372.823,421.009L373.172,419.54C373.204,419.405 373.121,419.27 372.986,419.238L370.978,418.76C370.843,418.728 370.708,418.812 370.676,418.946L370.327,420.415C369.846,420.424 369.364,420.498 368.894,420.644L368.103,419.36C368.03,419.242 367.876,419.205 367.758,419.278L366,420.361C365.882,420.433 365.845,420.588 365.918,420.706L366.709,421.99C366.367,422.344 366.084,422.741 365.86,423.166L364.391,422.817C364.256,422.785 364.121,422.869 364.089,423.003L363.612,425.012C363.58,425.147 363.663,425.282 363.798,425.314L365.267,425.663C365.275,426.143 365.35,426.625 365.496,427.095L364.211,427.887C364.093,427.959 364.057,428.114 364.129,428.232L365.212,429.99C365.285,430.107 365.439,430.144 365.557,430.071L366.841,429.28C367.196,429.622 367.593,429.906 368.018,430.129L367.669,431.598C367.637,431.733 367.72,431.868 367.855,431.9L369.863,432.378C369.998,432.41 370.133,432.326 370.165,432.192L370.514,430.723C370.994,430.714 371.477,430.64 371.947,430.494L372.738,431.778C372.811,431.896 372.965,431.933 373.083,431.86L374.841,430.777C374.959,430.705 374.995,430.55 374.923,430.432L374.132,429.148C374.474,428.794 374.757,428.397 374.981,427.972L376.45,428.321C376.584,428.353 376.72,428.27 376.752,428.135L377.229,426.126C377.261,425.992 377.178,425.856 377.043,425.824L375.574,425.475C375.566,424.995 375.491,424.513 375.345,424.043L376.63,423.251C376.747,423.179 376.784,423.024 376.712,422.907L375.629,421.149C375.556,421.031 375.402,420.994 375.284,421.067Z" style="fill:rgb(87,195,181);fill-rule:nonzero;"/>
        </g>
        <g transform="matrix(2,0,0,2,0,0)">
            <path d="M408.452,431.737L401.687,426.001C400.975,426.806 397.689,430.517 397.446,430.698L397.268,430.473C397.456,430.328 399.938,427.544 401.561,425.707L401.658,425.598L408.425,431.335L412.272,427.068L414.541,428.992L420.595,423.187L428.602,429.061L435.37,421.556L435.591,421.743L428.629,429.463L420.622,423.929L414.568,429.394L412.299,427.47L408.452,431.737Z" style="fill:rgb(196,198,197);fill-rule:nonzero;"/>
        </g>
        <g transform="matrix(2,0,0,2,0,0)">
            <path d="M397.962,430.529C397.983,430.843 397.738,431.115 397.414,431.137C397.09,431.159 396.811,430.922 396.79,430.608C396.769,430.294 397.014,430.022 397.338,430C397.662,429.978 397.941,430.215 397.962,430.529Z" style="fill:rgb(55,59,61);fill-rule:nonzero;"/>
        </g>
        <g transform="matrix(2,0,0,2,0,0)">
            <path d="M402.203,425.833C402.224,426.146 401.979,426.419 401.655,426.44C401.331,426.462 401.052,426.225 401.031,425.911C401.01,425.597 401.255,425.325 401.579,425.303C401.902,425.282 402.182,425.519 402.203,425.833Z" style="fill:rgb(55,59,61);fill-rule:nonzero;"/>
        </g>
        <g transform="matrix(2,0,0,2,0,0)">
            <path d="M408.855,431.382C408.876,431.696 408.631,431.968 408.307,431.99C407.984,432.011 407.704,431.774 407.683,431.46C407.662,431.146 407.907,430.874 408.231,430.853C408.555,430.831 408.834,431.068 408.855,431.382Z" style="fill:rgb(55,59,61);fill-rule:nonzero;"/>
        </g>
        <g transform="matrix(2,0,0,2,0,0)">
            <path d="M412.702,427.115C412.723,427.429 412.478,427.701 412.154,427.723C411.831,427.745 411.551,427.508 411.53,427.194C411.509,426.88 411.754,426.608 412.078,426.586C412.402,426.564 412.681,426.801 412.702,427.115Z" style="fill:rgb(55,59,61);fill-rule:nonzero;"/>
        </g>
        <g transform="matrix(2,0,0,2,0,0)">
            <path d="M415.117,428.808C415.138,429.122 414.893,429.394 414.569,429.416C414.246,429.438 413.966,429.201 413.945,428.887C413.924,428.573 414.169,428.301 414.493,428.279C414.817,428.257 415.096,428.494 415.117,428.808Z" style="fill:rgb(55,59,61);fill-rule:nonzero;"/>
        </g>
        <g transform="matrix(2,0,0,2,0,0)">
            <path d="M421.137,423.378C421.158,423.692 420.912,423.964 420.589,423.986C420.265,424.008 419.985,423.771 419.964,423.457C419.943,423.143 420.189,422.871 420.512,422.849C420.836,422.827 421.116,423.064 421.137,423.378Z" style="fill:rgb(55,59,61);fill-rule:nonzero;"/>
        </g>
        <g transform="matrix(2,0,0,2,0,0)">
            <path d="M435.931,421.564C435.953,421.878 435.707,422.15 435.383,422.172C435.06,422.194 434.78,421.957 434.759,421.643C434.738,421.329 434.984,421.057 435.307,421.035C435.631,421.013 435.91,421.25 435.931,421.564Z" style="fill:rgb(55,59,61);fill-rule:nonzero;"/>
        </g>
        <g transform="matrix(2,0,0,2,0,0)">
            <path d="M429.096,429.013C429.117,429.327 428.871,429.599 428.548,429.621C428.224,429.643 427.945,429.406 427.923,429.092C427.902,428.778 428.148,428.506 428.471,428.484C428.795,428.462 429.075,428.699 429.096,429.013Z" style="fill:rgb(55,59,61);fill-rule:nonzero;"/>
        </g>
        <g transform="matrix(2,0,0,2,0,0)">
            <path d="M397.107,443.368L402.731,441.806L406.084,440.262L411.777,443.282L415.018,438.398L420.212,438.948L423.586,434.358L429.068,435.59L435.896,432.151L435.896,448.372L397.215,448.372L397.107,443.368Z" style="fill:rgb(241,92,77);fill-rule:nonzero;"/>
        </g>
        <g transform="matrix(2,0,0,2,0,0)">
            <path d="M402.802,466.19L364.171,466.19C363.86,466.19 363.605,465.935 363.605,465.624C363.605,465.312 363.86,465.058 364.171,465.058L402.802,465.058C403.113,465.058 403.368,465.312 403.368,465.624C403.368,465.935 403.113,466.19 402.802,466.19Z" style="fill:rgb(196,198,197);fill-rule:nonzero;"/>
        </g>
        <g transform="matrix(2,0,0,2,0,0)">
            <path d="M402.802,468.455L364.171,468.455C363.86,468.455 363.605,468.2 363.605,467.889C363.605,467.577 363.86,467.322 364.171,467.322L402.802,467.322C403.113,467.322 403.368,467.577 403.368,467.889C403.368,468.2 403.113,468.455 402.802,468.455Z" style="fill:rgb(196,198,197);fill-rule:nonzero;"/>
        </g>
        <g transform="matrix(2,0,0,2,0,0)">
            <path d="M402.802,474.406L364.171,474.406C363.86,474.406 363.605,474.151 363.605,473.84C363.605,473.528 363.86,473.273 364.171,473.273L402.802,473.273C403.113,473.273 403.368,473.528 403.368,473.84C403.368,474.151 403.113,474.406 402.802,474.406Z" style="fill:rgb(196,198,197);fill-rule:nonzero;"/>
        </g>
        <g transform="matrix(2,0,0,2,0,0)">
            <path d="M402.802,476.671L364.171,476.671C363.86,476.671 363.605,476.416 363.605,476.104C363.605,475.793 363.86,475.538 364.171,475.538L402.802,475.538C403.113,475.538 403.368,475.793 403.368,476.104C403.368,476.416 403.113,476.671 402.802,476.671Z" style="fill:rgb(196,198,197);fill-rule:nonzero;"/>
        </g>
        <g transform="matrix(2,0,0,2,0,0)">
            <path d="M430.401,480.96L417.751,480.96C414.729,480.96 412.256,478.487 412.256,475.465L412.256,469.292C412.256,466.271 414.729,463.798 417.751,463.798L430.401,463.798C433.423,463.798 435.896,466.271 435.896,469.292L435.896,475.465C435.896,478.487 433.423,480.96 430.401,480.96Z" style="fill:rgb(196,198,197);fill-rule:nonzero;"/>
        </g>
        <g transform="matrix(2,0,0,2,0,0)">
            <path d="M341.052,498.817L234.394,498.817L234.394,389.902C234.394,383.696 239.425,378.666 245.63,378.666L329.816,378.666C336.022,378.666 341.052,383.696 341.052,389.902L341.052,498.817Z" style="fill:rgb(45,73,90);fill-rule:nonzero;"/>
        </g>
        <g transform="matrix(2,0,0,2,0,0)">
            <rect x="237.474" y="398.09" width="100.499" height="97.213" style="fill:white;fill-rule:nonzero;"/>
        </g>
        <g transform="matrix(2,0,0,2,0,0)">
            <path d="M331.458,389.554L264.097,389.554C262.545,389.554 261.275,388.284 261.275,386.732C261.275,385.179 262.545,383.909 264.097,383.909L331.458,383.909C333.01,383.909 334.28,385.179 334.28,386.732C334.28,388.284 333.01,389.554 331.458,389.554Z" style="fill:rgb(62,91,107);fill-rule:nonzero;"/>
        </g>
        <g transform="matrix(2,0,0,2,0,0)">
            <clipPath id="_clip1">
                <path d="M258.597,444.66C248.49,441.959 242.486,431.576 245.186,421.468C247.887,411.361 258.269,405.357 268.377,408.057C278.485,410.758 284.489,421.141 281.788,431.248C279.088,441.356 268.705,447.36 258.597,444.66Z"/>
            </clipPath>
            <g clip-path="url(#_clip1)">
                <path d="M258.597,444.66C248.49,441.959 242.486,431.576 245.186,421.469C247.887,411.361 258.269,405.357 268.377,408.057C278.485,410.758 284.489,421.141 281.788,431.248C279.088,441.356 268.705,447.36 258.597,444.66Z" style="fill:rgb(87,195,181);fill-rule:nonzero;"/>
                <path d="M263.487,426.358L280.286,401.787L247.584,406.038L263.487,426.358Z" style="fill:rgb(242,108,108);fill-rule:nonzero;"/>
                <path d="M290.925,435.524L263.389,426.09L288.638,414.289L290.925,435.524Z" style="fill:white;fill-rule:nonzero;"/>
                <path d="M263.487,426.358L280.286,401.787L247.584,406.038L263.487,426.358Z" style="fill:rgb(241,92,77);fill-rule:nonzero;"/>
                <path d="M290.925,435.524L263.487,426.358L280.286,401.787L290.925,435.524Z" style="fill:rgb(45,73,90);fill-rule:nonzero;"/>
            </g>
        </g>
        <g transform="matrix(2,0,0,2,0,0)">
            <path d="M322.268,445.306L320.777,445.306C319.952,445.306 319.277,444.631 319.277,443.806L319.277,426.594C319.277,425.769 319.952,425.094 320.777,425.094L322.268,425.094C323.093,425.094 323.768,425.769 323.768,426.594L323.768,443.806C323.768,444.631 323.093,445.306 322.268,445.306Z" style="fill:rgb(241,92,77);fill-rule:nonzero;"/>
        </g>
        <g transform="matrix(2,0,0,2,0,0)">
            <path d="M315.13,445.306L313.638,445.306C312.813,445.306 312.138,444.631 312.138,443.806L312.138,429.802C312.138,428.977 312.813,428.302 313.638,428.302L315.13,428.302C315.955,428.302 316.63,428.977 316.63,429.802L316.63,443.806C316.63,444.631 315.955,445.306 315.13,445.306Z" style="fill:rgb(45,73,90);fill-rule:nonzero;"/>
        </g>
        <g transform="matrix(2,0,0,2,0,0)">
            <path d="M329.407,445.306L327.915,445.306C327.09,445.306 326.415,444.631 326.415,443.806L326.415,422.771C326.415,421.946 327.09,421.271 327.915,421.271L329.407,421.271C330.232,421.271 330.907,421.946 330.907,422.771L330.907,443.806C330.907,444.631 330.232,445.306 329.407,445.306Z" style="fill:rgb(87,195,181);fill-rule:nonzero;"/>
        </g>
        <g transform="matrix(2,0,0,2,0,0)">
            <path d="M324.941,405.946L303.827,405.946C303.031,405.946 302.381,406.596 302.381,407.392L302.381,415.135C302.381,415.931 303.031,416.581 303.827,416.581L318.76,416.581C319.99,419.013 321.695,422.102 321.695,422.102L321.695,416.581L324.941,416.581C325.737,416.581 326.387,415.931 326.387,415.135L326.387,407.392C326.387,406.596 325.737,405.946 324.941,405.946Z" style="fill:rgb(196,198,197);fill-rule:nonzero;"/>
        </g>
        <g transform="matrix(2,0,0,2,0,0)">
            <path d="M306.949,441.831L289.607,441.831C289.129,441.831 288.738,441.44 288.738,440.962C288.738,440.484 289.129,440.093 289.607,440.093L306.949,440.093C307.427,440.093 307.818,440.484 307.818,440.962C307.818,441.44 307.427,441.831 306.949,441.831Z" style="fill:rgb(196,198,197);fill-rule:nonzero;"/>
        </g>
        <g transform="matrix(2,0,0,2,0,0)">
            <path d="M306.949,445.306L289.607,445.306C289.129,445.306 288.738,444.915 288.738,444.437C288.738,443.959 289.129,443.568 289.607,443.568L306.949,443.568C307.427,443.568 307.818,443.959 307.818,444.437C307.818,444.915 307.427,445.306 306.949,445.306Z" style="fill:rgb(196,198,197);fill-rule:nonzero;"/>
        </g>
        <g transform="matrix(2,0,0,2,0,0)">
            <path d="M306.949,435.374L289.607,435.374C289.129,435.374 288.738,434.983 288.738,434.505C288.738,434.027 289.129,433.636 289.607,433.636L306.949,433.636C307.427,433.636 307.818,434.027 307.818,434.505C307.818,434.983 307.427,435.374 306.949,435.374Z" style="fill:rgb(196,198,197);fill-rule:nonzero;"/>
        </g>
        <g transform="matrix(2,0,0,2,0,0)">
            <path d="M306.949,438.85L289.607,438.85C289.129,438.85 288.738,438.459 288.738,437.981C288.738,437.503 289.129,437.112 289.607,437.112L306.949,437.112C307.427,437.112 307.818,437.503 307.818,437.981C307.818,438.459 307.427,438.85 306.949,438.85Z" style="fill:rgb(196,198,197);fill-rule:nonzero;"/>
        </g>
        <g transform="matrix(2,0,0,2,0,0)">
            <path d="M255.663,458.671C255.663,459.852 254.706,460.809 253.526,460.809C252.346,460.809 251.389,459.852 251.389,458.671C251.389,457.491 252.346,456.534 253.526,456.534C254.706,456.534 255.663,457.491 255.663,458.671Z" style="fill:rgb(87,195,181);fill-rule:nonzero;"/>
        </g>
        <g transform="matrix(2,0,0,2,0,0)">
            <path d="M264.213,458.671C264.213,459.852 263.256,460.809 262.075,460.809C260.894,460.809 259.937,459.852 259.937,458.671C259.937,457.491 260.894,456.534 262.075,456.534C263.256,456.534 264.213,457.491 264.213,458.671Z" style="fill:rgb(87,195,181);fill-rule:nonzero;"/>
        </g>
        <g transform="matrix(2,0,0,2,0,0)">
            <path d="M272.762,458.671C272.762,459.852 271.805,460.809 270.625,460.809C269.444,460.809 268.487,459.852 268.487,458.671C268.487,457.491 269.444,456.534 270.625,456.534C271.805,456.534 272.762,457.491 272.762,458.671Z" style="fill:rgb(87,195,181);fill-rule:nonzero;"/>
        </g>
        <g transform="matrix(2,0,0,2,0,0)">
            <path d="M281.311,458.671C281.311,459.852 280.354,460.809 279.174,460.809C277.994,460.809 277.037,459.852 277.037,458.671C277.037,457.491 277.994,456.534 279.174,456.534C280.354,456.534 281.311,457.491 281.311,458.671Z" style="fill:rgb(87,195,181);fill-rule:nonzero;"/>
        </g>
        <g transform="matrix(2,0,0,2,0,0)">
            <path d="M289.861,458.671C289.861,459.852 288.904,460.809 287.723,460.809C286.543,460.809 285.586,459.852 285.586,458.671C285.586,457.491 286.543,456.534 287.723,456.534C288.904,456.534 289.861,457.491 289.861,458.671Z" style="fill:rgb(87,195,181);fill-rule:nonzero;"/>
        </g>
        <g transform="matrix(2,0,0,2,0,0)">
            <path d="M298.41,458.671C298.41,459.852 297.453,460.809 296.273,460.809C295.092,460.809 294.135,459.852 294.135,458.671C294.135,457.491 295.092,456.534 296.273,456.534C297.453,456.534 298.41,457.491 298.41,458.671Z" style="fill:rgb(87,195,181);fill-rule:nonzero;"/>
        </g>
        <g transform="matrix(2,0,0,2,0,0)">
            <path d="M306.959,458.671C306.959,459.852 306.002,460.809 304.822,460.809C303.641,460.809 302.685,459.852 302.685,458.671C302.685,457.491 303.641,456.534 304.822,456.534C306.002,456.534 306.959,457.491 306.959,458.671Z" style="fill:rgb(87,195,181);fill-rule:nonzero;"/>
        </g>
        <g transform="matrix(2,0,0,2,0,0)">
            <path d="M315.509,458.671C315.509,459.852 314.552,460.809 313.371,460.809C312.191,460.809 311.234,459.852 311.234,458.671C311.234,457.491 312.191,456.534 313.371,456.534C314.552,456.534 315.509,457.491 315.509,458.671Z" style="fill:rgb(87,195,181);fill-rule:nonzero;"/>
        </g>
        <g transform="matrix(2,0,0,2,0,0)">
            <path d="M324.058,458.671C324.058,459.852 323.101,460.809 321.92,460.809C320.74,460.809 319.783,459.852 319.783,458.671C319.783,457.491 320.74,456.534 321.92,456.534C323.101,456.534 324.058,457.491 324.058,458.671Z" style="fill:rgb(196,198,197);fill-rule:nonzero;"/>
        </g>
        <g transform="matrix(2,0,0,2,0,0)">
            <path d="M255.663,467.314C255.663,468.494 254.706,469.451 253.526,469.451C252.346,469.451 251.389,468.494 251.389,467.314C251.389,466.133 252.346,465.176 253.526,465.176C254.706,465.176 255.663,466.133 255.663,467.314Z" style="fill:rgb(241,92,77);fill-rule:nonzero;"/>
        </g>
        <g transform="matrix(2,0,0,2,0,0)">
            <path d="M264.213,467.314C264.213,468.494 263.256,469.451 262.075,469.451C260.894,469.451 259.937,468.494 259.937,467.314C259.937,466.133 260.894,465.176 262.075,465.176C263.256,465.176 264.213,466.133 264.213,467.314Z" style="fill:rgb(241,92,77);fill-rule:nonzero;"/>
        </g>
        <g transform="matrix(2,0,0,2,0,0)">
            <path d="M272.762,467.314C272.762,468.494 271.805,469.451 270.625,469.451C269.444,469.451 268.487,468.494 268.487,467.314C268.487,466.133 269.444,465.176 270.625,465.176C271.805,465.176 272.762,466.133 272.762,467.314Z" style="fill:rgb(241,92,77);fill-rule:nonzero;"/>
        </g>
        <g transform="matrix(2,0,0,2,0,0)">
            <path d="M281.311,467.314C281.311,468.494 280.354,469.451 279.174,469.451C277.994,469.451 277.037,468.494 277.037,467.314C277.037,466.133 277.994,465.176 279.174,465.176C280.354,465.176 281.311,466.133 281.311,467.314Z" style="fill:rgb(241,92,77);fill-rule:nonzero;"/>
        </g>
        <g transform="matrix(2,0,0,2,0,0)">
            <path d="M289.861,467.314C289.861,468.494 288.904,469.451 287.723,469.451C286.543,469.451 285.586,468.494 285.586,467.314C285.586,466.133 286.543,465.176 287.723,465.176C288.904,465.176 289.861,466.133 289.861,467.314Z" style="fill:rgb(241,92,77);fill-rule:nonzero;"/>
        </g>
        <g transform="matrix(2,0,0,2,0,0)">
            <path d="M298.41,467.314C298.41,468.494 297.453,469.451 296.273,469.451C295.092,469.451 294.135,468.494 294.135,467.314C294.135,466.133 295.092,465.176 296.273,465.176C297.453,465.176 298.41,466.133 298.41,467.314Z" style="fill:rgb(196,198,197);fill-rule:nonzero;"/>
        </g>
        <g transform="matrix(2,0,0,2,0,0)">
            <path d="M306.959,467.314C306.959,468.494 306.002,469.451 304.822,469.451C303.641,469.451 302.685,468.494 302.685,467.314C302.685,466.133 303.641,465.176 304.822,465.176C306.002,465.176 306.959,466.133 306.959,467.314Z" style="fill:rgb(196,198,197);fill-rule:nonzero;"/>
        </g>
        <g transform="matrix(2,0,0,2,0,0)">
            <path d="M315.509,467.314C315.509,468.494 314.552,469.451 313.371,469.451C312.191,469.451 311.234,468.494 311.234,467.314C311.234,466.133 312.191,465.176 313.371,465.176C314.552,465.176 315.509,466.133 315.509,467.314Z" style="fill:rgb(196,198,197);fill-rule:nonzero;"/>
        </g>
        <g transform="matrix(2,0,0,2,0,0)">
            <path d="M324.058,467.314C324.058,468.494 323.101,469.451 321.92,469.451C320.74,469.451 319.783,468.494 319.783,467.314C319.783,466.133 320.74,465.176 321.92,465.176C323.101,465.176 324.058,466.133 324.058,467.314Z" style="fill:rgb(196,198,197);fill-rule:nonzero;"/>
        </g>
        <g transform="matrix(2,0,0,2,0,0)">
            <path d="M255.663,475.956C255.663,477.136 254.706,478.093 253.526,478.093C252.346,478.093 251.389,477.136 251.389,475.956C251.389,474.776 252.346,473.819 253.526,473.819C254.706,473.819 255.663,474.776 255.663,475.956Z" style="fill:rgb(45,73,90);fill-rule:nonzero;"/>
        </g>
        <g transform="matrix(2,0,0,2,0,0)">
            <path d="M264.213,475.956C264.213,477.136 263.256,478.093 262.075,478.093C260.894,478.093 259.937,477.136 259.937,475.956C259.937,474.776 260.894,473.819 262.075,473.819C263.256,473.819 264.213,474.776 264.213,475.956Z" style="fill:rgb(45,73,90);fill-rule:nonzero;"/>
        </g>
        <g transform="matrix(2,0,0,2,0,0)">
            <path d="M272.762,475.956C272.762,477.136 271.805,478.093 270.625,478.093C269.444,478.093 268.487,477.136 268.487,475.956C268.487,474.776 269.444,473.819 270.625,473.819C271.805,473.819 272.762,474.776 272.762,475.956Z" style="fill:rgb(45,73,90);fill-rule:nonzero;"/>
        </g>
        <g transform="matrix(2,0,0,2,0,0)">
            <path d="M281.311,475.956C281.311,477.136 280.354,478.093 279.174,478.093C277.994,478.093 277.037,477.136 277.037,475.956C277.037,474.776 277.994,473.819 279.174,473.819C280.354,473.819 281.311,474.776 281.311,475.956Z" style="fill:rgb(45,73,90);fill-rule:nonzero;"/>
        </g>
        <g transform="matrix(2,0,0,2,0,0)">
            <path d="M289.861,475.956C289.861,477.136 288.904,478.093 287.723,478.093C286.543,478.093 285.586,477.136 285.586,475.956C285.586,474.776 286.543,473.819 287.723,473.819C288.904,473.819 289.861,474.776 289.861,475.956Z" style="fill:rgb(45,73,90);fill-rule:nonzero;"/>
        </g>
        <g transform="matrix(2,0,0,2,0,0)">
            <path d="M298.41,475.956C298.41,477.136 297.453,478.093 296.273,478.093C295.092,478.093 294.135,477.136 294.135,475.956C294.135,474.776 295.092,473.819 296.273,473.819C297.453,473.819 298.41,474.776 298.41,475.956Z" style="fill:rgb(45,73,90);fill-rule:nonzero;"/>
        </g>
        <g transform="matrix(2,0,0,2,0,0)">
            <path d="M306.959,475.956C306.959,477.136 306.002,478.093 304.822,478.093C303.641,478.093 302.685,477.136 302.685,475.956C302.685,474.776 303.641,473.819 304.822,473.819C306.002,473.819 306.959,474.776 306.959,475.956Z" style="fill:rgb(196,198,197);fill-rule:nonzero;"/>
        </g>
        <g transform="matrix(2,0,0,2,0,0)">
            <path d="M315.509,475.956C315.509,477.136 314.552,478.093 313.371,478.093C312.191,478.093 311.234,477.136 311.234,475.956C311.234,474.776 312.191,473.819 313.371,473.819C314.552,473.819 315.509,474.776 315.509,475.956Z" style="fill:rgb(196,198,197);fill-rule:nonzero;"/>
        </g>
        <g transform="matrix(2,0,0,2,0,0)">
            <path d="M324.058,475.956C324.058,477.136 323.101,478.093 321.92,478.093C320.74,478.093 319.783,477.136 319.783,475.956C319.783,474.776 320.74,473.819 321.92,473.819C323.101,473.819 324.058,474.776 324.058,475.956Z" style="fill:rgb(196,198,197);fill-rule:nonzero;"/>
        </g>
        <g transform="matrix(2,0,0,2,0,0)">
            <path d="M255.663,484.598C255.663,485.779 254.706,486.736 253.526,486.736C252.346,486.736 251.389,485.779 251.389,484.598C251.389,483.418 252.346,482.461 253.526,482.461C254.706,482.461 255.663,483.418 255.663,484.598Z" style="fill:rgb(255,209,103);fill-rule:nonzero;"/>
        </g>
        <g transform="matrix(2,0,0,2,0,0)">
            <path d="M264.213,484.598C264.213,485.779 263.256,486.736 262.075,486.736C260.894,486.736 259.937,485.779 259.937,484.598C259.937,483.418 260.894,482.461 262.075,482.461C263.256,482.461 264.213,483.418 264.213,484.598Z" style="fill:rgb(255,209,103);fill-rule:nonzero;"/>
        </g>
        <g transform="matrix(2,0,0,2,0,0)">
            <path d="M272.762,484.598C272.762,485.779 271.805,486.736 270.625,486.736C269.444,486.736 268.487,485.779 268.487,484.598C268.487,483.418 269.444,482.461 270.625,482.461C271.805,482.461 272.762,483.418 272.762,484.598Z" style="fill:rgb(196,198,197);fill-rule:nonzero;"/>
        </g>
        <g transform="matrix(2,0,0,2,0,0)">
            <path d="M281.311,484.598C281.311,485.779 280.354,486.736 279.174,486.736C277.994,486.736 277.037,485.779 277.037,484.598C277.037,483.418 277.994,482.461 279.174,482.461C280.354,482.461 281.311,483.418 281.311,484.598Z" style="fill:rgb(196,198,197);fill-rule:nonzero;"/>
        </g>
        <g transform="matrix(2,0,0,2,0,0)">
            <path d="M289.861,484.598C289.861,485.779 288.904,486.736 287.723,486.736C286.543,486.736 285.586,485.779 285.586,484.598C285.586,483.418 286.543,482.461 287.723,482.461C288.904,482.461 289.861,483.418 289.861,484.598Z" style="fill:rgb(196,198,197);fill-rule:nonzero;"/>
        </g>
        <g transform="matrix(2,0,0,2,0,0)">
            <path d="M298.41,484.598C298.41,485.779 297.453,486.736 296.273,486.736C295.092,486.736 294.135,485.779 294.135,484.598C294.135,483.418 295.092,482.461 296.273,482.461C297.453,482.461 298.41,483.418 298.41,484.598Z" style="fill:rgb(196,198,197);fill-rule:nonzero;"/>
        </g>
        <g transform="matrix(2,0,0,2,0,0)">
            <path d="M306.959,484.598C306.959,485.779 306.002,486.736 304.822,486.736C303.641,486.736 302.685,485.779 302.685,484.598C302.685,483.418 303.641,482.461 304.822,482.461C306.002,482.461 306.959,483.418 306.959,484.598Z" style="fill:rgb(196,198,197);fill-rule:nonzero;"/>
        </g>
        <g transform="matrix(2,0,0,2,0,0)">
            <path d="M315.509,484.598C315.509,485.779 314.552,486.736 313.371,486.736C312.191,486.736 311.234,485.779 311.234,484.598C311.234,483.418 312.191,482.461 313.371,482.461C314.552,482.461 315.509,483.418 315.509,484.598Z" style="fill:rgb(196,198,197);fill-rule:nonzero;"/>
        </g>
        <g transform="matrix(2,0,0,2,0,0)">
            <path d="M324.058,484.598C324.058,485.779 323.101,486.736 321.92,486.736C320.74,486.736 319.783,485.779 319.783,484.598C319.783,483.418 320.74,482.461 321.92,482.461C323.101,482.461 324.058,483.418 324.058,484.598Z" style="fill:rgb(196,198,197);fill-rule:nonzero;"/>
        </g>
        <g transform="matrix(2,0,0,2,0,0)">
            <path d="M565.606,498.817L458.948,498.817L458.948,389.902C458.948,383.696 463.978,378.666 470.184,378.666L554.37,378.666C560.575,378.666 565.606,383.696 565.606,389.902L565.606,498.817Z" style="fill:rgb(45,73,90);fill-rule:nonzero;"/>
        </g>
        <g transform="matrix(2,0,0,2,0,0)">
            <rect x="462.027" y="398.09" width="100.499" height="97.213" style="fill:white;fill-rule:nonzero;"/>
        </g>
        <g transform="matrix(2,0,0,2,0,0)">
            <path d="M474.014,385.25C475.663,387.415 473.215,389.862 471.05,388.213C469.401,386.048 471.849,383.601 474.014,385.25Z" style="fill:rgb(255,209,103);fill-rule:nonzero;"/>
        </g>
        <g transform="matrix(2,0,0,2,0,0)">
            <path d="M468.435,386.732C468.435,387.849 467.53,388.754 466.413,388.754C465.296,388.754 464.39,387.849 464.39,386.732C464.39,385.615 465.296,384.709 466.413,384.709C467.53,384.709 468.435,385.615 468.435,386.732Z" style="fill:rgb(241,92,77);fill-rule:nonzero;"/>
        </g>
        <g transform="matrix(2,0,0,2,0,0)">
            <path d="M480.133,385.25C481.782,387.415 479.335,389.862 477.17,388.213C475.521,386.048 477.968,383.601 480.133,385.25Z" style="fill:rgb(87,195,181);fill-rule:nonzero;"/>
        </g>
        <g transform="matrix(2,0,0,2,0,0)">
            <path d="M556.012,389.554L488.651,389.554C487.098,389.554 485.828,388.284 485.828,386.732C485.828,385.179 487.098,383.909 488.651,383.909L556.012,383.909C557.564,383.909 558.834,385.179 558.834,386.732C558.834,388.284 557.564,389.554 556.012,389.554Z" style="fill:rgb(62,91,107);fill-rule:nonzero;"/>
        </g>
        <g transform="matrix(2,0,0,2,0,0)">
            <path d="M487.728,468.889L487.728,484.166C487.728,485.469 486.662,486.536 485.358,486.536L484.082,486.536C482.778,486.536 481.712,485.469 481.712,484.166L481.712,468.889C481.712,467.585 482.778,466.519 484.082,466.519L485.358,466.519C486.662,466.519 487.728,467.585 487.728,468.889Z" style="fill:rgb(241,92,77);fill-rule:nonzero;"/>
        </g>
        <g transform="matrix(2,0,0,2,0,0)">
            <path d="M496.914,456.899L496.914,484.166C496.914,485.469 495.847,486.536 494.544,486.536L493.267,486.536C491.964,486.536 490.897,485.469 490.897,484.166L490.897,456.899C490.897,455.595 491.964,454.529 493.267,454.529L494.544,454.529C495.847,454.529 496.914,455.595 496.914,456.899Z" style="fill:rgb(45,73,90);fill-rule:nonzero;"/>
        </g>
        <g transform="matrix(2,0,0,2,0,0)">
            <path d="M506.099,464.22L506.099,484.166C506.099,485.469 505.033,486.536 503.73,486.536L502.453,486.536C501.149,486.536 500.083,485.469 500.083,484.166L500.083,464.22C500.083,462.917 501.149,461.85 502.453,461.85L503.73,461.85C505.033,461.85 506.099,462.917 506.099,464.22Z" style="fill:rgb(241,92,77);fill-rule:nonzero;"/>
        </g>
        <g transform="matrix(2,0,0,2,0,0)">
            <path d="M515.284,453.274L515.284,484.166C515.284,485.469 514.219,486.536 512.914,486.536L511.638,486.536C510.335,486.536 509.268,485.469 509.268,484.166L509.268,453.274C509.268,451.971 510.335,450.904 511.638,450.904L512.914,450.904C514.219,450.904 515.284,451.971 515.284,453.274Z" style="fill:rgb(45,73,90);fill-rule:nonzero;"/>
        </g>
        <g transform="matrix(2,0,0,2,0,0)">
            <path d="M524.471,456.76L524.471,484.166C524.471,485.469 523.404,486.536 522.101,486.536L520.823,486.536C519.521,486.536 518.453,485.469 518.453,484.166L518.453,456.76C518.453,455.456 519.521,454.39 520.823,454.39L522.101,454.39C523.404,454.39 524.471,455.456 524.471,456.76Z" style="fill:rgb(241,92,77);fill-rule:nonzero;"/>
        </g>
        <g transform="matrix(2,0,0,2,0,0)">
            <path d="M533.656,446.443L533.656,484.166C533.656,485.469 532.59,486.536 531.286,486.536L530.009,486.536C528.706,486.536 527.64,485.469 527.64,484.166L527.64,446.443C527.64,445.139 528.706,444.073 530.009,444.073L531.286,444.073C532.59,444.073 533.656,445.139 533.656,446.443Z" style="fill:rgb(45,73,90);fill-rule:nonzero;"/>
        </g>
        <g transform="matrix(2,0,0,2,0,0)">
            <path d="M542.842,442.818L542.842,484.166C542.842,485.469 541.775,486.536 540.472,486.536L539.195,486.536C537.892,486.536 536.825,485.469 536.825,484.166L536.825,442.818C536.825,441.514 537.892,440.448 539.195,440.448L540.472,440.448C541.775,440.448 542.842,441.514 542.842,442.818Z" style="fill:rgb(241,92,77);fill-rule:nonzero;"/>
        </g>
        <g transform="matrix(2,0,0,2,0,0)">
            <path d="M482.458,414.833C482.458,419.176 478.938,422.696 474.595,422.696C470.253,422.696 466.733,419.176 466.733,414.833C466.733,410.49 470.253,406.97 474.595,406.97C478.938,406.97 482.458,410.49 482.458,414.833Z" style="fill:rgb(196,198,197);fill-rule:nonzero;"/>
        </g>
        <g transform="matrix(2,0,0,2,0,0)">
            <path d="M474.618,415.536L474.618,404.922C469.249,404.922 464.897,409.275 464.897,414.644C464.897,420.013 469.249,424.365 474.618,424.365C479.686,424.365 483.843,420.486 484.294,415.536L474.618,415.536Z" style="fill:rgb(241,92,77);fill-rule:nonzero;"/>
        </g>
        <g transform="matrix(2,0,0,2,0,0)">
            <path d="M508.191,414.833C508.191,419.176 504.671,422.696 500.328,422.696C495.986,422.696 492.465,419.176 492.465,414.833C492.465,410.49 495.986,406.97 500.328,406.97C504.671,406.97 508.191,410.49 508.191,414.833Z" style="fill:rgb(196,198,197);fill-rule:nonzero;"/>
        </g>
        <g transform="matrix(2,0,0,2,0,0)">
            <path d="M500.351,404.922C494.982,404.922 490.629,409.275 490.629,414.644C490.629,420.013 494.982,424.365 500.351,424.365L500.351,404.922Z" style="fill:rgb(45,73,90);fill-rule:nonzero;"/>
        </g>
        <g transform="matrix(2,0,0,2,0,0)">
            <path d="M533.924,414.833C533.924,419.176 530.404,422.696 526.061,422.696C521.719,422.696 518.198,419.176 518.198,414.833C518.198,410.49 521.719,406.97 526.061,406.97C530.404,406.97 533.924,410.49 533.924,414.833Z" style="fill:rgb(196,198,197);fill-rule:nonzero;"/>
        </g>
        <g transform="matrix(2,0,0,2,0,0)">
            <path d="M519.21,421.518L526.084,414.644L526.084,404.922C520.715,404.922 516.362,409.275 516.362,414.644C516.362,417.328 517.45,419.759 519.21,421.518Z" style="fill:rgb(87,195,181);fill-rule:nonzero;"/>
        </g>
        <g transform="matrix(2,0,0,2,0,0)">
            <path d="M559.657,414.833C559.657,419.176 556.137,422.696 551.794,422.696C547.452,422.696 543.931,419.176 543.931,414.833C543.931,410.49 547.452,406.97 551.794,406.97C556.137,406.97 559.657,410.49 559.657,414.833Z" style="fill:rgb(196,198,197);fill-rule:nonzero;"/>
        </g>
        <g transform="matrix(2,0,0,2,0,0)">
            <path d="M551.817,404.922C549.132,404.922 546.702,406.011 544.943,407.77L551.817,414.644L551.817,404.922Z" style="fill:rgb(255,209,103);fill-rule:nonzero;"/>
        </g>
        <g transform="matrix(2,0,0,2,0,0)">
            <path d="M514.495,435.926L466.525,435.926C466.138,435.926 465.822,435.61 465.822,435.223C465.822,434.836 466.138,434.52 466.525,434.52L514.495,434.52C514.882,434.52 515.198,434.836 515.198,435.223C515.198,435.61 514.882,435.926 514.495,435.926Z" style="fill:rgb(196,198,197);fill-rule:nonzero;"/>
        </g>
        <g transform="matrix(2,0,0,2,0,0)">
            <path d="M514.495,438.738L466.525,438.738C466.138,438.738 465.822,438.422 465.822,438.035C465.822,437.649 466.138,437.332 466.525,437.332L514.495,437.332C514.882,437.332 515.198,437.649 515.198,438.035C515.198,438.422 514.882,438.738 514.495,438.738Z" style="fill:rgb(196,198,197);fill-rule:nonzero;"/>
        </g>
        <g transform="matrix(2,0,0,2,0,0)">
            <path d="M403.671,512.427C405.83,549.174 377.791,580.715 341.043,582.874C304.295,585.034 272.754,556.994 270.594,520.246C268.435,483.498 296.474,451.958 333.222,449.798C369.97,447.639 401.511,475.678 403.671,512.427Z" style="fill:rgb(231,231,230);fill-rule:nonzero;"/>
        </g>
        <g transform="matrix(2,0,0,2,0,0)">
            <path d="M394.123,512.987C395.775,541.107 374.32,565.242 346.2,566.894C318.081,568.546 293.946,547.091 292.293,518.971C290.641,490.852 312.097,466.717 340.216,465.064C368.336,463.412 392.471,484.868 394.123,512.987Z" style="fill:rgb(239,239,239);fill-rule:nonzero;"/>
        </g>
        <g transform="matrix(2,0,0,2,0,0)">
            <path d="M380.083,513.812C380.829,526.508 371.142,537.404 358.447,538.151C345.751,538.897 334.854,529.21 334.108,516.514C333.362,503.818 343.049,492.922 355.745,492.176C368.44,491.43 379.337,501.117 380.083,513.812Z" style="fill:white;fill-rule:nonzero;"/>
        </g>
        <g transform="matrix(2,0,0,2,0,0)">
            <path d="M260.84,610.35L247.303,597.951C245.585,596.378 245.49,593.707 247.092,592.016L282.95,554.149C284.499,552.513 287.126,552.42 288.787,553.942L302.325,566.34C304.042,567.914 304.137,570.584 302.536,572.275L266.677,610.142C265.129,611.778 262.502,611.872 260.84,610.35Z" style="fill:rgb(26,186,162);fill-rule:nonzero;"/>
        </g>
        <g transform="matrix(2,0,0,2,0,0)">
            <clipPath id="_clip2">
                <path d="M258.263,613.071L244.726,600.672C243.008,599.099 242.913,596.428 244.515,594.737L280.373,556.87C281.922,555.234 284.549,555.141 286.21,556.663L299.747,569.062C301.465,570.635 301.56,573.306 299.959,574.997L264.1,612.864C262.551,614.5 259.924,614.593 258.263,613.071Z"/>
            </clipPath>
            <g clip-path="url(#_clip2)">
                <path d="M299.235,556.583C278.268,537.379 277.135,505.056 296.705,484.39C316.275,463.723 349.138,462.538 370.106,481.743C391.073,500.948 392.206,533.27 372.636,553.936C353.065,574.603 320.203,575.788 299.235,556.583ZM384.28,466.775C354.925,439.888 308.918,441.547 281.519,470.481C254.12,499.414 255.706,544.665 285.061,571.552C314.416,598.438 360.423,596.779 387.822,567.846C415.22,538.912 413.635,493.661 384.28,466.775Z" style="fill:rgb(31,149,130);fill-rule:nonzero;"/>
            </g>
        </g>
        <g transform="matrix(2,0,0,2,0,0)">
            <path d="M231.831,656.303L202.655,629.58L233.849,596.638L263.025,623.362L231.831,656.303Z" style="fill:rgb(26,186,162);fill-rule:nonzero;"/>
        </g>
        <g transform="matrix(2,0,0,2,0,0)">
            <path d="M187.019,646.091C185.215,647.997 185.295,650.982 187.197,652.724L209.456,673.111C211.358,674.854 214.391,674.72 216.196,672.814L231.831,656.303L202.655,629.58L187.019,646.091Z" style="fill:rgb(90,195,182);fill-rule:nonzero;"/>
        </g>
        <g transform="matrix(2,0,0,2,0,0)">
            <path d="M278.178,600.539L255.92,580.152C254.018,578.409 251.008,578.518 249.232,580.393L233.849,596.638L263.025,623.362L278.409,607.116C280.185,605.241 280.081,602.281 278.178,600.539Z" style="fill:rgb(90,195,182);fill-rule:nonzero;"/>
        </g>
        <g transform="matrix(2,0,0,2,0,0)">
            <path d="M262.453,623.967L233.276,597.243L233.849,596.638L263.025,623.362L262.453,623.967Z" style="fill:rgb(31,149,130);fill-rule:nonzero;"/>
        </g>
        <g transform="matrix(2,0,0,2,0,0)">
            <path d="M231.67,656.473L202.494,629.75L203.067,629.145L232.243,655.868L231.67,656.473Z" style="fill:rgb(31,149,130);fill-rule:nonzero;"/>
        </g>
        <g transform="matrix(2,0,0,2,0,0)">
            <path d="M325.283,574.083C293.39,567.539 272.841,536.379 279.385,504.486C285.93,472.593 317.09,452.045 348.982,458.589C380.875,465.134 401.424,496.293 394.88,528.186C388.335,560.079 357.175,580.628 325.283,574.083ZM386.742,463.948C357.387,437.061 311.38,438.72 283.981,467.654C256.583,496.587 258.168,541.838 287.523,568.725C316.878,595.611 362.885,593.952 390.284,565.019C417.683,536.086 416.097,490.835 386.742,463.948Z" style="fill:rgb(90,195,182);fill-rule:nonzero;"/>
        </g>
        <g transform="matrix(2,0,0,2,0,0)">
            <path d="M376.34,474.932C353.178,453.717 316.745,455.031 295.125,477.861C273.506,500.691 274.762,536.525 297.925,557.74C321.087,578.955 357.521,577.642 379.14,554.811C400.759,531.982 399.503,496.148 376.34,474.932ZM295.983,559.791C271.672,537.525 270.354,499.917 293.044,475.955C315.735,451.994 353.972,450.615 378.283,472.881C402.593,495.148 403.911,532.756 381.221,556.717C358.531,580.678 320.293,582.058 295.983,559.791Z" style="fill:rgb(31,149,130);fill-rule:nonzero;"/>
        </g>
        <g transform="matrix(2,0,0,2,0,0)">
            <path d="M309.939,518.992L306.374,518.992L306.374,525.704C306.374,525.704 310.219,527.032 314.169,527.032C319.553,527.032 323.607,524.165 323.607,518.922C323.607,510.707 311.827,512.315 311.827,508.26C311.827,506.862 313.051,505.778 315.532,505.778C317.036,505.778 318.609,506.303 318.609,506.303L319.483,509.274L322.699,509.274L322.873,502.912C322.873,502.912 319.133,501.514 315.183,501.514C310.114,501.514 306.304,504.1 306.304,508.924C306.304,517.559 318.119,515.741 318.119,519.831C318.119,521.684 316.127,522.662 313.89,522.662C311.862,522.662 310.464,521.928 310.464,521.928L309.939,518.992Z" style="fill:rgb(45,73,90);fill-rule:nonzero;"/>
        </g>
        <g transform="matrix(2,0,0,2,0,0)">
            <path d="M342.029,511.896L334.968,511.896L334.968,506.128L340.736,506.128L341.61,508.68L344.756,508.68L344.756,501.933L334.968,501.933L326.928,502.108L326.928,505.079L329.55,506.128L329.55,522.557L326.928,523.606L326.928,526.577L345.175,526.577L345.175,519.516L342.029,519.516L341.225,522.383L334.968,522.383L334.968,515.741L342.029,515.741L342.029,511.896Z" style="fill:rgb(45,73,90);fill-rule:nonzero;"/>
        </g>
        <g transform="matrix(2,0,0,2,0,0)">
            <path d="M360.556,501.514C353.46,501.514 349.021,506.407 349.021,514.448C349.021,522.662 352.866,527.032 359.857,527.032C366.849,527.032 371.568,521.788 371.568,513.923C371.568,506.128 367.548,501.514 360.556,501.514ZM360.382,505.883C363.877,505.883 365.625,508.33 365.625,514.098C365.625,520.39 363.528,522.662 360.032,522.662C356.536,522.662 354.963,520.041 354.963,514.273C354.963,508.05 356.886,505.883 360.382,505.883Z" style="fill:rgb(45,73,90);fill-rule:nonzero;"/>
        </g>
    </g>
</svg>
