<?xml version="1.0" standalone="no"?>
<svg xmlns="http://www.w3.org/2000/svg" version="1.2" baseProfile="tiny" width="256" height="256" viewBox="0 0 256 256">
<rect x="0" y="0" width="256" height="256" id="0" fill="rgb(92,92,92)" fill-opacity="1" />
<circle cx="161" cy="108" r="89" id="1" fill="rgb(133,133,133)" fill-opacity="0.501961" />
<ellipse cx="127" cy="248" rx="255" ry="55" id="2" fill="rgb(42,42,42)" fill-opacity="0.501961" />
<ellipse cx="25" cy="157" rx="24" ry="81" id="3" fill="rgb(49,49,49)" fill-opacity="0.501961" />
<rect x="36" y="60" width="14" height="37" id="4" fill="rgb(209,210,210)" fill-opacity="0.501961" />
<g transform="translate(147 109) rotate(0) scale(65 9)"><ellipse cx="0" cy="0" rx="1" ry="1" id="5" fill="rgb(186,186,186)" fill-opacity="0.501961" /></g>
<polygon points="76,44 76,31 166,32" id="6" fill="rgb(214,214,213)" fill-opacity="0.501961" />
<ellipse cx="180" cy="181" rx="152" ry="5" id="7" fill="rgb(202,202,202)" fill-opacity="0.501961" />
<g transform="translate(0 49) rotate(283) scale(49 35)"><ellipse cx="0" cy="0" rx="1" ry="1" id="8" fill="rgb(39,39,39)" fill-opacity="0.501961" /></g>
<rect x="96" y="0" width="11" height="182" id="9" fill="rgb(41,41,41)" fill-opacity="0.501961" />
<rect x="209" y="91" width="18" height="80" id="10" fill="rgb(49,49,49)" fill-opacity="0.501961" />
<ellipse cx="237" cy="36" rx="66" ry="5" id="11" fill="rgb(197,197,197)" fill-opacity="0.501961" />
<rect x="0" y="96" width="4" height="29" id="12" fill="rgb(249,249,249)" fill-opacity="0.501961" />
<ellipse cx="132" cy="13" rx="191" ry="12" id="13" fill="rgb(56,57,56)" fill-opacity="0.501961" />
<circle cx="120" cy="203" r="19" id="14" fill="rgb(105,105,105)" fill-opacity="0.501961" />
<rect x="161" y="81" width="10" height="111" id="15" fill="rgb(42,42,42)" fill-opacity="0.501961" />
<rect x="72" y="101" width="23" height="16" id="16" fill="rgb(203,203,202)" fill-opacity="0.501961" />
<rect x="181" y="186" width="33" height="33" id="17" fill="rgb(123,123,123)" fill-opacity="0.501961" />
<circle cx="255" cy="84" r="49" id="18" fill="rgb(94,94,94)" fill-opacity="0.501961" />
<circle cx="246" cy="88" r="17" id="19" fill="rgb(137,137,137)" fill-opacity="0.501961" />
<rect x="50" y="40" width="76" height="18" id="20" fill="rgb(70,70,70)" fill-opacity="0.501961" />
<ellipse cx="66" cy="178" rx="28" ry="4" id="21" fill="rgb(191,191,191)" fill-opacity="0.501961" />
<polygon points="162,40 128,58 254,52" id="22" fill="rgb(65,65,65)" fill-opacity="0.501961" />
<polygon points="205,158 200,157 203,83 208,84" id="23" fill="rgb(198,200,198)" fill-opacity="0.501961"/>
<ellipse cx="49" cy="11" rx="24" ry="2" id="24" fill="rgb(247,247,247)" fill-opacity="0.501961" />
<rect x="0" y="126" width="41" height="90" id="25" fill="rgb(60,60,60)" fill-opacity="0.501961" />
<polygon points="225,62 191,63 190,56 224,55" id="26" fill="rgb(179,179,179)" fill-opacity="0.501961"/>
<ellipse cx="141" cy="70" rx="39" ry="13" id="27" fill="rgb(136,136,136)" fill-opacity="0.501961" />
<rect x="162" y="17" width="9" height="76" id="28" fill="rgb(53,53,53)" fill-opacity="0.501961" />
<ellipse cx="211" cy="188" rx="86" ry="1" id="29" fill="rgb(237,237,237)" fill-opacity="0.501961" />
<rect x="208" y="16" width="19" height="66" id="30" fill="rgb(74,74,74)" fill-opacity="0.501961" />
<rect x="108" y="32" width="51" height="7" id="31" fill="rgb(234,234,234)" fill-opacity="0.501961" />
<polygon points="93,77 138,78 137,95 92,94" id="32" fill="rgb(78,78,78)" fill-opacity="0.501961"/>
<polygon points="103,110 67,109 68,106 104,107" id="33" fill="rgb(66,66,66)" fill-opacity="0.501961"/>
<polygon points="37,51 64,56 63,63 36,58" id="34" fill="rgb(154,154,154)" fill-opacity="0.501961"/>
<circle cx="255" cy="151" r="39" id="35" fill="rgb(96,96,96)" fill-opacity="0.501961" />
<ellipse cx="217" cy="153" rx="48" ry="8" id="36" fill="rgb(121,120,121)" fill-opacity="0.501961" />
<g transform="translate(171 104) rotate(90) scale(3 38)"><ellipse cx="0" cy="0" rx="1" ry="1" id="37" fill="rgb(219,219,219)" fill-opacity="0.501961" /></g>
<rect x="84" y="118" width="98" height="4" id="38" fill="rgb(62,62,62)" fill-opacity="0.501961" />
<polygon points="256,33 213,49 256,42" id="39" fill="rgb(42,42,42)" fill-opacity="0.501961" />
<rect x="200" y="175" width="26" height="2" id="40" fill="rgb(255,255,255)" fill-opacity="0.501961" />
<circle cx="176" cy="65" r="5" id="41" fill="rgb(197,197,197)" fill-opacity="0.501961" />
<polygon points="255,1 262,20 235,30 228,11" id="42" fill="rgb(56,56,56)" fill-opacity="0.501961"/>
<polygon points="208,147 256,126 211,106" id="43" fill="rgb(62,62,62)" fill-opacity="0.501961" />
<rect x="58" y="74" width="13" height="62" id="44" fill="rgb(74,74,74)" fill-opacity="0.501961" />
<rect x="204" y="70" width="4" height="6" id="45" fill="rgb(255,255,255)" fill-opacity="0.501961" />
<ellipse cx="253" cy="116" rx="22" ry="1" id="46" fill="rgb(255,255,255)" fill-opacity="0.501961" />
<rect x="157" y="28" width="9" height="7" id="47" fill="rgb(53,53,53)" fill-opacity="0.501961" />
<rect x="71" y="125" width="24" height="53" id="48" fill="rgb(114,114,114)" fill-opacity="0.501961" />
<rect x="131" y="24" width="43" height="3" id="49" fill="rgb(168,167,168)" fill-opacity="0.501961" />
<polygon points="93,39 62,41 121,89" id="50" fill="rgb(73,73,73)" fill-opacity="0.501961" />
<polygon points="196,117 177,118 176,110 195,109" id="51" fill="rgb(221,221,221)" fill-opacity="0.501961"/>
<rect x="220" y="50" width="35" height="15" id="52" fill="rgb(132,132,132)" fill-opacity="0.501961" />
<rect x="18" y="149" width="52" height="19" id="53" fill="rgb(67,67,67)" fill-opacity="0.501961" />
<ellipse cx="112" cy="244" rx="255" ry="26" id="54" fill="rgb(59,59,59)" fill-opacity="0.501961" />
<polygon points="148,89 137,86 211,80" id="55" fill="rgb(41,41,41)" fill-opacity="0.501961" />
<ellipse cx="211" cy="29" rx="48" ry="1" id="56" fill="rgb(158,158,158)" fill-opacity="0.501961" />
<polygon points="176,85 253,68 222,79" id="57" fill="rgb(48,48,48)" fill-opacity="0.501961" />
<rect x="137" y="27" width="68" height="5" id="58" fill="rgb(61,61,61)" fill-opacity="0.501961" />
<rect x="101" y="107" width="97" height="2" id="59" fill="rgb(23,23,23)" fill-opacity="0.501961" />
<rect x="71" y="102" width="79" height="5" id="60" fill="rgb(198,198,198)" fill-opacity="0.501961" />
<ellipse cx="197" cy="136" rx="1" ry="29" id="61" fill="rgb(0,0,0)" fill-opacity="0.501961" />
<ellipse cx="205" cy="129" rx="3" ry="13" id="62" fill="rgb(203,206,202)" fill-opacity="0.501961" />
<rect x="13" y="0" width="26" height="3" id="63" fill="rgb(218,218,218)" fill-opacity="0.501961" />
<g transform="translate(97 5) rotate(14) scale(64 11)"><ellipse cx="0" cy="0" rx="1" ry="1" id="64" fill="rgb(54,54,54)" fill-opacity="0.501961" /></g>
<polygon points="129,0 134,44 141,22" id="65" fill="rgb(74,75,75)" fill-opacity="0.501961" />
<polygon points="71,35 108,38 69,38" id="66" fill="rgb(235,235,233)" fill-opacity="0.501961" />
</svg>