<?xml version="1.0" encoding="UTF-8" standalone="no"?>
<!DOCTYPE svg PUBLIC "-//W3C//DTD SVG 1.1//EN" "http://www.w3.org/Graphics/SVG/1.1/DTD/svg11.dtd">
<svg width="100%" height="100%" viewBox="0 0 111 105" version="1.1" style="fill-rule:evenodd;clip-rule:evenodd;stroke-linejoin:round;stroke-miterlimit:1.41421;">
    <g transform="matrix(1,0,0,1,-20.7009,-11.464)">
        <g transform="matrix(1,0,0,1,-63.7941,-238)">
            <rect x="129.641" y="258.13" width="20.363" height="21.166" style="fill:rgb(35,35,35);fill-rule:nonzero;"/>
        </g>
        <g transform="matrix(1,0,0,1,-63.7941,-238)">
            <path d="M139.823,249.464L139.823,261.414L128.822,261.414C126.928,261.414 125.39,259.881 125.39,257.983L125.39,252.896C125.39,251.001 126.928,249.464 128.822,249.464L139.823,249.464Z" style="fill:rgb(106,206,242);fill-rule:nonzero;"/>
        </g>
        <g transform="matrix(1,0,0,1,-63.7941,-238)">
            <path d="M139.823,262.736L139.823,274.69L128.822,274.69C126.928,274.69 125.39,273.153 125.39,271.258L125.39,266.168C125.39,264.274 126.928,262.736 128.822,262.736L139.823,262.736Z" style="fill:rgb(106,206,242);fill-rule:nonzero;"/>
        </g>
        <g transform="matrix(1,0,0,1,-63.7941,-238)">
            <path d="M139.823,276.008L139.823,287.962L128.822,287.962C126.928,287.962 125.39,286.425 125.39,284.53L125.39,279.44C125.39,277.546 126.928,276.008 128.822,276.008L139.823,276.008Z" style="fill:rgb(106,206,242);fill-rule:nonzero;"/>
        </g>
        <g transform="matrix(1,0,0,1,-63.7941,-238)">
            <path d="M154.255,252.896L154.255,257.983C154.255,259.881 152.717,261.414 150.823,261.414L139.823,261.414L139.823,249.464L150.823,249.464C152.717,249.464 154.255,251.001 154.255,252.896Z" style="fill:rgb(0,143,193);fill-rule:nonzero;"/>
        </g>
        <g transform="matrix(1,0,0,1,-63.7941,-238)">
            <path d="M154.255,266.168L154.255,271.258C154.255,273.153 152.717,274.69 150.823,274.69L139.823,274.69L139.823,262.736L150.823,262.736C152.717,262.736 154.255,264.274 154.255,266.168Z" style="fill:rgb(0,143,193);fill-rule:nonzero;"/>
        </g>
        <g transform="matrix(1,0,0,1,-63.7941,-238)">
            <path d="M154.255,279.44L154.255,284.53C154.255,286.425 152.717,287.962 150.823,287.962L139.823,287.962L139.823,276.008L150.823,276.008C152.717,276.008 154.255,277.546 154.255,279.44Z" style="fill:rgb(0,143,193);fill-rule:nonzero;"/>
        </g>
        <g transform="matrix(1,0,0,1,-63.7941,-238)">
            <rect x="88.745" y="278.757" width="20.365" height="21.166" style="fill:rgb(35,35,35);fill-rule:nonzero;"/>
        </g>
        <g transform="matrix(1,0,0,1,-63.7941,-238)">
            <path d="M98.927,270.091L98.927,282.042L87.927,282.042C86.032,282.042 84.495,280.508 84.495,278.61L84.495,273.523C84.495,271.629 86.032,270.091 87.927,270.091L98.927,270.091Z" style="fill:rgb(106,206,242);fill-rule:nonzero;"/>
        </g>
        <g transform="matrix(1,0,0,1,-63.7941,-238)">
            <path d="M98.927,283.363L98.927,295.318L87.927,295.318C86.032,295.318 84.495,293.78 84.495,291.885L84.495,286.796C84.495,284.901 86.032,283.363 87.927,283.363L98.927,283.363Z" style="fill:rgb(106,206,242);fill-rule:nonzero;"/>
        </g>
        <g transform="matrix(1,0,0,1,-63.7941,-238)">
            <path d="M98.927,296.635L98.927,308.59L87.927,308.59C86.032,308.59 84.495,307.052 84.495,305.158L84.495,300.068C84.495,298.173 86.032,296.635 87.927,296.635L98.927,296.635Z" style="fill:rgb(106,206,242);fill-rule:nonzero;"/>
        </g>
        <g transform="matrix(1,0,0,1,-63.7941,-238)">
            <path d="M113.36,273.523L113.36,278.61C113.36,280.508 111.822,282.042 109.928,282.042L98.927,282.042L98.927,270.091L109.928,270.091C111.822,270.091 113.36,271.629 113.36,273.523Z" style="fill:rgb(0,143,193);fill-rule:nonzero;"/>
        </g>
        <g transform="matrix(1,0,0,1,-63.7941,-238)">
            <path d="M113.36,286.796L113.36,291.885C113.36,293.78 111.822,295.318 109.928,295.318L98.927,295.318L98.927,283.363L109.928,283.363C111.822,283.363 113.36,284.901 113.36,286.796Z" style="fill:rgb(0,143,193);fill-rule:nonzero;"/>
        </g>
        <g transform="matrix(1,0,0,1,-63.7941,-238)">
            <path d="M113.36,300.068L113.36,305.158C113.36,307.052 111.822,308.59 109.928,308.59L98.927,308.59L98.927,296.635L109.928,296.635C111.822,296.635 113.36,298.173 113.36,300.068Z" style="fill:rgb(0,143,193);fill-rule:nonzero;"/>
        </g>
        <g transform="matrix(1,0,0,1,-63.7941,-238)">
            <rect x="170.536" y="278.757" width="20.364" height="21.166" style="fill:rgb(35,35,35);fill-rule:nonzero;"/>
        </g>
        <g transform="matrix(1,0,0,1,-63.7941,-238)">
            <path d="M180.718,270.091L180.718,282.042L169.717,282.042C167.822,282.042 166.285,280.508 166.285,278.61L166.285,273.523C166.285,271.629 167.822,270.091 169.717,270.091L180.718,270.091Z" style="fill:rgb(106,206,242);fill-rule:nonzero;"/>
        </g>
        <g transform="matrix(1,0,0,1,-63.7941,-238)">
            <path d="M180.718,283.363L180.718,295.318L169.717,295.318C167.822,295.318 166.285,293.78 166.285,291.885L166.285,286.796C166.285,284.901 167.822,283.363 169.717,283.363L180.718,283.363Z" style="fill:rgb(106,206,242);fill-rule:nonzero;"/>
        </g>
        <g transform="matrix(1,0,0,1,-63.7941,-238)">
            <path d="M180.718,296.635L180.718,308.59L169.717,308.59C167.822,308.59 166.285,307.052 166.285,305.158L166.285,300.068C166.285,298.173 167.822,296.635 169.717,296.635L180.718,296.635Z" style="fill:rgb(106,206,242);fill-rule:nonzero;"/>
        </g>
        <g transform="matrix(1,0,0,1,-63.7941,-238)">
            <path d="M195.15,273.523L195.15,278.61C195.15,280.508 193.612,282.042 191.717,282.042L180.718,282.042L180.718,270.091L191.717,270.091C193.612,270.091 195.15,271.629 195.15,273.523Z" style="fill:rgb(0,143,193);fill-rule:nonzero;"/>
        </g>
        <g transform="matrix(1,0,0,1,-63.7941,-238)">
            <path d="M195.15,286.796L195.15,291.885C195.15,293.78 193.612,295.318 191.717,295.318L180.718,295.318L180.718,283.363L191.717,283.363C193.612,283.363 195.15,284.901 195.15,286.796Z" style="fill:rgb(0,143,193);fill-rule:nonzero;"/>
        </g>
        <g transform="matrix(1,0,0,1,-63.7941,-238)">
            <path d="M195.15,300.068L195.15,305.158C195.15,307.052 193.612,308.59 191.717,308.59L180.718,308.59L180.718,296.635L191.717,296.635C193.612,296.635 195.15,298.173 195.15,300.068Z" style="fill:rgb(0,143,193);fill-rule:nonzero;"/>
        </g>
        <g transform="matrix(1,0,0,1,-63.7941,-238)">
            <path d="M159.159,351.174C159.08,352.55 157.933,353.645 156.538,353.645L123.107,353.645C121.713,353.645 120.564,352.55 120.485,351.174L159.159,351.174Z" style="fill:rgb(81,81,81);fill-rule:nonzero;"/>
        </g>
        <g transform="matrix(1,0,0,1,-63.7941,-238)">
            <path d="M157.307,326.299L157.307,344.98C157.307,345.405 156.961,345.749 156.539,345.749L123.108,345.749C122.686,345.749 122.345,345.408 122.34,344.988L122.34,326.3C122.34,325.894 122.673,325.531 123.108,325.531L156.539,325.531C156.961,325.531 157.307,325.874 157.307,326.299Z" style="fill:rgb(35,35,35);fill-rule:nonzero;"/>
        </g>
        <g transform="matrix(1,0,0,1,-63.7941,-238)">
            <path d="M122.339,326.299C122.339,325.898 122.671,325.531 123.108,325.531L156.538,325.531C156.961,325.531 157.307,325.875 157.307,326.299L157.307,344.98C157.307,345.405 156.961,345.749 156.538,345.749L123.108,345.749C122.686,345.749 122.344,345.408 122.34,344.988C122.34,344.986 122.339,344.983 122.339,344.98L122.339,326.299ZM156.538,323.671L123.108,323.671C121.659,323.671 120.479,324.851 120.479,326.299L120.479,346.537C120.479,347.987 121.659,349.165 123.108,349.165L156.538,349.165C157.988,349.165 159.166,347.987 159.166,346.537L159.166,326.299C159.166,324.851 157.988,323.671 156.538,323.671Z" style="fill:rgb(81,81,81);fill-rule:nonzero;"/>
        </g>
        <g transform="matrix(1,0,0,1,-63.7941,-238)">
            <path d="M154.084,325.531L132.017,345.749L123.108,345.749C122.686,345.749 122.345,345.408 122.34,344.988L122.34,341.789L148.366,325.531L154.084,325.531Z" style="fill:rgb(53,53,53);fill-rule:nonzero;"/>
        </g>
        <g transform="matrix(1,0,0,1,-63.7941,-238)">
            <path d="M143.067,347.927L136.577,347.927C135.826,347.927 135.886,346.846 136.577,346.846L143.067,346.846C143.759,346.846 143.819,347.927 143.067,347.927Z" style="fill:rgb(144,143,146);fill-rule:nonzero;"/>
        </g>
        <g transform="matrix(1,0,0,1,-63.7941,-238)">
            <path d="M159.166,349.938L159.166,351.017C159.166,351.07 159.164,351.123 159.159,351.174L120.485,351.174C120.481,351.123 120.479,351.07 120.479,351.017L120.479,349.938L159.166,349.938Z" style="fill:rgb(144,143,146);fill-rule:nonzero;"/>
        </g>
        <g transform="matrix(1,0,0,1,-63.7941,-238)">
            <rect x="126.384" y="349.165" width="4.887" height="0.773" style="fill:rgb(35,35,35);fill-rule:nonzero;"/>
        </g>
        <g transform="matrix(1,0,0,1,-63.7941,-238)">
            <rect x="148.375" y="349.165" width="4.886" height="0.773" style="fill:rgb(35,35,35);fill-rule:nonzero;"/>
        </g>
        <g transform="matrix(1,0,0,1,-63.7941,-238)">
            <rect x="126.384" y="328.136" width="13.438" height="1.802" style="fill:rgb(151,227,247);fill-rule:nonzero;"/>
        </g>
        <g transform="matrix(1,0,0,1,-63.7941,-238)">
            <rect x="141.656" y="328.136" width="9.993" height="1.802" style="fill:rgb(255,121,31);fill-rule:nonzero;"/>
        </g>
        <g transform="matrix(1,0,0,1,-63.7941,-238)">
            <rect x="126.384" y="331.053" width="7.143" height="1.803" style="fill:rgb(210,206,7);fill-rule:nonzero;"/>
        </g>
        <g transform="matrix(1,0,0,1,-63.7941,-238)">
            <rect x="138.212" y="331.053" width="13.437" height="1.803" style="fill:rgb(210,206,7);fill-rule:nonzero;"/>
        </g>
        <g transform="matrix(1,0,0,1,-63.7941,-238)">
            <rect x="126.384" y="333.97" width="13.438" height="1.802" style="fill:rgb(255,121,31);fill-rule:nonzero;"/>
        </g>
        <g transform="matrix(1,0,0,1,-63.7941,-238)">
            <rect x="140.646" y="333.97" width="5.307" height="1.802" style="fill:rgb(151,227,247);fill-rule:nonzero;"/>
        </g>
        <g transform="matrix(1,0,0,1,-63.7941,-238)">
            <rect x="126.384" y="336.887" width="13.438" height="1.803" style="fill:rgb(210,206,7);fill-rule:nonzero;"/>
        </g>
        <g transform="matrix(1,0,0,1,-63.7941,-238)">
            <rect x="126.384" y="339.804" width="13.438" height="1.803" style="fill:rgb(255,121,31);fill-rule:nonzero;"/>
        </g>
        <g transform="matrix(1,0,0,1,-63.7941,-238)">
            <path d="M150.121,280.663L150.121,291.668C150.121,291.918 149.917,292.12 149.668,292.12L129.977,292.12C129.728,292.12 129.526,291.919 129.524,291.672L129.524,280.664C129.524,280.425 129.72,280.211 129.977,280.211L149.668,280.211C149.917,280.211 150.121,280.414 150.121,280.663Z" style="fill:rgb(35,35,35);fill-rule:nonzero;"/>
        </g>
        <g transform="matrix(1,0,0,1,-63.7941,-238)">
            <path d="M148.223,280.211L135.224,292.12L129.977,292.12C129.728,292.12 129.526,291.919 129.524,291.672L129.524,289.788L144.855,280.211L148.223,280.211Z" style="fill:rgb(53,53,53);fill-rule:nonzero;"/>
        </g>
        <g transform="matrix(1,0,0,1,-63.7941,-238)">
            <rect x="131.907" y="281.745" width="7.915" height="1.063" style="fill:rgb(151,227,247);fill-rule:nonzero;"/>
        </g>
        <g transform="matrix(1,0,0,1,-63.7941,-238)">
            <rect x="140.902" y="281.745" width="5.887" height="1.063" style="fill:rgb(255,121,31);fill-rule:nonzero;"/>
        </g>
        <g transform="matrix(1,0,0,1,-63.7941,-238)">
            <rect x="131.907" y="283.464" width="4.207" height="1.062" style="fill:rgb(210,206,7);fill-rule:nonzero;"/>
        </g>
        <g transform="matrix(1,0,0,1,-63.7941,-238)">
            <rect x="138.874" y="283.464" width="7.915" height="1.062" style="fill:rgb(210,206,7);fill-rule:nonzero;"/>
        </g>
        <g transform="matrix(1,0,0,1,-63.7941,-238)">
            <rect x="131.907" y="285.182" width="2.645" height="1.062" style="fill:rgb(255,121,31);fill-rule:nonzero;"/>
        </g>
        <g transform="matrix(1,0,0,1,-63.7941,-238)">
            <rect x="135.174" y="285.182" width="2.645" height="1.062" style="fill:rgb(255,121,31);fill-rule:nonzero;"/>
        </g>
        <g transform="matrix(1,0,0,1,-63.7941,-238)">
            <rect x="140.308" y="285.182" width="3.125" height="1.062" style="fill:rgb(151,227,247);fill-rule:nonzero;"/>
        </g>
        <g transform="matrix(1,0,0,1,-63.7941,-238)">
            <rect x="131.907" y="286.9" width="7.915" height="1.062" style="fill:rgb(210,206,7);fill-rule:nonzero;"/>
        </g>
        <g transform="matrix(1,0,0,1,-63.7941,-238)">
            <rect x="140.783" y="286.9" width="3.565" height="1.062" style="fill:rgb(151,227,247);fill-rule:nonzero;"/>
        </g>
        <g transform="matrix(1,0,0,1,-63.7941,-238)">
            <rect x="131.907" y="288.619" width="7.915" height="1.062" style="fill:rgb(255,121,31);fill-rule:nonzero;"/>
        </g>
        <g transform="matrix(1,0,0,1,-63.7941,-238)">
            <path d="M118.139,288.258L118.139,299.262C118.139,299.512 117.935,299.715 117.686,299.715L97.994,299.715C97.745,299.715 97.544,299.514 97.542,299.267L97.542,288.259C97.542,288.02 97.738,287.806 97.994,287.806L117.686,287.806C117.935,287.806 118.139,288.009 118.139,288.258Z" style="fill:rgb(35,35,35);fill-rule:nonzero;"/>
        </g>
        <g transform="matrix(1,0,0,1,-63.7941,-238)">
            <path d="M116.24,287.806L103.242,299.715L97.994,299.715C97.745,299.715 97.544,299.514 97.542,299.267L97.542,297.383L112.872,287.806L116.24,287.806Z" style="fill:rgb(53,53,53);fill-rule:nonzero;"/>
        </g>
        <g transform="matrix(1,0,0,1,-63.7941,-238)">
            <rect x="99.924" y="289.34" width="7.915" height="1.062" style="fill:rgb(151,227,247);fill-rule:nonzero;"/>
        </g>
        <g transform="matrix(1,0,0,1,-63.7941,-238)">
            <rect x="108.919" y="289.34" width="5.887" height="1.062" style="fill:rgb(255,121,31);fill-rule:nonzero;"/>
        </g>
        <g transform="matrix(1,0,0,1,-63.7941,-238)">
            <rect x="99.924" y="291.058" width="4.208" height="1.062" style="fill:rgb(210,206,7);fill-rule:nonzero;"/>
        </g>
        <g transform="matrix(1,0,0,1,-63.7941,-238)">
            <rect x="106.891" y="291.058" width="7.915" height="1.062" style="fill:rgb(210,206,7);fill-rule:nonzero;"/>
        </g>
        <g transform="matrix(1,0,0,1,-63.7941,-238)">
            <rect x="99.924" y="292.778" width="7.915" height="1.061" style="fill:rgb(255,121,31);fill-rule:nonzero;"/>
        </g>
        <g transform="matrix(1,0,0,1,-63.7941,-238)">
            <rect x="108.325" y="292.778" width="3.125" height="1.061" style="fill:rgb(151,227,247);fill-rule:nonzero;"/>
        </g>
        <g transform="matrix(1,0,0,1,-63.7941,-238)">
            <rect x="99.924" y="294.495" width="7.915" height="1.062" style="fill:rgb(210,206,7);fill-rule:nonzero;"/>
        </g>
        <g transform="matrix(1,0,0,1,-63.7941,-238)">
            <rect x="99.924" y="296.213" width="7.915" height="1.063" style="fill:rgb(255,121,31);fill-rule:nonzero;"/>
        </g>
        <g transform="matrix(1,0,0,1,-63.7941,-238)">
            <path d="M182.103,288.336L182.103,299.341C182.103,299.591 181.9,299.793 181.651,299.793L161.959,299.793C161.71,299.793 161.51,299.592 161.507,299.345L161.507,288.338C161.507,288.098 161.703,287.884 161.959,287.884L181.651,287.884C181.9,287.884 182.103,288.087 182.103,288.336Z" style="fill:rgb(35,35,35);fill-rule:nonzero;"/>
        </g>
        <g transform="matrix(1,0,0,1,-63.7941,-238)">
            <path d="M180.205,287.884L167.206,299.793L161.959,299.793C161.71,299.793 161.51,299.592 161.507,299.345L161.507,297.461L176.837,287.884L180.205,287.884Z" style="fill:rgb(53,53,53);fill-rule:nonzero;"/>
        </g>
        <g transform="matrix(1,0,0,1,-63.7941,-238)">
            <rect x="163.889" y="289.418" width="4.59" height="1.062" style="fill:rgb(151,227,247);fill-rule:nonzero;"/>
        </g>
        <g transform="matrix(1,0,0,1,-63.7941,-238)">
            <rect x="169.177" y="289.418" width="5.636" height="1.062" style="fill:rgb(255,121,31);fill-rule:nonzero;"/>
        </g>
        <g transform="matrix(1,0,0,1,-63.7941,-238)">
            <rect x="163.889" y="291.137" width="4.207" height="1.062" style="fill:rgb(210,206,7);fill-rule:nonzero;"/>
        </g>
        <g transform="matrix(1,0,0,1,-63.7941,-238)">
            <rect x="170.855" y="291.137" width="7.916" height="1.062" style="fill:rgb(210,206,7);fill-rule:nonzero;"/>
        </g>
        <g transform="matrix(1,0,0,1,-63.7941,-238)">
            <rect x="163.889" y="292.855" width="2.645" height="1.062" style="fill:rgb(255,121,31);fill-rule:nonzero;"/>
        </g>
        <g transform="matrix(1,0,0,1,-63.7941,-238)">
            <rect x="163.889" y="296.292" width="2.645" height="1.062" style="fill:rgb(210,206,7);fill-rule:nonzero;"/>
        </g>
        <g transform="matrix(1,0,0,1,-63.7941,-238)">
            <rect x="167.156" y="292.855" width="2.646" height="1.062" style="fill:rgb(255,121,31);fill-rule:nonzero;"/>
        </g>
        <g transform="matrix(1,0,0,1,-63.7941,-238)">
            <rect x="172.29" y="292.855" width="3.125" height="1.062" style="fill:rgb(151,227,247);fill-rule:nonzero;"/>
        </g>
        <g transform="matrix(1,0,0,1,-63.7941,-238)">
            <rect x="163.889" y="294.574" width="7.915" height="1.061" style="fill:rgb(210,206,7);fill-rule:nonzero;"/>
        </g>
        <g transform="matrix(1,0,0,1,-63.7941,-238)">
            <rect x="172.765" y="294.574" width="5.575" height="1.061" style="fill:rgb(151,227,247);fill-rule:nonzero;"/>
        </g>
        <g transform="matrix(1,0,0,1,-63.7941,-238)">
            <rect x="169.422" y="296.292" width="9.862" height="1.062" style="fill:rgb(255,121,31);fill-rule:nonzero;"/>
        </g>
        <g transform="matrix(1,0,0,1,-63.7941,-238)">
            <path d="M129.088,308.762L136.11,318.702L136.759,326.39L139.823,326.39L139.823,308.762L129.088,308.762Z" style="fill:rgb(151,227,247);fill-rule:nonzero;"/>
        </g>
        <g transform="matrix(1,0,0,1,-63.7941,-238)">
            <path d="M150.557,308.762L143.535,318.702L142.886,326.39L139.823,326.39L139.823,308.762L150.557,308.762Z" style="fill:rgb(106,206,242);fill-rule:nonzero;"/>
        </g>
        <g transform="matrix(1,0,0,1,-63.7941,-238)">
            <rect x="138.186" y="292.123" width="3.274" height="8.842" style="fill:rgb(255,121,31);fill-rule:nonzero;"/>
        </g>
        <g transform="matrix(1,0,0,1,-63.7941,-238)">
            <path d="M139.823,305.476L135.853,300.555L143.792,300.555L139.823,305.476Z" style="fill:rgb(255,121,31);fill-rule:nonzero;"/>
        </g>
        <g transform="matrix(1,0,0,1,-63.7941,-238)">
            <rect x="152.665" y="292.123" width="3.274" height="8.842" style="fill:rgb(0,143,193);fill-rule:nonzero;"/>
        </g>
        <g transform="matrix(1,0,0,1,-63.7941,-238)">
            <rect x="152.665" y="292.123" width="8.842" height="3.275" style="fill:rgb(0,143,193);fill-rule:nonzero;"/>
        </g>
        <g transform="matrix(1,0,0,1,-63.7941,-238)">
            <path d="M154.302,305.476L150.332,300.555L158.272,300.555L154.302,305.476Z" style="fill:rgb(0,143,193);fill-rule:nonzero;"/>
        </g>
        <g transform="matrix(1,0,0,1,-63.7941,-238)">
            <rect x="123.706" y="292.123" width="3.274" height="8.842" style="fill:rgb(210,206,7);fill-rule:nonzero;"/>
        </g>
        <g transform="matrix(1,0,0,1,-63.7941,-238)">
            <rect x="118.139" y="292.123" width="8.841" height="3.275" style="fill:rgb(210,206,7);fill-rule:nonzero;"/>
        </g>
        <g transform="matrix(1,0,0,1,-63.7941,-238)">
            <path d="M125.343,305.476L129.313,300.555L121.373,300.555L125.343,305.476Z" style="fill:rgb(210,206,7);fill-rule:nonzero;"/>
        </g>
    </g>
</svg>
