<?xml version="1.0" encoding="UTF-8" standalone="no"?>
<!DOCTYPE svg PUBLIC "-//W3C//DTD SVG 1.1//EN" "http://www.w3.org/Graphics/SVG/1.1/DTD/svg11.dtd">
<svg width="100%" height="100%" viewBox="0 0 671 684" version="1.1" xmlns="http://www.w3.org/2000/svg" xmlns:xlink="http://www.w3.org/1999/xlink" xml:space="preserve" xmlns:serif="http://www.serif.com/" style="fill-rule:evenodd;clip-rule:evenodd;stroke-linejoin:round;stroke-miterlimit:1.41421;">
    <g transform="matrix(1,0,0,1,-127.022,-98.7016)">
        <g transform="matrix(4.16667,0,0,4.16667,-1034,-709)">
            <path d="M434.599,241.209C441.914,251.239 440.984,264.971 431.873,273.551C422.177,282.684 409.452,280.509 397.658,277.501C396.403,277.187 381.276,271.928 379.858,271.647C380.053,270.23 369.632,265.994 368.842,266.167C365.648,263.323 370.509,261.173 369.654,260.112C380.334,249.898 387.205,236.231 389.283,221.58C390.149,215.477 390.646,208.26 388.071,202.385C395.05,199.961 402.343,199.917 408.327,204.798C413.532,209.05 414.7,214.33 415.696,220.66C416.388,225.032 417.719,228.376 421.377,231.048C426.051,234.468 431.05,236.35 434.599,241.209Z" style="fill:url(#_Radial1);fill-rule:nonzero;"/>
        </g>
        <g transform="matrix(4.16667,0,0,4.16667,-1034,-709)">
            <path d="M428.291,289.544C435.076,295.506 437.694,304.715 432.208,312.527C428.421,317.916 422.167,319.463 416.475,322.071C412.342,323.964 408.695,326.432 406.715,330.673C405.514,333.248 405.146,336.105 404.15,338.745C402.376,343.431 398.589,346.277 393.709,347.175C389.716,347.91 382.135,345.095 381.914,345.032C379.499,344.348 375.378,341.981 373.68,340.293C367.728,334.341 366.149,326.215 365.878,318.1C365.662,311.575 366.181,305.018 365.488,298.515C365.175,295.636 365.077,291.622 363.065,289.36C362.924,289.22 362.783,289.068 362.632,288.938C362.675,288.895 362.718,288.863 362.751,288.819C364.19,291.048 375.292,276.612 374.48,276.32C374.34,276.212 378.917,274.504 379.404,273.324C380.637,273.573 381.849,274.038 383.018,274.644C382.985,274.731 396.067,278.345 397.193,278.756C403.631,281.126 417.03,282.873 417.111,282.89C422.537,284.083 428.01,289.295 428.291,289.544Z" style="fill:url(#_Linear2);fill-rule:nonzero;"/>
        </g>
        <g transform="matrix(4.16667,0,0,4.16667,-1034,-709)">
            <path d="M385.918,203.261C388.796,209.667 387.768,217.955 386.448,224.653C383.873,237.638 377.445,249.357 368.518,259.019C368.378,258.933 366.75,265.941 366.609,265.865C364.694,264.761 350.684,262.929 350.879,268.772C348.952,268.804 349.604,261.14 348.316,262.601C346.882,261.205 344.313,257.656 344.507,258.576C337.106,247.203 325.874,237.183 312.641,234.078C311.191,229.977 310.878,220.922 310.921,220.284C311.365,214.181 311.84,206.659 317.607,202.828C322.899,199.322 329.835,201.898 335.44,203.164C339.649,204.105 344.107,204.862 348.327,203.575C354.354,201.735 358.401,196.347 364.536,194.594C372.587,192.3 382.369,195.33 385.918,203.261Z" style="fill:url(#_Radial3);fill-rule:nonzero;"/>
        </g>
        <g transform="matrix(4.16667,0,0,4.16667,-1034,-709)">
            <path d="M368.864,338.15C371.288,341.743 374.859,344.837 378.928,346.958C376.601,354.597 369.211,359.802 360.879,357.324C355.415,355.701 352.093,350.518 346.823,348.484C341.488,346.417 335.851,347.64 330.311,347.597C322.996,347.543 317.261,344.653 313.842,338.042C308.356,327.405 311.137,314.28 317.716,304.812C324.998,294.338 336.262,288.04 348.781,286.439C348.857,286.428 348.933,286.417 349.009,286.406C347.515,287.629 357.957,285.574 357.601,281.885C359.63,269.3 361.02,290.442 361.701,289.858C364.461,293.375 363.811,300.787 363.8,304.726C363.79,309.184 363.508,313.642 363.616,318.1C363.768,325.079 364.861,332.264 368.864,338.15Z" style="fill:url(#_Linear4);fill-rule:nonzero;"/>
        </g>
        <g transform="matrix(4.16667,0,0,4.16667,-1034,-709)">
            <path d="M357.599,277.499C352.319,275.129 348.652,283.885 348.944,285.205C348.836,285.205 348.727,285.205 348.608,285.205C333.557,285.205 319.649,296.363 311.829,310.311C309.589,311.872 307.707,312.971 305.467,314.096C302.978,315.351 300.273,316.347 297.546,316.92C297.474,316.938 293.102,317.82 289.638,316.832C286.842,316.034 284.832,313.322 284.648,313.36C282.159,311.337 280.266,308.556 279.357,305.05C277.409,297.476 281.964,291.535 284.226,284.697C285.936,279.524 285.33,274.612 283.533,269.548C281.391,263.521 277.387,256.942 279.032,250.32C282.354,237.01 311.548,236.588 311.678,236.794C311.796,236.974 315.146,237.143 315.681,237.324C329.153,241.966 337.766,253.263 346.26,263.975C346.531,264.311 346.931,264.202 347.158,263.932C347.223,264.008 347.277,264.083 347.332,264.148C346.39,266.291 354.77,271.344 356.469,273.324C356.339,273.4 357.718,277.413 357.599,277.499Z" style="fill:url(#_Radial5);fill-rule:nonzero;"/>
        </g>
        <g transform="matrix(4.16667,0,0,4.16667,-1034,-709)">
            <g transform="matrix(1,0,0,1,0,0.24)">
                <path d="M350.047,263.964C350.242,263.456 350.534,263.055 350.902,262.753C350.361,263.099 349.874,263.532 349.485,264.083C349.55,264.148 349.625,264.213 349.69,264.278C349.799,264.17 349.928,264.062 350.047,263.964ZM361.095,288.073C361.225,287.964 361.344,287.835 361.474,287.705C361.29,287.629 361.117,287.532 360.944,287.445C360.738,287.651 360.522,287.835 360.284,287.975C359.97,288.484 359.613,288.949 359.169,289.328C359.689,289.111 360.208,288.819 360.695,288.419C360.771,288.246 360.922,288.105 361.095,288.073ZM372.132,285.519C371.938,285.768 371.721,286.017 371.472,286.244C371.321,286.688 371.126,287.066 370.888,287.38C371.699,286.926 372.111,286.298 372.132,285.519ZM373.95,266.399C374.037,266.345 374.134,266.334 374.221,266.302C373.896,266.237 373.571,266.204 373.247,266.215C372.89,266.215 372.554,266.269 372.251,266.345C372.576,266.41 372.879,266.507 373.182,266.626C373.279,266.637 373.366,266.67 373.452,266.691C373.615,266.583 373.788,266.486 373.95,266.399ZM379.858,271.647C381.276,271.928 380.637,273.573 379.404,273.324C378.917,274.504 378.116,275.553 377.066,276.3C377.218,276.386 377.359,276.495 377.499,276.603C378.311,276.895 378.798,277.468 379.036,278.183C379.761,279.221 380.194,280.433 380.107,281.505C380.096,281.537 378.895,284.415 378.17,284.989C378.776,285.898 377.359,286.536 376.893,285.757C375.833,286.201 374.643,286.341 373.507,286.071C373.344,288.765 371.645,290.626 369.568,291.33C369.6,295.301 364.19,291.048 362.751,288.819C362.718,288.863 362.675,288.895 362.632,288.938C362.783,289.068 362.924,289.22 363.065,289.36L361.701,289.858C361.02,290.442 360.284,290.864 359.548,291.157C359.905,294.846 351.562,289.642 350.697,288.625C350.383,288.386 350.112,288.138 349.896,287.889C348.879,289.057 347.515,287.629 349.009,286.406C348.933,286.417 348.857,286.428 348.781,286.439L348.608,285.205C348.727,285.205 348.836,285.205 348.944,285.205C348.652,283.885 344.064,277.923 349.615,280.119C349.723,279.903 349.842,279.698 349.972,279.481C349.972,279.459 349.961,279.438 349.961,279.405C348.057,279.178 346.498,277.663 346.466,275.467C346.455,274.287 343.047,269.515 348.327,271.885C348.446,271.799 346.39,266.291 347.332,264.148C347.277,264.083 347.223,264.008 347.158,263.932L348.316,262.601C349.604,261.14 356.28,260.783 357.07,261.173C357.579,260.188 366.203,257.645 368.118,258.749C368.259,258.825 368.378,258.933 368.518,259.019L369.654,260.112C370.509,261.173 377.077,262.46 371.645,264.873C372.435,264.7 373.258,264.657 373.939,264.722C375.508,264.841 377.045,265.479 378.17,266.572C381.232,265.23 381.892,266.377 378.928,267.47C379.782,268.747 380.053,270.23 379.858,271.647Z" style="fill:rgb(54,37,105);fill-rule:nonzero;"/>
            </g>
        </g>
        <g transform="matrix(4.16667,0,0,4.16667,-1034,-709)">
            <g transform="matrix(0.56392,0,0,0.56392,158.343,120.475)">
                <path d="M350.047,263.964C350.242,263.456 350.534,263.055 350.902,262.753C350.361,263.099 349.874,263.532 349.485,264.083C349.55,264.148 349.625,264.213 349.69,264.278C349.799,264.17 349.928,264.062 350.047,263.964ZM361.095,288.073C361.225,287.964 361.344,287.835 361.474,287.705C361.29,287.629 361.117,287.532 360.944,287.445C360.738,287.651 360.522,287.835 360.284,287.975C359.97,288.484 359.613,288.949 359.169,289.328C359.689,289.111 360.208,288.819 360.695,288.419C360.771,288.246 360.922,288.105 361.095,288.073ZM372.132,285.519C371.938,285.768 371.721,286.017 371.472,286.244C371.321,286.688 371.126,287.066 370.888,287.38C371.699,286.926 372.111,286.298 372.132,285.519ZM373.95,266.399C374.037,266.345 374.134,266.334 374.221,266.302C373.896,266.237 373.571,266.204 373.247,266.215C372.89,266.215 372.554,266.269 372.251,266.345C372.576,266.41 372.879,266.507 373.182,266.626C373.279,266.637 373.366,266.67 373.452,266.691C373.615,266.583 373.788,266.486 373.95,266.399ZM379.858,271.647C381.276,271.928 380.637,273.573 379.404,273.324C378.917,274.504 378.116,275.553 377.066,276.3C377.218,276.386 377.359,276.495 377.499,276.603C378.311,276.895 378.798,277.468 379.036,278.183C379.761,279.221 380.194,280.433 380.107,281.505C380.096,281.537 378.895,284.415 378.17,284.989C378.776,285.898 377.359,286.536 376.893,285.757C375.833,286.201 374.643,286.341 373.507,286.071C373.344,288.765 371.645,290.626 369.568,291.33C369.6,295.301 364.19,291.048 362.751,288.819C362.718,288.863 362.675,288.895 362.632,288.938C362.783,289.068 362.924,289.22 363.065,289.36L361.701,289.858C361.02,290.442 360.284,290.864 359.548,291.157C359.905,294.846 351.562,289.642 350.697,288.625C350.383,288.386 350.112,288.138 349.896,287.889C348.879,289.057 347.515,287.629 349.009,286.406C348.933,286.417 348.857,286.428 348.781,286.439L348.608,285.205C348.727,285.205 348.836,285.205 348.944,285.205C348.652,283.885 344.064,277.923 349.615,280.119C349.723,279.903 349.842,279.698 349.972,279.481C349.972,279.459 349.961,279.438 349.961,279.405C348.057,279.178 346.498,277.663 346.466,275.467C346.455,274.287 343.047,269.515 348.327,271.885C348.446,271.799 346.39,266.291 347.332,264.148C347.277,264.083 347.223,264.008 347.158,263.932L348.316,262.601C349.604,261.14 356.28,260.783 357.07,261.173C357.579,260.188 366.203,257.645 368.118,258.749C368.259,258.825 368.378,258.933 368.518,259.019L369.654,260.112C370.509,261.173 377.077,262.46 371.645,264.873C372.435,264.7 373.258,264.657 373.939,264.722C375.508,264.841 377.045,265.479 378.17,266.572C381.232,265.23 381.892,266.377 378.928,267.47C379.782,268.747 380.053,270.23 379.858,271.647Z" style="fill:rgb(255,204,0);fill-rule:nonzero;"/>
            </g>
        </g>
    </g>
    <defs>
        <radialGradient id="_Radial1" cx="0" cy="0" r="1" gradientUnits="userSpaceOnUse" gradientTransform="matrix(59.6295,0,0,59.6295,371.645,265.113)"><stop offset="0" style="stop-color:rgb(164,152,198);stop-opacity:1"/><stop offset="1" style="stop-color:rgb(72,49,140);stop-opacity:1"/></radialGradient>
        <linearGradient id="_Linear2" x1="0" y1="0" x2="1" y2="0" gradientUnits="userSpaceOnUse" gradientTransform="matrix(-49.4779,-47.1383,47.1383,-49.4779,413.757,323.459)"><stop offset="0" style="stop-color:rgb(72,49,140);stop-opacity:1"/><stop offset="1" style="stop-color:rgb(164,152,198);stop-opacity:1"/></linearGradient>
        <radialGradient id="_Radial3" cx="0" cy="0" r="1" gradientUnits="userSpaceOnUse" gradientTransform="matrix(65.0254,0,0,65.0254,359.258,267.536)"><stop offset="0" style="stop-color:rgb(164,152,198);stop-opacity:1"/><stop offset="1" style="stop-color:rgb(72,49,140);stop-opacity:1"/></radialGradient>
        <linearGradient id="_Linear4" x1="0" y1="0" x2="1" y2="0" gradientUnits="userSpaceOnUse" gradientTransform="matrix(11.6634,-61.0732,61.0732,11.6634,344.925,347.479)"><stop offset="0" style="stop-color:rgb(72,49,140);stop-opacity:1"/><stop offset="1" style="stop-color:rgb(164,152,198);stop-opacity:1"/></linearGradient>
        <radialGradient id="_Radial5" cx="0" cy="0" r="1" gradientUnits="userSpaceOnUse" gradientTransform="matrix(72.0106,0,0,72.0106,356.588,276.32)"><stop offset="0" style="stop-color:rgb(164,152,198);stop-opacity:1"/><stop offset="1" style="stop-color:rgb(72,49,140);stop-opacity:1"/></radialGradient>
    </defs>
</svg>
