<?xml version="1.0" encoding="UTF-8" standalone="no"?>
<!DOCTYPE svg PUBLIC "-//W3C//DTD SVG 1.1//EN" "http://www.w3.org/Graphics/SVG/1.1/DTD/svg11.dtd">
<svg width="100%" height="100%" viewBox="0 0 1720 1644" version="1.1" style="fill-rule:evenodd;clip-rule:evenodd;stroke-linejoin:round;stroke-miterlimit:1.41421;">
    <g transform="matrix(1,0,0,1,-1723.48,-147.283)">
        <g transform="matrix(4.16667,0,0,4.16667,0,0)">
            <path d="M517.715,367.697C516.978,367.697 516.221,367.645 515.472,367.541C514.343,367.384 513.414,366.374 512.432,364.829C512.468,364.835 512.504,364.841 512.539,364.846C513.289,364.95 514.046,365.002 514.784,365.002C518.554,365.002 521.817,363.663 520.995,361.227C520.46,359.642 518.349,355.939 513.339,351.319C513.359,351.316 513.378,351.314 513.398,351.311C523.408,350.01 528.447,343.941 532.854,331.615C533.639,329.421 533.49,327.489 532.66,325.799C535.013,325.502 536.356,325.334 536.356,325.334L536.499,324.306C538.031,324.847 539.054,325.231 539.328,325.316L539.451,325.383C539.585,325.37 539.659,325.362 539.659,325.362L539.634,325.545C540.371,326.458 540.047,329.648 539.85,331.064C539.641,332.563 537.107,332.822 535.468,335.164C531.134,346.905 526.101,352.736 516.33,354.006L516.265,354.013C521.273,358.633 523.392,362.337 523.927,363.921C524.748,366.358 521.486,367.697 517.715,367.697ZM430.718,355.729C430.614,355.729 430.51,355.722 430.407,355.708C426.893,355.218 423.542,353.564 422.957,351.676C424.256,352.31 425.848,352.786 427.476,353.013C427.579,353.027 427.682,353.034 427.786,353.034C430.738,353.034 434.058,347.368 440.506,342.591C442.086,342.794 443.65,342.892 445.187,342.892C449.165,342.892 452.969,342.236 456.449,341.055C460.113,339.811 462.772,337.418 464.712,334.929C467.41,334.521 470.38,334.087 473.526,333.638C476.335,334.886 478.988,336.076 481.407,337.174C481.636,337.745 481.893,338.32 482.181,338.893C480.371,338.077 478.454,337.22 476.458,336.332C473.31,336.782 470.341,337.216 467.641,337.625C465.7,340.113 463.045,342.506 459.381,343.75C455.901,344.931 452.097,345.586 448.119,345.586C446.583,345.586 445.021,345.489 443.442,345.286C436.993,350.063 433.671,355.729 430.718,355.729ZM504.633,353.772C499.355,352.845 494.611,350.831 490.648,348.099C489.434,347.262 488.406,346.303 487.534,345.276C487.594,345.319 487.655,345.362 487.717,345.404C491.965,348.333 497.111,350.441 502.851,351.265C503.498,352.105 504.089,352.945 504.633,353.772ZM429.253,340.379C427.862,339.449 426.659,338.393 425.622,337.197C426.936,338.16 428.431,338.998 430.13,339.728C430.198,339.757 430.266,339.786 430.334,339.815C429.962,340.003 429.602,340.192 429.253,340.379ZM472.833,329.062C471.593,328.535 470.331,328 469.058,327.463C469.256,327.129 469.494,326.828 469.754,326.551C471.022,324.926 472.563,324.02 474.162,324.02C474.357,324.02 474.553,324.033 474.75,324.061C476.294,324.275 477.578,325.305 478.462,326.94C478.21,326.855 477.95,326.793 477.682,326.755C477.485,326.728 477.289,326.715 477.093,326.715C475.556,326.715 474.072,327.552 472.833,329.062ZM530.753,323.264C530.239,322.77 529.658,322.301 529.025,321.86C530.375,322.262 531.66,322.668 532.834,323.054C532.207,323.117 531.511,323.187 530.753,323.264ZM510.852,319.068C510.82,319.063 510.788,319.059 510.756,319.055C510.788,319.059 510.82,319.063 510.852,319.068ZM510.701,319.047C507.921,318.667 505.093,318.455 502.81,318.454C505.093,318.455 507.92,318.667 510.701,319.047ZM500.538,318.533C501.079,318.494 501.629,318.468 502.186,318.459C502.205,318.458 502.225,318.458 502.244,318.458C502.225,318.458 502.205,318.458 502.186,318.459C501.629,318.468 501.079,318.494 500.538,318.533ZM502.781,318.454C502.782,318.454 502.782,318.454 502.783,318.454C502.782,318.454 502.782,318.454 502.781,318.454ZM416.767,314.833C416.611,314.538 416.536,314.24 416.581,313.916C416.731,312.833 417.093,310.725 417.684,309.491C417.967,309.612 418.274,309.742 418.604,309.882C417.435,311.159 416.763,312.785 416.767,314.833Z" style="fill:rgb(26,127,170);fill-rule:nonzero;"/>
        </g>
        <g transform="matrix(4.16667,0,0,4.16667,0,0)">
            <path d="M485.857,271.929C483.081,271.929 480.479,270.97 478.521,269.586C479.843,270.059 481.288,270.338 482.785,270.338C483.453,270.338 484.132,270.282 484.814,270.163L678.463,236.477L681.161,238.062C681.191,238.08 681.22,238.098 681.248,238.118L676.873,238.879C676.566,238.822 676.256,238.794 675.948,238.794C675.044,238.794 674.153,239.034 673.371,239.488L487.887,271.755C487.204,271.874 486.526,271.929 485.857,271.929ZM694.543,217.824L694.238,216.068C694.764,216.453 694.923,217.182 694.586,217.756C694.572,217.779 694.558,217.802 694.543,217.824ZM695.052,204.677L691.938,202.847L678.265,124.244C677.58,120.311 675.339,117.039 672.284,114.952C676.863,116.654 680.44,120.676 681.337,125.835L695.052,204.677Z" style="fill:rgb(26,127,170);fill-rule:nonzero;"/>
        </g>
        <g transform="matrix(4.16667,0,0,4.16667,0,0)">
            <path d="M661.982,35.502L439.94,74.127C434.372,75.096 430.864,80.301 431.596,85.564L431.582,85.566L432.46,90.613L432.474,90.611C431.742,85.347 435.25,80.143 440.818,79.174L662.86,40.548C668.429,39.579 673.488,43.293 674.576,48.495L674.599,48.491L673.721,43.444L673.698,43.448C672.61,38.247 667.551,34.533 661.982,35.502Z" style="fill:rgb(243,244,245);fill-rule:nonzero;"/>
        </g>
        <g transform="matrix(4.16667,0,0,4.16667,0,0)">
            <path d="M685.946,235.175L484.814,270.163C478.587,271.247 472.662,267.077 472.009,263.324L454.584,163.155C453.239,155.429 458.414,148.075 466.141,146.731L661.84,112.687C669.566,111.343 676.92,116.517 678.265,124.244L695.689,224.413C696.342,228.166 692.173,234.092 685.946,235.175Z" style="fill:rgb(243,244,245);fill-rule:nonzero;"/>
        </g>
        <g transform="matrix(4.16667,0,0,4.16667,0,0)">
            <path d="M494.968,218.262C494.819,217.412 494.003,216.837 493.152,216.985L484.133,218.554C483.282,218.702 482.708,219.519 482.855,220.369L483.842,226.039C483.99,226.889 484.807,227.464 485.657,227.316L494.677,225.747C495.526,225.599 496.102,224.782 495.953,223.932L494.968,218.262Z" style="fill:rgb(106,108,108);fill-rule:nonzero;"/>
        </g>
        <g transform="matrix(4.16667,0,0,4.16667,0,0)">
            <path d="M512.49,215.214C512.343,214.364 511.526,213.789 510.676,213.937L501.656,215.506C500.806,215.654 500.231,216.471 500.379,217.321L501.365,222.99C501.513,223.841 502.33,224.416 503.181,224.268L512.2,222.698C513.05,222.55 513.625,221.734 513.477,220.883L512.49,215.214Z" style="fill:rgb(106,108,108);fill-rule:nonzero;"/>
        </g>
        <g transform="matrix(4.16667,0,0,4.16667,0,0)">
            <path d="M617.631,196.924C617.483,196.074 616.666,195.499 615.815,195.646L606.796,197.216C605.946,197.364 605.371,198.181 605.52,199.031L606.505,204.7C606.653,205.551 607.47,206.125 608.32,205.978L617.34,204.408C618.19,204.26 618.765,203.444 618.617,202.593L617.631,196.924Z" style="fill:rgb(106,108,108);fill-rule:nonzero;"/>
        </g>
        <g transform="matrix(4.16667,0,0,4.16667,0,0)">
            <path d="M635.154,193.875C635.006,193.025 634.189,192.45 633.339,192.598L624.319,194.167C623.47,194.315 622.895,195.132 623.043,195.982L624.028,201.652C624.177,202.502 624.993,203.077 625.844,202.929L634.863,201.36C635.714,201.212 636.288,200.396 636.141,199.545L635.154,193.875Z" style="fill:rgb(106,108,108);fill-rule:nonzero;"/>
        </g>
        <g transform="matrix(4.16667,0,0,4.16667,0,0)">
            <path d="M652.678,190.827C652.529,189.977 651.713,189.402 650.862,189.55L641.843,191.119C640.993,191.267 640.418,192.084 640.565,192.934L641.552,198.604C641.7,199.454 642.517,200.029 643.367,199.881L652.387,198.312C653.237,198.164 653.812,197.347 653.664,196.497L652.678,190.827Z" style="fill:rgb(106,108,108);fill-rule:nonzero;"/>
        </g>
        <g transform="matrix(4.16667,0,0,4.16667,0,0)">
            <path d="M492.979,206.827C492.83,205.977 492.014,205.402 491.163,205.55L482.144,207.119C481.293,207.267 480.719,208.083 480.866,208.934L481.853,214.603C482.001,215.454 482.817,216.028 483.668,215.88L492.688,214.312C493.537,214.164 494.112,213.347 493.964,212.496L492.979,206.827Z" style="fill:rgb(106,108,108);fill-rule:nonzero;"/>
        </g>
        <g transform="matrix(4.16667,0,0,4.16667,0,0)">
            <path d="M510.501,203.779C510.354,202.928 509.537,202.354 508.687,202.501L499.667,204.07C498.816,204.218 498.242,205.035 498.39,205.886L499.376,211.555C499.523,212.405 500.341,212.98 501.191,212.832L510.21,211.263C511.061,211.115 511.636,210.298 511.487,209.448L510.501,203.779Z" style="fill:rgb(106,108,108);fill-rule:nonzero;"/>
        </g>
        <g transform="matrix(4.16667,0,0,4.16667,0,0)">
            <path d="M528.024,200.73C527.877,199.88 527.06,199.305 526.21,199.453L517.19,201.022C516.34,201.17 515.765,201.987 515.913,202.837L516.899,208.506C517.047,209.357 517.864,209.932 518.715,209.784L527.733,208.215C528.584,208.067 529.159,207.25 529.011,206.399L528.024,200.73Z" style="fill:rgb(106,108,108);fill-rule:nonzero;"/>
        </g>
        <g transform="matrix(4.16667,0,0,4.16667,0,0)">
            <path d="M545.548,197.682C545.4,196.832 544.583,196.257 543.733,196.405L534.714,197.974C533.863,198.122 533.288,198.938 533.437,199.789L534.423,205.458C534.57,206.309 535.388,206.883 536.238,206.735L545.257,205.167C546.107,205.019 546.683,204.202 546.534,203.351L545.548,197.682Z" style="fill:rgb(106,108,108);fill-rule:nonzero;"/>
        </g>
        <g transform="matrix(4.16667,0,0,4.16667,0,0)">
            <path d="M563.071,194.634C562.924,193.783 562.106,193.208 561.257,193.356L552.237,194.925C551.387,195.073 550.812,195.89 550.96,196.741L551.946,202.41C552.094,203.26 552.911,203.835 553.761,203.687L562.78,202.118C563.631,201.97 564.206,201.153 564.058,200.303L563.071,194.634Z" style="fill:rgb(106,108,108);fill-rule:nonzero;"/>
        </g>
        <g transform="matrix(4.16667,0,0,4.16667,0,0)">
            <path d="M580.595,191.585C580.447,190.735 579.63,190.16 578.779,190.308L569.761,191.877C568.91,192.025 568.335,192.842 568.483,193.692L569.47,199.361C569.617,200.212 570.435,200.787 571.284,200.639L580.304,199.07C581.154,198.922 581.729,198.105 581.581,197.254L580.595,191.585Z" style="fill:rgb(106,108,108);fill-rule:nonzero;"/>
        </g>
        <g transform="matrix(4.16667,0,0,4.16667,0,0)">
            <path d="M633.165,182.44C633.017,181.59 632.2,181.015 631.35,181.163L622.33,182.732C621.48,182.88 620.905,183.697 621.054,184.547L622.039,190.216C622.188,191.067 623.004,191.642 623.854,191.494L632.874,189.925C633.725,189.777 634.299,188.96 634.151,188.109L633.165,182.44Z" style="fill:rgb(106,108,108);fill-rule:nonzero;"/>
        </g>
        <g transform="matrix(4.16667,0,0,4.16667,0,0)">
            <path d="M650.688,179.392C650.54,178.542 649.724,177.967 648.873,178.115L639.854,179.684C639.003,179.832 638.429,180.648 638.576,181.499L639.563,187.168C639.711,188.019 640.527,188.593 641.378,188.445L650.397,186.876C651.248,186.729 651.822,185.912 651.675,185.061L650.688,179.392Z" style="fill:rgb(106,108,108);fill-rule:nonzero;"/>
        </g>
        <g transform="matrix(4.16667,0,0,4.16667,0,0)">
            <path d="M526.035,189.295C525.888,188.445 525.07,187.87 524.221,188.018L515.201,189.587C514.351,189.735 513.775,190.552 513.924,191.402L514.909,197.071C515.057,197.922 515.875,198.497 516.726,198.349L525.744,196.779C526.595,196.631 527.17,195.815 527.021,194.964L526.035,189.295Z" style="fill:rgb(106,108,108);fill-rule:nonzero;"/>
        </g>
        <g transform="matrix(4.16667,0,0,4.16667,0,0)">
            <path d="M543.559,186.247C543.411,185.396 542.594,184.822 541.744,184.969L532.725,186.539C531.874,186.687 531.299,187.503 531.447,188.354L532.434,194.023C532.581,194.874 533.398,195.448 534.248,195.3L543.268,193.731C544.118,193.583 544.693,192.767 544.545,191.916L543.559,186.247Z" style="fill:rgb(106,108,108);fill-rule:nonzero;"/>
        </g>
        <g transform="matrix(4.16667,0,0,4.16667,0,0)">
            <path d="M561.082,183.198C560.935,182.348 560.117,181.773 559.268,181.921L550.248,183.49C549.397,183.638 548.822,184.455 548.971,185.305L549.957,190.975C550.104,191.825 550.922,192.4 551.771,192.252L560.791,190.683C561.642,190.535 562.217,189.718 562.068,188.868L561.082,183.198Z" style="fill:rgb(106,108,108);fill-rule:nonzero;"/>
        </g>
        <g transform="matrix(4.16667,0,0,4.16667,0,0)">
            <path d="M578.605,180.15C578.458,179.3 577.641,178.725 576.79,178.873L567.771,180.442C566.921,180.59 566.346,181.407 566.494,182.257L567.48,187.926C567.628,188.777 568.445,189.352 569.295,189.204L578.314,187.634C579.165,187.486 579.74,186.67 579.592,185.819L578.605,180.15Z" style="fill:rgb(106,108,108);fill-rule:nonzero;"/>
        </g>
        <g transform="matrix(4.16667,0,0,4.16667,0,0)">
            <path d="M631.176,171.005C631.027,170.155 630.211,169.58 629.36,169.728L620.341,171.297C619.491,171.445 618.916,172.262 619.064,173.112L620.05,178.781C620.198,179.632 621.015,180.207 621.865,180.059L630.885,178.489C631.735,178.341 632.31,177.525 632.162,176.674L631.176,171.005Z" style="fill:rgb(106,108,108);fill-rule:nonzero;"/>
        </g>
        <g transform="matrix(4.16667,0,0,4.16667,0,0)">
            <path d="M648.699,167.957C648.551,167.106 647.734,166.532 646.884,166.679L637.864,168.249C637.014,168.396 636.439,169.213 636.587,170.063L637.573,175.733C637.722,176.583 638.538,177.158 639.389,177.01L648.408,175.441C649.259,175.293 649.833,174.477 649.686,173.626L648.699,167.957Z" style="fill:rgb(106,108,108);fill-rule:nonzero;"/>
        </g>
        <g transform="matrix(4.16667,0,0,4.16667,0,0)">
            <path d="M666.223,164.908C666.074,164.058 665.258,163.483 664.407,163.631L655.388,165.2C654.537,165.348 653.963,166.165 654.11,167.015L655.097,172.685C655.245,173.535 656.062,174.11 656.912,173.962L665.932,172.393C666.782,172.245 667.356,171.428 667.209,170.578L666.223,164.908Z" style="fill:rgb(106,108,108);fill-rule:nonzero;"/>
        </g>
        <g transform="matrix(4.16667,0,0,4.16667,0,0)">
            <path d="M489,183.957C488.852,183.106 488.035,182.531 487.185,182.679L478.165,184.248C477.314,184.396 476.74,185.213 476.888,186.063L477.874,191.733C478.021,192.583 478.839,193.158 479.689,193.01L488.709,191.441C489.559,191.293 490.134,190.476 489.985,189.626L489,183.957Z" style="fill:rgb(106,108,108);fill-rule:nonzero;"/>
        </g>
        <g transform="matrix(4.16667,0,0,4.16667,0,0)">
            <path d="M506.522,180.908C506.375,180.058 505.559,179.483 504.708,179.631L495.688,181.2C494.838,181.348 494.264,182.165 494.411,183.015L495.397,188.685C495.545,189.535 496.362,190.109 497.213,189.961L506.231,188.393C507.082,188.245 507.657,187.428 507.509,186.578L506.522,180.908Z" style="fill:rgb(106,108,108);fill-rule:nonzero;"/>
        </g>
        <g transform="matrix(4.16667,0,0,4.16667,0,0)">
            <path d="M524.046,177.86C523.898,177.009 523.081,176.435 522.231,176.583L513.211,178.151C512.361,178.299 511.786,179.116 511.935,179.967L512.921,185.636C513.068,186.486 513.886,187.061 514.736,186.913L523.755,185.344C524.605,185.196 525.181,184.379 525.032,183.529L524.046,177.86Z" style="fill:rgb(106,108,108);fill-rule:nonzero;"/>
        </g>
        <g transform="matrix(4.16667,0,0,4.16667,0,0)">
            <path d="M541.569,174.812C541.422,173.961 540.604,173.386 539.755,173.534L530.735,175.103C529.885,175.251 529.31,176.068 529.458,176.918L530.444,182.588C530.592,183.438 531.409,184.013 532.259,183.865L541.278,182.296C542.129,182.148 542.704,181.331 542.556,180.481L541.569,174.812Z" style="fill:rgb(106,108,108);fill-rule:nonzero;"/>
        </g>
        <g transform="matrix(4.16667,0,0,4.16667,0,0)">
            <path d="M559.093,171.763C558.945,170.913 558.128,170.338 557.278,170.486L548.259,172.055C547.408,172.203 546.833,173.02 546.981,173.87L547.968,179.54C548.115,180.39 548.933,180.964 549.782,180.816L558.802,179.248C559.652,179.1 560.228,178.283 560.079,177.433L559.093,171.763Z" style="fill:rgb(106,108,108);fill-rule:nonzero;"/>
        </g>
        <g transform="matrix(4.16667,0,0,4.16667,0,0)">
            <path d="M576.616,168.715C576.469,167.864 575.651,167.29 574.801,167.438L565.782,169.006C564.932,169.154 564.356,169.971 564.505,170.822L565.491,176.491C565.639,177.341 566.456,177.916 567.306,177.768L576.325,176.199C577.176,176.051 577.751,175.234 577.603,174.384L576.616,168.715Z" style="fill:rgb(106,108,108);fill-rule:nonzero;"/>
        </g>
        <g transform="matrix(4.16667,0,0,4.16667,0,0)">
            <path d="M594.14,165.667C593.992,164.816 593.175,164.241 592.324,164.389L583.306,165.958C582.455,166.106 581.88,166.923 582.028,167.773L583.015,173.443C583.162,174.293 583.979,174.868 584.829,174.72L593.849,173.151C594.699,173.003 595.273,172.186 595.126,171.336L594.14,165.667Z" style="fill:rgb(106,108,108);fill-rule:nonzero;"/>
        </g>
        <g transform="matrix(4.16667,0,0,4.16667,0,0)">
            <path d="M629.187,159.57C629.038,158.719 628.222,158.145 627.371,158.292L618.352,159.861C617.502,160.009 616.927,160.826 617.074,161.677L618.061,167.346C618.209,168.196 619.025,168.771 619.876,168.623L628.896,167.054C629.746,166.906 630.32,166.089 630.173,165.239L629.187,159.57Z" style="fill:rgb(106,108,108);fill-rule:nonzero;"/>
        </g>
        <g transform="matrix(4.16667,0,0,4.16667,0,0)">
            <path d="M646.71,156.521C646.562,155.671 645.745,155.096 644.895,155.244L635.875,156.813C635.024,156.961 634.45,157.778 634.598,158.628L635.584,164.298C635.732,165.148 636.549,165.723 637.399,165.575L646.419,164.006C647.27,163.858 647.844,163.041 647.696,162.19L646.71,156.521Z" style="fill:rgb(106,108,108);fill-rule:nonzero;"/>
        </g>
        <g transform="matrix(4.16667,0,0,4.16667,0,0)">
            <path d="M664.233,153.473C664.085,152.623 663.269,152.048 662.418,152.196L653.398,153.765C652.548,153.913 651.974,154.729 652.121,155.58L653.107,161.25C653.256,162.1 654.072,162.674 654.923,162.526L663.942,160.958C664.793,160.81 665.367,159.993 665.22,159.142L664.233,153.473Z" style="fill:rgb(106,108,108);fill-rule:nonzero;"/>
        </g>
        <g transform="matrix(4.16667,0,0,4.16667,0,0)">
            <path d="M487.011,172.521C486.862,171.671 486.046,171.096 485.195,171.244L476.176,172.813C475.325,172.961 474.751,173.778 474.898,174.628L475.885,180.297C476.032,181.148 476.85,181.723 477.7,181.575L486.72,180.005C487.569,179.858 488.145,179.041 487.996,178.19L487.011,172.521Z" style="fill:rgb(106,108,108);fill-rule:nonzero;"/>
        </g>
        <g transform="matrix(4.16667,0,0,4.16667,0,0)">
            <path d="M504.533,169.473C504.386,168.623 503.569,168.048 502.719,168.196L493.699,169.765C492.849,169.913 492.274,170.729 492.422,171.58L493.408,177.249C493.556,178.1 494.373,178.674 495.224,178.526L504.242,176.957C505.093,176.81 505.668,175.993 505.52,175.142L504.533,169.473Z" style="fill:rgb(106,108,108);fill-rule:nonzero;"/>
        </g>
        <g transform="matrix(4.16667,0,0,4.16667,0,0)">
            <path d="M522.057,166.424C521.909,165.574 521.091,165 520.242,165.147L511.223,166.716C510.372,166.864 509.797,167.681 509.945,168.531L510.932,174.201C511.079,175.051 511.896,175.626 512.747,175.478L521.766,173.909C522.616,173.761 523.19,172.944 523.043,172.094L522.057,166.424Z" style="fill:rgb(106,108,108);fill-rule:nonzero;"/>
        </g>
        <g transform="matrix(4.16667,0,0,4.16667,0,0)">
            <path d="M539.58,163.376C539.433,162.526 538.615,161.951 537.766,162.099L528.746,163.668C527.896,163.816 527.32,164.633 527.469,165.483L528.455,171.152C528.603,172.003 529.42,172.578 530.27,172.43L539.289,170.86C540.14,170.713 540.715,169.896 540.566,169.045L539.58,163.376Z" style="fill:rgb(106,108,108);fill-rule:nonzero;"/>
        </g>
        <g transform="matrix(4.16667,0,0,4.16667,0,0)">
            <path d="M557.104,160.328C556.956,159.478 556.139,158.903 555.288,159.051L546.27,160.62C545.419,160.768 544.844,161.584 544.992,162.435L545.979,168.104C546.126,168.955 546.943,169.529 547.793,169.381L556.813,167.812C557.663,167.665 558.238,166.848 558.09,165.997L557.104,160.328Z" style="fill:rgb(106,108,108);fill-rule:nonzero;"/>
        </g>
        <g transform="matrix(4.16667,0,0,4.16667,0,0)">
            <path d="M574.627,157.279C574.479,156.429 573.662,155.854 572.812,156.002L563.793,157.571C562.942,157.719 562.367,158.536 562.516,159.386L563.502,165.056C563.649,165.906 564.467,166.481 565.316,166.333L574.336,164.764C575.187,164.616 575.762,163.799 575.613,162.949L574.627,157.279Z" style="fill:rgb(106,108,108);fill-rule:nonzero;"/>
        </g>
        <g transform="matrix(4.16667,0,0,4.16667,0,0)">
            <path d="M592.15,154.231C592.003,153.381 591.186,152.806 590.335,152.954L581.315,154.523C580.466,154.671 579.891,155.488 580.039,156.338L581.025,162.007C581.173,162.858 581.989,163.433 582.84,163.285L591.859,161.715C592.71,161.567 593.284,160.751 593.137,159.9L592.15,154.231Z" style="fill:rgb(106,108,108);fill-rule:nonzero;"/>
        </g>
        <g transform="matrix(4.16667,0,0,4.16667,0,0)">
            <path d="M609.674,151.183C609.525,150.333 608.709,149.758 607.858,149.906L598.839,151.475C597.989,151.623 597.414,152.439 597.563,153.29L598.548,158.959C598.696,159.81 599.513,160.384 600.363,160.236L609.383,158.667C610.233,158.519 610.808,157.703 610.66,156.852L609.674,151.183Z" style="fill:rgb(106,108,108);fill-rule:nonzero;"/>
        </g>
        <g transform="matrix(4.16667,0,0,4.16667,0,0)">
            <path d="M627.197,148.134C627.049,147.284 626.232,146.709 625.382,146.857L616.362,148.426C615.513,148.574 614.938,149.391 615.085,150.241L616.071,155.911C616.22,156.761 617.036,157.336 617.887,157.188L626.906,155.619C627.757,155.471 628.331,154.654 628.184,153.804L627.197,148.134Z" style="fill:rgb(106,108,108);fill-rule:nonzero;"/>
        </g>
        <g transform="matrix(4.16667,0,0,4.16667,0,0)">
            <path d="M644.721,145.086C644.572,144.236 643.756,143.661 642.905,143.809L633.886,145.378C633.035,145.526 632.461,146.343 632.608,147.193L633.595,152.862C633.743,153.713 634.56,154.288 635.41,154.14L644.43,152.57C645.28,152.422 645.854,151.606 645.707,150.755L644.721,145.086Z" style="fill:rgb(106,108,108);fill-rule:nonzero;"/>
        </g>
        <g transform="matrix(4.16667,0,0,4.16667,0,0)">
            <path d="M662.244,142.038C662.096,141.188 661.279,140.613 660.429,140.761L651.409,142.33C650.559,142.478 649.984,143.294 650.132,144.145L651.118,149.814C651.267,150.665 652.083,151.239 652.934,151.091L661.953,149.522C662.804,149.374 663.378,148.558 663.23,147.707L662.244,142.038Z" style="fill:rgb(106,108,108);fill-rule:nonzero;"/>
        </g>
        <g transform="matrix(4.16667,0,0,4.16667,0,0)">
            <path d="M485.021,161.086C484.873,160.235 484.057,159.661 483.206,159.809L474.187,161.377C473.336,161.525 472.762,162.342 472.909,163.193L473.896,168.862C474.043,169.712 474.86,170.287 475.711,170.139L484.73,168.57C485.58,168.422 486.155,167.605 486.007,166.755L485.021,161.086Z" style="fill:rgb(106,108,108);fill-rule:nonzero;"/>
        </g>
        <g transform="matrix(4.16667,0,0,4.16667,0,0)">
            <path d="M502.544,158.038C502.396,157.187 501.58,156.612 500.729,156.76L491.71,158.329C490.859,158.477 490.285,159.294 490.433,160.145L491.419,165.814C491.566,166.664 492.384,167.239 493.234,167.091L502.253,165.522C503.104,165.374 503.679,164.557 503.53,163.707L502.544,158.038Z" style="fill:rgb(106,108,108);fill-rule:nonzero;"/>
        </g>
        <g transform="matrix(4.16667,0,0,4.16667,0,0)">
            <path d="M520.067,154.989C519.919,154.139 519.103,153.564 518.253,153.712L509.233,155.281C508.383,155.429 507.808,156.246 507.956,157.096L508.942,162.766C509.09,163.616 509.907,164.19 510.758,164.042L519.776,162.474C520.627,162.326 521.202,161.509 521.054,160.659L520.067,154.989Z" style="fill:rgb(106,108,108);fill-rule:nonzero;"/>
        </g>
        <g transform="matrix(4.16667,0,0,4.16667,0,0)">
            <path d="M537.591,151.941C537.443,151.09 536.626,150.516 535.776,150.664L526.757,152.232C525.906,152.38 525.331,153.197 525.479,154.048L526.466,159.717C526.613,160.567 527.431,161.142 528.28,160.994L537.3,159.425C538.15,159.277 538.726,158.46 538.577,157.61L537.591,151.941Z" style="fill:rgb(106,108,108);fill-rule:nonzero;"/>
        </g>
        <g transform="matrix(4.16667,0,0,4.16667,0,0)">
            <path d="M555.114,148.893C554.967,148.042 554.149,147.467 553.299,147.615L544.28,149.184C543.43,149.332 542.854,150.149 543.003,151L543.989,156.669C544.137,157.519 544.954,158.094 545.804,157.946L554.823,156.377C555.674,156.229 556.249,155.412 556.101,154.562L555.114,148.893Z" style="fill:rgb(106,108,108);fill-rule:nonzero;"/>
        </g>
        <g transform="matrix(4.16667,0,0,4.16667,0,0)">
            <path d="M572.638,145.844C572.49,144.994 571.673,144.419 570.822,144.567L561.804,146.136C560.953,146.284 560.378,147.101 560.526,147.951L561.513,153.621C561.66,154.471 562.478,155.045 563.327,154.897L572.347,153.329C573.197,153.181 573.772,152.364 573.624,151.514L572.638,145.844Z" style="fill:rgb(106,108,108);fill-rule:nonzero;"/>
        </g>
        <g transform="matrix(4.16667,0,0,4.16667,0,0)">
            <path d="M590.161,142.796C590.014,141.945 589.196,141.371 588.346,141.519L579.326,143.087C578.477,143.235 577.901,144.052 578.05,144.903L579.036,150.572C579.184,151.422 580,151.997 580.851,151.849L589.87,150.28C590.721,150.132 591.295,149.315 591.147,148.465L590.161,142.796Z" style="fill:rgb(106,108,108);fill-rule:nonzero;"/>
        </g>
        <g transform="matrix(4.16667,0,0,4.16667,0,0)">
            <path d="M607.685,139.748C607.536,138.897 606.72,138.322 605.869,138.47L596.85,140.039C596,140.187 595.425,141.004 595.573,141.854L596.559,147.524C596.707,148.374 597.523,148.949 598.374,148.801L607.394,147.232C608.244,147.084 608.818,146.267 608.671,145.417L607.685,139.748Z" style="fill:rgb(106,108,108);fill-rule:nonzero;"/>
        </g>
        <g transform="matrix(4.16667,0,0,4.16667,0,0)">
            <path d="M625.208,136.699C625.06,135.849 624.243,135.274 623.393,135.422L614.373,136.991C613.523,137.139 612.948,137.956 613.096,138.806L614.082,144.476C614.23,145.326 615.047,145.9 615.897,145.752L624.917,144.184C625.768,144.036 626.342,143.219 626.194,142.369L625.208,136.699Z" style="fill:rgb(106,108,108);fill-rule:nonzero;"/>
        </g>
        <g transform="matrix(4.16667,0,0,4.16667,0,0)">
            <path d="M642.731,133.651C642.583,132.8 641.767,132.226 640.916,132.374L631.896,133.942C631.046,134.09 630.472,134.907 630.619,135.758L631.605,141.427C631.754,142.277 632.57,142.852 633.421,142.704L642.44,141.135C643.291,140.987 643.865,140.17 643.718,139.32L642.731,133.651Z" style="fill:rgb(106,108,108);fill-rule:nonzero;"/>
        </g>
        <g transform="matrix(4.16667,0,0,4.16667,0,0)">
            <path d="M660.255,130.603C660.106,129.752 659.29,129.177 658.439,129.325L649.42,130.894C648.569,131.042 647.995,131.859 648.143,132.709L649.129,138.379C649.277,139.229 650.094,139.804 650.944,139.656L659.964,138.087C660.814,137.939 661.389,137.122 661.241,136.272L660.255,130.603Z" style="fill:rgb(106,108,108);fill-rule:nonzero;"/>
        </g>
        <g transform="matrix(4.16667,0,0,4.16667,0,0)">
            <path d="M598.292,198.695L593.782,199.479L589.273,200.264L528.199,210.888L521.628,212.032L519.18,212.458C518.328,212.605 517.754,213.422 517.901,214.272L518.888,219.942C519.036,220.792 519.854,221.367 520.703,221.219L523.151,220.793L529.723,219.65L590.797,209.026L595.307,208.241L599.816,207.457C600.667,207.309 601.241,206.492 601.094,205.642L600.107,199.972C599.96,199.122 599.143,198.547 598.292,198.695Z" style="fill:rgb(106,108,108);fill-rule:nonzero;"/>
        </g>
        <g transform="matrix(4.16667,0,0,4.16667,0,0)">
            <path d="M609.848,161.341L600.828,162.91C599.979,163.058 599.403,163.875 599.552,164.725L599.734,165.776L600.537,170.395L601.271,174.614L594.313,175.824L589.804,176.609L585.295,177.394C584.444,177.542 583.869,178.358 584.018,179.208L585.004,184.878C585.151,185.729 585.968,186.303 586.818,186.155L591.328,185.371L595.838,184.586L604.342,183.107L609.818,182.154L613.361,181.538C614.212,181.39 614.786,180.573 614.639,179.723L614.295,177.746L613.652,174.053L612.649,168.288L611.846,163.669L611.663,162.618C611.515,161.768 610.698,161.193 609.848,161.341Z" style="fill:rgb(106,108,108);fill-rule:nonzero;"/>
        </g>
        <g transform="matrix(4.16667,0,0,4.16667,0,0)">
            <path d="M666.396,175.066L657.377,176.635C656.526,176.783 655.952,177.6 656.1,178.451L656.522,180.871L657.086,184.12L658.089,189.886L658.802,193.982L659.075,195.555C659.224,196.405 660.04,196.98 660.891,196.832L669.91,195.263C670.761,195.115 671.335,194.298 671.188,193.448L670.913,191.875L670.201,187.779L669.198,182.013L668.633,178.764L668.212,176.344C668.063,175.493 667.247,174.918 666.396,175.066Z" style="fill:rgb(106,108,108);fill-rule:nonzero;"/>
        </g>
        <g transform="matrix(4.16667,0,0,4.16667,0,0)">
            <path d="M613.826,184.211L610.827,184.733L604.807,185.78L596.303,187.26L590.656,188.242L587.284,188.829C586.434,188.977 585.858,189.793 586.007,190.644L586.993,196.313C587.141,197.164 587.957,197.738 588.808,197.59L592.181,197.003L597.827,196.021L606.331,194.542L612.352,193.495L615.351,192.973C616.201,192.825 616.775,192.008 616.628,191.158L615.642,185.489C615.494,184.638 614.677,184.063 613.826,184.211Z" style="fill:rgb(106,108,108);fill-rule:nonzero;"/>
        </g>
        <g transform="matrix(4.16667,0,0,4.16667,0,0)">
            <path d="M506.697,191.066L502.188,191.851L497.678,192.635L489.174,194.114L484.664,194.899L480.154,195.684C479.304,195.832 478.729,196.648 478.877,197.499L479.863,203.168C480.011,204.019 480.828,204.593 481.679,204.445L486.188,203.661L490.698,202.876L499.202,201.397L503.712,200.612L508.221,199.828C509.071,199.68 509.646,198.863 509.498,198.013L508.512,192.343C508.364,191.493 507.548,190.918 506.697,191.066Z" style="fill:rgb(106,108,108);fill-rule:nonzero;"/>
        </g>
        <g transform="matrix(4.16667,0,0,4.16667,0,0)">
            <path d="M600.839,218.141L559.169,225.39C556.942,225.777 555.45,227.897 555.838,230.124L558.559,245.767C558.946,247.994 561.066,249.485 563.294,249.098L604.963,241.849C607.19,241.461 608.682,239.342 608.295,237.114L605.573,221.472C605.186,219.245 603.066,217.753 600.839,218.141Z" style="fill:rgb(211,212,214);fill-rule:nonzero;"/>
        </g>
        <g transform="matrix(4.16667,0,0,4.16667,0,0)">
            <path d="M562.903,246.855C561.958,247.02 561.056,246.385 560.892,245.44L560.347,242.309L581.156,238.689L581.999,243.534L562.903,246.855Z" style="fill:rgb(243,244,245);fill-rule:nonzero;"/>
        </g>
        <g transform="matrix(4.16667,0,0,4.16667,0,0)">
            <path d="M585.478,242.929L584.635,238.084L605.443,234.464L605.988,237.595C606.152,238.54 605.518,239.442 604.572,239.607L585.478,242.929Z" style="fill:rgb(243,244,245);fill-rule:nonzero;"/>
        </g>
        <g transform="matrix(4.16667,0,0,4.16667,0,0)">
            <path d="M558.052,229.116C557.931,228.417 558.398,227.752 559.098,227.63C559.797,227.509 560.462,227.977 560.584,228.676C560.706,229.375 560.237,230.041 559.538,230.162C558.839,230.284 558.174,229.815 558.052,229.116Z" style="fill:rgb(243,244,245);fill-rule:nonzero;"/>
        </g>
        <g transform="matrix(4.16667,0,0,4.16667,0,0)">
            <path d="M662.789,40.14L440.748,78.766C434.18,79.908 430.456,86.94 433.203,93.015L448.066,137.203C449.983,141.442 454.524,143.847 459.106,143.049L667.217,106.847C671.8,106.049 675.263,102.252 675.635,97.616L674.702,51.004C675.236,44.359 669.357,38.997 662.789,40.14Z" style="fill:rgb(243,244,245);fill-rule:nonzero;"/>
        </g>
        <g transform="matrix(4.16667,0,0,4.16667,0,0)">
            <path d="M662.789,40.14L440.748,78.766C434.18,79.908 430.456,86.94 433.203,93.015L448.066,137.203C449.983,141.442 454.524,143.847 459.106,143.049L667.217,106.847C671.8,106.049 675.263,102.252 675.635,97.616L674.702,51.004C675.236,44.359 669.357,38.997 662.789,40.14Z" style="fill:rgb(243,244,245);fill-rule:nonzero;"/>
        </g>
        <g transform="matrix(4.16667,0,0,4.16667,0,0)">
            <path d="M662.789,40.14L440.748,78.766C434.18,79.908 430.456,86.94 433.203,93.015L448.066,137.203C449.983,141.442 454.524,143.847 459.106,143.049L667.217,106.847C671.8,106.049 675.263,102.252 675.635,97.616L674.702,51.004C675.236,44.359 669.357,38.997 662.789,40.14Z" style="fill:rgb(216,217,217);fill-rule:nonzero;"/>
        </g>
        <g transform="matrix(4.16667,0,0,4.16667,0,0)">
            <path d="M458.25,138.124C455.913,138.53 453.6,137.305 452.623,135.144L437.759,90.954C437.092,89.479 437.143,87.812 437.901,86.381C438.659,84.949 440.008,83.969 441.604,83.692L663.646,45.065C665.241,44.788 666.843,45.255 668.04,46.346C669.236,47.437 669.849,48.989 669.719,50.604L670.651,97.216C670.462,99.58 668.697,101.514 666.359,101.921L458.25,138.124Z" style="fill:rgb(106,108,108);fill-rule:nonzero;"/>
        </g>
        <g transform="matrix(4.16667,0,0,4.16667,0,0)">
            <path d="M640.567,122.574L489.502,148.854L487.66,138.265L638.725,111.986L640.567,122.574Z" style="fill:rgb(106,108,108);fill-rule:nonzero;"/>
        </g>
        <g transform="matrix(4.16667,0,0,4.16667,0,0)">
            <path d="M489.502,148.854L488.859,145.159L639.924,118.88L640.567,122.574L489.502,148.854Z" style="fill:rgb(79,81,81);fill-rule:nonzero;"/>
        </g>
        <g transform="matrix(4.16667,0,0,4.16667,0,0)">
            <path d="M457.357,138.201C457.353,138.201 457.349,138.201 457.345,138.201C457.349,138.201 457.353,138.201 457.357,138.201ZM457.358,138.201C457.64,138.201 457.924,138.178 458.209,138.131C457.924,138.178 457.64,138.201 457.358,138.201ZM452.686,135.278C452.681,135.267 452.675,135.256 452.67,135.246C452.675,135.256 452.681,135.267 452.686,135.278Z" style="fill:rgb(225,226,225);fill-rule:nonzero;"/>
        </g>
        <g transform="matrix(4.16667,0,0,4.16667,0,0)">
            <path d="M457.357,138.201C457.353,138.201 457.349,138.201 457.345,138.201C455.384,138.196 453.562,137.08 452.686,135.278C452.681,135.267 452.675,135.256 452.67,135.246C452.662,135.228 452.654,135.21 452.645,135.193C453.105,136.183 453.854,136.964 454.752,137.485L440.034,93.73C439.367,92.255 439.418,90.587 440.176,89.157C440.935,87.725 442.283,86.745 443.879,86.468L561.246,66.05L537.438,124.348L458.25,138.124C458.236,138.126 458.222,138.128 458.209,138.131C457.924,138.178 457.64,138.201 457.358,138.201L457.357,138.201Z" style="fill:rgb(132,134,135);fill-rule:nonzero;"/>
        </g>
        <g transform="matrix(4.16667,0,0,4.16667,0,0)">
            <path d="M452.645,135.191C452.644,135.191 452.644,135.19 452.644,135.19C452.643,135.187 452.641,135.184 452.64,135.182C452.639,135.178 452.637,135.175 452.636,135.172C452.639,135.178 452.642,135.185 452.645,135.191ZM452.633,135.167C452.63,135.159 452.626,135.152 452.623,135.144C452.626,135.152 452.63,135.159 452.633,135.167Z" style="fill:rgb(132,134,135);fill-rule:nonzero;"/>
        </g>
        <g transform="matrix(4.16667,0,0,4.16667,0,0)">
            <path d="M452.645,135.192L452.645,135.191L452.645,135.192Z" style="fill:rgb(162,162,162);fill-rule:nonzero;"/>
        </g>
        <g transform="matrix(4.16667,0,0,4.16667,0,0)">
            <path d="M452.645,135.193L452.645,135.192L452.645,135.191C452.645,135.191 452.645,135.192 452.645,135.193Z" style="fill:rgb(79,81,81);fill-rule:nonzero;"/>
        </g>
        <g transform="matrix(4.16667,0,0,4.16667,0,0)">
            <path d="M452.636,135.172C452.635,135.17 452.634,135.169 452.633,135.167C452.634,135.169 452.635,135.17 452.636,135.172Z" style="fill:rgb(162,162,162);fill-rule:nonzero;"/>
        </g>
        <g transform="matrix(4.16667,0,0,4.16667,0,0)">
            <path d="M452.636,135.172C452.635,135.17 452.634,135.169 452.633,135.167C452.634,135.169 452.635,135.17 452.636,135.172Z" style="fill:rgb(79,81,81);fill-rule:nonzero;"/>
        </g>
        <g transform="matrix(4.16667,0,0,4.16667,0,0)">
            <path d="M441.604,83.692L663.646,45.066C663.948,45.013 664.25,44.987 664.55,44.987C665.833,44.987 667.069,45.462 668.039,46.346C668.693,46.942 669.165,47.678 669.444,48.484C668.648,48.013 667.745,47.764 666.817,47.764C666.52,47.764 666.22,47.789 665.921,47.841L561.246,66.05L562.641,62.637L441.604,83.692Z" style="fill:rgb(79,81,81);fill-rule:nonzero;"/>
        </g>
        <g transform="matrix(4.16667,0,0,4.16667,0,0)">
            <path d="M454.752,137.485C453.854,136.964 453.105,136.183 452.645,135.193C452.645,135.192 452.645,135.191 452.645,135.191C452.642,135.185 452.639,135.178 452.636,135.172C452.635,135.17 452.634,135.169 452.633,135.167C452.63,135.159 452.626,135.152 452.623,135.144L437.759,90.954C437.449,90.269 437.294,89.541 437.293,88.815C437.292,87.98 437.495,87.146 437.901,86.381C438.659,84.949 440.008,83.969 441.604,83.692L562.641,62.637L561.246,66.05L443.879,86.468C442.283,86.745 440.935,87.725 440.176,89.157C439.418,90.587 439.367,92.255 440.034,93.73L454.752,137.485Z" style="fill:rgb(100,101,101);fill-rule:nonzero;"/>
        </g>
        <g transform="matrix(4.16667,0,0,4.16667,0,0)">
            <path d="M800,322.75L720.144,275.817L721.867,272.884L800,318.804L800,322.75ZM709.823,268.191C708.137,268.191 706.427,267.755 704.868,266.839L680.253,252.372L675.785,249.746L673.353,248.317C670.918,246.886 670.104,243.752 671.535,241.317C671.997,240.532 672.635,239.915 673.371,239.488L676.873,238.879C677.443,238.984 678.005,239.189 678.534,239.5L679.858,240.278C680.063,240.398 680.287,240.455 680.508,240.455C680.949,240.455 681.378,240.229 681.617,239.821C681.96,239.24 681.791,238.499 681.248,238.118L689.019,236.766C695.245,235.683 699.415,229.757 698.762,226.004L695.052,204.677L700.419,207.831L704.887,210.457L708.699,212.698L703.09,202.856C701.401,199.894 702.435,196.123 705.396,194.435L705.5,194.376C706.465,193.827 707.515,193.565 708.551,193.565C710.697,193.565 712.782,194.686 713.921,196.683L730.326,225.466C734.342,228.399 735.559,233.958 732.984,238.336L732.564,239.051L736.397,241.304L722.533,264.894L718.7,262.642L725.633,250.846L718.279,263.356C716.454,266.462 713.183,268.191 709.823,268.191Z" style="fill:rgb(26,127,170);fill-rule:nonzero;"/>
        </g>
        <g transform="matrix(4.16667,0,0,4.16667,0,0)">
            <path d="M673.371,239.488C674.153,239.034 675.044,238.794 675.948,238.794C676.256,238.794 676.566,238.822 676.873,238.879L673.371,239.488ZM681.248,238.118C681.22,238.098 681.191,238.08 681.161,238.062L678.463,236.477L685.946,235.175C692.173,234.092 696.342,228.166 695.689,224.413L694.543,217.824C694.558,217.802 694.572,217.779 694.586,217.756C694.923,217.182 694.764,216.453 694.238,216.068L691.938,202.847L695.052,204.677L698.762,226.004C699.415,229.757 695.245,235.683 689.019,236.766L681.248,238.118Z" style="fill:rgb(19,95,128);fill-rule:nonzero;"/>
        </g>
        <g transform="matrix(4.16667,0,0,4.16667,0,0)">
            <path d="M678.463,236.477L674.451,234.119C672.016,232.688 671.203,229.554 672.634,227.12C673.587,225.499 675.294,224.596 677.047,224.596C677.927,224.596 678.819,224.824 679.633,225.302L686.343,229.246C686.547,229.366 686.771,229.423 686.992,229.423C687.433,229.423 687.862,229.196 688.102,228.789C688.462,228.177 688.257,227.389 687.645,227.029L678.696,221.77C676.262,220.339 675.447,217.205 676.879,214.771C677.831,213.15 679.538,212.247 681.292,212.247C682.172,212.247 683.064,212.475 683.878,212.953L692.827,218.213C693.031,218.333 693.255,218.39 693.476,218.39C693.892,218.39 694.298,218.188 694.543,217.824L695.689,224.413C696.342,228.166 692.173,234.092 685.946,235.175L678.463,236.477ZM694.238,216.068C694.203,216.043 694.167,216.019 694.129,215.996L668.68,201.04C666.838,199.957 665.924,197.899 666.208,195.907L669.91,195.263C670.761,195.115 671.335,194.298 671.188,193.448L670.913,191.875L670.854,191.534C670.994,191.523 671.134,191.517 671.275,191.517C672.155,191.517 673.048,191.744 673.861,192.223L691.938,202.847L694.238,216.068Z" style="fill:rgb(181,181,182);fill-rule:nonzero;"/>
        </g>
        <g transform="matrix(4.16667,0,0,4.16667,0,0)">
            <path d="M666.208,195.907C666.299,195.267 666.514,194.633 666.862,194.04C667.738,192.549 669.252,191.666 670.854,191.534L670.913,191.875L671.188,193.448C671.335,194.298 670.761,195.115 669.91,195.263L666.208,195.907Z" style="fill:rgb(79,81,81);fill-rule:nonzero;"/>
        </g>
        <g transform="matrix(4.16667,0,0,4.16667,0,0)">
            <path d="M415.719,305.834C415.719,305.834 473.97,328.685 493.833,338.461C513.695,348.237 520.012,358.313 520.995,361.227C521.977,364.14 517.12,365.483 512.539,364.846C507.96,364.209 506.68,349.517 491.697,342.006C476.714,334.495 415.349,308.5 415.349,308.5L415.719,305.834Z" style="fill:rgb(47,48,47);fill-rule:nonzero;"/>
        </g>
        <g transform="matrix(4.16667,0,0,4.16667,0,0)">
            <path d="M536.727,322.667C536.727,322.667 474.452,328.753 452.675,332.736C430.897,336.719 422.071,344.688 420.33,347.223C418.59,349.757 422.895,352.375 427.476,353.013C432.057,353.65 437.298,339.866 453.762,336.729C470.226,333.593 536.356,325.334 536.356,325.334L536.727,322.667Z" style="fill:rgb(47,48,47);fill-rule:nonzero;"/>
        </g>
        <g transform="matrix(4.16667,0,0,4.16667,0,0)">
            <path d="M445.166,339.889C445.033,339.889 444.9,339.888 444.767,339.886C447.335,338.518 450.3,337.389 453.762,336.729C455.371,336.423 457.456,336.067 459.905,335.675C458.572,336.81 457.079,337.673 455.485,338.214C452.212,339.325 448.709,339.889 445.166,339.889ZM434.142,338.052C433.191,337.733 432.248,337.372 431.314,336.971C423.653,333.681 420.636,328.002 419.782,315.269C419.772,315.111 419.766,314.957 419.766,314.808C419.768,313.484 420.192,312.47 421.082,311.64C421.254,311.48 421.444,311.326 421.649,311.178C422.772,311.656 424.02,312.188 425.377,312.767C430.002,320.805 439.815,328.034 452.585,332.752C444.911,334.162 438.849,336.067 434.142,338.052ZM425.283,309.618C425.28,309.616 425.279,309.616 425.276,309.615C427.38,309.066 430.01,308.783 433.015,308.783C434.888,308.783 436.907,308.893 439.034,309.117C436.911,308.894 434.897,308.784 433.028,308.784C430.02,308.784 427.388,309.068 425.283,309.618Z" style="fill:rgb(46,140,179);fill-rule:nonzero;"/>
        </g>
        <g transform="matrix(4.16667,0,0,4.16667,0,0)">
            <path d="M425.377,312.767C424.02,312.188 422.772,311.656 421.649,311.178C422.558,310.527 423.784,310.004 425.276,309.615C425.279,309.616 425.28,309.616 425.283,309.618C424.833,309.735 424.408,309.864 424.008,310.006C424.396,310.935 424.853,311.856 425.377,312.767Z" style="fill:rgb(69,70,70);fill-rule:nonzero;"/>
        </g>
        <g transform="matrix(4.16667,0,0,4.16667,0,0)">
            <path d="M444.767,339.886C443.361,339.87 441.95,339.764 440.545,339.569C438.393,339.27 436.25,338.761 434.142,338.052C438.849,336.067 444.911,334.162 452.585,332.752C455.08,333.674 457.688,334.501 460.392,335.218C460.506,335.112 460.628,335.019 460.739,334.908C460.469,335.176 460.191,335.432 459.905,335.675C457.456,336.067 455.371,336.423 453.762,336.729C450.3,337.389 447.335,338.518 444.767,339.886Z" style="fill:rgb(69,70,70);fill-rule:nonzero;"/>
        </g>
        <g transform="matrix(4.16667,0,0,4.16667,0,0)">
            <path d="M439.1,309.124C439.092,309.123 439.084,309.122 439.076,309.121C439.084,309.122 439.092,309.123 439.1,309.124Z" style="fill:rgb(46,140,179);fill-rule:nonzero;"/>
        </g>
        <g transform="matrix(4.16667,0,0,4.16667,0,0)">
            <path d="M530.029,330.605C525.733,342.622 521.279,347.262 513.012,348.336C509.771,348.757 506.545,348.75 503.423,348.316C498.343,347.609 493.501,345.749 489.42,342.934C487.736,341.775 486.327,340.198 485.267,338.32C484.434,336.522 483.796,334.951 483.385,333.688C483.235,333.16 483.107,332.648 483.003,332.195C481.748,325.373 488.063,321.291 490.509,320.575C493.841,319.592 497.767,318.536 502.186,318.459C504.605,318.417 507.765,318.639 510.852,319.068C520.456,320.404 527.705,323.351 529.77,326.76C530.471,327.918 530.554,329.14 530.029,330.605ZM464.589,329.634C464.365,330.041 464.103,330.498 463.815,330.966C463.074,332.068 462.032,333.406 460.739,334.908C459.207,336.426 457.421,337.557 455.485,338.214C450.791,339.807 445.625,340.275 440.545,339.569C437.423,339.135 434.317,338.26 431.314,336.971C423.653,333.681 420.636,328.002 419.782,315.269C419.678,313.716 420.091,312.564 421.082,311.64C423.999,308.924 431.777,308.068 441.381,309.404C444.468,309.833 447.567,310.482 449.884,311.183C454.114,312.464 457.603,314.551 460.54,316.406C462.697,317.762 467.659,323.413 464.589,329.634ZM502.133,315.459C492.022,315.637 484.724,320.415 481.606,318.941C478.49,317.468 477.151,317.183 475.734,316.985C474.316,316.788 472.951,316.697 469.551,317.264C466.15,317.831 460.432,311.243 450.754,308.312C441.075,305.381 415.914,302.409 416.789,315.469C417.664,328.53 420.856,335.744 430.13,339.728C439.404,343.711 448.725,343.677 456.449,341.055C463.701,338.593 467.014,331.629 468.615,328.333L468.616,328.333C468.721,328.118 468.818,327.918 468.908,327.737C469.132,327.29 469.425,326.901 469.754,326.551C471.177,324.727 472.943,323.809 474.75,324.061C476.556,324.312 478.005,325.677 478.876,327.82C479.097,328.246 479.273,328.701 479.365,329.191C479.403,329.391 479.442,329.609 479.484,329.845L479.484,329.846C480.127,333.453 481.412,341.057 487.717,345.404C494.433,350.035 503.39,352.612 513.398,351.311C523.408,350.01 528.447,343.941 532.854,331.615C537.262,319.289 512.244,315.282 502.133,315.459Z" style="fill:rgb(65,64,67);fill-rule:nonzero;"/>
        </g>
        <g transform="matrix(4.16667,0,0,4.16667,0,0)">
            <path d="M510.163,348.596C506.166,345.399 500.843,341.911 493.833,338.461C507.304,337.394 518.63,333.151 525.263,326.738C526.764,326.546 528.148,326.37 529.39,326.213C529.531,326.394 529.658,326.576 529.77,326.76C530.169,327.421 530.368,328.102 530.368,328.837C530.368,329.391 530.255,329.975 530.029,330.605C525.733,342.622 521.279,347.262 513.012,348.336C512.06,348.46 511.11,348.546 510.163,348.596ZM499.528,347.537C495.883,346.58 492.443,345.019 489.42,342.934C488.002,341.957 486.778,340.685 485.794,339.185C488.167,340.286 490.172,341.242 491.697,342.006C494.867,343.595 497.424,345.506 499.528,347.537ZM526.355,323.711C522.913,321.664 517.481,319.999 510.946,319.081C517.481,319.999 522.919,321.663 526.361,323.711C526.36,323.711 526.356,323.711 526.355,323.711Z" style="fill:rgb(46,140,179);fill-rule:nonzero;"/>
        </g>
        <g transform="matrix(4.16667,0,0,4.16667,0,0)">
            <path d="M508.248,348.647C508.245,348.647 508.243,348.647 508.24,348.647C506.651,348.646 505.076,348.541 503.526,348.33C503.492,348.325 503.457,348.321 503.423,348.316C502.105,348.133 500.804,347.872 499.528,347.537C497.424,345.506 494.867,343.595 491.697,342.006C490.172,341.242 488.167,340.286 485.794,339.185C485.61,338.904 485.434,338.616 485.267,338.32C485.344,338.457 485.436,338.58 485.518,338.714C486.029,338.723 486.54,338.727 487.047,338.727C489.359,338.727 491.625,338.637 493.834,338.462C500.843,341.911 506.166,345.399 510.163,348.596C509.525,348.63 508.889,348.646 508.255,348.647C508.253,348.647 508.25,348.647 508.248,348.647Z" style="fill:rgb(69,70,70);fill-rule:nonzero;"/>
        </g>
        <g transform="matrix(4.16667,0,0,4.16667,0,0)">
            <path d="M525.263,326.738C526.042,325.984 526.756,325.201 527.401,324.389C527.077,324.159 526.727,323.933 526.355,323.711C526.356,323.711 526.36,323.711 526.361,323.711C527.681,324.495 528.707,325.336 529.39,326.213C528.148,326.37 526.764,326.546 525.263,326.738Z" style="fill:rgb(69,70,70);fill-rule:nonzero;"/>
        </g>
        <g transform="matrix(4.16667,0,0,4.16667,0,0)">
            <path d="M508.248,348.647C508.245,348.647 508.243,348.647 508.24,348.647C508.243,348.647 508.245,348.647 508.248,348.647ZM508.255,348.647C508.889,348.646 509.525,348.63 510.163,348.596C511.11,348.546 512.06,348.46 513.012,348.336C521.279,347.262 525.733,342.622 530.029,330.605C530.255,329.975 530.368,329.391 530.368,328.837C530.368,329.391 530.255,329.975 530.029,330.605C525.733,342.622 521.279,347.262 513.012,348.336C511.419,348.543 509.83,348.646 508.255,348.647ZM503.526,348.33C503.492,348.325 503.457,348.321 503.423,348.316C498.343,347.609 493.501,345.749 489.42,342.934C487.736,341.775 486.327,340.198 485.267,338.32C485.434,338.616 485.61,338.904 485.794,339.185C486.778,340.685 488.002,341.957 489.42,342.934C492.443,345.019 495.883,346.58 499.528,347.537C500.804,347.872 502.105,348.133 503.423,348.316C503.457,348.321 503.492,348.325 503.526,348.33Z" style="fill:rgb(84,84,86);fill-rule:nonzero;"/>
        </g>
        <g transform="matrix(4.16667,0,0,4.16667,0,0)">
            <path d="M510.925,319.078C510.917,319.077 510.909,319.076 510.901,319.075C510.909,319.076 510.917,319.077 510.925,319.078Z" style="fill:rgb(46,140,179);fill-rule:nonzero;"/>
        </g>
        <g transform="matrix(4.16667,0,0,4.16667,0,0)">
            <path d="M510.946,319.081C510.939,319.08 510.933,319.079 510.925,319.078C510.932,319.079 510.939,319.08 510.946,319.081Z" style="fill:rgb(84,84,86);fill-rule:nonzero;"/>
        </g>
        <g transform="matrix(4.16667,0,0,4.16667,0,0)">
            <path d="M510.901,319.075C510.885,319.072 510.868,319.07 510.852,319.068C510.868,319.07 510.885,319.072 510.901,319.075Z" style="fill:rgb(84,84,86);fill-rule:nonzero;"/>
        </g>
        <g transform="matrix(4.16667,0,0,4.16667,0,0)">
            <path d="M493.833,338.461C491.021,337.078 487.443,335.433 483.368,333.627C483.238,333.163 483.124,332.714 483.029,332.307C497.953,330.251 514.601,328.098 525.263,326.738C518.63,333.151 507.304,337.394 493.834,338.462" style="fill:rgb(70,152,186);fill-rule:nonzero;"/>
        </g>
        <g transform="matrix(4.16667,0,0,4.16667,0,0)">
            <path d="M488.367,321.583C489.192,321.077 489.951,320.738 490.509,320.575C493.42,319.716 496.786,318.801 500.538,318.533C495.497,319.272 491.365,320.884 488.367,321.583Z" style="fill:rgb(80,187,232);fill-rule:nonzero;"/>
        </g>
        <g transform="matrix(4.16667,0,0,4.16667,0,0)">
            <path d="M483.055,328.486C483.794,325.2 486.289,322.859 488.367,321.583C491.365,320.884 495.497,319.272 500.538,318.533C501.079,318.494 501.629,318.468 502.186,318.459C502.205,318.458 502.225,318.458 502.244,318.458C502.419,318.455 502.598,318.454 502.781,318.454L502.81,318.454C505.093,318.455 507.921,318.667 510.701,319.047C510.719,319.05 510.737,319.052 510.756,319.055C510.788,319.059 510.82,319.063 510.852,319.068C510.868,319.07 510.885,319.072 510.901,319.075C510.909,319.076 510.917,319.077 510.925,319.078C510.933,319.079 510.939,319.08 510.946,319.081C517.481,319.999 522.913,321.664 526.355,323.711C515.793,324.794 498.778,326.591 483.055,328.486Z" style="fill:rgb(70,152,186);fill-rule:nonzero;"/>
        </g>
        <g transform="matrix(4.16667,0,0,4.16667,0,0)">
            <path d="M487.047,338.727C486.54,338.727 486.029,338.723 485.518,338.714C485.436,338.58 485.344,338.457 485.267,338.32C484.434,336.522 483.796,334.951 483.385,333.688C483.379,333.668 483.373,333.647 483.368,333.627C487.443,335.433 491.021,337.078 493.833,338.461C491.625,338.637 489.359,338.727 487.047,338.727Z" style="fill:rgb(88,88,89);fill-rule:nonzero;"/>
        </g>
        <g transform="matrix(4.16667,0,0,4.16667,0,0)">
            <path d="M483.029,332.307C483.02,332.269 483.011,332.232 483.003,332.195C482.893,331.596 482.841,331.017 482.84,330.461C482.838,329.769 482.915,329.11 483.055,328.486C498.778,326.591 515.793,324.794 526.355,323.711C526.727,323.933 527.077,324.159 527.401,324.389C526.756,325.201 526.042,325.984 525.263,326.738C514.601,328.098 497.953,330.251 483.029,332.307Z" style="fill:rgb(88,88,89);fill-rule:nonzero;"/>
        </g>
        <g transform="matrix(4.16667,0,0,4.16667,0,0)">
            <path d="M485.267,338.32C484.434,336.522 483.796,334.951 483.385,333.688C483.235,333.16 483.107,332.648 483.003,332.195C482.893,331.596 482.841,331.017 482.84,330.461C482.841,331.017 482.893,331.596 483.003,332.195C483.011,332.232 483.02,332.269 483.029,332.307C483.124,332.714 483.238,333.163 483.368,333.627C483.373,333.647 483.379,333.668 483.385,333.688C483.796,334.951 484.434,336.522 485.267,338.32ZM510.756,319.055C510.737,319.052 510.719,319.05 510.701,319.047C510.719,319.05 510.737,319.052 510.756,319.055ZM502.244,318.458C502.419,318.455 502.598,318.454 502.781,318.454C502.598,318.454 502.419,318.455 502.244,318.458ZM502.81,318.454C502.801,318.454 502.792,318.454 502.783,318.454C502.792,318.454 502.801,318.454 502.81,318.454Z" style="fill:rgb(101,102,102);fill-rule:nonzero;"/>
        </g>
        <g transform="matrix(4.16667,0,0,4.16667,0,0)">
            <path d="M452.585,332.752C439.815,328.034 430.002,320.805 425.377,312.767C435.207,316.962 450.693,323.601 464.562,329.682C464.344,330.078 464.091,330.517 463.815,330.966C463.813,330.97 463.81,330.974 463.807,330.978C459.499,331.59 455.697,332.183 452.675,332.736C452.644,332.742 452.615,332.747 452.585,332.752ZM465.554,325.992C450.94,319.878 435.092,313.519 425.283,309.618C427.388,309.068 430.02,308.784 433.028,308.784C434.897,308.784 436.911,308.894 439.034,309.117C439.049,309.118 439.062,309.12 439.076,309.121C439.084,309.122 439.092,309.123 439.1,309.124C439.848,309.203 440.608,309.296 441.381,309.404C444.468,309.833 447.567,310.482 449.884,311.183C454.114,312.464 457.603,314.551 460.54,316.406C462.213,317.457 465.572,321.091 465.565,325.571C465.565,325.71 465.561,325.851 465.554,325.992Z" style="fill:rgb(70,152,186);fill-rule:nonzero;"/>
        </g>
        <g transform="matrix(4.16667,0,0,4.16667,0,0)">
            <path d="M464.562,329.682C450.693,323.601 435.207,316.962 425.377,312.767C424.853,311.856 424.396,310.935 424.008,310.006C424.408,309.864 424.833,309.735 425.283,309.618C435.092,313.519 450.94,319.878 465.554,325.992C465.497,327.163 465.204,328.387 464.589,329.634C464.58,329.65 464.571,329.666 464.562,329.682Z" style="fill:rgb(88,88,89);fill-rule:nonzero;"/>
        </g>
        <g transform="matrix(4.16667,0,0,4.16667,0,0)">
            <path d="M460.392,335.218C457.688,334.501 455.08,333.674 452.585,332.752C452.615,332.747 452.644,332.742 452.675,332.736C455.697,332.183 459.499,331.59 463.807,330.978C463.067,332.078 462.027,333.411 460.739,334.908C460.628,335.019 460.506,335.112 460.392,335.218Z" style="fill:rgb(88,88,89);fill-rule:nonzero;"/>
        </g>
        <g transform="matrix(4.16667,0,0,4.16667,0,0)">
            <path d="M460.739,334.908C462.032,333.406 463.074,332.068 463.815,330.966C464.103,330.498 464.365,330.041 464.589,329.634C465.279,328.237 465.563,326.868 465.565,325.571C465.563,326.868 465.279,328.237 464.589,329.634C464.365,330.041 464.103,330.498 463.815,330.966C463.074,332.068 462.032,333.406 460.739,334.908ZM441.381,309.404C440.608,309.296 439.848,309.203 439.1,309.124C439.847,309.203 440.608,309.296 441.381,309.404ZM439.076,309.121C439.062,309.12 439.049,309.118 439.034,309.117C439.049,309.118 439.062,309.12 439.076,309.121Z" style="fill:rgb(84,84,86);fill-rule:nonzero;"/>
        </g>
        <g transform="matrix(4.16667,0,0,4.16667,0,0)">
            <path d="M416.891,316.828C416.084,313.761 413.429,312.805 413.649,311.221C413.869,309.638 414.541,305.864 415.719,305.834C416.897,305.804 431.594,304.386 441.174,306.349C450.754,308.312 429.106,307.696 429.106,307.696L420.528,308.95L418.211,316.404L416.891,316.828Z" style="fill:rgb(65,64,67);fill-rule:nonzero;"/>
        </g>
        <g transform="matrix(4.16667,0,0,4.16667,0,0)">
            <path d="M532.269,332.878C533.882,330.148 536.697,329.953 536.918,328.369C537.138,326.786 537.521,322.972 536.396,322.622C535.271,322.271 521.521,316.896 511.769,316.169C502.016,315.443 523.01,320.759 523.01,320.759L530.92,324.307L531.115,332.111L532.269,332.878Z" style="fill:rgb(65,64,67);fill-rule:nonzero;"/>
        </g>
        <g transform="matrix(4.16667,0,0,4.16667,0,0)">
            <path d="M666.096,399.832L661.952,399.832C664.195,394.538 665.437,388.715 665.437,382.603C665.437,371.162 661.09,360.737 653.957,352.889C662.851,360.973 668.437,372.636 668.437,385.603C668.437,390.581 667.613,395.367 666.096,399.832Z" style="fill:rgb(20,141,187);fill-rule:nonzero;"/>
        </g>
        <g transform="matrix(4.16667,0,0,4.16667,0,0)">
            <path d="M624.244,429.795C611.278,429.795 599.615,424.21 591.531,415.315C599.379,422.448 609.804,426.795 621.244,426.795C639.539,426.795 655.237,415.679 661.952,399.832L666.096,399.832C660.173,417.257 643.673,429.795 624.244,429.795Z" style="fill:rgb(14,98,158);fill-rule:nonzero;"/>
        </g>
        <g transform="matrix(4.16667,0,0,4.16667,0,0)">
            <path d="M577.052,382.603C577.052,358.196 596.838,338.41 621.244,338.41C645.651,338.41 665.437,358.196 665.437,382.603C665.437,407.009 645.651,426.795 621.244,426.795C596.838,426.795 577.052,407.009 577.052,382.603Z" style="fill:rgb(220,219,219);fill-rule:nonzero;"/>
        </g>
        <g transform="matrix(4.16667,0,0,4.16667,0,0)">
            <path d="M622.987,417.675C604.286,417.675 589.125,402.515 589.125,383.813C589.125,383.608 589.127,383.403 589.13,383.199C589.448,400.664 603.704,414.722 621.244,414.722C637.354,414.722 650.694,402.863 653.009,387.398L656.663,387.398C654.872,404.414 640.478,417.675 622.987,417.675ZM656.764,381.376L653.341,381.376C652.697,364.205 638.573,350.483 621.244,350.483C617.499,350.483 613.905,351.124 610.563,352.302C614.41,350.783 618.601,349.95 622.987,349.95C640.87,349.95 655.515,363.812 656.764,381.376Z" style="fill:rgb(181,181,182);fill-rule:nonzero;"/>
        </g>
        <g transform="matrix(4.16667,0,0,4.16667,0,0)">
            <path d="M665.173,387.398L656.663,387.398C656.787,386.22 656.851,385.024 656.851,383.813C656.851,382.993 656.822,382.181 656.764,381.376L665.405,381.376C665.417,381.785 665.437,382.191 665.437,382.603C665.437,384.224 665.343,385.822 665.173,387.398Z" style="fill:rgb(181,181,182);fill-rule:nonzero;"/>
        </g>
        <g transform="matrix(4.16667,0,0,4.16667,0,0)">
            <path d="M656.663,387.398L653.009,387.398C653.243,385.834 653.364,384.232 653.364,382.603C653.364,382.192 653.357,381.783 653.341,381.376L656.764,381.376C656.822,382.181 656.851,382.993 656.851,383.813C656.851,385.024 656.787,386.22 656.663,387.398Z" style="fill:rgb(151,150,150);fill-rule:nonzero;"/>
        </g>
        <g transform="matrix(4.16667,0,0,4.16667,0,0)">
            <path d="M667.184,385.614L652.494,385.614L652.494,379.591L667.184,379.591C668.847,379.591 670.195,380.939 670.195,382.603C670.195,384.266 668.847,385.614 667.184,385.614Z" style="fill:rgb(243,244,245);fill-rule:nonzero;"/>
        </g>
        <g transform="matrix(4.16667,0,0,4.16667,0,0)">
            <path d="M589.125,382.603C589.125,364.863 603.505,350.483 621.244,350.483C638.983,350.483 653.364,364.863 653.364,382.603C653.364,400.342 638.983,414.722 621.244,414.722C603.505,414.722 589.125,400.342 589.125,382.603Z" style="fill:rgb(243,244,245);fill-rule:nonzero;"/>
        </g>
        <g transform="matrix(4.16667,0,0,4.16667,0,0)">
            <path d="M593.516,382.603C593.516,367.288 605.93,354.873 621.244,354.873C636.559,354.873 648.974,367.288 648.974,382.603C648.974,397.917 636.559,410.331 621.244,410.331C605.93,410.331 593.516,397.917 593.516,382.603Z" style="fill:rgb(114,102,88);fill-rule:nonzero;"/>
        </g>
        <g transform="matrix(4.16667,0,0,4.16667,0,0)">
            <path d="M593.536,383.662C593.535,383.661 593.535,383.66 593.535,383.659C593.535,383.661 593.535,383.66 593.536,383.662ZM593.534,383.612C593.534,383.611 593.534,383.611 593.534,383.61L593.534,383.612ZM593.532,383.564C593.532,383.562 593.532,383.56 593.532,383.558C593.532,383.56 593.532,383.562 593.532,383.564ZM593.53,383.514C593.53,383.513 593.53,383.51 593.53,383.508C593.53,383.51 593.53,383.512 593.53,383.514ZM593.529,383.461L593.529,383.46L593.529,383.461ZM593.525,383.312C593.524,383.308 593.524,383.305 593.524,383.301C593.524,383.304 593.524,383.308 593.525,383.312ZM593.523,383.264C593.523,383.259 593.523,383.254 593.523,383.249C593.523,383.255 593.523,383.259 593.523,383.264ZM593.522,383.216C593.522,383.21 593.522,383.206 593.522,383.2C593.522,383.204 593.522,383.211 593.522,383.216ZM593.521,383.169C593.521,383.163 593.521,383.157 593.521,383.15C593.521,383.156 593.521,383.163 593.521,383.169ZM593.52,383.119C593.52,383.114 593.52,383.108 593.52,383.103C593.52,383.108 593.52,383.114 593.52,383.119ZM593.519,383.068C593.519,383.063 593.519,383.059 593.519,383.055C593.519,383.059 593.519,383.064 593.519,383.068ZM593.518,382.959C593.518,382.954 593.518,382.947 593.518,382.942C593.518,382.947 593.518,382.954 593.518,382.959ZM593.517,382.911C593.517,382.904 593.517,382.899 593.517,382.892C593.517,382.899 593.517,382.904 593.517,382.911ZM593.517,382.863C593.517,382.856 593.517,382.85 593.517,382.843C593.517,382.849 593.517,382.857 593.517,382.863ZM593.516,382.814C593.516,382.808 593.516,382.802 593.516,382.795C593.516,382.802 593.516,382.808 593.516,382.814ZM593.516,382.766C593.516,382.759 593.516,382.753 593.516,382.747C593.516,382.753 593.516,382.76 593.516,382.766ZM593.516,382.717C593.516,382.711 593.516,382.704 593.516,382.698C593.516,382.705 593.516,382.71 593.516,382.717ZM593.516,382.668C593.516,382.662 593.516,382.656 593.516,382.65C593.516,382.656 593.516,382.662 593.516,382.668ZM622.704,354.911C622.703,354.911 622.703,354.911 622.702,354.911C622.703,354.911 622.703,354.911 622.704,354.911ZM622.655,354.909C622.654,354.909 622.652,354.909 622.651,354.909C622.652,354.909 622.654,354.909 622.655,354.909ZM622.607,354.906C622.604,354.906 622.603,354.906 622.6,354.906C622.602,354.906 622.605,354.906 622.607,354.906ZM622.556,354.904C622.554,354.904 622.554,354.904 622.552,354.904C622.553,354.904 622.555,354.904 622.556,354.904ZM622.505,354.902C622.505,354.902 622.503,354.902 622.502,354.901C622.503,354.902 622.504,354.902 622.505,354.902ZM622.306,354.893C622.303,354.893 622.3,354.893 622.297,354.893C622.3,354.893 622.303,354.893 622.306,354.893ZM622.256,354.892C622.253,354.891 622.251,354.891 622.248,354.891C622.251,354.891 622.253,354.891 622.256,354.892ZM622.208,354.89C622.204,354.89 622.201,354.89 622.198,354.89C622.201,354.89 622.204,354.89 622.208,354.89ZM622.158,354.888C622.155,354.888 622.152,354.888 622.149,354.888C622.152,354.888 622.155,354.888 622.158,354.888ZM622.106,354.887C622.105,354.887 622.102,354.886 622.101,354.886C622.103,354.886 622.104,354.887 622.106,354.887ZM621.954,354.882C621.949,354.882 621.946,354.882 621.941,354.882C621.945,354.882 621.95,354.882 621.954,354.882ZM621.906,354.881C621.9,354.881 621.896,354.881 621.89,354.881C621.895,354.881 621.901,354.881 621.906,354.881ZM621.858,354.88C621.852,354.88 621.847,354.88 621.841,354.88C621.847,354.88 621.852,354.88 621.858,354.88ZM621.811,354.879C621.804,354.879 621.798,354.879 621.792,354.879C621.798,354.879 621.805,354.879 621.811,354.879ZM621.761,354.878C621.756,354.878 621.75,354.878 621.744,354.878C621.75,354.878 621.756,354.878 621.761,354.878ZM621.71,354.877C621.706,354.877 621.7,354.877 621.696,354.877C621.701,354.877 621.705,354.877 621.71,354.877ZM621.601,354.876C621.595,354.876 621.589,354.876 621.583,354.875C621.589,354.876 621.595,354.876 621.601,354.876ZM621.552,354.875C621.546,354.875 621.54,354.875 621.534,354.875C621.54,354.875 621.546,354.875 621.552,354.875ZM621.505,354.875C621.498,354.875 621.491,354.875 621.484,354.874C621.491,354.875 621.498,354.875 621.505,354.875ZM621.456,354.874C621.449,354.874 621.443,354.874 621.437,354.874C621.443,354.874 621.45,354.874 621.456,354.874ZM621.407,354.874C621.402,354.874 621.394,354.874 621.389,354.874C621.395,354.874 621.401,354.874 621.407,354.874ZM621.359,354.874C621.352,354.874 621.346,354.874 621.34,354.874C621.346,354.874 621.353,354.874 621.359,354.874ZM621.309,354.874C621.304,354.874 621.297,354.874 621.292,354.873C621.298,354.874 621.303,354.874 621.309,354.874Z" style="fill:rgb(199,200,200);fill-rule:nonzero;"/>
        </g>
        <g transform="matrix(4.16667,0,0,4.16667,0,0)">
            <path d="M603.665,404.046C597.724,399.169 593.844,391.873 593.536,383.662C593.535,383.66 593.535,383.661 593.535,383.659C593.535,383.643 593.534,383.628 593.534,383.612L593.534,383.61C593.533,383.594 593.533,383.579 593.532,383.564C593.532,383.562 593.532,383.56 593.532,383.558C593.531,383.543 593.531,383.529 593.53,383.514C593.53,383.512 593.53,383.51 593.53,383.508C593.53,383.492 593.529,383.477 593.529,383.461L593.529,383.46C593.527,383.411 593.526,383.361 593.525,383.312C593.524,383.308 593.524,383.304 593.524,383.301C593.524,383.288 593.524,383.276 593.523,383.264C593.523,383.259 593.523,383.255 593.523,383.249C593.523,383.238 593.523,383.227 593.522,383.216C593.522,383.211 593.522,383.204 593.522,383.2C593.522,383.19 593.522,383.179 593.521,383.169C593.521,383.163 593.521,383.156 593.521,383.15C593.521,383.14 593.521,383.13 593.52,383.119C593.52,383.114 593.52,383.108 593.52,383.103C593.52,383.091 593.52,383.08 593.519,383.068C593.519,383.064 593.519,383.059 593.519,383.055C593.519,383.023 593.518,382.991 593.518,382.959C593.518,382.954 593.518,382.947 593.518,382.942C593.518,382.931 593.517,382.921 593.517,382.911L593.517,382.843C593.517,382.833 593.517,382.824 593.516,382.814L593.516,382.603C593.516,367.288 605.93,354.873 621.244,354.873C621.26,354.873 621.276,354.873 621.292,354.873C621.297,354.874 621.304,354.874 621.309,354.874L621.484,354.874C621.491,354.875 621.498,354.875 621.505,354.875L621.583,354.875C621.589,354.876 621.595,354.876 621.601,354.876C621.633,354.876 621.665,354.877 621.696,354.877C621.7,354.877 621.706,354.877 621.71,354.877C621.721,354.877 621.733,354.878 621.744,354.878C621.75,354.878 621.756,354.878 621.761,354.878C621.771,354.878 621.782,354.879 621.792,354.879C621.798,354.879 621.804,354.879 621.811,354.879C621.821,354.879 621.831,354.88 621.841,354.88C621.847,354.88 621.852,354.88 621.858,354.88C621.869,354.88 621.879,354.881 621.89,354.881C621.896,354.881 621.9,354.881 621.906,354.881C621.918,354.881 621.929,354.882 621.941,354.882C621.946,354.882 621.949,354.882 621.954,354.882C622.003,354.884 622.052,354.885 622.101,354.886C622.102,354.886 622.105,354.887 622.106,354.887C622.12,354.887 622.135,354.887 622.149,354.888C622.152,354.888 622.155,354.888 622.158,354.888C622.171,354.889 622.185,354.889 622.198,354.89C622.201,354.89 622.204,354.89 622.208,354.89C622.221,354.89 622.235,354.891 622.248,354.891C622.251,354.891 622.253,354.891 622.256,354.892C622.269,354.892 622.283,354.893 622.297,354.893C622.3,354.893 622.303,354.893 622.306,354.893C622.321,354.894 622.337,354.895 622.353,354.895C622.403,354.897 622.453,354.899 622.502,354.901C622.503,354.902 622.505,354.902 622.505,354.902C622.521,354.902 622.536,354.903 622.552,354.904C622.554,354.904 622.554,354.904 622.556,354.904C622.571,354.905 622.585,354.905 622.6,354.906C622.603,354.906 622.604,354.906 622.607,354.906C622.622,354.907 622.636,354.908 622.651,354.909C622.652,354.909 622.654,354.909 622.655,354.909C622.671,354.91 622.686,354.91 622.702,354.911C622.703,354.911 622.703,354.911 622.704,354.911C630.752,355.329 637.891,359.178 642.688,365.023C637.903,361.096 631.782,358.738 625.108,358.738C609.795,358.738 597.38,371.152 597.38,386.467C597.38,393.14 599.738,399.261 603.665,404.046Z" style="fill:rgb(94,85,74);fill-rule:nonzero;"/>
        </g>
        <g transform="matrix(4.16667,0,0,4.16667,0,0)">
            <path d="M602.898,382.603C602.898,372.47 611.112,364.257 621.244,364.257C631.376,364.257 639.59,372.47 639.59,382.603C639.59,392.734 631.376,400.948 621.244,400.948C611.112,400.948 602.898,392.734 602.898,382.603Z" style="fill:rgb(155,133,121);fill-rule:nonzero;"/>
        </g>
        <g transform="matrix(4.16667,0,0,4.16667,0,0)">
            <path d="M624.916,396.996C624.916,396.178 625.58,395.514 626.398,395.514C627.217,395.514 627.88,396.178 627.88,396.996C627.88,397.814 627.217,398.478 626.398,398.478C625.58,398.478 624.916,397.814 624.916,396.996Z" style="fill:rgb(114,102,88);fill-rule:nonzero;"/>
        </g>
        <g transform="matrix(4.16667,0,0,4.16667,0,0)">
            <path d="M606.269,385.614C606.269,384.795 606.932,384.132 607.75,384.132C608.568,384.132 609.232,384.795 609.232,385.614C609.232,386.432 608.568,387.096 607.75,387.096C606.932,387.096 606.269,386.432 606.269,385.614Z" style="fill:rgb(114,102,88);fill-rule:nonzero;"/>
        </g>
        <g transform="matrix(4.16667,0,0,4.16667,0,0)">
            <path d="M631.462,372.791C631.462,371.973 632.125,371.309 632.943,371.309C633.762,371.309 634.426,371.973 634.426,372.791C634.426,373.609 633.762,374.273 632.943,374.273C632.125,374.273 631.462,373.609 631.462,372.791Z" style="fill:rgb(114,102,88);fill-rule:nonzero;"/>
        </g>
        <g transform="matrix(4.16667,0,0,4.16667,0,0)">
            <path d="M729.944,222.333L719.113,228.506L701.818,198.163C700.13,195.2 701.163,191.43 704.125,189.741L704.229,189.683C707.19,187.994 710.961,189.027 712.649,191.99L729.944,222.333Z" style="fill:rgb(219,171,159);fill-rule:nonzero;"/>
        </g>
        <g transform="matrix(4.16667,0,0,4.16667,0,0)">
            <path d="M667.408,196.346L692.857,211.303C693.47,211.663 693.674,212.45 693.314,213.062C692.955,213.674 692.167,213.878 691.555,213.519L682.606,208.259C680.171,206.829 677.038,207.642 675.606,210.077C674.176,212.511 674.989,215.645 677.424,217.076L686.373,222.335C686.985,222.695 687.189,223.483 686.83,224.095C686.471,224.707 685.683,224.911 685.071,224.552L678.361,220.608C675.927,219.178 672.793,219.991 671.362,222.426C669.932,224.861 670.745,227.994 673.18,229.425L679.89,233.368C680.501,233.728 680.706,234.516 680.346,235.127C679.986,235.74 679.198,235.944 678.587,235.584L677.263,234.806C674.828,233.375 671.694,234.189 670.264,236.624C668.833,239.059 669.646,242.192 672.081,243.623L674.513,245.052L678.98,247.678L703.596,262.145C708.262,264.887 714.267,263.328 717.008,258.663L731.713,233.642C734.455,228.977 732.896,222.972 728.23,220.23L703.615,205.763L699.147,203.137L672.59,187.529C670.155,186.098 667.021,186.912 665.591,189.347C664.16,191.781 664.974,194.915 667.408,196.346Z" style="fill:rgb(251,201,185);fill-rule:nonzero;"/>
        </g>
        <g transform="matrix(4.16667,0,0,4.16667,0,0)">
            <path d="M740.646,239.854L726.781,263.444L717.429,257.948L731.293,234.357L740.646,239.854Z" style="fill:rgb(251,201,185);fill-rule:nonzero;"/>
        </g>
        <g transform="matrix(4.16667,0,0,4.16667,0,0)">
            <path d="M826.333,276.252L800.984,319.383L718.872,271.123L744.221,227.993L826.333,276.252Z" style="fill:rgb(22,117,188);fill-rule:nonzero;"/>
        </g>
        <g transform="matrix(4.16667,0,0,4.16667,0,0)">
            <path d="M800,271.893L739.364,236.256L744.221,227.993L800,260.776L800,271.893Z" style="fill:rgb(14,98,158);fill-rule:nonzero;"/>
        </g>
        <g transform="matrix(4.16667,0,0,4.16667,0,0)">
            <path d="M669.707,196.419L668.164,195.512C666.229,194.375 665.579,191.875 666.717,189.94C667.854,188.005 670.354,187.356 672.29,188.493L673.833,189.4L669.707,196.419Z" style="fill:rgb(253,221,212);fill-rule:nonzero;"/>
        </g>
    </g>
</svg>
