<?xml version="1.0" encoding="UTF-8" standalone="no"?>
<!DOCTYPE svg PUBLIC "-//W3C//DTD SVG 1.1//EN" "http://www.w3.org/Graphics/SVG/1.1/DTD/svg11.dtd">
<svg width="100%" height="100%" viewBox="0 0 1410 1323" version="1.1" style="fill-rule:evenodd;clip-rule:evenodd;stroke-linejoin:round;stroke-miterlimit:1.41421;">
    <g transform="matrix(1,0,0,1,-1699.85,-2010.34)">
        <g transform="matrix(4.16667,0,0,4.16667,0,0)">
            <path d="M486.378,682.759L485.393,679.968L503.462,673.593L472.104,584.727L474.58,583.854L506.923,675.509L486.378,682.759Z" style="fill:rgb(14,98,158);fill-rule:nonzero;"/>
        </g>
        <g transform="matrix(4.16667,0,0,4.16667,0,0)">
            <path d="M503.462,673.593L482.918,680.842L450.575,589.186L471.12,581.938L503.462,673.593Z" style="fill:rgb(243,244,245);fill-rule:nonzero;"/>
        </g>
        <g transform="matrix(4.16667,0,0,4.16667,0,0)">
            <path d="M491.108,653.002L479.613,657.058L485.325,673.245L496.82,669.189L491.108,653.002Z" style="fill:rgb(251,176,66);fill-rule:nonzero;"/>
        </g>
        <g transform="matrix(4.16667,0,0,4.16667,0,0)">
            <path d="M483.792,632.268L472.297,636.325L477.561,651.244L489.057,647.188L483.792,632.268Z" style="fill:rgb(145,40,142);fill-rule:nonzero;"/>
        </g>
        <g transform="matrix(4.16667,0,0,4.16667,0,0)">
            <path d="M476.252,610.901L464.757,614.958L470.021,629.877L481.517,625.821L476.252,610.901Z" style="fill:rgb(102,47,144);fill-rule:nonzero;"/>
        </g>
        <g transform="matrix(4.16667,0,0,4.16667,0,0)">
            <path d="M468.712,589.534L457.217,593.591L462.481,608.51L473.977,604.454L468.712,589.534Z" style="fill:rgb(37,169,225);fill-rule:nonzero;"/>
        </g>
        <g transform="matrix(4.16667,0,0,4.16667,0,0)">
            <path d="M603.386,740.695C603.105,740.695 602.823,740.599 602.591,740.403C602.071,739.964 602.006,739.186 602.445,738.666L605.226,735.378L610.774,732.635L604.328,740.258C604.084,740.546 603.736,740.695 603.386,740.695ZM625.93,729.906L630.103,724.97C630.713,724.249 631.079,723.403 631.209,722.534L698.59,689.226L680.953,653.547C681.061,653.555 681.169,653.559 681.276,653.559C682.491,653.559 683.696,653.064 684.566,652.107L703.957,691.334L625.93,729.906ZM677.557,646.677L677.476,646.514C677.697,646.322 677.917,646.127 678.135,645.93L677.829,646.306C677.731,646.426 677.64,646.55 677.557,646.677ZM647.028,584.918L635.135,560.859L640.328,562.616L651.054,584.315C649.702,584.439 648.358,584.64 647.028,584.918ZM622.406,566.713L618.092,557.985L621.567,556.268L634.609,560.681L622.406,566.713Z" style="fill:rgb(14,98,158);fill-rule:nonzero;"/>
        </g>
        <g transform="matrix(4.16667,0,0,4.16667,0,0)">
            <path d="M616.2,554.158L524.313,599.581L594.148,740.854L698.59,689.226L634.961,560.507L622.406,566.713L616.2,554.158Z" style="fill:white;fill-rule:nonzero;"/>
        </g>
        <g transform="matrix(4.16667,0,0,4.16667,0,0)">
            <path d="M616.2,554.158L621.827,571.91L634.961,560.507L616.2,554.158Z" style="fill:rgb(211,211,211);fill-rule:nonzero;"/>
        </g>
        <g transform="matrix(4.16667,0,0,4.16667,0,0)">
            <path d="M616.2,554.158L622.406,566.713L634.961,560.507L616.2,554.158Z" style="fill:white;fill-rule:nonzero;"/>
        </g>
        <g transform="matrix(4.16667,0,0,4.16667,0,0)">
            <path d="M631.441,676.87L590.677,697.021L593.92,703.583L634.685,683.432L631.441,676.87Z" style="fill:rgb(243,244,245);fill-rule:nonzero;"/>
        </g>
        <g transform="matrix(4.16667,0,0,4.16667,0,0)">
            <path d="M659.184,647.93L584.628,684.785L587.871,691.347L662.427,654.491L659.184,647.93Z" style="fill:rgb(243,244,245);fill-rule:nonzero;"/>
        </g>
        <g transform="matrix(4.16667,0,0,4.16667,0,0)">
            <path d="M665.232,660.166L648.182,668.595L651.426,675.156L668.476,666.728L665.232,660.166Z" style="fill:rgb(211,212,214);fill-rule:nonzero;"/>
        </g>
        <g transform="matrix(4.16667,0,0,4.16667,0,0)">
            <path d="M616.684,647.015L575.918,667.166L572.675,660.604L613.44,640.453L616.684,647.015Z" style="fill:rgb(243,244,245);fill-rule:nonzero;"/>
        </g>
        <g transform="matrix(4.16667,0,0,4.16667,0,0)">
            <path d="M656.522,642.548L581.967,679.402L578.724,672.841L653.279,635.986L656.522,642.548Z" style="fill:rgb(243,244,245);fill-rule:nonzero;"/>
        </g>
        <g transform="matrix(4.16667,0,0,4.16667,0,0)">
            <path d="M650.474,630.311L633.424,638.739L630.181,632.179L647.23,623.75L650.474,630.311Z" style="fill:rgb(243,244,245);fill-rule:nonzero;"/>
        </g>
        <g transform="matrix(4.16667,0,0,4.16667,0,0)">
            <path d="M598.892,609.666L558.126,629.818L554.883,623.257L595.648,603.105L598.892,609.666Z" style="fill:rgb(243,244,245);fill-rule:nonzero;"/>
        </g>
        <g transform="matrix(4.16667,0,0,4.16667,0,0)">
            <path d="M638.73,605.199L564.175,642.055L560.932,635.493L635.487,598.638L638.73,605.199Z" style="fill:rgb(243,244,245);fill-rule:nonzero;"/>
        </g>
        <g transform="matrix(4.16667,0,0,4.16667,0,0)">
            <path d="M644.382,616.944L569.826,653.8L566.583,647.238L641.139,610.383L644.382,616.944Z" style="fill:rgb(243,244,245);fill-rule:nonzero;"/>
        </g>
        <g transform="matrix(4.16667,0,0,4.16667,0,0)">
            <path d="M632.683,592.963L615.632,601.392L612.389,594.83L629.438,586.401L632.683,592.963Z" style="fill:rgb(243,244,245);fill-rule:nonzero;"/>
        </g>
        <g transform="matrix(4.16667,0,0,4.16667,0,0)">
            <path d="M546.896,551.579L547.017,551.259L546.724,551.435L547.691,548.849L550.353,547.257L550.352,547.256L555.717,544.046L555.711,544.041L555.717,544.046L597.564,493.842L599.336,491.716L602.37,488.076C602.432,488.002 602.486,487.924 602.533,487.844C602.768,487.451 602.828,486.99 602.723,486.564L603.265,487.015L603.437,487.159C604.161,487.762 604.259,488.837 603.655,489.561L600.621,493.201L598.85,495.326L557.002,545.53L551.638,548.741L546.896,551.579Z" style="fill:rgb(14,98,158);fill-rule:nonzero;"/>
        </g>
        <g transform="matrix(4.16667,0,0,4.16667,0,0)">
            <path d="M555.717,544.046L549.74,539.064L591.588,488.859L597.564,493.842L555.717,544.046Z" style="fill:rgb(88,89,92);fill-rule:nonzero;"/>
        </g>
        <g transform="matrix(4.16667,0,0,4.16667,0,0)">
            <path d="M599.336,491.716L593.359,486.734L591.588,488.859L597.564,493.842L599.336,491.716Z" style="fill:rgb(243,244,245);fill-rule:nonzero;"/>
        </g>
        <g transform="matrix(4.16667,0,0,4.16667,0,0)">
            <path d="M545.611,550.094L549.74,539.064L555.717,544.046L545.611,550.094Z" style="fill:rgb(251,201,185);fill-rule:nonzero;"/>
        </g>
        <g transform="matrix(4.16667,0,0,4.16667,0,0)">
            <path d="M547.549,544.92L545.611,550.094L550.353,547.257L547.549,544.92Z" style="fill:rgb(88,89,92);fill-rule:nonzero;"/>
        </g>
        <g transform="matrix(4.16667,0,0,4.16667,0,0)">
            <path d="M602.152,485.675L598.795,482.876C598.072,482.273 596.997,482.371 596.394,483.094L593.359,486.734L599.336,491.716L602.37,488.076C602.974,487.353 602.876,486.277 602.152,485.675Z" style="fill:white;fill-rule:nonzero;"/>
        </g>
        <g transform="matrix(4.16667,0,0,4.16667,0,0)">
            <path d="M555.711,544.041L554.649,543.156L554.662,543.148L596.5,492.954L597.562,493.84L555.725,544.033L555.711,544.041Z" style="fill:rgb(73,75,76);fill-rule:nonzero;"/>
        </g>
        <g transform="matrix(4.16667,0,0,4.16667,0,0)">
            <path d="M597.562,493.84L596.5,492.954L596.509,492.943L598.272,490.829L599.334,491.714L597.571,493.829L597.562,493.84Z" style="fill:rgb(199,200,200);fill-rule:nonzero;"/>
        </g>
        <g transform="matrix(4.16667,0,0,4.16667,0,0)">
            <path d="M550.347,547.252L549.284,546.366L549.297,546.358L554.649,543.156L555.711,544.041L550.359,547.244L550.347,547.252Z" style="fill:rgb(211,168,153);fill-rule:nonzero;"/>
        </g>
        <g transform="matrix(4.16667,0,0,4.16667,0,0)">
            <path d="M545.618,550.082L546.352,548.121L549.284,546.366L550.347,547.252L545.618,550.082Z" style="fill:rgb(73,75,76);fill-rule:nonzero;"/>
        </g>
        <g transform="matrix(4.16667,0,0,4.16667,0,0)">
            <path d="M602.723,486.564L602.711,486.553C602.624,486.221 602.436,485.911 602.152,485.675L601.257,484.928C601.207,484.875 601.154,484.824 601.097,484.776L602.159,485.662C602.45,485.904 602.64,486.222 602.723,486.564Z" style="fill:rgb(14,98,158);fill-rule:nonzero;"/>
        </g>
        <g transform="matrix(4.16667,0,0,4.16667,0,0)">
            <path d="M602.533,487.844C602.766,487.447 602.822,486.981 602.711,486.553L602.723,486.564C602.828,486.99 602.768,487.451 602.533,487.844Z" style="fill:rgb(14,81,130);fill-rule:nonzero;"/>
        </g>
        <g transform="matrix(4.16667,0,0,4.16667,0,0)">
            <path d="M599.334,491.714L598.272,490.829L598.28,490.818L601.315,487.178C601.87,486.511 601.831,485.548 601.257,484.928L602.152,485.675C602.436,485.911 602.624,486.221 602.711,486.553C602.822,486.981 602.766,487.447 602.533,487.844C602.488,487.92 602.436,487.993 602.378,488.063L599.343,491.704L599.334,491.714Z" style="fill:rgb(211,211,211);fill-rule:nonzero;"/>
        </g>
        <g transform="matrix(4.16667,0,0,4.16667,0,0)">
            <path d="M560.937,558.671L561.108,558.375L560.791,558.5L562.172,556.11L570.88,552.696L570.874,552.69L570.88,552.696L620.434,510.079L622.531,508.275L626.124,505.185C626.204,505.117 626.275,505.043 626.339,504.964C626.624,504.618 626.754,504.182 626.721,503.753L627.181,504.286L627.328,504.457C627.942,505.171 627.861,506.248 627.147,506.862L623.554,509.952L621.456,511.756L571.902,554.372L566.082,556.654L560.937,558.671Z" style="fill:rgb(14,98,158);fill-rule:nonzero;"/>
        </g>
        <g transform="matrix(4.16667,0,0,4.16667,0,0)">
            <path d="M570.88,552.696L565.807,546.797L615.36,504.181L620.434,510.079L570.88,552.696Z" style="fill:rgb(88,89,92);fill-rule:nonzero;"/>
        </g>
        <g transform="matrix(4.16667,0,0,4.16667,0,0)">
            <path d="M622.531,508.275L617.458,502.376L615.36,504.181L620.434,510.079L622.531,508.275Z" style="fill:rgb(243,244,245);fill-rule:nonzero;"/>
        </g>
        <g transform="matrix(4.16667,0,0,4.16667,0,0)">
            <path d="M559.915,556.994L565.807,546.797L570.88,552.696L559.915,556.994Z" style="fill:rgb(251,201,185);fill-rule:nonzero;"/>
        </g>
        <g transform="matrix(4.16667,0,0,4.16667,0,0)">
            <path d="M562.679,552.211L559.915,556.994L565.058,554.978L562.679,552.211Z" style="fill:rgb(88,89,92);fill-rule:nonzero;"/>
        </g>
        <g transform="matrix(4.16667,0,0,4.16667,0,0)">
            <path d="M626.306,502.781L623.455,499.467C622.841,498.753 621.765,498.672 621.051,499.286L617.458,502.376L622.531,508.275L626.124,505.185C626.838,504.571 626.919,503.495 626.306,502.781Z" style="fill:white;fill-rule:nonzero;"/>
        </g>
        <g transform="matrix(4.16667,0,0,4.16667,0,0)">
            <path d="M570.874,552.69L569.973,551.641L569.987,551.636L619.53,509.028L620.432,510.077L570.889,552.685L570.874,552.69Z" style="fill:rgb(73,75,76);fill-rule:nonzero;"/>
        </g>
        <g transform="matrix(4.16667,0,0,4.16667,0,0)">
            <path d="M620.432,510.077L619.53,509.028L619.54,509.02L621.628,507.225L622.53,508.274L620.442,510.068L620.432,510.077Z" style="fill:rgb(199,200,200);fill-rule:nonzero;"/>
        </g>
        <g transform="matrix(4.16667,0,0,4.16667,0,0)">
            <path d="M626.721,503.753L626.711,503.74C626.68,503.398 626.547,503.062 626.306,502.781L625.542,501.894C625.503,501.834 625.46,501.777 625.412,501.722L626.315,502.771C626.561,503.057 626.695,503.403 626.721,503.753Z" style="fill:rgb(14,98,158);fill-rule:nonzero;"/>
        </g>
        <g transform="matrix(4.16667,0,0,4.16667,0,0)">
            <path d="M626.339,504.964C626.623,504.614 626.749,504.172 626.711,503.74L626.721,503.753C626.754,504.182 626.624,504.618 626.339,504.964Z" style="fill:rgb(14,81,130);fill-rule:nonzero;"/>
        </g>
        <g transform="matrix(4.16667,0,0,4.16667,0,0)">
            <path d="M565.054,554.972L564.152,553.924L564.166,553.918L569.973,551.641L570.874,552.69L565.067,554.967L565.054,554.972Z" style="fill:rgb(211,168,153);fill-rule:nonzero;"/>
        </g>
        <g transform="matrix(4.16667,0,0,4.16667,0,0)">
            <path d="M559.924,556.983L560.972,555.171L564.152,553.924L565.054,554.972L559.924,556.983Z" style="fill:rgb(73,75,76);fill-rule:nonzero;"/>
        </g>
        <g transform="matrix(4.16667,0,0,4.16667,0,0)">
            <path d="M622.53,508.274L621.628,507.225L621.638,507.216L625.231,504.126C625.89,503.559 626.01,502.6 625.542,501.894L626.306,502.781C626.547,503.062 626.68,503.398 626.711,503.74C626.749,504.172 626.623,504.614 626.339,504.964C626.278,505.039 626.209,505.109 626.133,505.175L622.54,508.265L622.53,508.274Z" style="fill:rgb(211,211,211);fill-rule:nonzero;"/>
        </g>
        <g transform="matrix(4.16667,0,0,4.16667,0,0)">
            <path d="M685.188,637.258L677.829,646.306C676.279,648.211 676.567,651.012 678.473,652.561C680.378,654.111 683.179,653.823 684.729,651.918L692.088,642.87C693.638,640.965 693.349,638.164 691.444,636.614C689.54,635.065 686.738,635.352 685.188,637.258Z" style="fill:rgb(88,89,92);fill-rule:nonzero;"/>
        </g>
        <g transform="matrix(4.16667,0,0,4.16667,0,0)">
            <path d="M675.515,636.906C665.982,648.625 648.755,650.396 637.036,640.864C625.317,631.331 623.546,614.103 633.078,602.385C642.611,590.667 659.839,588.895 671.557,598.427C683.275,607.96 685.048,625.188 675.515,636.906ZM626.773,597.257C614.408,612.457 616.707,634.804 631.907,647.169C647.108,659.534 669.455,657.235 681.819,642.034C694.184,626.834 691.887,604.487 676.686,592.122C661.485,579.758 639.139,582.056 626.773,597.257Z" style="fill:rgb(150,153,155);fill-rule:nonzero;"/>
        </g>
        <g transform="matrix(4.16667,0,0,4.16667,0,0)">
            <path d="M673.717,638.909L650.786,592.52C651.955,592.368 653.133,592.293 654.313,592.293C654.543,592.293 654.773,592.295 655.002,592.301L676.45,635.689C676.151,636.101 675.84,636.506 675.515,636.906C674.942,637.61 674.342,638.278 673.717,638.909Z" style="fill:rgb(68,130,177);fill-rule:nonzero;"/>
        </g>
        <g transform="matrix(4.16667,0,0,4.16667,0,0)">
            <path d="M654.281,646.999C652.408,646.999 650.533,646.808 648.685,646.422L656.522,642.548L653.279,635.986L639.627,642.735C638.738,642.168 637.874,641.545 637.036,640.864C636.052,640.064 635.139,639.21 634.296,638.308L650.474,630.311L647.23,623.75L630.181,632.179L631.352,634.549C629.494,631.689 628.213,628.538 627.529,625.275L644.382,616.944L641.139,610.383L627.038,617.353C627.24,614.93 627.765,612.521 628.62,610.197L638.73,605.199L635.875,599.422C640.114,595.551 645.35,593.223 650.786,592.52L673.717,638.909C668.44,644.243 661.386,646.999 654.281,646.999Z" style="fill:white;fill-rule:nonzero;"/>
        </g>
        <g transform="matrix(4.16667,0,0,4.16667,0,0)">
            <path d="M648.685,646.422C645.533,645.764 642.461,644.54 639.627,642.735L653.279,635.986L656.522,642.548L648.685,646.422Z" style="fill:rgb(245,247,248);fill-rule:nonzero;"/>
        </g>
        <g transform="matrix(4.16667,0,0,4.16667,0,0)">
            <path d="M634.296,638.308C633.193,637.129 632.21,635.869 631.352,634.549L630.181,632.179L647.23,623.75L650.474,630.311L634.296,638.308Z" style="fill:rgb(245,247,248);fill-rule:nonzero;"/>
        </g>
        <g transform="matrix(4.16667,0,0,4.16667,0,0)">
            <path d="M628.62,610.197C629.636,607.436 631.118,604.794 633.078,602.385C633.949,601.314 634.885,600.326 635.875,599.422L638.73,605.199L628.62,610.197Z" style="fill:rgb(245,247,248);fill-rule:nonzero;"/>
        </g>
        <g transform="matrix(4.16667,0,0,4.16667,0,0)">
            <path d="M627.529,625.275C627.139,623.415 626.943,621.519 626.944,619.618C626.944,618.863 626.975,618.107 627.038,617.353L641.139,610.383L644.382,616.944L627.529,625.275Z" style="fill:rgb(245,247,248);fill-rule:nonzero;"/>
        </g>
        <g transform="matrix(4.16667,0,0,4.16667,0,0)">
            <path d="M654.281,646.999C648.214,646.999 642.109,644.991 637.036,640.864C630.387,635.455 626.94,627.569 626.944,619.618C626.943,621.519 627.139,623.415 627.529,625.275C628.213,628.538 629.494,631.689 631.352,634.549C632.21,635.869 633.193,637.129 634.296,638.308C635.139,639.21 636.052,640.064 637.036,640.864C637.874,641.545 638.738,642.168 639.627,642.735C642.461,644.54 645.533,645.764 648.685,646.422C650.533,646.808 652.408,646.999 654.281,646.999C661.386,646.999 668.44,644.243 673.717,638.909C674.342,638.278 674.942,637.61 675.515,636.906C675.84,636.506 676.151,636.101 676.45,635.689C679.942,630.876 681.647,625.258 681.65,619.673C681.647,625.736 679.639,631.837 675.515,636.906C670.109,643.552 662.227,646.999 654.281,646.999Z" style="fill:rgb(171,174,175);fill-rule:nonzero;"/>
        </g>
        <g transform="matrix(4.16667,0,0,4.16667,0,0)">
            <path d="M738.819,681.531C739.585,685.767 736.396,689.687 732.093,689.8C730.325,689.847 728.605,689.224 727.276,688.057L685.123,651.048L691.316,643.434L736.132,677.17C737.545,678.233 738.505,679.791 738.819,681.531Z" style="fill:rgb(243,244,245);fill-rule:nonzero;"/>
        </g>
        <g transform="matrix(4.16667,0,0,4.16667,0,0)">
            <path d="M684.884,637.632C693.399,623.194 690.647,604.437 677.832,593.095C677.819,593.084 677.807,593.073 677.794,593.062C677.794,593.061 677.793,593.061 677.792,593.06C677.781,593.05 677.767,593.038 677.756,593.028C677.754,593.026 677.755,593.027 677.753,593.025C677.741,593.015 677.728,593.004 677.717,592.994C677.715,592.992 677.715,592.992 677.714,592.991C677.701,592.98 677.689,592.969 677.677,592.958C677.6,592.891 677.524,592.825 677.446,592.758C677.445,592.757 677.443,592.756 677.441,592.754C677.431,592.746 677.42,592.736 677.41,592.727C677.407,592.724 677.403,592.721 677.4,592.719C677.39,592.71 677.38,592.702 677.37,592.693C677.366,592.69 677.363,592.687 677.359,592.683C677.35,592.676 677.34,592.667 677.331,592.66C677.326,592.655 677.322,592.652 677.317,592.648C677.308,592.64 677.299,592.633 677.29,592.625C677.285,592.621 677.281,592.617 677.276,592.613C677.267,592.605 677.258,592.598 677.249,592.59C677.244,592.586 677.239,592.582 677.234,592.577C677.226,592.571 677.217,592.563 677.208,592.556C677.203,592.551 677.198,592.547 677.193,592.542C677.185,592.536 677.175,592.528 677.167,592.521C677.164,592.518 677.159,592.514 677.156,592.511C677.137,592.496 677.119,592.481 677.101,592.465C677.096,592.461 677.091,592.457 677.086,592.453C677.079,592.446 677.072,592.441 677.065,592.435C677.058,592.429 677.051,592.423 677.044,592.418C677.037,592.412 677.03,592.406 677.022,592.399C677.016,592.394 677.009,592.388 677.002,592.383C676.995,592.377 676.987,592.37 676.979,592.364C676.974,592.359 676.967,592.353 676.961,592.348C676.953,592.342 676.945,592.335 676.938,592.329C676.932,592.324 676.924,592.318 676.919,592.313C676.911,592.307 676.903,592.3 676.896,592.294C676.89,592.289 676.882,592.283 676.876,592.278C676.869,592.272 676.862,592.266 676.854,592.26C676.847,592.254 676.84,592.249 676.833,592.242C676.826,592.237 676.819,592.231 676.812,592.226C676.805,592.219 676.797,592.213 676.789,592.207C676.783,592.201 676.777,592.197 676.77,592.191C676.761,592.184 676.753,592.177 676.744,592.17C676.739,592.165 676.733,592.161 676.728,592.156C676.713,592.145 676.7,592.134 676.686,592.122C676.667,592.107 676.647,592.091 676.629,592.076C676.623,592.072 676.618,592.067 676.613,592.063C676.596,592.05 676.58,592.037 676.563,592.023C676.555,592.017 676.547,592.01 676.539,592.003C676.528,591.995 676.518,591.987 676.508,591.978C676.492,591.966 676.477,591.954 676.462,591.941C676.456,591.937 676.452,591.933 676.446,591.929C675.403,591.095 674.327,590.329 673.223,589.632L673.221,589.63C673.197,589.615 673.173,589.6 673.149,589.585C673.145,589.582 673.141,589.58 673.137,589.577C673.125,589.57 673.113,589.563 673.101,589.555C673.086,589.546 673.072,589.537 673.057,589.527C673.048,589.522 673.038,589.516 673.029,589.51C673.015,589.501 673.003,589.494 672.989,589.485C672.98,589.479 672.972,589.474 672.963,589.469C672.947,589.459 672.931,589.449 672.915,589.439C672.909,589.435 672.904,589.432 672.899,589.429C672.878,589.416 672.858,589.404 672.838,589.391C672.835,589.389 672.832,589.388 672.829,589.386C668.1,586.482 662.883,584.806 657.603,584.317C658.941,584.165 660.287,584.089 661.635,584.089C669.501,584.089 677.417,586.688 683.995,592.039C697.758,603.235 700.941,622.611 692.243,637.459C692.024,637.156 691.763,636.876 691.462,636.628C691.456,636.624 691.45,636.619 691.444,636.614C691.429,636.601 691.413,636.589 691.397,636.576C691.391,636.571 691.385,636.566 691.378,636.562C690.569,635.928 689.607,635.618 688.649,635.617L688.631,635.617C687.362,635.62 686.105,636.163 685.23,637.208C685.216,637.224 685.202,637.241 685.188,637.258L684.884,637.632Z" style="fill:rgb(14,98,158);fill-rule:nonzero;"/>
        </g>
        <g transform="matrix(4.16667,0,0,4.16667,0,0)">
            <path d="M684.884,637.633L684.884,637.632L685.188,637.258L684.884,637.633ZM692.233,637.476C692.013,637.17 691.766,636.879 691.462,636.628C691.763,636.876 692.024,637.156 692.243,637.459C692.24,637.464 692.237,637.47 692.233,637.476ZM685.23,637.208C686.105,636.163 687.362,635.62 688.631,635.617C687.362,635.62 686.105,636.163 685.23,637.208ZM691.397,636.576C691.391,636.571 691.385,636.566 691.378,636.562C691.385,636.566 691.391,636.571 691.397,636.576ZM688.649,635.617C688.646,635.617 688.644,635.617 688.641,635.617C688.644,635.617 688.646,635.617 688.649,635.617Z" style="fill:rgb(73,75,76);fill-rule:nonzero;"/>
        </g>
        <g transform="matrix(4.16667,0,0,4.16667,0,0)">
            <path d="M684.879,637.639C693.398,623.199 690.648,604.439 677.832,593.095C690.647,604.437 693.399,623.194 684.884,637.632L684.884,637.633L684.879,637.639ZM677.832,593.095C677.82,593.084 677.806,593.072 677.794,593.062C677.807,593.073 677.819,593.084 677.832,593.095ZM677.792,593.06C677.78,593.049 677.768,593.038 677.756,593.028C677.767,593.038 677.781,593.05 677.792,593.06ZM677.753,593.025C677.742,593.015 677.728,593.003 677.717,592.994C677.728,593.004 677.741,593.015 677.753,593.025ZM677.714,592.991C677.702,592.98 677.689,592.969 677.677,592.958C677.689,592.969 677.701,592.98 677.714,592.991ZM677.677,592.958C677.6,592.892 677.523,592.825 677.446,592.758C677.524,592.825 677.6,592.891 677.677,592.958ZM677.441,592.754C677.431,592.745 677.421,592.736 677.41,592.727C677.42,592.736 677.431,592.746 677.441,592.754ZM677.4,592.719C677.39,592.71 677.38,592.702 677.37,592.693C677.38,592.702 677.39,592.71 677.4,592.719ZM677.359,592.683C677.35,592.676 677.34,592.667 677.331,592.66C677.34,592.667 677.35,592.676 677.359,592.683ZM677.317,592.648C677.308,592.64 677.299,592.633 677.29,592.625C677.299,592.633 677.308,592.64 677.317,592.648ZM677.276,592.613C677.268,592.606 677.258,592.597 677.249,592.59C677.258,592.598 677.267,592.605 677.276,592.613ZM677.234,592.577C677.225,592.57 677.217,592.563 677.208,592.556C677.217,592.563 677.226,592.571 677.234,592.577ZM677.193,592.542C677.184,592.535 677.176,592.528 677.167,592.521C677.175,592.528 677.185,592.536 677.193,592.542ZM677.156,592.511C677.137,592.496 677.119,592.48 677.101,592.465C677.119,592.481 677.137,592.496 677.156,592.511ZM677.086,592.453C677.078,592.446 677.072,592.441 677.065,592.435C677.072,592.441 677.079,592.446 677.086,592.453ZM677.044,592.418C677.037,592.411 677.03,592.406 677.022,592.399C677.03,592.406 677.037,592.412 677.044,592.418ZM677.002,592.383C676.995,592.376 676.987,592.37 676.979,592.364C676.987,592.37 676.995,592.377 677.002,592.383ZM676.961,592.348C676.952,592.341 676.946,592.336 676.938,592.329C676.945,592.335 676.953,592.342 676.961,592.348ZM676.919,592.313C676.91,592.306 676.904,592.301 676.896,592.294C676.903,592.3 676.911,592.307 676.919,592.313ZM676.876,592.278C676.869,592.272 676.862,592.266 676.854,592.26C676.862,592.266 676.869,592.272 676.876,592.278ZM676.833,592.242C676.826,592.237 676.819,592.231 676.812,592.226C676.819,592.231 676.826,592.237 676.833,592.242ZM676.789,592.207C676.783,592.202 676.776,592.196 676.77,592.191C676.777,592.197 676.783,592.201 676.789,592.207ZM676.744,592.17C676.739,592.166 676.733,592.161 676.728,592.156C676.733,592.161 676.739,592.165 676.744,592.17ZM676.686,592.122C676.667,592.107 676.648,592.091 676.629,592.076C676.647,592.091 676.667,592.107 676.686,592.122ZM676.613,592.063C676.596,592.05 676.58,592.036 676.563,592.023C676.58,592.037 676.596,592.05 676.613,592.063ZM676.539,592.003C676.528,591.995 676.518,591.987 676.508,591.978C676.518,591.987 676.528,591.995 676.539,592.003ZM676.462,591.941C676.456,591.937 676.451,591.933 676.446,591.929C676.452,591.933 676.456,591.937 676.462,591.941ZM673.223,589.632C673.222,589.631 673.222,589.631 673.221,589.63L673.223,589.632ZM673.149,589.585C673.145,589.583 673.141,589.58 673.137,589.577C673.141,589.58 673.145,589.582 673.149,589.585ZM673.101,589.555C673.086,589.546 673.072,589.537 673.057,589.527C673.072,589.537 673.086,589.546 673.101,589.555ZM673.029,589.51C673.016,589.502 673.002,589.493 672.989,589.485C673.003,589.494 673.015,589.501 673.029,589.51ZM672.963,589.469C672.947,589.459 672.931,589.449 672.915,589.439C672.931,589.449 672.947,589.459 672.963,589.469ZM672.899,589.429C672.878,589.416 672.858,589.404 672.838,589.391C672.858,589.404 672.878,589.416 672.899,589.429ZM672.829,589.386C668.096,586.48 662.875,584.806 657.591,584.318C657.595,584.318 657.599,584.317 657.603,584.317C662.883,584.806 668.1,586.482 672.829,589.386Z" style="fill:rgb(123,127,129);fill-rule:nonzero;"/>
        </g>
        <g transform="matrix(4.16667,0,0,4.16667,0,0)">
            <path d="M739.218,689.719C737.951,689.719 736.715,689.374 735.637,688.734C737.918,687.302 739.286,684.606 738.854,681.738L738.853,681.738C738.85,681.716 738.847,681.693 738.843,681.671C738.843,681.669 738.843,681.668 738.842,681.667C738.841,681.656 738.839,681.647 738.837,681.637C738.837,681.636 738.837,681.635 738.837,681.634C738.835,681.623 738.833,681.612 738.832,681.602C738.831,681.6 738.831,681.598 738.831,681.596C738.829,681.588 738.828,681.579 738.826,681.57C738.826,681.568 738.825,681.565 738.825,681.562C738.823,681.552 738.821,681.542 738.819,681.531C738.505,679.791 737.545,678.233 736.132,677.17L691.511,643.58L692.088,642.87C692.094,642.863 692.099,642.856 692.105,642.849C692.106,642.847 692.107,642.846 692.108,642.845C692.113,642.839 692.118,642.833 692.122,642.827C692.124,642.826 692.125,642.824 692.126,642.823C692.131,642.817 692.135,642.811 692.14,642.805C692.141,642.804 692.142,642.802 692.143,642.801C692.148,642.795 692.153,642.788 692.158,642.781C692.159,642.781 692.159,642.78 692.16,642.78C692.171,642.765 692.182,642.75 692.193,642.736C692.194,642.734 692.195,642.733 692.196,642.732C692.2,642.726 692.205,642.72 692.209,642.714C692.211,642.712 692.213,642.71 692.214,642.707C692.218,642.703 692.221,642.699 692.224,642.694C692.226,642.691 692.229,642.688 692.231,642.684C692.234,642.681 692.236,642.678 692.238,642.674C692.241,642.67 692.244,642.666 692.247,642.663C692.248,642.661 692.249,642.66 692.25,642.658C693.381,641.087 693.345,638.995 692.254,637.474L692.498,637.175C693.377,636.094 694.658,635.534 695.951,635.534C696.937,635.534 697.93,635.86 698.754,636.531C700.659,638.081 700.947,640.882 699.397,642.787L698.82,643.497L743.441,677.087C744.855,678.15 745.814,679.708 746.129,681.448C746.894,685.684 743.705,689.604 739.402,689.717C739.341,689.718 739.28,689.719 739.218,689.719Z" style="fill:rgb(14,98,158);fill-rule:nonzero;"/>
        </g>
        <g transform="matrix(4.16667,0,0,4.16667,0,0)">
            <path d="M692.105,642.849C692.106,642.847 692.107,642.846 692.108,642.845C692.107,642.846 692.106,642.847 692.105,642.849ZM692.122,642.827C692.124,642.826 692.125,642.824 692.126,642.823C692.125,642.824 692.124,642.826 692.122,642.827ZM692.14,642.805C692.141,642.804 692.142,642.802 692.143,642.801C692.142,642.802 692.141,642.804 692.14,642.805ZM692.158,642.781C692.159,642.781 692.159,642.78 692.16,642.78C692.159,642.78 692.159,642.781 692.158,642.781ZM692.193,642.736C692.194,642.734 692.195,642.733 692.196,642.732C692.195,642.733 692.194,642.734 692.193,642.736ZM692.209,642.714C692.211,642.712 692.213,642.71 692.214,642.707C692.213,642.71 692.211,642.712 692.209,642.714ZM692.224,642.694C692.226,642.691 692.229,642.688 692.231,642.684C692.229,642.688 692.226,642.691 692.224,642.694ZM692.238,642.674C692.241,642.67 692.244,642.666 692.247,642.663C692.244,642.666 692.241,642.67 692.238,642.674ZM692.25,642.658C693.378,641.09 693.328,639.009 692.242,637.489L692.254,637.474C693.345,638.995 693.381,641.087 692.25,642.658Z" style="fill:rgb(73,75,76);fill-rule:nonzero;"/>
        </g>
        <g transform="matrix(4.16667,0,0,4.16667,0,0)">
            <path d="M735.637,688.734C735.635,688.733 735.633,688.732 735.632,688.731C737.914,687.3 739.286,684.607 738.854,681.738C739.286,684.606 737.918,687.302 735.637,688.734ZM738.853,681.738C738.85,681.716 738.847,681.693 738.843,681.671C738.847,681.693 738.85,681.716 738.853,681.738ZM738.842,681.667C738.841,681.657 738.839,681.647 738.837,681.637C738.839,681.647 738.841,681.656 738.842,681.667ZM738.837,681.634C738.835,681.623 738.833,681.612 738.832,681.602C738.833,681.612 738.835,681.623 738.837,681.634ZM738.831,681.596C738.829,681.588 738.828,681.579 738.826,681.57C738.828,681.579 738.829,681.588 738.831,681.596ZM738.825,681.562C738.823,681.552 738.821,681.542 738.819,681.531C738.505,679.791 737.545,678.233 736.132,677.17L691.511,643.58L736.132,677.17C737.545,678.233 738.505,679.791 738.819,681.531C738.821,681.542 738.823,681.552 738.825,681.562Z" style="fill:rgb(199,200,200);fill-rule:nonzero;"/>
        </g>
        <g transform="matrix(4.16667,0,0,4.16667,0,0)">
            <path d="M528.865,747.491C528.222,747.491 527.567,747.398 526.919,747.204L524.218,746.394C520.637,745.321 518.604,741.548 519.677,737.967L526.804,714.193L528.83,714.801L532.938,701.096L534.928,701.692L542.566,703.982L544.555,704.578L540.447,718.283L542.473,718.891L535.347,742.664C534.468,745.597 531.778,747.491 528.865,747.491Z" style="fill:rgb(14,98,158);fill-rule:nonzero;"/>
        </g>
        <g transform="matrix(4.16667,0,0,4.16667,0,0)">
            <path d="M526.149,744.565L523.447,743.756C519.867,742.682 517.834,738.909 518.906,735.328L526.034,711.555L541.703,716.252L534.576,740.025C533.503,743.606 529.73,745.639 526.149,744.565Z" style="fill:rgb(243,244,245);fill-rule:nonzero;"/>
        </g>
        <g transform="matrix(4.16667,0,0,4.16667,0,0)">
            <path d="M543.785,701.939L532.169,698.457L528.061,712.162L539.677,715.645L543.785,701.939Z" style="fill:rgb(211,211,211);fill-rule:nonzero;"/>
        </g>
        <g transform="matrix(4.16667,0,0,4.16667,0,0)">
            <path d="M541.279,703.067L533.641,700.777L534.157,699.054L541.796,701.343L541.279,703.067Z" style="fill:rgb(150,153,155);fill-rule:nonzero;"/>
        </g>
        <g transform="matrix(4.16667,0,0,4.16667,0,0)">
            <path d="M534.467,708.152L531.681,707.317L532.526,704.494L535.313,705.329L534.467,708.152Z" style="fill:rgb(150,153,155);fill-rule:nonzero;"/>
        </g>
        <g transform="matrix(4.16667,0,0,4.16667,0,0)">
            <path d="M539.319,709.606L536.532,708.771L537.379,705.948L540.165,706.784L539.319,709.606Z" style="fill:rgb(150,153,155);fill-rule:nonzero;"/>
        </g>
        <g transform="matrix(4.16667,0,0,4.16667,0,0)">
            <path d="M438.94,570.992L438.48,569.739L448.586,566.023L448.585,566.023L482.456,553.568L466.234,509.453L467.625,508.941L484.308,554.309L438.94,570.992Z" style="fill:rgb(14,98,158);fill-rule:nonzero;"/>
        </g>
        <g transform="matrix(4.16667,0,0,4.16667,0,0)">
            <path d="M482.456,553.568L437.088,570.251L420.405,524.884L465.773,508.201L482.456,553.568Z" style="fill:rgb(211,211,211);fill-rule:nonzero;"/>
        </g>
        <g transform="matrix(4.16667,0,0,4.16667,0,0)">
            <path d="M482.456,553.568L437.088,570.251L420.405,524.884L465.773,508.201L482.456,553.568Z" style="fill:rgb(249,238,30);fill-rule:nonzero;"/>
        </g>
        <g transform="matrix(4.16667,0,0,4.16667,0,0)">
            <path d="M437.088,570.251L438.48,569.739L437.088,570.251Z" style="fill:rgb(14,98,158);fill-rule:nonzero;"/>
        </g>
        <g transform="matrix(4.16667,0,0,4.16667,0,0)">
            <path d="M438.48,569.739L448.585,566.023L448.586,566.023L438.48,569.739Z" style="fill:rgb(14,81,130);fill-rule:nonzero;"/>
        </g>
        <g transform="matrix(4.16667,0,0,4.16667,0,0)">
            <path d="M437.088,570.251L432.69,558.292L448.585,566.023L438.48,569.739L437.088,570.251Z" style="fill:rgb(209,200,41);fill-rule:nonzero;"/>
        </g>
        <g transform="matrix(4.16667,0,0,4.16667,0,0)">
            <path d="M468.19,514.776L422.823,531.458L420.405,524.884L465.773,508.201L468.19,514.776Z" style="fill:rgb(232,233,112);fill-rule:nonzero;"/>
        </g>
        <g transform="matrix(4.16667,0,0,4.16667,0,0)">
            <path d="M480.256,679.906L411.077,611.636L426.38,596.129L467.262,636.474L481.974,678.166L480.256,679.906Z" style="fill:rgb(14,98,158);fill-rule:nonzero;"/>
        </g>
        <g transform="matrix(4.16667,0,0,4.16667,0,0)">
            <path d="M481.974,678.166L467.262,636.474L475.068,644.178L477.561,651.244L480.999,650.031L485.879,654.847L479.613,657.058L485.325,673.245L487.635,672.43L481.974,678.166ZM495.244,664.721L494.901,663.751L495.56,664.4L495.244,664.721Z" style="fill:rgb(199,200,200);fill-rule:nonzero;"/>
        </g>
        <g transform="matrix(4.16667,0,0,4.16667,0,0)">
            <path d="M485.325,673.245L479.613,657.058L485.879,654.847L494.901,663.751L495.244,664.721L487.635,672.43L485.325,673.245Z" style="fill:rgb(209,147,53);fill-rule:nonzero;"/>
        </g>
        <g transform="matrix(4.16667,0,0,4.16667,0,0)">
            <path d="M477.561,651.244L475.068,644.178L480.999,650.031L477.561,651.244Z" style="fill:rgb(121,39,118);fill-rule:nonzero;"/>
        </g>
        <g transform="matrix(4.16667,0,0,4.16667,0,0)">
            <path d="M492.447,664.4L477.144,679.906L407.965,611.636L423.268,596.129L492.447,664.4Z" style="fill:rgb(243,244,245);fill-rule:nonzero;"/>
        </g>
        <g transform="matrix(4.16667,0,0,4.16667,0,0)">
            <path d="M472.33,651.289L463.768,659.965L475.985,672.022L484.548,663.346L472.33,651.289Z" style="fill:rgb(251,176,66);fill-rule:nonzero;"/>
        </g>
        <g transform="matrix(4.16667,0,0,4.16667,0,0)">
            <path d="M456.682,635.845L448.119,644.521L459.38,655.634L467.942,646.958L456.682,635.845Z" style="fill:rgb(145,40,142);fill-rule:nonzero;"/>
        </g>
        <g transform="matrix(4.16667,0,0,4.16667,0,0)">
            <path d="M440.554,619.93L431.991,628.605L443.252,639.719L451.814,631.042L440.554,619.93Z" style="fill:rgb(102,47,144);fill-rule:nonzero;"/>
        </g>
        <g transform="matrix(4.16667,0,0,4.16667,0,0)">
            <path d="M424.427,604.014L415.864,612.689L427.125,623.803L435.688,615.127L424.427,604.014Z" style="fill:rgb(37,169,225);fill-rule:nonzero;"/>
        </g>
        <g transform="matrix(4.16667,0,0,4.16667,0,0)">
            <path d="M568.427,800L564.324,800L575.98,786.216L578.372,788.239L568.427,800ZM571.551,778.424L551.508,761.475L556.232,755.889L555.625,755.375C551.661,752.023 551.165,746.093 554.517,742.129L572.201,721.216L575.411,717.42L579.925,712.081L584.665,721.669L583.698,722.812C583.259,723.332 583.324,724.11 583.844,724.55C584.075,724.746 584.358,724.842 584.639,724.842C584.989,724.842 585.337,724.693 585.581,724.404L585.856,724.079L594.148,740.854L597.624,739.136L599.516,742.963L625.93,729.906L611.023,747.533L607.813,751.329L605.074,754.568L615.291,750.869C615.957,750.628 616.638,750.513 617.307,750.513C619.73,750.513 622.004,752.012 622.876,754.421L622.915,754.527C624.028,757.603 622.438,760.999 619.363,762.113L589.481,772.934C587.68,774.679 585.32,775.573 582.946,775.573C580.802,775.573 578.648,774.844 576.883,773.352L576.275,772.838L571.551,778.424Z" style="fill:rgb(14,98,158);fill-rule:nonzero;"/>
        </g>
        <g transform="matrix(4.16667,0,0,4.16667,0,0)">
            <path d="M599.516,742.963L597.624,739.136L605.226,735.378L602.445,738.666C602.006,739.186 602.071,739.964 602.591,740.403C602.823,740.599 603.105,740.695 603.386,740.695C603.736,740.695 604.084,740.546 604.328,740.258L610.774,732.635L631.209,722.534C631.079,723.403 630.713,724.249 630.103,724.97L625.93,729.906L599.516,742.963Z" style="fill:rgb(14,81,130);fill-rule:nonzero;"/>
        </g>
        <g transform="matrix(4.16667,0,0,4.16667,0,0)">
            <path d="M594.148,740.854L585.856,724.079L606.964,699.118C607.934,697.971 609.318,697.38 610.711,697.38C611.83,697.38 612.955,697.761 613.877,698.54C615.945,700.289 616.204,703.384 614.455,705.452L593.072,730.739C592.633,731.259 592.697,732.037 593.218,732.477C593.449,732.672 593.732,732.768 594.013,732.768C594.363,732.768 594.711,732.62 594.955,732.331L617.947,705.142C618.917,703.994 620.301,703.404 621.695,703.404C622.814,703.404 623.938,703.785 624.859,704.563C626.928,706.312 627.187,709.407 625.438,711.476L605.226,735.378L597.624,739.136L594.148,740.854ZM610.774,732.635L622.612,718.636C623.583,717.488 624.967,716.898 626.361,716.898C627.479,716.898 628.604,717.278 629.525,718.058C630.873,719.197 631.452,720.908 631.209,722.534L610.774,732.635ZM584.665,721.669L579.925,712.081L591.408,698.501L593.92,703.583L602.348,699.417C602.254,700.373 601.879,701.312 601.212,702.102L584.665,721.669ZM594.185,695.287C594.87,694.67 595.695,694.276 596.559,694.113L594.185,695.287Z" style="fill:rgb(211,211,211);fill-rule:nonzero;"/>
        </g>
        <g transform="matrix(4.16667,0,0,4.16667,0,0)">
            <path d="M593.92,703.583L591.408,698.501L593.721,695.766C593.867,695.594 594.022,695.434 594.185,695.287L596.559,694.113C596.859,694.057 597.164,694.029 597.469,694.029C598.588,694.029 599.713,694.41 600.634,695.188C601.913,696.27 602.5,697.867 602.348,699.417L593.92,703.583Z" style="fill:rgb(199,200,200);fill-rule:nonzero;"/>
        </g>
        <g transform="matrix(4.16667,0,0,4.16667,0,0)">
            <path d="M587.465,769.138L583.394,757.894L614.895,746.485C617.97,745.372 621.366,746.962 622.479,750.038L622.519,750.145C623.632,753.22 622.042,756.616 618.966,757.729L587.465,769.138Z" style="fill:rgb(219,171,159);fill-rule:nonzero;"/>
        </g>
        <g transform="matrix(4.16667,0,0,4.16667,0,0)">
            <path d="M622.216,714.252L603.932,735.874C603.492,736.395 602.715,736.459 602.194,736.02C601.675,735.58 601.609,734.802 602.049,734.282L625.041,707.093C626.79,705.023 626.531,701.929 624.463,700.18C622.395,698.431 619.3,698.689 617.55,700.758L594.559,727.948C594.118,728.468 593.341,728.533 592.82,728.093C592.301,727.653 592.235,726.876 592.676,726.355L614.059,701.069C615.808,699 615.549,695.905 613.479,694.156C611.411,692.407 608.316,692.666 606.567,694.734L585.185,720.021C584.745,720.541 583.967,720.606 583.447,720.167C582.927,719.727 582.862,718.949 583.302,718.43L600.815,697.718C602.564,695.649 602.306,692.555 600.237,690.806C598.169,689.057 595.074,689.315 593.324,691.384L575.015,713.036L571.805,716.832L554.12,737.746C550.769,741.71 551.265,747.641 555.229,750.992L576.485,768.968C580.449,772.319 586.38,771.823 589.731,767.859L607.417,746.946L610.627,743.15L629.707,720.587C631.456,718.518 631.197,715.423 629.129,713.674C627.06,711.925 623.965,712.184 622.216,714.252Z" style="fill:rgb(251,201,185);fill-rule:nonzero;"/>
        </g>
        <g transform="matrix(4.16667,0,0,4.16667,0,0)">
            <path d="M569.159,776.4L549.116,759.452L555.835,751.506L575.879,768.454L569.159,776.4Z" style="fill:rgb(251,201,185);fill-rule:nonzero;"/>
        </g>
        <g transform="matrix(4.16667,0,0,4.16667,0,0)">
            <path d="M564.324,800L552.284,800L570.955,777.92L577.975,783.856L575.98,786.216L564.324,800Z" style="fill:rgb(209,200,41);fill-rule:nonzero;"/>
        </g>
        <g transform="matrix(4.16667,0,0,4.16667,0,0)">
            <path d="M592.769,693.766L593.877,692.454C595.268,690.81 597.735,690.603 599.38,691.993C601.023,693.384 601.23,695.853 599.84,697.497L598.731,698.808L592.769,693.766Z" style="fill:rgb(253,221,212);fill-rule:nonzero;"/>
        </g>
        <g transform="matrix(4.16667,0,0,4.16667,0,0)">
            <path d="M606.229,696.723L607.338,695.411C608.729,693.767 611.196,693.56 612.841,694.95C614.485,696.341 614.691,698.81 613.301,700.454L612.192,701.765L606.229,696.723Z" style="fill:rgb(253,221,212);fill-rule:nonzero;"/>
        </g>
        <g transform="matrix(4.16667,0,0,4.16667,0,0)">
            <path d="M617.122,702.877L618.23,701.566C619.621,699.922 622.089,699.715 623.733,701.105C625.378,702.496 625.584,704.965 624.193,706.609L623.085,707.92L617.122,702.877Z" style="fill:rgb(253,221,212);fill-rule:nonzero;"/>
        </g>
        <g transform="matrix(4.16667,0,0,4.16667,0,0)">
            <path d="M621.772,716.414L622.881,715.103C624.271,713.458 626.739,713.251 628.384,714.642C630.028,716.032 630.234,718.501 628.844,720.146L627.735,721.456L621.772,716.414Z" style="fill:rgb(253,221,212);fill-rule:nonzero;"/>
        </g>
    </g>
    <g id="Layer1" transform="matrix(1,0,0,1,0.778789,13.5001)">
        <g transform="matrix(4.16667,0,0,4.16667,-1702.54,-2023.15)">
            <path d="M528.865,747.491C528.222,747.491 527.567,747.398 526.919,747.204L524.218,746.394C520.637,745.321 518.604,741.548 519.677,737.967L526.804,714.193L528.83,714.801L532.938,701.096L534.928,701.692L542.566,703.982L544.555,704.578L540.447,718.283L542.473,718.891L535.347,742.664C534.468,745.597 531.778,747.491 528.865,747.491Z" style="fill:rgb(14,98,158);fill-rule:nonzero;"/>
        </g>
        <g transform="matrix(4.16667,0,0,4.16667,-1702.54,-2023.15)">
            <path d="M526.149,744.565L523.447,743.756C519.867,742.682 517.834,738.909 518.906,735.328L526.034,711.555L541.703,716.252L534.576,740.025C533.503,743.606 529.73,745.639 526.149,744.565Z" style="fill:rgb(243,244,245);fill-rule:nonzero;"/>
        </g>
        <g transform="matrix(4.16667,0,0,4.16667,-1702.54,-2023.15)">
            <path d="M543.785,701.939L532.169,698.457L528.061,712.162L539.677,715.645L543.785,701.939Z" style="fill:rgb(211,211,211);fill-rule:nonzero;"/>
        </g>
        <g transform="matrix(4.16667,0,0,4.16667,-1702.54,-2023.15)">
            <path d="M541.279,703.067L533.641,700.777L534.157,699.054L541.796,701.343L541.279,703.067Z" style="fill:rgb(150,153,155);fill-rule:nonzero;"/>
        </g>
        <g transform="matrix(4.16667,0,0,4.16667,-1702.54,-2023.15)">
            <path d="M534.467,708.152L531.681,707.317L532.526,704.494L535.313,705.329L534.467,708.152Z" style="fill:rgb(150,153,155);fill-rule:nonzero;"/>
        </g>
        <g transform="matrix(4.16667,0,0,4.16667,-1702.54,-2023.15)">
            <path d="M539.319,709.606L536.532,708.771L537.379,705.948L540.165,706.784L539.319,709.606Z" style="fill:rgb(150,153,155);fill-rule:nonzero;"/>
        </g>
        <g transform="matrix(4.16667,0,0,4.16667,-1702.54,-2023.15)">
            <path d="M569.159,776.4L549.116,759.452L555.835,751.506L575.879,768.454L569.159,776.4Z" style="fill:rgb(251,201,185);fill-rule:nonzero;"/>
        </g>
        <g transform="matrix(4.16667,0,0,4.16667,-1699.96,-2019.15)">
            <path d="M520.794,851.476L484.151,820.489L541.331,752.869L577.975,783.856L520.794,851.476Z" style="fill:rgb(249,238,30);fill-rule:nonzero;"/>
        </g>
        <g transform="matrix(4.16667,0,0,4.16667,-1702.54,-2023.15)">
            <path d="M564.324,800L552.284,800L570.955,777.92L577.975,783.856L575.98,786.216L564.324,800Z" style="fill:rgb(209,200,41);fill-rule:nonzero;"/>
        </g>
        <g transform="matrix(4.16667,0,0,4.16667,-1702.54,-2023.15)">
            <path d="M617.122,702.877L618.23,701.566C619.621,699.922 622.089,699.715 623.733,701.105C625.378,702.496 625.584,704.965 624.193,706.609L623.085,707.92L617.122,702.877Z" style="fill:rgb(253,221,212);fill-rule:nonzero;"/>
        </g>
        <g transform="matrix(4.16667,0,0,4.16667,-1702.54,-2023.15)">
            <path d="M621.772,716.414L622.881,715.103C624.271,713.458 626.739,713.251 628.384,714.642C630.028,716.032 630.234,718.501 628.844,720.146L627.735,721.456L621.772,716.414Z" style="fill:rgb(253,221,212);fill-rule:nonzero;"/>
        </g>
    </g>
</svg>
