<?xml version="1.0" encoding="UTF-8" standalone="no"?>
<!DOCTYPE svg PUBLIC "-//W3C//DTD SVG 1.1//EN" "http://www.w3.org/Graphics/SVG/1.1/DTD/svg11.dtd">
<svg width="100%" height="100%" viewBox="0 0 1427 913" version="1.1" style="fill-rule:evenodd;clip-rule:evenodd;stroke-linejoin:round;stroke-miterlimit:1.41421;">
    <g transform="matrix(1,0,0,1,-37.7857,-79.6549)">
        <g>
            <g transform="matrix(4.16667,0,0,4.16667,-255.373,-240.802)">
                <path d="M378.175,116.292C378.175,128.984 367.887,139.273 355.195,139.273C342.503,139.273 332.214,128.984 332.214,116.292C332.214,103.6 342.503,93.312 355.195,93.312C367.887,93.312 378.175,103.6 378.175,116.292Z" style="fill:rgb(50,131,195);fill-rule:nonzero;"/>
            </g>
            <g transform="matrix(4.16667,0,0,4.16667,-255.373,-240.802)">
                <path d="M317.428,100.746C317.428,105.957 313.204,110.18 307.994,110.18C302.784,110.18 298.56,105.957 298.56,100.746C298.56,95.537 302.784,91.313 307.994,91.313C313.204,91.313 317.428,95.537 317.428,100.746Z" style="fill:rgb(50,131,195);fill-rule:nonzero;"/>
            </g>
            <g transform="matrix(4.16667,0,0,4.16667,-255.373,-240.802)">
                <path d="M203.459,291.689L238.056,291.689C205.803,288.536 175.098,271.751 155.222,243.009C138.16,218.336 132.161,189.304 136.139,161.784C129.539,191.69 134.913,224.152 153.705,251.328C166.584,269.952 184.011,283.559 203.459,291.689Z" style="fill:rgb(28,117,188);fill-rule:nonzero;"/>
            </g>
            <g transform="matrix(4.16667,0,0,4.16667,-255.373,-240.802)">
                <path d="M314.026,271.97C297.5,283.398 279.017,289.859 260.344,291.689L291.725,291.689C298.893,288.676 305.86,284.886 312.509,280.288C339.685,261.496 356.171,233.02 360.553,202.71C354.56,229.862 338.7,254.907 314.026,271.97Z" style="fill:rgb(28,117,188);fill-rule:nonzero;"/>
            </g>
            <g transform="matrix(4.16667,0,0,4.16667,-255.373,-240.802)">
                <path d="M387.772,202.746L340.884,202.746C337.754,202.677 335.236,200.123 335.236,196.975C335.236,193.785 337.822,191.198 341.013,191.198L370.22,191.198L384.391,175.572C398.017,160.545 389.498,136.395 369.46,133.245L152.639,99.153C132.451,95.979 116.916,116.648 125.577,135.157L198.826,291.689L279.089,291.689L349.269,214.3L387.772,214.3C390.962,214.3 393.549,211.714 393.549,208.523C393.549,205.333 390.962,202.746 387.772,202.746Z" style="fill:rgb(50,131,195);fill-rule:nonzero;"/>
            </g>
            <g transform="matrix(4.16667,0,0,4.16667,-255.373,-240.802)">
                <path d="M406.92,214.301L402.744,214.301C399.553,214.301 396.967,211.714 396.967,208.523C396.967,205.333 399.553,202.746 402.744,202.746L406.92,202.746C410.111,202.746 412.697,205.333 412.697,208.523C412.697,211.714 410.111,214.301 406.92,214.301Z" style="fill:rgb(50,131,195);fill-rule:nonzero;"/>
            </g>
            <g transform="matrix(4.16667,0,0,4.16667,-255.373,-240.802)">
                <path d="M202.144,291.689L198.826,291.689L189.722,272.234C189.563,270.45 189.446,268.654 189.377,266.846L202.144,291.689ZM217.308,288.038L215.334,288.038L194.724,229.871C200.929,211.544 212.152,195.529 226.753,183.461C226.27,190.188 227.167,200.231 231.69,214.865C235.825,228.245 242.155,240.727 253.4,244.189L241.431,278.191C239.771,275.309 236.666,273.364 233.101,273.364L225.473,273.364C221.052,273.364 217.337,276.352 216.214,280.416C216.172,280.568 216.131,280.721 216.097,280.876C216.069,280.999 216.045,281.124 216.022,281.249C215.99,281.426 215.963,281.604 215.941,281.784C215.927,281.889 215.913,281.993 215.903,282.098C215.876,282.388 215.859,282.681 215.859,282.979C215.859,284.837 216.395,286.567 217.308,288.038Z" style="fill:rgb(28,117,188);fill-rule:nonzero;"/>
            </g>
            <g transform="matrix(4.16667,0,0,4.16667,-255.373,-240.802)">
                <path d="M325.041,241.018C323.701,234.289 319.301,228.418 312.919,225.336L298.303,218.276L297.561,213.915C297.642,213.613 297.721,213.312 297.793,213.01C297.846,212.788 297.893,212.566 297.941,212.344C298.001,212.066 298.06,211.789 298.113,211.511L298.114,211.52C298.114,211.52 298.217,211.454 298.393,211.334C298.936,211.673 299.954,212.336 300.901,213.113C302.268,214.236 303.828,217.411 303.828,217.411C303.828,217.411 303.755,214.779 302.41,212.71C301.561,211.405 300.412,210.678 299.756,210.34L299.757,210.34C300.661,210.378 301.778,210.549 303.004,211.018C306.174,212.232 309.288,216.999 309.288,216.999C309.288,216.999 308.783,212.682 305.753,210.183C304.762,209.366 303.482,208.671 302.359,208.149C304.714,206.001 297.963,195.11 300.391,191.022C300.91,190.148 301.975,169.445 301.895,169.098C301.806,168.711 312.504,168.861 312.334,168.357C312.285,168.211 312.24,168.058 312.19,167.914C311.997,167.357 311.793,166.818 311.585,166.285L311.493,166.04C311.266,165.467 311.03,164.911 310.788,164.366L310.745,164.265C310.49,163.695 310.227,163.14 309.957,162.6L309.949,162.583C309.834,162.352 309.716,162.126 309.599,161.9C309.876,161.757 310.149,161.61 310.405,161.451C332.18,165.295 351.596,175.978 366.359,191.198L341.013,191.198C337.822,191.198 335.236,193.785 335.236,196.975C335.236,200.123 337.754,202.677 340.884,202.746L376.036,202.746C378.687,206.424 381.101,210.282 383.257,214.3L358.263,214.3L357.35,214.3L349.269,214.3L325.041,241.017" style="fill:rgb(28,117,188);fill-rule:nonzero;"/>
            </g>
            <g transform="matrix(4.16667,0,0,4.16667,-255.373,-240.802)">
                <path d="M188.57,187.101C182.566,187.101 177.698,182.234 177.698,176.229C177.698,170.224 182.566,165.357 188.57,165.357C194.575,165.357 199.443,170.224 199.443,176.229C199.443,182.234 194.575,187.101 188.57,187.101Z" style="fill:rgb(28,117,188);fill-rule:nonzero;"/>
            </g>
            <g transform="matrix(4.16667,0,0,4.16667,-255.373,-240.802)">
                <path d="M278.989,291.8L202.144,291.689L279.089,291.689L278.989,291.8ZM283.339,287.003L325.041,241.017L325.041,241.018L283.339,287.003Z" style="fill:rgb(210,211,211);fill-rule:nonzero;"/>
            </g>
            <g transform="matrix(4.16667,0,0,4.16667,-255.373,-240.802)">
                <path d="M279.089,291.689L283.339,287.003L279.089,291.689Z" style="fill:rgb(137,165,61);fill-rule:nonzero;"/>
            </g>
        </g>
        <g id="epiphany" transform="matrix(1,0,0,1,-1702.44,-13.9199)">
            <g transform="matrix(4.16667,0,0,4.16667,-114.82,-226.107)">
                <path d="M708.912,115.749C703.855,106.586 697.636,98.244 690.493,90.873L690.501,90.87C697.645,98.24 703.857,106.582 708.915,115.745L708.912,115.749ZM700.956,94.766C700.946,94.755 700.936,94.744 700.927,94.733C700.936,94.744 700.946,94.755 700.956,94.766ZM700.916,94.721C699.443,93.027 697.918,91.374 696.354,89.771L696.355,89.771C697.92,91.375 699.442,93.025 700.916,94.721Z" style="fill:rgb(210,211,211);fill-rule:nonzero;"/>
            </g>
            <g transform="matrix(4.16667,0,0,4.16667,-114.82,-226.107)">
                <path d="M710.318,118.37C710.093,117.937 709.861,117.509 709.631,117.08C709.633,117.078 709.635,117.077 709.638,117.075C709.868,117.505 710.094,117.935 710.319,118.368C710.319,118.369 710.318,118.37 710.318,118.37Z" style="fill:rgb(210,211,211);fill-rule:nonzero;"/>
            </g>
            <g transform="matrix(4.16667,0,0,4.16667,-114.82,-226.107)">
                <path d="M578.789,284.394C578.753,284.383 578.716,284.373 578.68,284.362C578.717,284.373 578.752,284.383 578.789,284.394ZM578.647,284.352C578.621,284.344 578.594,284.336 578.568,284.328C578.595,284.336 578.62,284.344 578.647,284.352ZM578.532,284.318C578.506,284.31 578.48,284.302 578.453,284.294C578.478,284.301 578.508,284.31 578.532,284.318ZM578.421,284.284C578.391,284.275 578.362,284.266 578.331,284.257C578.361,284.266 578.391,284.275 578.421,284.284ZM578.31,284.251C578.274,284.24 578.235,284.228 578.198,284.217C578.235,284.228 578.273,284.239 578.31,284.251ZM578.181,284.211C578.15,284.202 578.12,284.193 578.089,284.184C578.119,284.193 578.151,284.203 578.181,284.211ZM578.054,284.173C578.029,284.165 578.002,284.157 577.978,284.15C578.002,284.157 578.029,284.165 578.054,284.173ZM577.941,284.138C577.914,284.13 577.89,284.123 577.864,284.115C577.891,284.123 577.913,284.13 577.941,284.138ZM577.829,284.104C577.797,284.094 577.765,284.084 577.732,284.074C577.767,284.085 577.795,284.094 577.829,284.104ZM577.72,284.071C577.683,284.059 577.647,284.048 577.611,284.037C577.648,284.048 577.683,284.059 577.72,284.071ZM577.578,284.027C577.552,284.019 577.527,284.011 577.5,284.003C577.528,284.011 577.551,284.018 577.578,284.027ZM577.462,283.991C577.438,283.983 577.415,283.976 577.391,283.969C577.416,283.977 577.437,283.983 577.462,283.991ZM577.348,283.956C577.326,283.949 577.301,283.941 577.278,283.934C577.303,283.941 577.324,283.948 577.348,283.956ZM577.239,283.921C577.206,283.911 577.175,283.901 577.143,283.891C577.175,283.901 577.207,283.911 577.239,283.921ZM577.092,283.875C577.07,283.868 577.05,283.862 577.028,283.855C577.05,283.862 577.07,283.868 577.092,283.875ZM576.972,283.838C576.956,283.832 576.939,283.827 576.923,283.822C576.94,283.828 576.955,283.832 576.972,283.838ZM576.862,283.803C576.846,283.798 576.831,283.793 576.815,283.788C576.832,283.794 576.845,283.797 576.862,283.803ZM576.755,283.769C576.743,283.765 576.726,283.76 576.714,283.756C576.727,283.76 576.742,283.765 576.755,283.769ZM576.477,283.68C576.469,283.678 576.458,283.674 576.45,283.672C576.46,283.675 576.467,283.677 576.477,283.68ZM576.371,283.646C576.363,283.644 576.357,283.642 576.349,283.639C576.356,283.642 576.364,283.644 576.371,283.646ZM576.266,283.613C576.262,283.611 576.259,283.61 576.255,283.609C576.26,283.611 576.261,283.611 576.266,283.613ZM651.32,282.486C651.329,282.482 651.336,282.48 651.345,282.477C651.336,282.48 651.328,282.483 651.32,282.486ZM651.444,282.442L651.445,282.441C651.452,282.439 651.451,282.439 651.457,282.437C651.453,282.438 651.448,282.44 651.444,282.442ZM651.554,282.402C651.557,282.401 651.556,282.401 651.56,282.4C651.566,282.398 651.571,282.396 651.577,282.394C651.568,282.397 651.562,282.399 651.554,282.402ZM651.671,282.36C651.674,282.359 651.67,282.36 651.673,282.359C651.68,282.357 651.687,282.354 651.694,282.352C651.685,282.355 651.68,282.357 651.671,282.36ZM651.797,282.315C651.8,282.313 651.799,282.314 651.802,282.313C651.801,282.313 651.798,282.314 651.797,282.315ZM651.902,282.277C651.909,282.274 651.916,282.272 651.923,282.269C651.917,282.271 651.908,282.274 651.902,282.277ZM652.028,282.231C652.037,282.228 652.042,282.226 652.051,282.223C652.043,282.226 652.037,282.228 652.028,282.231ZM652.134,282.193C652.14,282.19 652.15,282.187 652.156,282.184C652.149,282.187 652.141,282.19 652.134,282.193ZM652.258,282.147C652.264,282.145 652.277,282.14 652.283,282.138C652.275,282.141 652.267,282.144 652.258,282.147ZM652.378,282.103C652.381,282.102 652.383,282.101 652.386,282.1C652.383,282.101 652.381,282.102 652.378,282.103ZM652.492,282.061C652.495,282.06 652.501,282.058 652.505,282.057C652.508,282.056 652.51,282.055 652.513,282.054C652.505,282.056 652.499,282.059 652.492,282.061ZM652.612,282.017C652.615,282.016 652.613,282.016 652.617,282.015L652.622,282.013C652.619,282.014 652.615,282.016 652.612,282.017ZM652.723,281.976L652.729,281.974C652.732,281.973 652.74,281.97 652.743,281.969C652.735,281.971 652.73,281.973 652.723,281.976ZM652.842,281.932C652.846,281.93 652.844,281.931 652.847,281.93L652.855,281.927C652.851,281.928 652.846,281.93 652.842,281.932ZM652.961,281.887C652.964,281.886 652.965,281.886 652.968,281.885C652.966,281.885 652.962,281.887 652.961,281.887ZM653.072,281.846C653.075,281.845 653.082,281.842 653.086,281.841C653.081,281.843 653.077,281.844 653.072,281.846ZM653.308,281.757C653.311,281.756 653.306,281.758 653.309,281.757C653.312,281.756 653.314,281.755 653.317,281.754C653.313,281.755 653.311,281.756 653.308,281.757ZM511.269,264.243C511.261,264.236 511.254,264.23 511.246,264.223C511.253,264.229 511.262,264.237 511.269,264.243ZM511.179,264.166C511.17,264.159 511.163,264.153 511.154,264.146C511.163,264.153 511.17,264.159 511.179,264.166ZM511.088,264.09C511.079,264.082 511.073,264.077 511.065,264.07C511.073,264.077 511.079,264.082 511.088,264.09ZM510.996,264.012C510.99,264.007 510.983,264 510.976,263.995C510.983,264.001 510.989,264.006 510.996,264.012ZM510.904,263.934C510.898,263.929 510.893,263.924 510.887,263.92C510.893,263.924 510.899,263.929 510.904,263.934ZM510.81,263.854C510.806,263.85 510.803,263.848 510.799,263.845C510.803,263.848 510.806,263.851 510.81,263.854ZM510.452,254.612C510.445,254.607 510.436,254.599 510.43,254.594C510.438,254.6 510.444,254.606 510.452,254.612ZM510.376,254.548C510.368,254.541 510.357,254.532 510.348,254.525C510.357,254.532 510.367,254.541 510.376,254.548ZM510.299,254.483C510.29,254.475 510.279,254.466 510.269,254.458C510.28,254.467 510.289,254.475 510.299,254.483ZM510.224,254.42C510.209,254.408 510.198,254.398 510.184,254.386C510.197,254.397 510.211,254.408 510.224,254.42ZM510.148,254.356C510.132,254.342 510.116,254.328 510.1,254.315C510.116,254.329 510.132,254.342 510.148,254.356ZM510.073,254.292C510.056,254.277 510.039,254.263 510.021,254.248C510.038,254.262 510.056,254.277 510.073,254.292ZM509.998,254.228C509.98,254.213 509.96,254.196 509.942,254.181C509.961,254.197 509.979,254.212 509.998,254.228ZM509.922,254.164C509.902,254.146 509.882,254.13 509.862,254.112C509.882,254.129 509.902,254.146 509.922,254.164ZM509.848,254.1C509.826,254.081 509.805,254.064 509.783,254.045C509.804,254.063 509.827,254.082 509.848,254.1ZM509.773,254.036C509.749,254.016 509.725,253.995 509.701,253.975C509.725,253.995 509.75,254.016 509.773,254.036ZM509.699,253.973C497.173,243.257 487.171,230.673 479.757,216.979L479.764,216.979C487.178,230.672 497.173,243.258 509.699,253.973ZM699.747,243.393C701.025,241.701 702.24,239.963 703.424,238.204L703.413,238.259C702.238,240.003 701.015,241.715 699.747,243.393Z" style="fill:rgb(210,211,211);fill-rule:nonzero;"/>
            </g>
            <g transform="matrix(4.16667,0,0,4.16667,-114.82,-226.107)">
                <path d="M595.382,294.991C565.698,294.991 633.279,290.874 650.677,282.775C633.271,290.878 614.36,294.992 595.382,294.991ZM578.789,284.394C578.757,284.39 578.725,284.387 578.693,284.383C578.726,284.387 578.757,284.39 578.789,284.394ZM578.789,284.394C578.752,284.383 578.717,284.373 578.68,284.362C578.669,284.359 578.657,284.355 578.647,284.352C578.62,284.344 578.595,284.336 578.568,284.328C578.556,284.325 578.545,284.321 578.532,284.318C578.508,284.31 578.478,284.301 578.453,284.294C578.443,284.291 578.431,284.287 578.421,284.284C578.391,284.275 578.361,284.266 578.331,284.257C578.323,284.255 578.318,284.253 578.31,284.251C578.273,284.239 578.235,284.228 578.198,284.217C578.192,284.215 578.187,284.213 578.181,284.211C578.151,284.203 578.119,284.193 578.089,284.184C578.077,284.18 578.066,284.177 578.054,284.173C578.029,284.165 578.002,284.157 577.978,284.15C577.965,284.146 577.953,284.142 577.941,284.138C577.913,284.13 577.891,284.123 577.864,284.115C577.852,284.111 577.842,284.108 577.829,284.104C577.795,284.094 577.767,284.085 577.732,284.074C577.728,284.073 577.724,284.072 577.72,284.071C577.683,284.059 577.648,284.048 577.611,284.037C577.601,284.034 577.588,284.03 577.578,284.027C577.551,284.018 577.528,284.011 577.5,284.003C577.488,283.999 577.474,283.995 577.462,283.991C577.437,283.983 577.416,283.977 577.391,283.969C577.377,283.964 577.363,283.96 577.348,283.956C577.324,283.948 577.303,283.941 577.278,283.934C577.264,283.929 577.253,283.926 577.239,283.921C577.207,283.911 577.175,283.901 577.143,283.891C577.126,283.886 577.108,283.88 577.092,283.875C577.07,283.868 577.05,283.862 577.028,283.855C577.009,283.849 576.99,283.843 576.972,283.838C576.955,283.832 576.94,283.828 576.923,283.822C576.903,283.816 576.882,283.809 576.862,283.803C576.845,283.797 576.832,283.794 576.815,283.788C576.795,283.782 576.775,283.775 576.755,283.769C576.742,283.765 576.727,283.76 576.714,283.756C576.633,283.73 576.46,283.675 576.45,283.672C576.424,283.663 576.398,283.655 576.371,283.646C576.364,283.644 576.356,283.642 576.349,283.639C576.322,283.631 576.292,283.621 576.266,283.613C576.261,283.611 576.896,283.831 578.789,284.394ZM650.853,282.693C650.89,282.676 650.929,282.657 650.967,282.64C650.928,282.658 650.891,282.675 650.853,282.693ZM651.445,282.441C651.451,282.439 651.46,282.436 651.467,282.433C651.464,282.434 651.46,282.436 651.457,282.437C651.451,282.439 651.452,282.439 651.445,282.441ZM651.55,282.403C651.553,282.402 651.557,282.401 651.56,282.4C651.556,282.401 651.557,282.401 651.554,282.402C651.552,282.403 651.552,282.403 651.55,282.403ZM651.673,282.359C651.683,282.356 651.693,282.352 651.703,282.349C651.7,282.35 651.696,282.351 651.694,282.352C651.687,282.354 651.68,282.357 651.673,282.359ZM651.902,282.277C651.911,282.273 651.923,282.269 651.932,282.266C651.928,282.267 651.926,282.268 651.923,282.269C651.916,282.272 651.909,282.274 651.902,282.277ZM652.132,282.193C652.141,282.19 652.154,282.185 652.163,282.182C652.16,282.183 652.159,282.183 652.156,282.184C652.15,282.187 652.14,282.19 652.134,282.193L652.132,282.193ZM652.489,282.062C652.492,282.061 652.501,282.058 652.505,282.057C652.501,282.058 652.495,282.06 652.492,282.061L652.489,282.062ZM652.617,282.015C652.62,282.014 652.628,282.011 652.631,282.01C652.628,282.011 652.625,282.012 652.622,282.013L652.617,282.015ZM652.72,281.977C652.723,281.976 652.726,281.975 652.729,281.974L652.723,281.976C652.721,281.977 652.721,281.977 652.72,281.977ZM652.847,281.93C652.853,281.928 652.857,281.926 652.863,281.924C652.859,281.925 652.859,281.926 652.855,281.927L652.847,281.93ZM653.072,281.846C653.078,281.844 653.087,281.84 653.093,281.838C653.091,281.839 653.088,281.84 653.086,281.841C653.082,281.842 653.075,281.845 653.072,281.846ZM653.309,281.757C653.312,281.756 653.316,281.754 653.319,281.753L653.317,281.754C653.314,281.755 653.312,281.756 653.309,281.757ZM707.166,144.881C693.372,137.746 677.716,133.712 661.116,133.712C646.015,133.712 631.694,137.046 618.847,143.019C619.42,127.111 625.098,123.121 625.098,123.121L625.074,123.088L625.05,123.054L625.008,122.993L624.934,122.881L624.904,122.837L624.801,122.674L624.768,122.622L624.645,122.415L624.605,122.347L624.468,122.101L624.422,122.017C624.373,121.926 624.323,121.829 624.272,121.727L624.226,121.637C624.173,121.531 624.12,121.42 624.066,121.304L624.02,121.204C623.966,121.086 623.912,120.962 623.858,120.834L623.811,120.722C623.757,120.59 623.703,120.455 623.65,120.314L623.606,120.195C623.553,120.051 623.501,119.903 623.45,119.75L623.409,119.622C623.359,119.466 623.31,119.307 623.263,119.143L623.227,119.008C623.181,118.84 623.136,118.669 623.095,118.493L623.066,118.359C623.025,118.177 622.986,117.993 622.952,117.803L622.931,117.679C622.897,117.481 622.866,117.282 622.839,117.076L622.829,116.982C622.803,116.763 622.78,116.542 622.764,116.314C622.443,111.755 624.322,105.511 633.729,99.501C643.896,93.005 653.991,90.688 662.762,90.688C665.993,90.688 669.046,91.003 671.855,91.539C687.343,103.845 699.803,120.066 707.542,139.057C707.549,139.433 707.566,139.815 707.561,140.185C707.553,140.87 707.523,141.543 707.474,142.204C707.426,142.865 707.358,143.514 707.272,144.151C707.239,144.396 707.204,144.639 707.166,144.881Z" style="fill:rgb(24,88,141);fill-rule:nonzero;"/>
            </g>
            <g transform="matrix(4.16667,0,0,4.16667,-114.82,-226.107)">
                <path d="M651.319,282.486C651.328,282.483 651.339,282.479 651.348,282.475C651.347,282.476 651.346,282.476 651.345,282.477C651.336,282.48 651.329,282.482 651.32,282.486L651.319,282.486ZM651.439,282.443L651.445,282.441L651.444,282.442C651.442,282.442 651.44,282.443 651.439,282.443ZM651.56,282.4C651.566,282.398 651.577,282.394 651.584,282.391C651.582,282.392 651.578,282.393 651.577,282.394C651.571,282.396 651.566,282.398 651.56,282.4ZM651.667,282.361C651.671,282.36 651.67,282.36 651.673,282.359C651.67,282.36 651.674,282.359 651.671,282.36C651.67,282.36 651.668,282.361 651.667,282.361ZM651.787,282.318C651.796,282.315 651.807,282.311 651.817,282.307C651.812,282.309 651.807,282.311 651.802,282.313C651.799,282.314 651.8,282.313 651.797,282.315C651.794,282.316 651.79,282.317 651.787,282.318ZM652.021,282.234C652.03,282.23 652.043,282.226 652.052,282.222L652.051,282.223C652.042,282.226 652.037,282.228 652.028,282.231C652.026,282.232 652.023,282.233 652.021,282.234ZM652.254,282.149C652.264,282.145 652.275,282.141 652.285,282.137L652.283,282.138C652.277,282.14 652.264,282.145 652.258,282.147C652.257,282.147 652.255,282.148 652.254,282.149ZM652.371,282.106C652.377,282.104 652.382,282.102 652.389,282.099L652.386,282.1C652.383,282.101 652.381,282.102 652.378,282.103C652.375,282.104 652.373,282.105 652.371,282.106ZM652.505,282.057C652.508,282.055 652.511,282.054 652.515,282.053C652.513,282.053 652.514,282.053 652.513,282.054C652.51,282.055 652.508,282.056 652.505,282.057ZM652.604,282.02C652.607,282.019 652.613,282.017 652.617,282.015C652.613,282.016 652.615,282.016 652.612,282.017C652.609,282.018 652.608,282.019 652.604,282.02ZM652.729,281.974C652.735,281.971 652.742,281.969 652.749,281.966C652.747,281.967 652.744,281.968 652.743,281.969C652.74,281.97 652.732,281.973 652.729,281.974ZM652.836,281.934C652.843,281.931 652.841,281.932 652.847,281.93C652.844,281.931 652.846,281.93 652.842,281.932C652.84,281.932 652.839,281.933 652.836,281.934ZM652.957,281.889C652.964,281.886 652.973,281.883 652.98,281.88C652.975,281.882 652.973,281.883 652.968,281.885C652.965,281.886 652.964,281.886 652.961,281.887C652.96,281.888 652.959,281.888 652.957,281.889ZM653.192,281.801C653.198,281.799 653.202,281.797 653.209,281.795C653.203,281.797 653.198,281.799 653.192,281.801ZM653.307,281.757L653.309,281.757C653.306,281.758 653.311,281.756 653.308,281.757L653.307,281.757ZM653.428,281.712C653.431,281.711 653.43,281.711 653.434,281.71C653.431,281.711 653.431,281.711 653.428,281.712Z" style="fill:rgb(215,166,165);fill-rule:nonzero;"/>
            </g>
            <g transform="matrix(4.16667,0,0,4.16667,-114.82,-226.107)">
                <path d="M595.408,294.979C590.485,294.979 585.555,294.702 580.648,294.147C578.159,290.817 575.876,287.325 573.809,283.693C575.433,283.954 577.063,284.184 578.693,284.383C578.725,284.387 578.757,284.39 578.789,284.394C576.896,283.831 575.026,283.205 573.169,282.549C566.65,270.741 562.444,257.479 561.152,243.374C558.501,244.198 555.683,244.642 552.761,244.642C537.358,244.642 524.836,232.308 524.53,216.979L565.056,216.979C567.656,216.979 569.975,218.617 570.843,221.068L593.679,285.514L605.489,285.514C605.111,284.983 604.802,284.403 604.56,283.79C602.449,282.27 600.828,280.088 600.008,277.472L584.823,228.801C583.648,225.036 585.364,221.065 588.713,219.265C589.256,217.204 589.898,214.301 589.765,212.475C589.54,209.402 587.066,208.428 588.416,206.269C588.769,205.703 589.256,205.454 589.793,205.454C591.307,205.454 593.219,207.438 593.662,209.927C594.16,212.731 593.521,216.973 593.29,218.329C594.28,218.42 595.235,218.699 596.113,219.13L598.484,214.711C598.919,213.902 599.75,213.441 600.608,213.441C600.993,213.441 601.383,213.533 601.745,213.728C602.917,214.357 603.357,215.817 602.728,216.989L599.707,222.62C599.932,223.049 600.127,223.5 600.277,223.979L611.348,259.465L614.157,255.936C614.412,255.616 614.79,255.449 615.173,255.449C615.447,255.449 615.724,255.534 615.959,255.711L616.22,255.906L635.651,216.18L636.018,214.881L648.406,205.932L650.964,204.085L650.696,200.051C649.962,200.1 649.227,200.132 648.488,200.132C630.942,200.132 624.17,183.863 620.971,166.611C619.144,156.757 618.631,149.035 618.847,143.019C631.694,137.046 646.015,133.712 661.116,133.712C677.716,133.712 693.372,137.746 707.166,144.881C706.807,147.15 706.223,149.262 705.476,151.222C705.062,152.306 704.599,153.343 704.096,154.335C702.588,157.308 700.726,159.864 698.797,162.019C698.476,162.378 698.152,162.726 697.829,163.063C695.772,165.203 693.7,166.888 691.942,168.151C692.997,168.801 694.187,169.64 695.076,170.567C697.795,173.4 697.795,177.747 697.795,177.747C697.795,177.747 695.256,172.651 692.249,171.077C691.085,170.468 689.996,170.168 689.103,170.025L689.101,170.026C689.714,170.437 690.77,171.293 691.462,172.688C692.558,174.899 692.324,177.522 692.324,177.522C692.324,177.522 691.144,174.187 689.917,172.913C689.066,172.03 688.133,171.254 687.632,170.855C687.444,170.953 687.334,171.006 687.334,171.006L687.333,170.998C687.249,171.267 687.158,171.536 687.067,171.805C686.993,172.02 686.92,172.235 686.842,172.449C686.732,172.75 686.614,173.049 686.495,173.348C686.413,173.555 686.334,173.761 686.248,173.968C686.111,174.292 685.965,174.614 685.818,174.937C685.736,175.116 685.66,175.295 685.576,175.473C685.346,175.956 685.106,176.437 684.853,176.914C684.746,177.116 684.63,177.315 684.52,177.516C684.362,177.802 684.205,178.089 684.039,178.373C683.9,178.611 683.753,178.847 683.609,179.083C683.461,179.325 683.313,179.567 683.16,179.808C683,180.058 682.834,180.305 682.667,180.553C682.519,180.774 682.37,180.995 682.217,181.214C682.038,181.471 681.855,181.726 681.669,181.98C681.521,182.182 681.371,182.384 681.219,182.584C681.02,182.848 680.817,183.111 680.611,183.372C680.484,183.532 680.354,183.691 680.224,183.85L681.074,200.132L694.771,208.843C702.488,213.751 706.413,222.884 704.662,231.861C704.662,231.861 699.87,240.863 699.893,240.832C701.161,239.154 693.758,247.598 693.758,247.598C681.066,262.656 672.479,274.508 653.434,281.71C653.43,281.711 653.431,281.711 653.428,281.712C653.392,281.726 653.355,281.74 653.319,281.753C653.316,281.754 653.312,281.756 653.309,281.757L653.307,281.757C653.275,281.77 653.241,281.782 653.209,281.795C653.202,281.797 653.198,281.799 653.192,281.801C653.159,281.813 653.126,281.826 653.093,281.838C653.087,281.84 653.078,281.844 653.072,281.846C653.042,281.857 653.01,281.869 652.98,281.88C652.973,281.883 652.964,281.886 652.957,281.889C652.926,281.901 652.894,281.912 652.863,281.924C652.857,281.926 652.853,281.928 652.847,281.93C652.841,281.932 652.843,281.931 652.836,281.934C652.807,281.945 652.778,281.956 652.749,281.966C652.742,281.969 652.735,281.971 652.729,281.974C652.726,281.975 652.723,281.976 652.72,281.977C652.691,281.988 652.66,281.999 652.631,282.01C652.628,282.011 652.62,282.014 652.617,282.015C652.613,282.017 652.607,282.019 652.604,282.02C652.575,282.031 652.544,282.042 652.515,282.053C652.511,282.054 652.508,282.055 652.505,282.057C652.501,282.058 652.492,282.061 652.489,282.062C652.455,282.075 652.423,282.087 652.389,282.099C652.382,282.102 652.377,282.104 652.371,282.106C652.343,282.116 652.313,282.127 652.285,282.137C652.275,282.141 652.264,282.145 652.254,282.149C652.224,282.16 652.193,282.171 652.163,282.182C652.154,282.185 652.141,282.19 652.132,282.193C652.105,282.203 652.079,282.212 652.052,282.222C652.043,282.226 652.03,282.23 652.021,282.234C651.991,282.244 651.961,282.255 651.932,282.266C651.923,282.269 651.911,282.273 651.902,282.277C651.873,282.287 651.846,282.297 651.817,282.307C651.807,282.311 651.796,282.315 651.787,282.318C651.759,282.328 651.73,282.339 651.703,282.349C651.693,282.352 651.683,282.356 651.673,282.359C651.67,282.36 651.671,282.36 651.667,282.361C651.639,282.371 651.612,282.381 651.584,282.391C651.577,282.394 651.566,282.398 651.56,282.4C651.557,282.401 651.553,282.402 651.55,282.403C651.522,282.413 651.495,282.423 651.467,282.433C651.46,282.436 651.451,282.439 651.445,282.441L651.439,282.443C651.409,282.454 651.379,282.465 651.348,282.475C651.339,282.479 651.328,282.483 651.319,282.486C651.284,282.498 651.251,282.51 651.216,282.522C651.135,282.561 651.049,282.601 650.967,282.64C650.929,282.657 650.89,282.676 650.853,282.693C650.792,282.721 650.737,282.747 650.677,282.775C633.279,290.874 614.378,294.98 595.408,294.979ZM625.642,273.487L625.597,273.579L625.777,273.591L625.642,273.487ZM612.564,263.363L612.568,263.373L612.57,263.368L612.564,263.363Z" style="fill:rgb(24,88,141);fill-rule:nonzero;"/>
            </g>
            <g transform="matrix(4.16667,0,0,4.16667,-114.82,-226.107)">
                <path d="M596.107,200.69C595.198,200.69 594.448,199.967 594.422,199.052L594.107,188.047C594.08,187.116 594.813,186.34 595.744,186.313C595.761,186.312 595.777,186.312 595.793,186.312C596.702,186.312 597.452,187.036 597.478,187.95L597.793,198.956C597.82,199.887 597.087,200.663 596.156,200.69C596.14,200.69 596.123,200.69 596.107,200.69Z" style="fill:rgb(24,88,141);fill-rule:nonzero;"/>
            </g>
            <g transform="matrix(4.16667,0,0,4.16667,-114.82,-226.107)">
                <path d="M606.804,205.997C606.278,205.997 605.76,205.752 605.431,205.291C604.889,204.534 605.064,203.481 605.822,202.939L614.776,196.532C615.073,196.32 615.416,196.217 615.755,196.217C616.281,196.217 616.799,196.463 617.128,196.923C617.67,197.68 617.496,198.733 616.738,199.275L607.784,205.682C607.487,205.894 607.144,205.997 606.804,205.997Z" style="fill:rgb(24,88,141);fill-rule:nonzero;"/>
            </g>
            <g transform="matrix(4.16667,0,0,4.16667,-114.82,-226.107)">
                <path d="M602.807,200.845C602.552,200.845 602.294,200.787 602.051,200.665C601.219,200.247 600.883,199.234 601.302,198.401L606.246,188.564C606.542,187.975 607.137,187.635 607.754,187.635C608.008,187.635 608.267,187.693 608.51,187.815C609.342,188.233 609.678,189.246 609.259,190.079L604.315,199.916C604.019,200.505 603.424,200.845 602.807,200.845Z" style="fill:rgb(24,88,141);fill-rule:nonzero;"/>
            </g>
            <g transform="matrix(4.16667,0,0,4.16667,-114.82,-226.107)">
                <path d="M605.636,260.216L630.387,209.615L615.844,202.502L592.444,250.343L605.636,260.216Z" style="fill:rgb(52,53,53);fill-rule:nonzero;"/>
            </g>
            <g transform="matrix(4.16667,0,0,4.16667,-114.82,-226.107)">
                <path d="M668.491,156.697C668.491,156.697 670.321,157.606 671.339,159.657C672.435,161.868 672.2,164.491 672.2,164.491C672.2,164.491 671.021,161.156 669.793,159.882C668.565,158.608 667.141,157.536 667.141,157.536L668.491,156.697Z" style="fill:rgb(139,55,48);fill-rule:nonzero;"/>
            </g>
            <g transform="matrix(4.16667,0,0,4.16667,-114.82,-226.107)">
                <path d="M669.352,153.774C669.352,153.774 672.931,155.429 674.953,157.536C677.672,160.369 677.672,164.716 677.672,164.716C677.672,164.716 675.133,159.62 672.125,158.046C669.203,156.516 666.729,156.922 666.729,156.922L669.352,153.774Z" style="fill:rgb(139,55,48);fill-rule:nonzero;"/>
            </g>
            <g transform="matrix(4.16667,0,0,4.16667,-114.82,-226.107)">
                <path d="M657.52,295.732L660.95,187.101L631.168,195.982L616.394,218.11L607.034,295.732L657.52,295.732Z" style="fill:white;fill-rule:nonzero;"/>
            </g>
            <g transform="matrix(4.16667,0,0,4.16667,-114.82,-226.107)">
                <path d="M613.037,295.732L649.602,295.732L651.917,254.258L643.474,244.627C643.474,244.627 640.659,243.689 637.845,245.94C635.031,248.192 630.903,248.379 628.839,245.565C626.776,242.751 623.586,240.499 620.772,240.875C617.958,241.25 618.52,270.143 618.52,270.143L613.037,295.732Z" style="fill:rgb(209,209,210);fill-rule:nonzero;"/>
            </g>
            <g transform="matrix(4.16667,0,0,4.16667,-114.82,-226.107)">
                <path d="M631.168,195.982L629.988,178.221L658.698,143.938L660.95,187.101L659.561,195.353C658.049,204.327 649.991,210.702 640.909,210.109L635.651,209.765C632.189,209.539 629.654,206.41 630.153,202.976L631.168,195.982Z" style="fill:rgb(235,192,156);fill-rule:nonzero;"/>
            </g>
            <g transform="matrix(4.16667,0,0,4.16667,-114.82,-226.107)">
                <path d="M660.043,170.899C657.726,175.731 650.735,185.32 643.567,190.124C638.436,193.563 633.88,193.538 630.964,192.918L629.988,178.221L641.628,164.322L659.287,155.22L660.043,170.899Z" style="fill:rgb(208,159,118);fill-rule:nonzero;"/>
            </g>
            <g transform="matrix(4.16667,0,0,4.16667,-114.82,-226.107)">
                <path d="M687.534,81.393C693.814,87.642 693.84,97.799 687.591,104.079C686.982,104.691 686.327,105.226 685.651,105.719C686.387,105.51 687.249,105.218 688.14,104.813C690.553,103.718 692.008,101.812 692.008,101.812C692.008,101.812 690.078,108.008 684.202,110.102C680.172,111.537 681.342,109.164 682.475,107.531C676.651,109.996 669.666,108.873 664.906,104.136C658.625,97.888 658.599,87.731 664.848,81.451C671.097,75.17 681.254,75.145 687.534,81.393Z" style="fill:rgb(139,55,48);fill-rule:nonzero;"/>
            </g>
            <g transform="matrix(4.16667,0,0,4.16667,-114.82,-226.107)">
                <path d="M595.836,242.68L611.233,254.197C611.794,254.617 611.921,255.399 611.519,255.966L608.118,260.759C607.692,261.359 606.844,261.482 606.257,261.027L590.801,249.063C590.232,248.622 590.13,247.809 590.575,247.251L594.034,242.905C594.47,242.357 595.27,242.257 595.836,242.68Z" style="fill:white;fill-rule:nonzero;"/>
            </g>
            <g transform="matrix(4.16667,0,0,4.16667,-114.82,-226.107)">
                <path d="M592.444,250.343L580.153,210.948C578.822,206.68 574.283,204.3 570.015,205.632C565.748,206.963 563.367,211.502 564.699,215.77L579.885,264.441C581.402,269.286 585.655,272.665 590.718,273.048C591.037,273.072 591.354,273.084 591.669,273.084C596.364,273.084 600.633,270.445 602.723,266.172L605.636,260.216L592.444,250.343Z" style="fill:rgb(235,192,156);fill-rule:nonzero;"/>
            </g>
            <g transform="matrix(4.16667,0,0,4.16667,-114.82,-226.107)">
                <path d="M687.859,95.203C689.851,92.195 690.892,89.667 691.438,87.731C693.271,93.288 692.001,99.647 687.591,104.079C686.982,104.691 686.327,105.226 685.651,105.719C686.387,105.51 687.249,105.218 688.14,104.813C690.553,103.718 692.008,101.812 692.008,101.812C692.008,101.812 690.078,108.008 684.202,110.102C680.172,111.537 681.342,109.164 682.475,107.531C681.049,108.135 679.553,108.52 678.037,108.693C677.74,104.923 678.384,101.863 678.384,101.863C678.384,101.863 683.074,102.426 687.859,95.203Z" style="fill:rgb(115,45,38);fill-rule:nonzero;"/>
            </g>
            <g transform="matrix(4.16667,0,0,4.16667,-114.82,-226.107)">
                <path d="M664.848,81.451C670.713,75.556 680.02,75.173 686.334,80.314C686.353,81.663 686.123,83.969 685.076,85.134C681.198,89.45 672.067,89.262 672.067,89.262C672.067,89.262 674.819,90.763 677.071,90.763C679.322,90.763 681.448,90.513 681.448,90.513C681.448,90.513 677.321,93.64 670.191,92.889C667.457,92.601 663.492,92.9 660.191,92.533C660.248,88.519 661.793,84.522 664.848,81.451Z" style="fill:rgb(161,63,54);fill-rule:nonzero;"/>
            </g>
            <g transform="matrix(4.16667,0,0,4.16667,-114.82,-226.107)">
                <path d="M668.14,90.603C668.14,90.603 686.189,99.163 687.402,125.062C688.465,147.764 667.21,157.976 667.21,157.976L663.637,101.797L668.14,90.603Z" style="fill:rgb(186,74,63);fill-rule:nonzero;"/>
            </g>
            <g transform="matrix(4.16667,0,0,4.16667,-114.82,-226.107)">
                <path d="M628.365,187.101C648.69,187.101 667.601,168.176 668.476,151.141L668.14,90.603L667.389,89.29L619.984,88.477L604.974,110.09C604.974,110.09 594.19,117.672 600.847,153.58C604.046,170.832 610.819,187.101 628.365,187.101Z" style="fill:rgb(235,192,156);fill-rule:nonzero;"/>
            </g>
            <g transform="matrix(4.16667,0,0,4.16667,-114.82,-226.107)">
                <path d="M674.213,79.163C674.213,79.163 676.961,78.667 678.928,79.74C680.895,80.813 679.721,83.502 677.253,85.12C674.784,86.737 670.349,86.06 669.553,83.581C668.757,81.102 672.745,79.277 674.213,79.163Z" style="fill:rgb(186,74,63);fill-rule:nonzero;"/>
            </g>
            <g transform="matrix(4.16667,0,0,4.16667,-114.82,-226.107)">
                <path d="M633.089,140.875C633.089,142.892 634.724,144.528 636.741,144.528C638.759,144.528 640.394,142.892 640.394,140.875C640.394,138.857 638.759,137.222 636.741,137.222C634.724,137.222 633.089,138.857 633.089,140.875Z" style="fill:rgb(139,55,48);fill-rule:nonzero;"/>
            </g>
            <g transform="matrix(4.16667,0,0,4.16667,-114.82,-226.107)">
                <path d="M604.843,140.875C604.843,142.892 606.478,144.528 608.496,144.528C610.513,144.528 612.148,142.892 612.148,140.875C612.148,138.857 610.513,137.222 608.496,137.222C606.478,137.222 604.843,138.857 604.843,140.875Z" style="fill:rgb(139,55,48);fill-rule:nonzero;"/>
            </g>
            <g transform="matrix(4.16667,0,0,4.16667,-114.82,-226.107)">
                <path d="M608.189,139.78C608.189,140.554 608.816,141.182 609.59,141.182C610.364,141.182 610.991,140.554 610.991,139.78C610.991,139.006 610.364,138.379 609.59,138.379C608.816,138.379 608.189,139.006 608.189,139.78Z" style="fill:white;fill-rule:nonzero;"/>
            </g>
            <g transform="matrix(4.16667,0,0,4.16667,-114.82,-226.107)">
                <path d="M630.437,123.115C630.437,123.115 630.525,122.837 630.761,122.383C630.999,121.932 631.386,121.299 632,120.647C632.31,120.325 632.662,119.982 633.087,119.679C633.51,119.377 633.979,119.066 634.518,118.85C634.785,118.734 635.059,118.622 635.351,118.546C635.638,118.452 635.934,118.374 636.242,118.342C636.546,118.285 636.855,118.262 637.167,118.261C637.334,118.257 637.453,118.247 637.661,118.25L638.086,118.276C638.636,118.3 639.245,118.406 639.845,118.512C640.427,118.638 640.985,118.807 641.512,119.02C642.041,119.22 642.533,119.473 642.969,119.757C643.414,120.024 643.8,120.335 644.125,120.648C644.789,121.263 645.2,121.901 645.429,122.361C645.658,122.826 645.713,123.115 645.713,123.115C645.713,123.115 644.998,122.166 643.597,121.339C643.249,121.133 642.86,120.933 642.438,120.754C642.018,120.569 641.557,120.418 641.079,120.277C640.603,120.127 640.086,120.05 639.576,119.94C639.072,119.865 638.558,119.795 637.971,119.768L637.547,119.729L637.192,119.731C636.936,119.723 636.684,119.732 636.436,119.774C635.936,119.816 635.446,119.92 634.986,120.074C634.058,120.365 633.234,120.825 632.558,121.287C631.885,121.754 631.356,122.22 630.995,122.559C630.632,122.899 630.437,123.115 630.437,123.115Z" style="fill:rgb(139,55,48);fill-rule:nonzero;"/>
            </g>
            <g transform="matrix(4.16667,0,0,4.16667,-114.82,-226.107)">
                <path d="M614.37,123.115C614.37,123.115 613.697,122.245 612.491,121.314C612.191,121.08 611.842,120.869 611.483,120.647C611.113,120.439 610.709,120.262 610.288,120.107C609.864,119.958 609.417,119.846 608.954,119.792C608.503,119.717 608.001,119.713 607.563,119.731C607.04,119.792 606.487,119.79 606.043,119.88C605.578,119.937 605.106,120.047 604.663,120.151C603.78,120.387 603.011,120.737 602.423,121.167C602.135,121.385 601.878,121.609 601.676,121.835C601.468,122.058 601.313,122.28 601.19,122.47C600.946,122.853 600.858,123.115 600.858,123.115C600.858,123.115 600.808,122.842 600.899,122.359C600.987,121.883 601.237,121.185 601.808,120.52C602.086,120.182 602.445,119.871 602.856,119.584C603.062,119.445 603.284,119.321 603.511,119.188C603.743,119.07 603.99,118.979 604.238,118.871C604.741,118.686 605.261,118.513 605.829,118.435C606.408,118.321 606.915,118.276 607.447,118.25C608.066,118.239 608.624,118.268 609.2,118.377C609.764,118.499 610.301,118.689 610.794,118.919C611.286,119.154 611.713,119.459 612.1,119.757C612.481,120.064 612.794,120.402 613.066,120.719C613.603,121.364 613.927,121.976 614.119,122.411C614.309,122.851 614.37,123.115 614.37,123.115Z" style="fill:rgb(139,55,48);fill-rule:nonzero;"/>
            </g>
            <g transform="matrix(4.16667,0,0,4.16667,-114.82,-226.107)">
                <path d="M636.741,140.875C636.741,140.875 637.227,140.758 637.956,140.584C638.3,140.496 638.682,140.391 639.07,140.265C639.453,140.127 639.852,139.996 640.215,139.802C640.409,139.726 640.578,139.613 640.757,139.515C640.942,139.426 641.09,139.289 641.264,139.189C641.435,139.086 641.575,138.949 641.734,138.841C641.891,138.731 642.015,138.596 642.152,138.485C642.274,138.365 642.423,138.272 642.519,138.162C642.619,138.055 642.722,137.967 642.804,137.89C642.973,137.74 643.086,137.654 643.086,137.654C643.086,137.654 643.092,137.786 643.074,138.018C643.053,138.248 643.03,138.592 642.871,138.96C642.798,139.147 642.735,139.366 642.597,139.555C642.466,139.748 642.356,139.982 642.17,140.165C641.986,140.347 641.815,140.567 641.58,140.715C641.36,140.883 641.124,141.038 640.868,141.153C639.849,141.665 638.7,141.65 637.939,141.442C637.161,141.249 636.741,140.875 636.741,140.875Z" style="fill:rgb(139,55,48);fill-rule:nonzero;"/>
            </g>
            <g transform="matrix(4.16667,0,0,4.16667,-114.82,-226.107)">
                <path d="M636.434,139.78C636.434,140.554 637.062,141.182 637.836,141.182C638.61,141.182 639.237,140.554 639.237,139.78C639.237,139.006 638.61,138.379 637.836,138.379C637.062,138.379 636.434,139.006 636.434,139.78Z" style="fill:white;fill-rule:nonzero;"/>
            </g>
            <g transform="matrix(4.16667,0,0,4.16667,-114.82,-226.107)">
                <path d="M608.496,140.875C608.496,140.875 608.076,141.249 607.298,141.442C606.537,141.65 605.388,141.665 604.369,141.153C604.113,141.038 603.877,140.883 603.657,140.715C603.422,140.567 603.25,140.347 603.067,140.165C602.881,139.982 602.77,139.748 602.64,139.555C602.502,139.366 602.439,139.147 602.366,138.96C602.207,138.592 602.184,138.248 602.163,138.018C602.145,137.786 602.151,137.654 602.151,137.654C602.151,137.654 602.264,137.74 602.433,137.89C602.515,137.967 602.618,138.055 602.718,138.162C602.814,138.272 602.963,138.365 603.085,138.485C603.222,138.596 603.346,138.731 603.503,138.841C603.662,138.949 603.801,139.086 603.973,139.189C604.147,139.289 604.295,139.426 604.48,139.515C604.659,139.613 604.828,139.726 605.022,139.802C605.385,139.996 605.784,140.127 606.167,140.265C606.555,140.391 606.937,140.496 607.281,140.584C608.01,140.758 608.496,140.875 608.496,140.875Z" style="fill:rgb(139,55,48);fill-rule:nonzero;"/>
            </g>
            <g transform="matrix(4.16667,0,0,4.16667,-114.82,-226.107)">
                <path d="M615.894,201.85L606.867,233.886C606.056,236.761 605.867,239.776 606.311,242.73L607.911,253.371L611.843,251.194L615.894,201.85Z" style="fill:rgb(66,66,67);fill-rule:nonzero;"/>
            </g>
            <g transform="matrix(4.16667,0,0,4.16667,-114.82,-226.107)">
                <path d="M659.059,145.547C658.559,129.537 651.054,116.529 651.054,116.529C651.054,116.529 658.216,112.887 668.289,117.527L668.476,151.141C667.703,166.191 652.852,182.705 635.387,186.353C648.98,177.787 659.555,161.423 659.059,145.547Z" style="fill:rgb(223,178,139);fill-rule:nonzero;"/>
            </g>
            <g transform="matrix(4.16667,0,0,4.16667,-114.82,-226.107)">
                <path d="M668.14,90.603C668.14,90.603 645.876,103.549 645.125,109.302C644.375,115.056 654.882,116.807 660.635,124.562C666.389,132.317 668.515,140.388 668.515,140.388L670.767,110.09L668.14,90.603Z" style="fill:rgb(186,74,63);fill-rule:nonzero;"/>
            </g>
            <g transform="matrix(4.16667,0,0,4.16667,-114.82,-226.107)">
                <path d="M653.781,96.954C647.49,101.238 643.124,106.801 643.124,106.801C643.124,106.801 631.793,103.349 621.761,104.262C611.729,105.175 604.974,110.09 604.974,110.09C604.974,110.09 595.782,97.858 613.605,86.47C627.804,77.398 641.873,76.468 652.38,78.626C662.887,80.785 667.389,89.29 667.389,89.29C667.389,89.29 662.687,90.888 653.781,96.954Z" style="fill:rgb(186,74,63);fill-rule:nonzero;"/>
            </g>
            <g transform="matrix(4.16667,0,0,4.16667,-114.82,-226.107)">
                <path d="M664.534,115.904C665.031,115.766 665.516,115.606 665.987,115.423L666.022,115.41C666.495,115.225 666.953,115.015 667.389,114.778C667.751,114.58 668.091,114.38 668.419,114.179C668.544,114.102 668.663,114.025 668.784,113.947C668.972,113.827 669.155,113.706 669.332,113.586C669.476,113.487 669.618,113.388 669.755,113.289C669.884,113.196 670.007,113.103 670.13,113.009C670.28,112.895 670.433,112.781 670.575,112.667C674.166,109.77 674.819,107.023 674.819,107.023C674.819,107.023 675.069,110.65 673.819,113.902C672.568,117.154 671.442,118.405 671.442,118.405C671.442,118.405 677.446,121.157 680.948,118.405C683.281,116.572 683.89,112.413 684.002,109.06C685.8,113.446 687.106,118.733 687.402,125.062C688.465,147.764 667.21,157.975 667.21,157.975L665.615,132.89C664.402,130.355 662.769,127.437 660.635,124.562C657.639,120.524 653.356,118.114 650.043,115.919C650.043,115.919 658.174,117.674 664.534,115.904Z" style="fill:rgb(161,63,54);fill-rule:nonzero;"/>
            </g>
            <g transform="matrix(4.16667,0,0,4.16667,-114.82,-226.107)">
                <path d="M645.031,260.105L641.32,295.732L676.35,295.732L672.77,279.159L684.538,218.83C686.289,209.853 682.364,200.72 674.647,195.812L660.95,187.101L649.665,215.609L648.814,223.784L644.015,240.813C643.205,243.689 643.015,246.703 643.46,249.658L645.031,260.105Z" style="fill:rgb(66,66,67);fill-rule:nonzero;"/>
            </g>
            <g transform="matrix(4.16667,0,0,4.16667,-114.82,-226.107)">
                <path d="M674.668,295.732L668.427,276.522L668.427,259.449L659.671,256.259C659.671,256.259 655.794,256.384 655.169,254.508C654.543,252.632 654.043,244.502 654.043,244.502L648.164,262.013L641.978,289.413L641.32,295.732L674.668,295.732Z" style="fill:rgb(52,53,53);fill-rule:nonzero;"/>
            </g>
            <g transform="matrix(4.16667,0,0,4.16667,-114.82,-226.107)">
                <path d="M643.202,281.359C643.156,281.277 643.043,281.073 642.879,280.766L645.031,260.105L643.46,249.657C643.015,246.703 643.205,243.688 644.015,240.813L648.707,224.162L654.966,220.053L657.032,233.12L655.09,239.91C653.582,245.365 651.769,252.41 651.917,254.258C652.167,257.385 652.667,267.543 650.666,272.158C648.664,276.772 641.978,289.413 641.978,289.413L643.202,281.359Z" style="fill:rgb(26,27,27);fill-rule:nonzero;"/>
            </g>
            <g transform="matrix(4.16667,0,0,4.16667,-114.82,-226.107)">
                <path d="M616.691,295.732L622.347,256.762L621.008,247.858C620.564,244.904 620.753,241.889 621.563,239.014L628.49,214.432L631.168,195.982L630.84,191.054L615.894,201.85L604.459,275.653L601.156,295.732L616.691,295.732Z" style="fill:rgb(66,66,67);fill-rule:nonzero;"/>
            </g>
            <g transform="matrix(4.16667,0,0,4.16667,-114.82,-226.107)">
                <path d="M615.018,242.626C615.018,242.626 613.267,243.251 610.64,243.126C608.014,243.001 606.888,242 606.888,242C606.888,242 609.139,251.256 608.764,253.383C608.389,255.509 606.388,265.015 606.388,265.015L604.261,280.275L618.896,281.4L619.552,266.766L615.018,242.626Z" style="fill:rgb(52,53,53);fill-rule:nonzero;"/>
            </g>
            <g transform="matrix(4.16667,0,0,4.16667,-114.82,-226.107)">
                <path d="M615.894,229.868L623.595,217.337L625.748,224.162L621.563,239.014C620.753,241.889 620.564,244.904 621.008,247.858L622.347,256.762L620.113,272.158C620.112,272.157 616.519,257.885 614.77,249.755C613.021,241.625 615.894,229.868 615.894,229.868Z" style="fill:rgb(26,27,27);fill-rule:nonzero;"/>
            </g>
            <g transform="matrix(4.16667,0,0,4.16667,-114.82,-226.107)">
                <path d="M665.356,190.088L657.545,218.36L648.707,224.162L649.665,215.609L660.95,187.101L665.356,190.088Z" style="fill:rgb(40,40,40);fill-rule:nonzero;"/>
            </g>
            <g transform="matrix(4.16667,0,0,4.16667,-114.82,-226.107)">
                <path d="M628.283,192.901L622.773,214.733L625.748,224.162L628.49,214.432L631.168,195.982L630.84,191.054L628.283,192.901Z" style="fill:rgb(40,40,40);fill-rule:nonzero;"/>
            </g>
            <g transform="matrix(4.16667,0,0,4.16667,-114.82,-226.107)">
                <path d="M667.036,152.283L666.491,135.613C667.343,135.336 668.251,135.182 669.196,135.182C674.032,135.182 677.952,139.102 677.952,143.938C677.952,148.773 674.032,152.694 669.196,152.694C668.413,152.694 667.658,152.581 666.936,152.388L667.036,152.283Z" style="fill:rgb(235,192,156);fill-rule:nonzero;"/>
            </g>
            <g transform="matrix(4.16667,0,0,4.16667,-114.82,-226.107)">
                <path d="M661.685,126.038L661.686,126.038C664.27,130.546 665.786,135.587 666.116,140.773L666.355,144.528L669.711,124.289L661.685,126.038Z" style="fill:rgb(161,63,54);fill-rule:nonzero;"/>
            </g>
            <g transform="matrix(4.16667,0,0,4.16667,-114.82,-226.107)">
                <path d="M655.988,106.414C655.988,106.414 657.037,102.749 661.926,100.191C666.814,97.633 669.996,97.503 672.033,99.044C674.331,100.784 669.416,108.518 663.323,110.057C657.953,111.414 655.047,109.855 655.988,106.414Z" style="fill:rgb(212,83,69);fill-rule:nonzero;"/>
            </g>
            <g transform="matrix(4.16667,0,0,4.16667,-114.82,-226.107)">
                <path d="M622.747,84.715C622.747,84.715 625.658,81.254 631.859,80.647C638.06,80.04 641.317,81.285 642.578,83.821C644,86.681 635.147,92.812 628.255,91.805C622.181,90.917 620.057,87.986 622.747,84.715Z" style="fill:rgb(212,83,69);fill-rule:nonzero;"/>
            </g>
            <g transform="matrix(4.16667,0,0,4.16667,-114.82,-226.107)">
                <path d="M604.4,98.043C607.151,92.314 615.156,87.386 615.156,87.386C615.156,87.386 610.153,93.64 615.156,95.141C620.16,96.642 641.173,97.142 647.802,90.763C654.431,84.384 649.803,80.882 649.803,80.882C649.803,80.882 654.681,81.507 659.434,83.884C662.78,85.556 665.005,88.339 666.032,89.843C664.047,90.721 659.909,92.779 653.781,96.954C647.49,101.238 643.124,106.801 643.124,106.801C643.124,106.801 631.793,103.349 621.761,104.262C611.729,105.175 604.974,110.09 604.974,110.09C604.974,110.09 602.927,107.361 602.64,103.283C602.977,101.672 603.522,99.87 604.4,98.043Z" style="fill:rgb(161,63,54);fill-rule:nonzero;"/>
            </g>
            <g transform="matrix(4.16667,0,0,4.16667,-114.82,-226.107)">
                <path d="M651.556,288.834L667.828,286.041L668.527,290.109L660.755,293.632L652.238,292.81L651.556,288.834Z" style="fill:rgb(26,27,27);fill-rule:nonzero;"/>
            </g>
            <g transform="matrix(4.16667,0,0,4.16667,-114.82,-226.107)">
                <path d="M625.911,178.752C620.1,178.752 615.388,174.04 615.388,168.229L615.388,159.233C615.388,158.538 615.951,157.976 616.646,157.976L635.177,157.976C635.872,157.976 636.434,158.538 636.434,159.233L636.434,168.229C636.434,174.04 631.723,178.752 625.911,178.752Z" style="fill:rgb(227,64,62);fill-rule:nonzero;"/>
            </g>
            <g transform="matrix(4.16667,0,0,4.16667,-114.82,-226.107)">
                <path d="M633.591,163.128L618.187,163.128C616.917,163.128 615.887,162.099 615.887,160.829L615.887,160.073C615.887,159.247 616.557,158.577 617.383,158.577L634.396,158.577C635.221,158.577 635.891,159.247 635.891,160.073L635.891,160.829C635.891,162.099 634.861,163.128 633.591,163.128Z" style="fill:white;fill-rule:nonzero;"/>
            </g>
            <g transform="matrix(4.16667,0,0,4.16667,-114.82,-226.107)">
                <path d="M625.889,167.44C621.808,167.44 618.304,169.888 616.748,173.393C618.554,176.59 621.978,178.752 625.911,178.752C629.828,178.752 633.237,176.608 635.049,173.434C633.504,169.907 629.987,167.44 625.889,167.44Z" style="fill:rgb(241,100,98);fill-rule:nonzero;"/>
            </g>
            <g transform="matrix(4.16667,0,0,4.16667,-114.82,-226.107)">
                <path d="M605.636,260.216L600.194,256.142C598.74,256.824 596.356,257.742 593.099,258.343C587.366,259.402 582.757,257.266 580.733,255.243C578.709,253.219 566.036,220.053 566.036,220.053L579.885,264.441C581.402,269.286 585.655,272.665 590.718,273.048C591.037,273.072 591.354,273.084 591.669,273.084C596.364,273.084 600.633,270.445 602.723,266.172L605.636,260.216Z" style="fill:rgb(223,178,139);fill-rule:nonzero;"/>
            </g>
            <g transform="matrix(4.16667,0,0,4.16667,-114.82,-226.107)">
                <path d="M678.811,205.632C674.511,204.41 670.035,206.905 668.813,211.205L655.294,258.782L670.177,265.223C670.434,264.565 670.67,263.896 670.866,263.206L684.385,215.63C685.607,211.33 683.111,206.854 678.811,205.632Z" style="fill:rgb(40,40,40);fill-rule:nonzero;"/>
            </g>
            <g transform="matrix(4.16667,0,0,4.16667,-114.82,-226.107)">
                <path d="M583.156,263.497C581.918,264.668 581.171,265.665 580.716,266.444C582.228,269.368 584.824,271.546 587.949,272.519C588.116,272.275 588.28,271.976 588.44,271.591C589.845,268.219 589.307,260.141 589.307,260.141C589.307,260.141 586.247,260.574 583.156,263.497Z" style="fill:rgb(208,159,118);fill-rule:nonzero;"/>
            </g>
            <g transform="matrix(4.16667,0,0,4.16667,-114.82,-226.107)">
                <path d="M648.846,263.336L592.477,259.713C588.016,259.426 584.167,262.81 583.881,267.272C583.594,271.733 586.978,275.582 591.439,275.868L647.808,279.491C648.284,279.522 648.758,279.537 649.231,279.537C658.453,279.537 666.831,273.772 670.177,265.223L655.294,258.782C654.491,261.609 651.791,263.518 648.846,263.336Z" style="fill:rgb(235,192,156);fill-rule:nonzero;"/>
            </g>
            <g transform="matrix(4.16667,0,0,4.16667,-114.82,-226.107)">
                <path d="M649.231,279.537C658.453,279.537 666.831,273.772 670.177,265.223L659.095,260.427C659.388,261.357 659.684,263.141 659.15,265.997C658.303,270.532 651.922,272.382 645.874,272.158C640.162,271.945 590.851,273.567 586.208,262.105C584.883,263.444 584.011,265.244 583.881,267.272C583.594,271.733 586.978,275.582 591.439,275.868L647.808,279.491C648.284,279.522 648.758,279.537 649.231,279.537Z" style="fill:rgb(223,178,139);fill-rule:nonzero;"/>
            </g>
            <g transform="matrix(4.16667,0,0,4.16667,-114.82,-226.107)">
                <path d="M656.433,250.786L674.248,258.023C674.897,258.287 675.218,259.012 674.973,259.662L672.899,265.16C672.639,265.849 671.849,266.183 671.166,265.892L653.182,258.237C652.519,257.955 652.215,257.195 652.504,256.542L654.747,251.461C655.03,250.82 655.779,250.521 656.433,250.786Z" style="fill:white;fill-rule:nonzero;"/>
            </g>
            <g transform="matrix(4.16667,0,0,4.16667,-114.82,-226.107)">
                <path d="M575.349,212.386C574.177,211.757 573.737,210.297 574.366,209.125L578.36,201.68C578.989,200.508 580.449,200.068 581.621,200.697C582.793,201.326 583.233,202.786 582.605,203.958L578.61,211.403C577.981,212.575 576.521,213.015 575.349,212.386Z" style="fill:rgb(235,192,156);fill-rule:nonzero;"/>
            </g>
            <g transform="matrix(4.16667,0,0,4.16667,-114.82,-226.107)">
                <path d="M573.088,205.74C573.088,205.74 574.138,200.269 573.538,196.896C572.938,193.524 569.641,191.079 568.292,193.238C566.943,195.397 569.416,196.372 569.641,199.444C569.866,202.517 567.891,208.663 567.891,208.663L573.088,205.74Z" style="fill:rgb(235,192,156);fill-rule:nonzero;"/>
            </g>
            <g transform="matrix(4.16667,0,0,4.16667,-114.82,-226.107)">
                <path d="M683.208,214.419C682.407,217.152 679.138,218.599 675.907,217.651C672.675,216.704 670.704,213.721 671.505,210.989C672.306,208.257 675.575,206.81 678.807,207.757C682.038,208.704 684.009,211.687 683.208,214.419Z" style="fill:rgb(93,94,94);fill-rule:nonzero;"/>
            </g>
            <g transform="matrix(4.16667,0,0,4.16667,-114.82,-226.107)">
                <path d="M573.255,223.189C570.513,223.958 567.439,221.543 566.389,217.797C565.339,214.05 566.709,210.389 569.451,209.621C572.192,208.852 575.266,211.266 576.317,215.013C577.367,218.76 575.996,222.421 573.255,223.189Z" style="fill:rgb(241,208,181);fill-rule:nonzero;"/>
            </g>
            <g transform="matrix(4.16667,0,0,4.16667,-114.82,-226.107)">
                <path d="M621.701,265.4C621.576,266.943 614.908,267.661 606.807,267.005C598.707,266.348 592.242,264.565 592.367,263.023C592.492,261.48 599.16,260.761 607.26,261.418C615.361,262.074 621.826,263.857 621.701,265.4Z" style="fill:rgb(241,208,181);fill-rule:nonzero;"/>
            </g>
            <g transform="matrix(4.16667,0,0,4.16667,-114.82,-226.107)">
                <path d="M691.118,295.732L457.04,295.732C455.583,295.732 454.401,294.55 454.401,293.093L454.401,282.52C454.401,281.063 455.583,279.881 457.04,279.881L691.118,279.881C692.576,279.881 693.758,281.063 693.758,282.52L693.758,293.093C693.758,294.55 692.576,295.732 691.118,295.732Z" style="fill:rgb(167,68,41);fill-rule:nonzero;"/>
            </g>
            <g transform="matrix(4.16667,0,0,4.16667,-114.82,-226.107)">
                <path d="M576.032,187.659C575.101,187.685 574.325,186.952 574.299,186.021L573.983,175.016C573.957,174.085 574.69,173.309 575.621,173.282C576.552,173.255 577.328,173.988 577.354,174.919L577.67,185.925C577.696,186.856 576.963,187.632 576.032,187.659Z" style="fill:rgb(246,224,65);fill-rule:nonzero;"/>
            </g>
            <g transform="matrix(4.16667,0,0,4.16667,-114.82,-226.107)">
                <path d="M585.308,192.261C585.849,193.018 586.903,193.193 587.66,192.651L596.614,186.244C597.372,185.702 597.547,184.649 597.005,183.892C596.463,183.134 595.409,182.96 594.652,183.501L585.698,189.908C584.94,190.45 584.766,191.503 585.308,192.261Z" style="fill:rgb(246,224,65);fill-rule:nonzero;"/>
            </g>
            <g transform="matrix(4.16667,0,0,4.16667,-114.82,-226.107)">
                <path d="M581.927,187.634C581.095,187.216 580.76,186.203 581.178,185.37L586.122,175.533C586.54,174.701 587.554,174.366 588.386,174.784C589.218,175.202 589.554,176.216 589.136,177.048L584.191,186.885C583.773,187.717 582.759,188.053 581.927,187.634Z" style="fill:rgb(246,224,65);fill-rule:nonzero;"/>
            </g>
        </g>
        <g id="thinking" transform="matrix(4.16667,0,0,4.16667,-255.373,-240.802)">
            <path d="M189.377,266.846L165.047,219.503L186.712,219.503C189.312,219.503 191.63,221.141 192.499,223.592L194.724,229.871C191.208,240.253 189.301,251.38 189.301,262.949C189.301,264.254 189.327,265.553 189.377,266.846ZM226.753,183.461C227.423,174.15 230.736,171.19 230.736,171.19L230.709,171.161L230.659,171.105L230.632,171.075L230.54,170.966L230.511,170.932L230.391,170.783L230.35,170.732L230.206,170.545L230.156,170.478L229.989,170.247L229.938,170.175C229.878,170.089 229.816,169.997 229.753,169.902L229.697,169.817C229.632,169.719 229.567,169.615 229.5,169.506L229.443,169.412C229.375,169.3 229.306,169.183 229.237,169.061L229.18,168.959C229.11,168.834 229.041,168.704 228.971,168.57L228.914,168.458C228.844,168.321 228.776,168.18 228.707,168.034L228.651,167.911C228.583,167.762 228.517,167.61 228.451,167.452L228.399,167.323C228.334,167.161 228.27,166.997 228.209,166.826L228.164,166.697C228.103,166.521 228.043,166.343 227.986,166.158L227.951,166.036C227.895,165.844 227.84,165.65 227.79,165.45L227.769,165.354C227.717,165.14 227.669,164.924 227.626,164.701C226.778,160.21 227.918,153.79 236.564,146.727C248.013,137.373 260.091,134.257 270.098,134.257C271.496,134.257 272.855,134.318 274.164,134.431C278.852,134.836 282.533,136.588 285.19,138.428C285.296,138.22 285.423,138.02 285.538,137.816C285.672,137.581 285.793,137.341 285.94,137.111C286.227,136.659 286.538,136.217 286.876,135.788C287.209,135.365 287.559,134.966 287.924,134.586C288.046,134.459 288.178,134.346 288.303,134.223C288.552,133.98 288.801,133.736 289.062,133.512C289.219,133.378 289.386,133.257 289.548,133.129C289.789,132.938 290.03,132.745 290.281,132.569C290.46,132.443 290.646,132.331 290.829,132.214C291.074,132.057 291.318,131.898 291.57,131.756C291.765,131.645 291.965,131.547 292.164,131.444C292.414,131.317 292.663,131.19 292.918,131.075C293.127,130.982 293.338,130.899 293.55,130.815C293.804,130.714 294.058,130.615 294.316,130.528C294.535,130.454 294.756,130.388 294.977,130.323C295.235,130.248 295.492,130.177 295.753,130.115C295.98,130.061 296.207,130.013 296.436,129.969C296.696,129.918 296.957,129.874 297.219,129.837C297.451,129.804 297.684,129.775 297.918,129.752C298.179,129.726 298.44,129.709 298.703,129.696C298.939,129.684 299.176,129.675 299.413,129.673C299.431,129.673 299.449,129.673 299.467,129.673C299.711,129.673 299.953,129.682 300.197,129.693C300.435,129.703 300.672,129.713 300.91,129.734C301.171,129.757 301.43,129.793 301.69,129.829C301.927,129.861 302.164,129.892 302.4,129.935C302.66,129.983 302.916,130.045 303.174,130.106C303.407,130.161 303.641,130.212 303.873,130.278C304.131,130.351 304.385,130.441 304.641,130.528C304.867,130.605 305.094,130.674 305.318,130.762C305.579,130.864 305.835,130.986 306.092,131.102C306.303,131.198 306.517,131.284 306.725,131.39C307.014,131.536 307.295,131.706 307.578,131.872C307.746,131.971 307.918,132.057 308.084,132.162C308.534,132.448 308.974,132.758 309.402,133.095C311.451,134.706 312.987,136.723 314.016,138.936L314.016,138.935L314.016,138.937C314.161,139.249 314.294,139.565 314.418,139.885L314.478,140.043C314.83,140.98 315.093,141.942 315.266,142.923C315.285,143.029 315.303,143.134 315.319,143.24C315.366,143.538 315.408,143.837 315.437,144.137C315.447,144.228 315.449,144.319 315.457,144.41C315.498,144.919 315.516,145.428 315.508,145.94C315.506,146.132 315.504,146.323 315.494,146.515C315.483,146.75 315.466,146.984 315.444,147.218C315.421,147.466 315.389,147.714 315.354,147.961C315.324,148.179 315.295,148.396 315.255,148.613C315.187,148.989 315.103,149.363 315.007,149.735C314.964,149.901 314.915,150.065 314.866,150.23C314.777,150.535 314.678,150.838 314.57,151.138C314.521,151.276 314.475,151.414 314.421,151.551C314.257,151.972 314.075,152.387 313.873,152.797C313.825,152.893 313.77,152.987 313.721,153.083C313.546,153.42 313.358,153.752 313.157,154.08C313.085,154.196 313.015,154.311 312.94,154.425C312.677,154.831 312.4,155.232 312.095,155.62C311.561,156.299 310.972,156.906 310.358,157.475C311.065,157.181 311.887,156.791 312.725,156.286C313.576,155.773 314.28,155.162 314.827,154.599C315.74,153.661 316.218,152.856 316.218,152.856C316.218,152.856 316.143,153.254 315.944,153.896C315.744,154.537 315.419,155.42 314.92,156.39C314.546,157.118 314.073,157.894 313.481,158.652C313.284,158.905 313.073,159.156 312.848,159.403C312.399,159.896 311.893,160.372 311.325,160.81C311.041,161.03 310.742,161.24 310.426,161.438C310.419,161.442 310.412,161.447 310.405,161.451C304.55,160.417 298.524,159.878 292.372,159.878C267.44,159.878 244.579,168.728 226.753,183.461Z" style="fill:rgb(21,88,141);fill-rule:nonzero;"/>
            <path d="M279.089,291.689L202.144,291.689L189.377,266.846C189.327,265.553 189.301,264.254 189.301,262.949C189.301,251.38 191.208,240.253 194.724,229.871L215.334,288.038L217.308,288.038C216.395,286.567 215.859,284.837 215.859,282.979C215.859,282.681 215.876,282.388 215.903,282.098C215.913,281.993 215.927,281.889 215.941,281.784C215.963,281.604 215.99,281.426 216.022,281.249C216.045,281.124 216.069,280.999 216.097,280.876C216.131,280.721 216.172,280.568 216.214,280.416C217.337,276.352 221.052,273.364 225.473,273.364L233.101,273.364C236.666,273.364 239.771,275.309 241.431,278.191L253.4,244.189C242.155,240.727 235.825,228.245 231.69,214.865C227.167,200.231 226.27,190.188 226.753,183.461C244.579,168.728 267.44,159.878 292.372,159.878C298.524,159.878 304.55,160.417 310.405,161.451C310.149,161.61 309.876,161.757 309.599,161.9C309.716,162.126 309.834,162.352 309.949,162.583L309.957,162.6C310.227,163.14 310.49,163.695 310.745,164.265L310.788,164.366C311.03,164.911 311.266,165.467 311.493,166.04L311.585,166.285C311.793,166.818 311.997,167.357 312.19,167.914C312.24,168.058 312.285,168.211 312.334,168.357C312.504,168.861 312.673,169.367 312.83,169.891C312.901,170.129 312.964,170.379 313.033,170.621C313.159,171.069 313.289,171.512 313.406,171.973C313.501,172.351 313.585,172.745 313.674,173.132C313.754,173.479 313.839,173.817 313.914,174.172C314.071,174.924 314.215,175.694 314.345,176.483C314.576,177.885 314.714,179.248 314.771,180.572C314.828,181.896 314.804,183.181 314.708,184.427C314.564,186.295 314.261,188.074 313.834,189.761C313.265,192.011 312.475,194.098 311.55,196.016C311.088,196.976 310.591,197.893 310.072,198.767C307.644,202.855 304.714,206.001 302.359,208.149C303.482,208.671 304.762,209.366 305.753,210.183C308.783,212.682 309.288,216.999 309.288,216.999C309.288,216.999 306.174,212.232 303.004,211.018C301.778,210.549 300.661,210.378 299.757,210.34L299.756,210.34C300.412,210.678 301.561,211.405 302.41,212.71C303.755,214.779 303.828,217.411 303.828,217.411C303.828,217.411 302.268,214.236 300.901,213.113C299.954,212.336 298.936,211.673 298.393,211.334C298.217,211.454 298.114,211.52 298.114,211.52L298.113,211.511C298.06,211.789 298.001,212.066 297.941,212.344C297.893,212.566 297.846,212.788 297.793,213.01C297.721,213.312 297.642,213.613 297.561,213.915L298.303,218.276L312.919,225.336C319.301,228.418 323.701,234.289 325.041,241.018L283.339,287.003L279.089,291.689Z" style="fill:rgb(21,88,141);fill-rule:nonzero;"/>
            <path d="M236.047,281.51L254.751,228.376L239.48,223.001L221.797,273.237L236.047,281.51Z" style="fill:rgb(52,53,53);fill-rule:nonzero;"/>
            <path d="M290.229,293.394L282.491,202.464L253.942,214.745L241.84,238.44L241.643,293.862L290.229,293.394Z" style="fill:white;fill-rule:nonzero;"/>
            <path d="M249.466,295.474L282.858,295.474L281.322,270.215L271.817,261.631C271.817,261.631 268.913,261.026 266.379,263.589C263.846,266.152 259.768,266.818 257.39,264.263C255.014,261.707 251.585,259.842 248.833,260.541C246.081,261.241 249.998,289.873 249.998,289.873L249.466,295.474Z" style="fill:rgb(209,209,210);fill-rule:nonzero;"/>
            <path d="M253.942,214.745L250.707,197.241L275.239,159.854L282.491,202.464L282.07,210.821C281.611,219.91 274.349,227.178 265.259,227.644L259.996,227.914C256.531,228.092 253.651,225.278 253.747,221.81L253.942,214.745Z" style="fill:rgb(235,192,156);fill-rule:nonzero;"/>
            <path d="M279.707,186.476C277.968,191.545 272.138,201.882 265.577,207.486C260.88,211.498 256.351,212.003 253.384,211.725L250.707,197.241L260.653,182.083L277.135,170.992L279.707,186.476Z" style="fill:rgb(208,159,118);fill-rule:nonzero;"/>
            <path d="M224.275,265.232L240.907,274.882C241.513,275.234 241.73,275.996 241.396,276.606L238.576,281.762C238.222,282.407 237.394,282.627 236.758,282.244L220.016,272.156C219.4,271.785 219.205,270.99 219.582,270.383L222.512,265.665C222.881,265.07 223.665,264.877 224.275,265.232Z" style="fill:white;fill-rule:nonzero;"/>
            <path d="M239.454,222.348L234.21,255.216C233.739,258.166 233.902,261.182 234.686,264.064L237.512,274.448L241.163,271.828L239.454,222.348Z" style="fill:rgb(66,66,67);fill-rule:nonzero;"/>
            <path d="M275.162,276.822L275.399,295.474L305.935,295.474L304.928,292.525L309.606,231.236C310.302,222.117 305.342,213.502 297.107,209.524L282.491,202.464L274.595,232.089L274.699,240.308L271.912,257.78C271.441,260.73 271.603,263.746 272.388,266.629L275.162,276.822Z" style="fill:rgb(66,66,67);fill-rule:nonzero;"/>
            <path d="M302.634,295.474L300.307,290.41L307.829,228.658L285.607,257.552C285.607,257.552 285.42,271.877 284.581,270.086C283.742,268.295 282.3,260.278 282.3,260.278L278.496,278.354L276.682,295.474L302.634,295.474Z" style="fill:rgb(52,53,53);fill-rule:nonzero;"/>
            <path d="M275.162,276.822L275.399,295.474L279.618,295.474C280.668,292.609 281.646,289.841 282.159,288.139C283.611,283.323 281.934,273.292 281.322,270.215C280.96,268.397 281.943,261.189 282.807,255.595L283.946,248.626L280.376,235.888L274.637,240.696L271.912,257.78C271.441,260.73 271.603,263.746 272.388,266.628L275.162,276.822Z" style="fill:rgb(26,27,27);fill-rule:nonzero;"/>
            <path d="M251.709,295.474L252.244,276.138L249.879,267.45C249.095,264.568 248.932,261.551 249.403,258.601L253.427,233.381L253.942,214.745L253.044,209.888L239.454,222.348L236.728,295.474L251.709,295.474Z" style="fill:rgb(66,66,67);fill-rule:nonzero;"/>
            <path d="M238.36,274.36C238.235,276.515 237.351,286.19 237.351,286.19L237.147,295.474L251.281,295.474L250.63,286.399L243.322,262.949C243.322,262.949 241.655,263.774 239.032,263.955C236.409,264.136 235.174,263.273 235.174,263.273C235.174,263.273 238.486,272.204 238.36,274.36Z" style="fill:rgb(52,53,53);fill-rule:nonzero;"/>
            <path d="M209.661,257.552L217.289,257.552C222.599,257.552 226.904,261.856 226.904,267.166C226.904,272.477 222.599,276.781 217.289,276.781L209.661,276.781C204.351,276.781 200.046,272.477 200.046,267.166C200.046,261.856 204.351,257.552 209.661,257.552Z" style="fill:rgb(235,192,156);fill-rule:nonzero;"/>
            <path d="M242.709,250.176L248.902,236.836L251.834,243.364L249.403,258.601C248.932,261.551 249.095,264.568 249.879,267.45L252.244,276.138L251.813,291.689C251.813,291.689 246.586,277.931 243.904,270.059C241.222,262.188 242.709,250.176 242.709,250.176Z" style="fill:rgb(26,27,27);fill-rule:nonzero;"/>
            <path d="M287.214,204.918L282.741,233.907L274.637,240.696L274.595,232.089L282.491,202.464L287.214,204.918Z" style="fill:rgb(40,40,40);fill-rule:nonzero;"/>
            <path d="M250.719,212.02L247.783,234.345L251.834,243.364L253.427,233.381L253.942,214.745L253.044,209.888L250.719,212.02Z" style="fill:rgb(40,40,40);fill-rule:nonzero;"/>
            <path d="M226.904,267.166C226.904,265.7 226.566,264.315 225.979,263.072C225.235,264.572 223.637,266.631 220.234,267.781C215.132,269.503 203.906,269.991 200.507,264.23C200.21,265.156 200.046,266.142 200.046,267.166C200.046,272.476 204.351,276.781 209.661,276.781L217.289,276.781C222.599,276.781 226.904,272.476 226.904,267.166Z" style="fill:rgb(223,178,139);fill-rule:nonzero;"/>
            <path d="M283.425,194.289C283.425,194.289 285.349,194.979 286.598,196.898C287.943,198.967 288.016,201.599 288.016,201.599C288.016,201.599 286.456,198.424 285.089,197.301C283.722,196.178 282.183,195.279 282.183,195.279L283.425,194.289Z" style="fill:rgb(139,55,48);fill-rule:nonzero;"/>
            <path d="M283.941,191.286C283.941,191.286 287.688,192.514 289.941,194.371C292.971,196.87 293.476,201.187 293.476,201.187C293.476,201.187 290.362,196.42 287.192,195.206C284.112,194.027 281.702,194.717 281.702,194.717L283.941,191.286Z" style="fill:rgb(139,55,48);fill-rule:nonzero;"/>
            <path d="M293.59,117.282C300.554,122.759 301.759,132.844 296.283,139.808C295.749,140.487 295.16,141.094 294.546,141.663C295.253,141.369 296.075,140.979 296.913,140.474C299.183,139.105 300.406,137.044 300.406,137.044C300.406,137.044 299.209,143.422 293.616,146.184C289.78,148.078 290.666,145.585 291.602,143.832C286.103,146.956 279.036,146.652 273.757,142.501C266.793,137.024 265.587,126.939 271.064,119.976C276.541,113.012 286.626,111.806 293.59,117.282Z" style="fill:rgb(139,55,48);fill-rule:nonzero;"/>
            <path d="M295.517,130.961C297.146,127.741 297.887,125.11 298.203,123.123C300.67,128.43 300.148,134.893 296.283,139.808C295.749,140.487 295.16,141.094 294.546,141.663C295.253,141.369 296.075,140.979 296.913,140.474C299.183,139.105 300.406,137.044 300.406,137.044C300.406,137.044 299.209,143.422 293.616,146.184C289.78,148.078 290.666,145.585 291.602,143.832C290.256,144.597 288.815,145.153 287.329,145.501C286.596,141.791 286.88,138.677 286.88,138.677C286.88,138.677 291.604,138.691 295.517,130.961Z" style="fill:rgb(115,45,38);fill-rule:nonzero;"/>
            <path d="M271.064,119.976C276.204,113.439 285.403,111.977 292.272,116.35C292.448,117.687 292.487,120.004 291.583,121.284C288.233,126.02 279.142,126.895 279.142,126.895C279.142,126.895 282.05,128.066 284.286,127.804C286.522,127.543 288.605,127.047 288.605,127.047C288.605,127.047 284.868,130.632 277.7,130.716C274.951,130.747 271.048,131.504 267.726,131.524C267.317,127.53 268.386,123.38 271.064,119.976Z" style="fill:rgb(161,63,54);fill-rule:nonzero;"/>
            <path d="M275.397,128.683C275.397,128.683 294.319,135.088 298.533,160.671C302.227,183.096 282.302,195.708 282.302,195.708L272.225,140.325L275.397,128.683Z" style="fill:rgb(186,74,63);fill-rule:nonzero;"/>
            <path d="M247.104,229.15C267.292,226.788 283.875,205.794 282.765,188.772L275.397,128.683L274.499,127.466L227.321,132.167L214.924,155.378C214.924,155.378 205.093,164.162 215.878,199.053C221.06,215.817 229.677,231.189 247.104,229.15Z" style="fill:rgb(235,192,156);fill-rule:nonzero;"/>
            <path d="M280.099,116.615C280.099,116.615 282.771,115.804 284.849,116.641C286.928,117.478 286.075,120.284 283.811,122.178C281.547,124.072 277.063,123.914 275.985,121.544C274.906,119.175 278.655,116.899 280.099,116.615Z" style="fill:rgb(186,74,63);fill-rule:nonzero;"/>
            <path d="M246.425,182.688C246.659,184.691 248.473,186.126 250.477,185.891C252.481,185.657 253.915,183.842 253.681,181.839C253.446,179.835 251.632,178.401 249.628,178.635C247.624,178.87 246.19,180.684 246.425,182.688Z" style="fill:rgb(139,55,48);fill-rule:nonzero;"/>
            <path d="M218.37,185.97C218.604,187.973 220.419,189.408 222.423,189.173C224.426,188.939 225.861,187.125 225.626,185.121C225.392,183.117 223.577,181.683 221.574,181.917C219.57,182.152 218.136,183.966 218.37,185.97Z" style="fill:rgb(139,55,48);fill-rule:nonzero;"/>
            <path d="M221.566,184.494C221.656,185.263 222.352,185.813 223.121,185.723C223.889,185.633 224.44,184.937 224.35,184.168C224.26,183.4 223.564,182.849 222.795,182.939C222.026,183.029 221.476,183.725 221.566,184.494Z" style="fill:white;fill-rule:nonzero;"/>
            <path d="M241.728,167.845C241.728,167.845 241.782,167.558 241.964,167.08C242.148,166.604 242.459,165.931 242.993,165.212C243.263,164.856 243.573,164.475 243.96,164.124C244.346,163.775 244.775,163.412 245.285,163.134C245.537,162.989 245.796,162.845 246.077,162.736C246.351,162.609 246.636,162.497 246.938,162.43C247.233,162.338 247.538,162.279 247.847,162.241C248.013,162.218 248.13,162.195 248.337,162.173L248.762,162.149C249.312,162.11 249.928,162.145 250.536,162.18C251.13,162.238 251.703,162.34 252.251,162.491C252.8,162.627 253.318,162.822 253.784,163.054C254.257,163.267 254.677,163.53 255.036,163.804C255.767,164.338 256.249,164.924 256.53,165.354C256.812,165.789 256.898,166.07 256.898,166.07C256.898,166.07 256.079,165.21 254.592,164.552C254.222,164.387 253.813,164.234 253.372,164.105C252.934,163.97 252.459,163.874 251.968,163.789C251.478,163.696 250.955,163.68 250.436,163.629C249.926,163.614 249.408,163.604 248.822,163.645L248.396,163.655L248.043,163.698C247.789,163.72 247.539,163.759 247.297,163.829C246.806,163.93 246.331,164.089 245.892,164.296C245.005,164.693 244.24,165.245 243.621,165.782C243.007,166.325 242.536,166.849 242.217,167.228C241.896,167.607 241.728,167.845 241.728,167.845Z" style="fill:rgb(139,55,48);fill-rule:nonzero;"/>
            <path d="M228.628,172.205C228.628,172.205 227.955,173.043 226.624,173.958C225.959,174.41 225.137,174.887 224.179,175.257C223.703,175.448 223.192,175.606 222.658,175.723C222.126,175.838 221.572,175.946 221.007,175.95C220.449,175.988 219.867,175.934 219.327,175.873C218.835,175.809 218.288,175.681 217.782,175.553C216.787,175.268 215.899,174.833 215.219,174.342C214.886,174.086 214.59,173.843 214.363,173.587C214.132,173.337 213.954,173.1 213.828,172.893C213.571,172.479 213.517,172.205 213.517,172.205C213.517,172.205 213.719,172.392 214.091,172.643C214.471,172.886 215.02,173.194 215.713,173.456C216.399,173.731 217.225,173.972 218.131,174.153C218.576,174.249 219.021,174.325 219.548,174.394C219.813,174.447 220.003,174.457 220.256,174.477C220.492,174.504 220.73,174.515 220.971,174.503C221.932,174.507 222.905,174.35 223.813,174.126C224.268,174.016 224.699,173.87 225.114,173.738C225.527,173.598 225.915,173.452 226.269,173.303C226.984,173.017 227.57,172.734 227.981,172.533C228.396,172.335 228.628,172.205 228.628,172.205Z" style="fill:rgb(139,55,48);fill-rule:nonzero;"/>
            <path d="M250.053,182.263C250.053,182.263 250.522,182.091 251.225,181.833C251.556,181.706 251.924,181.558 252.295,181.387C252.659,181.206 253.04,181.029 253.378,180.794C253.561,180.696 253.717,180.564 253.883,180.446C254.057,180.337 254.188,180.183 254.348,180.064C254.507,179.942 254.63,179.789 254.775,179.663C254.918,179.535 255.026,179.387 255.148,179.261C255.256,179.127 255.393,179.018 255.476,178.897C255.563,178.78 255.655,178.68 255.728,178.595C255.878,178.426 255.98,178.327 255.98,178.327C255.98,178.327 256.001,178.457 256.01,178.69C256.015,178.921 256.032,179.265 255.918,179.649C255.868,179.844 255.831,180.069 255.715,180.272C255.608,180.478 255.525,180.724 255.362,180.927C255.201,181.13 255.056,181.368 254.84,181.543C254.641,181.735 254.424,181.916 254.183,182.06C253.231,182.687 252.088,182.805 251.308,182.687C250.513,182.586 250.053,182.263 250.053,182.263Z" style="fill:rgb(139,55,48);fill-rule:nonzero;"/>
            <path d="M249.621,181.212C249.71,181.981 250.407,182.531 251.175,182.441C251.944,182.351 252.494,181.655 252.404,180.886C252.314,180.118 251.618,179.567 250.85,179.657C250.081,179.747 249.531,180.443 249.621,181.212Z" style="fill:white;fill-rule:nonzero;"/>
            <path d="M221.998,185.545C221.998,185.545 221.625,185.966 220.875,186.248C220.143,186.543 219.003,186.691 217.932,186.301C217.664,186.217 217.412,186.09 217.173,185.949C216.924,185.829 216.727,185.631 216.524,185.471C216.318,185.311 216.181,185.091 216.029,184.915C215.87,184.744 215.782,184.533 215.688,184.356C215.487,184.008 215.424,183.67 215.376,183.444C215.332,183.215 215.323,183.083 215.323,183.083C215.323,183.083 215.444,183.156 215.63,183.286C215.72,183.352 215.833,183.428 215.944,183.522C216.052,183.62 216.211,183.695 216.347,183.801C216.495,183.895 216.634,184.014 216.803,184.105C216.973,184.194 217.128,184.315 217.31,184.397C217.494,184.476 217.657,184.595 217.852,184.661C218.04,184.738 218.222,184.831 218.423,184.883C218.807,185.033 219.218,185.118 219.614,185.21C220.015,185.29 220.406,185.35 220.758,185.398C221.502,185.486 221.998,185.545 221.998,185.545Z" style="fill:rgb(139,55,48);fill-rule:nonzero;"/>
            <path d="M272.762,184.311C270.405,168.467 261.439,156.419 261.439,156.419C261.439,156.419 268.129,151.97 278.674,155.408L282.765,188.772C283.746,203.81 270.915,221.938 253.992,227.591C266.497,217.503 275.1,200.022 272.762,184.311Z" style="fill:rgb(223,178,139);fill-rule:nonzero;"/>
            <path d="M275.397,128.683C275.397,128.683 254.788,144.128 254.711,149.93C254.634,155.732 265.273,156.251 271.889,163.284C278.505,170.318 281.554,178.088 281.554,178.088L280.27,147.733L275.397,128.683Z" style="fill:rgb(186,74,63);fill-rule:nonzero;"/>
            <path d="M261.872,136.659C256.122,141.646 252.433,147.678 252.433,147.678C252.433,147.678 240.777,145.567 230.919,147.639C221.062,149.711 214.924,155.378 214.924,155.378C214.924,155.378 204.372,144.297 220.752,130.915C233.8,120.254 247.666,117.696 258.351,118.619C269.038,119.542 274.499,127.466 274.499,127.466C274.499,127.466 270.014,129.6 261.872,136.659Z" style="fill:rgb(186,74,63);fill-rule:nonzero;"/>
            <path d="M274.756,154.232C275.233,154.037 275.696,153.822 276.143,153.586L276.176,153.569C276.624,153.33 277.055,153.068 277.461,152.782C277.797,152.544 278.111,152.306 278.414,152.068C278.529,151.977 278.638,151.886 278.749,151.795C278.922,151.654 279.09,151.513 279.252,151.372C279.383,151.257 279.513,151.143 279.637,151.029C279.755,150.921 279.866,150.814 279.977,150.707C280.113,150.576 280.252,150.445 280.379,150.315C283.61,147.021 283.939,144.216 283.939,144.216C283.939,144.216 284.609,147.79 283.744,151.165C282.88,154.54 281.907,155.913 281.907,155.913C281.907,155.913 288.19,157.949 291.349,154.809C293.453,152.717 293.575,148.515 293.297,145.173C295.592,149.32 297.503,154.42 298.533,160.671C302.227,183.096 282.302,195.708 282.302,195.708L277.802,170.978C276.304,168.601 274.342,165.893 271.889,163.284C268.444,159.622 263.91,157.726 260.364,155.931C260.364,155.931 268.644,156.73 274.756,154.232Z" style="fill:rgb(161,63,54);fill-rule:nonzero;"/>
            <path d="M281.468,190.074L278.989,173.58C279.804,173.206 280.687,172.947 281.626,172.838C286.429,172.276 290.778,175.714 291.34,180.517C291.902,185.32 288.464,189.669 283.661,190.231C282.883,190.322 282.12,190.298 281.381,190.19L281.468,190.074Z" style="fill:rgb(235,192,156);fill-rule:nonzero;"/>
            <path d="M273.104,164.628C276.195,168.806 278.286,173.637 279.216,178.749L279.89,182.45L280.872,161.959L273.104,164.628Z" style="fill:rgb(129,62,57);fill-rule:nonzero;"/>
            <path d="M265.164,145.799C265.164,145.799 265.781,142.037 270.339,138.928C274.897,135.82 278.042,135.32 280.244,136.615C282.729,138.076 278.746,146.329 272.873,148.566C267.697,150.537 264.63,149.327 265.164,145.799Z" style="fill:rgb(212,83,69);fill-rule:nonzero;"/>
            <path d="M229.627,128.11C229.627,128.11 232.117,124.333 238.205,123.01C244.293,121.686 247.673,122.545 249.22,124.917C250.965,127.593 242.885,134.711 235.922,134.511C229.786,134.336 227.336,131.671 229.627,128.11Z" style="fill:rgb(212,83,69);fill-rule:nonzero;"/>
            <path d="M212.953,143.479C215.02,137.469 222.399,131.644 222.399,131.644C222.399,131.644 218.156,138.437 223.3,139.347C228.443,140.256 249.372,138.311 255.215,131.205C261.058,124.099 256.055,121.158 256.055,121.158C256.055,121.158 260.972,121.213 265.97,123.021C269.487,124.294 272.02,126.799 273.215,128.174C271.346,129.276 267.475,131.801 261.872,136.659C256.122,141.646 252.433,147.678 252.433,147.678C252.433,147.678 240.777,145.567 230.919,147.639C221.062,149.711 214.924,155.378 214.924,155.378C214.924,155.378 212.573,152.906 211.814,148.888C211.962,147.25 212.293,145.396 212.953,143.479Z" style="fill:rgb(161,63,54);fill-rule:nonzero;"/>
            <path d="M252.475,228.066C250.331,221.374 246.644,209.97 246.399,209.888C246.053,209.772 228.797,214 228.797,214C228.797,214 229.471,218.934 232.338,220.789C235.204,222.644 240.825,222.348 240.825,222.348L243.279,229.308C244.507,229.348 245.777,229.305 247.104,229.15C248.928,228.937 250.72,228.567 252.475,228.066Z" style="fill:rgb(223,178,139);fill-rule:nonzero;"/>
            <path d="M273.973,279.73C273.683,279.73 273.392,279.72 273.099,279.7C268.248,279.368 264.165,276.337 262.442,271.791L242.772,219.868C242.72,219.732 242.589,219.642 242.443,219.642L235.823,219.642C231.849,219.642 228.628,216.42 228.628,212.447C228.628,208.473 231.849,205.252 235.823,205.252L242.442,205.252C248.531,205.252 254.071,209.077 256.228,214.771L274.281,262.424L281.698,248.814L294.333,255.698L284.734,273.316C282.548,277.328 278.48,279.73 273.973,279.73Z" style="fill:rgb(241,208,181);fill-rule:nonzero;"/>
            <path d="M303.509,219.806C299.508,217.811 294.648,219.438 292.654,223.439L274.493,259.875L278.243,258.337L288.96,264.933L289.053,266.952L307.142,230.661C309.136,226.66 307.509,221.8 303.509,219.806Z" style="fill:rgb(40,40,40);fill-rule:nonzero;"/>
            <path d="M306.886,227.01C306.408,229.817 303.329,231.634 300.009,231.069C296.69,230.504 294.386,227.77 294.864,224.963C295.342,222.157 298.42,220.339 301.74,220.905C305.06,221.47 307.364,224.204 306.886,227.01Z" style="fill:rgb(93,94,94);fill-rule:nonzero;"/>
            <path d="M278.032,252.464L294.206,262.864C294.795,263.242 294.976,264.014 294.616,264.608L291.563,269.629C291.18,270.258 290.343,270.44 289.725,270.029L273.461,259.188C272.862,258.788 272.704,257.985 273.108,257.396L276.25,252.816C276.646,252.239 277.438,252.083 278.032,252.464Z" style="fill:white;fill-rule:nonzero;"/>
            <path d="M273.973,279.73C276.522,279.73 278.93,278.961 280.936,277.568C269.286,277.449 265.207,269.055 265.207,269.055L244.441,214.441C244.441,214.441 237.546,214.118 233.947,213.669C231.826,213.404 229.999,211.893 228.852,210.694C228.711,211.256 228.628,211.841 228.628,212.447C228.628,216.42 231.849,219.642 235.823,219.642L242.443,219.642C242.589,219.642 242.72,219.732 242.772,219.868L262.442,271.791C264.165,276.337 268.248,279.368 273.099,279.7C273.392,279.72 273.683,279.73 273.973,279.73Z" style="fill:rgb(235,192,156);fill-rule:nonzero;"/>
            <path d="M220.159,262.01C220.159,263.955 217.038,265.532 213.189,265.532C209.339,265.532 206.218,263.955 206.218,262.01C206.218,260.064 209.339,258.487 213.189,258.487C217.038,258.487 220.159,260.064 220.159,262.01Z" style="fill:rgb(241,208,181);fill-rule:nonzero;"/>
            <path d="M248.133,209.048C248.133,210.842 245.013,212.297 241.163,212.297C237.314,212.297 234.193,210.842 234.193,209.048C234.193,207.254 237.314,205.799 241.163,205.799C245.013,205.799 248.133,207.254 248.133,209.048Z" style="fill:rgb(246,225,205);fill-rule:nonzero;"/>
        </g>
        <g>
            <g transform="matrix(4.16667,0,0,4.16667,-255.373,-240.802)">
                <path d="M317.049,295.918L83.044,295.918C81.566,295.918 80.368,294.72 80.368,293.242L80.368,282.299C80.368,280.821 81.566,279.623 83.044,279.623L317.049,279.623C318.527,279.623 319.725,280.821 319.725,282.299L319.725,293.242C319.725,294.72 318.527,295.918 317.049,295.918Z" style="fill:rgb(167,68,41);fill-rule:nonzero;"/>
            </g>
            <g transform="matrix(4.16667,0,0,4.16667,-255.373,-240.802)">
                <path d="M228.689,272.225L165.873,272.225L165.873,279.623L233.325,279.623L233.325,276.861C233.325,274.301 231.25,272.225 228.689,272.225Z" style="fill:rgb(136,136,137);fill-rule:nonzero;"/>
            </g>
            <g transform="matrix(4.16667,0,0,4.16667,-255.373,-240.802)">
                <path d="M202.144,279.623L103.514,279.623L76.607,203.691L170.9,203.691C173.5,203.691 175.818,205.329 176.687,207.78L202.144,279.623Z" style="fill:rgb(136,136,137);fill-rule:nonzero;"/>
            </g>
            <g transform="matrix(4.16667,0,0,4.16667,-255.373,-240.802)">
                <path d="M193.809,279.623L95.179,279.623L70.651,210.403C69.491,207.128 71.92,203.691 75.394,203.691L162.565,203.691C165.165,203.691 167.484,205.329 168.352,207.78L193.809,279.623Z" style="fill:rgb(209,209,210);fill-rule:nonzero;"/>
            </g>
            <g transform="matrix(4.16667,0,0,4.16667,-255.373,-240.802)">
                <path d="M158.812,212.447L108.891,212.447C107.775,212.447 106.871,211.542 106.871,210.426C106.871,209.31 107.775,208.405 108.891,208.405L158.812,208.405C159.928,208.405 160.833,209.31 160.833,210.426C160.833,211.542 159.928,212.447 158.812,212.447Z" style="fill:white;fill-rule:nonzero;"/>
            </g>
            <g transform="matrix(4.16667,0,0,4.16667,-255.373,-240.802)">
                <path d="M99.903,212.447L80.636,212.447C79.52,212.447 78.615,211.542 78.615,210.426C78.615,209.31 79.52,208.405 80.636,208.405L99.903,208.405C101.02,208.405 101.924,209.31 101.924,210.426C101.924,211.542 101.02,212.447 99.903,212.447Z" style="fill:white;fill-rule:nonzero;"/>
            </g>
            <g transform="matrix(4.16667,0,0,4.16667,-255.373,-240.802)">
                <path d="M188.257,263.953C188.257,263.953 151.839,267.819 123.059,258.086C94.279,248.352 77.144,228.728 77.144,228.728L95.179,279.623L193.809,279.623L188.257,263.953Z" style="fill:rgb(194,194,194);fill-rule:nonzero;"/>
            </g>
        </g>
    </g>
</svg>
