<svg id="Layer_1" data-name="Layer 1" viewBox="0 0 2136 632">
<defs>
		<style>
			.cls-1 {
				fill: #1c75bc;
			}
			.cls-2 {
				fill: #16a6b1;
			}
		</style>
	</defs>
  <g transform="matrix(1,0,0,1,-9.55528e-05,-2.32086)">
    <g transform="matrix(4.16667,0,0,4.16667,0,0)">
      <path
        d="M194.623,125.993L194.958,125.993L202.776,103.445C202.843,103.233 202.894,103.059 202.928,102.926C202.961,103.059 203.011,103.233 203.079,103.445L210.896,125.993L211.231,125.993L218.68,102.507L218.412,102.507C218.289,102.507 218.21,102.562 218.177,102.674L211.315,124.6C211.214,124.858 211.131,125.154 211.064,125.49C211.008,125.199 210.923,124.903 210.812,124.6L203.179,102.674C203.146,102.562 203.079,102.507 202.978,102.507L202.876,102.507C202.776,102.507 202.709,102.562 202.676,102.674L195.043,124.6C194.986,124.757 194.939,124.905 194.9,125.045C194.86,125.185 194.824,125.333 194.791,125.49C194.757,125.333 194.721,125.185 194.681,125.045C194.643,124.905 194.595,124.757 194.539,124.6L187.677,102.674C187.644,102.562 187.577,102.507 187.477,102.507L187.174,102.507L194.623,125.993ZM226.397,102.507L226.397,125.993L240.12,125.993L240.154,125.624L226.8,125.624L226.8,114.25L238.107,114.25L238.107,113.881L226.8,113.881L226.8,102.875L240.12,102.875L240.12,102.507L226.397,102.507ZM256.896,125.993C258.092,125.993 259.164,125.858 260.109,125.591C261.053,125.322 261.854,124.929 262.508,124.408C263.162,123.888 263.659,123.242 264.001,122.47C264.342,121.698 264.513,120.815 264.513,119.819C264.513,118.98 264.361,118.22 264.06,117.538C263.758,116.856 263.324,116.266 262.76,115.767C262.195,115.27 261.513,114.873 260.713,114.577C259.913,114.28 259.015,114.094 258.021,114.014C258.792,113.936 259.508,113.726 260.167,113.386C260.828,113.045 261.396,112.617 261.871,112.102C262.346,111.588 262.72,111.007 262.994,110.358C263.268,109.709 263.406,109.038 263.406,108.345C263.406,106.455 262.793,105.009 261.568,104.008C260.344,103.007 258.484,102.507 255.99,102.507L249.883,102.507L249.883,125.993L256.896,125.993ZM256.93,114.25C258.015,114.25 259.002,114.379 259.89,114.636C260.78,114.893 261.535,115.264 262.155,115.752C262.776,116.238 263.257,116.824 263.599,117.513C263.939,118.201 264.11,118.97 264.11,119.819C264.11,120.781 263.948,121.629 263.624,122.36C263.299,123.094 262.826,123.703 262.206,124.19C261.586,124.676 260.828,125.043 259.933,125.289C259.036,125.534 258.026,125.657 256.896,125.657L250.286,125.657L250.286,114.25L256.93,114.25ZM250.286,102.842L255.99,102.842C258.372,102.842 260.143,103.323 261.299,104.284C262.458,105.246 263.036,106.599 263.036,108.345C263.036,108.972 262.913,109.61 262.668,110.265C262.421,110.92 262.023,111.517 261.476,112.06C260.928,112.602 260.219,113.048 259.346,113.393C258.474,113.741 257.411,113.914 256.157,113.914L250.286,113.914L250.286,102.842ZM302.871,109.284C302.34,107.83 301.596,106.599 300.64,105.594C299.684,104.587 298.54,103.821 297.209,103.295C295.878,102.768 294.407,102.507 292.797,102.507L284.408,102.507L284.408,125.993L292.797,125.993C294.407,125.993 295.878,125.73 297.209,125.205C298.54,124.68 299.684,123.913 300.64,122.906C301.596,121.899 302.34,120.669 302.871,119.216C303.402,117.762 303.668,116.106 303.668,114.25C303.668,112.392 303.402,110.738 302.871,109.284ZM302.469,119.106C301.96,120.521 301.246,121.715 300.329,122.688C299.412,123.661 298.313,124.399 297.033,124.903C295.753,125.405 294.34,125.657 292.797,125.657L284.812,125.657L284.812,102.842L292.797,102.842C294.34,102.842 295.753,103.094 297.033,103.597C298.313,104.1 299.412,104.838 300.329,105.811C301.246,106.785 301.96,107.978 302.469,109.392C302.977,110.807 303.231,112.427 303.231,114.25C303.231,116.073 302.977,117.691 302.469,119.106ZM313.465,102.507L313.465,125.993L327.188,125.993L327.222,125.624L313.867,125.624L313.867,114.25L325.175,114.25L325.175,113.881L313.867,113.881L313.867,102.875L327.188,102.875L327.188,102.507L313.465,102.507ZM347.789,104.553C347.018,103.748 346.192,103.16 345.314,102.792C344.437,102.423 343.427,102.238 342.286,102.238C341.268,102.238 340.365,102.394 339.577,102.707C338.788,103.021 338.126,103.44 337.589,103.966C337.052,104.492 336.644,105.098 336.364,105.786C336.084,106.474 335.945,107.192 335.945,107.942C335.945,108.714 336.06,109.382 336.289,109.946C336.518,110.511 336.828,110.998 337.22,111.406C337.611,111.814 338.066,112.161 338.587,112.446C339.107,112.731 339.663,112.986 340.257,113.21C340.849,113.433 341.453,113.637 342.068,113.822C342.683,114.007 343.287,114.208 343.88,114.426C344.473,114.643 345.029,114.889 345.549,115.164C346.069,115.437 346.524,115.767 346.916,116.153C347.308,116.54 347.618,117.001 347.848,117.538C348.076,118.075 348.191,118.712 348.191,119.45C348.191,120.334 348.038,121.168 347.729,121.95C347.423,122.732 346.976,123.418 346.388,124.005C345.801,124.593 345.085,125.059 344.241,125.405C343.396,125.753 342.431,125.926 341.347,125.926C340.608,125.926 339.951,125.856 339.376,125.716C338.8,125.576 338.288,125.397 337.841,125.18C337.394,124.962 337.013,124.729 336.699,124.483C336.387,124.237 336.117,124.005 335.895,123.787C335.67,123.569 335.494,123.389 335.366,123.251C335.237,123.11 335.14,123.041 335.072,123.041C335.017,123.041 334.978,123.049 334.955,123.065C334.933,123.083 334.904,123.108 334.871,123.141L334.804,123.208C335.207,123.689 335.626,124.117 336.063,124.491C336.499,124.866 336.977,125.185 337.496,125.448C338.017,125.711 338.59,125.912 339.216,126.052C339.843,126.191 340.553,126.262 341.347,126.262C342.487,126.262 343.505,126.082 344.399,125.724C345.294,125.367 346.05,124.877 346.665,124.257C347.28,123.637 347.749,122.909 348.074,122.076C348.398,121.243 348.561,120.345 348.561,119.383C348.561,118.432 348.385,117.641 348.032,117.01C347.68,116.378 347.219,115.847 346.647,115.416C346.077,114.985 345.423,114.63 344.685,114.35C343.947,114.07 343.197,113.805 342.438,113.554C341.677,113.302 340.928,113.039 340.189,112.764C339.451,112.491 338.797,112.147 338.227,111.733C337.656,111.32 337.194,110.811 336.842,110.206C336.489,109.602 336.313,108.848 336.313,107.942C336.313,107.237 336.445,106.561 336.708,105.912C336.971,105.264 337.354,104.693 337.856,104.201C338.36,103.709 338.984,103.314 339.729,103.017C340.472,102.722 341.324,102.573 342.286,102.573C343.226,102.573 344.008,102.687 344.635,102.917C345.261,103.146 345.772,103.395 346.17,103.664C346.566,103.932 346.869,104.181 347.076,104.41C347.282,104.639 347.437,104.755 347.537,104.755C347.604,104.755 347.666,104.721 347.722,104.654L347.789,104.553ZM358.693,102.507L358.291,102.507L358.291,125.993L358.693,125.993L358.693,102.507ZM376.132,125.129C374.807,124.598 373.668,123.829 372.718,122.822C371.767,121.816 371.032,120.592 370.512,119.148C369.992,117.705 369.731,116.073 369.731,114.25C369.731,112.427 369.994,110.794 370.521,109.351C371.046,107.908 371.795,106.683 372.768,105.677C373.741,104.67 374.915,103.902 376.292,103.37C377.667,102.84 379.204,102.573 380.904,102.573C382.258,102.573 383.398,102.705 384.327,102.968C385.255,103.23 386.013,103.521 386.601,103.841C387.188,104.159 387.627,104.45 387.918,104.713C388.208,104.974 388.398,105.107 388.487,105.107C388.543,105.107 388.594,105.079 388.639,105.022L388.689,104.938C388.163,104.47 387.627,104.066 387.079,103.731C386.53,103.395 385.945,103.116 385.325,102.892C384.705,102.669 384.03,102.504 383.304,102.396C382.576,102.291 381.776,102.238 380.904,102.238C379.127,102.238 377.524,102.517 376.098,103.077C374.672,103.636 373.456,104.435 372.449,105.475C371.442,106.515 370.671,107.776 370.135,109.259C369.598,110.74 369.329,112.404 369.329,114.25C369.329,116.106 369.598,117.776 370.135,119.258C370.671,120.74 371.429,122 372.407,123.041C373.386,124.08 374.563,124.877 375.939,125.431C377.314,125.985 378.847,126.262 380.536,126.262C381.531,126.262 382.445,126.2 383.278,126.077C384.111,125.954 384.883,125.781 385.594,125.557C386.304,125.333 386.97,125.061 387.59,124.743C388.211,124.425 388.812,124.07 389.394,123.678L389.394,115.894L383.556,115.894L383.556,116.061C383.556,116.174 383.622,116.229 383.757,116.229L389.024,116.229L389.024,123.527C388.421,123.907 387.819,124.246 387.222,124.542C386.622,124.838 385.988,125.091 385.316,125.297C384.646,125.504 383.921,125.661 383.144,125.766C382.367,125.873 381.497,125.926 380.536,125.926C378.925,125.926 377.457,125.661 376.132,125.129ZM399.795,102.507L399.66,102.507L399.66,125.993L399.996,125.993L399.996,103.546L399.996,103.353C399.996,103.281 399.99,103.211 399.979,103.144L416.688,125.876C416.743,125.954 416.805,125.993 416.872,125.993L416.973,125.993L416.973,102.507L416.638,102.507L416.638,125.096C416.638,125.157 416.643,125.216 416.654,125.271L400.029,102.64C399.973,102.551 399.896,102.507 399.795,102.507Z"
        class="cls-n" style="fill: var(--logo-neutral);"
      />
    </g>
    <g transform="matrix(4.16667,0,0,4.16667,0,0)">
      <path
        d="M296.955,33.752C296.454,34.234 296.203,34.849 296.203,35.602L296.203,74.368C296.203,75.08 296.432,75.687 296.894,76.188C297.353,76.69 297.979,76.941 298.775,76.941C299.485,76.941 300.102,76.69 300.625,76.188C301.147,75.687 301.409,75.08 301.409,74.368L301.409,35.602C301.409,34.849 301.158,34.234 300.657,33.752C300.154,33.272 299.548,33.031 298.838,33.031C298.085,33.031 297.457,33.272 296.955,33.752ZM325.905,33.752C325.381,34.234 325.121,34.849 325.121,35.602L325.121,74.368C325.121,75.08 325.371,75.687 325.873,76.188C326.376,76.69 326.981,76.941 327.692,76.941C328.445,76.941 329.073,76.69 329.574,76.188C330.076,75.687 330.327,75.08 330.327,74.368L330.327,35.602C330.327,34.849 330.086,34.234 329.606,33.752C329.125,33.272 328.508,33.031 327.755,33.031C327.044,33.031 326.428,33.272 325.905,33.752ZM298.398,57.056L327.755,57.056L327.818,52.163L298.586,52.163L298.398,57.056ZM350.964,46.517C350.964,45.807 350.724,45.211 350.242,44.73C349.761,44.249 349.165,44.009 348.455,44.009C347.743,44.009 347.147,44.249 346.667,44.73C346.187,45.211 345.945,45.807 345.945,46.517L345.945,74.368C345.945,75.08 346.175,75.687 346.636,76.188C347.096,76.69 347.702,76.941 348.455,76.941C349.165,76.941 349.761,76.69 350.242,76.188C350.724,75.687 350.964,75.08 350.964,74.368L350.964,46.517ZM350.744,39.178C351.267,38.761 351.528,38.112 351.528,37.234L351.528,36.355C351.528,35.477 351.277,34.829 350.775,34.411C350.274,33.994 349.521,33.784 348.518,33.784C347.514,33.784 346.74,33.994 346.197,34.411C345.653,34.829 345.382,35.477 345.382,36.355L345.382,37.234C345.382,38.112 345.632,38.761 346.135,39.178C346.636,39.597 347.409,39.805 348.455,39.805C349.459,39.805 350.222,39.597 350.744,39.178ZM371.163,45.859C368.862,47.302 367.032,49.299 365.674,51.849C364.314,54.401 363.635,57.328 363.635,60.631C363.635,63.894 364.314,66.801 365.674,69.351C367.032,71.902 368.872,73.909 371.193,75.372C373.515,76.837 376.139,77.569 379.066,77.569C380.446,77.569 381.815,77.349 383.175,76.909C384.533,76.47 385.767,75.865 386.876,75.091C387.983,74.317 388.915,73.428 389.668,72.424C390.42,71.421 390.922,70.333 391.173,69.162L390.483,68.849L390.483,74.682C390.483,77.735 389.542,80.192 387.66,82.053C385.778,83.913 383.06,84.845 379.506,84.845C378.501,84.845 377.477,84.73 376.432,84.5C375.386,84.269 374.465,84.007 373.672,83.715C372.877,83.422 372.27,83.214 371.853,83.088C370.932,82.712 370.18,82.524 369.595,82.524C369.008,82.524 368.506,82.816 368.089,83.402C367.795,83.862 367.723,84.353 367.869,84.876C368.015,85.399 368.402,85.869 369.029,86.287C369.321,86.789 370.054,87.281 371.225,87.761C372.396,88.242 373.744,88.65 375.271,88.985C376.797,89.319 378.188,89.487 379.442,89.487C382.412,89.487 385.109,88.922 387.534,87.793C389.959,86.664 391.894,84.97 393.337,82.712C394.78,80.453 395.501,77.61 395.501,74.181L395.501,46.706C395.501,45.995 395.271,45.399 394.811,44.918C394.351,44.438 393.745,44.197 392.992,44.197C392.28,44.197 391.684,44.438 391.204,44.918C390.723,45.399 390.483,45.995 390.483,46.706L390.483,52.163L391.737,52.916C391.737,51.996 391.412,51.013 390.765,49.968C390.116,48.923 389.217,47.919 388.067,46.957C386.917,45.995 385.568,45.211 384.022,44.604C382.475,43.999 380.78,43.695 378.94,43.695C376.056,43.695 373.462,44.416 371.163,45.859ZM385.401,49.905C387.074,50.951 388.392,52.393 389.354,54.233C390.315,56.074 390.797,58.207 390.797,60.631C390.797,63.015 390.315,65.127 389.354,66.967C388.392,68.808 387.074,70.26 385.401,71.327C383.729,72.393 381.805,72.926 379.631,72.926C377.456,72.926 375.532,72.383 373.86,71.295C372.187,70.208 370.869,68.735 369.908,66.873C368.945,65.013 368.465,62.932 368.465,60.631C368.465,58.248 368.945,56.137 369.908,54.296C370.869,52.456 372.187,51.003 373.86,49.936C375.532,48.869 377.456,48.336 379.631,48.336C381.805,48.336 383.729,48.86 385.401,49.905ZM421.91,44.792C420.571,45.316 419.358,46.016 418.271,46.894C417.184,47.772 416.284,48.766 415.573,49.874C414.862,50.982 414.402,52.08 414.193,53.166L415.448,51.786L415.448,33.031C415.448,32.32 415.218,31.724 414.759,31.243C414.298,30.762 413.691,30.522 412.938,30.522C412.228,30.522 411.632,30.762 411.152,31.243C410.671,31.724 410.43,32.32 410.43,33.031L410.43,74.368C410.43,75.08 410.671,75.687 411.152,76.188C411.632,76.69 412.228,76.941 412.938,76.941C413.649,76.941 414.246,76.69 414.727,76.188C415.207,75.687 415.448,75.08 415.448,74.368L415.448,57.181C415.448,55.593 415.866,54.161 416.702,52.885C417.539,51.61 418.668,50.585 420.09,49.81C421.512,49.037 423.08,48.65 424.795,48.65C426.635,48.65 428.089,49.037 429.154,49.81C430.221,50.585 430.983,51.61 431.444,52.885C431.904,54.161 432.135,55.593 432.135,57.181L432.135,74.368C432.135,75.08 432.374,75.687 432.855,76.188C433.336,76.69 433.932,76.941 434.644,76.941C435.354,76.941 435.95,76.69 436.432,76.188C436.911,75.687 437.152,75.08 437.152,74.368L437.152,57.181C437.152,54.757 436.808,52.551 436.118,50.563C435.427,48.578 434.277,46.988 432.668,45.796C431.058,44.604 428.872,44.009 426.112,44.009C424.648,44.009 423.247,44.27 421.91,44.792ZM473.189,76.094C475.176,75.112 476.774,73.972 477.988,72.676C478.656,72.133 478.992,71.505 478.992,70.794C478.992,70.208 478.782,69.706 478.365,69.288C477.946,68.87 477.444,68.66 476.859,68.66C476.315,68.66 475.771,68.849 475.229,69.226C474.685,69.812 474.025,70.386 473.253,70.95C472.478,71.515 471.548,71.986 470.461,72.362C469.373,72.738 468.077,72.926 466.572,72.926C464.271,72.926 462.243,72.393 460.487,71.327C458.73,70.26 457.36,68.808 456.378,66.967C455.396,65.127 454.904,62.994 454.904,60.569C454.904,58.395 455.196,56.533 455.782,54.986C456.367,53.44 457.151,52.174 458.135,51.191C459.116,50.208 460.226,49.497 461.46,49.058C462.692,48.619 463.938,48.4 465.191,48.4C466.738,48.4 468.223,48.734 469.646,49.403C471.066,50.072 472.27,51.025 473.253,52.257C474.234,53.492 474.789,54.965 474.915,56.68L474.915,58.059L475.918,57.181L451.768,57.181L452.896,61.509L477.674,61.509C478.343,61.509 478.929,61.28 479.432,60.82C479.933,60.36 480.204,59.795 480.247,59.126C480.204,56.784 479.766,54.662 478.929,52.759C478.093,50.857 476.974,49.225 475.573,47.866C474.172,46.508 472.583,45.473 470.806,44.762C469.027,44.051 467.157,43.695 465.191,43.695C462.599,43.695 460.151,44.375 457.853,45.733C455.553,47.093 453.681,49.058 452.238,51.63C450.795,54.201 450.073,57.307 450.073,60.946C450.073,64.207 450.765,67.082 452.145,69.57C453.523,72.059 455.469,74.015 457.978,75.435C460.487,76.858 463.414,77.569 466.76,77.569C469.06,77.569 471.203,77.076 473.189,76.094ZM497.402,76.188C497.883,75.687 498.124,75.08 498.124,74.368L498.124,59.126C498.124,57.621 498.385,56.209 498.908,54.892C499.431,53.574 500.12,52.393 500.978,51.348C501.835,50.303 502.775,49.497 503.801,48.933C504.825,48.368 505.86,48.086 506.905,48.086C507.658,48.086 508.286,48.202 508.787,48.431C509.29,48.661 509.812,48.776 510.355,48.776C510.94,48.776 511.464,48.567 511.924,48.148C512.383,47.731 512.614,47.082 512.614,46.204C512.614,45.41 512.227,44.792 511.454,44.354C510.68,43.914 509.833,43.695 508.913,43.695C507.366,43.695 505.943,43.977 504.647,44.542C503.351,45.106 502.201,45.881 501.197,46.863C500.194,47.846 499.367,48.954 498.72,50.187C498.071,51.421 497.622,52.687 497.371,53.982L498.124,55.3L498.124,47.019C498.124,46.308 497.894,45.713 497.434,45.231C496.974,44.752 496.367,44.51 495.614,44.51C494.902,44.51 494.308,44.752 493.827,45.231C493.346,45.713 493.105,46.308 493.105,47.019L493.105,74.368C493.105,75.08 493.346,75.687 493.827,76.188C494.308,76.69 494.902,76.941 495.614,76.941C496.325,76.941 496.921,76.69 497.402,76.188Z"
        class="cls-n" style="fill: var(--logo-neutral);"
      />
    </g>
    <g transform="matrix(4.16667,0,0,4.16667,0,0)">
      <path
        d="M181.348,39.492L196.277,75.373C196.486,75.916 196.8,76.335 197.218,76.627C197.636,76.92 198.097,77.067 198.599,77.067C199.226,77.067 199.791,76.847 200.292,76.408C200.794,75.969 201.045,75.373 201.045,74.62C201.045,74.286 200.982,73.951 200.856,73.617L184.672,34.473C184.505,33.972 184.203,33.575 183.763,33.282C183.324,32.99 182.832,32.843 182.289,32.843C181.745,32.802 181.254,32.916 180.815,33.187C180.375,33.461 180.051,33.888 179.842,34.473L163.596,73.992C163.47,74.328 163.428,74.642 163.47,74.934C163.47,75.52 163.658,76.021 164.035,76.44C164.411,76.858 164.997,77.067 165.792,77.067C166.251,77.067 166.69,76.92 167.108,76.627C167.526,76.335 167.819,75.937 167.987,75.435L182.729,39.554L181.348,39.492ZM192.827,65.21L191.886,60.318L173.256,60.318L171.124,65.21L192.827,65.21ZM217.543,46.518C217.543,45.807 217.301,45.211 216.821,44.73C216.34,44.249 215.744,44.009 215.034,44.009C214.322,44.009 213.726,44.249 213.246,44.73C212.764,45.211 212.524,45.807 212.524,46.518L212.524,74.368C212.524,75.08 212.754,75.687 213.214,76.188C213.674,76.69 214.281,76.941 215.034,76.941C215.744,76.941 216.34,76.69 216.821,76.188C217.301,75.687 217.543,75.08 217.543,74.368L217.543,46.518ZM217.323,39.179C217.845,38.761 218.107,38.112 218.107,37.234L218.107,36.355C218.107,35.477 217.856,34.829 217.354,34.411C216.852,33.993 216.099,33.784 215.096,33.784C214.093,33.784 213.318,33.993 212.775,34.411C212.231,34.829 211.959,35.477 211.959,36.355L211.959,37.234C211.959,38.112 212.211,38.761 212.712,39.179C213.214,39.596 213.987,39.805 215.034,39.805C216.037,39.805 216.799,39.596 217.323,39.179ZM243.449,44.824C242.11,45.367 240.897,46.1 239.811,47.019C238.723,47.94 237.835,48.943 237.145,50.03C236.455,51.118 236.025,52.205 235.859,53.292L237.239,51.786L237.239,47.019C237.239,46.308 237.008,45.713 236.548,45.232C236.088,44.752 235.482,44.51 234.73,44.51C234.019,44.51 233.422,44.752 232.942,45.232C232.46,45.713 232.221,46.308 232.221,47.019L232.221,74.368C232.221,75.08 232.46,75.687 232.942,76.188C233.422,76.69 234.019,76.941 234.73,76.941C235.44,76.941 236.036,76.69 236.518,76.188C236.998,75.687 237.239,75.08 237.239,74.368L237.239,57.181C237.239,55.592 237.656,54.161 238.494,52.885C239.329,51.61 240.438,50.585 241.818,49.81C243.198,49.037 244.725,48.65 246.397,48.65C248.237,48.65 249.68,49.037 250.726,49.81C251.771,50.585 252.514,51.61 252.952,52.885C253.391,54.161 253.611,55.592 253.611,57.181L253.611,74.368C253.611,75.08 253.851,75.687 254.332,76.188C254.813,76.69 255.409,76.941 256.12,76.941C256.872,76.941 257.479,76.69 257.939,76.188C258.398,75.687 258.629,75.08 258.629,74.368L258.629,57.369C258.629,55.739 259.047,54.265 259.884,52.947C260.721,51.63 261.85,50.585 263.271,49.81C264.692,49.037 266.261,48.65 267.977,48.65C269.815,48.65 271.269,49.037 272.336,49.81C273.402,50.585 274.175,51.63 274.656,52.947C275.137,54.265 275.378,55.739 275.378,57.369L275.378,74.368C275.378,75.08 275.607,75.687 276.067,76.188C276.527,76.69 277.134,76.941 277.887,76.941C278.598,76.941 279.193,76.69 279.675,76.188C280.155,75.687 280.396,75.08 280.396,74.368L280.396,57.244C280.396,54.777 280.051,52.551 279.361,50.563C278.671,48.578 277.531,46.988 275.942,45.796C274.353,44.604 272.179,44.009 269.419,44.009C267.703,44.009 266.052,44.365 264.463,45.075C262.874,45.787 261.472,46.685 260.26,47.772C259.047,48.86 258.19,49.989 257.687,51.159L257.249,52.289L258.19,52.289C257.604,49.654 256.423,47.615 254.646,46.173C252.868,44.73 250.558,44.009 247.714,44.009C246.209,44.009 244.787,44.281 243.449,44.824Z"
        class="cls-s" style="fill: var(--logo-secondary);"
      />
    </g>
    <g transform="matrix(4.16667,0,0,4.16667,0,0)">
      <clipPath id="_clip1">
        <path
          d="M106.657,-67.922L-69.548,44.551L43.083,221.008L219.29,108.535L106.657,-67.922Z"
        />
      </clipPath>
      <g clip-path="url(#_clip1)">
        <path
          d="M73.076,1.017C70.873,2.104 69.967,4.771 71.054,6.974L141.3,149.42C142.387,151.623 145.054,152.528 147.258,151.441C149.461,150.355 150.368,147.687 149.281,145.484L79.034,3.039C78.259,1.469 76.681,0.557 75.04,0.557C74.379,0.557 73.709,0.705 73.076,1.017ZM59.377,30.886C59.23,30.901 59.086,30.926 58.942,30.954C58.807,30.981 58.672,31.01 58.538,31.05C58.381,31.097 58.231,31.157 58.08,31.221C58,31.255 57.918,31.273 57.839,31.311C57.801,31.33 57.772,31.357 57.734,31.376C57.583,31.456 57.442,31.551 57.301,31.647C57.199,31.718 57.093,31.784 56.999,31.862C56.876,31.961 56.766,32.075 56.655,32.187C56.56,32.283 56.463,32.376 56.378,32.479C56.286,32.591 56.208,32.715 56.125,32.836C56.043,32.96 55.96,33.082 55.891,33.213C55.868,33.255 55.836,33.29 55.814,33.334L0.459,145.583C-0.626,147.786 0.278,150.454 2.482,151.541C3.1,151.846 3.756,151.993 4.403,152L4.489,152C6.114,151.984 7.671,151.075 8.439,149.517L59.806,45.357L69.82,65.664L42.469,121.122C42.422,121.218 42.4,121.319 42.36,121.416C42.297,121.568 42.233,121.719 42.189,121.877C42.157,121.985 42.14,122.094 42.117,122.203C42.078,122.387 42.045,122.569 42.029,122.758C42.024,122.836 42.025,122.914 42.024,122.992C42.017,123.213 42.023,123.431 42.05,123.651C42.055,123.693 42.065,123.732 42.072,123.773C42.109,124.023 42.164,124.268 42.246,124.513C42.249,124.521 42.252,124.53 42.255,124.539C42.325,124.744 42.394,124.95 42.496,125.149C43.621,127.334 46.305,128.192 48.488,127.067L74.781,113.525L101.074,127.067C101.164,127.113 101.259,127.137 101.351,127.176C101.499,127.24 101.645,127.305 101.799,127.352C101.937,127.395 102.075,127.423 102.215,127.451C102.356,127.48 102.496,127.511 102.64,127.525C102.785,127.541 102.929,127.542 103.073,127.543C103.216,127.545 103.359,127.547 103.503,127.533C103.649,127.52 103.79,127.493 103.934,127.466C104.072,127.438 104.211,127.415 104.349,127.375C104.504,127.33 104.652,127.267 104.802,127.205C104.893,127.167 104.988,127.146 105.079,127.102C105.106,127.088 105.129,127.067 105.157,127.053C105.306,126.976 105.443,126.881 105.583,126.787C105.688,126.716 105.799,126.651 105.897,126.573C106.011,126.482 106.11,126.374 106.216,126.27C106.32,126.168 106.43,126.069 106.522,125.958C106.603,125.862 106.669,125.752 106.743,125.647C106.839,125.51 106.936,125.374 107.015,125.226C107.03,125.198 107.051,125.177 107.066,125.149C107.112,125.059 107.135,124.964 107.175,124.874C107.239,124.725 107.303,124.578 107.351,124.425C107.394,124.287 107.421,124.148 107.449,124.009C107.479,123.867 107.509,123.726 107.525,123.582C107.539,123.437 107.54,123.295 107.541,123.149C107.542,123.006 107.545,122.863 107.532,122.72C107.519,122.574 107.492,122.433 107.464,122.29C107.437,122.15 107.415,122.012 107.373,121.874C107.329,121.72 107.266,121.572 107.204,121.422C107.167,121.33 107.146,121.235 107.101,121.143L63.797,33.334C63.774,33.29 63.744,33.256 63.721,33.213C63.651,33.082 63.569,32.959 63.485,32.835C63.403,32.714 63.325,32.591 63.234,32.479C63.148,32.376 63.051,32.283 62.956,32.187C62.844,32.074 62.735,31.961 62.613,31.862C62.519,31.784 62.412,31.718 62.309,31.647C62.169,31.551 62.028,31.456 61.877,31.376C61.84,31.357 61.81,31.33 61.772,31.311C61.694,31.273 61.611,31.255 61.531,31.221C61.38,31.157 61.231,31.097 61.073,31.05C60.939,31.01 60.806,30.981 60.67,30.954C60.525,30.926 60.382,30.901 60.234,30.886C60.091,30.872 59.949,30.869 59.806,30.869C59.662,30.869 59.521,30.872 59.377,30.886ZM74.78,75.723L93.153,112.98L76.986,104.653C76.677,104.477 76.348,104.346 76.007,104.249C75.981,104.242 75.956,104.238 75.93,104.232C75.673,104.164 75.414,104.116 75.149,104.095C75.134,104.094 75.12,104.094 75.106,104.094C75.093,104.094 75.08,104.094 75.069,104.093C74.807,104.076 74.544,104.079 74.28,104.109C74.267,104.11 74.253,104.115 74.24,104.117C73.972,104.15 73.705,104.205 73.441,104.291C73.434,104.293 73.429,104.296 73.423,104.298C73.198,104.372 72.972,104.449 72.754,104.561L56.405,112.981L74.78,75.723Z"
          class="cls-g" style="fill: var(--logo-gradient);"
        />
      </g>
    </g>
  </g>
  <defs>
    <linearGradient
      id="LogoGradient"
      x1="0"
      y1="0"
      x2="1"
      y2="0"
      gradientUnits="userSpaceOnUse"
      gradientTransform="matrix(-84.2776,53.7942,-53.7942,-84.2776,126.778,43.41)"
    >
      <stop offset="0" style="stop-color:rgb(13,125,188);stop-opacity:1" />
      <stop offset="1" style="stop-color:rgb(14,172,187);stop-opacity:1" />
    </linearGradient>
  </defs>
</svg>
