<?xml version="1.0" encoding="UTF-8" standalone="no"?>
<!DOCTYPE svg PUBLIC "-//W3C//DTD SVG 1.1//EN" "http://www.w3.org/Graphics/SVG/1.1/DTD/svg11.dtd">
<svg width="100%" height="100%" viewBox="0 0 3779 2800" version="1.1"  style="fill-rule:evenodd;clip-rule:evenodd;stroke-linejoin:round;stroke-miterlimit:1.41421;">
    <g transform="matrix(1,0,0,1,224.074,-1263.82)">
        <g transform="matrix(4.16667,0,0,4.16667,0,0)">
            <g>
                <path d="M630.973,606.09L626.287,605.78C626.287,605.78 624.274,605.309 624.31,604.767C624.341,604.297 626.401,604.058 626.401,604.058L631.086,604.369L630.973,606.09Z" style="fill:rgb(11,11,22);fill-rule:nonzero;"/>
                <path d="M629.601,606.021L640.963,610.019L642.73,609.92L643.248,602.085L641.506,601.808L629.717,604.274L629.601,606.021Z" style="fill:rgb(232,207,180);fill-rule:nonzero;"/>
                <path d="M796.595,618.822C796.54,619.647 795.826,620.273 795.002,620.219L783.044,619.428C782.218,619.373 781.594,618.659 781.648,617.833L781.994,612.601C782.049,611.775 782.762,611.151 783.587,611.205L795.545,611.996C796.371,612.051 796.995,612.765 796.94,613.59L796.595,618.822Z" style="fill:rgb(226,67,66);fill-rule:nonzero;"/>
                <path d="M789.898,619.879L640.886,610.024C640.886,610.024 641.678,609.753 641.731,608.951C641.781,608.196 641.035,607.775 641.035,607.775C641.035,607.775 642.329,607.377 642.422,605.981C642.507,604.681 641.281,604.05 641.281,604.05C641.281,604.05 642.079,603.684 642.129,602.929C642.174,602.255 641.43,601.803 641.43,601.803L790.442,611.658L789.898,619.879Z" style="fill:rgb(254,192,66);fill-rule:nonzero;"/>
                <path d="M789.984,620.045L776.624,619.163L777.189,610.621L790.55,611.505L789.984,620.045Z" style="fill:rgb(208,211,211);fill-rule:nonzero;"/>
                <path d="M787.673,619.894L785.583,619.755L786.148,611.212L788.236,611.351L787.673,619.894Z" style="fill:rgb(124,129,132);fill-rule:nonzero;"/>
                <path d="M784.783,619.701L784.042,619.653L784.606,611.11L785.347,611.16L784.783,619.701Z" style="fill:rgb(124,129,132);fill-rule:nonzero;"/>
                <path d="M789.214,619.995L788.475,619.946L789.038,611.404L789.779,611.453L789.214,619.995Z" style="fill:rgb(124,129,132);fill-rule:nonzero;"/>
                <path d="M658.135,513.581L654.954,510.127C654.954,510.127 653.821,508.397 654.221,508.029C654.567,507.711 656.225,508.958 656.225,508.958L659.403,512.414L658.135,513.581Z" style="fill:rgb(11,11,22);fill-rule:nonzero;"/>
                <path d="M657.188,512.586L662.664,523.315L664.013,524.461L669.788,519.143L668.718,517.74L658.477,511.4L657.188,512.586Z" style="fill:rgb(232,207,180);fill-rule:nonzero;"/>
                <path d="M730.232,594.618C729.624,595.178 728.675,595.139 728.115,594.531L719.998,585.715C719.438,585.105 719.478,584.158 720.087,583.598L723.944,580.046C724.553,579.485 725.499,579.524 726.061,580.133L734.178,588.949C734.738,589.559 734.698,590.506 734.09,591.065L730.232,594.618Z" style="fill:rgb(226,67,66);fill-rule:nonzero;"/>
                <path d="M724.652,590.767L662.604,523.265C662.604,523.265 663.365,523.614 663.956,523.07C664.513,522.56 664.263,521.739 664.263,521.739C664.263,521.739 665.475,522.342 666.504,521.396C667.462,520.513 667.009,519.211 667.009,519.211C667.009,519.211 667.84,519.495 668.396,518.982C668.894,518.524 668.666,517.685 668.666,517.685L730.714,585.187L724.652,590.767Z" style="fill:rgb(254,192,66);fill-rule:nonzero;"/>
                <path d="M724.601,590.946L715.53,581.098L721.828,575.3L730.897,585.149L724.601,590.946Z" style="fill:rgb(208,211,211);fill-rule:nonzero;"/>
                <path d="M723.03,589.243L721.612,587.702L727.911,581.903L729.328,583.443L723.03,589.243Z" style="fill:rgb(124,129,132);fill-rule:nonzero;"/>
                <path d="M721.069,587.112L720.565,586.566L726.864,580.767L727.366,581.313L721.069,587.112Z" style="fill:rgb(124,129,132);fill-rule:nonzero;"/>
                <path d="M724.077,590.379L723.575,589.834L729.871,584.035L730.375,584.581L724.077,590.379Z" style="fill:rgb(124,129,132);fill-rule:nonzero;"/>
                <path d="M151.436,544.205L277.779,509.835C279.985,509.235 282.886,506.66 283.083,504.104L296.896,394.446C296.295,392.24 292.983,389.458 290.779,390.058L-51.632,483.207C-53.838,483.807 -54.099,487.56 -53.5,489.766L13.961,577.315C15.427,579.419 19.23,580.169 21.437,579.568L150.54,544.448L151.436,544.205Z" style="fill:rgb(54,57,61);fill-rule:nonzero;"/>
                <path d="M150.933,542.208L277.327,507.825C279.463,507.244 282.271,504.749 282.461,502.274L295.933,395.719C295.351,393.583 293.15,392.322 291.015,392.902L123.767,438.4L121.896,438.909L-49.025,485.406C-51.16,485.986 -52.421,488.189 -51.841,490.326L13.755,575.37C15.174,577.408 18.858,578.137 20.994,577.555L150.064,542.443L150.933,542.208Z" style="fill:rgb(11,11,22);fill-rule:nonzero;"/>
                <path d="M271.907,496.637L19.194,565.384L-34.955,495.681L284.856,408.68L271.907,496.637Z" style="fill:white;fill-rule:nonzero;"/>
                <path d="M333.618,687.502C334.223,689.723 332.911,692.014 330.689,692.618L69.502,763.669C67.279,764.273 64.989,762.963 64.384,760.74L15.655,581.609C15.05,579.389 16.361,577.098 18.584,576.492L279.771,505.441C281.994,504.838 284.286,506.149 284.889,508.371L333.618,687.502Z" style="fill:rgb(229,231,230);fill-rule:nonzero;"/>
                <path d="M253.318,522.738L50.59,577.887L47.817,567.696L250.546,512.548L253.318,522.738Z" style="fill:rgb(16,20,26);fill-rule:nonzero;"/>
                <path d="M248.505,701.603C248.633,702.074 248.354,702.558 247.884,702.686L147.973,729.866C147.502,729.994 147.018,729.715 146.89,729.244L130.141,667.681C130.014,667.209 130.291,666.724 130.761,666.596L230.674,639.417C231.144,639.289 231.63,639.568 231.758,640.037L248.505,701.603Z" style="fill:rgb(231,231,230);fill-rule:nonzero;"/>
                <path d="M248.505,701.603L248.113,701.711C248.18,701.962 248.031,702.224 247.777,702.293L147.866,729.474C147.613,729.541 147.352,729.393 147.283,729.139L130.535,667.573C130.466,667.32 130.616,667.058 130.867,666.989L130.871,666.989L130.761,666.604L130.815,666.999L130.871,666.989L130.761,666.604L130.815,666.999L130.841,666.995L230.781,639.811C231.034,639.741 231.295,639.892 231.365,640.144L248.113,701.711L248.505,701.603L248.899,701.496L232.151,639.929C231.963,639.242 231.254,638.838 230.566,639.022L130.655,666.203L130.761,666.596L130.707,666.192L130.659,666.202L130.649,666.204L130.751,666.563L130.653,666.203L130.649,666.204L130.751,666.563L130.653,666.203C129.965,666.392 129.562,667.102 129.748,667.787L146.497,729.353C146.684,730.041 147.394,730.446 148.08,730.26L247.991,703.08C248.677,702.894 249.085,702.186 248.899,701.496L248.505,701.603Z" style="fill:rgb(208,211,211);fill-rule:nonzero;"/>
                <path d="M70.321,592.595C70.422,592.969 70.203,593.353 69.828,593.455L58.485,596.54C58.111,596.643 57.727,596.422 57.624,596.051L55.875,589.616C55.772,589.243 55.993,588.854 56.367,588.754L67.71,585.668C68.085,585.567 68.469,585.787 68.571,586.163L70.321,592.595Z" style="fill:rgb(16,20,26);fill-rule:nonzero;"/>
                <path d="M73.929,605.855C74.03,606.229 73.809,606.614 73.436,606.717L62.092,609.802C61.718,609.903 61.334,609.684 61.231,609.31L58.461,599.124C58.359,598.749 58.58,598.366 58.954,598.263L70.297,595.177C70.671,595.077 71.057,595.296 71.158,595.669L73.929,605.855Z" style="fill:rgb(16,20,26);fill-rule:nonzero;"/>
                <path d="M88.749,663.008C88.85,663.381 88.629,663.766 88.255,663.868L77.591,666.771C77.216,666.871 76.83,666.65 76.729,666.278L73.405,654.06C73.304,653.685 73.524,653.301 73.897,653.198L84.564,650.297C84.939,650.194 85.323,650.416 85.425,650.789L88.749,663.008Z" style="fill:rgb(16,20,26);fill-rule:nonzero;"/>
                <path d="M102.856,659.169C102.958,659.543 102.737,659.928 102.363,660.028L91.697,662.932C91.322,663.033 90.937,662.813 90.835,662.44L87.513,650.223C87.411,649.849 87.632,649.462 88.006,649.361L98.67,646.459C99.045,646.357 99.43,646.578 99.533,646.952L102.856,659.169Z" style="fill:rgb(16,20,26);fill-rule:nonzero;"/>
                <path d="M116.965,655.332C117.067,655.706 116.846,656.09 116.471,656.192L105.806,659.095C105.432,659.193 105.046,658.976 104.944,658.601L101.621,646.383C101.52,646.009 101.74,645.625 102.115,645.523L112.779,642.621C113.154,642.518 113.539,642.74 113.641,643.113L116.965,655.332Z" style="fill:rgb(16,20,26);fill-rule:nonzero;"/>
                <path d="M235.302,623.14C235.403,623.514 235.182,623.899 234.808,624L224.142,626.903C223.768,627.005 223.382,626.783 223.281,626.41L219.959,614.192C219.856,613.818 220.076,613.433 220.45,613.332L231.116,610.43C231.491,610.328 231.875,610.549 231.977,610.923L235.302,623.14Z" style="fill:rgb(16,20,26);fill-rule:nonzero;"/>
                <path d="M249.352,619.318C249.454,619.692 249.233,620.076 248.858,620.179L238.193,623.079C237.819,623.182 237.435,622.961 237.332,622.589L235.958,617.537C235.856,617.163 236.077,616.777 236.451,616.675L247.115,613.775C247.492,613.674 247.876,613.894 247.978,614.268L249.352,619.318Z" style="fill:rgb(16,20,26);fill-rule:nonzero;"/>
                <path d="M277.455,611.673C277.556,612.047 277.335,612.433 276.96,612.533L266.296,615.437C265.922,615.537 265.537,615.317 265.436,614.943L264.061,609.892C263.96,609.519 264.182,609.132 264.553,609.031L275.218,606.13C275.593,606.027 275.98,606.25 276.083,606.622L277.455,611.673Z" style="fill:rgb(16,20,26);fill-rule:nonzero;"/>
                <path d="M263.403,615.496C263.505,615.871 263.285,616.255 262.911,616.357L252.244,619.258C251.87,619.36 251.486,619.14 251.384,618.765L248.06,606.548C247.958,606.175 248.179,605.789 248.553,605.687L259.217,602.784C259.592,602.684 259.978,602.904 260.079,603.278L263.403,615.496Z" style="fill:rgb(16,20,26);fill-rule:nonzero;"/>
                <path d="M134.572,650.543C134.673,650.917 134.453,651.302 134.078,651.403L120.027,655.225C119.652,655.326 119.268,655.106 119.165,654.732L115.842,642.516C115.74,642.142 115.961,641.757 116.335,641.654L130.386,637.831C130.759,637.73 131.146,637.95 131.248,638.323L134.572,650.543Z" style="fill:rgb(16,20,26);fill-rule:nonzero;"/>
                <path d="M220.572,627.146C220.674,627.521 220.454,627.907 220.079,628.008L206.028,631.831C205.654,631.933 205.269,631.712 205.167,631.339L201.844,619.121C201.741,618.745 201.961,618.36 202.336,618.259L216.386,614.437C216.761,614.334 217.147,614.555 217.25,614.93L220.572,627.146Z" style="fill:rgb(16,20,26);fill-rule:nonzero;"/>
                <path d="M203.7,631.738C203.8,632.111 203.58,632.497 203.206,632.599L137.633,650.437C137.258,650.538 136.875,650.317 136.771,649.944L133.449,637.726C133.347,637.353 133.567,636.967 133.941,636.865L199.515,619.024C199.888,618.924 200.274,619.146 200.377,619.52L203.7,631.738Z" style="fill:rgb(16,20,26);fill-rule:nonzero;"/>
                <path d="M88.148,601.988C88.251,602.361 88.031,602.746 87.656,602.848L76.314,605.934C75.939,606.036 75.553,605.813 75.452,605.441L72.682,595.256C72.58,594.881 72.8,594.496 73.174,594.394L84.518,591.309C84.892,591.206 85.276,591.428 85.378,591.801L88.148,601.988Z" style="fill:rgb(16,20,26);fill-rule:nonzero;"/>
                <path d="M98.065,614.041C98.167,614.414 97.946,614.801 97.572,614.901L86.231,617.988C85.855,618.09 85.469,617.868 85.368,617.495L82.596,607.308C82.495,606.935 82.716,606.549 83.09,606.446L94.432,603.361C94.807,603.259 95.192,603.48 95.293,603.854L98.065,614.041Z" style="fill:rgb(16,20,26);fill-rule:nonzero;"/>
                <path d="M112.286,610.171C112.388,610.547 112.168,610.931 111.794,611.033L100.45,614.119C100.076,614.222 99.69,614 99.588,613.626L96.818,603.44C96.715,603.066 96.936,602.682 97.31,602.579L108.653,599.493C109.028,599.391 109.414,599.612 109.515,599.986L112.286,610.171Z" style="fill:rgb(16,20,26);fill-rule:nonzero;"/>
                <path d="M126.337,606.351C126.44,606.725 126.219,607.11 125.844,607.212L114.501,610.296C114.126,610.399 113.742,610.179 113.64,609.802L110.869,599.617C110.767,599.245 110.988,598.858 111.362,598.757L122.705,595.67C123.08,595.569 123.465,595.791 123.567,596.164L126.337,606.351Z" style="fill:rgb(16,20,26);fill-rule:nonzero;"/>
                <path d="M140.389,602.526C140.491,602.9 140.27,603.287 139.895,603.388L128.552,606.474C128.177,606.575 127.793,606.355 127.691,605.981L124.92,595.795C124.82,595.421 125.04,595.035 125.413,594.935L136.757,591.85C137.13,591.746 137.515,591.968 137.617,592.342L140.389,602.526Z" style="fill:rgb(16,20,26);fill-rule:nonzero;"/>
                <path d="M154.27,598.751C154.373,599.125 154.153,599.511 153.778,599.612L142.435,602.696C142.061,602.8 141.675,602.579 141.574,602.206L138.802,592.019C138.7,591.646 138.922,591.259 139.295,591.158L150.638,588.072C151.013,587.97 151.398,588.19 151.499,588.565L154.27,598.751Z" style="fill:rgb(16,20,26);fill-rule:nonzero;"/>
                <path d="M167.983,595.02C168.085,595.395 167.863,595.779 167.491,595.882L156.146,598.968C155.773,599.068 155.389,598.85 155.287,598.474L152.516,588.289C152.414,587.914 152.635,587.527 153.007,587.429L164.351,584.342C164.724,584.24 165.11,584.46 165.212,584.835L167.983,595.02Z" style="fill:rgb(16,20,26);fill-rule:nonzero;"/>
                <path d="M182.288,591.13C182.39,591.504 182.17,591.887 181.795,591.99L170.453,595.074C170.079,595.177 169.694,594.956 169.592,594.582L166.821,584.397C166.72,584.022 166.941,583.638 167.315,583.536L178.656,580.45C179.031,580.347 179.415,580.569 179.517,580.941L182.288,591.13Z" style="fill:rgb(16,20,26);fill-rule:nonzero;"/>
                <path d="M196.003,587.397C196.104,587.773 195.882,588.157 195.508,588.258L184.166,591.345C183.791,591.447 183.405,591.227 183.304,590.853L180.532,580.666C180.432,580.292 180.651,579.908 181.026,579.806L192.369,576.72C192.744,576.617 193.129,576.839 193.231,577.214L196.003,587.397Z" style="fill:rgb(16,20,26);fill-rule:nonzero;"/>
                <path d="M210.053,583.575C210.153,583.95 209.934,584.337 209.561,584.438L198.217,587.523C197.843,587.625 197.458,587.405 197.356,587.03L194.585,576.844C194.483,576.47 194.703,576.085 195.077,575.982L206.42,572.897C206.793,572.795 207.181,573.017 207.281,573.391L210.053,583.575Z" style="fill:rgb(16,20,26);fill-rule:nonzero;"/>
                <path d="M223.595,579.892C223.697,580.267 223.478,580.651 223.102,580.752L211.761,583.839C211.387,583.941 211.001,583.72 210.898,583.345L208.128,573.16C208.026,572.786 208.247,572.401 208.621,572.3L219.964,569.213C220.339,569.111 220.723,569.332 220.824,569.706L223.595,579.892Z" style="fill:rgb(16,20,26);fill-rule:nonzero;"/>
                <path d="M237.816,576.023C237.918,576.398 237.698,576.784 237.325,576.885L225.982,579.972C225.607,580.072 225.221,579.852 225.119,579.477L222.348,569.291C222.247,568.917 222.469,568.532 222.844,568.43L234.185,565.344C234.558,565.243 234.944,565.464 235.046,565.839L237.816,576.023Z" style="fill:rgb(16,20,26);fill-rule:nonzero;"/>
                <path d="M251.952,572.178C252.054,572.552 251.833,572.938 251.46,573.039L240.117,576.126C239.742,576.228 239.357,576.007 239.255,575.632L236.485,565.447C236.382,565.073 236.604,564.687 236.978,564.584L248.321,561.499C248.695,561.398 249.08,561.617 249.181,561.993L251.952,572.178Z" style="fill:rgb(16,20,26);fill-rule:nonzero;"/>
                <path d="M105.158,626.747C105.26,627.123 105.039,627.506 104.665,627.607L93.322,630.694C92.948,630.795 92.563,630.575 92.46,630.201L89.689,620.016C89.588,619.641 89.809,619.256 90.183,619.155L101.526,616.069C101.9,615.965 102.285,616.188 102.386,616.562L105.158,626.747Z" style="fill:rgb(16,20,26);fill-rule:nonzero;"/>
                <path d="M119.379,622.879C119.481,623.254 119.259,623.639 118.885,623.74L107.542,626.826C107.168,626.927 106.785,626.707 106.683,626.333L103.912,616.146C103.809,615.772 104.029,615.387 104.404,615.286L115.747,612.2C116.122,612.098 116.506,612.32 116.607,612.692L119.379,622.879Z" style="fill:rgb(16,20,26);fill-rule:nonzero;"/>
                <path d="M133.43,619.055C133.53,619.431 133.312,619.817 132.937,619.919L121.595,623.004C121.221,623.105 120.835,622.885 120.733,622.512L117.963,612.324C117.861,611.951 118.08,611.565 118.456,611.463L129.797,608.378C130.173,608.276 130.557,608.497 130.659,608.871L133.43,619.055Z" style="fill:rgb(16,20,26);fill-rule:nonzero;"/>
                <path d="M147.481,615.233C147.583,615.609 147.361,615.993 146.988,616.095L135.646,619.181C135.271,619.283 134.887,619.063 134.785,618.687L132.014,608.503C131.913,608.127 132.133,607.743 132.506,607.642L143.851,604.555C144.223,604.455 144.609,604.674 144.709,605.048L147.481,615.233Z" style="fill:rgb(16,20,26);fill-rule:nonzero;"/>
                <path d="M161.364,611.456C161.464,611.83 161.246,612.218 160.872,612.319L149.528,615.405C149.155,615.507 148.769,615.286 148.666,614.911L145.896,604.725C145.794,604.351 146.014,603.967 146.388,603.864L157.731,600.78C158.105,600.678 158.491,600.897 158.592,601.271L161.364,611.456Z" style="fill:rgb(16,20,26);fill-rule:nonzero;"/>
                <path d="M175.078,607.729C175.179,608.101 174.958,608.487 174.583,608.59L163.24,611.674C162.867,611.776 162.481,611.556 162.379,611.181L159.608,600.995C159.506,600.623 159.729,600.235 160.102,600.135L171.444,597.048C171.819,596.946 172.205,597.168 172.305,597.541L175.078,607.729Z" style="fill:rgb(16,20,26);fill-rule:nonzero;"/>
                <path d="M189.381,603.837C189.483,604.21 189.263,604.596 188.888,604.697L177.545,607.782C177.171,607.884 176.787,607.663 176.684,607.291L173.913,597.104C173.813,596.73 174.033,596.344 174.406,596.242L185.749,593.158C186.123,593.055 186.509,593.275 186.61,593.649L189.381,603.837Z" style="fill:rgb(16,20,26);fill-rule:nonzero;"/>
                <path d="M203.095,600.106C203.196,600.48 202.975,600.865 202.603,600.968L191.258,604.054C190.885,604.154 190.499,603.935 190.397,603.559L187.625,593.373C187.523,593 187.746,592.613 188.121,592.512L199.462,589.426C199.837,589.324 200.222,589.546 200.325,589.919L203.095,600.106Z" style="fill:rgb(16,20,26);fill-rule:nonzero;"/>
                <path d="M217.146,596.283C217.248,596.657 217.026,597.045 216.653,597.145L205.311,600.23C204.936,600.331 204.55,600.11 204.449,599.737L201.676,589.552C201.575,589.178 201.796,588.792 202.171,588.689L213.513,585.605C213.887,585.503 214.273,585.725 214.375,586.098L217.146,596.283Z" style="fill:rgb(16,20,26);fill-rule:nonzero;"/>
                <path d="M230.689,592.598C230.791,592.972 230.57,593.358 230.195,593.461L218.854,596.546C218.479,596.649 218.093,596.427 217.993,596.054L215.221,585.866C215.12,585.493 215.339,585.107 215.714,585.006L227.057,581.92C227.429,581.819 227.816,582.04 227.918,582.412L230.689,592.598Z" style="fill:rgb(16,20,26);fill-rule:nonzero;"/>
                <path d="M244.909,588.729C245.011,589.105 244.791,589.491 244.416,589.593L233.074,592.678C232.699,592.78 232.315,592.56 232.213,592.185L229.443,581.997C229.341,581.624 229.56,581.238 229.935,581.138L241.277,578.052C241.651,577.95 242.037,578.17 242.139,578.545L244.909,588.729Z" style="fill:rgb(16,20,26);fill-rule:nonzero;"/>
                <path d="M259.045,584.884C259.146,585.26 258.926,585.645 258.552,585.746L247.209,588.832C246.837,588.934 246.451,588.714 246.35,588.339L243.578,578.152C243.477,577.779 243.697,577.393 244.071,577.291L255.414,574.205C255.788,574.105 256.172,574.325 256.273,574.699L259.045,584.884Z" style="fill:rgb(16,20,26);fill-rule:nonzero;"/>
                <path d="M102.591,642.265C102.693,642.639 102.471,643.024 102.098,643.125L90.755,646.211C90.38,646.313 89.995,646.092 89.893,645.719L87.123,635.532C87.021,635.158 87.242,634.773 87.616,634.671L98.959,631.585C99.333,631.483 99.718,631.703 99.819,632.079L102.591,642.265Z" style="fill:rgb(16,20,26);fill-rule:nonzero;"/>
                <path d="M116.813,638.395C116.913,638.77 116.693,639.155 116.319,639.258L104.976,642.341C104.601,642.443 104.216,642.223 104.114,641.849L101.342,631.663C101.242,631.29 101.462,630.902 101.836,630.803L113.18,627.718C113.553,627.616 113.939,627.836 114.041,628.21L116.813,638.395Z" style="fill:rgb(16,20,26);fill-rule:nonzero;"/>
                <path d="M130.863,634.575C130.966,634.947 130.743,635.334 130.369,635.435L119.027,638.521C118.652,638.622 118.267,638.401 118.166,638.027L115.395,627.842C115.292,627.468 115.513,627.082 115.888,626.979L127.231,623.895C127.604,623.794 127.99,624.014 128.091,624.388L130.863,634.575Z" style="fill:rgb(16,20,26);fill-rule:nonzero;"/>
                <path d="M144.915,630.751C145.016,631.126 144.795,631.511 144.422,631.611L133.079,634.698C132.703,634.8 132.319,634.579 132.217,634.206L129.446,624.021C129.345,623.646 129.565,623.26 129.938,623.158L141.281,620.072C141.656,619.971 142.042,620.19 142.143,620.565L144.915,630.751Z" style="fill:rgb(16,20,26);fill-rule:nonzero;"/>
                <path d="M158.796,626.976C158.898,627.348 158.678,627.733 158.304,627.835L146.961,630.921C146.586,631.023 146.201,630.803 146.099,630.43L143.327,620.243C143.225,619.869 143.448,619.483 143.821,619.382L155.164,616.295C155.539,616.194 155.924,616.415 156.027,616.787L158.796,626.976Z" style="fill:rgb(16,20,26);fill-rule:nonzero;"/>
                <path d="M172.509,623.244C172.61,623.617 172.391,624.004 172.017,624.107L160.673,627.192C160.299,627.294 159.913,627.072 159.811,626.698L157.042,616.512C156.94,616.139 157.159,615.753 157.533,615.651L168.876,612.563C169.251,612.463 169.636,612.685 169.739,613.058L172.509,623.244Z" style="fill:rgb(16,20,26);fill-rule:nonzero;"/>
                <path d="M186.815,619.353C186.917,619.726 186.695,620.112 186.322,620.214L174.979,623.3C174.605,623.402 174.218,623.181 174.117,622.809L171.347,612.619C171.246,612.246 171.464,611.86 171.84,611.758L183.182,608.674C183.556,608.571 183.943,608.794 184.044,609.167L186.815,619.353Z" style="fill:rgb(16,20,26);fill-rule:nonzero;"/>
                <path d="M200.527,615.621C200.628,615.997 200.407,616.384 200.034,616.483L188.69,619.569C188.317,619.671 187.932,619.45 187.83,619.075L185.059,608.891C184.957,608.517 185.178,608.132 185.551,608.029L196.896,604.943C197.269,604.843 197.655,605.063 197.755,605.438L200.527,615.621Z" style="fill:rgb(16,20,26);fill-rule:nonzero;"/>
                <path d="M214.578,611.802C214.681,612.173 214.459,612.56 214.086,612.661L202.743,615.747C202.369,615.849 201.982,615.628 201.881,615.254L199.11,605.068C199.008,604.695 199.229,604.309 199.604,604.205L210.947,601.122C211.32,601.018 211.705,601.241 211.807,601.614L214.578,611.802Z" style="fill:rgb(16,20,26);fill-rule:nonzero;"/>
                <path d="M228.122,608.116C228.223,608.488 228.002,608.876 227.628,608.978L216.286,612.062C215.913,612.165 215.526,611.944 215.424,611.57L212.655,601.384C212.553,601.011 212.773,600.623 213.146,600.521L224.489,597.437C224.863,597.336 225.25,597.556 225.352,597.931L228.122,608.116Z" style="fill:rgb(16,20,26);fill-rule:nonzero;"/>
                <path d="M242.342,604.248C242.444,604.621 242.226,605.008 241.849,605.109L230.507,608.193C230.132,608.295 229.747,608.076 229.646,607.7L226.874,597.516C226.773,597.141 226.993,596.755 227.367,596.653L238.711,593.568C239.086,593.466 239.471,593.688 239.572,594.063L242.342,604.248Z" style="fill:rgb(16,20,26);fill-rule:nonzero;"/>
                <path d="M272.957,595.919C273.058,596.293 272.837,596.68 272.462,596.781L244.813,604.304C244.439,604.404 244.052,604.184 243.95,603.81L241.179,593.625C241.078,593.249 241.299,592.865 241.673,592.763L269.323,585.239C269.697,585.139 270.084,585.36 270.186,585.732L272.957,595.919Z" style="fill:rgb(16,20,26);fill-rule:nonzero;"/>
                <path d="M269.415,582.254C269.517,582.628 269.299,583.012 268.923,583.115L261.411,585.159C261.036,585.261 260.648,585.04 260.548,584.665L255.96,567.801C255.86,567.429 256.079,567.043 256.454,566.94L263.966,564.896C264.342,564.795 264.727,565.017 264.827,565.389L269.415,582.254Z" style="fill:rgb(16,20,26);fill-rule:nonzero;"/>
                <path d="M265.666,568.449C265.766,568.822 265.547,569.207 265.172,569.31L253.829,572.394C253.457,572.496 253.07,572.276 252.968,571.902L250.197,561.717C250.096,561.342 250.316,560.956 250.69,560.854L262.034,557.77C262.407,557.667 262.792,557.888 262.895,558.262L265.666,568.449Z" style="fill:rgb(16,20,26);fill-rule:nonzero;"/>
                <path d="M102.032,598.21C102.133,598.584 101.914,598.972 101.539,599.072L90.196,602.158C89.822,602.259 89.436,602.039 89.334,601.665L86.563,591.479C86.461,591.104 86.683,590.719 87.057,590.617L98.4,587.533C98.773,587.431 99.159,587.65 99.261,588.025L102.032,598.21Z" style="fill:rgb(16,20,26);fill-rule:nonzero;"/>
                <path d="M115.8,594.465C115.903,594.841 115.682,595.225 115.308,595.326L103.965,598.413C103.59,598.514 103.206,598.293 103.104,597.919L100.333,587.734C100.232,587.359 100.452,586.974 100.826,586.873L112.168,583.785C112.543,583.685 112.928,583.906 113.031,584.278L115.8,594.465Z" style="fill:rgb(16,20,26);fill-rule:nonzero;"/>
                <path d="M129.571,590.72C129.672,591.094 129.451,591.479 129.076,591.58L117.736,594.666C117.36,594.768 116.975,594.548 116.874,594.173L114.103,583.987C114.001,583.613 114.22,583.229 114.595,583.125L125.938,580.041C126.313,579.938 126.697,580.159 126.799,580.534L129.571,590.72Z" style="fill:rgb(16,20,26);fill-rule:nonzero;"/>
                <path d="M143.791,586.851C143.893,587.225 143.673,587.609 143.299,587.713L131.956,590.798C131.581,590.9 131.195,590.678 131.094,590.306L128.323,580.118C128.22,579.744 128.442,579.359 128.815,579.258L140.158,576.173C140.533,576.07 140.918,576.291 141.02,576.665L143.791,586.851Z" style="fill:rgb(16,20,26);fill-rule:nonzero;"/>
                <path d="M157.561,583.105C157.662,583.479 157.44,583.865 157.068,583.966L145.724,587.052C145.35,587.155 144.965,586.934 144.863,586.56L142.092,576.373C141.99,576 142.211,575.615 142.585,575.513L153.928,572.427C154.303,572.325 154.688,572.545 154.79,572.919L157.561,583.105Z" style="fill:rgb(16,20,26);fill-rule:nonzero;"/>
                <path d="M171.329,579.361C171.431,579.733 171.21,580.118 170.835,580.222L159.493,583.306C159.118,583.408 158.733,583.188 158.631,582.813L155.861,572.628C155.759,572.254 155.98,571.871 156.354,571.768L167.695,568.683C168.071,568.579 168.456,568.799 168.558,569.173L171.329,579.361Z" style="fill:rgb(16,20,26);fill-rule:nonzero;"/>
                <path d="M185.324,575.552C185.427,575.927 185.205,576.313 184.831,576.413L173.489,579.5C173.114,579.602 172.729,579.38 172.627,579.007L169.855,568.82C169.754,568.448 169.976,568.062 170.349,567.959L181.691,564.872C182.066,564.771 182.452,564.992 182.554,565.366L185.324,575.552Z" style="fill:rgb(16,20,26);fill-rule:nonzero;"/>
                <path d="M199.206,571.776C199.309,572.149 199.088,572.535 198.713,572.639L187.37,575.722C186.997,575.824 186.61,575.605 186.507,575.23L183.737,565.046C183.636,564.671 183.857,564.285 184.231,564.184L195.573,561.098C195.948,560.997 196.333,561.217 196.436,561.59L199.206,571.776Z" style="fill:rgb(16,20,26);fill-rule:nonzero;"/>
                <path d="M213.204,567.97C213.304,568.343 213.083,568.729 212.708,568.83L201.367,571.917C200.991,572.018 200.605,571.797 200.503,571.423L197.732,561.238C197.63,560.862 197.851,560.479 198.228,560.376L209.569,557.29C209.943,557.187 210.331,557.408 210.432,557.783L213.204,567.97Z" style="fill:rgb(16,20,26);fill-rule:nonzero;"/>
                <path d="M227.311,564.131C227.411,564.506 227.191,564.892 226.816,564.992L215.472,568.08C215.099,568.18 214.714,567.959 214.613,567.585L211.843,557.399C211.741,557.024 211.961,556.64 212.334,556.538L223.677,553.454C224.052,553.352 224.437,553.57 224.539,553.946L227.311,564.131Z" style="fill:rgb(16,20,26);fill-rule:nonzero;"/>
                <path d="M241.194,560.355C241.293,560.728 241.073,561.114 240.698,561.217L229.357,564.301C228.98,564.403 228.597,564.184 228.494,563.81L225.724,553.625C225.623,553.249 225.842,552.863 226.217,552.761L237.558,549.677C237.933,549.574 238.32,549.794 238.421,550.169L241.194,560.355Z" style="fill:rgb(16,20,26);fill-rule:nonzero;"/>
                <path d="M262.07,554.676C262.172,555.048 261.953,555.435 261.579,555.537L244.142,560.28C243.768,560.381 243.381,560.161 243.279,559.786L240.508,549.601C240.405,549.229 240.629,548.842 241.002,548.739L258.439,543.996C258.812,543.895 259.198,544.115 259.299,544.489L262.07,554.676Z" style="fill:rgb(16,20,26);fill-rule:nonzero;"/>
                <path d="M83.758,617.925C83.859,618.298 83.638,618.684 83.265,618.786L65.828,623.53C65.453,623.632 65.068,623.411 64.965,623.036L62.195,612.851C62.093,612.477 62.314,612.09 62.687,611.99L80.125,607.246C80.501,607.144 80.884,607.363 80.987,607.738L83.758,617.925Z" style="fill:rgb(16,20,26);fill-rule:nonzero;"/>
                <path d="M87.833,646.271C87.935,646.646 87.713,647.032 87.339,647.133L73.288,650.956C72.914,651.057 72.529,650.836 72.427,650.463L69.655,640.277C69.554,639.903 69.773,639.517 70.149,639.414L84.199,635.594C84.575,635.491 84.96,635.711 85.062,636.087L87.833,646.271Z" style="fill:rgb(16,20,26);fill-rule:nonzero;"/>
                <path d="M91.536,630.476C91.638,630.851 91.417,631.235 91.042,631.339L69.542,637.187C69.168,637.289 68.782,637.068 68.681,636.693L65.911,626.507C65.809,626.134 66.028,625.748 66.402,625.646L87.903,619.798C88.278,619.694 88.663,619.916 88.764,620.29L91.536,630.476Z" style="fill:rgb(16,20,26);fill-rule:nonzero;"/>
                <path d="M84.542,588.727C84.643,589.101 84.424,589.485 84.048,589.587L72.706,592.672C72.333,592.775 71.947,592.554 71.845,592.18L70.095,585.747C69.994,585.372 70.213,584.987 70.587,584.886L81.932,581.801C82.304,581.698 82.689,581.919 82.792,582.293L84.542,588.727Z" style="fill:rgb(16,20,26);fill-rule:nonzero;"/>
                <path d="M99.44,584.674C99.542,585.049 99.321,585.432 98.946,585.534L87.604,588.621C87.229,588.721 86.844,588.501 86.744,588.128L84.993,581.694C84.892,581.319 85.111,580.933 85.485,580.833L96.828,577.747C97.204,577.646 97.587,577.865 97.69,578.241L99.44,584.674Z" style="fill:rgb(16,20,26);fill-rule:nonzero;"/>
                <path d="M113.662,580.805C113.763,581.179 113.542,581.564 113.168,581.665L101.825,584.751C101.45,584.853 101.064,584.632 100.963,584.258L99.213,577.826C99.111,577.45 99.332,577.065 99.706,576.964L111.05,573.878C111.423,573.776 111.81,573.997 111.912,574.372L113.662,580.805Z" style="fill:rgb(16,20,26);fill-rule:nonzero;"/>
                <path d="M128.22,576.845C128.322,577.22 128.102,577.604 127.727,577.704L116.385,580.792C116.011,580.893 115.625,580.671 115.522,580.298L113.773,573.866C113.672,573.49 113.892,573.106 114.267,573.005L125.608,569.918C125.982,569.814 126.369,570.037 126.47,570.41L128.22,576.845Z" style="fill:rgb(16,20,26);fill-rule:nonzero;"/>
                <path d="M142.779,572.884C142.88,573.257 142.662,573.643 142.286,573.744L130.944,576.831C130.57,576.932 130.183,576.712 130.082,576.338L128.332,569.905C128.231,569.53 128.451,569.146 128.826,569.044L140.167,565.957C140.542,565.854 140.927,566.077 141.029,566.449L142.779,572.884Z" style="fill:rgb(16,20,26);fill-rule:nonzero;"/>
                <path d="M157.169,568.969C157.269,569.343 157.05,569.729 156.676,569.83L145.333,572.915C144.959,573.018 144.573,572.797 144.472,572.424L142.722,565.99C142.62,565.616 142.841,565.23 143.215,565.129L154.558,562.044C154.933,561.942 155.317,562.162 155.419,562.536L157.169,568.969Z" style="fill:rgb(16,20,26);fill-rule:nonzero;"/>
                <path d="M171.729,565.01C171.83,565.384 171.609,565.767 171.233,565.869L159.893,568.955C159.518,569.058 159.133,568.836 159.031,568.463L157.281,562.03C157.18,561.655 157.4,561.27 157.774,561.169L169.116,558.082C169.493,557.979 169.876,558.201 169.978,558.575L171.729,565.01Z" style="fill:rgb(16,20,26);fill-rule:nonzero;"/>
                <path d="M186.119,561.095C186.221,561.468 185.999,561.854 185.625,561.956L174.282,565.04C173.907,565.144 173.523,564.923 173.422,564.549L171.67,558.115C171.57,557.74 171.79,557.355 172.164,557.255L183.508,554.167C183.879,554.066 184.267,554.287 184.369,554.66L186.119,561.095Z" style="fill:rgb(16,20,26);fill-rule:nonzero;"/>
                <path d="M200.509,557.179C200.61,557.553 200.39,557.939 200.016,558.041L188.671,561.125C188.297,561.229 187.912,561.008 187.811,560.633L186.061,554.201C185.959,553.826 186.18,553.44 186.554,553.339L197.897,550.254C198.271,550.152 198.656,550.372 198.758,550.747L200.509,557.179Z" style="fill:rgb(16,20,26);fill-rule:nonzero;"/>
                <path d="M214.898,553.265C215,553.639 214.779,554.024 214.404,554.125L203.062,557.212C202.689,557.313 202.302,557.093 202.202,556.718L200.451,550.285C200.35,549.912 200.571,549.525 200.944,549.425L212.287,546.339C212.662,546.236 213.046,546.459 213.148,546.832L214.898,553.265Z" style="fill:rgb(16,20,26);fill-rule:nonzero;"/>
                <path d="M229.626,549.259C229.729,549.632 229.507,550.018 229.132,550.119L217.791,553.206C217.417,553.307 217.032,553.086 216.931,552.712L215.181,546.279C215.078,545.905 215.297,545.521 215.672,545.419L227.013,542.333C227.389,542.229 227.775,542.451 227.878,542.825L229.626,549.259Z" style="fill:rgb(16,20,26);fill-rule:nonzero;"/>
                <path d="M244.017,545.344C244.118,545.716 243.897,546.103 243.524,546.204L232.18,549.29C231.806,549.392 231.421,549.172 231.319,548.798L229.57,542.363C229.467,541.989 229.688,541.605 230.062,541.503L241.405,538.418C241.779,538.316 242.165,538.537 242.266,538.911L244.017,545.344Z" style="fill:rgb(16,20,26);fill-rule:nonzero;"/>
                <path d="M258.406,541.43C258.506,541.803 258.288,542.188 257.914,542.29L246.571,545.375C246.196,545.478 245.81,545.258 245.709,544.883L243.958,538.45C243.858,538.076 244.08,537.69 244.453,537.588L255.795,534.504C256.17,534.401 256.553,534.623 256.655,534.996L258.406,541.43Z" style="fill:rgb(16,20,26);fill-rule:nonzero;"/>
                <path d="M249.919,613.381L249.524,611.934L261.544,608.663L261.937,610.11L249.919,613.381Z" style="fill:rgb(30,33,37);fill-rule:nonzero;"/>
                <path d="M70.812,668.565L48.808,674.553L27.423,595.967L49.427,589.978L70.812,668.565Z" style="fill:rgb(196,198,200);fill-rule:nonzero;"/>
                <path d="M305,604.836L282.996,610.823L261.611,532.237L283.615,526.25L305,604.836Z" style="fill:rgb(196,198,200);fill-rule:nonzero;"/>
                <path d="M603.627,569.812C601.885,577.477 594.455,582.323 587.031,580.637L516.239,564.549C508.815,562.862 504.21,555.28 505.952,547.615L519.085,520.919C520.827,513.255 527.43,508.22 533.831,509.675L594.883,523.549C601.284,525.003 605.062,532.396 603.32,540.062L603.627,569.812Z" style="fill:rgb(242,242,242);fill-rule:nonzero;"/>
                <path d="M572.016,530.401L755.155,572.02C758.361,572.748 763.761,571.522 765.711,568.53L851.334,415.063C852.037,411.97 817.522,397.221 611.624,350.431C405.727,303.642 366.549,301.124 365.847,304.217L375.547,479.867C376.013,483.408 380.353,486.847 383.559,487.575L570.712,530.105L572.016,530.401Z" style="fill:rgb(218,219,219);fill-rule:nonzero;"/>
                <path d="M572.565,527.665L757.279,569.642C760.4,570.351 765.673,569.104 767.589,566.117L852.991,420.471C853.691,417.391 851.729,414.317 848.608,413.607L612.228,359.891L609.493,359.27L367.746,304.333C364.623,303.624 361.525,305.547 360.825,308.628L374.896,476.879C375.333,480.402 379.55,483.803 382.672,484.513L571.296,527.377L572.565,527.665Z" style="fill:rgb(11,11,22);fill-rule:nonzero;"/>
                <path d="M766.402,545.331L383.788,458.383L372.847,316.525L838.419,422.324L766.402,545.331Z" style="fill:rgb(54,57,61);fill-rule:nonzero;"/>
                <path d="M373.164,463.482L375.368,479.612C375.809,483.273 380.137,486.798 383.345,487.527L570.733,530.11L572.04,530.407L755.409,572.077C758.618,572.807 764.045,571.499 766.023,568.388L774.982,554.794L373.164,463.482Z" style="fill:rgb(187,191,192);fill-rule:nonzero;"/>
                <path d="M746.281,721.285C746.588,724.424 744.288,727.216 741.15,727.521L535.793,747.496C532.653,747.801 529.861,745.505 529.557,742.366L521.216,656.604C520.909,653.466 523.206,650.674 526.345,650.369L731.704,630.394C734.843,630.089 737.634,632.386 737.939,635.523L746.281,721.285Z" style="fill:rgb(187,191,192);fill-rule:nonzero;"/>
                <path d="M542.479,667.192C542.516,667.569 542.237,667.905 541.86,667.943L530.397,669.059C530.02,669.095 529.682,668.817 529.646,668.44L529.014,661.939C528.977,661.562 529.253,661.225 529.633,661.188L541.094,660.073C541.474,660.035 541.81,660.313 541.846,660.69L542.479,667.192Z" style="fill:white;fill-rule:nonzero;"/>
                <path d="M543.782,680.594C543.818,680.973 543.543,681.309 543.164,681.345L531.701,682.461C531.323,682.497 530.986,682.221 530.95,681.842L529.948,671.548C529.911,671.171 530.188,670.835 530.567,670.798L542.03,669.684C542.409,669.646 542.743,669.924 542.78,670.301L543.782,680.594Z" style="fill:white;fill-rule:nonzero;"/>
                <path d="M548.698,738.232C548.733,738.61 548.458,738.947 548.079,738.983L537.302,740.032C536.923,740.069 536.587,739.792 536.55,739.414L535.349,727.069C535.313,726.689 535.588,726.354 535.966,726.317L546.744,725.269C547.124,725.231 547.461,725.507 547.496,725.888L548.698,738.232Z" style="fill:white;fill-rule:nonzero;"/>
                <path d="M562.955,736.846C562.991,737.225 562.716,737.561 562.336,737.598L551.558,738.646C551.18,738.682 550.844,738.405 550.806,738.027L549.605,725.682C549.569,725.302 549.845,724.966 550.224,724.931L561.003,723.881C561.383,723.847 561.717,724.12 561.754,724.5L562.955,736.846Z" style="fill:white;fill-rule:nonzero;"/>
                <path d="M577.213,735.459C577.249,735.838 576.974,736.175 576.595,736.211L565.816,737.258C565.438,737.295 565.103,737.019 565.064,736.641L563.865,724.295C563.828,723.916 564.105,723.58 564.482,723.544L575.261,722.494C575.64,722.458 575.975,722.733 576.012,723.113L577.213,735.459Z" style="fill:white;fill-rule:nonzero;"/>
                <path d="M696.806,723.825C696.843,724.206 696.567,724.541 696.188,724.577L685.409,725.626C685.031,725.662 684.694,725.387 684.657,725.008L683.456,712.663C683.419,712.283 683.697,711.947 684.075,711.912L694.854,710.862C695.232,710.825 695.567,711.103 695.605,711.48L696.806,723.825Z" style="fill:white;fill-rule:nonzero;"/>
                <path d="M711.007,722.444C711.043,722.824 710.768,723.16 710.389,723.197L699.61,724.245C699.23,724.282 698.896,724.005 698.858,723.626L698.363,718.523C698.325,718.146 698.602,717.809 698.979,717.771L709.758,716.724C710.137,716.688 710.473,716.963 710.51,717.341L711.007,722.444Z" style="fill:white;fill-rule:nonzero;"/>
                <path d="M739.407,719.683C739.445,720.062 739.169,720.398 738.79,720.435L728.012,721.483C727.635,721.52 727.296,721.243 727.261,720.864L726.764,715.761C726.727,715.383 727.003,715.045 727.381,715.009L738.159,713.96C738.538,713.925 738.875,714.201 738.91,714.579L739.407,719.683Z" style="fill:white;fill-rule:nonzero;"/>
                <path d="M725.206,721.063C725.244,721.442 724.968,721.78 724.589,721.815L713.811,722.863C713.433,722.9 713.097,722.623 713.06,722.244L711.857,709.899C711.822,709.521 712.098,709.187 712.478,709.149L723.255,708.1C723.634,708.063 723.969,708.34 724.005,708.719L725.206,721.063Z" style="fill:white;fill-rule:nonzero;"/>
                <path d="M595.007,733.728C595.043,734.106 594.767,734.442 594.389,734.479L580.188,735.861C579.81,735.897 579.474,735.621 579.438,735.243L578.236,722.896C578.199,722.519 578.476,722.183 578.854,722.146L593.056,720.764C593.434,720.729 593.768,721.002 593.807,721.383L595.007,733.728Z" style="fill:white;fill-rule:nonzero;"/>
                <path d="M681.92,725.275C681.957,725.653 681.682,725.988 681.303,726.025L667.102,727.407C666.724,727.443 666.388,727.168 666.352,726.787L665.149,714.442C665.112,714.064 665.391,713.729 665.769,713.691L679.969,712.311C680.347,712.274 680.683,712.55 680.72,712.928L681.92,725.275Z" style="fill:white;fill-rule:nonzero;"/>
                <path d="M664.869,726.933C664.905,727.312 664.629,727.647 664.25,727.685L597.982,734.13C597.604,734.166 597.268,733.89 597.23,733.512L596.029,721.167C595.993,720.786 596.269,720.451 596.648,720.416L662.917,713.971C663.295,713.933 663.632,714.207 663.667,714.587L664.869,726.933Z" style="fill:white;fill-rule:nonzero;"/>
                <path d="M558.153,679.195C558.19,679.573 557.914,679.911 557.535,679.947L546.072,681.063C545.695,681.099 545.358,680.821 545.322,680.444L544.321,670.15C544.284,669.772 544.561,669.436 544.938,669.398L556.4,668.285C556.779,668.248 557.115,668.523 557.152,668.902L558.153,679.195Z" style="fill:white;fill-rule:nonzero;"/>
                <path d="M565.748,692.469C565.784,692.848 565.508,693.184 565.13,693.22L553.667,694.335C553.289,694.371 552.955,694.095 552.916,693.716L551.916,683.424C551.879,683.044 552.155,682.71 552.533,682.672L563.995,681.559C564.375,681.521 564.709,681.797 564.746,682.177L565.748,692.469Z" style="fill:white;fill-rule:nonzero;"/>
                <path d="M580.12,691.07C580.156,691.449 579.882,691.785 579.502,691.822L568.038,692.938C567.66,692.975 567.325,692.697 567.287,692.32L566.287,682.026C566.25,681.646 566.525,681.313 566.904,681.275L578.367,680.16C578.746,680.123 579.082,680.399 579.119,680.778L580.12,691.07Z" style="fill:white;fill-rule:nonzero;"/>
                <path d="M594.321,689.688C594.358,690.067 594.081,690.405 593.703,690.44L582.24,691.556C581.861,691.592 581.525,691.317 581.488,690.938L580.487,680.646C580.449,680.266 580.727,679.931 581.105,679.894L592.57,678.778C592.946,678.742 593.282,679.017 593.319,679.396L594.321,689.688Z" style="fill:white;fill-rule:nonzero;"/>
                <path d="M608.521,688.307C608.558,688.688 608.282,689.022 607.903,689.06L596.439,690.175C596.062,690.213 595.727,689.936 595.69,689.557L594.688,679.264C594.651,678.884 594.927,678.55 595.307,678.513L606.769,677.398C607.146,677.36 607.482,677.637 607.52,678.016L608.521,688.307Z" style="fill:white;fill-rule:nonzero;"/>
                <path d="M622.551,686.944C622.588,687.322 622.311,687.658 621.933,687.695L610.47,688.811C610.093,688.846 609.756,688.57 609.719,688.191L608.719,677.898C608.681,677.52 608.959,677.184 609.335,677.146L620.798,676.033C621.176,675.995 621.513,676.271 621.55,676.65L622.551,686.944Z" style="fill:white;fill-rule:nonzero;"/>
                <path d="M636.408,685.596C636.445,685.975 636.17,686.311 635.793,686.346L624.328,687.462C623.951,687.499 623.615,687.222 623.578,686.845L622.577,676.55C622.539,676.171 622.816,675.837 623.193,675.8L634.657,674.685C635.035,674.647 635.371,674.924 635.408,675.303L636.408,685.596Z" style="fill:white;fill-rule:nonzero;"/>
                <path d="M650.866,684.188C650.903,684.569 650.626,684.903 650.249,684.94L638.785,686.057C638.407,686.093 638.072,685.815 638.034,685.438L637.033,675.145C636.997,674.766 637.273,674.431 637.65,674.395L649.113,673.278C649.491,673.241 649.828,673.517 649.865,673.897L650.866,684.188Z" style="fill:white;fill-rule:nonzero;"/>
                <path d="M664.727,682.842C664.762,683.221 664.485,683.555 664.106,683.593L652.645,684.707C652.266,684.744 651.931,684.469 651.894,684.09L650.893,673.796C650.855,673.416 651.132,673.081 651.511,673.044L662.973,671.93C663.352,671.892 663.687,672.169 663.725,672.548L664.727,682.842Z" style="fill:white;fill-rule:nonzero;"/>
                <path d="M678.925,681.46C678.962,681.839 678.687,682.174 678.31,682.21L666.845,683.326C666.466,683.362 666.13,683.086 666.095,682.708L665.093,672.415C665.057,672.035 665.331,671.701 665.711,671.665L677.175,670.549C677.552,670.512 677.887,670.788 677.924,671.166L678.925,681.46Z" style="fill:white;fill-rule:nonzero;"/>
                <path d="M692.613,680.128C692.65,680.507 692.373,680.842 691.995,680.88L680.531,681.994C680.154,682.031 679.819,681.757 679.781,681.377L678.78,671.084C678.743,670.705 679.021,670.369 679.396,670.332L690.86,669.218C691.238,669.181 691.574,669.456 691.612,669.835L692.613,680.128Z" style="fill:white;fill-rule:nonzero;"/>
                <path d="M706.983,678.73C707.021,679.109 706.744,679.445 706.365,679.481L694.903,680.598C694.523,680.634 694.189,680.357 694.152,679.979L693.15,669.687C693.113,669.308 693.392,668.97 693.77,668.935L705.233,667.82C705.609,667.782 705.945,668.059 705.982,668.438L706.983,678.73Z" style="fill:white;fill-rule:nonzero;"/>
                <path d="M721.271,677.34C721.308,677.719 721.03,678.055 720.653,678.092L709.189,679.208C708.811,679.243 708.476,678.968 708.438,678.589L707.436,668.296C707.4,667.917 707.678,667.582 708.055,667.545L719.519,666.43C719.896,666.394 720.232,666.669 720.27,667.049L721.271,677.34Z" style="fill:white;fill-rule:nonzero;"/>
                <path d="M570.512,705.908C570.547,706.287 570.271,706.622 569.892,706.659L558.429,707.774C558.051,707.812 557.715,707.535 557.678,707.157L556.676,696.861C556.641,696.485 556.916,696.148 557.295,696.112L568.758,694.997C569.136,694.961 569.472,695.237 569.51,695.614L570.512,705.908Z" style="fill:white;fill-rule:nonzero;"/>
                <path d="M584.882,704.511C584.918,704.89 584.642,705.225 584.264,705.263L572.8,706.377C572.423,706.413 572.086,706.138 572.049,705.759L571.048,695.464C571.013,695.087 571.288,694.751 571.667,694.713L583.129,693.6C583.508,693.563 583.843,693.839 583.881,694.217L584.882,704.511Z" style="fill:white;fill-rule:nonzero;"/>
                <path d="M599.083,703.13C599.119,703.508 598.843,703.843 598.465,703.88L587.001,704.994C586.622,705.031 586.287,704.756 586.251,704.378L585.249,694.083C585.213,693.705 585.488,693.369 585.866,693.334L597.331,692.218C597.709,692.182 598.044,692.458 598.081,692.835L599.083,703.13Z" style="fill:white;fill-rule:nonzero;"/>
                <path d="M613.282,701.748C613.32,702.127 613.042,702.462 612.665,702.498L601.202,703.613C600.823,703.649 600.487,703.375 600.45,702.996L599.449,692.702C599.413,692.324 599.689,691.988 600.067,691.953L611.53,690.837C611.908,690.801 612.244,691.076 612.282,691.454L613.282,701.748Z" style="fill:white;fill-rule:nonzero;"/>
                <path d="M627.312,700.384C627.349,700.762 627.072,701.097 626.695,701.135L615.23,702.249C614.853,702.284 614.518,702.011 614.481,701.632L613.479,691.339C613.442,690.961 613.719,690.624 614.098,690.588L625.562,689.473C625.938,689.436 626.274,689.712 626.312,690.09L627.312,700.384Z" style="fill:white;fill-rule:nonzero;"/>
                <path d="M641.171,699.035C641.208,699.414 640.931,699.749 640.552,699.785L629.091,700.902C628.713,700.938 628.375,700.662 628.34,700.283L627.337,689.991C627.302,689.613 627.577,689.276 627.955,689.239L639.42,688.124C639.797,688.088 640.133,688.363 640.169,688.742L641.171,699.035Z" style="fill:white;fill-rule:nonzero;"/>
                <path d="M655.628,697.629C655.664,698.008 655.389,698.345 655.01,698.381L643.548,699.494C643.169,699.531 642.834,699.256 642.796,698.877L641.795,688.585C641.759,688.205 642.033,687.87 642.412,687.833L653.875,686.719C654.255,686.682 654.589,686.958 654.626,687.337L655.628,697.629Z" style="fill:white;fill-rule:nonzero;"/>
                <path d="M669.485,696.282C669.522,696.66 669.246,696.997 668.869,697.032L657.405,698.146C657.026,698.185 656.691,697.908 656.653,697.529L655.654,687.236C655.616,686.857 655.892,686.522 656.27,686.486L667.734,685.369C668.111,685.334 668.447,685.611 668.485,685.987L669.485,696.282Z" style="fill:white;fill-rule:nonzero;"/>
                <path d="M683.688,694.899C683.726,695.278 683.448,695.615 683.069,695.651L671.605,696.767C671.228,696.803 670.891,696.527 670.854,696.148L669.854,685.854C669.817,685.477 670.093,685.141 670.471,685.104L681.934,683.989C682.313,683.952 682.649,684.229 682.686,684.606L683.688,694.899Z" style="fill:white;fill-rule:nonzero;"/>
                <path d="M697.375,693.569C697.411,693.946 697.135,694.284 696.757,694.32L685.292,695.435C684.914,695.472 684.579,695.195 684.542,694.816L683.542,684.523C683.506,684.146 683.781,683.81 684.16,683.773L695.622,682.657C696,682.62 696.336,682.896 696.373,683.273L697.375,693.569Z" style="fill:white;fill-rule:nonzero;"/>
                <path d="M711.745,692.171C711.783,692.549 711.506,692.885 711.127,692.923L699.665,694.036C699.288,694.074 698.95,693.797 698.915,693.419L697.912,683.125C697.876,682.747 698.153,682.412 698.53,682.375L709.993,681.26C710.372,681.223 710.708,681.501 710.744,681.877L711.745,692.171Z" style="fill:white;fill-rule:nonzero;"/>
                <path d="M726.032,690.78C726.07,691.158 725.791,691.496 725.414,691.532L713.951,692.648C713.573,692.684 713.236,692.408 713.201,692.029L712.199,681.735C712.162,681.356 712.439,681.022 712.816,680.985L724.279,679.869C724.658,679.833 724.994,680.109 725.032,680.488L726.032,690.78Z" style="fill:white;fill-rule:nonzero;"/>
                <path d="M565.478,720.475C565.516,720.853 565.239,721.188 564.861,721.224L553.397,722.339C553.02,722.377 552.683,722.101 552.646,721.723L551.646,711.429C551.608,711.05 551.886,710.715 552.263,710.678L563.726,709.563C564.104,709.525 564.44,709.801 564.478,710.18L565.478,720.475Z" style="fill:white;fill-rule:nonzero;"/>
                <path d="M579.849,719.077C579.887,719.453 579.61,719.79 579.231,719.826L567.769,720.941C567.39,720.978 567.055,720.703 567.018,720.325L566.017,710.031C565.979,709.652 566.256,709.316 566.634,709.28L578.097,708.164C578.475,708.129 578.811,708.404 578.849,708.782L579.849,719.077Z" style="fill:white;fill-rule:nonzero;"/>
                <path d="M594.052,717.696C594.089,718.073 593.812,718.408 593.432,718.446L581.97,719.56C581.591,719.598 581.254,719.32 581.218,718.943L580.216,708.648C580.18,708.271 580.456,707.936 580.837,707.898L592.298,706.783C592.676,706.746 593.013,707.022 593.051,707.401L594.052,717.696Z" style="fill:white;fill-rule:nonzero;"/>
                <path d="M608.25,716.314C608.287,716.69 608.012,717.027 607.633,717.063L596.17,718.179C595.79,718.216 595.456,717.939 595.42,717.563L594.419,707.269C594.382,706.889 594.656,706.554 595.035,706.517L606.5,705.402C606.876,705.365 607.212,705.643 607.25,706.02L608.25,716.314Z" style="fill:white;fill-rule:nonzero;"/>
                <path d="M622.28,714.948C622.318,715.326 622.041,715.663 621.662,715.701L610.2,716.814C609.821,716.852 609.484,716.574 609.448,716.197L608.446,705.904C608.411,705.524 608.687,705.188 609.065,705.152L620.528,704.038C620.907,704.001 621.244,704.276 621.28,704.654L622.28,714.948Z" style="fill:white;fill-rule:nonzero;"/>
                <path d="M636.14,713.601C636.176,713.979 635.899,714.314 635.521,714.353L624.059,715.467C623.68,715.504 623.344,715.227 623.307,714.849L622.306,704.556C622.267,704.176 622.545,703.842 622.925,703.805L634.387,702.688C634.766,702.652 635.102,702.929 635.138,703.307L636.14,713.601Z" style="fill:white;fill-rule:nonzero;"/>
                <path d="M650.595,712.195C650.633,712.572 650.356,712.908 649.979,712.946L638.515,714.061C638.138,714.099 637.801,713.82 637.765,713.443L636.763,703.149C636.726,702.771 637.002,702.435 637.38,702.397L648.844,701.282C649.222,701.246 649.559,701.523 649.595,701.901L650.595,712.195Z" style="fill:white;fill-rule:nonzero;"/>
                <path d="M664.455,710.847C664.492,711.225 664.215,711.562 663.837,711.599L652.372,712.713C651.995,712.749 651.66,712.474 651.624,712.095L650.623,701.801C650.585,701.424 650.861,701.088 651.239,701.05L662.703,699.936C663.081,699.898 663.416,700.175 663.453,700.553L664.455,710.847Z" style="fill:white;fill-rule:nonzero;"/>
                <path d="M678.657,709.465C678.69,709.845 678.416,710.18 678.037,710.216L666.573,711.331C666.195,711.369 665.861,711.091 665.823,710.713L664.821,700.419C664.786,700.042 665.062,699.706 665.44,699.669L676.904,698.554C677.281,698.519 677.617,698.794 677.654,699.172L678.657,709.465Z" style="fill:white;fill-rule:nonzero;"/>
                <path d="M692.343,708.135C692.379,708.512 692.103,708.848 691.725,708.886L680.263,710.001C679.882,710.037 679.548,709.761 679.512,709.381L678.509,699.088C678.474,698.711 678.749,698.374 679.128,698.338L690.591,697.224C690.969,697.186 691.304,697.464 691.343,697.841L692.343,708.135Z" style="fill:white;fill-rule:nonzero;"/>
                <path d="M706.715,706.735C706.752,707.113 706.475,707.45 706.097,707.486L694.633,708.602C694.256,708.64 693.919,708.363 693.883,707.984L692.881,697.691C692.845,697.313 693.12,696.976 693.499,696.939L704.962,695.825C705.339,695.787 705.676,696.065 705.713,696.441L706.715,706.735Z" style="fill:white;fill-rule:nonzero;"/>
                <path d="M737.652,703.727C737.69,704.105 737.414,704.44 737.034,704.479L709.091,707.196C708.713,707.232 708.376,706.955 708.341,706.578L707.339,696.285C707.302,695.907 707.578,695.57 707.957,695.533L735.9,692.815C736.278,692.777 736.615,693.055 736.651,693.434L737.652,703.727Z" style="fill:white;fill-rule:nonzero;"/>
                <path d="M736.48,689.945C736.518,690.322 736.241,690.66 735.862,690.695L728.271,691.434C727.893,691.471 727.558,691.193 727.519,690.816L725.862,673.772C725.824,673.395 726.102,673.06 726.48,673.021L734.073,672.283C734.45,672.247 734.787,672.522 734.822,672.901L736.48,689.945Z" style="fill:white;fill-rule:nonzero;"/>
                <path d="M735.129,675.994C735.167,676.372 734.89,676.707 734.512,676.743L723.047,677.858C722.67,677.896 722.333,677.619 722.297,677.241L721.296,666.948C721.259,666.568 721.536,666.234 721.912,666.196L733.378,665.081C733.755,665.044 734.092,665.321 734.128,665.699L735.129,675.994Z" style="fill:white;fill-rule:nonzero;"/>
                <path d="M572.183,677.831C572.22,678.211 571.943,678.547 571.565,678.582L560.103,679.697C559.724,679.734 559.387,679.458 559.35,679.08L558.349,668.785C558.313,668.407 558.588,668.07 558.968,668.034L570.432,666.92C570.809,666.884 571.145,667.16 571.182,667.538L572.183,677.831Z" style="fill:white;fill-rule:nonzero;"/>
                <path d="M586.099,676.479C586.135,676.855 585.857,677.192 585.48,677.229L574.018,678.344C573.64,678.381 573.303,678.104 573.267,677.725L572.265,667.433C572.229,667.056 572.504,666.718 572.884,666.682L584.346,665.566C584.725,665.53 585.06,665.807 585.097,666.185L586.099,676.479Z" style="fill:white;fill-rule:nonzero;"/>
                <path d="M600.014,675.124C600.051,675.503 599.774,675.839 599.396,675.877L587.934,676.99C587.555,677.026 587.219,676.75 587.183,676.372L586.181,666.078C586.144,665.702 586.421,665.364 586.798,665.328L598.262,664.214C598.641,664.176 598.977,664.453 599.014,664.831L600.014,675.124Z" style="fill:white;fill-rule:nonzero;"/>
                <path d="M614.386,673.727C614.424,674.104 614.145,674.44 613.769,674.477L602.305,675.594C601.927,675.629 601.591,675.353 601.555,674.974L600.553,664.682C600.516,664.305 600.792,663.967 601.171,663.931L612.634,662.815C613.011,662.779 613.348,663.055 613.385,663.433L614.386,673.727Z" style="fill:white;fill-rule:nonzero;"/>
                <path d="M628.301,672.373C628.337,672.75 628.063,673.087 627.683,673.124L616.221,674.24C615.842,674.275 615.507,674 615.469,673.621L614.468,663.327C614.432,662.95 614.707,662.614 615.085,662.577L626.548,661.462C626.929,661.424 627.264,661.702 627.3,662.079L628.301,672.373Z" style="fill:white;fill-rule:nonzero;"/>
                <path d="M642.217,671.019C642.253,671.397 641.978,671.734 641.599,671.771L630.135,672.885C629.757,672.923 629.42,672.646 629.384,672.268L628.383,661.974C628.346,661.597 628.623,661.26 628.999,661.223L640.464,660.107C640.843,660.07 641.179,660.349 641.216,660.726L642.217,671.019Z" style="fill:white;fill-rule:nonzero;"/>
                <path d="M656.359,669.645C656.397,670.021 656.121,670.358 655.742,670.395L644.278,671.509C643.901,671.548 643.563,671.27 643.528,670.893L642.526,660.598C642.49,660.221 642.767,659.885 643.143,659.847L654.607,658.732C654.986,658.695 655.321,658.974 655.357,659.349L656.359,669.645Z" style="fill:white;fill-rule:nonzero;"/>
                <path d="M670.39,668.279C670.426,668.657 670.151,668.993 669.772,669.03L658.309,670.145C657.93,670.183 657.594,669.905 657.557,669.527L656.556,659.232C656.52,658.855 656.796,658.519 657.174,658.482L668.637,657.367C669.017,657.33 669.351,657.608 669.388,657.986L670.39,668.279Z" style="fill:white;fill-rule:nonzero;"/>
                <path d="M684.532,666.903C684.569,667.281 684.294,667.617 683.916,667.654L672.451,668.769C672.073,668.807 671.737,668.529 671.701,668.151L670.7,657.858C670.663,657.48 670.938,657.144 671.318,657.106L682.782,655.991C683.159,655.955 683.494,656.23 683.531,656.608L684.532,666.903Z" style="fill:white;fill-rule:nonzero;"/>
                <path d="M698.792,665.518C698.828,665.895 698.552,666.23 698.174,666.268L686.71,667.383C686.331,667.42 685.996,667.143 685.959,666.765L684.957,656.471C684.921,656.093 685.198,655.756 685.577,655.719L697.038,654.605C697.418,654.568 697.753,654.844 697.79,655.222L698.792,665.518Z" style="fill:white;fill-rule:nonzero;"/>
                <path d="M712.82,664.152C712.857,664.529 712.58,664.866 712.203,664.903L700.741,666.019C700.362,666.056 700.024,665.777 699.988,665.4L698.988,655.105C698.95,654.729 699.227,654.392 699.605,654.356L711.068,653.241C711.446,653.205 711.782,653.48 711.819,653.857L712.82,664.152Z" style="fill:white;fill-rule:nonzero;"/>
                <path d="M733.922,662.1C733.96,662.478 733.684,662.813 733.305,662.852L715.684,664.564C715.305,664.601 714.967,664.324 714.932,663.946L713.931,653.653C713.893,653.274 714.17,652.94 714.549,652.903L732.17,651.188C732.551,651.151 732.884,651.428 732.922,651.806L733.922,662.1Z" style="fill:white;fill-rule:nonzero;"/>
                <path d="M551.29,693.868C551.328,694.247 551.052,694.582 550.674,694.618L533.051,696.334C532.672,696.37 532.336,696.096 532.3,695.715L531.297,685.422C531.262,685.044 531.537,684.707 531.917,684.671L549.539,682.957C549.917,682.92 550.252,683.197 550.288,683.573L551.29,693.868Z" style="fill:white;fill-rule:nonzero;"/>
                <path d="M550.565,721.917C550.602,722.295 550.326,722.631 549.947,722.668L535.746,724.05C535.368,724.087 535.032,723.811 534.996,723.432L533.995,713.138C533.957,712.76 534.233,712.424 534.612,712.387L548.813,711.007C549.191,710.971 549.525,711.245 549.563,711.623L550.565,721.917Z" style="fill:white;fill-rule:nonzero;"/>
                <path d="M556.739,707.271C556.775,707.647 556.499,707.985 556.121,708.021L534.393,710.135C534.014,710.173 533.679,709.895 533.641,709.518L532.641,699.223C532.603,698.843 532.88,698.509 533.259,698.472L554.986,696.357C555.364,696.322 555.7,696.597 555.737,696.975L556.739,707.271Z" style="fill:white;fill-rule:nonzero;"/>
                <path d="M556.851,665.794C556.887,666.171 556.61,666.508 556.233,666.545L544.769,667.659C544.391,667.697 544.055,667.421 544.019,667.042L543.385,660.542C543.349,660.163 543.625,659.827 544.004,659.791L555.465,658.676C555.845,658.639 556.181,658.916 556.218,659.293L556.851,665.794Z" style="fill:white;fill-rule:nonzero;"/>
                <path d="M571.905,664.329C571.942,664.706 571.666,665.045 571.288,665.08L559.824,666.195C559.447,666.232 559.11,665.954 559.074,665.577L558.441,659.075C558.405,658.698 558.682,658.362 559.06,658.325L570.522,657.21C570.9,657.174 571.236,657.451 571.274,657.829L571.905,664.329Z" style="fill:white;fill-rule:nonzero;"/>
                <path d="M586.277,662.932C586.313,663.309 586.038,663.647 585.659,663.683L574.197,664.798C573.819,664.835 573.481,664.558 573.445,664.181L572.813,657.678C572.777,657.301 573.054,656.964 573.431,656.929L584.895,655.813C585.272,655.776 585.609,656.054 585.646,656.431L586.277,662.932Z" style="fill:white;fill-rule:nonzero;"/>
                <path d="M600.991,661.501C601.027,661.877 600.752,662.215 600.374,662.251L588.91,663.366C588.533,663.403 588.195,663.127 588.159,662.749L587.525,656.247C587.49,655.869 587.768,655.533 588.146,655.496L599.605,654.381C599.986,654.345 600.322,654.622 600.359,654.999L600.991,661.501Z" style="fill:white;fill-rule:nonzero;"/>
                <path d="M615.705,660.069C615.741,660.445 615.466,660.783 615.087,660.821L603.625,661.938C603.246,661.972 602.91,661.694 602.873,661.317L602.24,654.816C602.204,654.438 602.479,654.102 602.859,654.065L614.322,652.951C614.7,652.913 615.036,653.19 615.071,653.567L615.705,660.069Z" style="fill:white;fill-rule:nonzero;"/>
                <path d="M630.247,658.655C630.283,659.032 630.009,659.369 629.631,659.405L618.168,660.521C617.789,660.558 617.453,660.279 617.416,659.902L616.784,653.401C616.747,653.023 617.023,652.688 617.4,652.65L628.865,651.536C629.244,651.498 629.577,651.776 629.616,652.154L630.247,658.655Z" style="fill:white;fill-rule:nonzero;"/>
                <path d="M644.963,657.224C644.999,657.601 644.724,657.938 644.345,657.976L632.882,659.09C632.503,659.127 632.168,658.848 632.129,658.473L631.498,651.971C631.461,651.594 631.737,651.257 632.115,651.221L643.579,650.105C643.958,650.067 644.295,650.345 644.33,650.722L644.963,657.224Z" style="fill:white;fill-rule:nonzero;"/>
                <path d="M659.506,655.809C659.542,656.187 659.267,656.523 658.888,656.561L647.423,657.676C647.045,657.713 646.709,657.435 646.672,657.058L646.041,650.557C646.003,650.178 646.28,649.841 646.658,649.805L658.12,648.69C658.5,648.653 658.836,648.93 658.873,649.308L659.506,655.809Z" style="fill:white;fill-rule:nonzero;"/>
                <path d="M674.048,654.396C674.085,654.771 673.809,655.109 673.43,655.146L661.968,656.261C661.588,656.297 661.253,656.021 661.214,655.644L660.584,649.141C660.546,648.764 660.823,648.426 661.201,648.391L672.665,647.275C673.042,647.239 673.379,647.516 673.415,647.893L674.048,654.396Z" style="fill:white;fill-rule:nonzero;"/>
                <path d="M688.591,652.979C688.627,653.358 688.351,653.694 687.972,653.732L676.509,654.847C676.13,654.883 675.796,654.604 675.758,654.229L675.126,647.727C675.089,647.35 675.365,647.013 675.742,646.976L687.207,645.861C687.585,645.824 687.922,646.102 687.957,646.479L688.591,652.979Z" style="fill:white;fill-rule:nonzero;"/>
                <path d="M703.477,651.532C703.513,651.909 703.235,652.246 702.858,652.284L691.395,653.399C691.018,653.435 690.68,653.157 690.643,652.78L690.01,646.278C689.974,645.9 690.25,645.564 690.63,645.527L702.092,644.412C702.471,644.375 702.806,644.652 702.844,645.03L703.477,651.532Z" style="fill:white;fill-rule:nonzero;"/>
                <path d="M718.018,650.118C718.056,650.495 717.778,650.831 717.398,650.869L705.937,651.984C705.559,652.021 705.223,651.743 705.187,651.365L704.555,644.863C704.517,644.487 704.793,644.149 705.171,644.113L716.635,642.998C717.013,642.961 717.349,643.238 717.386,643.616L718.018,650.118Z" style="fill:white;fill-rule:nonzero;"/>
                <path d="M732.561,648.703C732.598,649.08 732.32,649.418 731.943,649.455L720.479,650.569C720.102,650.606 719.765,650.327 719.729,649.951L719.096,643.448C719.059,643.072 719.336,642.735 719.715,642.698L731.177,641.583C731.556,641.547 731.892,641.824 731.928,642.201L732.561,648.703Z" style="fill:white;fill-rule:nonzero;"/>
                <path d="M712.485,716.335L712.433,715.81L724.582,714.628L724.632,715.154L712.485,716.335Z" style="fill:white;fill-rule:nonzero;"/>
                <path d="M285.786,687.812C282.759,679.989 257.446,655.131 257.446,655.131C257.446,655.131 253.663,652.186 250.508,654.287C247.354,656.39 249.266,660.764 249.266,660.764L256.98,673.297L256.297,673.958L241.665,660.133C241.665,660.133 239.471,657.064 235.409,659.249C230.446,661.916 233.663,665.787 233.663,665.787L244.679,680.129L244.11,681.053L228.805,666.563C228.805,666.563 225.652,663.198 221.951,666.395C217.813,669.967 221.108,673.333 221.108,673.333L234.668,688.896L234.1,689.819L200.339,665.716C200.339,665.716 195.341,661.259 191.134,665.885C186.928,670.509 193.373,675.6 193.373,675.6L238.133,713.92L232.336,714.139C222.371,702.738 211.555,711.77 211.555,711.77L231.234,729.815C231.234,729.815 243.816,735.065 252.28,736.412C260.743,737.759 269.229,735.093 276.75,741.528C282.085,746.092 312.588,788.826 320.22,830.174C319.036,850.908 315.323,871.926 314.178,889.911L362.533,906.979C362.533,906.979 381.071,869.901 371.269,826.112C368.351,813.076 329.056,739.127 294.494,707.804C294.494,707.804 288.813,695.635 285.786,687.812Z" style="fill:rgb(234,195,159);fill-rule:nonzero;"/>
                <path d="M80.23,670.247C77.198,662.427 79.167,610.003 79.167,610.003C79.167,610.003 79.98,605.277 83.728,604.706C87.475,604.136 89.007,608.657 89.007,608.657L91.746,640.118L92.696,640.145L92.201,593.072C92.201,593.072 91.756,589.326 96.23,588.205C101.695,586.834 103.924,591.861 103.924,591.861L105.441,636.883L106.483,637.183L110.038,584.163C110.038,584.163 110.103,579.553 114.99,579.422C120.456,579.276 120.287,583.983 120.287,583.983L118.745,636.621L119.787,636.92L128.509,596.366C128.509,596.366 129.201,589.704 135.426,590.291C141.65,590.876 140.315,598.979 140.315,598.979L133.037,657.452L141.47,649.708C146.333,631 157.235,637.962 157.235,637.962L148.843,664.554C148.843,664.554 143.078,676.909 137.729,683.605C132.381,690.301 124.312,694.045 123.086,703.868C121.821,714 122.224,789.096 136.667,872L86,882.667C86,882.667 78.371,783.668 87.257,690.89C87.257,690.89 83.26,678.068 80.23,670.247Z" style="fill:rgb(234,195,159);fill-rule:nonzero;"/>
                <path d="M560.56,770.397C555.733,763.536 545.024,712.181 545.024,712.181C545.024,712.181 544.676,707.397 548.176,705.941C551.676,704.485 554.252,708.505 554.252,708.505L564.483,738.382L565.413,738.179L553.6,692.61C553.6,692.61 552.265,689.081 556.339,686.916C561.313,684.27 564.686,688.613 564.686,688.613L576.996,731.944L578.081,731.984L568.767,679.669C568.767,679.669 567.721,675.178 572.432,673.875C577.701,672.418 578.671,677.026 578.671,677.026L589.847,728.487L590.93,728.527L589.632,687.066C589.632,687.066 588.7,680.434 594.884,679.504C601.065,678.574 601.719,686.76 601.719,686.76L608.732,745.266L615.053,735.719C615.271,716.39 627.527,720.523 627.527,720.523L625.784,748.353C625.784,748.353 623.163,761.732 619.583,769.521C616.004,777.307 609.074,782.882 610.249,792.712C611.461,802.851 629.93,875.641 663.905,952.63L617.297,975.181C617.297,975.181 586.061,880.93 572.35,788.74C572.35,788.74 565.384,777.259 560.56,770.397Z" style="fill:rgb(234,195,159);fill-rule:nonzero;"/>
                <path d="M728.855,746.895C731.176,738.833 728.524,700.797 728.524,700.797C728.524,700.797 727.291,696.162 723.508,695.929C719.724,695.696 718.602,700.336 718.602,700.336L714.69,717.917L713.745,718.028L714.027,685.101C714.027,685.101 714.136,681.329 709.578,680.613C704.013,679.736 702.243,684.943 702.243,684.943L700.761,715.919L699.749,716.312L691.465,663.823C691.465,663.823 690.667,657.667 685,659.001C679.679,660.254 680,665.667 680,665.667L687.486,716.849L685,718.001L674.16,687.63C674.16,687.63 672.874,681.057 666.727,682.197C660.58,683.338 662.636,691.288 662.636,691.288L675.116,738.876L666.024,731.917C659.506,713.719 649.271,721.63 649.271,721.63L660.008,747.363C660.008,747.363 666.855,759.152 672.783,765.345C678.709,771.534 687.08,774.54 689.18,784.215C691.347,794.193 697.666,869.023 690.7,952.888L742.118,958.979C742.118,958.979 740.856,859.694 723.704,768.082C723.704,768.082 726.537,754.955 728.855,746.895Z" style="fill:rgb(234,195,159);fill-rule:nonzero;"/>
                <path d="M397.972,732.411C404.388,741.827 411.058,747.581 411.472,761.281C411.262,793.62 415.018,878.634 415.018,878.634L464.326,883.559C455.398,797.849 448.81,771.321 447.078,739.466C447.078,739.466 453.921,725.611 454.718,712.151" style="fill:rgb(241,210,182);fill-rule:nonzero;"/>
                <path d="M431.483,717.11C439.143,713.686 464.58,683.636 464.58,683.636C464.58,683.636 467.327,679.705 465.068,676.662C462.805,673.619 458.537,675.754 458.537,675.754L444.505,687.6L443.811,686.949L465.309,664.943C465.309,664.943 468.531,661.234 466.14,657.29C463.223,652.47 457.832,655.833 457.832,655.833L437.051,675.662L436.099,675.144L459.852,648.527C459.852,648.527 464.043,643.949 459.37,640.475C454.98,637.216 451.05,640.951 451.05,640.951L427.783,666.115L425.299,664.958L452.296,629.808C452.296,629.808 456.492,624.586 451.658,620.622C446.822,616.66 442.071,623.355 442.071,623.355L402.97,670.858L402.429,659.422C412.138,642.707 399.492,639.984 399.492,639.984" style="fill:rgb(241,210,182);fill-rule:nonzero;"/>
                <path d="M389.985,704.75L390.256,672.099L436.813,628.306L413.211,679.872L389.985,704.75Z" style="fill:rgb(241,210,182);fill-rule:nonzero;"/>
                <path d="M470.733,709.137C471.771,712.809 469.635,716.627 465.963,717.663L419.271,730.849C415.602,731.886 411.783,729.751 410.746,726.078L382.792,627.1C381.755,623.426 383.893,619.609 387.564,618.573L434.254,605.387C437.926,604.349 441.743,606.486 442.781,610.159L470.733,709.137Z" style="fill:rgb(229,231,230);fill-rule:nonzero;"/>
                <path d="M466.498,701.657L410.445,717.489L387.078,634.754L443.131,618.925L466.498,701.657Z" style="fill:rgb(54,57,61);fill-rule:nonzero;"/>
                <path d="M445.707,715.727C446.465,718.406 444.906,721.194 442.223,721.95C439.544,722.707 436.757,721.148 436,718.469C435.242,715.787 436.802,712.999 439.482,712.242C442.163,711.485 444.95,713.045 445.707,715.727Z" style="fill:rgb(187,191,192);fill-rule:nonzero;"/>
                <path d="M420.546,618.514C420.694,619.045 420.385,619.598 419.853,619.748L406.775,623.442C406.244,623.591 405.688,623.28 405.54,622.75C405.391,622.218 405.699,621.665 406.231,621.514L419.311,617.821C419.842,617.672 420.394,617.979 420.546,618.514Z" style="fill:rgb(187,191,192);fill-rule:nonzero;"/>
                <path d="M452.295,710.693L410.235,723.89" style="fill:rgb(234,195,159);fill-rule:nonzero;"/>
                <path d="M392.478,697.762L400.624,677.385L414.114,663.994C414.114,663.994 420.05,667.063 415.356,677.756C410.664,688.449 412.723,698.314 412.723,698.314C412.723,698.314 422.282,710.491 421.585,724.225C420.84,738.92 401.867,742.077 394.022,727.084C387.845,715.279 388.866,703.453 392.478,697.762Z" style="fill:rgb(241,210,182);fill-rule:nonzero;"/>
                <path d="M758.46,532.815L398.233,451.001L389.226,333.821L816.604,430.941L758.46,532.815Z" style="fill:white;fill-rule:nonzero;"/>
                <path d="M395.33,554.459L340.648,572.049L323.555,518.914L378.236,501.323L395.33,554.459Z" style="fill:rgb(250,235,46);fill-rule:nonzero;"/>
                <path d="M419.431,577.466L365.162,558.641L383.454,505.906L437.723,524.73L419.431,577.466Z" style="fill:rgb(254,192,66);fill-rule:nonzero;"/>
                <path d="M59.505,373.677C70.2,397.152 59.838,424.853 36.363,435.547C12.889,446.241 -14.811,435.881 -25.506,412.405C-36.2,388.931 -25.838,361.23 -2.364,350.536C21.11,339.842 48.811,350.202 59.505,373.677Z" style="fill:rgb(208,211,211);fill-rule:nonzero;"/>
                <path d="M53.783,376.284C63.038,396.599 54.071,420.57 33.756,429.825C13.442,439.079 -10.528,430.113 -19.783,409.798C-29.037,389.483 -20.071,365.513 0.242,356.258C20.557,347.004 44.528,355.969 53.783,376.284Z" style="fill:rgb(233,234,232);fill-rule:nonzero;"/>
                <path d="M43.157,381.125C49.738,395.571 43.362,412.617 28.916,419.199C14.469,425.78 -2.576,419.404 -9.157,404.957C-15.738,390.512 -9.362,373.466 5.083,366.885C19.53,360.303 36.576,366.679 43.157,381.125Z" style="fill:white;fill-rule:nonzero;"/>
                <path d="M38.691,383.159C44.149,395.14 38.861,409.275 26.881,414.733C14.902,420.19 0.766,414.903 -4.691,402.923C-10.148,390.943 -4.861,376.808 7.118,371.35C19.097,365.893 33.234,371.18 38.691,383.159Z" style="fill:rgb(84,49,30);fill-rule:nonzero;"/>
                <path d="M54.627,379.15L42.796,384.54L40.724,379.99L52.554,374.601L54.627,379.15Z" style="fill:white;fill-rule:nonzero;"/>
                <path d="M270.612,819.938L199.51,868.315L142.694,784.811L213.797,736.434L270.612,819.938Z" style="fill:rgb(167,160,169);fill-rule:nonzero;"/>
                <path d="M266.445,819.145L197.822,865.836L144.382,787.292L213.004,740.603L266.445,819.145Z" style="fill:rgb(239,239,239);fill-rule:nonzero;"/>
                <path d="M150.501,789.176L143.887,793.676L142.2,791.195L148.814,786.695L150.501,789.176Z" style="fill:rgb(167,160,169);fill-rule:nonzero;"/>
                <path d="M154.44,794.963L147.825,799.463L146.138,796.983L152.752,792.482L154.44,794.963Z" style="fill:rgb(167,160,169);fill-rule:nonzero;"/>
                <path d="M158.377,800.75L151.763,805.251L150.075,802.77L156.689,798.271L158.377,800.75Z" style="fill:rgb(167,160,169);fill-rule:nonzero;"/>
                <path d="M194.653,765.183L159.102,789.371C158.645,789.683 158.023,789.564 157.712,789.108C157.401,788.65 157.521,788.029 157.977,787.718L193.528,763.529C193.984,763.219 194.606,763.337 194.917,763.794C195.228,764.251 195.11,764.873 194.653,765.183Z" style="fill:rgb(43,54,119);fill-rule:nonzero;"/>
                <path d="M198.591,770.97L163.039,795.159C162.583,795.47 161.961,795.352 161.65,794.895C161.339,794.438 161.458,793.816 161.915,793.506L197.465,769.316C197.922,769.006 198.544,769.124 198.855,769.581C199.166,770.037 199.047,770.66 198.591,770.97Z" style="fill:rgb(43,54,119);fill-rule:nonzero;"/>
                <path d="M194.261,782.383L166.977,800.946C166.521,801.258 165.899,801.14 165.588,800.683C165.277,800.225 165.396,799.604 165.852,799.294L193.136,780.729C193.592,780.419 194.214,780.537 194.525,780.994C194.836,781.451 194.717,782.072 194.261,782.383Z" style="fill:rgb(43,54,119);fill-rule:nonzero;"/>
                <path d="M216.388,775.795L170.915,806.734C170.458,807.044 169.836,806.927 169.525,806.47C169.215,806.013 169.333,805.391 169.79,805.08L215.262,774.141C215.719,773.831 216.341,773.948 216.651,774.405C216.962,774.862 216.844,775.484 216.388,775.795Z" style="fill:rgb(43,54,119);fill-rule:nonzero;"/>
                <path d="M210.404,788.333L174.853,812.521C174.396,812.832 173.774,812.715 173.463,812.258C173.152,811.801 173.271,811.179 173.728,810.867L209.279,786.68C209.736,786.369 210.357,786.486 210.668,786.943C210.979,787.4 210.861,788.022 210.404,788.333Z" style="fill:rgb(43,54,119);fill-rule:nonzero;"/>
                <path d="M214.342,794.12L178.791,818.309C178.334,818.62 177.712,818.501 177.401,818.045C177.09,817.588 177.208,816.966 177.665,816.655L213.217,792.466C213.673,792.156 214.295,792.273 214.606,792.73C214.917,793.188 214.798,793.81 214.342,794.12Z" style="fill:rgb(43,54,119);fill-rule:nonzero;"/>
                <path d="M232.138,798.944L186.666,829.884C186.209,830.195 185.587,830.076 185.276,829.619C184.965,829.162 185.084,828.541 185.541,828.23L231.013,797.291C231.47,796.98 232.092,797.098 232.403,797.555C232.714,798.012 232.595,798.634 232.138,798.944Z" style="fill:rgb(43,54,119);fill-rule:nonzero;"/>
            </g>
        </g>
    </g>
</svg>
