<?xml version="1.0" standalone="no"?>
<svg xmlns="http://www.w3.org/2000/svg" version="1.2" baseProfile="tiny" width="256" height="157" viewBox="0 0 256 157">
<rect x="0" y="0" width="256" height="157" id="0" fill="rgb(238,238,237)" fill-opacity="1" />
<ellipse cx="92" cy="50" rx="49" ry="41" id="1" fill="rgb(193,197,200)" fill-opacity="0.501961" />
<ellipse cx="96" cy="125" rx="255" ry="35" id="2" fill="rgb(252,251,248)" fill-opacity="0.501961" />
<ellipse cx="78" cy="44" rx="39" ry="14" id="3" fill="rgb(194,192,191)" fill-opacity="0.501961" />
<ellipse cx="212" cy="10" rx="77" ry="14" id="4" fill="rgb(255,255,253)" fill-opacity="0.501961" />
<ellipse cx="33" cy="0" rx="63" ry="24" id="5" fill="rgb(253,255,255)" fill-opacity="0.501961" />
<ellipse cx="183" cy="59" rx="15" ry="8" id="6" fill="rgb(197,195,194)" fill-opacity="0.501961" />
<ellipse cx="124" cy="15" rx="19" ry="3" id="7" fill="rgb(154,189,216)" fill-opacity="0.501961" />
<ellipse cx="10" cy="81" rx="53" ry="26" id="8" fill="rgb(252,251,248)" fill-opacity="0.501961" />
<ellipse cx="111" cy="25" rx="39" ry="2" id="9" fill="rgb(145,187,220)" fill-opacity="0.501961" />
<ellipse cx="80" cy="81" rx="18" ry="20" id="10" fill="rgb(222,221,223)" fill-opacity="0.501961" />
<ellipse cx="219" cy="124" rx="42" ry="102" id="11" fill="rgb(243,241,236)" fill-opacity="0.501961" />
<ellipse cx="118" cy="66" rx="26" ry="17" id="12" fill="rgb(226,225,225)" fill-opacity="0.501961" />
<ellipse cx="46" cy="32" rx="10" ry="10" id="13" fill="rgb(195,202,209)" fill-opacity="0.501961" />
<ellipse cx="140" cy="86" rx="19" ry="7" id="14" fill="rgb(255,255,255)" fill-opacity="0.501961" />
<ellipse cx="122" cy="11" rx="9" ry="20" id="15" fill="rgb(227,227,228)" fill-opacity="0.501961" />
<ellipse cx="149" cy="45" rx="22" ry="8" id="16" fill="rgb(251,248,245)" fill-opacity="0.501961" />
<ellipse cx="71" cy="11" rx="5" ry="8" id="17" fill="rgb(184,224,231)" fill-opacity="0.501961" />
<ellipse cx="66" cy="55" rx="18" ry="13" id="18" fill="rgb(201,200,200)" fill-opacity="0.501961" />
<ellipse cx="219" cy="51" rx="51" ry="8" id="19" fill="rgb(230,225,221)" fill-opacity="0.501961" />
<ellipse cx="84" cy="79" rx="23" ry="19" id="20" fill="rgb(223,223,224)" fill-opacity="0.501961" />
<ellipse cx="222" cy="85" rx="17" ry="23" id="21" fill="rgb(250,251,249)" fill-opacity="0.501961" />
<ellipse cx="108" cy="25" rx="154" ry="2" id="22" fill="rgb(184,211,232)" fill-opacity="0.501961" />
<ellipse cx="163" cy="28" rx="19" ry="20" id="23" fill="rgb(251,249,247)" fill-opacity="0.501961" />
<ellipse cx="80" cy="29" rx="206" ry="2" id="24" fill="rgb(252,251,249)" fill-opacity="0.501961" />
<ellipse cx="17" cy="32" rx="19" ry="118" id="25" fill="rgb(248,248,245)" fill-opacity="0.501961" />
<ellipse cx="115" cy="38" rx="18" ry="7" id="26" fill="rgb(198,196,196)" fill-opacity="0.501961" />
<ellipse cx="101" cy="21" rx="42" ry="4" id="27" fill="rgb(239,238,238)" fill-opacity="0.501961" />
<ellipse cx="92" cy="112" rx="22" ry="15" id="28" fill="rgb(252,252,255)" fill-opacity="0.501961" />
<ellipse cx="129" cy="96" rx="27" ry="10" id="29" fill="rgb(252,252,255)" fill-opacity="0.501961" />
<ellipse cx="219" cy="18" rx="7" ry="16" id="30" fill="rgb(253,250,247)" fill-opacity="0.501961" />
<ellipse cx="163" cy="87" rx="27" ry="24" id="31" fill="rgb(247,245,243)" fill-opacity="0.501961" />
<ellipse cx="75" cy="92" rx="8" ry="11" id="32" fill="rgb(212,213,215)" fill-opacity="0.501961" />
<ellipse cx="62" cy="74" rx="7" ry="6" id="33" fill="rgb(250,250,253)" fill-opacity="0.501961" />
<ellipse cx="35" cy="76" rx="15" ry="31" id="34" fill="rgb(245,244,240)" fill-opacity="0.501961" />
<ellipse cx="139" cy="68" rx="6" ry="10" id="35" fill="rgb(213,213,215)" fill-opacity="0.501961" />
<ellipse cx="61" cy="25" rx="7" ry="5" id="36" fill="rgb(249,242,239)" fill-opacity="0.501961" />
<ellipse cx="178" cy="52" rx="8" ry="6" id="37" fill="rgb(186,187,188)" fill-opacity="0.501961" />
<ellipse cx="241" cy="42" rx="48" ry="12" id="38" fill="rgb(238,233,229)" fill-opacity="0.501961" />
<ellipse cx="106" cy="15" rx="33" ry="3" id="39" fill="rgb(172,208,221)" fill-opacity="0.501961" />
<ellipse cx="178" cy="58" rx="10" ry="7" id="40" fill="rgb(196,197,197)" fill-opacity="0.501961" />
<ellipse cx="190" cy="45" rx="3" ry="17" id="41" fill="rgb(251,251,249)" fill-opacity="0.501961" />
<ellipse cx="101" cy="27" rx="157" ry="1" id="42" fill="rgb(244,246,246)" fill-opacity="0.501961" />
<ellipse cx="54" cy="58" rx="5" ry="13" id="43" fill="rgb(200,200,200)" fill-opacity="0.501961" />
<ellipse cx="122" cy="51" rx="8" ry="4" id="44" fill="rgb(243,242,244)" fill-opacity="0.501961" />
<ellipse cx="117" cy="20" rx="3" ry="10" id="45" fill="rgb(236,231,229)" fill-opacity="0.501961" />
<ellipse cx="148" cy="43" rx="15" ry="8" id="46" fill="rgb(241,240,237)" fill-opacity="0.501961" />
<ellipse cx="58" cy="103" rx="9" ry="26" id="47" fill="rgb(249,248,247)" fill-opacity="0.501961" />
<ellipse cx="52" cy="34" rx="17" ry="4" id="48" fill="rgb(205,202,200)" fill-opacity="0.501961" />
<ellipse cx="227" cy="120" rx="38" ry="18" id="49" fill="rgb(241,239,236)" fill-opacity="0.501961" />
<ellipse cx="185" cy="39" rx="6" ry="11" id="50" fill="rgb(249,247,244)" fill-opacity="0.501961" />
<ellipse cx="86" cy="10" rx="15" ry="3" id="51" fill="rgb(250,250,248)" fill-opacity="0.501961" />
<ellipse cx="88" cy="79" rx="15" ry="18" id="52" fill="rgb(223,222,223)" fill-opacity="0.501961" />
<ellipse cx="196" cy="26" rx="15" ry="1" id="53" fill="rgb(131,180,219)" fill-opacity="0.501961" />
<ellipse cx="13" cy="24" rx="5" ry="3" id="54" fill="rgb(175,205,230)" fill-opacity="0.501961" />
<ellipse cx="88" cy="26" rx="14" ry="1" id="55" fill="rgb(121,166,202)" fill-opacity="0.501961" />
<ellipse cx="249" cy="20" rx="8" ry="11" id="56" fill="rgb(253,251,248)" fill-opacity="0.501961" />
<ellipse cx="147" cy="0" rx="17" ry="16" id="57" fill="rgb(250,248,246)" fill-opacity="0.501961" />
</svg>