<?xml version="1.0" standalone="no"?>
<svg xmlns="http://www.w3.org/2000/svg" version="1.2" baseProfile="tiny" width="256" height="156" viewBox="0 0 256 156">
<rect x="0" y="0" width="256" height="156" id="0" fill="rgb(215,216,216)" fill-opacity="1" />
<ellipse cx="51" cy="0" rx="87" ry="38" id="1" fill="rgb(40,48,63)" fill-opacity="0.501961" />
<ellipse cx="221" cy="17" rx="54" ry="19" id="2" fill="rgb(23,12,5)" fill-opacity="0.501961" />
<ellipse cx="94" cy="30" rx="136" ry="6" id="3" fill="rgb(30,35,23)" fill-opacity="0.501961" />
<ellipse cx="224" cy="121" rx="48" ry="93" id="4" fill="rgb(255,255,255)" fill-opacity="0.501961" />
<ellipse cx="35" cy="88" rx="104" ry="54" id="5" fill="rgb(255,255,255)" fill-opacity="0.501961" />
<ellipse cx="178" cy="7" rx="32" ry="15" id="6" fill="rgb(255,255,255)" fill-opacity="0.501961" />
<ellipse cx="26" cy="109" rx="49" ry="75" id="7" fill="rgb(255,255,255)" fill-opacity="0.501961" />
<ellipse cx="234" cy="83" rx="88" ry="49" id="8" fill="rgb(255,255,255)" fill-opacity="0.501961" />
<ellipse cx="206" cy="28" rx="39" ry="8" id="9" fill="rgb(47,26,1)" fill-opacity="0.501961" />
<ellipse cx="114" cy="120" rx="45" ry="18" id="10" fill="rgb(181,180,181)" fill-opacity="0.501961" />
<ellipse cx="146" cy="12" rx="30" ry="28" id="11" fill="rgb(227,221,223)" fill-opacity="0.501961" />
<ellipse cx="249" cy="12" rx="35" ry="17" id="12" fill="rgb(35,51,69)" fill-opacity="0.501961" />
<ellipse cx="238" cy="140" rx="55" ry="112" id="13" fill="rgb(255,255,255)" fill-opacity="0.501961" />
<ellipse cx="22" cy="133" rx="49" ry="98" id="14" fill="rgb(255,255,255)" fill-opacity="0.501961" />
<ellipse cx="161" cy="145" rx="79" ry="8" id="15" fill="rgb(255,255,255)" fill-opacity="0.501961" />
<ellipse cx="90" cy="28" rx="53" ry="7" id="16" fill="rgb(53,65,68)" fill-opacity="0.501961" />
<ellipse cx="164" cy="112" rx="19" ry="10" id="17" fill="rgb(160,162,158)" fill-opacity="0.501961" />
<ellipse cx="39" cy="13" rx="38" ry="9" id="18" fill="rgb(177,169,173)" fill-opacity="0.501961" />
<ellipse cx="236" cy="20" rx="40" ry="6" id="19" fill="rgb(44,31,5)" fill-opacity="0.501961" />
<ellipse cx="84" cy="3" rx="19" ry="8" id="20" fill="rgb(10,54,129)" fill-opacity="0.501961" />
<ellipse cx="94" cy="63" rx="24" ry="29" id="21" fill="rgb(208,210,218)" fill-opacity="0.501961" />
<ellipse cx="255" cy="7" rx="46" ry="9" id="22" fill="rgb(104,125,167)" fill-opacity="0.501961" />
<ellipse cx="10" cy="25" rx="21" ry="4" id="23" fill="rgb(233,200,154)" fill-opacity="0.501961" />
<ellipse cx="127" cy="69" rx="58" ry="35" id="24" fill="rgb(228,231,233)" fill-opacity="0.501961" />
<ellipse cx="32" cy="106" rx="43" ry="71" id="25" fill="rgb(255,255,255)" fill-opacity="0.501961" />
<ellipse cx="255" cy="31" rx="43" ry="4" id="26" fill="rgb(204,152,91)" fill-opacity="0.501961" />
<ellipse cx="111" cy="14" rx="25" ry="10" id="27" fill="rgb(182,184,201)" fill-opacity="0.501961" />
<ellipse cx="67" cy="45" rx="31" ry="11" id="28" fill="rgb(250,243,244)" fill-opacity="0.501961" />
<ellipse cx="140" cy="27" rx="15" ry="6" id="29" fill="rgb(172,157,151)" fill-opacity="0.501961" />
<ellipse cx="224" cy="136" rx="41" ry="102" id="30" fill="rgb(255,255,255)" fill-opacity="0.501961" />
<ellipse cx="173" cy="120" rx="6" ry="16" id="31" fill="rgb(153,151,144)" fill-opacity="0.501961" />
<ellipse cx="195" cy="0" rx="10" ry="11" id="32" fill="rgb(255,255,255)" fill-opacity="0.501961" />
<ellipse cx="106" cy="129" rx="13" ry="56" id="33" fill="rgb(235,240,240)" fill-opacity="0.501961" />
<ellipse cx="79" cy="53" rx="8" ry="19" id="34" fill="rgb(193,184,188)" fill-opacity="0.501961" />
<ellipse cx="83" cy="119" rx="6" ry="16" id="35" fill="rgb(158,157,172)" fill-opacity="0.501961" />
<ellipse cx="103" cy="73" rx="21" ry="2" id="36" fill="rgb(107,166,213)" fill-opacity="0.501961" />
<ellipse cx="147" cy="8" rx="21" ry="9" id="37" fill="rgb(240,247,251)" fill-opacity="0.501961" />
<ellipse cx="47" cy="0" rx="28" ry="4" id="38" fill="rgb(46,73,131)" fill-opacity="0.501961" />
<ellipse cx="172" cy="31" rx="4" ry="5" id="39" fill="rgb(0,0,0)" fill-opacity="0.501961" />
<ellipse cx="4" cy="19" rx="10" ry="3" id="40" fill="rgb(84,57,0)" fill-opacity="0.501961" />
<ellipse cx="184" cy="30" rx="15" ry="6" id="41" fill="rgb(0,0,0)" fill-opacity="0.501961" />
<ellipse cx="135" cy="99" rx="62" ry="5" id="42" fill="rgb(255,255,255)" fill-opacity="0.501961" />
<ellipse cx="190" cy="41" rx="59" ry="7" id="43" fill="rgb(254,250,249)" fill-opacity="0.501961" />
<ellipse cx="131" cy="120" rx="8" ry="18" id="44" fill="rgb(172,155,152)" fill-opacity="0.501961" />
<ellipse cx="158" cy="25" rx="7" ry="7" id="45" fill="rgb(239,224,216)" fill-opacity="0.501961" />
<ellipse cx="141" cy="108" rx="4" ry="73" id="46" fill="rgb(237,241,241)" fill-opacity="0.501961" />
<ellipse cx="41" cy="64" rx="31" ry="29" id="47" fill="rgb(255,255,255)" fill-opacity="0.501961" />
<ellipse cx="207" cy="22" rx="5" ry="8" id="48" fill="rgb(156,121,93)" fill-opacity="0.501961" />
<ellipse cx="77" cy="19" rx="41" ry="4" id="49" fill="rgb(167,162,165)" fill-opacity="0.501961" />
<ellipse cx="116" cy="4" rx="13" ry="9" id="50" fill="rgb(134,148,182)" fill-opacity="0.501961" />
<ellipse cx="104" cy="119" rx="3" ry="18" id="51" fill="rgb(180,182,177)" fill-opacity="0.501961" />
<ellipse cx="131" cy="0" rx="20" ry="8" id="52" fill="rgb(195,196,208)" fill-opacity="0.501961" />
<ellipse cx="239" cy="32" rx="23" ry="4" id="53" fill="rgb(191,159,123)" fill-opacity="0.501961" />
<ellipse cx="178" cy="135" rx="8" ry="12" id="54" fill="rgb(207,208,206)" fill-opacity="0.501961" />
<ellipse cx="107" cy="90" rx="35" ry="1" id="55" fill="rgb(128,177,216)" fill-opacity="0.501961" />
<ellipse cx="125" cy="64" rx="44" ry="9" id="56" fill="rgb(231,220,215)" fill-opacity="0.501961" />
<ellipse cx="85" cy="150" rx="96" ry="2" id="57" fill="rgb(255,254,254)" fill-opacity="0.501961" />
<ellipse cx="179" cy="16" rx="18" ry="8" id="58" fill="rgb(195,179,173)" fill-opacity="0.501961" />
<ellipse cx="87" cy="52" rx="9" ry="13" id="59" fill="rgb(255,245,244)" fill-opacity="0.501961" />
<ellipse cx="101" cy="31" rx="18" ry="4" id="60" fill="rgb(31,47,51)" fill-opacity="0.501961" />
<ellipse cx="165" cy="106" rx="6" ry="16" id="61" fill="rgb(246,243,233)" fill-opacity="0.501961" />
<ellipse cx="154" cy="148" rx="32" ry="11" id="62" fill="rgb(238,241,244)" fill-opacity="0.501961" />
<ellipse cx="77" cy="63" rx="3" ry="7" id="63" fill="rgb(118,119,127)" fill-opacity="0.501961" />
<ellipse cx="223" cy="20" rx="18" ry="8" id="64" fill="rgb(56,43,23)" fill-opacity="0.501961" />
<ellipse cx="248" cy="13" rx="12" ry="5" id="65" fill="rgb(62,102,139)" fill-opacity="0.501961" />
<ellipse cx="133" cy="13" rx="20" ry="3" id="66" fill="rgb(243,245,240)" fill-opacity="0.501961" />
<ellipse cx="207" cy="64" rx="24" ry="29" id="67" fill="rgb(255,255,255)" fill-opacity="0.501961" />
<ellipse cx="138" cy="87" rx="41" ry="4" id="68" fill="rgb(192,214,232)" fill-opacity="0.501961" />
<ellipse cx="11" cy="6" rx="24" ry="4" id="69" fill="rgb(168,166,174)" fill-opacity="0.501961" />
<ellipse cx="206" cy="10" rx="9" ry="5" id="70" fill="rgb(223,210,211)" fill-opacity="0.501961" />
<ellipse cx="185" cy="4" rx="8" ry="5" id="71" fill="rgb(204,199,196)" fill-opacity="0.501961" />
<ellipse cx="180" cy="109" rx="3" ry="6" id="72" fill="rgb(161,150,141)" fill-opacity="0.501961" />
<ellipse cx="68" cy="27" rx="53" ry="4" id="73" fill="rgb(69,77,82)" fill-opacity="0.501961" />
<ellipse cx="201" cy="25" rx="27" ry="4" id="74" fill="rgb(89,71,57)" fill-opacity="0.501961" />
<ellipse cx="151" cy="42" rx="35" ry="8" id="75" fill="rgb(226,224,221)" fill-opacity="0.501961" />
<ellipse cx="149" cy="77" rx="30" ry="7" id="76" fill="rgb(251,249,249)" fill-opacity="0.501961" />
<ellipse cx="101" cy="8" rx="27" ry="5" id="77" fill="rgb(99,117,154)" fill-opacity="0.501961" />
<ellipse cx="11" cy="23" rx="24" ry="2" id="78" fill="rgb(253,209,158)" fill-opacity="0.501961" />
<ellipse cx="131" cy="33" rx="19" ry="2" id="79" fill="rgb(99,103,95)" fill-opacity="0.501961" />
<ellipse cx="75" cy="147" rx="5" ry="46" id="80" fill="rgb(214,224,231)" fill-opacity="0.501961" />
<ellipse cx="16" cy="45" rx="56" ry="10" id="81" fill="rgb(255,255,255)" fill-opacity="0.501961" />
<ellipse cx="231" cy="155" rx="48" ry="120" id="82" fill="rgb(255,255,255)" fill-opacity="0.501961" />
<ellipse cx="189" cy="31" rx="20" ry="4" id="83" fill="rgb(0,0,0)" fill-opacity="0.501961" />
<ellipse cx="201" cy="33" rx="17" ry="2" id="84" fill="rgb(0,0,0)" fill-opacity="0.501961" />
<ellipse cx="2" cy="20" rx="29" ry="2" id="85" fill="rgb(121,94,48)" fill-opacity="0.501961" />
<ellipse cx="85" cy="39" rx="14" ry="4" id="86" fill="rgb(192,172,182)" fill-opacity="0.501961" />
<ellipse cx="128" cy="57" rx="5" ry="12" id="87" fill="rgb(242,192,183)" fill-opacity="0.501961" />
<ellipse cx="41" cy="144" rx="31" ry="108" id="88" fill="rgb(255,255,255)" fill-opacity="0.501961" />
<ellipse cx="102" cy="23" rx="60" ry="1" id="89" fill="rgb(127,118,114)" fill-opacity="0.501961" />
<ellipse cx="6" cy="30" rx="27" ry="6" id="90" fill="rgb(107,126,103)" fill-opacity="0.501961" />
<ellipse cx="11" cy="0" rx="9" ry="19" id="91" fill="rgb(144,147,159)" fill-opacity="0.501961" />
</svg>