<?xml version="1.0" standalone="no"?>
<svg xmlns="http://www.w3.org/2000/svg" version="1.2" baseProfile="tiny" width="256" height="157" viewBox="0 0 256 157">
<rect x="0" y="0" width="256" height="157" id="0" fill="rgb(204,203,193)" fill-opacity="1" />
<ellipse cx="155" cy="11" rx="255" ry="17" id="1" fill="rgb(19,31,0)" fill-opacity="0.501961" />
<ellipse cx="126" cy="104" rx="114" ry="77" id="2" fill="rgb(255,255,255)" fill-opacity="0.501961" />
<ellipse cx="249" cy="101" rx="10" ry="108" id="3" fill="rgb(0,0,0)" fill-opacity="0.501961" />
<ellipse cx="0" cy="112" rx="16" ry="91" id="4" fill="rgb(0,10,0)" fill-opacity="0.501961" />
<ellipse cx="77" cy="115" rx="63" ry="69" id="5" fill="rgb(255,255,255)" fill-opacity="0.501961" />
<ellipse cx="0" cy="19" rx="22" ry="13" id="6" fill="rgb(248,255,255)" fill-opacity="0.501961" />
<ellipse cx="194" cy="118" rx="46" ry="91" id="7" fill="rgb(255,255,254)" fill-opacity="0.501961" />
<ellipse cx="215" cy="68" rx="25" ry="41" id="8" fill="rgb(255,251,245)" fill-opacity="0.501961" />
<ellipse cx="29" cy="64" rx="14" ry="37" id="9" fill="rgb(255,255,251)" fill-opacity="0.501961" />
<ellipse cx="59" cy="33" rx="45" ry="6" id="10" fill="rgb(255,255,255)" fill-opacity="0.501961" />
<ellipse cx="201" cy="17" rx="65" ry="11" id="11" fill="rgb(71,80,45)" fill-opacity="0.501961" />
<ellipse cx="253" cy="134" rx="12" ry="31" id="12" fill="rgb(19,32,0)" fill-opacity="0.501961" />
<ellipse cx="10" cy="44" rx="6" ry="22" id="13" fill="rgb(85,114,101)" fill-opacity="0.501961" />
<ellipse cx="120" cy="0" rx="8" ry="12" id="14" fill="rgb(230,239,233)" fill-opacity="0.501961" />
<ellipse cx="251" cy="70" rx="10" ry="21" id="15" fill="rgb(22,39,0)" fill-opacity="0.501961" />
<ellipse cx="122" cy="43" rx="23" ry="4" id="16" fill="rgb(161,146,128)" fill-opacity="0.501961" />
<ellipse cx="128" cy="137" rx="112" ry="90" id="17" fill="rgb(250,246,240)" fill-opacity="0.501961" />
<ellipse cx="67" cy="0" rx="9" ry="20" id="18" fill="rgb(228,223,204)" fill-opacity="0.501961" />
<ellipse cx="12" cy="67" rx="4" ry="41" id="19" fill="rgb(73,83,46)" fill-opacity="0.501961" />
<ellipse cx="2" cy="141" rx="13" ry="11" id="20" fill="rgb(35,45,0)" fill-opacity="0.501961" />
<ellipse cx="233" cy="0" rx="20" ry="16" id="21" fill="rgb(148,149,116)" fill-opacity="0.501961" />
<ellipse cx="16" cy="20" rx="8" ry="7" id="22" fill="rgb(255,255,255)" fill-opacity="0.501961" />
<ellipse cx="151" cy="34" rx="89" ry="7" id="23" fill="rgb(255,254,249)" fill-opacity="0.501961" />
<ellipse cx="57" cy="27" rx="33" ry="1" id="24" fill="rgb(5,11,0)" fill-opacity="0.501961" />
<ellipse cx="78" cy="46" rx="53" ry="1" id="25" fill="rgb(136,117,98)" fill-opacity="0.501961" />
<ellipse cx="89" cy="41" rx="59" ry="4" id="26" fill="rgb(197,186,174)" fill-opacity="0.501961" />
<ellipse cx="97" cy="24" rx="74" ry="4" id="27" fill="rgb(74,80,40)" fill-opacity="0.501961" />
<ellipse cx="7" cy="113" rx="9" ry="14" id="28" fill="rgb(130,149,174)" fill-opacity="0.501961" />
<ellipse cx="94" cy="8" rx="6" ry="15" id="29" fill="rgb(42,52,21)" fill-opacity="0.501961" />
<ellipse cx="103" cy="0" rx="2" ry="17" id="30" fill="rgb(229,238,237)" fill-opacity="0.501961" />
<ellipse cx="194" cy="0" rx="5" ry="19" id="31" fill="rgb(198,209,155)" fill-opacity="0.501961" />
<ellipse cx="171" cy="54" rx="46" ry="2" id="32" fill="rgb(185,173,160)" fill-opacity="0.501961" />
<ellipse cx="130" cy="17" rx="7" ry="7" id="33" fill="rgb(232,237,213)" fill-opacity="0.501961" />
<ellipse cx="0" cy="33" rx="16" ry="9" id="34" fill="rgb(105,135,150)" fill-opacity="0.501961" />
<ellipse cx="48" cy="4" rx="9" ry="18" id="35" fill="rgb(89,72,27)" fill-opacity="0.501961" />
<ellipse cx="248" cy="29" rx="9" ry="15" id="36" fill="rgb(53,62,25)" fill-opacity="0.501961" />
<ellipse cx="225" cy="57" rx="15" ry="30" id="37" fill="rgb(250,247,243)" fill-opacity="0.501961" />
<ellipse cx="85" cy="16" rx="5" ry="6" id="38" fill="rgb(246,244,247)" fill-opacity="0.501961" />
<ellipse cx="49" cy="0" rx="23" ry="4" id="39" fill="rgb(87,87,25)" fill-opacity="0.501961" />
<ellipse cx="113" cy="16" rx="11" ry="6" id="40" fill="rgb(63,75,25)" fill-opacity="0.501961" />
<ellipse cx="0" cy="81" rx="15" ry="13" id="41" fill="rgb(59,62,36)" fill-opacity="0.501961" />
<ellipse cx="120" cy="0" rx="32" ry="3" id="42" fill="rgb(137,146,130)" fill-opacity="0.501961" />
<ellipse cx="184" cy="7" rx="57" ry="6" id="43" fill="rgb(90,99,56)" fill-opacity="0.501961" />
<ellipse cx="223" cy="24" rx="32" ry="4" id="44" fill="rgb(47,53,42)" fill-opacity="0.501961" />
<ellipse cx="9" cy="152" rx="7" ry="22" id="45" fill="rgb(73,88,30)" fill-opacity="0.501961" />
<ellipse cx="242" cy="108" rx="2" ry="57" id="46" fill="rgb(74,87,30)" fill-opacity="0.501961" />
<ellipse cx="123" cy="7" rx="5" ry="2" id="47" fill="rgb(255,255,255)" fill-opacity="0.501961" />
<ellipse cx="72" cy="43" rx="2" ry="27" id="48" fill="rgb(244,238,229)" fill-opacity="0.501961" />
<ellipse cx="54" cy="0" rx="6" ry="10" id="49" fill="rgb(201,186,86)" fill-opacity="0.501961" />
<ellipse cx="9" cy="45" rx="3" ry="15" id="50" fill="rgb(158,176,171)" fill-opacity="0.501961" />
<ellipse cx="38" cy="12" rx="5" ry="6" id="51" fill="rgb(197,204,154)" fill-opacity="0.501961" />
<ellipse cx="158" cy="86" rx="83" ry="30" id="52" fill="rgb(246,243,238)" fill-opacity="0.501961" />
<ellipse cx="31" cy="25" rx="10" ry="3" id="53" fill="rgb(78,91,20)" fill-opacity="0.501961" />
<ellipse cx="40" cy="153" rx="25" ry="108" id="54" fill="rgb(246,243,238)" fill-opacity="0.501961" />
<ellipse cx="28" cy="7" rx="14" ry="8" id="55" fill="rgb(144,148,113)" fill-opacity="0.501961" />
<ellipse cx="48" cy="26" rx="5" ry="3" id="56" fill="rgb(235,237,233)" fill-opacity="0.501961" />
<ellipse cx="0" cy="32" rx="4" ry="47" id="57" fill="rgb(113,121,87)" fill-opacity="0.501961" />
<ellipse cx="102" cy="26" rx="61" ry="2" id="58" fill="rgb(59,65,29)" fill-opacity="0.501961" />
<ellipse cx="19" cy="68" rx="4" ry="60" id="59" fill="rgb(255,253,249)" fill-opacity="0.501961" />
<ellipse cx="255" cy="83" rx="14" ry="4" id="60" fill="rgb(124,132,103)" fill-opacity="0.501961" />
<ellipse cx="3" cy="15" rx="51" ry="2" id="61" fill="rgb(158,159,137)" fill-opacity="0.501961" />
<ellipse cx="210" cy="14" rx="10" ry="10" id="62" fill="rgb(56,59,38)" fill-opacity="0.501961" />
<ellipse cx="231" cy="45" rx="9" ry="18" id="63" fill="rgb(251,248,243)" fill-opacity="0.501961" />
<ellipse cx="255" cy="134" rx="5" ry="53" id="64" fill="rgb(52,59,18)" fill-opacity="0.501961" />
<ellipse cx="54" cy="17" rx="5" ry="4" id="65" fill="rgb(12,0,0)" fill-opacity="0.501961" />
<ellipse cx="90" cy="0" rx="11" ry="16" id="66" fill="rgb(74,82,46)" fill-opacity="0.501961" />
</svg>