<?xml version="1.0" standalone="no"?>
<svg xmlns="http://www.w3.org/2000/svg" version="1.2" baseProfile="tiny" width="159" height="256" viewBox="0 0 159 256">
<rect x="0" y="0" width="159" height="256" id="0" fill="rgb(218,215,197)" fill-opacity="1" />
<ellipse cx="69" cy="2" rx="158" ry="18" id="1" fill="rgb(245,178,0)" fill-opacity="0.501961" />
<ellipse cx="119" cy="0" rx="118" ry="20" id="2" fill="rgb(232,195,2)" fill-opacity="0.501961" />
<ellipse cx="130" cy="111" rx="80" ry="32" id="3" fill="rgb(231,233,235)" fill-opacity="0.501961" />
<ellipse cx="60" cy="205" rx="158" ry="69" id="4" fill="rgb(214,217,220)" fill-opacity="0.501961" />
<ellipse cx="76" cy="29" rx="143" ry="11" id="5" fill="rgb(227,230,233)" fill-opacity="0.501961" />
<ellipse cx="62" cy="74" rx="158" ry="38" id="6" fill="rgb(210,213,213)" fill-opacity="0.501961" />
<ellipse cx="0" cy="211" rx="22" ry="129" id="7" fill="rgb(231,232,225)" fill-opacity="0.501961" />
<ellipse cx="86" cy="144" rx="93" ry="2" id="8" fill="rgb(165,165,161)" fill-opacity="0.501961" />
<ellipse cx="85" cy="169" rx="73" ry="2" id="9" fill="rgb(164,164,159)" fill-opacity="0.501961" />
<ellipse cx="42" cy="5" rx="112" ry="15" id="10" fill="rgb(232,196,45)" fill-opacity="0.501961" />
<ellipse cx="113" cy="71" rx="123" ry="2" id="11" fill="rgb(165,164,162)" fill-opacity="0.501961" />
<ellipse cx="92" cy="56" rx="44" ry="2" id="12" fill="rgb(160,160,157)" fill-opacity="0.501961" />
<ellipse cx="158" cy="136" rx="21" ry="111" id="13" fill="rgb(231,231,223)" fill-opacity="0.501961" />
<ellipse cx="79" cy="186" rx="57" ry="1" id="14" fill="rgb(149,148,145)" fill-opacity="0.501961" />
<ellipse cx="47" cy="160" rx="128" ry="8" id="15" fill="rgb(232,232,223)" fill-opacity="0.501961" />
<ellipse cx="88" cy="239" rx="70" ry="2" id="16" fill="rgb(159,158,154)" fill-opacity="0.501961" />
<ellipse cx="62" cy="78" rx="65" ry="2" id="17" fill="rgb(162,162,160)" fill-opacity="0.501961" />
<ellipse cx="63" cy="152" rx="66" ry="2" id="18" fill="rgb(161,161,156)" fill-opacity="0.501961" />
<ellipse cx="9" cy="100" rx="57" ry="2" id="19" fill="rgb(144,144,141)" fill-opacity="0.501961" />
<ellipse cx="66" cy="216" rx="94" ry="2" id="20" fill="rgb(174,173,168)" fill-opacity="0.501961" />
<ellipse cx="57" cy="208" rx="108" ry="2" id="21" fill="rgb(172,172,166)" fill-opacity="0.501961" />
<ellipse cx="17" cy="10" rx="13" ry="2" id="22" fill="rgb(242,245,251)" fill-opacity="0.501961" />
<ellipse cx="78" cy="92" rx="70" ry="8" id="23" fill="rgb(234,234,224)" fill-opacity="0.501961" />
<ellipse cx="88" cy="177" rx="48" ry="2" id="24" fill="rgb(167,167,162)" fill-opacity="0.501961" />
<ellipse cx="80" cy="255" rx="67" ry="2" id="25" fill="rgb(159,158,154)" fill-opacity="0.501961" />
<ellipse cx="45" cy="107" rx="85" ry="1" id="26" fill="rgb(154,152,147)" fill-opacity="0.501961" />
<ellipse cx="134" cy="232" rx="119" ry="2" id="27" fill="rgb(169,169,164)" fill-opacity="0.501961" />
<ellipse cx="0" cy="212" rx="22" ry="55" id="28" fill="rgb(229,229,220)" fill-opacity="0.501961" />
<ellipse cx="60" cy="200" rx="35" ry="2" id="29" fill="rgb(160,160,155)" fill-opacity="0.501961" />
<ellipse cx="51" cy="193" rx="110" ry="2" id="30" fill="rgb(178,178,172)" fill-opacity="0.501961" />
<ellipse cx="12" cy="31" rx="22" ry="2" id="31" fill="rgb(140,140,137)" fill-opacity="0.501961" />
<ellipse cx="0" cy="38" rx="6" ry="17" id="32" fill="rgb(237,237,231)" fill-opacity="0.501961" />
<ellipse cx="55" cy="41" rx="97" ry="2" id="33" fill="rgb(168,168,165)" fill-opacity="0.501961" />
<ellipse cx="16" cy="108" rx="132" ry="2" id="34" fill="rgb(175,174,168)" fill-opacity="0.501961" />
<ellipse cx="75" cy="63" rx="69" ry="2" id="35" fill="rgb(169,168,165)" fill-opacity="0.501961" />
<ellipse cx="1" cy="119" rx="5" ry="100" id="36" fill="rgb(231,232,225)" fill-opacity="0.501961" />
<ellipse cx="155" cy="240" rx="8" ry="37" id="37" fill="rgb(232,232,224)" fill-opacity="0.501961" />
<ellipse cx="63" cy="118" rx="44" ry="2" id="38" fill="rgb(233,219,155)" fill-opacity="0.501961" />
<ellipse cx="22" cy="204" rx="158" ry="3" id="39" fill="rgb(233,233,225)" fill-opacity="0.501961" />
<ellipse cx="7" cy="19" rx="158" ry="1" id="40" fill="rgb(156,152,145)" fill-opacity="0.501961" />
<ellipse cx="55" cy="49" rx="84" ry="2" id="41" fill="rgb(168,168,165)" fill-opacity="0.501961" />
<ellipse cx="7" cy="202" rx="15" ry="35" id="42" fill="rgb(226,226,218)" fill-opacity="0.501961" />
<ellipse cx="118" cy="224" rx="62" ry="7" id="43" fill="rgb(234,234,225)" fill-opacity="0.501961" />
<ellipse cx="117" cy="60" rx="128" ry="3" id="44" fill="rgb(233,233,226)" fill-opacity="0.501961" />
<ellipse cx="43" cy="131" rx="47" ry="3" id="45" fill="rgb(231,232,228)" fill-opacity="0.501961" />
<ellipse cx="41" cy="75" rx="158" ry="3" id="46" fill="rgb(231,231,224)" fill-opacity="0.501961" />
<ellipse cx="73" cy="139" rx="77" ry="3" id="47" fill="rgb(232,232,224)" fill-opacity="0.501961" />
<ellipse cx="36" cy="86" rx="13" ry="2" id="48" fill="rgb(165,165,162)" fill-opacity="0.501961" />
<ellipse cx="91" cy="122" rx="25" ry="13" id="49" fill="rgb(227,228,223)" fill-opacity="0.501961" />
<ellipse cx="62" cy="52" rx="87" ry="3" id="50" fill="rgb(232,231,224)" fill-opacity="0.501961" />
<ellipse cx="48" cy="135" rx="23" ry="2" id="51" fill="rgb(239,215,113)" fill-opacity="0.501961" />
<ellipse cx="40" cy="246" rx="73" ry="2" id="52" fill="rgb(182,181,175)" fill-opacity="0.501961" />
<ellipse cx="3" cy="255" rx="19" ry="103" id="53" fill="rgb(225,226,218)" fill-opacity="0.501961" />
<ellipse cx="40" cy="56" rx="37" ry="2" id="54" fill="rgb(169,168,165)" fill-opacity="0.501961" />
<ellipse cx="128" cy="185" rx="115" ry="2" id="55" fill="rgb(177,177,171)" fill-opacity="0.501961" />
<ellipse cx="53" cy="17" rx="61" ry="2" id="56" fill="rgb(231,193,28)" fill-opacity="0.501961" />
<ellipse cx="26" cy="212" rx="137" ry="2" id="57" fill="rgb(234,234,225)" fill-opacity="0.501961" />
<ellipse cx="158" cy="182" rx="21" ry="12" id="58" fill="rgb(232,232,224)" fill-opacity="0.501961" />
<ellipse cx="106" cy="32" rx="75" ry="9" id="59" fill="rgb(229,229,221)" fill-opacity="0.501961" />
<ellipse cx="102" cy="67" rx="114" ry="2" id="60" fill="rgb(237,237,229)" fill-opacity="0.501961" />
<ellipse cx="93" cy="251" rx="93" ry="3" id="61" fill="rgb(235,235,226)" fill-opacity="0.501961" />
<ellipse cx="128" cy="246" rx="24" ry="6" id="62" fill="rgb(234,234,225)" fill-opacity="0.501961" />
<ellipse cx="82" cy="87" rx="40" ry="8" id="63" fill="rgb(229,229,220)" fill-opacity="0.501961" />
<ellipse cx="41" cy="236" rx="128" ry="2" id="64" fill="rgb(234,234,225)" fill-opacity="0.501961" />
<ellipse cx="30" cy="98" rx="26" ry="2" id="65" fill="rgb(229,229,222)" fill-opacity="0.501961" />
<ellipse cx="27" cy="122" rx="39" ry="3" id="66" fill="rgb(232,233,231)" fill-opacity="0.501961" />
<ellipse cx="34" cy="45" rx="158" ry="2" id="67" fill="rgb(237,236,229)" fill-opacity="0.501961" />
<ellipse cx="138" cy="200" rx="43" ry="7" id="68" fill="rgb(230,230,221)" fill-opacity="0.501961" />
<ellipse cx="125" cy="100" rx="67" ry="7" id="69" fill="rgb(230,230,219)" fill-opacity="0.501961" />
<ellipse cx="42" cy="127" rx="20" ry="2" id="70" fill="rgb(239,215,117)" fill-opacity="0.501961" />
<ellipse cx="58" cy="181" rx="110" ry="3" id="71" fill="rgb(234,234,225)" fill-opacity="0.501961" />
<ellipse cx="152" cy="179" rx="27" ry="6" id="72" fill="rgb(227,227,219)" fill-opacity="0.501961" />
<ellipse cx="158" cy="214" rx="8" ry="102" id="73" fill="rgb(226,226,218)" fill-opacity="0.501961" />
<ellipse cx="48" cy="112" rx="95" ry="3" id="74" fill="rgb(230,231,224)" fill-opacity="0.501961" />
<ellipse cx="39" cy="224" rx="16" ry="1" id="75" fill="rgb(149,149,145)" fill-opacity="0.501961" />
<ellipse cx="154" cy="11" rx="7" ry="3" id="76" fill="rgb(231,208,112)" fill-opacity="0.501961" />
<ellipse cx="36" cy="148" rx="133" ry="2" id="77" fill="rgb(233,233,224)" fill-opacity="0.501961" />
<ellipse cx="144" cy="54" rx="14" ry="4" id="78" fill="rgb(233,233,225)" fill-opacity="0.501961" />
<ellipse cx="95" cy="173" rx="85" ry="2" id="79" fill="rgb(234,234,225)" fill-opacity="0.501961" />
<ellipse cx="27" cy="196" rx="108" ry="3" id="80" fill="rgb(230,230,221)" fill-opacity="0.501961" />
<ellipse cx="0" cy="48" rx="6" ry="25" id="81" fill="rgb(228,228,221)" fill-opacity="0.501961" />
<ellipse cx="110" cy="189" rx="108" ry="3" id="82" fill="rgb(228,228,219)" fill-opacity="0.501961" />
<ellipse cx="16" cy="78" rx="134" ry="2" id="83" fill="rgb(182,182,176)" fill-opacity="0.501961" />
<ellipse cx="42" cy="118" rx="24" ry="2" id="84" fill="rgb(232,211,124)" fill-opacity="0.501961" />
<ellipse cx="2" cy="91" rx="4" ry="68" id="85" fill="rgb(226,226,219)" fill-opacity="0.501961" />
<ellipse cx="155" cy="94" rx="31" ry="22" id="86" fill="rgb(227,227,218)" fill-opacity="0.501961" />
<ellipse cx="66" cy="247" rx="36" ry="1" id="87" fill="rgb(168,167,163)" fill-opacity="0.501961" />
</svg>