<?xml version="1.0" encoding="UTF-8" standalone="no"?><!DOCTYPE svg PUBLIC "-//W3C//DTD SVG 1.1//EN" "http://www.w3.org/Graphics/SVG/1.1/DTD/svg11.dtd"><svg width="100%" height="100%" viewBox="0 0 853 492" version="1.1" xmlns="http://www.w3.org/2000/svg" xmlns:xlink="http://www.w3.org/1999/xlink" xml:space="preserve" xmlns:serif="http://www.serif.com/" style="fill-rule:evenodd;clip-rule:evenodd;stroke-linejoin:round;stroke-miterlimit:1.41421;"><path d="M758.375,469l-664,0c-8.837,0 -16,-7.163 -16,-16l0,-429c0,-13.255 10.745,-24 24,-24l648,0c13.255,0 24,10.745 24,24l0,429c0,8.837 -7.163,16 -16,16Zm-7,-438.5l-650,0l0,404l650,0l0,-404Z" style="fill:#c6c6c6;"/><path d="M429,465.5l-0.25,0l-428.75,0l0,15.126c0,-0.623 18.804,10.874 33.107,10.874l786.769,0c14.202,0 32.874,-11.497 32.874,-10.874l0,-0.11l0,-15.016l-423.75,0Z" style="fill:#b9b9ba;fill-rule:nonzero;"/><path d="M429,465.5l-0.25,0l-428.75,0l0,15.126c0,-0.623 852.75,-0.623 852.75,0l0,-0.11l0,-15.016l-423.75,0Z" style="fill:#d3d3d3;fill-rule:nonzero;"/><path d="M476.498,475.206l-100.247,0c-5.315,0 -9.623,-4.309 -9.623,-9.624l0,-0.097l119.494,0l0,0.097c0,5.315 -4.309,9.624 -9.624,9.624" style="fill:#a6a8ab;fill-rule:nonzero;"/><path d="M429.783,15.908c0,1.882 -1.526,3.408 -3.408,3.408c-1.883,0 -3.409,-1.526 -3.409,-3.408c0,-1.882 1.526,-3.408 3.409,-3.408c1.882,0 3.408,1.526 3.408,3.408" style="fill:#fff;fill-rule:nonzero;"/></svg>