<?xml version="1.0" standalone="no"?>
<svg xmlns="http://www.w3.org/2000/svg" version="1.2" baseProfile="tiny" width="159" height="256" viewBox="0 0 159 256">
<rect x="0" y="0" width="159" height="256" id="0" fill="rgb(196,172,146)" fill-opacity="1" />
<ellipse cx="130" cy="202" rx="38" ry="101" id="1" fill="rgb(255,255,255)" fill-opacity="0.501961" />
<ellipse cx="133" cy="76" rx="41" ry="28" id="2" fill="rgb(3,0,0)" fill-opacity="0.501961" />
<ellipse cx="15" cy="62" rx="59" ry="42" id="3" fill="rgb(50,32,0)" fill-opacity="0.501961" />
<ellipse cx="48" cy="197" rx="40" ry="54" id="4" fill="rgb(170,56,4)" fill-opacity="0.501961" />
<ellipse cx="68" cy="123" rx="158" ry="21" id="5" fill="rgb(255,255,255)" fill-opacity="0.501961" />
<ellipse cx="88" cy="7" rx="158" ry="16" id="6" fill="rgb(255,255,255)" fill-opacity="0.501961" />
<ellipse cx="131" cy="37" rx="53" ry="15" id="7" fill="rgb(31,17,0)" fill-opacity="0.501961" />
<ellipse cx="142" cy="198" rx="36" ry="96" id="8" fill="rgb(255,255,255)" fill-opacity="0.501961" />
<ellipse cx="75" cy="61" rx="35" ry="30" id="9" fill="rgb(250,163,89)" fill-opacity="0.501961" />
<ellipse cx="0" cy="195" rx="9" ry="93" id="10" fill="rgb(255,255,255)" fill-opacity="0.501961" />
<ellipse cx="71" cy="173" rx="37" ry="30" id="11" fill="rgb(206,123,74)" fill-opacity="0.501961" />
<ellipse cx="54" cy="10" rx="158" ry="13" id="12" fill="rgb(255,255,255)" fill-opacity="0.501961" />
<ellipse cx="17" cy="222" rx="10" ry="30" id="13" fill="rgb(68,39,11)" fill-opacity="0.501961" />
<ellipse cx="27" cy="89" rx="35" ry="14" id="14" fill="rgb(49,33,0)" fill-opacity="0.501961" />
<ellipse cx="70" cy="108" rx="158" ry="6" id="15" fill="rgb(255,255,255)" fill-opacity="0.501961" />
<ellipse cx="77" cy="255" rx="154" ry="5" id="16" fill="rgb(255,255,255)" fill-opacity="0.501961" />
<ellipse cx="110" cy="90" rx="21" ry="13" id="17" fill="rgb(56,31,0)" fill-opacity="0.501961" />
<ellipse cx="35" cy="130" rx="27" ry="4" id="18" fill="rgb(109,63,0)" fill-opacity="0.501961" />
<ellipse cx="60" cy="169" rx="18" ry="26" id="19" fill="rgb(254,180,137)" fill-opacity="0.501961" />
<ellipse cx="138" cy="181" rx="31" ry="79" id="20" fill="rgb(255,255,255)" fill-opacity="0.501961" />
<ellipse cx="82" cy="160" rx="8" ry="17" id="21" fill="rgb(94,33,18)" fill-opacity="0.501961" />
<ellipse cx="139" cy="63" rx="31" ry="40" id="22" fill="rgb(84,77,8)" fill-opacity="0.501961" />
<ellipse cx="52" cy="118" rx="158" ry="10" id="23" fill="rgb(255,255,255)" fill-opacity="0.501961" />
<ellipse cx="87" cy="240" rx="14" ry="44" id="24" fill="rgb(255,216,167)" fill-opacity="0.501961" />
<ellipse cx="31" cy="204" rx="16" ry="47" id="25" fill="rgb(132,78,42)" fill-opacity="0.501961" />
<ellipse cx="0" cy="194" rx="9" ry="92" id="26" fill="rgb(255,255,255)" fill-opacity="0.501961" />
<ellipse cx="12" cy="57" rx="31" ry="34" id="27" fill="rgb(78,85,23)" fill-opacity="0.501961" />
<ellipse cx="74" cy="63" rx="31" ry="40" id="28" fill="rgb(205,144,91)" fill-opacity="0.501961" />
<ellipse cx="31" cy="7" rx="158" ry="16" id="29" fill="rgb(255,255,255)" fill-opacity="0.501961" />
<ellipse cx="36" cy="37" rx="32" ry="16" id="30" fill="rgb(115,98,44)" fill-opacity="0.501961" />
<ellipse cx="86" cy="114" rx="158" ry="11" id="31" fill="rgb(255,255,255)" fill-opacity="0.501961" />
<ellipse cx="137" cy="233" rx="33" ry="105" id="32" fill="rgb(255,255,255)" fill-opacity="0.501961" />
<ellipse cx="103" cy="32" rx="23" ry="10" id="33" fill="rgb(62,49,0)" fill-opacity="0.501961" />
<ellipse cx="101" cy="137" rx="7" ry="11" id="34" fill="rgb(204,200,64)" fill-opacity="0.501961" />
<ellipse cx="24" cy="143" rx="16" ry="11" id="35" fill="rgb(224,142,86)" fill-opacity="0.501961" />
<ellipse cx="47" cy="49" rx="12" ry="9" id="36" fill="rgb(234,181,126)" fill-opacity="0.501961" />
<ellipse cx="77" cy="255" rx="149" ry="5" id="37" fill="rgb(255,255,255)" fill-opacity="0.501961" />
<ellipse cx="80" cy="55" rx="33" ry="17" id="38" fill="rgb(222,169,120)" fill-opacity="0.501961" />
<ellipse cx="55" cy="238" rx="26" ry="13" id="39" fill="rgb(232,134,88)" fill-opacity="0.501961" />
<ellipse cx="106" cy="165" rx="2" ry="41" id="40" fill="rgb(188,183,79)" fill-opacity="0.501961" />
<ellipse cx="53" cy="156" rx="23" ry="3" id="41" fill="rgb(126,69,56)" fill-opacity="0.501961" />
<ellipse cx="77" cy="183" rx="4" ry="40" id="42" fill="rgb(197,121,78)" fill-opacity="0.501961" />
<ellipse cx="133" cy="101" rx="35" ry="2" id="43" fill="rgb(9,0,0)" fill-opacity="0.501961" />
<ellipse cx="38" cy="205" rx="12" ry="19" id="44" fill="rgb(124,59,34)" fill-opacity="0.501961" />
<ellipse cx="92" cy="132" rx="8" ry="5" id="45" fill="rgb(171,196,0)" fill-opacity="0.501961" />
<ellipse cx="91" cy="169" rx="10" ry="9" id="46" fill="rgb(121,64,28)" fill-opacity="0.501961" />
<ellipse cx="65" cy="80" rx="16" ry="6" id="47" fill="rgb(128,58,26)" fill-opacity="0.501961" />
<ellipse cx="67" cy="113" rx="4" ry="34" id="48" fill="rgb(255,247,223)" fill-opacity="0.501961" />
<ellipse cx="12" cy="212" rx="4" ry="37" id="49" fill="rgb(78,44,36)" fill-opacity="0.501961" />
<ellipse cx="84" cy="12" rx="39" ry="2" id="50" fill="rgb(181,184,187)" fill-opacity="0.501961" />
<ellipse cx="12" cy="154" rx="5" ry="27" id="51" fill="rgb(255,197,149)" fill-opacity="0.501961" />
<ellipse cx="43" cy="26" rx="18" ry="4" id="52" fill="rgb(70,59,16)" fill-opacity="0.501961" />
<ellipse cx="73" cy="138" rx="39" ry="7" id="53" fill="rgb(255,243,196)" fill-opacity="0.501961" />
<ellipse cx="57" cy="121" rx="158" ry="6" id="54" fill="rgb(255,255,255)" fill-opacity="0.501961" />
<ellipse cx="136" cy="148" rx="29" ry="46" id="55" fill="rgb(255,255,255)" fill-opacity="0.501961" />
<ellipse cx="154" cy="38" rx="30" ry="16" id="56" fill="rgb(119,109,52)" fill-opacity="0.501961" />
<ellipse cx="36" cy="232" rx="24" ry="14" id="57" fill="rgb(170,118,77)" fill-opacity="0.501961" />
<ellipse cx="101" cy="172" rx="7" ry="26" id="58" fill="rgb(229,179,110)" fill-opacity="0.501961" />
<ellipse cx="85" cy="187" rx="9" ry="11" id="59" fill="rgb(129,86,54)" fill-opacity="0.501961" />
<ellipse cx="138" cy="234" rx="40" ry="56" id="60" fill="rgb(255,255,255)" fill-opacity="0.501961" />
<ellipse cx="0" cy="199" rx="8" ry="87" id="61" fill="rgb(255,255,255)" fill-opacity="0.501961" />
<ellipse cx="79" cy="230" rx="12" ry="21" id="62" fill="rgb(255,164,108)" fill-opacity="0.501961" />
<ellipse cx="87" cy="32" rx="7" ry="11" id="63" fill="rgb(195,114,62)" fill-opacity="0.501961" />
<ellipse cx="32" cy="199" rx="11" ry="12" id="64" fill="rgb(182,119,67)" fill-opacity="0.501961" />
<ellipse cx="45" cy="92" rx="14" ry="11" id="65" fill="rgb(78,45,9)" fill-opacity="0.501961" />
<ellipse cx="58" cy="84" rx="7" ry="19" id="66" fill="rgb(171,99,51)" fill-opacity="0.501961" />
<ellipse cx="75" cy="169" rx="5" ry="16" id="67" fill="rgb(245,178,128)" fill-opacity="0.501961" />
<ellipse cx="155" cy="11" rx="37" ry="12" id="68" fill="rgb(255,255,255)" fill-opacity="0.501961" />
<ellipse cx="106" cy="196" rx="2" ry="6" id="69" fill="rgb(45,238,42)" fill-opacity="0.501961" />
<ellipse cx="51" cy="64" rx="6" ry="12" id="70" fill="rgb(235,197,152)" fill-opacity="0.501961" />
<ellipse cx="105" cy="48" rx="6" ry="7" id="71" fill="rgb(252,195,140)" fill-opacity="0.501961" />
<ellipse cx="38" cy="113" rx="144" ry="11" id="72" fill="rgb(255,255,255)" fill-opacity="0.501961" />
<ellipse cx="37" cy="154" rx="10" ry="14" id="73" fill="rgb(167,79,50)" fill-opacity="0.501961" />
<ellipse cx="43" cy="130" rx="10" ry="3" id="74" fill="rgb(118,53,0)" fill-opacity="0.501961" />
<ellipse cx="34" cy="254" rx="138" ry="3" id="75" fill="rgb(255,255,255)" fill-opacity="0.501961" />
<ellipse cx="97" cy="96" rx="6" ry="7" id="76" fill="rgb(208,93,26)" fill-opacity="0.501961" />
<ellipse cx="28" cy="132" rx="10" ry="5" id="77" fill="rgb(113,98,35)" fill-opacity="0.501961" />
<ellipse cx="13" cy="178" rx="2" ry="17" id="78" fill="rgb(213,181,117)" fill-opacity="0.501961" />
<ellipse cx="100" cy="219" rx="8" ry="33" id="79" fill="rgb(255,242,193)" fill-opacity="0.501961" />
<ellipse cx="47" cy="166" rx="10" ry="24" id="80" fill="rgb(231,139,91)" fill-opacity="0.501961" />
<ellipse cx="66" cy="209" rx="18" ry="9" id="81" fill="rgb(185,92,53)" fill-opacity="0.501961" />
<ellipse cx="89" cy="72" rx="15" ry="6" id="82" fill="rgb(238,199,143)" fill-opacity="0.501961" />
<ellipse cx="158" cy="82" rx="12" ry="21" id="83" fill="rgb(78,50,23)" fill-opacity="0.501961" />
<ellipse cx="117" cy="41" rx="7" ry="19" id="84" fill="rgb(59,50,16)" fill-opacity="0.501961" />
<ellipse cx="15" cy="51" rx="29" ry="25" id="85" fill="rgb(98,93,46)" fill-opacity="0.501961" />
<ellipse cx="0" cy="42" rx="1" ry="22" id="86" fill="rgb(179,175,163)" fill-opacity="0.501961" />
<ellipse cx="106" cy="93" rx="5" ry="8" id="87" fill="rgb(1,20,5)" fill-opacity="0.501961" />
<ellipse cx="139" cy="50" rx="22" ry="5" id="88" fill="rgb(119,114,58)" fill-opacity="0.501961" />
<ellipse cx="25" cy="225" rx="7" ry="26" id="89" fill="rgb(136,90,39)" fill-opacity="0.501961" />
<ellipse cx="68" cy="91" rx="7" ry="13" id="90" fill="rgb(234,180,118)" fill-opacity="0.501961" />
<ellipse cx="86" cy="2" rx="133" ry="7" id="91" fill="rgb(255,255,255)" fill-opacity="0.501961" />
<ellipse cx="24" cy="197" rx="3" ry="12" id="92" fill="rgb(184,143,89)" fill-opacity="0.501961" />
<ellipse cx="16" cy="228" rx="2" ry="6" id="93" fill="rgb(255,255,255)" fill-opacity="0.501961" />
<ellipse cx="23" cy="80" rx="20" ry="15" id="94" fill="rgb(75,68,30)" fill-opacity="0.501961" />
<ellipse cx="0" cy="84" rx="1" ry="17" id="95" fill="rgb(155,155,146)" fill-opacity="0.501961" />
<ellipse cx="3" cy="201" rx="6" ry="82" id="96" fill="rgb(255,255,255)" fill-opacity="0.501961" />
<ellipse cx="119" cy="76" rx="8" ry="12" id="97" fill="rgb(111,114,59)" fill-opacity="0.501961" />
</svg>