<?xml version="1.0" standalone="no"?>
<svg xmlns="http://www.w3.org/2000/svg" version="1.2" baseProfile="tiny" width="256" height="157" viewBox="0 0 256 157">
<rect x="0" y="0" width="256" height="157" id="0" fill="rgb(149,147,120)" fill-opacity="1" />
<ellipse cx="130" cy="66" rx="114" ry="16" id="1" fill="rgb(255,255,255)" fill-opacity="0.501961" />
<ellipse cx="165" cy="120" rx="255" ry="22" id="2" fill="rgb(51,41,0)" fill-opacity="0.501961" />
<ellipse cx="160" cy="84" rx="49" ry="34" id="3" fill="rgb(255,252,205)" fill-opacity="0.501961" />
<ellipse cx="101" cy="152" rx="144" ry="11" id="4" fill="rgb(255,255,255)" fill-opacity="0.501961" />
<ellipse cx="0" cy="120" rx="15" ry="83" id="5" fill="rgb(0,0,0)" fill-opacity="0.501961" />
<ellipse cx="23" cy="85" rx="106" ry="16" id="6" fill="rgb(95,88,23)" fill-opacity="0.501961" />
<ellipse cx="251" cy="107" rx="12" ry="66" id="7" fill="rgb(0,7,0)" fill-opacity="0.501961" />
<ellipse cx="77" cy="46" rx="255" ry="5" id="8" fill="rgb(50,51,17)" fill-opacity="0.501961" />
<ellipse cx="100" cy="61" rx="89" ry="11" id="9" fill="rgb(255,255,255)" fill-opacity="0.501961" />
<ellipse cx="164" cy="151" rx="79" ry="10" id="10" fill="rgb(255,255,255)" fill-opacity="0.501961" />
<ellipse cx="215" cy="45" rx="25" ry="33" id="11" fill="rgb(231,223,201)" fill-opacity="0.501961" />
<ellipse cx="81" cy="96" rx="20" ry="27" id="12" fill="rgb(181,164,94)" fill-opacity="0.501961" />
<ellipse cx="57" cy="126" rx="68" ry="17" id="13" fill="rgb(64,61,3)" fill-opacity="0.501961" />
<ellipse cx="83" cy="153" rx="70" ry="11" id="14" fill="rgb(255,255,255)" fill-opacity="0.501961" />
<ellipse cx="144" cy="28" rx="75" ry="16" id="15" fill="rgb(177,169,169)" fill-opacity="0.501961" />
<ellipse cx="127" cy="113" rx="98" ry="9" id="16" fill="rgb(155,136,69)" fill-opacity="0.501961" />
<ellipse cx="186" cy="55" rx="57" ry="5" id="17" fill="rgb(255,255,255)" fill-opacity="0.501961" />
<ellipse cx="215" cy="91" rx="27" ry="19" id="18" fill="rgb(159,141,64)" fill-opacity="0.501961" />
<ellipse cx="217" cy="47" rx="40" ry="4" id="19" fill="rgb(43,41,3)" fill-opacity="0.501961" />
<ellipse cx="233" cy="132" rx="255" ry="11" id="20" fill="rgb(52,53,9)" fill-opacity="0.501961" />
<ellipse cx="188" cy="63" rx="54" ry="12" id="21" fill="rgb(255,255,255)" fill-opacity="0.501961" />
<ellipse cx="106" cy="100" rx="6" ry="26" id="22" fill="rgb(26,0,0)" fill-opacity="0.501961" />
<ellipse cx="75" cy="0" rx="140" ry="34" id="23" fill="rgb(126,135,149)" fill-opacity="0.501961" />
<ellipse cx="126" cy="101" rx="14" ry="29" id="24" fill="rgb(210,181,127)" fill-opacity="0.501961" />
<ellipse cx="242" cy="108" rx="22" ry="33" id="25" fill="rgb(67,66,15)" fill-opacity="0.501961" />
<ellipse cx="0" cy="74" rx="15" ry="33" id="26" fill="rgb(26,51,28)" fill-opacity="0.501961" />
<ellipse cx="31" cy="25" rx="18" ry="15" id="27" fill="rgb(177,210,183)" fill-opacity="0.501961" />
<ellipse cx="0" cy="150" rx="14" ry="19" id="28" fill="rgb(0,12,0)" fill-opacity="0.501961" />
<ellipse cx="25" cy="103" rx="15" ry="25" id="29" fill="rgb(80,82,27)" fill-opacity="0.501961" />
<ellipse cx="250" cy="22" rx="29" ry="14" id="30" fill="rgb(202,197,182)" fill-opacity="0.501961" />
<ellipse cx="133" cy="123" rx="74" ry="10" id="31" fill="rgb(123,104,41)" fill-opacity="0.501961" />
<ellipse cx="225" cy="147" rx="17" ry="6" id="32" fill="rgb(255,255,255)" fill-opacity="0.501961" />
<ellipse cx="146" cy="93" rx="33" ry="16" id="33" fill="rgb(226,203,149)" fill-opacity="0.501961" />
<ellipse cx="201" cy="4" rx="56" ry="8" id="34" fill="rgb(110,106,110)" fill-opacity="0.501961" />
<ellipse cx="30" cy="57" rx="16" ry="7" id="35" fill="rgb(218,231,218)" fill-opacity="0.501961" />
<ellipse cx="23" cy="2" rx="46" ry="7" id="36" fill="rgb(94,94,98)" fill-opacity="0.501961" />
<ellipse cx="77" cy="79" rx="28" ry="10" id="37" fill="rgb(165,157,116)" fill-opacity="0.501961" />
<ellipse cx="15" cy="136" rx="245" ry="6" id="38" fill="rgb(38,45,17)" fill-opacity="0.501961" />
<ellipse cx="253" cy="44" rx="53" ry="7" id="39" fill="rgb(117,104,64)" fill-opacity="0.501961" />
<ellipse cx="41" cy="151" rx="28" ry="10" id="40" fill="rgb(255,255,255)" fill-opacity="0.501961" />
<ellipse cx="175" cy="151" rx="67" ry="10" id="41" fill="rgb(249,255,255)" fill-opacity="0.501961" />
<ellipse cx="252" cy="144" rx="11" ry="29" id="42" fill="rgb(34,47,23)" fill-opacity="0.501961" />
<ellipse cx="105" cy="129" rx="90" ry="6" id="43" fill="rgb(98,82,24)" fill-opacity="0.501961" />
<ellipse cx="75" cy="148" rx="62" ry="6" id="44" fill="rgb(255,255,255)" fill-opacity="0.501961" />
<ellipse cx="149" cy="39" rx="78" ry="5" id="45" fill="rgb(209,188,141)" fill-opacity="0.501961" />
<ellipse cx="165" cy="61" rx="74" ry="11" id="46" fill="rgb(255,255,255)" fill-opacity="0.501961" />
<ellipse cx="196" cy="91" rx="21" ry="20" id="47" fill="rgb(196,183,128)" fill-opacity="0.501961" />
<ellipse cx="53" cy="47" rx="214" ry="4" id="48" fill="rgb(73,79,50)" fill-opacity="0.501961" />
<ellipse cx="8" cy="32" rx="56" ry="8" id="49" fill="rgb(177,186,173)" fill-opacity="0.501961" />
<ellipse cx="194" cy="156" rx="47" ry="3" id="50" fill="rgb(169,206,231)" fill-opacity="0.501961" />
<ellipse cx="46" cy="55" rx="33" ry="5" id="51" fill="rgb(216,227,217)" fill-opacity="0.501961" />
<ellipse cx="231" cy="154" rx="11" ry="12" id="52" fill="rgb(255,255,255)" fill-opacity="0.501961" />
<ellipse cx="244" cy="60" rx="3" ry="19" id="53" fill="rgb(73,75,35)" fill-opacity="0.501961" />
<ellipse cx="10" cy="93" rx="4" ry="52" id="54" fill="rgb(34,53,31)" fill-opacity="0.501961" />
<ellipse cx="110" cy="109" rx="3" ry="27" id="55" fill="rgb(68,44,23)" fill-opacity="0.501961" />
<ellipse cx="13" cy="14" rx="24" ry="11" id="56" fill="rgb(127,136,130)" fill-opacity="0.501961" />
<ellipse cx="238" cy="121" rx="35" ry="13" id="57" fill="rgb(66,63,14)" fill-opacity="0.501961" />
<ellipse cx="242" cy="20" rx="35" ry="4" id="58" fill="rgb(135,135,133)" fill-opacity="0.501961" />
<ellipse cx="227" cy="93" rx="15" ry="22" id="59" fill="rgb(139,126,65)" fill-opacity="0.501961" />
<ellipse cx="35" cy="38" rx="12" ry="2" id="60" fill="rgb(215,234,245)" fill-opacity="0.501961" />
<ellipse cx="119" cy="17" rx="16" ry="15" id="61" fill="rgb(166,159,151)" fill-opacity="0.501961" />
<ellipse cx="80" cy="17" rx="23" ry="6" id="62" fill="rgb(105,112,125)" fill-opacity="0.501961" />
<ellipse cx="200" cy="147" rx="42" ry="5" id="63" fill="rgb(255,255,255)" fill-opacity="0.501961" />
<ellipse cx="106" cy="83" rx="13" ry="2" id="64" fill="rgb(72,52,38)" fill-opacity="0.501961" />
<ellipse cx="2" cy="132" rx="12" ry="62" id="65" fill="rgb(34,51,25)" fill-opacity="0.501961" />
<ellipse cx="255" cy="138" rx="14" ry="60" id="66" fill="rgb(47,55,32)" fill-opacity="0.501961" />
<ellipse cx="77" cy="101" rx="24" ry="14" id="67" fill="rgb(151,142,82)" fill-opacity="0.501961" />
<ellipse cx="93" cy="73" rx="42" ry="3" id="68" fill="rgb(180,169,139)" fill-opacity="0.501961" />
<ellipse cx="237" cy="25" rx="112" ry="2" id="69" fill="rgb(218,215,201)" fill-opacity="0.501961" />
<ellipse cx="126" cy="37" rx="21" ry="6" id="70" fill="rgb(207,196,167)" fill-opacity="0.501961" />
<ellipse cx="22" cy="139" rx="255" ry="3" id="71" fill="rgb(29,45,26)" fill-opacity="0.501961" />
<ellipse cx="254" cy="34" rx="8" ry="7" id="72" fill="rgb(225,211,175)" fill-opacity="0.501961" />
<ellipse cx="145" cy="100" rx="34" ry="12" id="73" fill="rgb(202,185,130)" fill-opacity="0.501961" />
<ellipse cx="209" cy="78" rx="16" ry="7" id="74" fill="rgb(197,189,153)" fill-opacity="0.501961" />
<ellipse cx="36" cy="106" rx="23" ry="15" id="75" fill="rgb(103,100,46)" fill-opacity="0.501961" />
<ellipse cx="158" cy="84" rx="37" ry="8" id="76" fill="rgb(228,214,173)" fill-opacity="0.501961" />
</svg>