<?xml version="1.0" encoding="UTF-8" standalone="no"?><!DOCTYPE svg PUBLIC "-//W3C//DTD SVG 1.1//EN" "http://www.w3.org/Graphics/SVG/1.1/DTD/svg11.dtd"><svg width="100%" height="100%" viewBox="0 0 200 391" version="1.1" xmlns="http://www.w3.org/2000/svg" xmlns:xlink="http://www.w3.org/1999/xlink" xml:space="preserve" xmlns:serif="http://www.serif.com/" style="fill-rule:evenodd;clip-rule:evenodd;stroke-linejoin:round;stroke-miterlimit:1.41421;"><path d="M198.38,22.814c0,-8.432 -6.914,-16.153 -15.16,-17.213c-16.25,-2.092 -48.698,-5.601 -82.755,-5.601c-34.057,0 -66.64,3.509 -82.89,5.601c-8.246,1.06 -15.195,8.781 -15.195,17.213l0,346.048c0,5.469 4.402,12.643 10.043,14.06c9.353,2.347 36.725,7.806 87.846,7.806c51.121,0 78.65,-5.459 88.006,-7.806c5.64,-1.417 10.105,-8.591 10.105,-14.06l0,-346.048Zm-9.789,11.307l-22.098,0l-154.357,0l0,311.799l176.455,0l0,-311.799Z" style="fill:#c6c6c6;"/><path d="M104.767,20.248c0,2.572 -2.084,4.656 -4.655,4.656c-2.572,0 -4.658,-2.084 -4.658,-4.656c0,-2.572 2.086,-4.656 4.658,-4.656c2.571,0 4.655,2.084 4.655,4.656" style="fill:#fff;fill-rule:nonzero;"/><path d="M37.348,20.83c0,1.019 -0.825,1.844 -1.844,1.844c-1.017,0 -1.843,-0.825 -1.843,-1.844c0,-1.019 0.826,-1.844 1.843,-1.844c1.019,0 1.844,0.825 1.844,1.844" style="fill:#fff;fill-rule:nonzero;"/><path d="M0,136.476c0,0.66 0.54,1.199 1.199,1.199l1.982,0c0.66,0 1.199,-0.539 1.199,-1.199l0,-60.534c0,-0.66 -0.539,-1.2 -1.199,-1.2l-1.982,0c-0.659,0 -1.199,0.54 -1.199,1.2l0,60.534Z" style="fill:#c6c6c6;fill-rule:nonzero;"/><path d="M195.38,74.771c0,0.66 0.54,1.199 1.2,1.199l1.981,0c0.66,0 1.199,-0.539 1.199,-1.199l0,-23.572c0,-0.659 -0.539,-1.199 -1.199,-1.199l-1.981,0c-0.66,0 -1.2,0.54 -1.2,1.199l0,23.572Z" style="fill:#c6c6c6;fill-rule:nonzero;"/></svg>