<?xml version="1.0" standalone="no"?>
<svg xmlns="http://www.w3.org/2000/svg" version="1.2" baseProfile="tiny" width="256" height="156" viewBox="0 0 256 156">
<rect x="0" y="0" width="256" height="156" id="0" fill="rgb(184,183,180)" fill-opacity="1" />
<ellipse cx="105" cy="105" rx="17" ry="69" id="1" fill="rgb(0,0,0)" fill-opacity="0.501961" />
<ellipse cx="212" cy="113" rx="38" ry="33" id="2" fill="rgb(45,46,49)" fill-opacity="0.501961" />
<ellipse cx="131" cy="0" rx="255" ry="39" id="3" fill="rgb(255,255,255)" fill-opacity="0.501961" />
<ellipse cx="138" cy="146" rx="29" ry="26" id="4" fill="rgb(0,0,0)" fill-opacity="0.501961" />
<ellipse cx="39" cy="44" rx="64" ry="50" id="5" fill="rgb(252,250,242)" fill-opacity="0.501961" />
<ellipse cx="138" cy="64" rx="29" ry="17" id="6" fill="rgb(65,66,68)" fill-opacity="0.501961" />
<ellipse cx="192" cy="23" rx="31" ry="54" id="7" fill="rgb(255,255,253)" fill-opacity="0.501961" />
<ellipse cx="222" cy="13" rx="255" ry="25" id="8" fill="rgb(255,255,245)" fill-opacity="0.501961" />
<ellipse cx="255" cy="140" rx="18" ry="31" id="9" fill="rgb(255,255,255)" fill-opacity="0.501961" />
<ellipse cx="216" cy="102" rx="25" ry="12" id="10" fill="rgb(28,28,28)" fill-opacity="0.501961" />
<ellipse cx="67" cy="106" rx="22" ry="72" id="11" fill="rgb(215,215,218)" fill-opacity="0.501961" />
<ellipse cx="96" cy="120" rx="8" ry="47" id="12" fill="rgb(32,32,34)" fill-opacity="0.501961" />
<ellipse cx="130" cy="102" rx="33" ry="4" id="13" fill="rgb(236,236,239)" fill-opacity="0.501961" />
<ellipse cx="18" cy="98" rx="10" ry="11" id="14" fill="rgb(69,70,73)" fill-opacity="0.501961" />
<ellipse cx="169" cy="136" rx="3" ry="134" id="15" fill="rgb(255,255,255)" fill-opacity="0.501961" />
<ellipse cx="161" cy="142" rx="14" ry="4" id="16" fill="rgb(246,245,243)" fill-opacity="0.501961" />
<ellipse cx="0" cy="84" rx="5" ry="141" id="17" fill="rgb(255,255,255)" fill-opacity="0.501961" />
<ellipse cx="255" cy="81" rx="5" ry="137" id="18" fill="rgb(255,255,255)" fill-opacity="0.501961" />
<ellipse cx="178" cy="101" rx="6" ry="38" id="19" fill="rgb(100,101,102)" fill-opacity="0.501961" />
<ellipse cx="125" cy="147" rx="37" ry="27" id="20" fill="rgb(68,68,70)" fill-opacity="0.501961" />
<ellipse cx="198" cy="150" rx="10" ry="12" id="21" fill="rgb(242,243,245)" fill-opacity="0.501961" />
<ellipse cx="87" cy="130" rx="2" ry="97" id="22" fill="rgb(255,255,255)" fill-opacity="0.501961" />
<ellipse cx="86" cy="67" rx="25" ry="9" id="23" fill="rgb(216,215,215)" fill-opacity="0.501961" />
<ellipse cx="135" cy="106" rx="27" ry="17" id="24" fill="rgb(168,168,170)" fill-opacity="0.501961" />
<ellipse cx="14" cy="134" rx="9" ry="11" id="25" fill="rgb(83,84,87)" fill-opacity="0.501961" />
<ellipse cx="89" cy="142" rx="18" ry="6" id="26" fill="rgb(195,194,191)" fill-opacity="0.501961" />
<ellipse cx="234" cy="84" rx="17" ry="12" id="27" fill="rgb(172,173,174)" fill-opacity="0.501961" />
<ellipse cx="80" cy="155" rx="3" ry="14" id="28" fill="rgb(0,0,0)" fill-opacity="0.501961" />
<ellipse cx="41" cy="94" rx="19" ry="25" id="29" fill="rgb(172,173,176)" fill-opacity="0.501961" />
<ellipse cx="126" cy="74" rx="5" ry="7" id="30" fill="rgb(0,0,0)" fill-opacity="0.501961" />
<ellipse cx="121" cy="125" rx="20" ry="5" id="31" fill="rgb(6,6,6)" fill-opacity="0.501961" />
<ellipse cx="177" cy="124" rx="2" ry="29" id="32" fill="rgb(224,225,225)" fill-opacity="0.501961" />
<ellipse cx="128" cy="11" rx="4" ry="5" id="33" fill="rgb(60,54,50)" fill-opacity="0.501961" />
<ellipse cx="212" cy="132" rx="29" ry="20" id="34" fill="rgb(137,138,138)" fill-opacity="0.501961" />
<ellipse cx="109" cy="44" rx="10" ry="7" id="35" fill="rgb(27,28,30)" fill-opacity="0.501961" />
<ellipse cx="247" cy="89" rx="4" ry="38" id="36" fill="rgb(87,88,89)" fill-opacity="0.501961" />
<ellipse cx="160" cy="77" rx="7" ry="5" id="37" fill="rgb(54,55,57)" fill-opacity="0.501961" />
<ellipse cx="170" cy="89" rx="3" ry="107" id="38" fill="rgb(255,255,251)" fill-opacity="0.501961" />
<ellipse cx="160" cy="132" rx="7" ry="9" id="39" fill="rgb(40,40,42)" fill-opacity="0.501961" />
<ellipse cx="17" cy="64" rx="14" ry="28" id="40" fill="rgb(178,178,183)" fill-opacity="0.501961" />
<ellipse cx="82" cy="117" rx="100" ry="2" id="41" fill="rgb(215,214,214)" fill-opacity="0.501961" />
<ellipse cx="201" cy="108" rx="22" ry="7" id="42" fill="rgb(45,45,45)" fill-opacity="0.501961" />
<ellipse cx="119" cy="137" rx="26" ry="4" id="43" fill="rgb(153,153,153)" fill-opacity="0.501961" />
<ellipse cx="37" cy="145" rx="20" ry="10" id="44" fill="rgb(214,215,217)" fill-opacity="0.501961" />
<ellipse cx="0" cy="97" rx="5" ry="99" id="45" fill="rgb(255,255,252)" fill-opacity="0.501961" />
<ellipse cx="156" cy="51" rx="10" ry="7" id="46" fill="rgb(208,209,210)" fill-opacity="0.501961" />
<ellipse cx="227" cy="52" rx="14" ry="16" id="47" fill="rgb(153,154,157)" fill-opacity="0.501961" />
<ellipse cx="141" cy="153" rx="26" ry="10" id="48" fill="rgb(29,29,29)" fill-opacity="0.501961" />
<ellipse cx="191" cy="93" rx="18" ry="15" id="49" fill="rgb(95,95,96)" fill-opacity="0.501961" />
<ellipse cx="152" cy="122" rx="13" ry="8" id="50" fill="rgb(174,174,175)" fill-opacity="0.501961" />
<ellipse cx="109" cy="86" rx="5" ry="12" id="51" fill="rgb(6,6,8)" fill-opacity="0.501961" />
<ellipse cx="202" cy="0" rx="83" ry="20" id="52" fill="rgb(255,254,238)" fill-opacity="0.501961" />
<ellipse cx="223" cy="102" rx="5" ry="5" id="53" fill="rgb(208,208,208)" fill-opacity="0.501961" />
<ellipse cx="123" cy="50" rx="10" ry="14" id="54" fill="rgb(165,166,166)" fill-opacity="0.501961" />
<ellipse cx="153" cy="142" rx="11" ry="4" id="55" fill="rgb(201,201,201)" fill-opacity="0.501961" />
<ellipse cx="151" cy="110" rx="15" ry="1" id="56" fill="rgb(0,0,0)" fill-opacity="0.501961" />
<ellipse cx="138" cy="89" rx="20" ry="7" id="57" fill="rgb(226,227,229)" fill-opacity="0.501961" />
<ellipse cx="155" cy="61" rx="3" ry="6" id="58" fill="rgb(255,255,255)" fill-opacity="0.501961" />
<ellipse cx="52" cy="62" rx="13" ry="20" id="59" fill="rgb(237,238,240)" fill-opacity="0.501961" />
<ellipse cx="235" cy="119" rx="11" ry="5" id="60" fill="rgb(216,216,216)" fill-opacity="0.501961" />
<ellipse cx="140" cy="58" rx="5" ry="15" id="61" fill="rgb(59,59,60)" fill-opacity="0.501961" />
<ellipse cx="255" cy="101" rx="5" ry="111" id="62" fill="rgb(255,255,251)" fill-opacity="0.501961" />
<ellipse cx="122" cy="75" rx="5" ry="6" id="63" fill="rgb(0,0,0)" fill-opacity="0.501961" />
<ellipse cx="105" cy="67" rx="16" ry="9" id="64" fill="rgb(155,156,157)" fill-opacity="0.501961" />
<ellipse cx="95" cy="49" rx="7" ry="13" id="65" fill="rgb(157,158,163)" fill-opacity="0.501961" />
<ellipse cx="144" cy="59" rx="5" ry="2" id="66" fill="rgb(255,255,255)" fill-opacity="0.501961" />
<ellipse cx="70" cy="48" rx="14" ry="12" id="67" fill="rgb(185,185,186)" fill-opacity="0.501961" />
<ellipse cx="213" cy="155" rx="28" ry="5" id="68" fill="rgb(249,249,251)" fill-opacity="0.501961" />
<ellipse cx="18" cy="121" rx="11" ry="11" id="69" fill="rgb(202,203,205)" fill-opacity="0.501961" />
<ellipse cx="162" cy="68" rx="5" ry="12" id="70" fill="rgb(66,66,66)" fill-opacity="0.501961" />
<ellipse cx="236" cy="85" rx="13" ry="5" id="71" fill="rgb(206,205,206)" fill-opacity="0.501961" />
<ellipse cx="116" cy="34" rx="240" ry="3" id="72" fill="rgb(255,255,245)" fill-opacity="0.501961" />
<ellipse cx="173" cy="104" rx="6" ry="7" id="73" fill="rgb(255,254,248)" fill-opacity="0.501961" />
<ellipse cx="241" cy="72" rx="5" ry="34" id="74" fill="rgb(160,161,162)" fill-opacity="0.501961" />
<ellipse cx="51" cy="127" rx="10" ry="13" id="75" fill="rgb(226,227,228)" fill-opacity="0.501961" />
<ellipse cx="86" cy="105" rx="3" ry="100" id="76" fill="rgb(255,255,255)" fill-opacity="0.501961" />
<ellipse cx="202" cy="149" rx="8" ry="6" id="77" fill="rgb(255,255,255)" fill-opacity="0.501961" />
<ellipse cx="88" cy="3" rx="39" ry="23" id="78" fill="rgb(255,255,239)" fill-opacity="0.501961" />
<ellipse cx="114" cy="129" rx="26" ry="4" id="79" fill="rgb(18,18,17)" fill-opacity="0.501961" />
<ellipse cx="13" cy="138" rx="8" ry="9" id="80" fill="rgb(91,91,91)" fill-opacity="0.501961" />
<ellipse cx="114" cy="155" rx="12" ry="22" id="81" fill="rgb(71,71,71)" fill-opacity="0.501961" />
<ellipse cx="31" cy="70" rx="6" ry="6" id="82" fill="rgb(125,126,128)" fill-opacity="0.501961" />
<ellipse cx="100" cy="87" rx="11" ry="12" id="83" fill="rgb(18,18,18)" fill-opacity="0.501961" />
<ellipse cx="19" cy="41" rx="13" ry="4" id="84" fill="rgb(138,139,141)" fill-opacity="0.501961" />
<ellipse cx="113" cy="102" rx="14" ry="3" id="85" fill="rgb(243,243,242)" fill-opacity="0.501961" />
<ellipse cx="217" cy="7" rx="87" ry="30" id="86" fill="rgb(255,250,236)" fill-opacity="0.501961" />
</svg>