<?xml version="1.0" standalone="no"?>
<svg xmlns="http://www.w3.org/2000/svg" version="1.2" baseProfile="tiny" width="159" height="256" viewBox="0 0 159 256">
<rect x="0" y="0" width="159" height="256" id="0" fill="rgb(174,173,170)" fill-opacity="1" />
<ellipse cx="69" cy="187" rx="154" ry="30" id="1" fill="rgb(3,3,5)" fill-opacity="0.501961" />
<ellipse cx="79" cy="29" rx="158" ry="41" id="2" fill="rgb(255,255,255)" fill-opacity="0.501961" />
<ellipse cx="71" cy="246" rx="50" ry="23" id="3" fill="rgb(50,51,54)" fill-opacity="0.501961" />
<ellipse cx="96" cy="142" rx="30" ry="55" id="4" fill="rgb(205,205,207)" fill-opacity="0.501961" />
<ellipse cx="20" cy="181" rx="16" ry="37" id="5" fill="rgb(0,0,0)" fill-opacity="0.501961" />
<ellipse cx="143" cy="57" rx="48" ry="87" id="6" fill="rgb(255,255,253)" fill-opacity="0.501961" />
<ellipse cx="30" cy="28" rx="44" ry="46" id="7" fill="rgb(255,255,255)" fill-opacity="0.501961" />
<ellipse cx="136" cy="164" rx="20" ry="22" id="8" fill="rgb(47,48,49)" fill-opacity="0.501961" />
<ellipse cx="45" cy="117" rx="117" ry="28" id="9" fill="rgb(223,223,223)" fill-opacity="0.501961" />
<ellipse cx="62" cy="153" rx="23" ry="10" id="10" fill="rgb(35,35,37)" fill-opacity="0.501961" />
<ellipse cx="0" cy="159" rx="4" ry="155" id="11" fill="rgb(255,255,255)" fill-opacity="0.501961" />
<ellipse cx="158" cy="158" rx="5" ry="134" id="12" fill="rgb(255,255,255)" fill-opacity="0.501961" />
<ellipse cx="13" cy="158" rx="10" ry="15" id="13" fill="rgb(0,0,0)" fill-opacity="0.501961" />
<ellipse cx="108" cy="148" rx="47" ry="5" id="14" fill="rgb(44,44,45)" fill-opacity="0.501961" />
<ellipse cx="37" cy="149" rx="12" ry="24" id="15" fill="rgb(210,210,210)" fill-opacity="0.501961" />
<ellipse cx="111" cy="228" rx="27" ry="13" id="16" fill="rgb(219,219,219)" fill-opacity="0.501961" />
<ellipse cx="91" cy="211" rx="64" ry="6" id="17" fill="rgb(0,0,0)" fill-opacity="0.501961" />
<ellipse cx="88" cy="88" rx="12" ry="11" id="18" fill="rgb(69,70,72)" fill-opacity="0.501961" />
<ellipse cx="42" cy="186" rx="13" ry="30" id="19" fill="rgb(23,23,24)" fill-opacity="0.501961" />
<ellipse cx="89" cy="161" rx="17" ry="11" id="20" fill="rgb(218,218,218)" fill-opacity="0.501961" />
<ellipse cx="145" cy="243" rx="9" ry="100" id="21" fill="rgb(60,60,61)" fill-opacity="0.501961" />
<ellipse cx="60" cy="218" rx="128" ry="2" id="22" fill="rgb(255,255,255)" fill-opacity="0.501961" />
<ellipse cx="90" cy="255" rx="40" ry="11" id="23" fill="rgb(40,40,40)" fill-opacity="0.501961" />
<ellipse cx="141" cy="37" rx="72" ry="31" id="24" fill="rgb(255,255,238)" fill-opacity="0.501961" />
<ellipse cx="28" cy="237" rx="8" ry="17" id="25" fill="rgb(62,62,63)" fill-opacity="0.501961" />
<ellipse cx="57" cy="231" rx="16" ry="12" id="26" fill="rgb(181,181,181)" fill-opacity="0.501961" />
<ellipse cx="1" cy="186" rx="4" ry="160" id="27" fill="rgb(255,255,255)" fill-opacity="0.501961" />
<ellipse cx="158" cy="199" rx="4" ry="142" id="28" fill="rgb(255,255,255)" fill-opacity="0.501961" />
<ellipse cx="106" cy="71" rx="104" ry="5" id="29" fill="rgb(158,159,160)" fill-opacity="0.501961" />
<ellipse cx="34" cy="26" rx="39" ry="41" id="30" fill="rgb(255,255,236)" fill-opacity="0.501961" />
<ellipse cx="126" cy="158" rx="17" ry="5" id="31" fill="rgb(218,218,218)" fill-opacity="0.501961" />
<ellipse cx="79" cy="16" rx="7" ry="7" id="32" fill="rgb(9,3,0)" fill-opacity="0.501961" />
<ellipse cx="121" cy="191" rx="28" ry="5" id="33" fill="rgb(25,25,26)" fill-opacity="0.501961" />
<ellipse cx="106" cy="97" rx="22" ry="9" id="34" fill="rgb(166,167,168)" fill-opacity="0.501961" />
<ellipse cx="77" cy="229" rx="52" ry="3" id="35" fill="rgb(93,94,94)" fill-opacity="0.501961" />
<ellipse cx="83" cy="122" rx="16" ry="10" id="36" fill="rgb(151,152,152)" fill-opacity="0.501961" />
<ellipse cx="76" cy="195" rx="33" ry="7" id="37" fill="rgb(131,131,132)" fill-opacity="0.501961" />
<ellipse cx="7" cy="141" rx="158" ry="2" id="38" fill="rgb(255,255,255)" fill-opacity="0.501961" />
<ellipse cx="49" cy="79" rx="8" ry="9" id="39" fill="rgb(52,53,55)" fill-opacity="0.501961" />
<ellipse cx="56" cy="157" rx="18" ry="7" id="40" fill="rgb(29,29,29)" fill-opacity="0.501961" />
<ellipse cx="81" cy="202" rx="22" ry="6" id="41" fill="rgb(33,33,34)" fill-opacity="0.501961" />
<ellipse cx="90" cy="219" rx="69" ry="3" id="42" fill="rgb(255,255,252)" fill-opacity="0.501961" />
<ellipse cx="60" cy="54" rx="158" ry="13" id="43" fill="rgb(255,255,243)" fill-opacity="0.501961" />
<ellipse cx="104" cy="0" rx="52" ry="12" id="44" fill="rgb(255,255,248)" fill-opacity="0.501961" />
<ellipse cx="9" cy="244" rx="21" ry="7" id="45" fill="rgb(226,225,224)" fill-opacity="0.501961" />
<ellipse cx="143" cy="206" rx="12" ry="4" id="46" fill="rgb(190,190,189)" fill-opacity="0.501961" />
<ellipse cx="106" cy="180" rx="22" ry="5" id="47" fill="rgb(203,203,203)" fill-opacity="0.501961" />
<ellipse cx="31" cy="154" rx="7" ry="10" id="48" fill="rgb(248,248,249)" fill-opacity="0.501961" />
<ellipse cx="81" cy="35" rx="31" ry="3" id="49" fill="rgb(148,141,138)" fill-opacity="0.501961" />
<ellipse cx="73" cy="168" rx="14" ry="2" id="50" fill="rgb(255,255,255)" fill-opacity="0.501961" />
<ellipse cx="46" cy="166" rx="3" ry="6" id="51" fill="rgb(227,227,227)" fill-opacity="0.501961" />
<ellipse cx="71" cy="184" rx="17" ry="9" id="52" fill="rgb(147,147,147)" fill-opacity="0.501961" />
<ellipse cx="29" cy="187" rx="25" ry="12" id="53" fill="rgb(17,17,17)" fill-opacity="0.501961" />
<ellipse cx="111" cy="9" rx="27" ry="23" id="54" fill="rgb(255,253,239)" fill-opacity="0.501961" />
<ellipse cx="56" cy="125" rx="14" ry="24" id="55" fill="rgb(225,226,225)" fill-opacity="0.501961" />
<ellipse cx="7" cy="158" rx="3" ry="16" id="56" fill="rgb(1,0,1)" fill-opacity="0.501961" />
<ellipse cx="111" cy="198" rx="10" ry="4" id="57" fill="rgb(201,201,202)" fill-opacity="0.501961" />
<ellipse cx="64" cy="142" rx="109" ry="2" id="58" fill="rgb(255,255,250)" fill-opacity="0.501961" />
<ellipse cx="142" cy="241" rx="10" ry="10" id="59" fill="rgb(162,163,165)" fill-opacity="0.501961" />
<ellipse cx="9" cy="212" rx="5" ry="5" id="60" fill="rgb(0,0,0)" fill-opacity="0.501961" />
<ellipse cx="130" cy="82" rx="25" ry="16" id="61" fill="rgb(185,185,187)" fill-opacity="0.501961" />
<ellipse cx="147" cy="178" rx="7" ry="35" id="62" fill="rgb(27,26,26)" fill-opacity="0.501961" />
<ellipse cx="116" cy="234" rx="26" ry="4" id="63" fill="rgb(216,216,217)" fill-opacity="0.501961" />
<ellipse cx="126" cy="202" rx="11" ry="3" id="64" fill="rgb(197,197,198)" fill-opacity="0.501961" />
<ellipse cx="24" cy="230" rx="12" ry="6" id="65" fill="rgb(81,81,83)" fill-opacity="0.501961" />
<ellipse cx="56" cy="164" rx="5" ry="14" id="66" fill="rgb(15,15,16)" fill-opacity="0.501961" />
<ellipse cx="85" cy="151" rx="6" ry="3" id="67" fill="rgb(83,83,82)" fill-opacity="0.501961" />
<ellipse cx="84" cy="159" rx="15" ry="5" id="68" fill="rgb(218,218,218)" fill-opacity="0.501961" />
<ellipse cx="69" cy="241" rx="13" ry="5" id="69" fill="rgb(61,61,61)" fill-opacity="0.501961" />
<ellipse cx="59" cy="2" rx="17" ry="23" id="70" fill="rgb(255,252,239)" fill-opacity="0.501961" />
<ellipse cx="133" cy="196" rx="20" ry="3" id="71" fill="rgb(8,8,8)" fill-opacity="0.501961" />
<ellipse cx="20" cy="179" rx="7" ry="36" id="72" fill="rgb(25,25,25)" fill-opacity="0.501961" />
<ellipse cx="140" cy="131" rx="3" ry="25" id="73" fill="rgb(220,220,219)" fill-opacity="0.501961" />
<ellipse cx="40" cy="209" rx="36" ry="8" id="74" fill="rgb(29,29,29)" fill-opacity="0.501961" />
<ellipse cx="77" cy="192" rx="4" ry="3" id="75" fill="rgb(255,255,255)" fill-opacity="0.501961" />
<ellipse cx="51" cy="239" rx="5" ry="5" id="76" fill="rgb(219,219,219)" fill-opacity="0.501961" />
<ellipse cx="19" cy="122" rx="16" ry="17" id="77" fill="rgb(177,178,179)" fill-opacity="0.501961" />
<ellipse cx="104" cy="169" rx="38" ry="1" id="78" fill="rgb(244,244,244)" fill-opacity="0.501961" />
<ellipse cx="14" cy="150" rx="10" ry="7" id="79" fill="rgb(9,9,10)" fill-opacity="0.501961" />
<ellipse cx="76" cy="54" rx="158" ry="13" id="80" fill="rgb(255,249,238)" fill-opacity="0.501961" />
<ellipse cx="28" cy="74" rx="12" ry="10" id="81" fill="rgb(211,211,212)" fill-opacity="0.501961" />
<ellipse cx="149" cy="81" rx="5" ry="15" id="82" fill="rgb(143,143,143)" fill-opacity="0.501961" />
<ellipse cx="7" cy="255" rx="4" ry="5" id="83" fill="rgb(255,255,255)" fill-opacity="0.501961" />
<ellipse cx="21" cy="85" rx="17" ry="4" id="84" fill="rgb(96,97,100)" fill-opacity="0.501961" />
<ellipse cx="59" cy="176" rx="7" ry="3" id="85" fill="rgb(0,0,0)" fill-opacity="0.501961" />
<ellipse cx="74" cy="77" rx="10" ry="10" id="86" fill="rgb(206,207,208)" fill-opacity="0.501961" />
<ellipse cx="0" cy="172" rx="4" ry="123" id="87" fill="rgb(255,255,250)" fill-opacity="0.501961" />
<ellipse cx="58" cy="74" rx="8" ry="9" id="88" fill="rgb(114,115,115)" fill-opacity="0.501961" />
<ellipse cx="143" cy="147" rx="11" ry="4" id="89" fill="rgb(41,41,42)" fill-opacity="0.501961" />
<ellipse cx="42" cy="225" rx="37" ry="3" id="90" fill="rgb(148,149,150)" fill-opacity="0.501961" />
</svg>