<?xml version="1.0" standalone="no"?>
<svg xmlns="http://www.w3.org/2000/svg" version="1.2" baseProfile="tiny" width="256" height="157" viewBox="0 0 256 157">
<rect x="0" y="0" width="256" height="157" id="0" fill="rgb(155,157,139)" fill-opacity="1" />
<ellipse cx="175" cy="132" rx="28" ry="55" id="1" fill="rgb(255,255,255)" fill-opacity="0.501961" />
<ellipse cx="26" cy="95" rx="28" ry="156" id="2" fill="rgb(88,73,0)" fill-opacity="0.501961" />
<ellipse cx="75" cy="125" rx="22" ry="51" id="3" fill="rgb(255,255,255)" fill-opacity="0.501961" />
<ellipse cx="231" cy="126" rx="30" ry="47" id="4" fill="rgb(104,74,0)" fill-opacity="0.501961" />
<ellipse cx="124" cy="92" rx="79" ry="14" id="5" fill="rgb(255,255,255)" fill-opacity="0.501961" />
<ellipse cx="106" cy="149" rx="54" ry="12" id="6" fill="rgb(255,255,255)" fill-opacity="0.501961" />
<ellipse cx="159" cy="44" rx="130" ry="26" id="7" fill="rgb(115,145,186)" fill-opacity="0.501961" />
<ellipse cx="179" cy="136" rx="24" ry="58" id="8" fill="rgb(255,255,255)" fill-opacity="0.501961" />
<ellipse cx="16" cy="111" rx="32" ry="12" id="9" fill="rgb(10,0,0)" fill-opacity="0.501961" />
<ellipse cx="12" cy="64" rx="30" ry="28" id="10" fill="rgb(162,156,165)" fill-opacity="0.501961" />
<ellipse cx="242" cy="137" rx="41" ry="47" id="11" fill="rgb(126,116,0)" fill-opacity="0.501961" />
<ellipse cx="36" cy="14" rx="67" ry="27" id="12" fill="rgb(132,115,91)" fill-opacity="0.501961" />
<ellipse cx="172" cy="73" rx="33" ry="7" id="13" fill="rgb(47,76,19)" fill-opacity="0.501961" />
<ellipse cx="135" cy="131" rx="18" ry="9" id="14" fill="rgb(22,2,0)" fill-opacity="0.501961" />
<ellipse cx="30" cy="150" rx="24" ry="36" id="15" fill="rgb(122,130,0)" fill-opacity="0.501961" />
<ellipse cx="130" cy="88" rx="73" ry="9" id="16" fill="rgb(255,255,255)" fill-opacity="0.501961" />
<ellipse cx="104" cy="75" rx="64" ry="4" id="17" fill="rgb(66,70,0)" fill-opacity="0.501961" />
<ellipse cx="120" cy="150" rx="67" ry="11" id="18" fill="rgb(255,255,255)" fill-opacity="0.501961" />
<ellipse cx="82" cy="115" rx="15" ry="37" id="19" fill="rgb(252,255,255)" fill-opacity="0.501961" />
<ellipse cx="214" cy="102" rx="12" ry="15" id="20" fill="rgb(234,102,0)" fill-opacity="0.501961" />
<ellipse cx="239" cy="67" rx="40" ry="26" id="21" fill="rgb(117,123,144)" fill-opacity="0.501961" />
<ellipse cx="73" cy="71" rx="30" ry="8" id="22" fill="rgb(86,85,22)" fill-opacity="0.501961" />
<ellipse cx="101" cy="53" rx="48" ry="15" id="23" fill="rgb(175,187,208)" fill-opacity="0.501961" />
<ellipse cx="166" cy="39" rx="38" ry="13" id="24" fill="rgb(66,123,183)" fill-opacity="0.501961" />
<ellipse cx="94" cy="121" rx="47" ry="1" id="25" fill="rgb(40,56,65)" fill-opacity="0.501961" />
<ellipse cx="193" cy="129" rx="10" ry="51" id="26" fill="rgb(255,255,255)" fill-opacity="0.501961" />
<ellipse cx="105" cy="127" rx="5" ry="11" id="27" fill="rgb(53,28,8)" fill-opacity="0.501961" />
<ellipse cx="170" cy="122" rx="18" ry="43" id="28" fill="rgb(253,255,254)" fill-opacity="0.501961" />
<ellipse cx="187" cy="7" rx="85" ry="22" id="29" fill="rgb(142,149,171)" fill-opacity="0.501961" />
<ellipse cx="69" cy="147" rx="11" ry="2" id="30" fill="rgb(24,11,0)" fill-opacity="0.501961" />
<ellipse cx="23" cy="95" rx="31" ry="9" id="31" fill="rgb(89,88,70)" fill-opacity="0.501961" />
<ellipse cx="56" cy="110" rx="3" ry="32" id="32" fill="rgb(255,255,255)" fill-opacity="0.501961" />
<ellipse cx="189" cy="45" rx="14" ry="4" id="33" fill="rgb(0,200,255)" fill-opacity="0.501961" />
<ellipse cx="94" cy="32" rx="56" ry="5" id="34" fill="rgb(74,93,140)" fill-opacity="0.501961" />
<ellipse cx="5" cy="153" rx="28" ry="31" id="35" fill="rgb(112,123,0)" fill-opacity="0.501961" />
<ellipse cx="116" cy="118" rx="9" ry="22" id="36" fill="rgb(174,149,114)" fill-opacity="0.501961" />
<ellipse cx="60" cy="123" rx="25" ry="3" id="37" fill="rgb(0,45,71)" fill-opacity="0.501961" />
<ellipse cx="182" cy="66" rx="16" ry="4" id="38" fill="rgb(18,226,217)" fill-opacity="0.501961" />
<ellipse cx="55" cy="17" rx="11" ry="14" id="39" fill="rgb(107,89,54)" fill-opacity="0.501961" />
<ellipse cx="101" cy="110" rx="6" ry="14" id="40" fill="rgb(95,71,76)" fill-opacity="0.501961" />
<ellipse cx="177" cy="87" rx="26" ry="9" id="41" fill="rgb(238,245,253)" fill-opacity="0.501961" />
<ellipse cx="130" cy="69" rx="43" ry="8" id="42" fill="rgb(142,136,103)" fill-opacity="0.501961" />
<ellipse cx="13" cy="26" rx="40" ry="27" id="43" fill="rgb(140,123,79)" fill-opacity="0.501961" />
<ellipse cx="145" cy="54" rx="28" ry="12" id="44" fill="rgb(154,176,202)" fill-opacity="0.501961" />
<ellipse cx="123" cy="122" rx="6" ry="6" id="45" fill="rgb(137,61,0)" fill-opacity="0.501961" />
<ellipse cx="200" cy="55" rx="32" ry="4" id="46" fill="rgb(160,192,86)" fill-opacity="0.501961" />
<ellipse cx="220" cy="36" rx="23" ry="23" id="47" fill="rgb(163,149,149)" fill-opacity="0.501961" />
<ellipse cx="23" cy="86" rx="2" ry="17" id="48" fill="rgb(255,234,167)" fill-opacity="0.501961" />
<ellipse cx="49" cy="134" rx="5" ry="82" id="49" fill="rgb(120,117,22)" fill-opacity="0.501961" />
<ellipse cx="74" cy="117" rx="20" ry="4" id="50" fill="rgb(255,255,255)" fill-opacity="0.501961" />
<ellipse cx="232" cy="150" rx="31" ry="15" id="51" fill="rgb(113,141,6)" fill-opacity="0.501961" />
<ellipse cx="130" cy="105" rx="8" ry="13" id="52" fill="rgb(215,210,201)" fill-opacity="0.501961" />
<ellipse cx="90" cy="133" rx="7" ry="55" id="53" fill="rgb(255,255,255)" fill-opacity="0.501961" />
<ellipse cx="173" cy="18" rx="12" ry="5" id="54" fill="rgb(60,208,243)" fill-opacity="0.501961" />
<ellipse cx="180" cy="101" rx="22" ry="18" id="55" fill="rgb(232,238,233)" fill-opacity="0.501961" />
<ellipse cx="106" cy="18" rx="42" ry="6" id="56" fill="rgb(179,174,167)" fill-opacity="0.501961" />
<ellipse cx="206" cy="118" rx="5" ry="9" id="57" fill="rgb(11,0,0)" fill-opacity="0.501961" />
<ellipse cx="6" cy="73" rx="18" ry="20" id="58" fill="rgb(133,140,150)" fill-opacity="0.501961" />
<ellipse cx="123" cy="0" rx="29" ry="14" id="59" fill="rgb(118,116,120)" fill-opacity="0.501961" />
<ellipse cx="182" cy="55" rx="14" ry="4" id="60" fill="rgb(155,220,68)" fill-opacity="0.501961" />
<ellipse cx="0" cy="115" rx="27" ry="10" id="61" fill="rgb(38,18,0)" fill-opacity="0.501961" />
<ellipse cx="120" cy="82" rx="71" ry="3" id="62" fill="rgb(255,255,255)" fill-opacity="0.501961" />
<ellipse cx="37" cy="102" rx="11" ry="3" id="63" fill="rgb(0,0,0)" fill-opacity="0.501961" />
<ellipse cx="244" cy="86" rx="43" ry="6" id="64" fill="rgb(91,112,135)" fill-opacity="0.501961" />
<ellipse cx="28" cy="108" rx="13" ry="6" id="65" fill="rgb(9,13,0)" fill-opacity="0.501961" />
<ellipse cx="197" cy="104" rx="6" ry="26" id="66" fill="rgb(255,255,255)" fill-opacity="0.501961" />
<ellipse cx="146" cy="116" rx="7" ry="14" id="67" fill="rgb(158,130,124)" fill-opacity="0.501961" />
<ellipse cx="61" cy="94" rx="8" ry="16" id="68" fill="rgb(249,239,245)" fill-opacity="0.501961" />
<ellipse cx="1" cy="71" rx="2" ry="18" id="69" fill="rgb(252,224,154)" fill-opacity="0.501961" />
<ellipse cx="116" cy="30" rx="71" ry="7" id="70" fill="rgb(109,114,130)" fill-opacity="0.501961" />
<ellipse cx="241" cy="46" rx="43" ry="40" id="71" fill="rgb(140,142,147)" fill-opacity="0.501961" />
<ellipse cx="59" cy="152" rx="6" ry="16" id="72" fill="rgb(255,255,255)" fill-opacity="0.501961" />
<ellipse cx="231" cy="101" rx="7" ry="8" id="73" fill="rgb(56,1,7)" fill-opacity="0.501961" />
<ellipse cx="139" cy="128" rx="4" ry="12" id="74" fill="rgb(18,19,0)" fill-opacity="0.501961" />
<ellipse cx="111" cy="40" rx="20" ry="5" id="75" fill="rgb(181,180,191)" fill-opacity="0.501961" />
</svg>