<?xml version="1.0" encoding="UTF-8" standalone="no"?><!DOCTYPE svg PUBLIC "-//W3C//DTD SVG 1.1//EN" "http://www.w3.org/Graphics/SVG/1.1/DTD/svg11.dtd"><svg width="100%" height="100%" viewBox="0 0 778 490" version="1.1" style="fill-rule:evenodd;clip-rule:evenodd;stroke-linejoin:round;stroke-miterlimit:1.41421;"><path d="M761,490l-744,0c-9.389,0 -17,-7.611 -17,-17l0,-456c0,-9.389 7.611,-17 17,-17l744,0c9.389,0 17,7.611 17,17l0,456c0,9.389 -7.61,16.999 -17,17Zm-36,-427l-672,0l0,380l672,0l0,-380Z" style="fill:#c6c6c6;"/><path d="M396.168,27.471c0,3.186 -2.563,5.769 -5.723,5.769c-3.16,0 -5.723,-2.583 -5.723,-5.769c0,-3.186 2.563,-5.769 5.723,-5.769c3.16,0 5.723,2.583 5.723,5.769" style="fill:#fff;fill-rule:nonzero;"/><path d="M411.429,26.99c0,1.327 -1.067,2.403 -2.385,2.403c-1.317,0 -2.384,-1.076 -2.384,-2.403c0,-1.328 1.067,-2.404 2.384,-2.404c1.318,0 2.385,1.076 2.385,2.404" style="fill:#fff;fill-rule:nonzero;"/></svg>