<?xml version="1.0" standalone="no"?>
<svg xmlns="http://www.w3.org/2000/svg" version="1.2" baseProfile="tiny" width="256" height="157" viewBox="0 0 256 157">
<rect x="0" y="0" width="256" height="157" id="0" fill="rgb(218,218,217)" fill-opacity="1" />
<ellipse cx="125" cy="61" rx="60" ry="39" id="1" fill="rgb(0,0,0)" fill-opacity="0.501961" />
<ellipse cx="173" cy="138" rx="255" ry="41" id="2" fill="rgb(255,255,255)" fill-opacity="0.501961" />
<ellipse cx="229" cy="60" rx="46" ry="156" id="3" fill="rgb(255,255,255)" fill-opacity="0.501961" />
<ellipse cx="36" cy="57" rx="38" ry="156" id="4" fill="rgb(255,255,255)" fill-opacity="0.501961" />
<ellipse cx="173" cy="64" rx="11" ry="39" id="5" fill="rgb(0,0,0)" fill-opacity="0.501961" />
<ellipse cx="97" cy="91" rx="28" ry="10" id="6" fill="rgb(0,0,0)" fill-opacity="0.501961" />
<ellipse cx="100" cy="69" rx="27" ry="31" id="7" fill="rgb(30,30,30)" fill-opacity="0.501961" />
<ellipse cx="138" cy="19" rx="255" ry="8" id="8" fill="rgb(255,255,255)" fill-opacity="0.501961" />
<ellipse cx="21" cy="72" rx="53" ry="156" id="9" fill="rgb(255,255,255)" fill-opacity="0.501961" />
<ellipse cx="86" cy="50" rx="13" ry="25" id="10" fill="rgb(13,13,13)" fill-opacity="0.501961" />
<ellipse cx="236" cy="63" rx="54" ry="120" id="11" fill="rgb(255,255,255)" fill-opacity="0.501961" />
<ellipse cx="121" cy="142" rx="255" ry="43" id="12" fill="rgb(255,255,255)" fill-opacity="0.501961" />
<ellipse cx="143" cy="5" rx="255" ry="22" id="13" fill="rgb(255,255,249)" fill-opacity="0.501961" />
<ellipse cx="151" cy="102" rx="29" ry="15" id="14" fill="rgb(235,233,230)" fill-opacity="0.501961" />
<ellipse cx="140" cy="69" rx="12" ry="11" id="15" fill="rgb(219,219,219)" fill-opacity="0.501961" />
<ellipse cx="181" cy="42" rx="3" ry="19" id="16" fill="rgb(15,15,16)" fill-opacity="0.501961" />
<ellipse cx="43" cy="66" rx="31" ry="154" id="17" fill="rgb(255,255,255)" fill-opacity="0.501961" />
<ellipse cx="167" cy="48" rx="12" ry="22" id="18" fill="rgb(22,22,22)" fill-opacity="0.501961" />
<ellipse cx="178" cy="75" rx="5" ry="25" id="19" fill="rgb(8,8,8)" fill-opacity="0.501961" />
<ellipse cx="117" cy="52" rx="18" ry="22" id="20" fill="rgb(121,121,121)" fill-opacity="0.501961" />
<ellipse cx="121" cy="84" rx="49" ry="4" id="21" fill="rgb(7,7,7)" fill-opacity="0.501961" />
<ellipse cx="86" cy="40" rx="14" ry="15" id="22" fill="rgb(46,46,46)" fill-opacity="0.501961" />
<ellipse cx="214" cy="64" rx="31" ry="152" id="23" fill="rgb(255,255,255)" fill-opacity="0.501961" />
<ellipse cx="112" cy="23" rx="255" ry="4" id="24" fill="rgb(255,255,255)" fill-opacity="0.501961" />
<ellipse cx="84" cy="30" rx="11" ry="4" id="25" fill="rgb(5,5,5)" fill-opacity="0.501961" />
<ellipse cx="129" cy="100" rx="5" ry="13" id="26" fill="rgb(241,238,235)" fill-opacity="0.501961" />
<ellipse cx="30" cy="43" rx="44" ry="156" id="27" fill="rgb(255,255,255)" fill-opacity="0.501961" />
<ellipse cx="68" cy="9" rx="92" ry="8" id="28" fill="rgb(237,229,221)" fill-opacity="0.501961" />
<ellipse cx="87" cy="84" rx="13" ry="16" id="29" fill="rgb(25,25,25)" fill-opacity="0.501961" />
<ellipse cx="132" cy="133" rx="255" ry="34" id="30" fill="rgb(255,255,255)" fill-opacity="0.501961" />
<ellipse cx="168" cy="108" rx="14" ry="2" id="31" fill="rgb(176,139,87)" fill-opacity="0.501961" />
<ellipse cx="84" cy="108" rx="14" ry="2" id="32" fill="rgb(180,144,92)" fill-opacity="0.501961" />
<ellipse cx="161" cy="62" rx="5" ry="25" id="33" fill="rgb(44,44,44)" fill-opacity="0.501961" />
<ellipse cx="141" cy="99" rx="41" ry="1" id="34" fill="rgb(93,94,96)" fill-opacity="0.501961" />
<ellipse cx="155" cy="95" rx="8" ry="1" id="35" fill="rgb(0,0,0)" fill-opacity="0.501961" />
<ellipse cx="126" cy="29" rx="53" ry="3" id="36" fill="rgb(28,28,28)" fill-opacity="0.501961" />
<ellipse cx="111" cy="65" rx="5" ry="23" id="37" fill="rgb(53,53,53)" fill-opacity="0.501961" />
<ellipse cx="157" cy="97" rx="29" ry="2" id="38" fill="rgb(206,207,209)" fill-opacity="0.501961" />
<ellipse cx="170" cy="95" rx="12" ry="1" id="39" fill="rgb(0,0,0)" fill-opacity="0.501961" />
<ellipse cx="179" cy="93" rx="5" ry="3" id="40" fill="rgb(0,0,0)" fill-opacity="0.501961" />
<ellipse cx="117" cy="53" rx="3" ry="19" id="41" fill="rgb(147,147,147)" fill-opacity="0.501961" />
<ellipse cx="175" cy="42" rx="7" ry="16" id="42" fill="rgb(35,35,35)" fill-opacity="0.501961" />
<ellipse cx="233" cy="68" rx="50" ry="52" id="43" fill="rgb(255,255,255)" fill-opacity="0.501961" />
<ellipse cx="131" cy="51" rx="2" ry="11" id="44" fill="rgb(225,225,224)" fill-opacity="0.501961" />
<ellipse cx="93" cy="90" rx="19" ry="9" id="45" fill="rgb(29,29,29)" fill-opacity="0.501961" />
<ellipse cx="167" cy="80" rx="13" ry="8" id="46" fill="rgb(28,28,28)" fill-opacity="0.501961" />
<ellipse cx="89" cy="62" rx="11" ry="36" id="47" fill="rgb(57,57,57)" fill-opacity="0.501961" />
<ellipse cx="218" cy="7" rx="88" ry="10" id="48" fill="rgb(247,242,238)" fill-opacity="0.501961" />
<ellipse cx="131" cy="108" rx="52" ry="2" id="49" fill="rgb(194,184,169)" fill-opacity="0.501961" />
<ellipse cx="165" cy="128" rx="21" ry="2" id="50" fill="rgb(183,183,183)" fill-opacity="0.501961" />
<ellipse cx="137" cy="100" rx="11" ry="14" id="51" fill="rgb(231,231,232)" fill-opacity="0.501961" />
<ellipse cx="172" cy="60" rx="9" ry="30" id="52" fill="rgb(43,43,43)" fill-opacity="0.501961" />
<ellipse cx="196" cy="26" rx="125" ry="1" id="53" fill="rgb(255,255,255)" fill-opacity="0.501961" />
<ellipse cx="126" cy="41" rx="31" ry="3" id="54" fill="rgb(133,133,133)" fill-opacity="0.501961" />
<ellipse cx="143" cy="118" rx="163" ry="10" id="55" fill="rgb(255,255,255)" fill-opacity="0.501961" />
<ellipse cx="114" cy="6" rx="25" ry="1" id="56" fill="rgb(180,183,182)" fill-opacity="0.501961" />
<ellipse cx="52" cy="76" rx="22" ry="61" id="57" fill="rgb(255,255,255)" fill-opacity="0.501961" />
<ellipse cx="161" cy="17" rx="10" ry="11" id="58" fill="rgb(251,249,247)" fill-opacity="0.501961" />
<ellipse cx="131" cy="33" rx="15" ry="2" id="59" fill="rgb(165,165,165)" fill-opacity="0.501961" />
<ellipse cx="105" cy="35" rx="19" ry="5" id="60" fill="rgb(74,74,74)" fill-opacity="0.501961" />
<ellipse cx="162" cy="92" rx="11" ry="3" id="61" fill="rgb(250,251,253)" fill-opacity="0.501961" />
<ellipse cx="181" cy="59" rx="2" ry="31" id="62" fill="rgb(48,48,48)" fill-opacity="0.501961" />
<ellipse cx="107" cy="99" rx="33" ry="1" id="63" fill="rgb(103,102,102)" fill-opacity="0.501961" />
<ellipse cx="105" cy="51" rx="1" ry="33" id="64" fill="rgb(177,177,178)" fill-opacity="0.501961" />
<ellipse cx="77" cy="129" rx="2" ry="3" id="65" fill="rgb(176,144,96)" fill-opacity="0.501961" />
<ellipse cx="179" cy="83" rx="5" ry="12" id="66" fill="rgb(27,27,27)" fill-opacity="0.501961" />
<ellipse cx="149" cy="88" rx="3" ry="8" id="67" fill="rgb(0,0,0)" fill-opacity="0.501961" />
<ellipse cx="143" cy="43" rx="6" ry="3" id="68" fill="rgb(248,248,248)" fill-opacity="0.501961" />
<ellipse cx="207" cy="51" rx="25" ry="19" id="69" fill="rgb(255,255,255)" fill-opacity="0.501961" />
</svg>