<?xml version="1.0" standalone="no"?>
<svg xmlns="http://www.w3.org/2000/svg" version="1.2" baseProfile="tiny" width="143" height="256" viewBox="0 0 143 256">
<rect x="0" y="0" width="143" height="256" id="0" fill="rgb(200,198,196)" fill-opacity="1" />
<ellipse cx="45" cy="117" rx="128" ry="18" id="1" fill="rgb(90,90,76)" fill-opacity="0.501961" />
<ellipse cx="73" cy="244" rx="142" ry="37" id="2" fill="rgb(255,255,255)" fill-opacity="0.501961" />
<ellipse cx="46" cy="204" rx="138" ry="5" id="3" fill="rgb(41,2,0)" fill-opacity="0.501961" />
<ellipse cx="104" cy="31" rx="80" ry="50" id="4" fill="rgb(239,253,255)" fill-opacity="0.501961" />
<ellipse cx="1" cy="172" rx="15" ry="37" id="5" fill="rgb(51,65,6)" fill-opacity="0.501961" />
<ellipse cx="136" cy="171" rx="8" ry="38" id="6" fill="rgb(58,73,12)" fill-opacity="0.501961" />
<ellipse cx="33" cy="94" rx="70" ry="19" id="7" fill="rgb(148,155,145)" fill-opacity="0.501961" />
<ellipse cx="129" cy="83" rx="27" ry="23" id="8" fill="rgb(238,250,255)" fill-opacity="0.501961" />
<ellipse cx="59" cy="142" rx="46" ry="9" id="9" fill="rgb(247,255,234)" fill-opacity="0.501961" />
<ellipse cx="43" cy="220" rx="142" ry="13" id="10" fill="rgb(255,225,229)" fill-opacity="0.501961" />
<ellipse cx="70" cy="225" rx="25" ry="4" id="11" fill="rgb(188,110,113)" fill-opacity="0.501961" />
<ellipse cx="4" cy="131" rx="11" ry="57" id="12" fill="rgb(126,136,108)" fill-opacity="0.501961" />
<ellipse cx="72" cy="247" rx="142" ry="20" id="13" fill="rgb(255,240,242)" fill-opacity="0.501961" />
<ellipse cx="114" cy="157" rx="7" ry="16" id="14" fill="rgb(228,101,98)" fill-opacity="0.501961" />
<ellipse cx="104" cy="49" rx="88" ry="26" id="15" fill="rgb(226,232,255)" fill-opacity="0.501961" />
<ellipse cx="62" cy="157" rx="48" ry="21" id="16" fill="rgb(223,234,212)" fill-opacity="0.501961" />
<ellipse cx="142" cy="145" rx="14" ry="33" id="17" fill="rgb(150,163,119)" fill-opacity="0.501961" />
<ellipse cx="52" cy="69" rx="15" ry="18" id="18" fill="rgb(210,224,247)" fill-opacity="0.501961" />
<ellipse cx="81" cy="99" rx="23" ry="27" id="19" fill="rgb(143,146,139)" fill-opacity="0.501961" />
<ellipse cx="0" cy="194" rx="15" ry="14" id="20" fill="rgb(55,48,49)" fill-opacity="0.501961" />
<ellipse cx="40" cy="4" rx="15" ry="36" id="21" fill="rgb(242,244,255)" fill-opacity="0.501961" />
<ellipse cx="83" cy="9" rx="45" ry="20" id="22" fill="rgb(201,212,244)" fill-opacity="0.501961" />
<ellipse cx="114" cy="127" rx="142" ry="7" id="23" fill="rgb(129,120,110)" fill-opacity="0.501961" />
<ellipse cx="121" cy="204" rx="68" ry="3" id="24" fill="rgb(55,80,50)" fill-opacity="0.501961" />
<ellipse cx="45" cy="103" rx="17" ry="8" id="25" fill="rgb(199,202,199)" fill-opacity="0.501961" />
<ellipse cx="123" cy="222" rx="29" ry="15" id="26" fill="rgb(255,239,239)" fill-opacity="0.501961" />
<ellipse cx="142" cy="24" rx="29" ry="15" id="27" fill="rgb(179,195,225)" fill-opacity="0.501961" />
<ellipse cx="20" cy="22" rx="8" ry="15" id="28" fill="rgb(182,152,128)" fill-opacity="0.501961" />
<ellipse cx="118" cy="117" rx="29" ry="16" id="29" fill="rgb(155,159,149)" fill-opacity="0.501961" />
<ellipse cx="68" cy="190" rx="49" ry="9" id="30" fill="rgb(224,226,214)" fill-opacity="0.501961" />
<ellipse cx="7" cy="136" rx="8" ry="5" id="31" fill="rgb(76,66,75)" fill-opacity="0.501961" />
<ellipse cx="7" cy="0" rx="11" ry="26" id="32" fill="rgb(237,237,235)" fill-opacity="0.501961" />
<ellipse cx="107" cy="92" rx="9" ry="13" id="33" fill="rgb(218,229,240)" fill-opacity="0.501961" />
<ellipse cx="18" cy="57" rx="41" ry="18" id="34" fill="rgb(188,200,220)" fill-opacity="0.501961" />
<ellipse cx="140" cy="195" rx="13" ry="12" id="35" fill="rgb(69,75,59)" fill-opacity="0.501961" />
<ellipse cx="9" cy="228" rx="40" ry="21" id="36" fill="rgb(255,236,237)" fill-opacity="0.501961" />
<ellipse cx="1" cy="161" rx="15" ry="21" id="37" fill="rgb(154,171,113)" fill-opacity="0.501961" />
<ellipse cx="16" cy="169" rx="2" ry="25" id="38" fill="rgb(240,222,215)" fill-opacity="0.501961" />
<ellipse cx="67" cy="39" rx="22" ry="8" id="39" fill="rgb(255,253,254)" fill-opacity="0.501961" />
<ellipse cx="6" cy="85" rx="16" ry="20" id="40" fill="rgb(161,162,159)" fill-opacity="0.501961" />
<ellipse cx="136" cy="145" rx="8" ry="22" id="41" fill="rgb(148,163,120)" fill-opacity="0.501961" />
<ellipse cx="116" cy="138" rx="12" ry="5" id="42" fill="rgb(245,255,234)" fill-opacity="0.501961" />
<ellipse cx="45" cy="132" rx="98" ry="2" id="43" fill="rgb(155,94,84)" fill-opacity="0.501961" />
<ellipse cx="34" cy="159" rx="3" ry="10" id="44" fill="rgb(129,135,125)" fill-opacity="0.501961" />
<ellipse cx="40" cy="133" rx="26" ry="1" id="45" fill="rgb(202,2,17)" fill-opacity="0.501961" />
<ellipse cx="66" cy="180" rx="42" ry="2" id="46" fill="rgb(143,143,135)" fill-opacity="0.501961" />
<ellipse cx="95" cy="121" rx="33" ry="12" id="47" fill="rgb(131,136,126)" fill-opacity="0.501961" />
<ellipse cx="95" cy="211" rx="65" ry="4" id="48" fill="rgb(255,232,235)" fill-opacity="0.501961" />
<ellipse cx="124" cy="164" rx="5" ry="23" id="49" fill="rgb(237,243,224)" fill-opacity="0.501961" />
<ellipse cx="114" cy="183" rx="7" ry="8" id="50" fill="rgb(219,152,149)" fill-opacity="0.501961" />
<ellipse cx="91" cy="200" rx="90" ry="2" id="51" fill="rgb(162,92,72)" fill-opacity="0.501961" />
<ellipse cx="91" cy="158" rx="2" ry="6" id="52" fill="rgb(102,107,99)" fill-opacity="0.501961" />
<ellipse cx="16" cy="203" rx="14" ry="4" id="53" fill="rgb(56,67,49)" fill-opacity="0.501961" />
<ellipse cx="135" cy="87" rx="13" ry="20" id="54" fill="rgb(228,235,247)" fill-opacity="0.501961" />
<ellipse cx="28" cy="58" rx="15" ry="4" id="55" fill="rgb(248,248,253)" fill-opacity="0.501961" />
<ellipse cx="80" cy="59" rx="50" ry="7" id="56" fill="rgb(201,215,238)" fill-opacity="0.501961" />
<ellipse cx="62" cy="160" rx="4" ry="3" id="57" fill="rgb(93,99,89)" fill-opacity="0.501961" />
<ellipse cx="122" cy="23" rx="3" ry="1" id="58" fill="rgb(0,0,0)" fill-opacity="0.501961" />
<ellipse cx="103" cy="35" rx="17" ry="12" id="59" fill="rgb(249,247,250)" fill-opacity="0.501961" />
<ellipse cx="135" cy="129" rx="44" ry="4" id="60" fill="rgb(160,167,149)" fill-opacity="0.501961" />
<ellipse cx="75" cy="134" rx="59" ry="1" id="61" fill="rgb(245,226,221)" fill-opacity="0.501961" />
<ellipse cx="49" cy="158" rx="8" ry="25" id="62" fill="rgb(223,228,215)" fill-opacity="0.501961" />
<ellipse cx="10" cy="129" rx="95" ry="4" id="63" fill="rgb(111,123,118)" fill-opacity="0.501961" />
<ellipse cx="100" cy="252" rx="142" ry="25" id="64" fill="rgb(254,232,234)" fill-opacity="0.501961" />
<ellipse cx="24" cy="0" rx="15" ry="5" id="65" fill="rgb(254,255,255)" fill-opacity="0.501961" />
<ellipse cx="87" cy="84" rx="18" ry="10" id="66" fill="rgb(170,174,169)" fill-opacity="0.501961" />
<ellipse cx="9" cy="190" rx="6" ry="17" id="67" fill="rgb(88,81,70)" fill-opacity="0.501961" />
<ellipse cx="3" cy="42" rx="28" ry="13" id="68" fill="rgb(190,193,202)" fill-opacity="0.501961" />
<ellipse cx="104" cy="165" rx="5" ry="31" id="69" fill="rgb(230,233,219)" fill-opacity="0.501961" />
<ellipse cx="137" cy="193" rx="8" ry="15" id="70" fill="rgb(83,95,77)" fill-opacity="0.501961" />
<ellipse cx="79" cy="178" rx="55" ry="1" id="71" fill="rgb(157,148,142)" fill-opacity="0.501961" />
<ellipse cx="79" cy="170" rx="6" ry="14" id="72" fill="rgb(226,228,218)" fill-opacity="0.501961" />
<ellipse cx="61" cy="68" rx="16" ry="7" id="73" fill="rgb(242,243,248)" fill-opacity="0.501961" />
<ellipse cx="122" cy="204" rx="18" ry="4" id="74" fill="rgb(66,74,56)" fill-opacity="0.501961" />
<ellipse cx="12" cy="99" rx="27" ry="5" id="75" fill="rgb(150,150,136)" fill-opacity="0.501961" />
<ellipse cx="138" cy="147" rx="10" ry="31" id="76" fill="rgb(148,155,121)" fill-opacity="0.501961" />
<ellipse cx="116" cy="156" rx="10" ry="2" id="77" fill="rgb(221,254,234)" fill-opacity="0.501961" />
<ellipse cx="19" cy="15" rx="5" ry="11" id="78" fill="rgb(191,159,118)" fill-opacity="0.501961" />
<ellipse cx="103" cy="192" rx="26" ry="8" id="79" fill="rgb(213,209,203)" fill-opacity="0.501961" />
<ellipse cx="20" cy="164" rx="4" ry="31" id="80" fill="rgb(224,231,217)" fill-opacity="0.501961" />
<ellipse cx="79" cy="158" rx="47" ry="2" id="81" fill="rgb(203,216,199)" fill-opacity="0.501961" />
<ellipse cx="38" cy="16" rx="16" ry="12" id="82" fill="rgb(236,237,241)" fill-opacity="0.501961" />
<ellipse cx="114" cy="6" rx="82" ry="10" id="83" fill="rgb(215,222,240)" fill-opacity="0.501961" />
<ellipse cx="31" cy="167" rx="12" ry="5" id="84" fill="rgb(234,239,223)" fill-opacity="0.501961" />
<ellipse cx="88" cy="161" rx="2" ry="2" id="85" fill="rgb(7,10,6)" fill-opacity="0.501961" />
<ellipse cx="14" cy="136" rx="1" ry="41" id="86" fill="rgb(168,61,66)" fill-opacity="0.501961" />
<ellipse cx="53" cy="185" rx="3" ry="8" id="87" fill="rgb(230,231,218)" fill-opacity="0.501961" />
<ellipse cx="123" cy="48" rx="21" ry="9" id="88" fill="rgb(243,243,246)" fill-opacity="0.501961" />
<ellipse cx="111" cy="71" rx="27" ry="5" id="89" fill="rgb(248,249,249)" fill-opacity="0.501961" />
<ellipse cx="72" cy="250" rx="3" ry="36" id="90" fill="rgb(252,235,236)" fill-opacity="0.501961" />
<ellipse cx="46" cy="104" rx="3" ry="8" id="91" fill="rgb(223,227,235)" fill-opacity="0.501961" />
<ellipse cx="88" cy="224" rx="6" ry="6" id="92" fill="rgb(205,148,151)" fill-opacity="0.501961" />
<ellipse cx="18" cy="119" rx="12" ry="14" id="93" fill="rgb(121,126,121)" fill-opacity="0.501961" />
<ellipse cx="55" cy="207" rx="91" ry="1" id="94" fill="rgb(177,46,42)" fill-opacity="0.501961" />
<ellipse cx="78" cy="243" rx="142" ry="16" id="95" fill="rgb(249,233,234)" fill-opacity="0.501961" />
<ellipse cx="115" cy="145" rx="6" ry="2" id="96" fill="rgb(212,83,87)" fill-opacity="0.501961" />
<ellipse cx="82" cy="29" rx="7" ry="7" id="97" fill="rgb(189,205,232)" fill-opacity="0.501961" />
<ellipse cx="21" cy="208" rx="121" ry="1" id="98" fill="rgb(242,162,168)" fill-opacity="0.501961" />
<ellipse cx="119" cy="17" rx="7" ry="4" id="99" fill="rgb(163,171,183)" fill-opacity="0.501961" />
<ellipse cx="97" cy="158" rx="6" ry="20" id="100" fill="rgb(226,230,217)" fill-opacity="0.501961" />
<ellipse cx="53" cy="84" rx="6" ry="5" id="101" fill="rgb(221,222,221)" fill-opacity="0.501961" />
</svg>