<?xml version="1.0" encoding="UTF-8" standalone="no"?>
<!DOCTYPE svg PUBLIC "-//W3C//DTD SVG 1.1//EN" "http://www.w3.org/Graphics/SVG/1.1/DTD/svg11.dtd">
<svg width="100%" height="100%" viewBox="0 0 407 357" version="1.1" style="fill-rule:evenodd;clip-rule:evenodd;stroke-linecap:round;stroke-linejoin:round;">
    <g transform="matrix(1,0,0,1,-74.0867,-53.1333)">
        <g transform="matrix(4.16667,0,0,4.16667,-539,-1758)">
            <g transform="matrix(25.3594,-3.89411,-3.89411,-25.3594,176.704,455.951)">
                <path d="M0.015,0.243C0.256,-0.225 0.762,-0.074 0.762,-0.074C0.758,-0.094 0.754,-0.115 0.749,-0.137L0.804,-0.031C0.798,-0.026 0.792,-0.021 0.786,-0.016C0.644,0.173 0.476,0.245 0.333,0.267C0.154,0.294 0.015,0.243 0.015,0.243Z" style="fill:url(#_Linear1);fill-rule:nonzero;"/>
            </g>
        </g>
        <g transform="matrix(4.16667,0,0,4.16667,-539,-1758)">
            <g transform="matrix(20.1743,0,0,-20.1743,195.831,458.351)">
                <path d="M0.02,0.092C0.016,-0.002 0.009,-0.102 0,-0.207C0.02,-0.214 0.038,-0.223 0.055,-0.235C0.083,-0.071 0.108,0.067 0.108,0.067C0.108,0.067 0.581,-0.182 1,0.033C1,0.033 0.356,0.072 0.069,0.235L0.02,0.092Z" style="fill:url(#_Linear2);fill-rule:nonzero;"/>
            </g>
        </g>
        <g transform="matrix(4.16667,0,0,4.16667,-539,-1758)">
            <g transform="matrix(1,0,0,1,208.058,484.664)">
                <path d="M0,-0.002C0,-0.002 -0.001,-0.001 -0.002,-0.001L-0.002,0L0,-0.002Z" style="fill:rgb(23,94,89);fill-rule:nonzero;"/>
            </g>
        </g>
        <g transform="matrix(4.16667,0,0,4.16667,-539,-1758)">
            <g transform="matrix(1,0,0,1,186.591,481.132)">
                <path d="M0,6.577C-0.031,6.603 -0.113,6.67 -0.226,6.754C-0.255,6.776 -0.276,6.805 -0.3,6.83C-0.302,6.828 -0.305,6.826 -0.308,6.824C-0.306,6.818 -0.305,6.815 -0.303,6.809L-0.301,6.802C-0.227,6.57 -0.147,6.395 -0.074,6.275C-0.006,6.162 0.027,6.03 0.018,5.898L0.008,5.728C-0.009,5.459 -0.19,5.229 -0.447,5.148L-0.609,5.098C-0.733,5.059 -0.87,5.058 -0.994,5.097C-1.225,5.167 -1.451,5.236 -1.673,5.301L-1.674,5.302C-1.797,5.338 -1.962,5.379 -2.163,5.42L-2.16,5.419C-2.485,5.484 -2.697,5.524 -2.759,5.534C-3.015,5.571 -3.32,5.592 -3.666,5.592L-7.756,5.592L-7.756,4.205L-3.785,4.206L-3.618,4.206L-3.545,4.202L-3.329,4.177L-3.221,4.155L-3.04,4.103L-2.839,4.005L-2.624,3.848L-2.458,3.672L-1.876,2.761C-1.806,2.652 -1.77,2.524 -1.774,2.394L-1.778,2.226C-1.785,1.961 -1.953,1.726 -2.201,1.634L-2.359,1.575C-2.481,1.53 -2.616,1.522 -2.742,1.554C-2.912,1.596 -3.041,1.623 -3.112,1.636C-3.185,1.648 -3.344,1.669 -3.566,1.693L-3.567,1.693C-3.769,1.715 -3.973,1.725 -4.177,1.725L-4.302,1.725L-7.786,1.725L-7.786,0.984L-4.28,0.985C-4.003,0.985 -3.753,0.997 -3.533,1.018C-3.3,1.041 -3.007,1.077 -2.659,1.125L-2.652,1.126C-2.424,1.155 -2.196,1.193 -1.967,1.238C-1.731,1.286 -1.484,1.341 -1.227,1.405C-1.111,1.434 -0.989,1.431 -0.874,1.395L-0.725,1.348C-0.494,1.275 -0.324,1.081 -0.281,0.842L-0.253,0.69C-0.233,0.575 -0.244,0.453 -0.286,0.343C-0.372,0.117 -0.456,-0.112 -0.537,-0.342L-0.54,-0.349C-0.547,-0.37 -0.56,-0.408 -0.576,-0.458L-0.565,-0.484C-0.555,-0.505 -0.559,-0.529 -0.552,-0.551L-0.522,-0.469C-0.474,-0.338 -0.384,-0.224 -0.268,-0.148C-0.151,-0.072 -0.072,-0.005 -0.05,0.019C-0.022,0.046 0.034,0.116 0.097,0.216C0.182,0.348 0.222,0.449 0.221,0.452L0.222,0.455C0.228,0.473 0.245,0.573 0.245,0.723L0.245,6.057C0.245,6.148 0.233,6.204 0.228,6.218L0.227,6.221L0.136,6.412L0.03,6.548L0,6.577ZM-10.666,6.386L-10.736,6.484L-10.809,6.563C-10.812,6.566 -10.817,6.57 -10.821,6.573C-10.778,6.471 -10.728,6.354 -10.666,6.21L-10.666,6.386ZM14.758,0.904L17.092,0.904C17.708,0.904 18.174,0.923 18.462,0.953C18.937,1.001 19.26,1.109 19.385,1.187C19.473,1.242 19.491,1.272 19.5,1.284C19.506,1.297 19.518,1.322 19.522,1.407L19.497,1.522C19.481,1.547 19.44,1.599 19.325,1.672C19.155,1.78 18.815,1.904 18.327,1.977L18.326,1.977C17.966,2.032 17.53,2.062 17.024,2.062L14.758,2.062L14.758,0.904ZM11.591,6.542L11.388,6.702L11.267,6.802C11.171,6.89 11.102,7.005 11.072,7.132L11.042,7.256C11.034,7.193 11.036,7.128 11.01,7.07L10.926,6.88L10.906,6.816L10.898,6.768L10.898,0.656C10.898,0.535 10.911,0.451 10.922,0.408L10.922,0.406C10.934,0.36 10.961,0.287 11.014,0.194L11.015,0.192C11.069,0.094 11.117,0.034 11.135,0.017L11.137,0.014C11.162,-0.012 11.229,-0.069 11.317,-0.133C11.328,-0.126 11.336,-0.116 11.346,-0.11C11.448,-0.057 11.511,-0.009 11.536,0.015C11.579,0.056 11.637,0.123 11.703,0.22L11.705,0.223L11.787,0.381C11.798,0.418 11.811,0.494 11.81,0.609L11.81,5.936C11.811,6.091 11.795,6.206 11.779,6.268C11.771,6.3 11.744,6.369 11.678,6.463L11.596,6.538L11.591,6.542ZM10.59,8.115L10.716,8.046C10.892,7.95 11.003,7.774 11.035,7.578C11.069,7.74 11.156,7.888 11.298,7.985L11.438,8.081C11.545,8.154 11.675,8.194 11.805,8.194L14.622,8.194C14.76,8.194 14.895,8.15 15.007,8.067L15.15,7.962C15.379,7.793 15.472,7.495 15.379,7.226L15.321,7.058C15.275,6.927 15.19,6.814 15.076,6.736C14.964,6.657 14.902,6.586 14.852,6.499L14.851,6.497C14.781,6.369 14.761,6.285 14.759,6.171L14.759,4.603L15.955,4.603C16.227,4.603 16.455,4.624 16.634,4.657C16.812,4.69 17.041,4.754 17.308,4.851C17.873,5.06 18.374,5.417 18.842,5.977L18.843,5.978C19.171,6.362 19.326,6.679 19.38,6.873C19.309,6.956 19.249,7.049 19.227,7.156L19.193,7.32C19.14,7.58 19.249,7.845 19.469,7.992L19.609,8.085C19.714,8.155 19.842,8.194 19.969,8.194L22.508,8.194C22.635,8.194 22.758,8.157 22.864,8.088L23.001,7.998C23.218,7.856 23.329,7.599 23.286,7.344L23.258,7.182C23.236,7.057 23.18,6.944 23.094,6.851C22.966,6.712 22.836,6.574 22.706,6.436C22.601,6.324 22.513,6.215 22.444,6.114C22.175,5.719 21.909,5.322 21.646,4.923L21.633,4.903C21.381,4.549 21.095,4.232 20.794,3.934C21.032,3.819 21.259,3.69 21.465,3.53C22.153,3.01 22.548,2.205 22.539,1.344L22.539,1.339L22.539,1.334L22.539,1.323C22.541,0.83 22.401,0.354 22.137,-0.045C21.873,-0.446 21.496,-0.766 21.047,-1.005C20.249,-1.432 19.289,-1.616 18.192,-1.617L11.722,-1.617C11.577,-1.617 11.437,-1.568 11.323,-1.48L11.31,-1.47L11.281,-1.491C11.169,-1.573 11.036,-1.617 10.897,-1.617L7.997,-1.617C7.858,-1.617 7.722,-1.572 7.611,-1.489L7.467,-1.383C7.236,-1.213 7.144,-0.909 7.242,-0.639L7.303,-0.47C7.351,-0.337 7.439,-0.226 7.557,-0.148C7.648,-0.089 7.705,-0.037 7.731,-0.008L7.733,-0.005C7.77,0.034 7.826,0.109 7.888,0.204C7.973,0.362 8.009,0.496 8.01,0.656L8.01,4.01L4.148,-0.597L4.178,-0.748C4.229,-1.006 4.121,-1.267 3.903,-1.414L3.765,-1.506C3.657,-1.579 3.532,-1.617 3.402,-1.617L0.171,-1.617C0.032,-1.617 -0.103,-1.572 -0.215,-1.489L-0.359,-1.383C-0.458,-1.31 -0.525,-1.21 -0.569,-1.101C-0.621,-1.248 -0.705,-1.382 -0.844,-1.46L-0.972,-1.533C-1.071,-1.589 -1.178,-1.617 -1.292,-1.617L-10.687,-1.617C-10.826,-1.617 -10.958,-1.574 -11.07,-1.492L-11.213,-1.387C-11.441,-1.22 -11.536,-0.922 -11.446,-0.655L-11.389,-0.487C-11.345,-0.355 -11.261,-0.243 -11.148,-0.163C-11.048,-0.093 -10.98,-0.033 -10.956,-0.008C-10.939,0.009 -10.877,0.088 -10.807,0.202L-10.806,0.203C-10.733,0.318 -10.688,0.41 -10.672,0.45L-10.67,0.461L-10.666,0.522L-10.666,5.601C-10.727,5.379 -10.889,5.197 -11.115,5.138L-11.272,5.097C-11.392,5.066 -11.52,5.069 -11.638,5.108C-11.916,5.198 -12.175,5.269 -12.415,5.32C-12.418,5.321 -12.42,5.323 -12.423,5.324C-12.425,5.324 -12.428,5.324 -12.43,5.324C-12.573,5.358 -12.856,5.414 -13.251,5.483L-13.26,5.484C-13.528,5.535 -13.74,5.565 -13.873,5.573L-13.879,5.574C-14.032,5.585 -14.26,5.592 -14.548,5.592L-17.188,5.592L-17.188,0.731C-17.188,0.584 -17.175,0.467 -17.156,0.384C-17.143,0.327 -17.107,0.227 -17.036,0.1L-17.035,0.099C-16.995,0.026 -16.909,-0.082 -16.763,-0.205C-16.661,-0.29 -16.588,-0.406 -16.554,-0.534L-16.509,-0.7C-16.439,-0.964 -16.541,-1.244 -16.764,-1.4L-16.905,-1.499C-17.013,-1.575 -17.145,-1.617 -17.278,-1.617L-20.141,-1.617C-20.28,-1.617 -20.416,-1.572 -20.528,-1.489L-20.671,-1.382C-20.902,-1.212 -20.993,-0.913 -20.897,-0.643L-20.837,-0.475C-20.791,-0.344 -20.703,-0.231 -20.588,-0.153C-20.47,-0.075 -20.391,-0.005 -20.37,0.018C-20.351,0.038 -20.291,0.116 -20.225,0.235C-20.161,0.349 -20.131,0.434 -20.127,0.455L-20.127,0.457C-20.119,0.485 -20.104,0.589 -20.105,0.734L-20.105,6.003C-20.105,6.102 -20.117,6.174 -20.13,6.22C-20.146,6.276 -20.179,6.359 -20.237,6.459L-20.331,6.589L-20.497,6.715C-20.617,6.79 -20.708,6.9 -20.759,7.032L-20.824,7.201C-20.929,7.472 -20.841,7.781 -20.608,7.956L-20.464,8.064C-20.35,8.149 -20.216,8.194 -20.074,8.194L-11.471,8.194C-11.335,8.194 -11.202,8.151 -11.092,8.072L-11.023,8.023L-10.955,8.072C-10.844,8.151 -10.711,8.194 -10.575,8.194L-0.855,8.194C-0.713,8.194 -0.578,8.149 -0.464,8.063L-0.32,7.955C-0.313,7.95 -0.309,7.942 -0.302,7.936C-0.289,7.947 -0.28,7.962 -0.265,7.972L-0.123,8.073C-0.012,8.152 0.118,8.194 0.254,8.194L3.267,8.194C3.417,8.194 3.561,8.143 3.677,8.048L3.824,7.929C4.061,7.736 4.132,7.403 3.993,7.13L3.907,6.962C3.839,6.828 3.729,6.724 3.592,6.663C3.486,6.617 3.417,6.572 3.404,6.561L3.275,6.418L3.268,6.408L3.172,6.251L3.171,6.25C3.164,6.23 3.147,6.148 3.148,6.029L3.148,6.027L3.148,6.023L3.148,2.588L7.125,7.342L7.123,7.361L7.13,7.506C7.141,7.732 7.267,7.934 7.465,8.043L7.593,8.113C7.689,8.166 7.797,8.194 7.907,8.194L10.279,8.194C10.389,8.194 10.494,8.168 10.59,8.115" style="fill:rgb(23,94,89);fill-rule:nonzero;"/>
            </g>
        </g>
        <g transform="matrix(4.16667,0,0,4.16667,-539,-1758)">
            <g transform="matrix(1,0,0,1,223.287,480.799)">
                <path d="M0,0.001L0.001,0L0,0.001Z" style="fill:rgb(23,94,89);fill-rule:nonzero;"/>
            </g>
        </g>
        <g transform="matrix(4.16667,0,0,4.16667,-539,-1758)">
            <g transform="matrix(1,0,0,1,215.369,481.975)">
                <path d="M0,4.924C-1.134,4.919 -1.883,4.639 -2.413,4.15C-2.906,3.678 -3.131,3.16 -3.142,2.356C-3.128,1.625 -2.911,1.158 -2.372,0.686C-1.813,0.219 -1.061,-0.043 0.016,-0.046C1.09,-0.042 1.828,0.222 2.376,0.697C2.896,1.168 3.113,1.647 3.126,2.389C3.114,3.152 2.889,3.656 2.359,4.149L2.358,4.15C1.801,4.648 1.069,4.919 0,4.924M29.375,6.381L29.316,6.213C29.271,6.082 29.184,5.969 29.07,5.891C28.919,5.788 28.774,5.689 28.636,5.589L28.635,5.589C28.498,5.49 28.361,5.387 28.226,5.28C27.943,5.051 27.709,4.851 27.528,4.685C27.325,4.497 27.118,4.286 26.906,4.048L26.907,4.05L24.664,1.514L26.222,0.423C26.49,0.238 26.728,0.084 26.934,-0.044C27.041,-0.11 27.303,-0.258 27.689,-0.472L28.599,-0.952C28.727,-1.02 28.83,-1.129 28.889,-1.26L28.965,-1.428C29.087,-1.7 29.008,-2.022 28.773,-2.207L28.628,-2.321C28.514,-2.41 28.371,-2.46 28.227,-2.46L25.033,-2.46C24.909,-2.46 24.787,-2.424 24.683,-2.358L24.547,-2.271C24.334,-2.135 24.219,-1.887 24.252,-1.636L24.274,-1.476C24.275,-1.466 24.284,-1.457 24.286,-1.447C24.234,-1.41 24.176,-1.368 24.102,-1.319L24.093,-1.313L20.358,1.307L20.358,-0.496L20.361,-0.542L20.362,-0.545L20.481,-0.733L20.497,-0.756L20.595,-0.879L20.77,-1.01C20.864,-1.08 20.937,-1.173 20.982,-1.281L21.051,-1.449C21.164,-1.721 21.081,-2.034 20.848,-2.213L20.703,-2.325C20.589,-2.413 20.451,-2.46 20.307,-2.46L17.441,-2.46C17.299,-2.46 17.162,-2.414 17.049,-2.328L16.904,-2.219C16.735,-2.09 16.645,-1.891 16.649,-1.687C16.599,-1.864 16.486,-2.017 16.319,-2.099L16.199,-2.158C16.094,-2.209 15.979,-2.232 15.862,-2.222L15.732,-2.212L15.61,-2.206L15.591,-2.206C15.187,-2.272 14.784,-2.337 14.384,-2.402L14.373,-2.404C13.708,-2.501 13.035,-2.548 12.352,-2.548L12.346,-2.548C10.607,-2.55 9.096,-2.108 7.918,-1.175C6.952,-0.425 6.348,0.594 6.162,1.749C6.012,0.577 5.434,-0.461 4.485,-1.219C3.331,-2.154 1.82,-2.589 0.061,-2.588L0.06,-2.588L0.049,-2.588L0.045,-2.588L0.045,-2.587C-1.73,-2.589 -3.264,-2.143 -4.449,-1.197C-5.608,-0.284 -6.247,1.018 -6.237,2.481L-6.237,2.499C-6.247,3.946 -5.624,5.233 -4.484,6.117C-3.314,7.038 -1.781,7.46 0.016,7.458L0.024,7.458C1.766,7.46 3.278,7.011 4.445,6.064L4.445,6.063C5.389,5.309 5.974,4.293 6.147,3.148C6.266,4.331 6.744,5.381 7.614,6.137C8.707,7.093 10.216,7.513 12.023,7.512C12.555,7.512 13.037,7.474 13.476,7.39C13.857,7.318 14.219,7.245 14.561,7.173L14.564,7.172C14.843,7.113 15.139,7.083 15.457,7.082L15.64,7.088L15.846,7.101L16.104,7.065L16.217,7.025C16.385,6.965 16.523,6.836 16.595,6.672L16.643,6.563C16.679,6.48 16.697,6.393 16.697,6.303L16.697,4.87C16.697,4.763 16.671,4.659 16.621,4.565L16.555,4.44C16.453,4.248 16.264,4.121 16.048,4.098L15.908,4.084C15.802,4.073 15.693,4.088 15.594,4.129C14.882,4.421 14.302,4.617 13.882,4.718L13.88,4.718C13.359,4.844 12.773,4.91 12.121,4.91C11.029,4.907 10.288,4.65 9.772,4.213C9.267,3.769 9.052,3.307 9.039,2.551C9.041,2.172 9.116,1.861 9.265,1.574C9.415,1.288 9.645,1.017 9.992,0.753C10.664,0.246 11.472,-0.015 12.531,-0.019C12.885,-0.019 13.216,0.01 13.525,0.068C13.768,0.114 14.045,0.186 14.352,0.285L14.353,0.286C14.685,0.392 15.007,0.498 15.321,0.6L15.581,0.63L15.699,0.619C15.877,0.603 16.04,0.514 16.151,0.374L16.224,0.282L16.341,0.049L16.684,-1.215C16.706,-1.293 16.702,-1.376 16.693,-1.458L16.757,-1.295C16.808,-1.163 16.902,-1.051 17.023,-0.977C17.15,-0.898 17.233,-0.817 17.302,-0.714L17.308,-0.704C17.422,-0.534 17.45,-0.429 17.453,-0.286L17.453,5.214L17.437,5.355C17.42,5.409 17.387,5.489 17.336,5.585L17.224,5.754L17.224,5.755L17.038,5.923C16.934,6.006 16.855,6.122 16.818,6.249L16.768,6.416C16.689,6.684 16.789,6.97 17.016,7.131L17.158,7.232C17.269,7.31 17.398,7.351 17.534,7.351L20.342,7.351C20.481,7.351 20.616,7.307 20.728,7.224L20.871,7.119C21.1,6.95 21.193,6.652 21.1,6.383L21.042,6.215C20.996,6.084 20.911,5.972 20.797,5.893C20.677,5.81 20.593,5.728 20.536,5.654C20.447,5.532 20.395,5.43 20.384,5.399L20.384,5.397C20.376,5.379 20.357,5.303 20.358,5.18L20.358,4.525L22.279,3.168L24.626,5.751L24.625,5.75C24.711,5.846 24.768,5.908 24.824,5.972L24.82,5.976C24.745,6.052 24.692,6.141 24.661,6.243L24.611,6.411C24.53,6.678 24.628,6.966 24.855,7.128L24.997,7.23C25.108,7.309 25.239,7.351 25.375,7.351L28.618,7.351C28.757,7.351 28.892,7.307 29.004,7.224L29.147,7.119C29.376,6.95 29.469,6.65 29.375,6.381" style="fill:rgb(23,94,89);fill-rule:nonzero;"/>
            </g>
        </g>
        <g transform="matrix(4.16667,0,0,4.16667,-539,-1758)">
            <g transform="matrix(1,0,0,1,150.277,479.011)">
                <path d="M0,0.001C0.001,0.001 0.001,0 0.001,0L0,0.001Z" style="fill:rgb(23,94,89);fill-rule:nonzero;"/>
            </g>
        </g>
        <g transform="matrix(4.16667,0,0,4.16667,-539,-1758)">
            <g transform="matrix(1,0,0,1,149.847,490.333)">
                <path d="M0,0.001L-0.001,0L0,0.001Z" style="fill:rgb(23,94,89);fill-rule:nonzero;"/>
            </g>
        </g>
        <g transform="matrix(4.16667,0,0,4.16667,-539,-1758)">
            <g transform="matrix(1,0,0,1,165.618,486.408)">
                <path d="M0,-3.113L-0.001,-3.115C-0.121,-3.387 -0.39,-3.563 -0.687,-3.563L-8.399,-3.563L-8.409,-3.563C-8.737,-3.563 -9.069,-3.484 -9.36,-3.303L-9.362,-3.306C-9.367,-3.304 -9.371,-3.299 -9.375,-3.297C-9.379,-3.295 -9.383,-3.294 -9.386,-3.292L-9.385,-3.29C-9.553,-3.19 -9.732,-3.043 -9.853,-2.814L-9.855,-2.811L-9.948,-2.626L-10.604,-1.449L-10.603,-1.451C-10.667,-1.337 -10.699,-1.209 -10.699,-1.084C-10.699,-0.904 -10.634,-0.726 -10.51,-0.586L-10.508,-0.584C-10.362,-0.421 -10.156,-0.334 -9.949,-0.334C-9.853,-0.334 -9.756,-0.353 -9.665,-0.39L-9.663,-0.391C-9.478,-0.467 -9.289,-0.525 -9.095,-0.567C-8.979,-0.592 -8.892,-0.61 -8.83,-0.622L-8.784,-0.631C-8.76,-0.634 -8.688,-0.639 -8.591,-0.639L-4.013,-0.639L-4.014,0.876L-4.014,0.871C-4.02,1.212 -4.101,1.454 -4.289,1.697C-4.478,1.938 -4.802,2.181 -5.311,2.408C-6.156,2.774 -7.262,2.977 -8.629,2.976C-10.471,2.975 -11.9,2.589 -12.976,1.874C-13.585,1.466 -14.013,0.999 -14.301,0.447C-14.588,-0.106 -14.737,-0.757 -14.741,-1.546C-14.726,-2.897 -14.246,-3.876 -13.155,-4.75C-12.067,-5.601 -10.609,-6.056 -8.679,-6.058C-7.577,-6.057 -6.492,-5.94 -5.421,-5.707C-4.466,-5.5 -3.61,-5.228 -2.851,-4.892L-2.755,-4.849L-2.226,-4.849L-1.941,-5.162L-1.87,-5.239L-1.119,-7.477L-1.172,-7.822L-1.21,-8.076L-1.641,-8.296L-1.748,-8.351L-2.712,-8.351C-3.727,-8.506 -4.753,-8.659 -5.788,-8.81C-6.866,-8.967 -7.828,-9.047 -8.679,-9.047L-8.686,-9.047C-11.352,-9.047 -13.586,-8.517 -15.341,-7.396C-17.395,-6.105 -18.488,-4.057 -18.477,-1.57L-18.477,-1.527C-18.485,0.684 -17.542,2.581 -15.771,3.926C-13.995,5.29 -11.636,5.934 -8.778,5.934L-8.768,5.934C-7.614,5.934 -6.531,5.843 -5.518,5.661C-5.068,5.579 -4.402,5.413 -3.477,5.156C-2.917,4.999 -2.491,4.93 -2.314,4.932L-2.312,4.932C-2.106,4.934 -1.97,4.963 -1.888,4.997L-1.723,5.119L-1.725,5.116C-1.579,5.308 -1.356,5.412 -1.128,5.412L-0.889,5.373L-0.888,5.373C-0.582,5.269 -0.379,4.985 -0.378,4.663L-0.378,-2.052C-0.298,-2.134 -0.218,-2.217 -0.139,-2.302L-0.136,-2.304C-0.007,-2.445 0.062,-2.628 0.062,-2.813C0.062,-2.914 0.042,-3.016 0.001,-3.111L0,-3.113Z" style="fill:rgb(23,94,89);fill-rule:nonzero;"/>
            </g>
        </g>
        <g transform="matrix(4.16667,0,0,4.16667,-539,-1758)">
            <g transform="matrix(1,0,0,1,216.526,497.565)">
                <path d="M0,0.039L-1.751,0.039L-0.884,-1.531L0,0.039ZM5.853,3.623C5.825,3.479 5.753,3.344 5.65,3.24C5.504,3.093 5.377,2.958 5.268,2.834L5.267,2.832C5.154,2.703 5.039,2.565 4.924,2.421C4.747,2.193 4.642,2.058 4.59,1.993C4.509,1.877 4.423,1.745 4.339,1.603L1.18,-4.048L1.241,-4.193C1.28,-4.287 1.298,-4.385 1.298,-4.482C1.298,-4.709 1.195,-4.93 1.006,-5.076L0.861,-5.187C0.73,-5.289 0.57,-5.343 0.404,-5.343L-2.288,-5.343C-2.452,-5.343 -2.612,-5.289 -2.742,-5.19L-2.887,-5.079C-3.078,-4.934 -3.183,-4.712 -3.183,-4.483C-3.183,-4.388 -3.165,-4.292 -3.128,-4.199L-3.059,-4.03L-3.05,-4.013L-2.953,-3.867L-5.937,1.496L-5.938,1.497L-5.944,1.508L-5.944,1.509C-6.034,1.678 -6.133,1.843 -6.243,2.009C-6.356,2.178 -6.476,2.344 -6.603,2.505C-6.793,2.744 -7.014,2.986 -7.264,3.229C-7.371,3.333 -7.444,3.465 -7.475,3.612L-7.491,3.687L-7.491,-4.252C-7.491,-4.454 -7.469,-4.623 -7.432,-4.761C-7.399,-4.887 -7.334,-5.04 -7.228,-5.209L-7.227,-5.211C-7.139,-5.352 -7.018,-5.487 -6.841,-5.623L-6.715,-5.72L-6.68,-5.77L-6.616,-5.978L-6.511,-6.321L-6.548,-6.431L-6.886,-6.675L-7.017,-6.77L-7.075,-6.789L-11.061,-6.789L-11.116,-6.772L-11.287,-6.659L-11.561,-6.479L-11.604,-6.378L-11.539,-6.002L-11.514,-5.856L-11.489,-5.805L-11.388,-5.696C-11.281,-5.581 -11.172,-5.465 -11.063,-5.349L-10.885,-5.112C-10.719,-4.817 -10.639,-4.514 -10.638,-4.15L-10.638,-2.018L-17.61,-2.018L-17.61,-3.747L-17.61,-3.752C-17.61,-4.082 -17.59,-4.347 -17.559,-4.532C-17.532,-4.69 -17.474,-4.853 -17.373,-5.03L-17.373,-5.031L-17.372,-5.032L-17.37,-5.035L-17.37,-5.036C-17.295,-5.17 -17.221,-5.276 -17.15,-5.355C-17.075,-5.441 -16.978,-5.531 -16.858,-5.624L-16.732,-5.721L-16.698,-5.771L-16.635,-5.978L-16.529,-6.321L-16.566,-6.431L-16.904,-6.675L-17.035,-6.77L-17.094,-6.789L-21.525,-6.789L-21.585,-6.769L-21.764,-6.637L-22.06,-6.42L-22.096,-6.307L-21.958,-5.904L-21.905,-5.749L-21.868,-5.7L-21.734,-5.606C-21.539,-5.47 -21.4,-5.35 -21.33,-5.272L-21.328,-5.27C-21.264,-5.2 -21.189,-5.09 -21.117,-4.936L-21.114,-4.929L-21.114,-4.928C-21.001,-4.695 -20.916,-4.474 -20.857,-4.269C-20.806,-4.092 -20.777,-3.882 -20.777,-3.638L-20.777,4.169C-20.777,4.4 -20.792,4.58 -20.811,4.676L-20.811,4.678C-20.825,4.756 -20.868,4.887 -20.947,5.046C-21.085,5.307 -21.249,5.477 -21.484,5.614L-21.483,5.614L-21.632,5.699L-21.675,5.747L-21.763,5.962L-21.91,6.316L-21.879,6.434L-21.526,6.704L-21.391,6.808L-21.331,6.828L-16.924,6.828L-16.862,6.807L-16.679,6.665L-16.383,6.436L-16.351,6.32L-16.511,5.915L-16.572,5.76L-16.613,5.712L-16.754,5.625C-17.005,5.469 -17.186,5.29 -17.328,5.065L-17.329,5.065L-17.329,5.063L-17.33,5.062L-17.331,5.061C-17.41,4.938 -17.471,4.836 -17.513,4.763L-17.559,4.676L-17.565,4.662C-17.577,4.634 -17.611,4.43 -17.61,4.158L-17.61,4.131L-17.61,4.13L-17.61,4.124L-17.61,4.123L-17.61,0.695L-10.589,0.695L-10.588,4.353C-10.59,4.601 -10.658,4.837 -10.834,5.117C-10.912,5.233 -10.992,5.324 -11.068,5.391C-11.144,5.457 -11.248,5.527 -11.383,5.592L-11.543,5.668L-11.59,5.716L-11.693,5.932L-11.863,6.29L-11.835,6.411L-11.477,6.697L-11.34,6.807L-11.278,6.828L-6.805,6.828L-6.744,6.807L-6.561,6.665L-6.264,6.435L-6.232,6.319L-6.393,5.914L-6.456,5.754L-6.498,5.705L-6.646,5.618C-6.878,5.481 -7.052,5.317 -7.194,5.113L-7.195,5.111C-7.415,4.791 -7.49,4.538 -7.491,4.312L-7.491,4.072C-7.453,4.262 -7.362,4.44 -7.195,4.553L-7.056,4.646C-6.932,4.73 -6.786,4.774 -6.637,4.774L-3.863,4.774C-3.703,4.774 -3.549,4.724 -3.42,4.629L-3.277,4.525C-3.081,4.381 -2.971,4.154 -2.971,3.92L-3.009,3.682L-3.066,3.514C-3.115,3.366 -3.211,3.239 -3.337,3.147L-3.336,3.146L-3.404,3.083L-3.332,2.923L-3.253,2.777L1.541,2.777L1.691,3.045L1.71,3.088L1.706,3.107L1.655,3.155L1.656,3.156C1.534,3.247 1.442,3.372 1.394,3.517L1.339,3.685L1.301,3.92C1.301,4.156 1.412,4.385 1.611,4.529L1.754,4.632C1.882,4.724 2.036,4.774 2.194,4.774L5.012,4.774C5.161,4.774 5.306,4.73 5.43,4.647L5.568,4.554C5.778,4.413 5.9,4.179 5.9,3.932L5.886,3.786L5.853,3.623Z" style="fill:rgb(23,94,89);fill-rule:nonzero;"/>
            </g>
        </g>
        <g transform="matrix(4.16667,0,0,4.16667,-539,-1758)">
            <g transform="matrix(1,0,0,1,232.686,502.08)">
                <path d="M0,-9.599L-0.144,-9.707L-0.204,-9.627L-0.144,-9.707C-0.274,-9.806 -0.432,-9.858 -0.595,-9.858L-3.716,-9.858C-3.89,-9.858 -4.058,-9.798 -4.192,-9.688L-4.34,-9.567C-4.518,-9.42 -4.613,-9.205 -4.613,-8.986C-4.613,-8.866 -4.584,-8.744 -4.524,-8.632L-4.434,-8.464L-4.422,-8.446L-4.312,-8.317L-4.35,-8.271L-6.626,-5.597L-8.739,-8.066L-8.739,-8.067L-8.74,-8.068L-8.896,-8.257L-8.91,-8.276L-8.888,-8.309L-8.888,-8.31C-8.787,-8.408 -8.713,-8.53 -8.679,-8.667L-8.639,-8.833L-8.617,-9.012C-8.617,-9.255 -8.735,-9.487 -8.941,-9.629L-9.081,-9.725C-9.207,-9.812 -9.354,-9.858 -9.507,-9.858L-12.902,-9.858C-13.065,-9.858 -13.223,-9.805 -13.353,-9.707L-13.498,-9.597C-13.691,-9.452 -13.797,-9.229 -13.797,-8.999C-13.797,-8.905 -13.779,-8.81 -13.743,-8.719L-13.675,-8.55C-13.614,-8.398 -13.505,-8.27 -13.364,-8.186C-13.185,-8.079 -12.957,-7.942 -12.682,-7.778C-12.513,-7.672 -12.35,-7.549 -12.196,-7.411C-12.106,-7.328 -12.031,-7.255 -11.98,-7.201L-11.973,-7.194L-11.973,-7.193C-11.917,-7.136 -11.845,-7.056 -11.759,-6.956L-8.174,-2.768L-8.174,-2.214C-8.173,-2.075 -8.189,-1.972 -8.199,-1.937L-8.2,-1.935L-8.2,-1.933C-8.207,-1.905 -8.232,-1.838 -8.292,-1.746L-8.293,-1.745C-8.355,-1.646 -8.419,-1.581 -8.42,-1.581L-8.423,-1.578C-8.436,-1.566 -8.519,-1.507 -8.642,-1.447C-8.794,-1.372 -8.916,-1.248 -8.988,-1.095L-9.067,-0.926C-9.116,-0.824 -9.139,-0.715 -9.139,-0.607C-9.139,-0.382 -9.038,-0.163 -8.853,-0.017L-8.706,0.099C-8.574,0.202 -8.41,0.259 -8.242,0.259L-4.981,0.259C-4.815,0.259 -4.655,0.205 -4.523,0.103L-4.379,-0.008C-4.19,-0.153 -4.086,-0.375 -4.086,-0.602C-4.086,-0.699 -4.105,-0.797 -4.144,-0.89L-4.214,-1.059C-4.278,-1.213 -4.39,-1.34 -4.534,-1.422C-4.705,-1.519 -4.827,-1.597 -4.871,-1.628L-4.964,-1.719L-5.04,-1.886C-5.05,-1.93 -5.065,-2.045 -5.064,-2.198L-5.064,-2.206L-5.064,-2.787L-1.983,-6.465C-1.821,-6.652 -1.638,-6.856 -1.436,-7.072C-1.265,-7.25 -1.085,-7.434 -0.893,-7.623C-0.804,-7.71 -0.686,-7.808 -0.544,-7.912C-0.446,-7.982 -0.303,-8.079 -0.118,-8.195C0.021,-8.281 0.127,-8.411 0.185,-8.563L0.25,-8.732L0.299,-9C0.299,-9.231 0.193,-9.454 0,-9.599" style="fill:rgb(23,94,89);fill-rule:nonzero;"/>
            </g>
        </g>
        <g transform="matrix(4.16667,0,0,4.16667,-539,-1758)">
            <g transform="matrix(1,0,0,1,209.035,493.918)">
                <path d="M0,7.333L0,-0.606C0,-0.808 0.022,-0.977 0.059,-1.115C0.092,-1.241 0.157,-1.393 0.263,-1.562L0.264,-1.564C0.352,-1.706 0.473,-1.841 0.649,-1.976L0.776,-2.073L0.811,-2.123L0.875,-2.332L0.98,-2.674L0.943,-2.785L0.605,-3.029L0.474,-3.123L0.416,-3.142L-3.57,-3.142L-3.625,-3.126L-3.797,-3.013L-4.07,-2.833L-4.113,-2.732L-4.048,-2.356L-4.023,-2.21L-3.998,-2.159L-3.897,-2.05C-3.79,-1.935 -3.681,-1.819 -3.572,-1.703L-3.394,-1.465C-3.228,-1.17 -3.149,-0.867 -3.147,-0.504L-3.147,1.628L-10.119,1.628L-10.119,-0.1L-10.119,-0.105C-10.119,-0.435 -10.099,-0.7 -10.068,-0.886C-10.041,-1.044 -9.983,-1.206 -9.882,-1.384L-9.882,-1.385L-9.881,-1.385L-9.88,-1.389L-9.879,-1.389C-9.804,-1.524 -9.73,-1.63 -9.659,-1.709C-9.584,-1.794 -9.487,-1.885 -9.367,-1.978L-9.242,-2.075L-9.207,-2.125L-9.144,-2.332L-9.038,-2.674L-9.076,-2.785L-9.413,-3.029L-9.544,-3.123L-9.603,-3.142L-14.034,-3.142L-14.094,-3.123L-14.274,-2.99L-14.569,-2.773L-14.605,-2.66L-14.467,-2.257L-14.414,-2.103L-14.377,-2.053L-14.243,-1.96L-14.243,-1.959C-14.048,-1.824 -13.909,-1.703 -13.839,-1.625L-13.837,-1.623C-13.773,-1.554 -13.698,-1.444 -13.626,-1.29L-13.625,-1.286L-13.623,-1.282C-13.51,-1.048 -13.425,-0.828 -13.366,-0.623C-13.315,-0.446 -13.286,-0.235 -13.286,0.009L-13.286,7.816C-13.286,8.047 -13.301,8.227 -13.32,8.323L-13.32,8.325C-13.334,8.402 -13.377,8.533 -13.456,8.692C-13.594,8.954 -13.758,9.124 -13.993,9.261L-13.992,9.26L-14.141,9.345L-14.184,9.394L-14.273,9.608L-14.419,9.963L-14.388,10.08L-14.035,10.351L-13.901,10.454L-13.84,10.475L-9.433,10.475L-9.371,10.454L-9.188,10.312L-8.892,10.082L-8.86,9.966L-9.02,9.562L-9.081,9.407L-9.122,9.358L-9.264,9.271C-9.514,9.116 -9.695,8.936 -9.837,8.711L-9.838,8.711L-9.838,8.71L-9.84,8.708C-9.919,8.584 -9.98,8.483 -10.022,8.409L-10.068,8.323L-10.074,8.308C-10.086,8.281 -10.12,8.077 -10.119,7.804L-10.119,7.777L-10.119,7.776L-10.119,7.77L-10.119,7.769L-10.119,4.341L-3.098,4.341L-3.097,7.999C-3.099,8.248 -3.167,8.484 -3.343,8.764C-3.421,8.88 -3.501,8.971 -3.577,9.037C-3.653,9.104 -3.758,9.174 -3.893,9.238L-4.052,9.315L-4.099,9.362L-4.202,9.579L-4.372,9.936L-4.344,10.057L-3.986,10.343L-3.849,10.453L-3.787,10.475L0.686,10.475L0.747,10.454L0.93,10.312L1.227,10.082L1.259,9.966L1.098,9.56L1.035,9.401L0.992,9.351L0.845,9.264C0.613,9.127 0.438,8.964 0.297,8.76L0.296,8.758C0.076,8.437 0.001,8.185 0,7.959L0,7.719L0,7.333Z" style="fill:rgb(23,94,89);fill-rule:nonzero;stroke:rgb(23,94,89);stroke-width:0.2px;"/>
            </g>
        </g>
        <g transform="matrix(4.16667,0,0,4.16667,-539,-1758)">
            <g transform="matrix(0,-14.5344,-14.5344,-0,195.96,492.11)">
                <path d="M0.97,2.685C0.97,2.863 0.935,3.008 0.863,3.119C0.781,3.248 0.659,3.314 0.5,3.314L0.499,3.314L0.499,3.314L0.497,3.314C0.358,3.314 0.243,3.257 0.158,3.146C0.072,3.033 0.029,2.882 0.029,2.691L0.029,2.691C0.029,2.614 0.035,2.542 0.047,2.475C0.052,2.447 0.063,2.402 0.081,2.339C0.092,2.298 0.098,2.267 0.098,2.247L0.098,2.246L0.098,2.246L0.098,2.246L0.098,2.246C0.097,2.21 0.087,2.186 0.067,2.171L0.067,2.171L0.065,2.165L0.065,2.163L0.071,2.158L0.539,2.158L0.54,2.158L0.549,2.156L0.55,2.156L0.56,2.15L0.561,2.149C0.568,2.143 0.574,2.136 0.581,2.13L0.586,2.128L0.589,2.129L0.593,2.135L0.593,2.666C0.593,2.683 0.589,2.697 0.581,2.709L0.581,2.709L0.581,2.71C0.577,2.717 0.572,2.722 0.565,2.726L0.552,2.733L0.47,2.778L0.467,2.779L0.462,2.777L0.46,2.772L0.461,2.769L0.461,2.77C0.467,2.754 0.472,2.739 0.475,2.723L0.478,2.709L0.48,2.71L0.48,2.697L0.48,2.696C0.481,2.692 0.481,2.686 0.481,2.679L0.481,2.319L0.332,2.319C0.268,2.319 0.22,2.357 0.186,2.435L0.186,2.435C0.157,2.501 0.143,2.583 0.143,2.681C0.143,2.814 0.171,2.922 0.226,3.005C0.289,3.1 0.379,3.146 0.499,3.147C0.603,3.146 0.688,3.105 0.754,3.02C0.82,2.936 0.854,2.824 0.854,2.685C0.854,2.606 0.845,2.528 0.829,2.451C0.814,2.384 0.795,2.323 0.771,2.268L0.771,2.261L0.776,2.256L0.911,2.211L0.919,2.212L0.922,2.219L0.922,2.278L0.922,2.278C0.933,2.349 0.944,2.42 0.954,2.492C0.965,2.565 0.97,2.629 0.97,2.685L0.97,2.685ZM0.831,-1.339C0.831,-1.224 0.802,-1.129 0.745,-1.057C0.688,-0.987 0.615,-0.951 0.526,-0.951C0.438,-0.951 0.365,-0.986 0.312,-1.054C0.256,-1.125 0.229,-1.219 0.229,-1.336C0.229,-1.449 0.257,-1.542 0.315,-1.613C0.371,-1.682 0.444,-1.718 0.532,-1.718C0.619,-1.718 0.692,-1.683 0.746,-1.616C0.803,-1.546 0.831,-1.453 0.831,-1.34C0.831,-1.339 0.831,-1.339 0.831,-1.339ZM0.379,-1.139C0.419,-1.096 0.47,-1.075 0.535,-1.074C0.596,-1.075 0.645,-1.097 0.684,-1.143C0.725,-1.191 0.745,-1.255 0.745,-1.336C0.745,-1.418 0.724,-1.481 0.683,-1.528C0.644,-1.573 0.595,-1.595 0.533,-1.595C0.47,-1.595 0.42,-1.573 0.379,-1.528L0.371,-1.535L0.379,-1.528C0.336,-1.48 0.314,-1.417 0.314,-1.335C0.314,-1.25 0.336,-1.185 0.379,-1.139ZM0.743,-1.908C0.686,-1.836 0.612,-1.799 0.522,-1.799C0.433,-1.799 0.361,-1.829 0.309,-1.889C0.252,-1.953 0.225,-2.045 0.225,-2.163C0.225,-2.197 0.228,-2.227 0.233,-2.254C0.238,-2.28 0.243,-2.305 0.248,-2.328C0.252,-2.351 0.255,-2.374 0.255,-2.399C0.255,-2.402 0.255,-2.407 0.254,-2.414L0.253,-2.428L0.256,-2.436L0.264,-2.439L0.362,-2.439L0.371,-2.435L0.372,-2.425C0.351,-2.375 0.337,-2.333 0.329,-2.301C0.32,-2.261 0.315,-2.217 0.315,-2.169C0.315,-2.087 0.335,-2.024 0.373,-1.979C0.411,-1.934 0.46,-1.913 0.522,-1.913C0.586,-1.913 0.638,-1.94 0.681,-1.996C0.722,-2.05 0.743,-2.117 0.743,-2.198C0.743,-2.224 0.741,-2.25 0.737,-2.274C0.733,-2.293 0.728,-2.314 0.72,-2.337C0.713,-2.36 0.706,-2.382 0.699,-2.403L0.699,-2.411L0.706,-2.417L0.793,-2.44L0.802,-2.438L0.806,-2.43L0.805,-2.421L0.804,-2.41L0.804,-2.403C0.809,-2.375 0.814,-2.346 0.818,-2.318C0.825,-2.274 0.828,-2.23 0.828,-2.185C0.828,-2.073 0.8,-1.98 0.743,-1.908ZM0.822,-3.058L0.816,-3.048L0.805,-3.05L0.796,-3.057L0.792,-3.057C0.784,-3.056 0.777,-3.052 0.77,-3.045C0.768,-3.043 0.761,-3.033 0.751,-3.019L0.521,-2.691L0.731,-2.691C0.74,-2.691 0.747,-2.693 0.753,-2.695C0.759,-2.698 0.767,-2.703 0.775,-2.709C0.782,-2.714 0.787,-2.718 0.791,-2.722L0.803,-2.738L0.814,-2.742L0.822,-2.733L0.822,-2.535L0.814,-2.525L0.803,-2.53C0.794,-2.544 0.784,-2.555 0.771,-2.563C0.754,-2.575 0.736,-2.581 0.717,-2.581L0.339,-2.581C0.33,-2.581 0.322,-2.58 0.315,-2.578C0.308,-2.576 0.301,-2.572 0.292,-2.568C0.284,-2.563 0.277,-2.559 0.272,-2.554C0.266,-2.549 0.261,-2.543 0.255,-2.535L0.243,-2.532L0.236,-2.542L0.236,-2.735L0.243,-2.745L0.255,-2.741C0.263,-2.729 0.272,-2.72 0.281,-2.713C0.292,-2.704 0.302,-2.699 0.311,-2.696C0.318,-2.693 0.329,-2.691 0.341,-2.691L0.409,-2.691L0.539,-2.875L0.332,-3.063C0.314,-3.079 0.304,-3.087 0.303,-3.089L0.288,-3.093L0.283,-3.092C0.277,-3.092 0.273,-3.091 0.269,-3.088L0.255,-3.075L0.243,-3.071L0.236,-3.081L0.236,-3.304L0.243,-3.314L0.255,-3.31C0.262,-3.3 0.269,-3.289 0.276,-3.279C0.284,-3.27 0.291,-3.259 0.299,-3.249C0.315,-3.229 0.33,-3.213 0.342,-3.199C0.356,-3.184 0.372,-3.169 0.389,-3.153L0.601,-2.966L0.705,-3.114C0.718,-3.133 0.729,-3.15 0.738,-3.165C0.744,-3.174 0.754,-3.192 0.769,-3.219L0.802,-3.282L0.814,-3.287L0.822,-3.277L0.822,-3.058ZM0.276,-3.279L0.268,-3.273L0.276,-3.279ZM0.822,-0.162L0.814,-0.152L0.802,-0.157C0.797,-0.167 0.792,-0.174 0.787,-0.18C0.781,-0.186 0.774,-0.192 0.765,-0.198C0.757,-0.204 0.748,-0.207 0.741,-0.209C0.734,-0.212 0.724,-0.213 0.713,-0.213L0.347,-0.213C0.333,-0.213 0.322,-0.211 0.313,-0.209C0.304,-0.207 0.295,-0.202 0.285,-0.195C0.28,-0.192 0.275,-0.187 0.27,-0.18C0.261,-0.168 0.256,-0.162 0.254,-0.161L0.243,-0.158L0.236,-0.168L0.236,-0.361L0.243,-0.371L0.255,-0.367C0.264,-0.355 0.274,-0.345 0.286,-0.338C0.301,-0.33 0.315,-0.326 0.331,-0.326L0.483,-0.326L0.483,-0.453C0.483,-0.474 0.482,-0.492 0.479,-0.508C0.476,-0.524 0.471,-0.542 0.464,-0.562C0.446,-0.608 0.416,-0.65 0.373,-0.686C0.333,-0.72 0.298,-0.735 0.271,-0.735L0.264,-0.733L0.262,-0.735L0.264,-0.732L0.254,-0.722L0.243,-0.72L0.236,-0.729L0.236,-0.904L0.242,-0.913L0.254,-0.912C0.263,-0.903 0.272,-0.894 0.282,-0.885C0.291,-0.876 0.3,-0.869 0.309,-0.863C0.337,-0.844 0.364,-0.826 0.392,-0.807C0.422,-0.786 0.45,-0.761 0.473,-0.734C0.484,-0.722 0.492,-0.71 0.498,-0.7L0.501,-0.693C0.51,-0.738 0.525,-0.775 0.548,-0.805C0.577,-0.842 0.616,-0.862 0.663,-0.861C0.716,-0.862 0.758,-0.834 0.785,-0.782C0.81,-0.736 0.822,-0.678 0.822,-0.607L0.822,-0.162ZM0.738,-0.326L0.738,-0.531C0.738,-0.575 0.737,-0.608 0.734,-0.63C0.73,-0.667 0.722,-0.694 0.712,-0.712C0.699,-0.734 0.683,-0.743 0.658,-0.743C0.635,-0.743 0.618,-0.733 0.602,-0.709C0.59,-0.689 0.581,-0.661 0.575,-0.623C0.571,-0.595 0.569,-0.563 0.569,-0.527L0.569,-0.326L0.738,-0.326ZM0.822,0.094L0.814,0.104L0.803,0.1C0.797,0.091 0.791,0.085 0.786,0.08C0.78,0.074 0.773,0.069 0.764,0.063C0.747,0.054 0.729,0.049 0.71,0.049L0.356,0.049L0.784,0.407L0.795,0.411L0.797,0.411L0.804,0.403L0.815,0.401L0.822,0.411L0.822,0.633L0.814,0.643L0.803,0.639C0.796,0.629 0.79,0.621 0.785,0.616C0.78,0.611 0.773,0.606 0.764,0.6C0.753,0.593 0.743,0.588 0.736,0.586C0.729,0.584 0.718,0.583 0.705,0.583L0.339,0.583C0.329,0.583 0.321,0.584 0.314,0.586C0.307,0.588 0.3,0.592 0.291,0.597C0.283,0.602 0.276,0.607 0.271,0.613C0.269,0.615 0.263,0.622 0.255,0.633L0.243,0.637L0.236,0.627L0.236,0.42L0.244,0.41L0.256,0.416C0.26,0.426 0.265,0.433 0.269,0.438C0.273,0.444 0.279,0.449 0.287,0.455C0.296,0.462 0.305,0.467 0.312,0.469C0.319,0.471 0.329,0.473 0.341,0.473L0.7,0.473L0.268,0.111L0.259,0.107L0.251,0.11L0.241,0.109L0.236,0.101L0.236,-0.063L0.241,-0.071L0.251,-0.072L0.266,-0.065L0.276,-0.062L0.286,-0.061L0.71,-0.061C0.721,-0.061 0.731,-0.062 0.738,-0.064C0.746,-0.066 0.755,-0.069 0.764,-0.074C0.773,-0.079 0.78,-0.085 0.785,-0.089C0.791,-0.094 0.797,-0.102 0.803,-0.111L0.815,-0.115L0.822,-0.105L0.822,0.094ZM0.822,1.38L0.815,1.39L0.803,1.386C0.797,1.377 0.791,1.37 0.787,1.366C0.782,1.362 0.775,1.356 0.765,1.35C0.755,1.344 0.747,1.34 0.741,1.337C0.735,1.335 0.728,1.334 0.719,1.334L0.314,1.334C0.307,1.334 0.301,1.336 0.294,1.339C0.293,1.34 0.288,1.343 0.281,1.349L0.271,1.358C0.268,1.362 0.262,1.369 0.255,1.378L0.243,1.382L0.236,1.372L0.236,0.703L0.244,0.693L0.255,0.698C0.26,0.706 0.263,0.71 0.263,0.71L0.271,0.715L0.271,0.716L0.271,0.715C0.274,0.715 0.285,0.713 0.301,0.708C0.319,0.702 0.335,0.695 0.347,0.688L0.358,0.689L0.362,0.7C0.357,0.716 0.352,0.732 0.348,0.747C0.345,0.757 0.342,0.77 0.339,0.784C0.334,0.808 0.331,0.822 0.33,0.828C0.327,0.848 0.326,0.871 0.326,0.897L0.326,1.223L0.511,1.223L0.511,0.905L0.511,0.894L0.512,0.879L0.516,0.866L0.527,0.851L0.589,0.811L0.601,0.812L0.605,0.822C0.602,0.835 0.6,0.845 0.599,0.851C0.598,0.858 0.596,0.869 0.594,0.885C0.593,0.901 0.592,0.916 0.592,0.932L0.592,1.225L0.732,1.225L0.732,0.939C0.732,0.919 0.731,0.9 0.73,0.883C0.728,0.866 0.726,0.846 0.722,0.821C0.72,0.805 0.717,0.788 0.714,0.771C0.711,0.754 0.707,0.737 0.702,0.718L0.705,0.708L0.716,0.706C0.732,0.712 0.748,0.718 0.764,0.724C0.769,0.725 0.776,0.728 0.787,0.731L0.789,0.731L0.793,0.731L0.807,0.724L0.817,0.725L0.822,0.734L0.822,1.38ZM0.822,2.03L0.814,2.04L0.803,2.036C0.796,2.026 0.79,2.018 0.785,2.013C0.779,2.009 0.771,2.003 0.761,1.997C0.751,1.991 0.742,1.988 0.734,1.986C0.727,1.984 0.717,1.983 0.704,1.983L0.342,1.983C0.332,1.983 0.323,1.984 0.315,1.987C0.307,1.989 0.298,1.993 0.289,1.998C0.282,2.002 0.276,2.007 0.27,2.012C0.265,2.017 0.26,2.023 0.255,2.031L0.244,2.036L0.236,2.026L0.236,1.434L0.243,1.424L0.255,1.428C0.261,1.436 0.265,1.441 0.265,1.441L0.276,1.444C0.282,1.445 0.294,1.441 0.311,1.435C0.319,1.431 0.332,1.426 0.348,1.419L0.359,1.421L0.361,1.431C0.355,1.452 0.349,1.471 0.346,1.489L0.335,1.487L0.345,1.49C0.343,1.501 0.339,1.521 0.334,1.549C0.33,1.568 0.328,1.584 0.327,1.596C0.326,1.609 0.326,1.625 0.326,1.646L0.326,1.872L0.705,1.872C0.718,1.872 0.729,1.871 0.739,1.869C0.748,1.866 0.759,1.862 0.77,1.856C0.781,1.85 0.793,1.84 0.804,1.827L0.815,1.824L0.822,1.833L0.822,2.03Z" style="fill:url(#_Linear3);fill-rule:nonzero;"/>
            </g>
        </g>
        <g transform="matrix(4.16667,0,0,4.16667,-539,-1758)">
            <g transform="matrix(0,-15.5247,-15.5247,-0,213.675,506.485)">
                <path d="M0.973,0.519L0.971,0.522L0.968,0.522C0.96,0.515 0.953,0.508 0.945,0.501C0.938,0.494 0.93,0.488 0.923,0.484C0.898,0.47 0.871,0.463 0.842,0.463L0.666,0.463L0.666,0.989L0.816,0.989C0.839,0.989 0.858,0.988 0.873,0.986C0.888,0.983 0.903,0.978 0.918,0.969C0.928,0.963 0.938,0.957 0.945,0.95C0.953,0.943 0.96,0.935 0.967,0.926L0.971,0.925L0.973,0.928L0.973,1.192L0.971,1.195L0.967,1.194C0.957,1.18 0.948,1.169 0.94,1.162C0.932,1.154 0.922,1.148 0.909,1.142C0.892,1.134 0.876,1.127 0.86,1.123C0.845,1.118 0.828,1.116 0.809,1.116L0.307,1.116C0.29,1.116 0.276,1.117 0.266,1.119C0.256,1.121 0.245,1.125 0.232,1.131C0.209,1.143 0.192,1.16 0.179,1.181L0.176,1.183L0.173,1.179L0.173,0.918L0.176,0.914L0.179,0.916C0.192,0.937 0.208,0.953 0.228,0.965C0.244,0.976 0.256,0.982 0.262,0.984C0.271,0.988 0.287,0.989 0.309,0.989L0.568,0.989L0.568,0.46L0.294,0.46C0.27,0.46 0.247,0.467 0.224,0.482C0.214,0.489 0.205,0.496 0.198,0.504C0.191,0.512 0.185,0.522 0.18,0.533L0.176,0.535L0.173,0.532L0.173,0.266L0.176,0.263L0.179,0.264C0.191,0.284 0.205,0.299 0.223,0.312C0.248,0.329 0.273,0.338 0.297,0.338L0.848,0.338C0.864,0.338 0.878,0.336 0.891,0.332C0.904,0.329 0.917,0.323 0.931,0.315C0.944,0.306 0.956,0.295 0.967,0.281L0.971,0.28L0.973,0.283L0.973,0.519ZM0.87,-0.985L0.863,-0.976L0.852,-0.981C0.848,-0.992 0.844,-0.998 0.842,-0.998C0.84,-1 0.836,-1.002 0.828,-1.003L0.824,-1.003L0.81,-1C0.806,-0.997 0.797,-0.991 0.785,-0.981L0.57,-0.798L0.772,-0.625C0.783,-0.616 0.791,-0.609 0.795,-0.607C0.803,-0.602 0.81,-0.6 0.816,-0.6L0.82,-0.601C0.834,-0.603 0.844,-0.608 0.854,-0.619L0.864,-0.621L0.87,-0.612L0.87,-0.393L0.863,-0.384L0.852,-0.389C0.845,-0.4 0.837,-0.415 0.826,-0.433C0.817,-0.447 0.808,-0.459 0.797,-0.471C0.791,-0.478 0.786,-0.483 0.781,-0.488C0.776,-0.493 0.77,-0.498 0.763,-0.504L0.48,-0.746L0.427,-0.746C0.414,-0.746 0.404,-0.745 0.396,-0.743C0.388,-0.741 0.379,-0.737 0.37,-0.731C0.36,-0.725 0.353,-0.719 0.349,-0.714C0.344,-0.708 0.339,-0.7 0.334,-0.689L0.323,-0.684L0.315,-0.694L0.315,-0.904L0.323,-0.913L0.333,-0.908C0.341,-0.896 0.346,-0.887 0.35,-0.882C0.356,-0.874 0.362,-0.868 0.368,-0.864C0.377,-0.858 0.386,-0.855 0.394,-0.853C0.402,-0.851 0.413,-0.85 0.426,-0.85L0.481,-0.85L0.732,-1.06C0.744,-1.071 0.758,-1.083 0.772,-1.097C0.784,-1.108 0.797,-1.12 0.81,-1.133C0.817,-1.141 0.825,-1.15 0.832,-1.161C0.838,-1.168 0.844,-1.178 0.852,-1.191L0.863,-1.195L0.87,-1.186L0.87,-0.985ZM0.87,-0.036L0.863,-0.027L0.852,-0.031C0.849,-0.037 0.845,-0.041 0.842,-0.043L0.83,-0.047C0.824,-0.047 0.816,-0.045 0.808,-0.04L0.455,0.157C0.442,0.163 0.43,0.17 0.418,0.178C0.406,0.186 0.395,0.195 0.383,0.204C0.366,0.218 0.349,0.233 0.332,0.251L0.321,0.253L0.315,0.244L0.315,0.065L0.322,0.056L0.333,0.06C0.339,0.068 0.345,0.075 0.352,0.079C0.358,0.083 0.365,0.085 0.374,0.085C0.38,0.085 0.385,0.084 0.39,0.082C0.395,0.08 0.402,0.077 0.409,0.074L0.444,0.055L0.444,-0.311L0.401,-0.335C0.392,-0.34 0.384,-0.342 0.377,-0.342L0.371,-0.342C0.355,-0.34 0.343,-0.333 0.333,-0.319L0.322,-0.316L0.315,-0.325L0.315,-0.506L0.321,-0.515L0.332,-0.513C0.342,-0.503 0.351,-0.494 0.36,-0.486L0.36,-0.486C0.369,-0.479 0.379,-0.471 0.389,-0.463C0.405,-0.45 0.415,-0.443 0.418,-0.44C0.427,-0.434 0.436,-0.428 0.447,-0.421L0.828,-0.209L0.838,-0.205C0.845,-0.206 0.848,-0.208 0.852,-0.214L0.863,-0.219L0.87,-0.21L0.87,-0.036ZM0.772,-0.126L0.524,-0.266L0.524,0.011L0.772,-0.126Z" style="fill:url(#_Linear4);fill-rule:nonzero;"/>
            </g>
        </g>
        <g transform="matrix(4.16667,0,0,4.16667,-539,-1758)">
            <g transform="matrix(1,0,0,1,169.979,520.185)">
                <path d="M0,-10.757C0.059,-10.757 0.116,-10.752 0.17,-10.74C0.226,-10.729 0.271,-10.704 0.308,-10.666C0.345,-10.628 0.365,-10.579 0.369,-10.519C0.372,-10.457 0.345,-10.397 0.286,-10.336C0.25,-10.276 0.204,-10.224 0.148,-10.183C0.094,-10.141 0.033,-10.12 -0.033,-10.12C-0.238,-10.12 -0.441,-10.055 -0.643,-9.926C-0.845,-9.797 -1.036,-9.625 -1.215,-9.408C-1.395,-9.193 -1.558,-8.942 -1.705,-8.657C-1.851,-8.372 -1.972,-8.067 -2.067,-7.74C-2.097,-7.657 -2.071,-7.623 -1.99,-7.638C-1.565,-7.684 -1.226,-7.736 -0.973,-7.792C-0.72,-7.849 -0.48,-7.907 -0.253,-7.969C-0.128,-8.006 -0.068,-7.997 -0.071,-7.94C-0.075,-7.883 -0.117,-7.828 -0.198,-7.775C-0.352,-7.676 -0.531,-7.589 -0.737,-7.513C-0.942,-7.437 -1.142,-7.371 -1.336,-7.314C-1.53,-7.257 -1.705,-7.209 -1.858,-7.172C-2.012,-7.134 -2.115,-7.111 -2.167,-7.104C-2.218,-7.088 -2.25,-7.069 -2.265,-7.046C-2.28,-7.024 -2.295,-6.986 -2.309,-6.933C-2.324,-6.871 -2.352,-6.77 -2.392,-6.625C-2.432,-6.481 -2.474,-6.323 -2.518,-6.153C-2.562,-5.982 -2.606,-5.81 -2.65,-5.635C-2.694,-5.46 -2.731,-5.317 -2.76,-5.202C-2.965,-4.367 -3.152,-3.687 -3.321,-3.159C-3.49,-2.632 -3.651,-2.182 -3.805,-1.81C-3.886,-1.636 -3.974,-1.457 -4.069,-1.276C-4.164,-1.093 -4.272,-0.92 -4.393,-0.757C-4.514,-0.594 -4.646,-0.449 -4.789,-0.324C-4.932,-0.199 -5.088,-0.107 -5.256,-0.046C-5.337,-0.016 -5.429,0 -5.532,0C-5.634,0 -5.704,-0.019 -5.74,-0.057C-5.813,-0.149 -5.795,-0.266 -5.686,-0.41C-5.59,-0.539 -5.513,-0.628 -5.455,-0.678C-5.396,-0.727 -5.337,-0.759 -5.279,-0.775C-4.971,-0.881 -4.707,-1.125 -4.487,-1.508C-4.267,-1.892 -4.047,-2.451 -3.827,-3.188C-3.791,-3.324 -3.733,-3.54 -3.656,-3.836C-3.58,-4.132 -3.497,-4.46 -3.409,-4.82C-3.321,-5.181 -3.233,-5.55 -3.145,-5.925C-3.057,-6.301 -2.984,-6.637 -2.925,-6.933C-2.911,-6.993 -2.911,-7.031 -2.925,-7.046C-2.94,-7.062 -2.965,-7.069 -3.002,-7.069C-3.149,-7.084 -3.248,-7.116 -3.299,-7.166C-3.351,-7.215 -3.376,-7.259 -3.376,-7.297C-3.376,-7.38 -3.325,-7.448 -3.222,-7.502C-3.134,-7.547 -2.999,-7.577 -2.815,-7.593C-2.771,-7.6 -2.734,-7.646 -2.705,-7.73C-2.522,-8.276 -2.313,-8.746 -2.078,-9.141C-1.844,-9.535 -1.554,-9.873 -1.209,-10.154C-0.968,-10.352 -0.74,-10.501 -0.528,-10.604C-0.315,-10.706 -0.143,-10.757 -0.011,-10.757L0,-10.757Z" style="fill:rgb(23,94,89);fill-rule:nonzero;"/>
            </g>
        </g>
        <g transform="matrix(4.16667,0,0,4.16667,-539,-1758)">
            <g transform="matrix(1,0,0,1,169.165,512.922)">
                <path d="M0,2.379C0,2.493 0.027,2.584 0.082,2.652C0.137,2.721 0.204,2.755 0.285,2.755C0.387,2.755 0.496,2.729 0.612,2.675C0.729,2.622 0.849,2.531 0.973,2.402C1.061,2.311 1.155,2.193 1.257,2.049C1.359,1.905 1.45,1.751 1.531,1.588C1.611,1.425 1.678,1.262 1.733,1.099C1.788,0.936 1.815,0.785 1.815,0.65C1.815,0.566 1.809,0.479 1.798,0.388C1.787,0.296 1.768,0.215 1.738,0.143C1.709,0.07 1.667,0.01 1.613,-0.04C1.558,-0.089 1.483,-0.113 1.389,-0.113C1.315,-0.113 1.245,-0.081 1.175,-0.017C1.106,0.048 1.021,0.145 0.918,0.274C0.831,0.38 0.734,0.517 0.628,0.684C0.523,0.851 0.423,1.03 0.328,1.224C0.233,1.417 0.155,1.615 0.093,1.816C0.031,2.017 0,2.201 0,2.368L0,2.379ZM-0.638,2.562C-0.638,2.357 -0.603,2.135 -0.534,1.896C-0.464,1.656 -0.393,1.45 -0.32,1.275C-0.276,1.192 -0.222,1.093 -0.156,0.98C-0.09,0.865 -0.023,0.752 0.047,0.638C0.116,0.524 0.182,0.421 0.244,0.33C0.306,0.239 0.351,0.175 0.38,0.137C0.417,0.076 0.448,0.022 0.474,-0.028C0.499,-0.077 0.512,-0.137 0.512,-0.205C0.519,-0.288 0.536,-0.354 0.561,-0.404C0.586,-0.453 0.621,-0.497 0.665,-0.535C0.724,-0.603 0.815,-0.638 0.939,-0.638C0.997,-0.638 1.043,-0.648 1.076,-0.672C1.108,-0.694 1.143,-0.725 1.18,-0.763C1.252,-0.876 1.358,-0.934 1.497,-0.934C1.606,-0.934 1.681,-0.905 1.722,-0.848C1.762,-0.791 1.782,-0.725 1.782,-0.648L1.782,-0.558C1.782,-0.527 1.8,-0.501 1.837,-0.477C1.972,-0.379 2.097,-0.237 2.213,-0.051C2.329,0.135 2.387,0.388 2.387,0.706C2.387,0.789 2.372,0.89 2.342,1.008C2.312,1.125 2.272,1.252 2.224,1.389C2.176,1.525 2.114,1.662 2.039,1.799C1.964,1.936 1.882,2.061 1.793,2.175C1.494,2.569 1.177,2.858 0.842,3.039C0.506,3.222 0.211,3.313 -0.044,3.313C-0.11,3.313 -0.178,3.292 -0.247,3.25C-0.317,3.208 -0.381,3.153 -0.439,3.085C-0.499,3.017 -0.546,2.94 -0.583,2.852C-0.62,2.765 -0.638,2.672 -0.638,2.573L-0.638,2.562Z" style="fill:rgb(23,94,89);fill-rule:nonzero;"/>
            </g>
        </g>
        <g transform="matrix(4.16667,0,0,4.16667,-539,-1758)">
            <g transform="matrix(1,0,0,1,174.994,516.19)">
                <path d="M0,-4.109C0.117,-4.109 0.204,-4.07 0.258,-3.99C0.313,-3.91 0.333,-3.821 0.319,-3.722C0.304,-3.646 0.277,-3.569 0.236,-3.489C0.196,-3.41 0.154,-3.346 0.11,-3.301C0.022,-3.195 -0.062,-3.176 -0.143,-3.244C-0.18,-3.267 -0.218,-3.29 -0.258,-3.312C-0.299,-3.336 -0.345,-3.346 -0.396,-3.346C-0.477,-3.346 -0.57,-3.292 -0.676,-3.181C-0.783,-3.072 -0.898,-2.941 -1.023,-2.789C-1.331,-2.424 -1.604,-2.022 -1.842,-1.583C-2.081,-1.142 -2.302,-0.687 -2.507,-0.216C-2.581,-0.072 -2.665,0 -2.76,0C-2.863,0 -2.947,-0.053 -3.013,-0.16C-3.079,-0.251 -3.079,-0.383 -3.013,-0.558C-2.962,-0.679 -2.909,-0.855 -2.854,-1.088C-2.799,-1.319 -2.746,-1.561 -2.694,-1.816C-2.643,-2.07 -2.595,-2.316 -2.551,-2.555C-2.507,-2.795 -2.475,-2.982 -2.453,-3.119C-2.423,-3.286 -2.397,-3.408 -2.375,-3.483C-2.354,-3.559 -2.317,-3.624 -2.266,-3.676C-2.222,-3.73 -2.163,-3.793 -2.089,-3.865C-2.016,-3.937 -1.95,-3.973 -1.892,-3.973C-1.811,-3.973 -1.749,-3.929 -1.705,-3.841C-1.661,-3.755 -1.643,-3.676 -1.649,-3.609C-1.649,-3.547 -1.661,-3.495 -1.683,-3.449C-1.705,-3.404 -1.73,-3.358 -1.76,-3.312C-1.796,-3.252 -1.833,-3.169 -1.87,-3.062C-1.906,-2.956 -1.941,-2.842 -1.974,-2.72C-2.007,-2.599 -2.038,-2.48 -2.067,-2.362C-2.097,-2.245 -2.115,-2.147 -2.123,-2.072C-2.145,-1.913 -2.104,-1.905 -2.001,-2.049C-1.928,-2.163 -1.844,-2.288 -1.749,-2.424C-1.653,-2.561 -1.551,-2.702 -1.44,-2.846C-1.331,-2.99 -1.221,-3.13 -1.111,-3.267C-1.001,-3.404 -0.891,-3.525 -0.781,-3.631C-0.634,-3.783 -0.499,-3.901 -0.374,-3.984C-0.25,-4.068 -0.128,-4.109 -0.011,-4.109L0,-4.109Z" style="fill:rgb(23,94,89);fill-rule:nonzero;"/>
            </g>
        </g>
        <g transform="matrix(4.16667,0,0,4.16667,-539,-1758)">
            <g transform="matrix(1,0,0,1,181.153,513.309)">
                <path d="M0,-1.126C0.088,-1.126 0.152,-1.096 0.192,-1.035C0.233,-0.975 0.224,-0.88 0.165,-0.751C0.121,-0.652 0.066,-0.522 0,-0.358C-0.066,-0.194 -0.134,-0.011 -0.204,0.194C-0.273,0.398 -0.343,0.615 -0.412,0.843C-0.482,1.07 -0.542,1.291 -0.594,1.503C-0.63,1.67 -0.652,1.805 -0.66,1.907C-0.667,2.01 -0.664,2.089 -0.649,2.146C-0.634,2.203 -0.614,2.243 -0.588,2.266C-0.562,2.288 -0.532,2.3 -0.495,2.3C-0.399,2.3 -0.286,2.264 -0.154,2.191C-0.022,2.12 0.119,2.026 0.27,1.913C0.42,1.799 0.572,1.67 0.726,1.525C0.88,1.382 1.024,1.239 1.16,1.099C1.296,0.959 1.419,0.826 1.529,0.7C1.639,0.575 1.719,0.475 1.771,0.398C1.814,0.338 1.853,0.308 1.886,0.308C1.919,0.308 1.943,0.327 1.958,0.365C1.987,0.44 1.954,0.559 1.858,0.718C1.734,0.945 1.552,1.192 1.314,1.458C1.076,1.724 0.821,1.97 0.55,2.197C0.279,2.425 0.017,2.615 -0.236,2.767C-0.489,2.918 -0.689,2.994 -0.836,2.994C-0.902,2.994 -0.962,2.972 -1.017,2.926C-1.072,2.881 -1.116,2.803 -1.149,2.692C-1.182,2.583 -1.199,2.433 -1.199,2.243C-1.199,2.054 -1.173,1.814 -1.122,1.525C-1.092,1.382 -1.061,1.235 -1.028,1.088C-0.995,0.939 -0.96,0.797 -0.924,0.661C-0.887,0.524 -0.851,0.398 -0.814,0.285C-0.777,0.171 -0.748,0.076 -0.726,0.001C-0.66,-0.228 -0.726,-0.262 -0.924,-0.102C-1.166,0.088 -1.389,0.283 -1.595,0.484C-1.8,0.686 -1.983,0.877 -2.145,1.06C-2.306,1.241 -2.443,1.408 -2.557,1.56C-2.67,1.712 -2.753,1.833 -2.804,1.924C-2.877,2.054 -2.931,2.163 -2.964,2.254C-2.997,2.346 -3.021,2.429 -3.035,2.505C-3.05,2.634 -3.094,2.734 -3.167,2.807C-3.241,2.879 -3.329,2.915 -3.431,2.915C-3.512,2.915 -3.563,2.839 -3.585,2.687C-3.607,2.535 -3.604,2.368 -3.574,2.187C-3.567,2.118 -3.534,1.968 -3.475,1.736C-3.417,1.505 -3.343,1.231 -3.255,0.917C-3.167,0.602 -3.074,0.268 -2.975,-0.085C-2.876,-0.438 -2.779,-0.762 -2.683,-1.059C-2.603,-1.316 -2.513,-1.578 -2.414,-1.844C-2.315,-2.109 -2.218,-2.359 -2.123,-2.595C-2.027,-2.83 -1.936,-3.041 -1.848,-3.227C-1.759,-3.412 -1.683,-3.559 -1.617,-3.665C-1.521,-3.84 -1.44,-3.959 -1.375,-4.023C-1.309,-4.088 -1.253,-4.12 -1.209,-4.12C-1.129,-4.12 -1.048,-4.06 -0.968,-3.939C-0.924,-3.877 -0.896,-3.816 -0.885,-3.756C-0.874,-3.695 -0.898,-3.623 -0.957,-3.54C-1.177,-3.221 -1.38,-2.853 -1.567,-2.436C-1.754,-2.019 -1.921,-1.601 -2.067,-1.184C-2.214,-0.766 -2.339,-0.375 -2.441,-0.011C-2.544,0.353 -2.625,0.645 -2.683,0.865C-2.698,0.949 -2.696,0.998 -2.678,1.014C-2.66,1.029 -2.625,1.006 -2.573,0.945C-2.507,0.869 -2.403,0.76 -2.26,0.615C-2.117,0.471 -1.959,0.315 -1.787,0.148C-1.615,-0.019 -1.446,-0.18 -1.281,-0.335C-1.116,-0.491 -0.979,-0.614 -0.869,-0.705C-0.7,-0.834 -0.557,-0.937 -0.44,-1.013C-0.323,-1.089 -0.18,-1.126 -0.011,-1.126L0,-1.126Z" style="fill:rgb(23,94,89);fill-rule:nonzero;"/>
            </g>
        </g>
        <g transform="matrix(4.16667,0,0,4.16667,-539,-1758)">
            <g transform="matrix(1,0,0,1,184.386,515.598)">
                <path d="M0,-2.881C-0.081,-2.881 -0.178,-2.829 -0.292,-2.727C-0.405,-2.624 -0.535,-2.483 -0.682,-2.3C-0.946,-1.982 -1.157,-1.65 -1.314,-1.304C-1.472,-0.959 -1.576,-0.684 -1.627,-0.479C-1.665,-0.372 -1.671,-0.281 -1.649,-0.205C-1.627,-0.13 -1.58,-0.092 -1.507,-0.092C-1.462,-0.092 -1.4,-0.12 -1.32,-0.177C-1.239,-0.234 -1.147,-0.312 -1.045,-0.41C-0.95,-0.501 -0.83,-0.64 -0.687,-0.826C-0.544,-1.012 -0.389,-1.219 -0.22,-1.446C-0.191,-1.492 -0.154,-1.555 -0.11,-1.634C-0.066,-1.714 -0.024,-1.793 0.017,-1.873C0.057,-1.953 0.092,-2.023 0.121,-2.084C0.15,-2.145 0.172,-2.187 0.187,-2.209C0.209,-2.27 0.227,-2.338 0.242,-2.414C0.257,-2.489 0.257,-2.562 0.242,-2.63C0.227,-2.698 0.204,-2.757 0.17,-2.807C0.138,-2.856 0.084,-2.881 0.011,-2.881L0,-2.881ZM0.308,-3.495C0.367,-3.495 0.419,-3.469 0.467,-3.415C0.515,-3.362 0.557,-3.314 0.594,-3.268C0.608,-3.214 0.642,-3.207 0.693,-3.245C0.766,-3.298 0.836,-3.302 0.902,-3.256C0.982,-3.203 1.026,-3.15 1.034,-3.097C1.041,-3.044 1.03,-2.986 1.001,-2.926C0.832,-2.547 0.7,-2.19 0.605,-1.857C0.51,-1.523 0.462,-1.192 0.462,-0.865C0.462,-0.615 0.484,-0.404 0.528,-0.234C0.572,-0.064 0.66,0.022 0.792,0.022C0.909,0.022 1.046,-0.036 1.204,-0.154C1.362,-0.272 1.523,-0.418 1.688,-0.593C1.853,-0.767 2.014,-0.955 2.172,-1.156C2.33,-1.357 2.471,-1.545 2.595,-1.72C2.64,-1.773 2.68,-1.799 2.716,-1.799C2.753,-1.799 2.779,-1.78 2.793,-1.742C2.808,-1.704 2.806,-1.653 2.788,-1.589C2.77,-1.525 2.742,-1.45 2.706,-1.366C2.603,-1.162 2.461,-0.942 2.282,-0.706C2.102,-0.471 1.91,-0.257 1.705,-0.064C1.5,0.131 1.294,0.292 1.089,0.421C0.883,0.55 0.711,0.614 0.572,0.614C0.44,0.614 0.308,0.536 0.176,0.381C0.044,0.225 -0.033,0.03 -0.055,-0.205C-0.07,-0.327 -0.079,-0.458 -0.083,-0.599C-0.086,-0.738 -0.088,-0.839 -0.088,-0.9C-0.088,-0.968 -0.117,-0.972 -0.176,-0.911C-0.213,-0.859 -0.275,-0.778 -0.363,-0.672C-0.451,-0.566 -0.548,-0.454 -0.654,-0.336C-0.761,-0.219 -0.867,-0.105 -0.973,0.005C-1.08,0.115 -1.169,0.204 -1.243,0.272C-1.492,0.5 -1.705,0.614 -1.88,0.614C-1.902,0.614 -1.939,0.604 -1.991,0.586C-2.042,0.566 -2.093,0.536 -2.145,0.495C-2.196,0.453 -2.242,0.396 -2.282,0.324C-2.322,0.252 -2.342,0.163 -2.342,0.057C-2.342,-0.042 -2.317,-0.189 -2.266,-0.382C-2.214,-0.575 -2.101,-0.843 -1.924,-1.185C-1.778,-1.481 -1.585,-1.799 -1.347,-2.141C-1.109,-2.483 -0.854,-2.775 -0.583,-3.018C-0.355,-3.23 -0.167,-3.362 -0.017,-3.415C0.134,-3.469 0.238,-3.495 0.297,-3.495L0.308,-3.495Z" style="fill:rgb(23,94,89);fill-rule:nonzero;"/>
            </g>
        </g>
        <g transform="matrix(4.16667,0,0,4.16667,-539,-1758)">
            <g transform="matrix(1,0,0,1,188.675,516.371)">
                <path d="M0,-4.234C0.161,-4.234 0.29,-4.208 0.385,-4.155C0.502,-4.079 0.561,-3.995 0.561,-3.904C0.561,-3.836 0.528,-3.785 0.462,-3.751C0.396,-3.716 0.315,-3.699 0.22,-3.699C0.066,-3.699 -0.092,-3.669 -0.253,-3.608C-0.415,-3.547 -0.561,-3.471 -0.693,-3.38C-0.825,-3.29 -0.933,-3.185 -1.018,-3.067C-1.102,-2.95 -1.144,-2.834 -1.144,-2.72C-1.144,-2.606 -1.12,-2.496 -1.071,-2.39C-1.023,-2.284 -0.954,-2.166 -0.864,-2.037C-0.753,-1.878 -0.656,-1.711 -0.574,-1.537C-0.492,-1.362 -0.451,-1.206 -0.451,-1.07C-0.451,-0.963 -0.479,-0.859 -0.535,-0.756C-0.591,-0.654 -0.657,-0.573 -0.731,-0.511C-0.813,-0.444 -0.929,-0.368 -1.076,-0.284C-1.224,-0.201 -1.356,-0.136 -1.474,-0.09C-1.613,-0.03 -1.738,0 -1.848,0C-1.928,0 -2.018,-0.024 -2.117,-0.074C-2.216,-0.123 -2.273,-0.193 -2.288,-0.284C-2.28,-0.322 -2.27,-0.358 -2.254,-0.392C-2.24,-0.426 -2.214,-0.463 -2.178,-0.501C-2.053,-0.63 -1.943,-0.716 -1.848,-0.762C-1.76,-0.793 -1.687,-0.789 -1.628,-0.751C-1.577,-0.728 -1.525,-0.711 -1.474,-0.7C-1.422,-0.688 -1.36,-0.69 -1.287,-0.706C-1.228,-0.72 -1.169,-0.751 -1.111,-0.796C-1.052,-0.841 -1.023,-0.895 -1.023,-0.956C-1.023,-1.032 -1.043,-1.119 -1.083,-1.217C-1.122,-1.316 -1.171,-1.411 -1.229,-1.503C-1.301,-1.616 -1.373,-1.734 -1.445,-1.855C-1.517,-1.976 -1.571,-2.079 -1.607,-2.163C-1.68,-2.314 -1.716,-2.465 -1.716,-2.618C-1.716,-2.823 -1.647,-3.031 -1.51,-3.244C-1.373,-3.456 -1.222,-3.638 -1.056,-3.791C-0.909,-3.92 -0.739,-4.025 -0.544,-4.109C-0.35,-4.192 -0.172,-4.234 -0.011,-4.234L0,-4.234Z" style="fill:rgb(23,94,89);fill-rule:nonzero;"/>
            </g>
        </g>
        <g transform="matrix(4.16667,0,0,4.16667,-539,-1758)">
            <g transform="matrix(1,0,0,1,191.249,516.371)">
                <path d="M0,-4.234C0.161,-4.234 0.29,-4.208 0.385,-4.155C0.502,-4.079 0.561,-3.995 0.561,-3.904C0.561,-3.836 0.528,-3.785 0.462,-3.751C0.396,-3.716 0.315,-3.699 0.22,-3.699C0.066,-3.699 -0.092,-3.669 -0.253,-3.608C-0.415,-3.547 -0.561,-3.471 -0.693,-3.38C-0.825,-3.29 -0.933,-3.185 -1.018,-3.067C-1.102,-2.95 -1.144,-2.834 -1.144,-2.72C-1.144,-2.606 -1.12,-2.496 -1.071,-2.39C-1.023,-2.284 -0.954,-2.166 -0.864,-2.037C-0.753,-1.878 -0.656,-1.711 -0.574,-1.537C-0.492,-1.362 -0.451,-1.206 -0.451,-1.07C-0.451,-0.963 -0.479,-0.859 -0.535,-0.756C-0.591,-0.654 -0.657,-0.573 -0.731,-0.511C-0.813,-0.444 -0.929,-0.368 -1.076,-0.284C-1.224,-0.201 -1.356,-0.136 -1.474,-0.09C-1.613,-0.03 -1.738,0 -1.848,0C-1.928,0 -2.018,-0.024 -2.117,-0.074C-2.216,-0.123 -2.273,-0.193 -2.288,-0.284C-2.28,-0.322 -2.27,-0.358 -2.254,-0.392C-2.24,-0.426 -2.214,-0.463 -2.178,-0.501C-2.053,-0.63 -1.943,-0.716 -1.848,-0.762C-1.76,-0.793 -1.687,-0.789 -1.628,-0.751C-1.577,-0.728 -1.525,-0.711 -1.474,-0.7C-1.422,-0.688 -1.36,-0.69 -1.287,-0.706C-1.228,-0.72 -1.169,-0.751 -1.111,-0.796C-1.052,-0.841 -1.023,-0.895 -1.023,-0.956C-1.023,-1.032 -1.043,-1.119 -1.083,-1.217C-1.122,-1.316 -1.171,-1.411 -1.229,-1.503C-1.301,-1.616 -1.373,-1.734 -1.445,-1.855C-1.517,-1.976 -1.571,-2.079 -1.607,-2.163C-1.68,-2.314 -1.716,-2.465 -1.716,-2.618C-1.716,-2.823 -1.647,-3.031 -1.51,-3.244C-1.373,-3.456 -1.222,-3.638 -1.056,-3.791C-0.909,-3.92 -0.739,-4.025 -0.544,-4.109C-0.35,-4.192 -0.172,-4.234 -0.011,-4.234L0,-4.234Z" style="fill:rgb(23,94,89);fill-rule:nonzero;"/>
            </g>
        </g>
        <g transform="matrix(4.16667,0,0,4.16667,-539,-1758)">
            <g transform="matrix(1,0,0,1,191.722,510.088)">
                <path d="M0,5.384C0,5.263 0.059,4.939 0.176,4.411C0.293,3.884 0.524,3.184 0.869,2.311C1.067,1.802 1.241,1.371 1.391,1.019C1.542,0.666 1.67,0.374 1.776,0.142C1.882,-0.09 1.968,-0.265 2.035,-0.387C2.101,-0.509 2.152,-0.592 2.188,-0.637C2.24,-0.706 2.298,-0.74 2.364,-0.74C2.43,-0.74 2.481,-0.718 2.519,-0.672C2.621,-0.551 2.663,-0.432 2.645,-0.319C2.626,-0.205 2.577,-0.076 2.497,0.069C2.254,0.539 2.035,1 1.836,1.451C1.639,1.903 1.464,2.327 1.314,2.726C1.164,3.124 1.036,3.486 0.929,3.808C0.823,4.13 0.744,4.398 0.693,4.611C0.642,4.8 0.61,4.953 0.599,5.072C0.588,5.189 0.59,5.279 0.605,5.339C0.62,5.4 0.642,5.442 0.671,5.464C0.7,5.487 0.733,5.498 0.77,5.498C0.865,5.498 1.015,5.432 1.221,5.299C1.426,5.166 1.642,5.007 1.87,4.821C2.097,4.635 2.316,4.442 2.529,4.24C2.742,4.039 2.903,3.866 3.013,3.722C3.101,3.616 3.164,3.609 3.2,3.699C3.229,3.783 3.2,3.893 3.112,4.03C2.995,4.204 2.823,4.411 2.595,4.65C2.368,4.889 2.123,5.116 1.858,5.333C1.595,5.549 1.331,5.736 1.067,5.891C0.803,6.046 0.575,6.124 0.385,6.124C0.268,6.124 0.174,6.054 0.104,5.913C0.035,5.774 0,5.601 0,5.396L0,5.384Z" style="fill:rgb(23,94,89);fill-rule:nonzero;"/>
            </g>
        </g>
        <g transform="matrix(4.16667,0,0,4.16667,-539,-1758)">
            <g transform="matrix(1,0,0,1,195.417,514.278)">
                <path d="M0,-0.251C0.132,-0.251 0.262,-0.275 0.391,-0.325C0.519,-0.374 0.63,-0.442 0.726,-0.53C0.821,-0.617 0.897,-0.714 0.957,-0.82C1.016,-0.927 1.045,-1.036 1.045,-1.15C1.045,-1.287 1.014,-1.392 0.951,-1.464C0.889,-1.535 0.821,-1.571 0.748,-1.571C0.682,-1.571 0.604,-1.529 0.517,-1.446C0.429,-1.362 0.345,-1.259 0.264,-1.134C0.183,-1.008 0.106,-0.875 0.033,-0.735C-0.041,-0.595 -0.099,-0.471 -0.143,-0.365C-0.158,-0.327 -0.158,-0.299 -0.143,-0.279C-0.128,-0.261 -0.084,-0.251 -0.011,-0.251L0,-0.251ZM-1.1,0.921C-1.1,0.701 -1.034,0.407 -0.902,0.039C-0.77,-0.329 -0.598,-0.695 -0.385,-1.06C-0.341,-1.128 -0.273,-1.227 -0.181,-1.355C-0.09,-1.484 0.013,-1.611 0.126,-1.736C0.24,-1.862 0.355,-1.97 0.473,-2.062C0.59,-2.152 0.7,-2.197 0.803,-2.197C0.883,-2.197 0.941,-2.177 0.979,-2.135C1.016,-2.093 1.037,-2.046 1.045,-1.993C1.045,-1.947 1.085,-1.913 1.166,-1.891C1.29,-1.883 1.396,-1.833 1.484,-1.742C1.572,-1.651 1.616,-1.519 1.616,-1.344C1.616,-1.169 1.582,-0.995 1.512,-0.82C1.442,-0.646 1.356,-0.498 1.254,-0.376C1.106,-0.202 0.929,-0.05 0.72,0.079C0.511,0.208 0.268,0.272 -0.011,0.272C-0.099,0.272 -0.183,0.238 -0.264,0.17C-0.286,0.155 -0.304,0.149 -0.319,0.153C-0.333,0.157 -0.348,0.178 -0.363,0.216C-0.392,0.276 -0.421,0.369 -0.451,0.494C-0.48,0.62 -0.495,0.735 -0.495,0.842C-0.495,1.023 -0.451,1.158 -0.363,1.246C-0.275,1.333 -0.158,1.377 -0.011,1.377C0.121,1.377 0.278,1.351 0.462,1.297C0.645,1.244 0.854,1.149 1.089,1.013C1.323,0.876 1.58,0.693 1.858,0.466C2.137,0.238 2.434,-0.054 2.749,-0.41C2.845,-0.517 2.91,-0.524 2.947,-0.434C2.969,-0.342 2.929,-0.225 2.826,-0.08C2.592,0.246 2.337,0.536 2.062,0.79C1.787,1.045 1.512,1.257 1.237,1.428C0.962,1.599 0.692,1.728 0.429,1.815C0.165,1.902 -0.073,1.946 -0.286,1.946C-0.484,1.946 -0.669,1.858 -0.841,1.684C-1.014,1.51 -1.1,1.259 -1.1,0.933L-1.1,0.921Z" style="fill:rgb(23,94,89);fill-rule:nonzero;"/>
            </g>
        </g>
        <g transform="matrix(4.16667,0,0,4.16667,-539,-1758)">
            <g transform="matrix(1,0,0,1,203.687,520.185)">
                <path d="M0,-10.757C0.059,-10.757 0.115,-10.752 0.17,-10.74C0.226,-10.729 0.271,-10.704 0.308,-10.666C0.345,-10.628 0.364,-10.579 0.368,-10.519C0.372,-10.457 0.345,-10.397 0.286,-10.336C0.249,-10.276 0.203,-10.224 0.148,-10.183C0.094,-10.141 0.033,-10.12 -0.033,-10.12C-0.238,-10.12 -0.441,-10.055 -0.644,-9.926C-0.845,-9.797 -1.036,-9.625 -1.215,-9.408C-1.396,-9.193 -1.558,-8.942 -1.705,-8.657C-1.852,-8.372 -1.973,-8.067 -2.067,-7.74C-2.097,-7.657 -2.071,-7.623 -1.99,-7.638C-1.565,-7.684 -1.227,-7.736 -0.974,-7.792C-0.721,-7.849 -0.48,-7.907 -0.253,-7.969C-0.129,-8.006 -0.068,-7.997 -0.071,-7.94C-0.075,-7.883 -0.117,-7.828 -0.198,-7.775C-0.352,-7.676 -0.531,-7.589 -0.737,-7.513C-0.942,-7.437 -1.142,-7.371 -1.336,-7.314C-1.53,-7.257 -1.705,-7.209 -1.858,-7.172C-2.013,-7.134 -2.115,-7.111 -2.167,-7.104C-2.218,-7.088 -2.251,-7.069 -2.266,-7.046C-2.28,-7.024 -2.295,-6.986 -2.31,-6.933C-2.324,-6.871 -2.352,-6.77 -2.392,-6.625C-2.433,-6.481 -2.475,-6.323 -2.519,-6.153C-2.563,-5.982 -2.606,-5.81 -2.65,-5.635C-2.694,-5.46 -2.731,-5.317 -2.761,-5.202C-2.966,-4.367 -3.152,-3.687 -3.321,-3.159C-3.49,-2.632 -3.651,-2.182 -3.806,-1.81C-3.886,-1.636 -3.974,-1.457 -4.069,-1.276C-4.164,-1.093 -4.272,-0.92 -4.394,-0.757C-4.515,-0.594 -4.646,-0.449 -4.789,-0.324C-4.933,-0.199 -5.088,-0.107 -5.257,-0.046C-5.338,-0.016 -5.429,0 -5.532,0C-5.635,0 -5.704,-0.019 -5.74,-0.057C-5.813,-0.149 -5.796,-0.266 -5.686,-0.41C-5.591,-0.539 -5.514,-0.628 -5.455,-0.678C-5.396,-0.727 -5.338,-0.759 -5.279,-0.775C-4.971,-0.881 -4.707,-1.125 -4.487,-1.508C-4.267,-1.892 -4.047,-2.451 -3.827,-3.188C-3.791,-3.324 -3.733,-3.54 -3.656,-3.836C-3.58,-4.132 -3.497,-4.46 -3.409,-4.82C-3.321,-5.181 -3.233,-5.55 -3.146,-5.925C-3.058,-6.301 -2.984,-6.637 -2.926,-6.933C-2.911,-6.993 -2.911,-7.031 -2.926,-7.046C-2.94,-7.062 -2.966,-7.069 -3.002,-7.069C-3.149,-7.084 -3.248,-7.116 -3.299,-7.166C-3.351,-7.215 -3.376,-7.259 -3.376,-7.297C-3.376,-7.38 -3.325,-7.448 -3.223,-7.502C-3.135,-7.547 -2.999,-7.577 -2.815,-7.593C-2.771,-7.6 -2.734,-7.646 -2.705,-7.73C-2.522,-8.276 -2.313,-8.746 -2.078,-9.141C-1.844,-9.535 -1.555,-9.873 -1.21,-10.154C-0.968,-10.352 -0.74,-10.501 -0.528,-10.604C-0.315,-10.706 -0.143,-10.757 -0.011,-10.757L0,-10.757Z" style="fill:rgb(23,94,89);fill-rule:nonzero;"/>
            </g>
        </g>
        <g transform="matrix(4.16667,0,0,4.16667,-539,-1758)">
            <g transform="matrix(1,0,0,1,205.711,516.19)">
                <path d="M0,-4.109C0.117,-4.109 0.204,-4.07 0.259,-3.99C0.313,-3.91 0.334,-3.821 0.319,-3.722C0.305,-3.646 0.277,-3.569 0.236,-3.489C0.196,-3.41 0.154,-3.346 0.11,-3.301C0.022,-3.195 -0.062,-3.176 -0.143,-3.244C-0.18,-3.267 -0.218,-3.29 -0.258,-3.312C-0.299,-3.336 -0.345,-3.346 -0.396,-3.346C-0.477,-3.346 -0.57,-3.292 -0.676,-3.181C-0.782,-3.072 -0.897,-2.941 -1.022,-2.789C-1.33,-2.424 -1.604,-2.022 -1.842,-1.583C-2.08,-1.142 -2.302,-0.687 -2.507,-0.216C-2.58,-0.072 -2.665,0 -2.76,0C-2.863,0 -2.947,-0.053 -3.013,-0.16C-3.079,-0.251 -3.079,-0.383 -3.013,-0.558C-2.962,-0.679 -2.908,-0.855 -2.854,-1.088C-2.799,-1.319 -2.745,-1.561 -2.694,-1.816C-2.643,-2.07 -2.595,-2.316 -2.551,-2.555C-2.507,-2.795 -2.475,-2.982 -2.452,-3.119C-2.423,-3.286 -2.397,-3.408 -2.375,-3.483C-2.354,-3.559 -2.316,-3.624 -2.266,-3.676C-2.222,-3.73 -2.163,-3.793 -2.089,-3.865C-2.016,-3.937 -1.95,-3.973 -1.892,-3.973C-1.811,-3.973 -1.748,-3.929 -1.704,-3.841C-1.66,-3.755 -1.643,-3.676 -1.649,-3.609C-1.649,-3.547 -1.66,-3.495 -1.683,-3.449C-1.704,-3.404 -1.73,-3.358 -1.76,-3.312C-1.796,-3.252 -1.833,-3.169 -1.869,-3.062C-1.906,-2.956 -1.94,-2.842 -1.974,-2.72C-2.007,-2.599 -2.038,-2.48 -2.067,-2.362C-2.097,-2.245 -2.115,-2.147 -2.122,-2.072C-2.145,-1.913 -2.104,-1.905 -2.001,-2.049C-1.928,-2.163 -1.844,-2.288 -1.748,-2.424C-1.653,-2.561 -1.551,-2.702 -1.44,-2.846C-1.33,-2.99 -1.221,-3.13 -1.11,-3.267C-1.001,-3.404 -0.891,-3.525 -0.78,-3.631C-0.634,-3.783 -0.498,-3.901 -0.374,-3.984C-0.249,-4.068 -0.128,-4.109 -0.011,-4.109L0,-4.109Z" style="fill:rgb(23,94,89);fill-rule:nonzero;"/>
            </g>
        </g>
        <g transform="matrix(4.16667,0,0,4.16667,-539,-1758)">
            <g transform="matrix(1,0,0,1,206.91,514.278)">
                <path d="M0,-0.251C0.132,-0.251 0.263,-0.275 0.391,-0.325C0.519,-0.374 0.631,-0.442 0.727,-0.53C0.821,-0.617 0.898,-0.714 0.957,-0.82C1.016,-0.927 1.045,-1.036 1.045,-1.15C1.045,-1.287 1.014,-1.392 0.951,-1.464C0.89,-1.535 0.821,-1.571 0.748,-1.571C0.683,-1.571 0.605,-1.529 0.518,-1.446C0.43,-1.362 0.345,-1.259 0.265,-1.134C0.184,-1.008 0.106,-0.875 0.033,-0.735C-0.04,-0.595 -0.099,-0.471 -0.143,-0.365C-0.157,-0.327 -0.157,-0.299 -0.143,-0.279C-0.128,-0.261 -0.084,-0.251 -0.011,-0.251L0,-0.251ZM-1.1,0.921C-1.1,0.701 -1.033,0.407 -0.901,0.039C-0.77,-0.329 -0.598,-0.695 -0.385,-1.06C-0.341,-1.128 -0.272,-1.227 -0.181,-1.355C-0.09,-1.484 0.013,-1.611 0.127,-1.736C0.24,-1.862 0.355,-1.97 0.474,-2.062C0.591,-2.152 0.7,-2.197 0.803,-2.197C0.884,-2.197 0.942,-2.177 0.979,-2.135C1.016,-2.093 1.038,-2.046 1.045,-1.993C1.045,-1.947 1.085,-1.913 1.166,-1.891C1.291,-1.883 1.397,-1.833 1.485,-1.742C1.573,-1.651 1.617,-1.519 1.617,-1.344C1.617,-1.169 1.582,-0.995 1.513,-0.82C1.442,-0.646 1.356,-0.498 1.254,-0.376C1.107,-0.202 0.93,-0.05 0.721,0.079C0.512,0.208 0.268,0.272 -0.011,0.272C-0.099,0.272 -0.183,0.238 -0.264,0.17C-0.285,0.155 -0.304,0.149 -0.318,0.153C-0.333,0.157 -0.348,0.178 -0.362,0.216C-0.392,0.276 -0.421,0.369 -0.45,0.494C-0.479,0.62 -0.494,0.735 -0.494,0.842C-0.494,1.023 -0.45,1.158 -0.362,1.246C-0.274,1.333 -0.157,1.377 -0.011,1.377C0.121,1.377 0.279,1.351 0.462,1.297C0.646,1.244 0.854,1.149 1.089,1.013C1.323,0.876 1.58,0.693 1.859,0.466C2.138,0.238 2.435,-0.054 2.75,-0.41C2.845,-0.517 2.911,-0.524 2.947,-0.434C2.97,-0.342 2.93,-0.225 2.827,-0.08C2.592,0.246 2.337,0.536 2.063,0.79C1.787,1.045 1.513,1.257 1.237,1.428C0.963,1.599 0.693,1.728 0.43,1.815C0.165,1.902 -0.073,1.946 -0.285,1.946C-0.483,1.946 -0.669,1.858 -0.841,1.684C-1.014,1.51 -1.1,1.259 -1.1,0.933L-1.1,0.921Z" style="fill:rgb(23,94,89);fill-rule:nonzero;"/>
            </g>
        </g>
        <g transform="matrix(4.16667,0,0,4.16667,-539,-1758)">
            <g transform="matrix(1,0,0,1,210.363,514.278)">
                <path d="M0,-0.251C0.132,-0.251 0.263,-0.275 0.391,-0.325C0.519,-0.374 0.631,-0.442 0.727,-0.53C0.821,-0.617 0.898,-0.714 0.957,-0.82C1.016,-0.927 1.045,-1.036 1.045,-1.15C1.045,-1.287 1.014,-1.392 0.951,-1.464C0.89,-1.535 0.821,-1.571 0.748,-1.571C0.683,-1.571 0.605,-1.529 0.518,-1.446C0.43,-1.362 0.345,-1.259 0.265,-1.134C0.184,-1.008 0.106,-0.875 0.033,-0.735C-0.04,-0.595 -0.099,-0.471 -0.143,-0.365C-0.157,-0.327 -0.157,-0.299 -0.143,-0.279C-0.128,-0.261 -0.084,-0.251 -0.011,-0.251L0,-0.251ZM-1.1,0.921C-1.1,0.701 -1.033,0.407 -0.901,0.039C-0.77,-0.329 -0.598,-0.695 -0.385,-1.06C-0.341,-1.128 -0.272,-1.227 -0.181,-1.355C-0.09,-1.484 0.013,-1.611 0.127,-1.736C0.24,-1.862 0.355,-1.97 0.474,-2.062C0.591,-2.152 0.7,-2.197 0.803,-2.197C0.884,-2.197 0.942,-2.177 0.979,-2.135C1.016,-2.093 1.038,-2.046 1.045,-1.993C1.045,-1.947 1.085,-1.913 1.166,-1.891C1.291,-1.883 1.397,-1.833 1.485,-1.742C1.573,-1.651 1.617,-1.519 1.617,-1.344C1.617,-1.169 1.582,-0.995 1.513,-0.82C1.442,-0.646 1.356,-0.498 1.254,-0.376C1.107,-0.202 0.93,-0.05 0.721,0.079C0.512,0.208 0.268,0.272 -0.011,0.272C-0.099,0.272 -0.183,0.238 -0.264,0.17C-0.285,0.155 -0.304,0.149 -0.318,0.153C-0.333,0.157 -0.348,0.178 -0.362,0.216C-0.392,0.276 -0.421,0.369 -0.45,0.494C-0.479,0.62 -0.494,0.735 -0.494,0.842C-0.494,1.023 -0.45,1.158 -0.362,1.246C-0.274,1.333 -0.157,1.377 -0.011,1.377C0.121,1.377 0.279,1.351 0.462,1.297C0.646,1.244 0.854,1.149 1.089,1.013C1.323,0.876 1.58,0.693 1.859,0.466C2.138,0.238 2.435,-0.054 2.75,-0.41C2.845,-0.517 2.911,-0.524 2.947,-0.434C2.97,-0.342 2.93,-0.225 2.827,-0.08C2.592,0.246 2.337,0.536 2.063,0.79C1.787,1.045 1.513,1.257 1.237,1.428C0.963,1.599 0.693,1.728 0.43,1.815C0.165,1.902 -0.073,1.946 -0.285,1.946C-0.483,1.946 -0.669,1.858 -0.841,1.684C-1.014,1.51 -1.1,1.259 -1.1,0.933L-1.1,0.921Z" style="fill:rgb(23,94,89);fill-rule:nonzero;"/>
            </g>
        </g>
        <g transform="matrix(4.16667,0,0,4.16667,-539,-1758)">
            <g transform="matrix(1,0,0,1,218.585,513.309)">
                <path d="M0,-1.126C0.088,-1.126 0.152,-1.096 0.192,-1.035C0.232,-0.975 0.224,-0.88 0.165,-0.751C0.121,-0.652 0.065,-0.522 0,-0.358C-0.066,-0.194 -0.134,-0.011 -0.204,0.194C-0.273,0.398 -0.343,0.615 -0.412,0.843C-0.482,1.07 -0.543,1.291 -0.594,1.503C-0.631,1.67 -0.652,1.805 -0.66,1.907C-0.667,2.01 -0.664,2.089 -0.649,2.146C-0.635,2.203 -0.614,2.243 -0.589,2.266C-0.562,2.288 -0.532,2.3 -0.495,2.3C-0.399,2.3 -0.286,2.264 -0.154,2.191C-0.022,2.12 0.119,2.026 0.27,1.913C0.42,1.799 0.571,1.67 0.726,1.525C0.88,1.382 1.024,1.239 1.16,1.099C1.296,0.959 1.419,0.826 1.528,0.7C1.639,0.575 1.719,0.475 1.771,0.398C1.814,0.338 1.853,0.308 1.886,0.308C1.919,0.308 1.942,0.327 1.957,0.365C1.986,0.44 1.953,0.559 1.858,0.718C1.733,0.945 1.552,1.192 1.314,1.458C1.075,1.724 0.821,1.97 0.55,2.197C0.278,2.425 0.017,2.615 -0.236,2.767C-0.489,2.918 -0.689,2.994 -0.836,2.994C-0.902,2.994 -0.963,2.972 -1.018,2.926C-1.072,2.881 -1.116,2.803 -1.149,2.692C-1.183,2.583 -1.199,2.433 -1.199,2.243C-1.199,2.054 -1.173,1.814 -1.122,1.525C-1.093,1.382 -1.062,1.235 -1.028,1.088C-0.995,0.939 -0.961,0.797 -0.924,0.661C-0.888,0.524 -0.851,0.398 -0.814,0.285C-0.777,0.171 -0.748,0.076 -0.726,0.001C-0.66,-0.228 -0.726,-0.262 -0.924,-0.102C-1.166,0.088 -1.39,0.283 -1.595,0.484C-1.8,0.686 -1.983,0.877 -2.145,1.06C-2.306,1.241 -2.443,1.408 -2.557,1.56C-2.671,1.712 -2.753,1.833 -2.805,1.924C-2.878,2.054 -2.931,2.163 -2.964,2.254C-2.997,2.346 -3.021,2.429 -3.035,2.505C-3.05,2.634 -3.094,2.734 -3.167,2.807C-3.241,2.879 -3.329,2.915 -3.432,2.915C-3.512,2.915 -3.563,2.839 -3.585,2.687C-3.607,2.535 -3.604,2.368 -3.574,2.187C-3.567,2.118 -3.534,1.968 -3.476,1.736C-3.417,1.505 -3.344,1.231 -3.256,0.917C-3.167,0.602 -3.074,0.268 -2.975,-0.085C-2.876,-0.438 -2.779,-0.762 -2.684,-1.059C-2.603,-1.316 -2.513,-1.578 -2.414,-1.844C-2.315,-2.109 -2.218,-2.359 -2.123,-2.595C-2.027,-2.83 -1.936,-3.041 -1.848,-3.227C-1.76,-3.412 -1.683,-3.559 -1.617,-3.665C-1.521,-3.84 -1.44,-3.959 -1.375,-4.023C-1.309,-4.088 -1.254,-4.12 -1.21,-4.12C-1.129,-4.12 -1.049,-4.06 -0.968,-3.939C-0.924,-3.877 -0.896,-3.816 -0.886,-3.756C-0.874,-3.695 -0.898,-3.623 -0.957,-3.54C-1.177,-3.221 -1.38,-2.853 -1.567,-2.436C-1.754,-2.019 -1.921,-1.601 -2.067,-1.184C-2.215,-0.766 -2.339,-0.375 -2.441,-0.011C-2.544,0.353 -2.625,0.645 -2.684,0.865C-2.698,0.949 -2.696,0.998 -2.678,1.014C-2.66,1.029 -2.625,1.006 -2.573,0.945C-2.508,0.869 -2.403,0.76 -2.26,0.615C-2.117,0.471 -1.96,0.315 -1.787,0.148C-1.615,-0.019 -1.446,-0.18 -1.281,-0.335C-1.116,-0.491 -0.979,-0.614 -0.869,-0.705C-0.7,-0.834 -0.558,-0.937 -0.44,-1.013C-0.323,-1.089 -0.18,-1.126 -0.011,-1.126L0,-1.126Z" style="fill:rgb(23,94,89);fill-rule:nonzero;"/>
            </g>
        </g>
        <g transform="matrix(4.16667,0,0,4.16667,-539,-1758)">
            <g transform="matrix(1,0,0,1,222.01,515.598)">
                <path d="M0,-2.881C-0.08,-2.881 -0.178,-2.829 -0.291,-2.727C-0.405,-2.624 -0.535,-2.483 -0.682,-2.3C-0.945,-1.982 -1.156,-1.65 -1.313,-1.304C-1.472,-0.959 -1.576,-0.684 -1.627,-0.479C-1.664,-0.372 -1.671,-0.281 -1.649,-0.205C-1.627,-0.13 -1.58,-0.092 -1.507,-0.092C-1.462,-0.092 -1.4,-0.12 -1.319,-0.177C-1.239,-0.234 -1.147,-0.312 -1.045,-0.41C-0.949,-0.501 -0.83,-0.64 -0.687,-0.826C-0.544,-1.012 -0.389,-1.219 -0.22,-1.446C-0.19,-1.492 -0.153,-1.555 -0.109,-1.634C-0.065,-1.714 -0.023,-1.793 0.017,-1.873C0.057,-1.953 0.092,-2.023 0.121,-2.084C0.15,-2.145 0.173,-2.187 0.187,-2.209C0.209,-2.27 0.228,-2.338 0.242,-2.414C0.257,-2.489 0.257,-2.562 0.242,-2.63C0.228,-2.698 0.204,-2.757 0.171,-2.807C0.138,-2.856 0.085,-2.881 0.012,-2.881L0,-2.881ZM0.309,-3.495C0.367,-3.495 0.42,-3.469 0.468,-3.415C0.516,-3.362 0.558,-3.314 0.594,-3.268C0.608,-3.214 0.642,-3.207 0.693,-3.245C0.767,-3.298 0.836,-3.302 0.902,-3.256C0.982,-3.203 1.026,-3.15 1.034,-3.097C1.041,-3.044 1.03,-2.986 1.001,-2.926C0.832,-2.547 0.7,-2.19 0.605,-1.857C0.51,-1.523 0.462,-1.192 0.462,-0.865C0.462,-0.615 0.484,-0.404 0.528,-0.234C0.572,-0.064 0.66,0.022 0.792,0.022C0.909,0.022 1.047,-0.036 1.204,-0.154C1.362,-0.272 1.523,-0.418 1.688,-0.593C1.854,-0.767 2.015,-0.955 2.172,-1.156C2.33,-1.357 2.471,-1.545 2.596,-1.72C2.64,-1.773 2.68,-1.799 2.717,-1.799C2.753,-1.799 2.779,-1.78 2.794,-1.742C2.809,-1.704 2.807,-1.653 2.788,-1.589C2.77,-1.525 2.742,-1.45 2.706,-1.366C2.603,-1.162 2.462,-0.942 2.282,-0.706C2.103,-0.471 1.91,-0.257 1.705,-0.064C1.5,0.131 1.294,0.292 1.089,0.421C0.884,0.55 0.711,0.614 0.572,0.614C0.44,0.614 0.309,0.536 0.176,0.381C0.044,0.225 -0.032,0.03 -0.055,-0.205C-0.069,-0.327 -0.078,-0.458 -0.082,-0.599C-0.086,-0.738 -0.088,-0.839 -0.088,-0.9C-0.088,-0.968 -0.117,-0.972 -0.176,-0.911C-0.213,-0.859 -0.274,-0.778 -0.362,-0.672C-0.45,-0.566 -0.548,-0.454 -0.654,-0.336C-0.761,-0.219 -0.867,-0.105 -0.973,0.005C-1.079,0.115 -1.169,0.204 -1.242,0.272C-1.492,0.5 -1.704,0.614 -1.88,0.614C-1.902,0.614 -1.939,0.604 -1.99,0.586C-2.042,0.566 -2.093,0.536 -2.145,0.495C-2.195,0.453 -2.241,0.396 -2.281,0.324C-2.322,0.252 -2.342,0.163 -2.342,0.057C-2.342,-0.042 -2.316,-0.189 -2.266,-0.382C-2.214,-0.575 -2.101,-0.843 -1.924,-1.185C-1.777,-1.481 -1.585,-1.799 -1.347,-2.141C-1.108,-2.483 -0.854,-2.775 -0.583,-3.018C-0.355,-3.23 -0.167,-3.362 -0.017,-3.415C0.134,-3.469 0.238,-3.495 0.297,-3.495L0.309,-3.495Z" style="fill:rgb(23,94,89);fill-rule:nonzero;"/>
            </g>
        </g>
        <g transform="matrix(4.16667,0,0,4.16667,-539,-1758)">
            <g transform="matrix(1,0,0,1,224.418,518.728)">
                <path d="M0,-5.339C0.008,-5.46 0.008,-5.548 0,-5.601C-0.007,-5.653 -0.015,-5.699 -0.021,-5.737C-0.036,-5.79 -0.042,-5.849 -0.038,-5.914C-0.034,-5.978 -0.018,-6.041 0.012,-6.102C0.033,-6.148 0.059,-6.2 0.089,-6.261C0.117,-6.321 0.15,-6.38 0.187,-6.438C0.224,-6.494 0.265,-6.543 0.309,-6.585C0.353,-6.627 0.396,-6.648 0.44,-6.648C0.491,-6.648 0.532,-6.613 0.562,-6.545C0.591,-6.477 0.612,-6.393 0.627,-6.294C0.642,-6.194 0.649,-6.092 0.649,-5.985C0.649,-5.879 0.646,-5.787 0.639,-5.711C0.631,-5.62 0.62,-5.492 0.605,-5.328C0.591,-5.165 0.574,-4.995 0.556,-4.82C0.537,-4.646 0.521,-4.476 0.506,-4.312C0.491,-4.149 0.48,-4.021 0.474,-3.93C0.459,-3.716 0.474,-3.562 0.518,-3.467C0.562,-3.371 0.612,-3.324 0.671,-3.324C0.788,-3.324 0.953,-3.457 1.166,-3.724C1.379,-3.99 1.632,-4.402 1.925,-4.957C2.042,-5.17 2.11,-5.322 2.129,-5.414C2.146,-5.506 2.152,-5.574 2.145,-5.619C2.138,-5.681 2.136,-5.739 2.14,-5.797C2.143,-5.854 2.167,-5.92 2.211,-5.997C2.262,-6.08 2.305,-6.158 2.337,-6.231C2.37,-6.303 2.416,-6.393 2.475,-6.499C2.512,-6.583 2.55,-6.638 2.59,-6.665C2.631,-6.692 2.673,-6.705 2.717,-6.705C2.775,-6.705 2.834,-6.657 2.893,-6.563C2.951,-6.468 2.98,-6.371 2.98,-6.273C2.98,-6.211 2.964,-6.113 2.932,-5.977C2.898,-5.84 2.849,-5.695 2.783,-5.544C2.739,-5.438 2.667,-5.285 2.568,-5.088C2.47,-4.891 2.355,-4.681 2.228,-4.457C2.099,-4.233 1.965,-4.011 1.826,-3.791C1.687,-3.57 1.555,-3.381 1.43,-3.222C0.821,-2.455 0.332,-1.818 -0.038,-1.31C-0.408,-0.801 -0.648,-0.467 -0.759,-0.308C-0.81,-0.216 -0.817,-0.167 -0.78,-0.159C-0.656,-0.121 -0.594,-0.061 -0.594,0.022C-0.594,0.083 -0.628,0.146 -0.698,0.211C-0.768,0.275 -0.847,0.336 -0.935,0.392C-1.022,0.449 -1.108,0.503 -1.192,0.552C-1.277,0.601 -1.338,0.638 -1.374,0.66C-1.47,0.698 -1.539,0.74 -1.583,0.785C-1.627,0.831 -1.667,0.884 -1.704,0.944C-1.785,1.074 -1.859,1.176 -1.93,1.252C-1.999,1.328 -2.082,1.366 -2.177,1.366C-2.258,1.366 -2.32,1.339 -2.364,1.286C-2.408,1.233 -2.415,1.161 -2.386,1.07C-2.364,0.972 -2.331,0.88 -2.287,0.797C-2.243,0.713 -2.173,0.607 -2.078,0.478C-1.968,0.326 -1.876,0.223 -1.803,0.171C-1.729,0.117 -1.671,0.083 -1.627,0.068C-1.554,0.046 -1.495,-0.008 -1.451,-0.091C-1.437,-0.121 -1.407,-0.175 -1.363,-0.25C-1.319,-0.326 -1.263,-0.417 -1.192,-0.524C-1.123,-0.63 -1.046,-0.744 -0.962,-0.865C-0.878,-0.986 -0.791,-1.105 -0.703,-1.218C-0.645,-1.294 -0.562,-1.404 -0.456,-1.548C-0.35,-1.693 -0.236,-1.846 -0.115,-2.009C0.006,-2.173 0.119,-2.326 0.226,-2.47C0.332,-2.614 0.415,-2.725 0.474,-2.801C0.518,-2.846 0.51,-2.861 0.451,-2.846C0.355,-2.816 0.275,-2.801 0.209,-2.801C0.106,-2.801 0.033,-2.878 -0.011,-3.033C-0.055,-3.19 -0.073,-3.449 -0.065,-3.814L0,-5.339Z" style="fill:rgb(23,94,89);fill-rule:nonzero;"/>
            </g>
        </g>
        <g transform="matrix(4.16667,0,0,4.16667,-539,-1758)">
            <g transform="matrix(1,0,0,1,229.439,516.304)">
                <path d="M0,-5.35C0.103,-5.35 0.186,-5.293 0.248,-5.18C0.311,-5.066 0.355,-4.955 0.386,-4.849C0.414,-4.675 0.378,-4.535 0.275,-4.428C0.217,-4.368 0.163,-4.307 0.116,-4.246C0.068,-4.185 0.004,-4.06 -0.076,-3.871C-0.157,-3.696 -0.253,-3.474 -0.362,-3.204C-0.473,-2.935 -0.612,-2.562 -0.78,-2.083C-0.824,-1.962 -0.876,-1.882 -0.935,-1.844C-0.993,-1.806 -1.041,-1.787 -1.077,-1.787C-1.129,-1.787 -1.164,-1.831 -1.182,-1.918C-1.2,-2.005 -1.18,-2.186 -1.121,-2.459C-1.106,-2.52 -1.073,-2.641 -1.022,-2.824C-0.971,-3.005 -0.907,-3.22 -0.83,-3.466C-0.753,-3.713 -0.671,-3.977 -0.582,-4.257C-0.494,-4.538 -0.41,-4.808 -0.329,-5.066C-0.271,-5.255 -0.164,-5.35 -0.011,-5.35L0,-5.35ZM-1.363,-1.037C-1.297,-1.037 -1.24,-1.015 -1.192,-0.973C-1.146,-0.932 -1.104,-0.88 -1.072,-0.82C-1.039,-0.759 -1.014,-0.697 -0.995,-0.632C-0.977,-0.568 -0.968,-0.512 -0.968,-0.467C-0.968,-0.338 -1.015,-0.228 -1.11,-0.137C-1.206,-0.045 -1.315,0 -1.44,0C-1.572,0 -1.671,-0.061 -1.737,-0.182C-1.803,-0.304 -1.836,-0.413 -1.836,-0.512C-1.836,-0.566 -1.821,-0.624 -1.792,-0.689C-1.763,-0.753 -1.727,-0.81 -1.683,-0.86C-1.639,-0.909 -1.589,-0.951 -1.534,-0.985C-1.479,-1.019 -1.426,-1.037 -1.374,-1.037L-1.363,-1.037Z" style="fill:rgb(23,94,89);fill-rule:nonzero;"/>
            </g>
        </g>
        <g transform="matrix(4.16667,0,0,4.16667,-539,-1758)">
            <g transform="matrix(47.7694,22.4153,22.4153,-47.7694,178.558,446.38)">
                <path d="M0.35,0.042C0.106,0.127 -0.031,-0.063 -0.031,-0.063C0.193,-0.186 0.357,0.012 0.357,0.012C0.407,-0.106 0.459,-0.258 0.512,-0.429C0.516,-0.441 0.502,-0.375 0.486,-0.316C0.469,-0.257 0.403,-0.011 0.403,-0.011C0.403,-0.011 0.483,0.001 0.586,0.044C0.734,0.121 0.76,0.195 0.76,0.195C0.714,0.187 0.646,0.213 0.608,0.206C0.537,0.191 0.425,0.099 0.425,0.099C0.586,0.346 0.441,0.452 0.441,0.452C0.222,0.273 0.35,0.042 0.35,0.042Z" style="fill:url(#_Linear5);fill-rule:nonzero;"/>
            </g>
        </g>
        <g transform="matrix(4.16667,0,0,4.16667,-539,-1758)">
            <g transform="matrix(1,0,0,1,177.047,452.774)">
                <path d="M0,-3.873C0,-3.873 1.118,-3.958 2.791,-3.84C3.624,-3.763 4.602,-3.692 5.635,-3.523C6.672,-3.373 7.765,-3.142 8.856,-2.9C9.94,-2.633 11.018,-2.341 12.015,-2.023C13.011,-1.7 13.925,-1.354 14.704,-1.05C15.488,-0.761 16.112,-0.441 16.559,-0.247C16.999,-0.036 17.25,0.085 17.25,0.085C17.25,0.085 16.979,0.018 16.506,-0.101C16.036,-0.227 15.366,-0.407 14.562,-0.622C13.765,-0.859 12.819,-1.072 11.82,-1.346C10.815,-1.595 9.747,-1.874 8.672,-2.122C6.524,-2.625 4.366,-3.091 2.734,-3.395C1.915,-3.542 1.233,-3.664 0.756,-3.75C0.275,-3.828 0,-3.873 0,-3.873" style="fill:rgb(23,94,89);fill-rule:nonzero;"/>
            </g>
        </g>
        <g transform="matrix(4.16667,0,0,4.16667,-539,-1758)">
            <g transform="matrix(1,0,0,1,198.63,435.902)">
                <path d="M0,15.708C0,15.708 0.422,14.604 1.185,13.009C1.577,12.218 2.023,11.287 2.551,10.318C3.076,9.346 3.668,8.326 4.284,7.32C4.909,6.32 5.554,5.331 6.208,4.436C6.849,3.533 7.514,2.736 8.09,2.061C8.367,1.715 8.662,1.429 8.916,1.173C9.168,0.915 9.391,0.694 9.59,0.527C9.984,0.191 10.208,0 10.208,0C10.208,0 10.025,0.23 9.703,0.634C9.368,1.02 8.957,1.631 8.445,2.339C7.931,3.048 7.385,3.914 6.79,4.833C6.2,5.755 5.57,6.74 4.964,7.741C3.733,9.735 2.502,11.729 1.578,13.225C0.649,14.721 0,15.708 0,15.708" style="fill:rgb(23,94,89);fill-rule:nonzero;"/>
            </g>
        </g>
        <g transform="matrix(4.16667,0,0,4.16667,-539,-1758)">
            <g transform="matrix(1,0,0,1,217.797,452.84)">
                <path d="M0,1.395C0,1.395 -1.166,1.308 -2.914,1.177C-3.785,1.105 -4.804,1.061 -5.892,1C-6.981,0.94 -8.142,0.884 -9.303,0.845C-10.464,0.792 -11.626,0.772 -12.717,0.742C-13.807,0.731 -14.827,0.68 -15.701,0.692C-16.577,0.681 -17.307,0.673 -17.818,0.667C-18.332,0.653 -18.625,0.645 -18.625,0.645C-18.625,0.645 -18.336,0.597 -17.829,0.512C-17.322,0.444 -16.597,0.308 -15.72,0.242C-14.845,0.16 -13.82,0.074 -12.721,0.038C-11.621,0 -10.447,0.009 -9.273,0.046C-8.101,0.102 -6.928,0.171 -5.835,0.3C-4.74,0.412 -3.726,0.59 -2.858,0.732C-1.124,1.044 0,1.395 0,1.395" style="fill:rgb(23,94,89);fill-rule:nonzero;"/>
            </g>
        </g>
        <g transform="matrix(4.16667,0,0,4.16667,-539,-1758)">
            <g transform="matrix(28.5812,23.2221,23.2221,-28.5812,187.878,454.048)">
                <path d="M0.519,-0.077C0.519,-0.077 0.535,-0.206 0.552,-0.263C0.562,-0.315 0.565,-0.389 0.57,-0.388C0.576,-0.387 0.579,-0.328 0.573,-0.277C0.567,-0.226 0.567,-0.175 0.564,-0.155C0.562,-0.135 0.562,-0.105 0.562,-0.105C0.562,-0.105 0.821,-0.169 1.039,0.008C1.039,0.008 0.972,0.027 0.942,0.046C0.911,0.065 0.812,0.088 0.615,-0.002C0.615,-0.002 0.867,0.213 0.723,0.39C0.723,0.39 0.444,0.293 0.519,-0.037C0.519,-0.037 0.389,0.034 0.31,0.04C0.231,0.046 0.146,0.022 0.04,-0.038C0.04,-0.038 0.206,-0.23 0.519,-0.077Z" style="fill:url(#_Linear6);fill-rule:nonzero;"/>
            </g>
        </g>
        <g transform="matrix(4.16667,0,0,4.16667,-539,-1758)">
            <g transform="matrix(1,0,0,1,189.39,467.651)">
                <path d="M0,-10.76C0,-10.76 0.237,-10.671 0.636,-10.476C1.028,-10.272 1.598,-9.99 2.239,-9.582C2.872,-9.166 3.626,-8.692 4.373,-8.106C5.132,-7.534 5.895,-6.867 6.647,-6.188C7.38,-5.491 8.095,-4.774 8.73,-4.069C9.363,-3.362 9.914,-2.669 10.379,-2.071C10.858,-1.485 11.187,-0.939 11.444,-0.582C11.691,-0.215 11.823,0 11.823,0C11.823,0 11.635,-0.171 11.323,-0.483C11.013,-0.795 10.571,-1.24 10.039,-1.775C9.525,-2.322 8.88,-2.917 8.222,-3.581C7.546,-4.23 6.836,-4.928 6.103,-5.603C5.374,-6.283 4.633,-6.947 3.929,-7.561C3.225,-8.177 2.564,-8.748 1.979,-9.217C1.389,-9.677 0.911,-10.087 0.554,-10.344C0.202,-10.609 0,-10.76 0,-10.76" style="fill:rgb(23,94,89);fill-rule:nonzero;"/>
            </g>
        </g>
        <g transform="matrix(4.16667,0,0,4.16667,-539,-1758)">
            <g transform="matrix(1,0,0,1,202.734,460.641)">
                <path d="M0,6.781C0,6.781 0.831,6.21 2.11,5.424C2.752,5.037 3.501,4.586 4.304,4.102C5.107,3.624 5.98,3.137 6.818,2.619C7.674,2.086 8.66,1.67 9.53,1.349C10.417,1.015 11.267,0.781 11.989,0.567C13.442,0.165 14.438,0 14.438,0C14.438,0 13.517,0.411 12.137,0.992C11.442,1.271 10.646,1.631 9.795,2.002C8.936,2.396 8.071,2.763 7.234,3.302C6.362,3.82 5.482,4.297 4.641,4.719C3.804,5.147 2.999,5.501 2.32,5.821C0.948,6.437 0,6.781 0,6.781" style="fill:rgb(23,94,89);fill-rule:nonzero;"/>
            </g>
        </g>
        <g transform="matrix(4.16667,0,0,4.16667,-539,-1758)">
            <g transform="matrix(1,0,0,1,203.64,476.86)">
                <path d="M0,-7.75C0,-7.75 0.787,-7.277 1.936,-6.54C3.083,-5.799 4.584,-4.78 6.088,-3.774C7.587,-2.761 9.092,-1.765 10.253,-1.072C10.832,-0.719 11.325,-0.442 11.684,-0.273C12.043,-0.107 12.25,0 12.25,0C12.25,0 12.026,-0.038 11.631,-0.127C11.43,-0.165 11.202,-0.248 10.933,-0.333C10.662,-0.414 10.362,-0.519 10.048,-0.661C9.405,-0.92 8.682,-1.277 7.933,-1.7C7.177,-2.112 6.407,-2.609 5.642,-3.111C4.123,-4.134 2.69,-5.269 1.66,-6.175C0.633,-7.084 0,-7.75 0,-7.75" style="fill:rgb(23,94,89);fill-rule:nonzero;"/>
            </g>
        </g>
    </g>
    <defs>
        <linearGradient id="_Linear1" x1="0" y1="0" x2="1" y2="0" gradientUnits="userSpaceOnUse" gradientTransform="matrix(1,0,0,-1,0,0.0692604)"><stop offset="0" style="stop-color:white;stop-opacity:1"/><stop offset="0.22" style="stop-color:white;stop-opacity:1"/><stop offset="0.87" style="stop-color:rgb(121,125,123);stop-opacity:1"/><stop offset="1" style="stop-color:rgb(121,125,123);stop-opacity:1"/></linearGradient>
        <linearGradient id="_Linear2" x1="0" y1="0" x2="1" y2="0" gradientUnits="userSpaceOnUse" gradientTransform="matrix(1,0,0,-1,0,-6.78092e-06)"><stop offset="0" style="stop-color:rgb(121,125,123);stop-opacity:1"/><stop offset="0.13" style="stop-color:rgb(121,125,123);stop-opacity:1"/><stop offset="0.78" style="stop-color:white;stop-opacity:1"/><stop offset="1" style="stop-color:white;stop-opacity:1"/></linearGradient>
        <linearGradient id="_Linear3" x1="0" y1="0" x2="1" y2="0" gradientUnits="userSpaceOnUse" gradientTransform="matrix(1,0,0,-1,0,-3.50891e-06)"><stop offset="0" style="stop-color:rgb(101,186,97);stop-opacity:1"/><stop offset="0.34" style="stop-color:rgb(101,186,97);stop-opacity:1"/><stop offset="0.52" style="stop-color:rgb(179,208,52);stop-opacity:1"/><stop offset="0.85" style="stop-color:white;stop-opacity:1"/><stop offset="1" style="stop-color:white;stop-opacity:1"/></linearGradient>
        <linearGradient id="_Linear4" x1="0" y1="0" x2="1" y2="0" gradientUnits="userSpaceOnUse" gradientTransform="matrix(1,0,0,-1,0,-1.06798e-05)"><stop offset="0" style="stop-color:rgb(101,186,97);stop-opacity:1"/><stop offset="0.29" style="stop-color:rgb(101,186,97);stop-opacity:1"/><stop offset="0.58" style="stop-color:rgb(179,208,52);stop-opacity:1"/><stop offset="0.85" style="stop-color:white;stop-opacity:1"/><stop offset="1" style="stop-color:white;stop-opacity:1"/></linearGradient>
        <linearGradient id="_Linear5" x1="0" y1="0" x2="1" y2="0" gradientUnits="userSpaceOnUse" gradientTransform="matrix(1,5.55112e-17,5.55112e-17,-1,0,0.0106958)"><stop offset="0" style="stop-color:rgb(104,190,96);stop-opacity:1"/><stop offset="0" style="stop-color:rgb(104,190,96);stop-opacity:1"/><stop offset="0.09" style="stop-color:rgb(179,208,52);stop-opacity:1"/><stop offset="0.19" style="stop-color:rgb(104,190,96);stop-opacity:1"/><stop offset="0.31" style="stop-color:rgb(179,208,52);stop-opacity:1"/><stop offset="0.46" style="stop-color:rgb(104,190,96);stop-opacity:1"/><stop offset="0.65" style="stop-color:rgb(179,208,52);stop-opacity:1"/><stop offset="0.78" style="stop-color:rgb(104,190,96);stop-opacity:1"/><stop offset="1" style="stop-color:rgb(104,190,96);stop-opacity:1"/></linearGradient>
        <linearGradient id="_Linear6" x1="0" y1="0" x2="1" y2="0" gradientUnits="userSpaceOnUse" gradientTransform="matrix(1,-5.55112e-17,-5.55112e-17,-1,0,0.000990879)"><stop offset="0" style="stop-color:rgb(179,208,52);stop-opacity:1"/><stop offset="0.05" style="stop-color:rgb(179,208,52);stop-opacity:1"/><stop offset="0.18" style="stop-color:rgb(104,190,96);stop-opacity:1"/><stop offset="0.48" style="stop-color:rgb(179,208,52);stop-opacity:1"/><stop offset="0.67" style="stop-color:rgb(104,190,96);stop-opacity:1"/><stop offset="0.81" style="stop-color:rgb(104,190,96);stop-opacity:1"/><stop offset="0.97" style="stop-color:rgb(179,208,52);stop-opacity:1"/><stop offset="1" style="stop-color:rgb(179,208,52);stop-opacity:1"/></linearGradient>
    </defs>
</svg>
