<?xml version="1.0" encoding="UTF-8" standalone="no"?>
<!DOCTYPE svg PUBLIC "-//W3C//DTD SVG 1.1//EN" "http://www.w3.org/Graphics/SVG/1.1/DTD/svg11.dtd">
<svg width="100%" height="100%" viewBox="0 0 380 368" version="1.1" xmlns="http://www.w3.org/2000/svg" xmlns:xlink="http://www.w3.org/1999/xlink" xml:space="preserve" xmlns:serif="http://www.serif.com/" style="fill-rule:evenodd;clip-rule:evenodd;stroke-linejoin:round;stroke-miterlimit:1.41421;">
    <g transform="matrix(1,0,0,1,-70.3813,-68.1406)">
        <g transform="matrix(4.16667,0,0,4.16667,0,0)">
            <path d="M17.65,99.328C17.926,99.259 18.03,99.12 18.048,98.74C18.099,97.771 18.099,95.991 18.083,94.833C18.083,94.694 18.099,94.521 17.944,94.4C17.737,94.262 17.46,94.124 17.045,94.003C16.976,93.899 17.045,93.484 17.114,93.45C18.03,93.311 18.981,93.069 19.465,92.827L19.517,92.93C19.535,93.035 19.535,93.623 19.535,93.882C19.535,93.917 19.603,93.969 19.656,93.917C20.658,93.121 21.54,92.844 22.006,92.844C22.854,92.844 23.424,93.311 23.822,93.969C23.856,94.02 23.909,94.003 23.925,93.969C24.825,93.277 25.741,92.844 26.363,92.844C27.747,92.844 28.68,93.864 28.68,95.766C28.68,96.734 28.663,98.186 28.663,98.929C28.663,98.999 28.766,99.207 28.905,99.241C29.112,99.344 29.423,99.396 29.821,99.466C29.89,99.552 29.803,100.105 29.717,100.157C29.458,100.157 28.887,100.105 28.144,100.105C27.228,100.105 26.726,100.123 26.208,100.157C26.156,100.089 26.122,99.535 26.208,99.466C26.484,99.414 26.623,99.38 26.796,99.328C27.055,99.241 27.141,99.137 27.159,98.74C27.175,97.996 27.211,95.887 27.124,95.351C27.055,94.867 26.692,94.054 25.62,94.054C25.205,94.054 24.617,94.245 24.098,94.642C24.082,94.66 24.064,94.712 24.064,94.746C24.133,95.075 24.133,95.455 24.133,96.025C24.133,96.994 24.116,98.135 24.133,98.878C24.133,99.172 24.289,99.241 24.462,99.31C24.704,99.362 24.859,99.414 25.188,99.466C25.274,99.569 25.222,100.105 25.101,100.157C24.6,100.14 24.047,100.123 23.252,100.123C22.819,100.123 21.903,100.157 21.591,100.157C21.488,100.089 21.47,99.552 21.591,99.466C21.869,99.414 22.093,99.38 22.3,99.328C22.525,99.259 22.612,99.137 22.63,98.826C22.681,98.031 22.715,95.836 22.612,95.3C22.491,94.712 22.179,94.003 21.176,94.003C20.745,94.003 20.157,94.21 19.656,94.591C19.587,94.642 19.535,94.781 19.535,94.902C19.535,96.043 19.517,98.135 19.551,98.913C19.569,99.102 19.638,99.276 19.932,99.344C20.053,99.38 20.312,99.414 20.59,99.466C20.658,99.552 20.624,100.053 20.537,100.157C20.157,100.157 19.551,100.105 18.774,100.105C17.857,100.105 17.425,100.157 16.976,100.157C16.872,100.071 16.855,99.552 16.976,99.466C17.304,99.414 17.46,99.38 17.65,99.328Z" style="fill:rgb(88,89,92);fill-rule:nonzero;"/>
        </g>
        <g transform="matrix(4.16667,0,0,4.16667,0,0)">
            <path d="M32.03,91.341C31.944,91.41 31.235,91.462 31.131,91.392C30.855,91.219 30.699,90.995 30.595,90.597C30.578,90.511 30.595,90.078 30.699,89.992C30.872,89.837 31.304,89.629 31.668,89.629C31.978,89.629 32.169,89.716 32.22,89.784C32.307,89.905 32.411,90.165 32.411,90.355C32.411,90.701 32.29,91.116 32.03,91.341ZM33.396,100.157C33.068,100.157 32.653,100.105 31.477,100.105C30.699,100.105 29.973,100.157 29.697,100.157C29.592,100.089 29.576,99.552 29.679,99.466C30.043,99.414 30.25,99.362 30.458,99.293C30.716,99.223 30.751,99.086 30.768,98.757C30.803,98.325 30.803,97.374 30.803,96.458L30.803,94.729C30.803,94.642 30.768,94.452 30.647,94.348C30.458,94.141 30.111,94.02 29.731,93.864C29.662,93.761 29.731,93.397 29.835,93.329C30.388,93.311 31.598,93.069 32.324,92.81L32.324,95.939C32.324,96.889 32.324,97.996 32.341,98.74C32.341,99.016 32.428,99.223 32.687,99.31C32.947,99.38 33.033,99.396 33.483,99.466C33.551,99.569 33.5,100.071 33.396,100.157Z" style="fill:rgb(88,89,92);fill-rule:nonzero;"/>
        </g>
        <g transform="matrix(4.16667,0,0,4.16667,0,0)">
            <path d="M34.036,99.344C34.278,99.293 34.398,99.102 34.416,98.809C34.451,98.325 34.451,97.097 34.451,95.991L34.451,94.746C34.381,94.504 34.07,94.262 33.465,93.985C33.43,93.847 33.5,93.518 33.586,93.467C34.295,93.397 35.419,93.052 35.834,92.827C35.868,92.844 35.937,92.914 35.937,92.966C35.937,93.052 35.92,93.657 35.92,93.933C35.92,93.969 36.006,93.969 36.024,93.951C36.767,93.311 37.666,92.844 38.34,92.844C39.101,92.844 39.689,93.19 40.104,93.778C40.45,94.297 40.588,95.023 40.588,95.852C40.588,96.873 40.588,98.428 40.623,98.965C40.623,99.016 40.691,99.172 40.744,99.207C41.072,99.362 41.348,99.414 41.729,99.466C41.798,99.587 41.763,100.036 41.66,100.157C41.418,100.157 40.812,100.105 39.862,100.105C39.101,100.105 38.583,100.157 38.132,100.157C38.064,100.053 38.029,99.569 38.132,99.466C38.462,99.431 38.738,99.38 38.841,99.328C39.066,99.259 39.118,99.102 39.118,98.48C39.118,97.34 39.135,96.025 39.066,95.369C39.032,95.075 38.911,94.677 38.583,94.4C38.34,94.193 38.011,94.037 37.528,94.037C37.026,94.037 36.456,94.245 36.11,94.556C36.006,94.642 35.92,94.798 35.92,95.127C35.92,96.302 35.92,98.031 35.955,98.844C35.971,99.155 36.041,99.293 36.318,99.362C36.525,99.414 36.732,99.449 37.026,99.466C37.095,99.569 37.061,100.036 36.958,100.157C36.698,100.157 36.179,100.105 35.176,100.105C34.451,100.105 33.569,100.157 33.396,100.157C33.309,100.053 33.309,99.552 33.396,99.466C33.655,99.431 33.828,99.396 34.036,99.344Z" style="fill:rgb(88,89,92);fill-rule:nonzero;"/>
        </g>
        <g transform="matrix(4.16667,0,0,4.16667,0,0)">
            <path d="M43.282,95.196C43.282,96.216 43.732,97.304 44.924,97.304C45.149,97.304 45.512,97.201 45.685,97.011C45.945,96.769 46.152,96.25 46.152,95.628C46.152,94.608 45.737,93.623 44.545,93.623C43.818,93.623 43.282,94.193 43.282,95.196ZM47.431,101.851C47.431,101.332 47.189,100.935 46.585,100.71C46.118,100.537 45.34,100.451 44.441,100.451C44.147,100.451 43.939,100.537 43.818,100.607C43.178,101.022 42.92,101.419 42.92,101.851C42.92,102.266 43.075,102.612 43.438,102.923C43.922,103.338 44.545,103.476 45.236,103.476C46.774,103.476 47.431,102.629 47.431,101.851ZM46.757,93.224C47.034,93.329 47.31,93.381 47.725,93.381C48.313,93.381 48.555,93.19 48.78,92.966C48.849,92.948 49.056,93.087 49.074,93.121C49.074,93.363 48.832,93.969 48.659,94.176C48.52,94.331 48.365,94.452 47.985,94.452L47.587,94.452C47.57,94.452 47.535,94.487 47.535,94.504C47.57,94.642 47.622,94.97 47.622,95.092C47.622,96.337 47.155,96.925 46.567,97.374C45.91,97.876 45.236,98.031 44.752,98.083C44.717,98.083 44.372,98.117 44.337,98.117C44.215,98.152 43.957,98.29 43.957,98.515C43.957,98.826 44.251,98.982 44.7,99.016C45.616,99.086 47,99.155 47.604,99.362C48.261,99.604 48.78,100.209 48.78,101.074C48.78,102.18 48.019,103.303 46.601,103.994C45.876,104.341 45.201,104.461 44.545,104.461C43.663,104.461 42.954,104.288 42.332,103.805C41.778,103.372 41.502,102.715 41.502,102.232C41.502,102.075 41.571,101.609 41.64,101.523C41.83,101.281 42.453,100.814 43.248,100.261C43.265,100.261 43.265,100.226 43.248,100.226C42.574,99.968 42.297,99.535 42.211,99.207C42.193,99.102 42.297,98.895 42.314,98.826C42.574,98.653 43.178,98.325 43.438,98.1C43.455,98.083 43.455,98.031 43.421,98.013C42.505,97.703 41.796,96.994 41.796,95.594C41.796,94.867 42.107,94.106 42.798,93.605C43.23,93.26 44.354,92.827 45.063,92.844C45.789,92.862 46.204,93.017 46.757,93.224Z" style="fill:rgb(88,89,92);fill-rule:nonzero;"/>
        </g>
        <g transform="matrix(4.16667,0,0,4.16667,0,0)">
            <path d="M53.965,91.289C53.895,91.341 53.048,91.496 52.944,91.375C52.668,91.168 52.598,91.011 52.495,90.632C52.46,90.511 52.495,90.044 52.564,89.974C52.737,89.819 53.238,89.594 53.653,89.594C53.929,89.594 54.206,89.68 54.258,89.802C54.31,89.888 54.344,90.199 54.344,90.32C54.344,90.649 54.241,91.011 53.965,91.289ZM54.379,98.135C54.362,99.344 54.327,99.984 54.189,100.572C53.878,102.093 52.547,103.736 51.665,104.254C51.388,104.22 51.164,104.064 51.025,103.96C50.991,103.891 51.007,103.787 51.043,103.736C52.218,102.975 52.823,101.609 52.823,99.449C52.823,97.547 52.84,95.264 52.789,94.66C52.771,94.487 52.685,94.262 52.425,94.193C52.201,94.106 51.752,94.037 51.406,93.985C51.285,93.882 51.337,93.397 51.44,93.329C52.391,93.26 53.756,93.103 54.431,92.879C54.431,94.366 54.396,97.063 54.379,98.135Z" style="fill:rgb(88,89,92);fill-rule:nonzero;"/>
        </g>
        <g transform="matrix(4.16667,0,0,4.16667,0,0)">
            <path d="M58.078,93.917C57.629,94.193 57.196,94.781 57.196,96.06C57.196,98.135 58.251,99.449 59.582,99.449C59.963,99.449 60.308,99.344 60.602,99.086C61,98.757 61.258,98.083 61.258,96.976C61.258,94.936 60.256,93.691 58.873,93.691C58.596,93.691 58.302,93.761 58.078,93.917ZM62.901,96.406C62.901,97.823 62.348,98.947 61.276,99.656C60.775,99.968 59.893,100.313 59.15,100.313C56.539,100.313 55.571,98.359 55.571,96.527C55.571,95.127 56.193,94.176 57.11,93.553C57.75,93.156 58.614,92.844 59.478,92.844C61.604,92.844 62.901,94.435 62.901,96.406Z" style="fill:rgb(88,89,92);fill-rule:nonzero;"/>
        </g>
        <g transform="matrix(4.16667,0,0,4.16667,0,0)">
            <path d="M62.934,89.128C63.971,89.041 65.199,88.782 65.753,88.54C65.821,88.557 65.925,88.816 65.908,88.886C65.735,89.214 65.717,89.37 65.701,90.58C65.683,91.686 65.683,93.415 65.683,93.847C65.683,93.882 65.735,93.882 65.753,93.864C66.651,93.19 67.515,92.844 68.087,92.844C69.555,92.844 70.351,93.969 70.351,95.679C70.351,96.665 70.368,98.013 70.368,98.792C70.368,99.12 70.541,99.241 70.679,99.293C70.904,99.38 71.18,99.431 71.509,99.466C71.595,99.535 71.526,100.105 71.406,100.157C71.077,100.14 70.403,100.105 69.607,100.105C68.985,100.105 68.087,100.157 67.861,100.157C67.757,100.071 67.757,99.569 67.844,99.466C68.087,99.449 68.311,99.396 68.501,99.362C68.83,99.293 68.881,99.12 68.899,98.498C68.916,97.703 68.951,96.025 68.846,95.23C68.778,94.798 68.381,94.003 67.239,94.003C66.841,94.003 66.305,94.158 65.908,94.435C65.769,94.521 65.701,94.729 65.701,94.85C65.701,96.043 65.717,98.031 65.735,98.532C65.769,99.102 65.787,99.223 66.184,99.344C66.375,99.38 66.548,99.431 66.893,99.466C67.014,99.552 66.963,100.071 66.859,100.157C66.617,100.157 65.994,100.105 64.992,100.105C63.971,100.105 63.435,100.157 63.159,100.157C63.038,100.053 63.055,99.535 63.141,99.466C63.47,99.414 63.643,99.362 63.798,99.31C64.128,99.207 64.179,99.086 64.196,98.636C64.213,98.221 64.231,96.233 64.231,95.836C64.231,91.945 64.248,91.064 64.196,90.407C64.179,90.131 64.11,89.958 63.885,89.888C63.661,89.837 63.262,89.784 62.917,89.75C62.796,89.68 62.831,89.162 62.934,89.128Z" style="fill:rgb(88,89,92);fill-rule:nonzero;"/>
        </g>
        <g transform="matrix(4.16667,0,0,4.16667,0,0)">
            <path d="M75.311,96.734C74.827,96.925 73.72,97.253 73.323,97.477C73.236,97.512 73.115,97.841 73.115,98.049C73.115,98.688 73.565,99.172 74.326,99.172C74.533,99.172 74.93,99.068 75.155,98.895C75.311,98.792 75.345,98.671 75.381,98.463C75.415,98.238 75.415,97.132 75.415,96.821C75.415,96.803 75.363,96.717 75.311,96.734ZM75.224,94.556C74.948,94.124 74.412,93.917 73.945,93.917C73.478,93.917 73.219,94.037 73.168,94.09C72.96,94.262 72.683,94.85 72.441,95.334C72.372,95.421 71.75,95.127 71.784,94.97C71.853,94.677 72.13,93.882 72.268,93.778C73.011,93.294 74.17,92.844 74.62,92.844C75.432,92.844 76.054,93.224 76.434,93.796C76.763,94.331 76.867,94.85 76.867,95.542C76.867,96.423 76.798,97.771 76.798,98.498C76.798,98.895 76.954,99.137 77.472,99.137C77.731,99.137 77.87,99.102 78.094,99.051C78.112,99.137 78.077,99.656 78.007,99.725C77.593,100.14 76.936,100.313 76.504,100.313C75.967,100.313 75.657,100.071 75.553,99.811C75.484,99.708 75.449,99.552 75.415,99.431C75.415,99.414 75.345,99.396 75.328,99.414C74.342,100.019 73.703,100.313 73.168,100.313C72.839,100.313 72.475,100.105 72.181,99.829C71.801,99.431 71.577,98.878 71.577,98.273C71.577,97.789 71.905,97.236 71.974,97.167C72.631,96.838 74.585,96.423 75.294,96.06C75.328,96.043 75.397,95.939 75.415,95.887C75.449,95.783 75.449,95.628 75.449,95.594C75.449,95.264 75.432,94.885 75.224,94.556Z" style="fill:rgb(88,89,92);fill-rule:nonzero;"/>
        </g>
        <g transform="matrix(4.16667,0,0,4.16667,0,0)">
            <path d="M78.49,99.344C78.732,99.293 78.852,99.102 78.87,98.809C78.905,98.325 78.905,97.097 78.905,95.991L78.905,94.746C78.836,94.504 78.524,94.262 77.919,93.985C77.884,93.847 77.954,93.518 78.04,93.467C78.749,93.397 79.873,93.052 80.288,92.827C80.322,92.844 80.391,92.914 80.391,92.966C80.391,93.052 80.374,93.657 80.374,93.933C80.374,93.969 80.461,93.969 80.478,93.951C81.221,93.311 82.12,92.844 82.795,92.844C83.555,92.844 84.143,93.19 84.557,93.778C84.904,94.297 85.042,95.023 85.042,95.852C85.042,96.873 85.042,98.428 85.077,98.965C85.077,99.016 85.145,99.172 85.198,99.207C85.526,99.362 85.802,99.414 86.183,99.466C86.252,99.587 86.217,100.036 86.114,100.157C85.872,100.157 85.266,100.105 84.316,100.105C83.555,100.105 83.037,100.157 82.587,100.157C82.518,100.053 82.483,99.569 82.587,99.466C82.916,99.431 83.192,99.38 83.296,99.328C83.52,99.259 83.572,99.102 83.572,98.48C83.572,97.34 83.59,96.025 83.52,95.369C83.486,95.075 83.365,94.677 83.037,94.4C82.795,94.193 82.465,94.037 81.982,94.037C81.48,94.037 80.91,94.245 80.564,94.556C80.461,94.642 80.374,94.798 80.374,95.127C80.374,96.302 80.374,98.031 80.409,98.844C80.425,99.155 80.495,99.293 80.772,99.362C80.979,99.414 81.186,99.449 81.48,99.466C81.549,99.569 81.515,100.036 81.412,100.157C81.152,100.157 80.633,100.105 79.631,100.105C78.905,100.105 78.023,100.157 77.85,100.157C77.763,100.053 77.763,99.552 77.85,99.466C78.109,99.431 78.282,99.396 78.49,99.344Z" style="fill:rgb(88,89,92);fill-rule:nonzero;"/>
        </g>
        <g transform="matrix(4.16667,0,0,4.16667,0,0)">
            <path d="M90.883,95.023C90.797,95.109 90.347,95.127 90.261,95.057C90.123,94.331 90.002,94.003 89.69,93.778C89.483,93.623 89.189,93.502 88.774,93.502C88.169,93.502 87.719,93.899 87.719,94.452C87.719,95.04 88.083,95.386 89.448,95.957C90.935,96.579 91.333,97.219 91.333,98.1C91.333,99.431 90.071,100.313 88.411,100.313C87.685,100.313 86.855,100.14 86.492,99.968C86.354,99.569 86.164,98.428 86.146,97.979C86.215,97.892 86.7,97.719 86.803,97.771C87.062,98.584 87.356,99.034 87.806,99.328C88.065,99.466 88.463,99.569 88.756,99.569C89.483,99.569 89.863,99.207 89.863,98.688C89.863,98.1 89.552,97.771 88.342,97.236C86.976,96.613 86.371,95.973 86.371,94.988C86.371,93.882 87.27,92.844 89.086,92.844C89.552,92.844 90.053,92.914 90.347,92.966C90.659,93.017 90.918,93.069 91.09,93.087C91.005,93.588 90.935,94.245 90.883,95.023Z" style="fill:rgb(88,89,92);fill-rule:nonzero;"/>
        </g>
        <g transform="matrix(4.16667,0,0,4.16667,0,0)">
            <path d="M94.323,93.917C93.874,94.193 93.441,94.781 93.441,96.06C93.441,98.135 94.496,99.449 95.827,99.449C96.208,99.449 96.553,99.344 96.847,99.086C97.245,98.757 97.504,98.083 97.504,96.976C97.504,94.936 96.502,93.691 95.118,93.691C94.841,93.691 94.548,93.761 94.323,93.917ZM99.146,96.406C99.146,97.823 98.593,98.947 97.521,99.656C97.02,99.968 96.138,100.313 95.395,100.313C92.784,100.313 91.816,98.359 91.816,96.527C91.816,95.127 92.438,94.176 93.355,93.553C93.995,93.156 94.859,92.844 95.723,92.844C97.849,92.844 99.146,94.435 99.146,96.406Z" style="fill:rgb(88,89,92);fill-rule:nonzero;"/>
        </g>
        <g transform="matrix(4.16667,0,0,4.16667,0,0)">
            <path d="M100.217,99.344C100.459,99.293 100.579,99.102 100.597,98.809C100.632,98.325 100.632,97.097 100.632,95.991L100.632,94.746C100.563,94.504 100.251,94.262 99.645,93.985C99.611,93.847 99.68,93.518 99.766,93.467C100.476,93.397 101.6,93.052 102.015,92.827C102.049,92.844 102.118,92.914 102.118,92.966C102.118,93.052 102.101,93.657 102.101,93.933C102.101,93.969 102.188,93.969 102.205,93.951C102.948,93.311 103.847,92.844 104.522,92.844C105.282,92.844 105.87,93.19 106.284,93.778C106.631,94.297 106.769,95.023 106.769,95.852C106.769,96.873 106.769,98.428 106.804,98.965C106.804,99.016 106.872,99.172 106.925,99.207C107.253,99.362 107.529,99.414 107.91,99.466C107.979,99.587 107.944,100.036 107.841,100.157C107.599,100.157 106.993,100.105 106.043,100.105C105.282,100.105 104.764,100.157 104.314,100.157C104.245,100.053 104.21,99.569 104.314,99.466C104.643,99.431 104.919,99.38 105.023,99.328C105.247,99.259 105.299,99.102 105.299,98.48C105.299,97.34 105.317,96.025 105.247,95.369C105.213,95.075 105.092,94.677 104.764,94.4C104.522,94.193 104.192,94.037 103.709,94.037C103.207,94.037 102.637,94.245 102.291,94.556C102.188,94.642 102.101,94.798 102.101,95.127C102.101,96.302 102.101,98.031 102.136,98.844C102.152,99.155 102.222,99.293 102.499,99.362C102.706,99.414 102.913,99.449 103.207,99.466C103.276,99.569 103.242,100.036 103.139,100.157C102.879,100.157 102.36,100.105 101.358,100.105C100.632,100.105 99.75,100.157 99.577,100.157C99.49,100.053 99.49,99.552 99.577,99.466C99.836,99.431 100.009,99.396 100.217,99.344Z" style="fill:rgb(88,89,92);fill-rule:nonzero;"/>
        </g>
        <g transform="matrix(4.16667,0,0,4.16667,0,0)">
            <path d="M71.006,57.281C67.194,59.82 63.459,62.429 60.223,65.661C58.354,67.551 56.657,69.642 55.412,71.983C54.793,73.149 54.28,74.377 53.982,75.632C53.705,76.851 53.596,78.261 54.252,79.098C54.564,79.481 55.068,79.783 55.597,79.788C56.121,79.823 56.684,79.662 57.215,79.378C58.277,78.797 59.219,77.889 60.09,76.94C61.803,74.991 63.428,72.889 64.888,70.673C66.424,68.489 67.627,66.195 68.683,63.72C69.199,62.489 69.677,61.236 70.144,59.977C70.473,59.094 70.757,58.194 71.006,57.281ZM47.985,37.685C48.359,36.757 48.69,35.923 48.915,35.326C48.757,35.724 48.607,36.128 48.441,36.522L47.985,37.685ZM51.304,34.526C51.306,34.53 51.307,34.534 51.309,34.538C51.308,34.535 51.308,34.532 51.307,34.529C51.306,34.528 51.305,34.527 51.304,34.526ZM82.661,46.584C82.757,46.932 82.677,47.134 82.633,47.282C82.578,47.433 82.516,47.547 82.452,47.652C82.319,47.862 82.198,48.01 82.031,48.185C81.583,48.591 81.195,49.06 80.791,49.517C80.396,49.984 79.966,50.417 79.501,50.808C79.041,51.205 78.598,51.624 78.118,51.998C77.726,52.321 77.319,52.627 76.907,52.925C75.98,55.879 74.944,58.765 73.76,61.594C72.552,64.544 71.214,67.447 69.585,70.214C67.935,72.971 66.013,75.551 63.743,77.833C62.6,78.964 61.367,80.025 59.953,80.856C58.558,81.666 56.893,82.321 55.15,82.029C54.289,81.872 53.492,81.519 52.827,80.892C52.162,80.266 51.835,79.36 51.76,78.518C51.616,76.802 52.131,75.207 52.735,73.719C54.013,70.752 55.853,68.096 57.964,65.693C60.126,63.316 62.546,61.261 64.987,59.229C67.38,57.244 69.85,55.359 72.311,53.48C72.988,50.83 73.629,48.172 74.338,45.535L75.409,41.498L75.774,40.123L75.724,40.175L74.281,41.691L71.395,44.724L68.488,47.738L68.11,48.125C67.946,48.282 67.78,48.44 67.527,48.589C67.522,48.593 67.514,48.595 67.508,48.599C66.965,49.028 66.357,49.405 65.503,49.591C65.235,49.641 64.886,49.648 64.601,49.594C64.331,49.548 64.072,49.468 63.828,49.359C63.339,49.147 62.911,48.823 62.569,48.445C61.882,47.682 61.535,46.753 61.373,45.879C61.207,44.995 61.199,44.132 61.254,43.293C61.296,42.46 61.446,41.668 61.657,40.9C61.856,40.131 62.067,39.372 62.301,38.631C62.316,38.581 62.332,38.528 62.348,38.476C62.062,38.737 61.775,39.026 61.505,39.305C59.355,41.498 57.699,44.181 55.91,46.62C55.696,46.927 55.48,47.239 55.297,47.545C55.193,47.708 55.135,47.829 55.032,48.015C54.931,48.208 54.824,48.389 54.71,48.568C54.243,49.277 53.725,49.934 52.931,50.465C52.728,50.592 52.497,50.717 52.212,50.785C51.963,50.844 51.573,50.917 51.147,50.669C50.713,50.395 50.608,49.931 50.599,49.649C50.592,49.332 50.648,49.109 50.699,48.894C50.93,48.051 51.247,47.361 51.542,46.635L53.265,42.334L54.124,40.183L54.517,39.111C54.529,39.075 54.538,39.041 54.55,39.005C54.299,39.246 54.05,39.502 53.802,39.757C53.271,40.311 52.749,40.88 52.231,41.452C51.204,42.597 50.16,43.759 49.22,44.95C48.287,46.203 47.277,47.368 46.504,48.682C46.317,49.005 46.129,49.364 45.901,49.693C45.673,50.016 45.387,50.37 44.96,50.532C44.755,50.613 44.556,50.646 44.373,50.69C44.185,50.745 43.889,50.76 43.681,50.63C43.254,50.372 43.105,49.889 43.151,49.459C43.239,48.995 43.435,48.7 43.569,48.326L44.014,47.256L44.905,45.113L46.66,40.814L48.407,36.51C48.631,35.988 48.831,35.458 49.057,34.936C49.071,34.898 49.092,34.843 49.105,34.808C49.159,34.652 49.221,34.523 49.289,34.417C49.297,34.401 49.302,34.385 49.31,34.369C49.516,34.024 49.955,33.879 50.334,33.976C50.532,34.045 50.761,34.095 50.958,34.191C51.004,34.211 51.049,34.237 51.094,34.269C51.112,34.282 51.131,34.292 51.147,34.305C51.204,34.354 51.253,34.419 51.295,34.5C51.3,34.51 51.31,34.514 51.315,34.526C51.321,34.548 51.322,34.569 51.328,34.591C51.372,34.713 51.395,34.866 51.381,35.068C51.369,35.367 51.286,35.663 51.183,35.954C51.182,35.956 51.181,35.958 51.181,35.961C50.968,36.572 50.558,37.679 50.11,38.88L50.087,38.941L48.487,43.302C48.352,43.665 48.222,44.03 48.101,44.397C48.07,44.489 48.043,44.581 48.02,44.674C48.01,44.719 48,44.768 48.002,44.807C47.99,44.839 48.024,44.803 48.063,44.776C48.198,44.647 48.317,44.491 48.435,44.34C48.908,43.728 49.42,43.145 49.911,42.547L52.886,38.974C53.387,38.383 53.844,37.757 54.408,37.205C54.687,36.929 54.969,36.66 55.299,36.421C55.645,36.18 56.064,36.025 56.517,36.078C56.967,36.122 57.385,36.453 57.55,36.87C57.735,37.284 57.712,37.736 57.63,38.14L57.032,40.396L56.43,42.639L56.279,43.202C56.928,42.315 57.589,41.387 58.28,40.525C59.25,39.298 60.265,38.119 61.322,36.967C61.854,36.393 62.394,35.827 62.974,35.281C63.129,35.141 63.247,35.016 63.453,34.861C63.655,34.704 63.895,34.582 64.165,34.511C64.701,34.355 65.365,34.504 65.783,34.927C66.235,35.321 66.332,36.045 66.317,36.411C66.325,36.847 66.282,37.255 66.233,37.657C66.131,38.458 65.978,39.222 65.842,39.981C65.703,40.74 65.575,41.489 65.489,42.232C65.402,42.947 65.382,43.738 65.343,44.496C65.315,45.244 65.294,46.032 65.405,46.632C65.418,46.711 65.438,46.775 65.457,46.826C65.559,46.801 65.728,46.729 65.904,46.599C65.947,46.569 65.991,46.528 66.034,46.495C66.2,46.281 66.373,46.111 66.535,45.946L67.272,45.208L73.163,39.301C74.165,38.325 75.089,37.312 76.025,36.304L77.432,34.794C77.686,34.531 77.845,34.334 78.228,33.943C78.442,33.787 78.643,33.535 79.247,33.504C79.539,33.491 79.882,33.658 80.049,33.841C80.24,34.03 80.306,34.195 80.371,34.347C80.567,34.925 80.534,35.331 80.485,35.771C80.436,36.151 80.375,36.493 80.313,36.845L79.916,38.92C79.642,40.296 79.34,41.663 79.021,43.026C78.525,45.166 77.99,47.297 77.428,49.423C78.019,48.923 78.617,48.43 79.198,47.919C79.72,47.472 80.222,47.004 80.733,46.547L80.924,46.375C81.012,46.292 81.123,46.195 81.264,46.117C81.408,46.043 81.588,45.952 81.891,45.97C82.04,45.981 82.226,46.046 82.366,46.161C82.507,46.279 82.593,46.394 82.661,46.584ZM77.605,32.379C77.788,32.217 77.789,32.009 77.841,31.813C77.695,31.984 77.509,32.146 77.605,32.379ZM76.437,20.594C75.836,20.32 75.245,20.036 74.656,19.742C72.918,18.902 71.1,18.232 69.23,17.791C67.36,17.349 65.45,17.101 63.542,17.071C62.587,17.045 61.635,17.131 60.687,17.205C59.734,17.235 58.802,17.46 57.866,17.613C54.144,18.356 50.587,19.89 47.572,22.152C44.543,24.389 42.037,27.281 40.212,30.536C38.377,33.79 37.305,37.455 37.08,41.16C36.82,44.855 37.319,48.617 38.666,52.063C39.942,55.533 42.024,58.694 44.649,61.284C47.282,63.878 50.478,65.867 53.939,67.171C53.943,67.172 53.951,67.176 53.956,67.177C54.218,67.264 54.501,67.123 54.589,66.861C54.677,66.599 54.536,66.316 54.274,66.228C47.521,63.936 42.015,58.393 39.591,51.72C37.162,45.048 37.84,37.299 41.521,31.286C45.115,25.248 51.424,20.914 58.282,19.958C59.141,19.865 59.989,19.699 60.855,19.721C61.716,19.701 62.574,19.664 63.432,19.732C65.145,19.85 66.837,20.162 68.473,20.638C70.031,21.094 71.527,21.733 72.948,22.496L73.724,22.938C74.5,23.433 75.201,24.062 75.731,24.86C75.707,24.889 75.683,24.92 75.65,24.942C75.489,25.051 75.247,24.971 75.072,25.075C74.944,25.15 74.819,25.306 74.841,25.433C74.883,25.677 75.137,25.718 75.347,25.746C75.466,25.938 75.549,26.121 75.465,26.261C75.261,26.235 75.142,26.362 75.031,26.523C75.144,26.735 75.447,26.437 75.621,26.486C75.807,26.567 75.837,26.733 75.844,26.913C75.689,27.001 75.427,26.889 75.411,27.175C75.473,27.285 75.683,27.003 75.704,27.224C75.815,27.168 75.758,27.068 75.813,26.998C76.248,26.935 76.579,27.694 76.431,28.033C76.217,28.106 75.826,28.14 75.701,28.382C75.906,28.506 76.303,28.351 76.545,28.177C76.772,28.143 77.004,28.433 77.167,28.564C77.384,28.739 77.531,28.955 77.488,29.177C77.282,29.303 77.299,29.485 77.327,29.67C77.72,29.352 78.218,29.239 78.496,29.431C78.535,29.618 78.465,29.778 78.511,29.968C78.641,29.856 78.797,29.645 79.02,29.633C79.108,29.654 79.186,29.701 79.235,29.825C79.605,29.396 80.097,29.686 80.492,29.608C80.62,29.511 80.809,29.4 80.881,29.405L80.891,29.462L80.952,29.469C81.163,29.901 81.06,30.253 81.286,30.687C81.345,30.525 81.397,30.361 81.403,30.184C81.171,29.911 81.235,29.638 81.071,29.407C81.051,29.418 81.032,29.427 81.012,29.438C81.002,29.443 80.992,29.449 80.982,29.454L80.971,29.397L80.91,29.389C81.004,29.194 81.314,29.213 81.506,29.145C81.798,29.26 82.036,29.432 82.271,29.662C82.328,29.719 82.417,29.751 82.458,29.802C82.637,30.019 82.661,30.335 82.959,30.321C83.076,29.986 82.577,29.719 82.589,29.325C82.656,29.18 82.704,29.03 82.778,28.886C82.937,28.811 83.076,28.73 83.182,28.641C83.68,28.74 84.053,29.173 84.658,28.989C84.733,28.658 84.1,28.57 84.08,28.102C84.175,28.059 84.629,27.987 84.663,27.763C84.571,27.411 84.254,27.66 84.033,27.651C84.002,27.331 83.702,27.046 83.72,26.762C83.733,26.548 83.916,26.48 84.042,26.288C83.843,25.762 84.037,25.491 84.369,25.096C84.557,24.874 84.817,24.726 84.988,24.534C85.2,24.297 85.19,24.052 85.346,23.837C85.428,23.809 85.482,23.904 85.609,23.903C85.878,23.808 85.868,23.644 85.973,23.509C86.167,23.342 86.551,23.221 86.503,22.993C86.408,23.052 86.294,23.006 86.178,23.027C85.849,23.091 85.539,23.279 85.182,23.38C84.618,23.538 83.859,23.623 83.587,23.094C83.732,22.9 83.954,22.705 83.765,22.491C83.539,22.496 83.299,22.54 83.072,22.548C82.782,22.214 83.086,21.847 83.247,21.573C83.296,21.49 83.325,21.376 83.372,21.303C83.566,21.003 84.132,20.968 84.403,20.729C84.511,20.635 84.526,20.298 84.685,20.106C84.955,19.781 85.566,19.503 85.814,19.209C85.9,19.107 85.922,18.943 86,18.839C86.058,18.762 86.148,18.734 86.181,18.677C86.212,18.624 86.202,18.477 86.295,18.311C86.338,18.234 86.445,18.177 86.491,18.106C86.86,17.543 86.498,17.006 85.682,17.579C85.594,17.64 85.529,17.767 85.41,17.857C85.1,18.09 84.729,18.229 84.584,18.46C84.552,18.511 84.487,18.725 84.473,18.756C84.464,18.775 84.535,18.783 84.53,18.794C84.432,19.019 84.162,19.187 84.189,19.449C83.703,19.875 83.345,20.333 83.033,20.802C82.571,21.072 82.148,21.241 81.8,21.21C81.84,20.734 82.457,20.402 82.235,19.86C81.824,19.971 81.881,20.216 81.776,20.51C81.689,20.751 81.545,21.136 81.445,21.26C81.206,21.557 80.966,21.295 80.569,21.549C80.383,21.343 80.18,21.504 80.077,21.262C79.985,21.046 80.394,20.661 80.027,20.44C79.905,20.43 79.845,20.513 79.788,20.565C79.553,20.779 79.739,20.85 79.773,21.117C79.792,21.267 79.729,21.408 79.673,21.509C79.351,21.552 79.055,21.37 78.92,21.088C78.821,20.884 78.923,20.537 78.674,20.401C78.587,20.464 78.544,20.408 78.451,20.484L78.437,20.457L78.407,20.472C78.469,20.121 78.005,20.24 78.009,20.511C78.065,20.619 78.146,20.659 78.24,20.663C78.26,20.652 78.28,20.641 78.3,20.632L78.314,20.658L78.344,20.642C78.352,20.84 78.329,21.124 78.213,21.299C78.116,21.265 78.021,21.232 77.926,21.197C77.868,21.141 77.798,21.12 77.717,21.124C77.378,20.996 77.044,20.861 76.721,20.719L76.437,20.594ZM87.47,24.185C87.306,23.678 86.768,24.234 87.08,24.458C87.256,24.515 87.431,24.302 87.47,24.185ZM85.566,28.105C85.378,28.167 85.373,28.37 85.512,28.439C85.545,28.417 85.569,28.418 85.586,28.434C85.675,28.327 85.722,28.147 85.566,28.105ZM84.478,29.661C84.458,29.672 84.438,29.681 84.418,29.692C84.368,29.78 84.429,29.896 84.53,29.905C84.549,29.895 84.569,29.885 84.59,29.874C84.639,29.787 84.578,29.671 84.478,29.661ZM90.424,30.623C90.268,30.987 90.647,31.355 90.954,31.127C91.282,30.883 90.824,30.378 90.424,30.623ZM86.779,36.304C86.678,36.061 86.514,35.988 86.38,35.834C86.294,36.136 86.643,36.293 86.787,36.538C86.867,36.674 86.855,36.852 86.937,36.969C87.045,37.124 87.256,37.202 87.415,37.228C87.771,36.747 87.12,36.491 86.779,36.304ZM96.143,29.189C96.022,29.261 96.095,29.472 96.207,29.53C96.36,29.539 96.514,29.385 96.493,29.277C96.408,29.163 96.292,29.134 96.143,29.189ZM95.309,25.854C95.327,25.89 95.346,25.926 95.365,25.962C95.561,25.904 95.473,25.712 95.309,25.854ZM92.481,20.677C92.622,20.765 92.753,20.499 92.59,20.449C92.44,20.496 92.512,20.599 92.481,20.677ZM88.363,25.383C88.545,25.53 88.494,25.208 88.363,25.383ZM90.63,21.136C90.81,21.098 91.027,20.886 91.067,20.737C90.955,20.398 90.681,20.488 90.378,20.657C90.256,20.847 90.515,21.129 90.63,21.136ZM90.535,21.9C90.271,22.019 89.949,22.054 89.806,22.179C89.91,22.315 90.096,22.214 90.32,22.217C90.72,22.222 91.041,22.469 91.254,21.965C91.116,21.712 90.876,21.746 90.535,21.9ZM79.19,31.99C79.347,32.073 79.618,31.879 79.624,31.728C79.569,31.534 79.445,31.524 79.353,31.428C79.134,31.574 79.04,31.752 79.19,31.99ZM78.411,30.359C78.258,30.421 78.313,30.535 78.286,30.629C78.4,30.648 78.427,30.449 78.411,30.359ZM79.378,31.042C79.626,30.95 79.507,30.709 79.36,30.643C79.33,30.659 79.3,30.675 79.27,30.69C79.212,30.784 79.317,30.919 79.378,31.042ZM77.493,30.058C77.526,30.121 77.558,30.183 77.591,30.245C77.717,30.138 77.745,30.007 77.646,29.843C77.557,29.905 77.594,29.999 77.493,30.058ZM78.201,31.047C78.277,31.012 78.272,30.957 78.322,30.915C78.299,30.848 78.264,30.815 78.223,30.798C78.149,30.862 78.124,31.015 78.201,31.047ZM89.348,16.745C89.378,16.774 89.423,16.76 89.45,16.794C89.513,16.756 89.479,16.693 89.44,16.629C89.348,16.652 89.408,16.714 89.348,16.745ZM79.268,30.25C79.358,30.165 79.381,30.062 79.292,29.931C79.15,30.005 79.192,30.123 79.268,30.25ZM81.38,31.012C81.389,30.969 81.382,30.92 81.34,30.863C81.328,30.892 81.305,31.116 81.3,31.223C81.358,31.199 81.366,31.304 81.416,31.3C81.55,31.256 81.548,31.177 81.671,31.132C81.638,31.069 81.606,31.008 81.573,30.945C81.492,31.012 81.461,30.945 81.38,31.012ZM85.892,35.92C85.941,35.974 86.042,35.862 85.938,35.862C85.916,35.88 85.922,35.904 85.892,35.92ZM84.636,32.942C84.598,32.661 84.431,32.348 84.184,32.296C84.065,32.022 84.132,31.692 83.972,31.455C83.805,31.209 83.501,31.202 83.276,31.072C83.104,31.121 82.823,31.015 82.727,31.259C82.875,31.579 83.173,31.956 83.299,32.351C83.485,32.468 83.816,32.413 84.054,32.193C84.194,32.304 84.255,32.451 84.22,32.583C84.593,32.929 84.84,33.613 85.227,33.924C85.232,33.516 84.955,33.089 84.636,32.942ZM79.922,30.553C79.864,30.67 79.768,30.777 79.896,30.94C79.947,30.931 79.992,30.94 80.043,30.931C80.186,30.8 80.081,30.609 79.922,30.553ZM81.776,32.639C81.855,32.509 81.829,32.323 81.7,32.204C81.463,32.312 81.582,32.618 81.776,32.639ZM81.58,31.757C81.476,31.777 81.558,31.844 81.576,31.895C81.625,31.861 81.62,31.813 81.58,31.757ZM84.332,17.98C84.329,18.092 84.394,18.132 84.458,18.22C84.873,18.095 84.715,17.652 84.332,17.98ZM90.621,16.486C90.542,16.199 90.072,16.442 89.97,16.623C90.069,16.902 90.601,16.764 90.621,16.486ZM92.992,19.559C92.495,19.712 92.016,19.671 91.583,19.992C91.598,20.1 91.778,20.045 91.876,20.042C91.969,20.04 92.124,20.042 92.244,20.019C92.518,19.967 92.752,19.848 92.999,19.861C93.17,19.871 93.332,19.978 93.467,19.956C93.82,19.897 93.987,19.648 94.1,19.421C93.87,19.099 93.269,19.174 92.992,19.559ZM77.604,19.739C77.865,19.588 78.113,19.302 78.006,19.052C77.979,18.99 77.725,18.788 77.645,18.8C77.52,18.818 77.45,18.94 77.3,19.014C77.232,19.213 77.275,19.439 77.429,19.694C77.499,19.677 77.557,19.692 77.604,19.739ZM94.426,21.424C94.501,21.381 94.522,21.325 94.49,21.255C94.354,21.243 94.301,21.382 94.426,21.424ZM98.139,27.566C97.787,27.803 97.567,27.502 97.342,27.134C97.511,26.811 98.105,26.729 98.26,26.925C98.404,27.106 98.307,27.453 98.139,27.566Z" style="fill:url(#_Radial1);"/>
        </g>
    </g>
    <defs>
        <radialGradient id="_Radial1" cx="0" cy="0" r="1" gradientUnits="userSpaceOnUse" gradientTransform="matrix(-63.8333,63.8333,-63.8333,-63.8333,80.2927,6.16204)"><stop offset="0" style="stop-color:rgb(52,193,210);stop-opacity:1"/><stop offset="0.2" style="stop-color:rgb(50,193,209);stop-opacity:1"/><stop offset="0.3" style="stop-color:rgb(28,189,201);stop-opacity:1"/><stop offset="0.4" style="stop-color:rgb(52,163,183);stop-opacity:1"/><stop offset="0.5" style="stop-color:rgb(101,123,164);stop-opacity:1"/><stop offset="0.6" style="stop-color:rgb(125,81,154);stop-opacity:1"/><stop offset="0.7" style="stop-color:rgb(144,46,144);stop-opacity:1"/><stop offset="1" style="stop-color:rgb(144,46,144);stop-opacity:1"/></radialGradient>
    </defs>
</svg>
