<?xml version="1.0" encoding="UTF-8" standalone="no"?>
<!DOCTYPE svg PUBLIC "-//W3C//DTD SVG 1.1//EN" "http://www.w3.org/Graphics/SVG/1.1/DTD/svg11.dtd">
<svg width="100%" height="100%" viewBox="0 0 1241 324" version="1.1" style="fill-rule:evenodd;clip-rule:evenodd;stroke-linecap:round;stroke-linejoin:round;stroke-miterlimit:1.5;">
    <g transform="matrix(1,0,0,1,-4.73366,-139.095)">
        <g transform="matrix(1,0,0,1,-116.023,102.757)">
            <path d="M173.962,310.806C173.242,311.446 172.392,312.046 171.412,312.606C170.432,313.166 169.362,313.646 168.202,314.046C167.042,314.446 165.832,314.756 164.572,314.976C163.312,315.196 162.042,315.306 160.762,315.306C158.362,315.306 156.242,314.936 154.402,314.196C152.562,313.456 151.022,312.396 149.782,311.016C148.542,309.636 147.602,307.986 146.962,306.066C146.322,304.146 146.002,301.986 146.002,299.586C146.002,297.066 146.352,294.826 147.052,292.866C147.752,290.906 148.762,289.266 150.082,287.946C151.402,286.626 153.002,285.616 154.882,284.916C156.762,284.216 158.862,283.866 161.182,283.866C162.862,283.866 164.522,284.086 166.162,284.526C167.802,284.966 169.252,285.796 170.512,287.016C171.772,288.236 172.742,289.916 173.422,292.056C174.102,294.196 174.342,296.966 174.142,300.366L150.982,300.366C150.982,303.966 151.95,306.656 153.885,308.436C155.82,310.216 158.403,311.106 161.634,311.106C162.712,311.106 163.779,310.976 164.836,310.716C165.893,310.456 166.901,310.146 167.858,309.786C168.816,309.426 169.663,309.026 170.402,308.586C171.14,308.146 171.708,307.746 172.107,307.386L173.962,310.806ZM161.329,287.826C160.014,287.826 158.768,287.966 157.592,288.246C156.415,288.526 155.379,288.996 154.481,289.656C153.584,290.316 152.847,291.176 152.268,292.236C151.69,293.296 151.322,294.606 151.162,296.166L169.762,296.166C169.563,293.526 168.715,291.476 167.22,290.016C165.725,288.556 163.761,287.826 161.329,287.826Z" style="fill-rule:nonzero;"/>
            <path d="M199.102,272.586L208.882,272.586L208.882,304.326C208.882,304.686 208.902,305.136 208.942,305.676C208.982,306.216 209.032,306.786 209.092,307.386C209.152,307.986 209.222,308.576 209.302,309.156C209.382,309.736 209.462,310.246 209.542,310.686L213.562,310.686L213.562,314.586L205.526,314.586L204.922,309.966L204.683,309.966C203.805,311.486 202.498,312.756 200.763,313.776C199.028,314.796 197.023,315.306 194.748,315.306C190.24,315.306 186.918,314.036 184.784,311.496C182.649,308.956 181.582,305.006 181.582,299.646C181.582,297.126 181.941,294.896 182.659,292.956C183.378,291.016 184.405,289.396 185.741,288.096C187.078,286.796 188.684,285.806 190.559,285.126C192.434,284.446 194.528,284.106 196.842,284.106C197.679,284.106 198.427,284.126 199.086,284.166C199.744,284.206 200.353,284.266 200.911,284.346C201.47,284.426 201.998,284.536 202.497,284.676C202.996,284.816 203.544,284.966 204.142,285.126L204.142,276.606L199.102,276.606L199.102,272.586ZM195.531,311.286C197.963,311.286 199.877,310.656 201.272,309.396C202.667,308.136 203.624,306.246 204.142,303.726L204.142,289.806C203.265,289.206 202.279,288.766 201.183,288.486C200.086,288.206 198.641,288.066 196.848,288.066C193.658,288.066 191.147,288.996 189.313,290.856C187.479,292.716 186.562,295.646 186.562,299.646C186.562,301.286 186.712,302.816 187.011,304.236C187.31,305.656 187.808,306.886 188.506,307.926C189.203,308.966 190.13,309.786 191.286,310.386C192.442,310.986 193.857,311.286 195.531,311.286Z" style="fill-rule:nonzero;"/>
            <path d="M220.522,314.586L220.522,310.566L230.962,310.566L230.962,288.606L220.522,288.606L220.522,284.586L235.702,284.586L235.702,310.566L245.902,310.566L245.902,314.586L220.522,314.586ZM229.282,276.066C229.282,274.986 229.642,274.056 230.362,273.276C231.082,272.496 232.002,272.106 233.122,272.106C234.282,272.106 235.252,272.496 236.032,273.276C236.812,274.056 237.202,274.986 237.202,276.066C237.202,277.106 236.812,277.986 236.032,278.706C235.252,279.426 234.282,279.786 233.122,279.786C232.002,279.786 231.082,279.426 230.362,278.706C229.642,277.986 229.282,277.106 229.282,276.066Z" style="fill-rule:nonzero;"/>
            <path d="M252.082,284.586L259.222,284.586L259.222,278.646L263.962,277.326L263.962,284.586L279.982,284.586L279.982,288.606L263.962,288.606L263.962,302.766C263.962,305.686 264.67,307.846 266.085,309.246C267.5,310.646 269.524,311.346 272.155,311.346C273.949,311.346 275.513,311.006 276.849,310.326C278.185,309.646 279.391,308.906 280.468,308.106L282.022,311.646C280.622,312.766 278.952,313.666 277.012,314.346C275.072,315.026 273.082,315.366 271.042,315.366C269.442,315.366 267.932,315.136 266.512,314.676C265.092,314.216 263.842,313.506 262.762,312.546C261.682,311.586 260.822,310.356 260.182,308.856C259.542,307.356 259.222,305.566 259.222,303.486L259.222,288.606L252.082,288.606L252.082,284.586Z" style="fill-rule:nonzero;"/>
            <path d="M292.522,314.586L292.522,310.566L302.962,310.566L302.962,288.606L292.522,288.606L292.522,284.586L307.702,284.586L307.702,310.566L317.902,310.566L317.902,314.586L292.522,314.586ZM301.282,276.066C301.282,274.986 301.642,274.056 302.362,273.276C303.082,272.496 304.002,272.106 305.122,272.106C306.282,272.106 307.252,272.496 308.032,273.276C308.812,274.056 309.202,274.986 309.202,276.066C309.202,277.106 308.812,277.986 308.032,278.706C307.252,279.426 306.282,279.786 305.122,279.786C304.002,279.786 303.082,279.426 302.362,278.706C301.642,277.986 301.282,277.106 301.282,276.066Z" style="fill-rule:nonzero;"/>
            <path d="M327.802,295.086C327.802,294.726 327.792,294.256 327.772,293.676C327.752,293.096 327.722,292.496 327.682,291.876C327.642,291.256 327.592,290.646 327.532,290.046C327.472,289.446 327.402,288.926 327.322,288.486L323.302,288.486L323.302,284.586L331.342,284.586L331.882,289.446L332.182,289.446C332.582,288.766 333.112,288.096 333.772,287.436C334.432,286.776 335.202,286.176 336.082,285.636C336.962,285.096 337.942,284.666 339.022,284.346C340.102,284.026 341.242,283.866 342.442,283.866C344.282,283.866 345.912,284.066 347.332,284.466C348.752,284.866 349.932,285.576 350.872,286.596C351.812,287.616 352.522,288.996 353.002,290.736C353.482,292.476 353.722,294.686 353.722,297.366L353.722,314.586L348.982,314.586L348.982,298.304C348.982,294.991 348.444,292.497 347.368,290.821C346.292,289.145 344.339,288.306 341.509,288.306C340.473,288.306 339.467,288.516 338.49,288.935C337.514,289.354 336.627,289.903 335.83,290.581C335.032,291.26 334.335,292.048 333.737,292.946C333.139,293.843 332.701,294.791 332.422,295.79L332.422,314.586L327.802,314.586L327.802,295.086Z" style="fill-rule:nonzero;"/>
            <path d="M389.662,316.086C389.662,317.966 389.302,319.616 388.582,321.036C387.862,322.456 386.872,323.626 385.612,324.546C384.352,325.466 382.882,326.156 381.202,326.616C379.522,327.076 377.702,327.306 375.742,327.306C373.382,327.306 371.322,327.066 369.562,326.586C367.802,326.106 366.282,325.486 365.002,324.726L367.276,320.466C367.634,320.786 368.103,321.096 368.681,321.396C369.259,321.696 369.927,321.976 370.685,322.236C371.443,322.496 372.25,322.706 373.108,322.866C373.965,323.026 374.813,323.106 375.65,323.106C377.405,323.106 378.87,322.946 380.047,322.626C381.223,322.306 382.171,321.806 382.888,321.126C383.606,320.446 384.125,319.566 384.444,318.486C384.763,317.406 384.922,316.086 384.922,314.526L384.922,311.166L384.683,311.166C383.766,312.486 382.589,313.506 381.153,314.226C379.716,314.946 377.861,315.306 375.587,315.306C371.039,315.306 367.698,314.036 365.564,311.496C363.429,308.956 362.362,305.006 362.362,299.646C362.362,294.526 363.722,290.656 366.442,288.036C369.162,285.416 373.202,284.106 378.562,284.106C381.042,284.106 383.152,284.276 384.892,284.616C386.632,284.956 388.222,285.386 389.662,285.906L389.662,316.086ZM376.281,311.286C378.704,311.286 380.611,310.656 382.002,309.396C383.393,308.136 384.366,306.206 384.922,303.606L384.922,289.386C383.174,288.546 380.731,288.126 377.592,288.126C374.414,288.126 371.911,289.066 370.083,290.946C368.256,292.826 367.342,295.706 367.342,299.586C367.342,301.306 367.501,302.876 367.819,304.296C368.137,305.716 368.643,306.946 369.339,307.986C370.034,309.026 370.948,309.836 372.08,310.416C373.212,310.996 374.613,311.286 376.281,311.286Z" style="fill-rule:nonzero;"/>
            <path d="M436.702,286.926C438.422,285.926 440.362,285.206 442.522,284.766C444.682,284.326 446.802,284.106 448.882,284.106C450.922,284.106 452.592,284.426 453.892,285.066C455.192,285.706 456.212,286.536 456.952,287.556C457.692,288.576 458.192,289.736 458.452,291.036C458.712,292.336 458.842,293.646 458.842,294.966C458.842,296.486 458.802,298.106 458.722,299.826C458.642,301.546 458.582,303.266 458.542,304.986C458.542,306.986 458.662,308.886 458.902,310.686L462.922,310.686L462.922,314.586L454.998,314.586L454.462,310.086L454.161,310.086C453.921,310.446 453.56,310.906 453.078,311.466C452.596,312.026 451.965,312.576 451.182,313.116C450.4,313.656 449.447,314.126 448.324,314.526C447.2,314.926 445.876,315.126 444.351,315.126C441.383,315.126 439.036,314.366 437.31,312.846C435.585,311.326 434.722,309.246 434.722,306.606C434.722,304.566 435.174,302.866 436.076,301.506C436.979,300.146 438.273,299.106 439.959,298.386C441.644,297.666 443.68,297.246 446.067,297.126C448.455,297.006 451.133,297.166 454.102,297.606C454.302,295.766 454.332,294.236 454.192,293.016C454.052,291.796 453.731,290.826 453.229,290.106C452.728,289.386 452.025,288.876 451.122,288.576C450.219,288.276 449.105,288.126 447.781,288.126C445.974,288.126 444.248,288.376 442.603,288.876C440.957,289.376 439.492,289.886 438.208,290.406L436.702,286.926ZM445.582,311.106C446.702,311.106 447.742,310.926 448.702,310.566C449.662,310.206 450.502,309.746 451.222,309.186C451.942,308.626 452.542,308.016 453.022,307.356C453.502,306.696 453.862,306.066 454.102,305.466L454.102,301.266C452.022,300.906 450.102,300.726 448.342,300.726C446.582,300.726 445.062,300.916 443.782,301.296C442.502,301.676 441.502,302.266 440.782,303.066C440.062,303.866 439.702,304.906 439.702,306.186C439.702,307.506 440.152,308.656 441.052,309.636C441.952,310.616 443.462,311.106 445.582,311.106Z" style="fill-rule:nonzero;"/>
            <path d="M471.802,295.086C471.802,294.726 471.792,294.256 471.772,293.676C471.752,293.096 471.722,292.496 471.682,291.876C471.642,291.256 471.592,290.646 471.532,290.046C471.472,289.446 471.402,288.926 471.322,288.486L467.302,288.486L467.302,284.586L475.342,284.586L475.882,289.446L476.182,289.446C476.582,288.766 477.112,288.096 477.772,287.436C478.432,286.776 479.202,286.176 480.082,285.636C480.962,285.096 481.942,284.666 483.022,284.346C484.102,284.026 485.242,283.866 486.442,283.866C488.282,283.866 489.912,284.066 491.332,284.466C492.752,284.866 493.932,285.576 494.872,286.596C495.812,287.616 496.522,288.996 497.002,290.736C497.482,292.476 497.722,294.686 497.722,297.366L497.722,314.586L492.982,314.586L492.982,298.304C492.982,294.991 492.444,292.497 491.368,290.821C490.292,289.145 488.339,288.306 485.509,288.306C484.473,288.306 483.467,288.516 482.49,288.935C481.514,289.354 480.627,289.903 479.83,290.581C479.032,291.26 478.335,292.048 477.737,292.946C477.139,293.843 476.701,294.791 476.422,295.79L476.422,314.586L471.802,314.586L471.802,295.086Z" style="fill-rule:nonzero;"/>
            <path d="M523.102,272.586L532.882,272.586L532.882,304.326C532.882,304.686 532.902,305.136 532.942,305.676C532.982,306.216 533.032,306.786 533.092,307.386C533.152,307.986 533.222,308.576 533.302,309.156C533.382,309.736 533.462,310.246 533.542,310.686L537.562,310.686L537.562,314.586L529.526,314.586L528.922,309.966L528.683,309.966C527.805,311.486 526.498,312.756 524.763,313.776C523.028,314.796 521.023,315.306 518.748,315.306C514.24,315.306 510.918,314.036 508.784,311.496C506.649,308.956 505.582,305.006 505.582,299.646C505.582,297.126 505.941,294.896 506.659,292.956C507.378,291.016 508.405,289.396 509.741,288.096C511.078,286.796 512.684,285.806 514.559,285.126C516.434,284.446 518.528,284.106 520.842,284.106C521.679,284.106 522.427,284.126 523.086,284.166C523.744,284.206 524.353,284.266 524.911,284.346C525.47,284.426 525.998,284.536 526.497,284.676C526.996,284.816 527.544,284.966 528.142,285.126L528.142,276.606L523.102,276.606L523.102,272.586ZM519.531,311.286C521.963,311.286 523.877,310.656 525.272,309.396C526.667,308.136 527.624,306.246 528.142,303.726L528.142,289.806C527.265,289.206 526.279,288.766 525.183,288.486C524.086,288.206 522.641,288.066 520.848,288.066C517.658,288.066 515.147,288.996 513.313,290.856C511.479,292.716 510.562,295.646 510.562,299.646C510.562,301.286 510.712,302.816 511.011,304.236C511.31,305.656 511.808,306.886 512.506,307.926C513.203,308.966 514.13,309.786 515.286,310.386C516.442,310.986 517.857,311.286 519.531,311.286Z" style="fill-rule:nonzero;"/>
            <path d="M580.222,273.006C581.742,272.646 583.382,272.406 585.142,272.286C586.902,272.166 588.642,272.106 590.362,272.106C592.202,272.106 594.072,272.286 595.972,272.646C597.872,273.006 599.602,273.666 601.162,274.626C602.722,275.586 603.992,276.906 604.972,278.586C605.952,280.266 606.442,282.406 606.442,285.006C606.442,287.566 605.982,289.726 605.062,291.486C604.142,293.246 602.922,294.676 601.402,295.776C599.882,296.876 598.142,297.666 596.182,298.146C594.222,298.626 592.202,298.866 590.122,298.866C589.922,298.866 589.592,298.866 589.132,298.866C588.672,298.866 588.192,298.856 587.692,298.836C587.192,298.816 586.702,298.786 586.222,298.746C585.742,298.706 585.402,298.666 585.202,298.626L585.202,314.586L580.222,314.586L580.222,273.006ZM590.502,276.426C589.458,276.426 588.454,276.446 587.491,276.486C586.527,276.526 585.764,276.626 585.202,276.786L585.202,294.186C585.403,294.266 585.724,294.316 586.165,294.336C586.607,294.356 587.069,294.376 587.551,294.396C588.033,294.416 588.494,294.426 588.936,294.426C589.378,294.426 589.699,294.426 589.9,294.426C591.265,294.426 592.62,294.296 593.965,294.036C595.31,293.776 596.525,293.306 597.609,292.626C598.693,291.946 599.566,290.986 600.228,289.746C600.891,288.506 601.222,286.926 601.222,285.006C601.222,283.366 600.911,281.996 600.289,280.896C599.667,279.796 598.844,278.916 597.82,278.256C596.795,277.596 595.641,277.126 594.356,276.846C593.072,276.566 591.787,276.426 590.502,276.426Z" style="fill-rule:nonzero;"/>
            <path d="M614.182,314.586L614.182,310.566L622.282,310.566L622.282,288.606L614.182,288.606L614.182,284.586L625.402,284.586L626.362,288.486L626.662,288.486C628.022,287.246 629.542,286.186 631.222,285.306C632.902,284.426 634.902,283.986 637.222,283.986C638.582,283.986 639.672,284.246 640.492,284.766C641.312,285.286 641.952,286.046 642.412,287.046C642.872,288.046 643.182,289.256 643.342,290.676C643.502,292.096 643.582,293.706 643.582,295.506L639.382,295.566C639.382,293.027 639.132,291.162 638.632,289.972C638.132,288.782 637.222,288.186 635.902,288.186C634.662,288.186 633.542,288.366 632.542,288.725C631.542,289.084 630.672,289.523 629.932,290.041C629.192,290.56 628.562,291.078 628.042,291.597C627.522,292.116 627.142,292.555 626.902,292.913L626.902,310.566L638.422,310.566L638.422,314.586L614.182,314.586Z" style="fill-rule:nonzero;"/>
            <path d="M649.642,299.586C649.642,294.746 650.902,290.916 653.422,288.096C655.942,285.276 659.542,283.866 664.222,283.866C666.742,283.866 668.912,284.276 670.732,285.096C672.552,285.916 674.062,287.026 675.262,288.426C676.462,289.826 677.352,291.486 677.932,293.406C678.512,295.326 678.802,297.386 678.802,299.586C678.802,301.986 678.482,304.156 677.842,306.096C677.202,308.036 676.262,309.686 675.022,311.046C673.782,312.406 672.252,313.456 670.432,314.196C668.612,314.936 666.542,315.306 664.222,315.306C661.742,315.306 659.582,314.896 657.742,314.076C655.902,313.256 654.382,312.146 653.182,310.746C651.982,309.346 651.092,307.686 650.512,305.766C649.932,303.846 649.642,301.786 649.642,299.586ZM654.622,299.586C654.622,300.986 654.792,302.386 655.131,303.786C655.47,305.186 656.018,306.446 656.776,307.566C657.533,308.686 658.52,309.586 659.736,310.266C660.953,310.946 662.438,311.286 664.192,311.286C667.382,311.286 669.785,310.296 671.4,308.316C673.015,306.336 673.822,303.426 673.822,299.586C673.822,298.146 673.653,296.736 673.314,295.356C672.975,293.976 672.416,292.726 671.639,291.606C670.861,290.486 669.864,289.586 668.648,288.906C667.432,288.226 665.947,287.886 664.192,287.886C661.002,287.886 658.61,288.866 657.015,290.826C655.42,292.786 654.622,295.706 654.622,299.586Z" style="fill-rule:nonzero;"/>
            <path d="M685.642,299.586C685.642,294.746 686.902,290.916 689.422,288.096C691.942,285.276 695.542,283.866 700.222,283.866C702.742,283.866 704.912,284.276 706.732,285.096C708.552,285.916 710.062,287.026 711.262,288.426C712.462,289.826 713.352,291.486 713.932,293.406C714.512,295.326 714.802,297.386 714.802,299.586C714.802,301.986 714.482,304.156 713.842,306.096C713.202,308.036 712.262,309.686 711.022,311.046C709.782,312.406 708.252,313.456 706.432,314.196C704.612,314.936 702.542,315.306 700.222,315.306C697.742,315.306 695.582,314.896 693.742,314.076C691.902,313.256 690.382,312.146 689.182,310.746C687.982,309.346 687.092,307.686 686.512,305.766C685.932,303.846 685.642,301.786 685.642,299.586ZM690.622,299.586C690.622,300.986 690.792,302.386 691.131,303.786C691.47,305.186 692.018,306.446 692.776,307.566C693.533,308.686 694.52,309.586 695.736,310.266C696.953,310.946 698.438,311.286 700.192,311.286C703.382,311.286 705.785,310.296 707.4,308.316C709.015,306.336 709.822,303.426 709.822,299.586C709.822,298.146 709.653,296.736 709.314,295.356C708.975,293.976 708.416,292.726 707.639,291.606C706.861,290.486 705.864,289.586 704.648,288.906C703.432,288.226 701.947,287.886 700.192,287.886C697.002,287.886 694.61,288.866 693.015,290.826C691.42,292.786 690.622,295.706 690.622,299.586Z" style="fill-rule:nonzero;"/>
            <path d="M723.502,314.586L723.502,310.566L730.642,310.566L730.642,288.606L723.502,288.606L723.502,284.586L730.642,284.586L730.642,282.906C730.642,279.146 731.622,276.426 733.582,274.746C735.542,273.066 738.342,272.226 741.982,272.226C743.302,272.226 744.482,272.306 745.522,272.466C746.562,272.626 747.682,272.946 748.882,273.426L747.807,277.326C746.771,276.886 745.776,276.596 744.82,276.456C743.864,276.316 742.988,276.246 742.192,276.246C739.563,276.246 737.771,276.896 736.816,278.196C735.86,279.496 735.382,281.626 735.382,284.586L747.802,284.586L747.802,288.606L735.382,288.606L735.382,310.566L747.802,310.566L747.802,314.586L723.502,314.586Z" style="fill-rule:nonzero;"/>
            <path d="M796.222,273.006C797.738,272.726 799.484,272.506 801.46,272.346C803.435,272.186 805.24,272.106 806.876,272.106C808.712,272.106 810.457,272.306 812.113,272.706C813.769,273.106 815.226,273.766 816.483,274.686C817.739,275.606 818.747,276.806 819.505,278.286C820.263,279.766 820.642,281.566 820.642,283.686C820.642,285.326 820.373,286.776 819.834,288.036C819.295,289.296 818.637,290.376 817.859,291.276C817.081,292.176 816.273,292.906 815.435,293.466C814.597,294.026 813.879,294.426 813.28,294.666L824.38,314.586L818.56,314.586L808.66,296.106L801.202,296.106L801.202,314.586L796.222,314.586L796.222,273.006ZM807.022,276.426C806.502,276.426 805.962,276.426 805.402,276.426C804.842,276.426 804.302,276.446 803.782,276.486C803.262,276.526 802.772,276.566 802.312,276.606C801.852,276.646 801.482,276.706 801.202,276.786L801.202,292.266L805.882,292.266C808.642,292.266 810.922,291.586 812.722,290.226C814.522,288.866 815.422,286.746 815.422,283.866C815.422,281.706 814.682,279.926 813.202,278.526C811.722,277.126 809.662,276.426 807.022,276.426Z" style="fill-rule:nonzero;"/>
            <path d="M857.962,310.806C857.242,311.446 856.392,312.046 855.412,312.606C854.432,313.166 853.362,313.646 852.202,314.046C851.042,314.446 849.832,314.756 848.572,314.976C847.312,315.196 846.042,315.306 844.762,315.306C842.362,315.306 840.242,314.936 838.402,314.196C836.562,313.456 835.022,312.396 833.782,311.016C832.542,309.636 831.602,307.986 830.962,306.066C830.322,304.146 830.002,301.986 830.002,299.586C830.002,297.066 830.352,294.826 831.052,292.866C831.752,290.906 832.762,289.266 834.082,287.946C835.402,286.626 837.002,285.616 838.882,284.916C840.762,284.216 842.862,283.866 845.182,283.866C846.862,283.866 848.522,284.086 850.162,284.526C851.802,284.966 853.252,285.796 854.512,287.016C855.772,288.236 856.742,289.916 857.422,292.056C858.102,294.196 858.342,296.966 858.142,300.366L834.982,300.366C834.982,303.966 835.95,306.656 837.885,308.436C839.82,310.216 842.403,311.106 845.634,311.106C846.712,311.106 847.779,310.976 848.836,310.716C849.893,310.456 850.901,310.146 851.858,309.786C852.816,309.426 853.663,309.026 854.402,308.586C855.14,308.146 855.708,307.746 856.107,307.386L857.962,310.806ZM845.329,287.826C844.014,287.826 842.768,287.966 841.592,288.246C840.415,288.526 839.379,288.996 838.481,289.656C837.584,290.316 836.847,291.176 836.268,292.236C835.69,293.296 835.322,294.606 835.162,296.166L853.762,296.166C853.563,293.526 852.715,291.476 851.22,290.016C849.725,288.556 847.761,287.826 845.329,287.826Z" style="fill-rule:nonzero;"/>
            <path d="M868.702,286.926C870.422,285.926 872.362,285.206 874.522,284.766C876.682,284.326 878.802,284.106 880.882,284.106C882.922,284.106 884.592,284.426 885.892,285.066C887.192,285.706 888.212,286.536 888.952,287.556C889.692,288.576 890.192,289.736 890.452,291.036C890.712,292.336 890.842,293.646 890.842,294.966C890.842,296.486 890.802,298.106 890.722,299.826C890.642,301.546 890.582,303.266 890.542,304.986C890.542,306.986 890.662,308.886 890.902,310.686L894.922,310.686L894.922,314.586L886.998,314.586L886.462,310.086L886.161,310.086C885.921,310.446 885.56,310.906 885.078,311.466C884.596,312.026 883.965,312.576 883.182,313.116C882.4,313.656 881.447,314.126 880.324,314.526C879.2,314.926 877.876,315.126 876.351,315.126C873.383,315.126 871.036,314.366 869.31,312.846C867.585,311.326 866.722,309.246 866.722,306.606C866.722,304.566 867.174,302.866 868.076,301.506C868.979,300.146 870.273,299.106 871.959,298.386C873.644,297.666 875.68,297.246 878.067,297.126C880.455,297.006 883.133,297.166 886.102,297.606C886.302,295.766 886.332,294.236 886.192,293.016C886.052,291.796 885.731,290.826 885.229,290.106C884.728,289.386 884.025,288.876 883.122,288.576C882.219,288.276 881.105,288.126 879.781,288.126C877.974,288.126 876.248,288.376 874.603,288.876C872.957,289.376 871.492,289.886 870.208,290.406L868.702,286.926ZM877.582,311.106C878.702,311.106 879.742,310.926 880.702,310.566C881.662,310.206 882.502,309.746 883.222,309.186C883.942,308.626 884.542,308.016 885.022,307.356C885.502,306.696 885.862,306.066 886.102,305.466L886.102,301.266C884.022,300.906 882.102,300.726 880.342,300.726C878.582,300.726 877.062,300.916 875.782,301.296C874.502,301.676 873.502,302.266 872.782,303.066C872.062,303.866 871.702,304.906 871.702,306.186C871.702,307.506 872.152,308.656 873.052,309.636C873.952,310.616 875.462,311.106 877.582,311.106Z" style="fill-rule:nonzero;"/>
            <path d="M919.102,272.586L928.882,272.586L928.882,304.326C928.882,304.686 928.902,305.136 928.942,305.676C928.982,306.216 929.032,306.786 929.092,307.386C929.152,307.986 929.222,308.576 929.302,309.156C929.382,309.736 929.462,310.246 929.542,310.686L933.562,310.686L933.562,314.586L925.526,314.586L924.922,309.966L924.683,309.966C923.805,311.486 922.498,312.756 920.763,313.776C919.028,314.796 917.023,315.306 914.748,315.306C910.24,315.306 906.918,314.036 904.784,311.496C902.649,308.956 901.582,305.006 901.582,299.646C901.582,297.126 901.941,294.896 902.659,292.956C903.378,291.016 904.405,289.396 905.741,288.096C907.078,286.796 908.684,285.806 910.559,285.126C912.434,284.446 914.528,284.106 916.842,284.106C917.679,284.106 918.427,284.126 919.086,284.166C919.744,284.206 920.353,284.266 920.911,284.346C921.47,284.426 921.998,284.536 922.497,284.676C922.996,284.816 923.544,284.966 924.142,285.126L924.142,276.606L919.102,276.606L919.102,272.586ZM915.531,311.286C917.963,311.286 919.877,310.656 921.272,309.396C922.667,308.136 923.624,306.246 924.142,303.726L924.142,289.806C923.265,289.206 922.279,288.766 921.183,288.486C920.086,288.206 918.641,288.066 916.848,288.066C913.658,288.066 911.147,288.996 909.313,290.856C907.479,292.716 906.562,295.646 906.562,299.646C906.562,301.286 906.712,302.816 907.011,304.236C907.31,305.656 907.808,306.886 908.506,307.926C909.203,308.966 910.13,309.786 911.286,310.386C912.442,310.986 913.857,311.286 915.531,311.286Z" style="fill-rule:nonzero;"/>
            <path d="M940.522,314.586L940.522,310.566L950.962,310.566L950.962,288.606L940.522,288.606L940.522,284.586L955.702,284.586L955.702,310.566L965.902,310.566L965.902,314.586L940.522,314.586ZM949.282,276.066C949.282,274.986 949.642,274.056 950.362,273.276C951.082,272.496 952.002,272.106 953.122,272.106C954.282,272.106 955.252,272.496 956.032,273.276C956.812,274.056 957.202,274.986 957.202,276.066C957.202,277.106 956.812,277.986 956.032,278.706C955.252,279.426 954.282,279.786 953.122,279.786C952.002,279.786 951.082,279.426 950.362,278.706C949.642,277.986 949.282,277.106 949.282,276.066Z" style="fill-rule:nonzero;"/>
            <path d="M975.802,295.086C975.802,294.726 975.792,294.256 975.772,293.676C975.752,293.096 975.722,292.496 975.682,291.876C975.642,291.256 975.592,290.646 975.532,290.046C975.472,289.446 975.402,288.926 975.322,288.486L971.302,288.486L971.302,284.586L979.342,284.586L979.882,289.446L980.182,289.446C980.582,288.766 981.112,288.096 981.772,287.436C982.432,286.776 983.202,286.176 984.082,285.636C984.962,285.096 985.942,284.666 987.022,284.346C988.102,284.026 989.242,283.866 990.442,283.866C992.282,283.866 993.912,284.066 995.332,284.466C996.752,284.866 997.932,285.576 998.872,286.596C999.812,287.616 1000.52,288.996 1001,290.736C1001.48,292.476 1001.72,294.686 1001.72,297.366L1001.72,314.586L996.982,314.586L996.982,298.304C996.982,294.991 996.444,292.497 995.368,290.821C994.292,289.145 992.339,288.306 989.509,288.306C988.473,288.306 987.467,288.516 986.49,288.935C985.514,289.354 984.627,289.903 983.83,290.581C983.032,291.26 982.335,292.048 981.737,292.946C981.139,293.843 980.701,294.791 980.422,295.79L980.422,314.586L975.802,314.586L975.802,295.086Z" style="fill-rule:nonzero;"/>
            <path d="M1037.66,316.086C1037.66,317.966 1037.3,319.616 1036.58,321.036C1035.86,322.456 1034.87,323.626 1033.61,324.546C1032.35,325.466 1030.88,326.156 1029.2,326.616C1027.52,327.076 1025.7,327.306 1023.74,327.306C1021.38,327.306 1019.32,327.066 1017.56,326.586C1015.8,326.106 1014.28,325.486 1013,324.726L1015.28,320.466C1015.63,320.786 1016.1,321.096 1016.68,321.396C1017.26,321.696 1017.93,321.976 1018.69,322.236C1019.44,322.496 1020.25,322.706 1021.11,322.866C1021.97,323.026 1022.81,323.106 1023.65,323.106C1025.4,323.106 1026.87,322.946 1028.05,322.626C1029.22,322.306 1030.17,321.806 1030.89,321.126C1031.61,320.446 1032.13,319.566 1032.44,318.486C1032.76,317.406 1032.92,316.086 1032.92,314.526L1032.92,311.166L1032.68,311.166C1031.77,312.486 1030.59,313.506 1029.15,314.226C1027.72,314.946 1025.86,315.306 1023.59,315.306C1019.04,315.306 1015.7,314.036 1013.56,311.496C1011.43,308.956 1010.36,305.006 1010.36,299.646C1010.36,294.526 1011.72,290.656 1014.44,288.036C1017.16,285.416 1021.2,284.106 1026.56,284.106C1029.04,284.106 1031.15,284.276 1032.89,284.616C1034.63,284.956 1036.22,285.386 1037.66,285.906L1037.66,316.086ZM1024.28,311.286C1026.7,311.286 1028.61,310.656 1030,309.396C1031.39,308.136 1032.37,306.206 1032.92,303.606L1032.92,289.386C1031.17,288.546 1028.73,288.126 1025.59,288.126C1022.41,288.126 1019.91,289.066 1018.08,290.946C1016.26,292.826 1015.34,295.706 1015.34,299.586C1015.34,301.306 1015.5,302.876 1015.82,304.296C1016.14,305.716 1016.64,306.946 1017.34,307.986C1018.03,309.026 1018.95,309.836 1020.08,310.416C1021.21,310.996 1022.61,311.286 1024.28,311.286Z" style="fill-rule:nonzero;"/>
            <path d="M1087.22,308.646C1088.42,309.286 1089.77,309.816 1091.27,310.236C1092.77,310.656 1094.28,310.866 1095.8,310.866C1097.12,310.866 1098.36,310.736 1099.52,310.476C1100.68,310.216 1101.69,309.796 1102.55,309.216C1103.41,308.636 1104.09,307.906 1104.59,307.026C1105.09,306.146 1105.34,305.106 1105.34,303.906C1105.34,302.266 1104.79,300.926 1103.69,299.886C1102.59,298.846 1101.22,297.926 1099.58,297.126C1097.94,296.326 1096.16,295.546 1094.24,294.786C1092.32,294.026 1090.54,293.126 1088.9,292.086C1087.26,291.046 1085.89,289.776 1084.79,288.276C1083.69,286.776 1083.14,284.866 1083.14,282.546C1083.14,280.906 1083.47,279.426 1084.13,278.106C1084.79,276.786 1085.72,275.666 1086.92,274.746C1088.12,273.826 1089.57,273.116 1091.27,272.616C1092.97,272.116 1094.86,271.866 1096.94,271.866C1099.34,271.866 1101.52,272.036 1103.48,272.376C1105.44,272.716 1107,273.166 1108.16,273.726L1108.28,273.666L1108.28,273.786L1108.34,273.786L1108.28,273.966L1108.28,283.566L1103.84,283.566L1103.84,277.146C1102.84,276.906 1101.74,276.706 1100.54,276.546C1099.34,276.386 1098.06,276.306 1096.7,276.306C1095.38,276.306 1094.19,276.466 1093.13,276.786C1092.07,277.106 1091.17,277.536 1090.43,278.076C1089.69,278.616 1089.12,279.246 1088.72,279.966C1088.32,280.686 1088.12,281.446 1088.12,282.246C1088.12,283.806 1088.67,285.106 1089.77,286.146C1090.87,287.186 1092.24,288.116 1093.88,288.936C1095.52,289.756 1097.3,290.566 1099.22,291.366C1101.14,292.166 1102.92,293.096 1104.56,294.156C1106.2,295.216 1107.57,296.486 1108.67,297.966C1109.77,299.446 1110.32,301.286 1110.32,303.486C1110.32,305.286 1109.99,306.906 1109.33,308.346C1108.67,309.786 1107.73,311.026 1106.51,312.066C1105.29,313.106 1103.79,313.906 1102.01,314.466C1100.23,315.026 1098.22,315.306 1095.98,315.306C1094.46,315.306 1093.02,315.186 1091.66,314.946C1090.3,314.706 1089.05,314.406 1087.91,314.046C1086.77,313.686 1085.75,313.306 1084.85,312.906C1083.95,312.506 1083.24,312.166 1082.72,311.886L1082.78,311.706L1082.78,301.986L1087.22,301.986L1087.22,308.646Z" style="fill-rule:nonzero;"/>
            <path d="M1145.96,310.806C1145.24,311.446 1144.39,312.046 1143.41,312.606C1142.43,313.166 1141.36,313.646 1140.2,314.046C1139.04,314.446 1137.83,314.756 1136.57,314.976C1135.31,315.196 1134.04,315.306 1132.76,315.306C1130.36,315.306 1128.24,314.936 1126.4,314.196C1124.56,313.456 1123.02,312.396 1121.78,311.016C1120.54,309.636 1119.6,307.986 1118.96,306.066C1118.32,304.146 1118,301.986 1118,299.586C1118,297.066 1118.35,294.826 1119.05,292.866C1119.75,290.906 1120.76,289.266 1122.08,287.946C1123.4,286.626 1125,285.616 1126.88,284.916C1128.76,284.216 1130.86,283.866 1133.18,283.866C1134.86,283.866 1136.52,284.086 1138.16,284.526C1139.8,284.966 1141.25,285.796 1142.51,287.016C1143.77,288.236 1144.74,289.916 1145.42,292.056C1146.1,294.196 1146.34,296.966 1146.14,300.366L1122.98,300.366C1122.98,303.966 1123.95,306.656 1125.88,308.436C1127.82,310.216 1130.4,311.106 1133.63,311.106C1134.71,311.106 1135.78,310.976 1136.84,310.716C1137.89,310.456 1138.9,310.146 1139.86,309.786C1140.82,309.426 1141.66,309.026 1142.4,308.586C1143.14,308.146 1143.71,307.746 1144.11,307.386L1145.96,310.806ZM1133.33,287.826C1132.01,287.826 1130.77,287.966 1129.59,288.246C1128.41,288.526 1127.38,288.996 1126.48,289.656C1125.58,290.316 1124.85,291.176 1124.27,292.236C1123.69,293.296 1123.32,294.606 1123.16,296.166L1141.76,296.166C1141.56,293.526 1140.71,291.476 1139.22,290.016C1137.73,288.556 1135.76,287.826 1133.33,287.826Z" style="fill-rule:nonzero;"/>
            <path d="M1154.18,314.586L1154.18,310.566L1162.28,310.566L1162.28,288.606L1154.18,288.606L1154.18,284.586L1165.4,284.586L1166.36,288.486L1166.66,288.486C1168.02,287.246 1169.54,286.186 1171.22,285.306C1172.9,284.426 1174.9,283.986 1177.22,283.986C1178.58,283.986 1179.67,284.246 1180.49,284.766C1181.31,285.286 1181.95,286.046 1182.41,287.046C1182.87,288.046 1183.18,289.256 1183.34,290.676C1183.5,292.096 1183.58,293.706 1183.58,295.506L1179.38,295.566C1179.38,293.027 1179.13,291.162 1178.63,289.972C1178.13,288.782 1177.22,288.186 1175.9,288.186C1174.66,288.186 1173.54,288.366 1172.54,288.725C1171.54,289.084 1170.67,289.523 1169.93,290.041C1169.19,290.56 1168.56,291.078 1168.04,291.597C1167.52,292.116 1167.14,292.555 1166.9,292.913L1166.9,310.566L1178.42,310.566L1178.42,314.586L1154.18,314.586Z" style="fill-rule:nonzero;"/>
            <path d="M1204.31,308.766L1204.96,308.766L1214.36,284.586L1219.58,284.586L1206.92,314.586L1201.7,314.586L1188.8,284.586L1194.32,284.586L1204.31,308.766Z" style="fill-rule:nonzero;"/>
            <path d="M1228.52,314.586L1228.52,310.566L1238.96,310.566L1238.96,288.606L1228.52,288.606L1228.52,284.586L1243.7,284.586L1243.7,310.566L1253.9,310.566L1253.9,314.586L1228.52,314.586ZM1237.28,276.066C1237.28,274.986 1237.64,274.056 1238.36,273.276C1239.08,272.496 1240,272.106 1241.12,272.106C1242.28,272.106 1243.25,272.496 1244.03,273.276C1244.81,274.056 1245.2,274.986 1245.2,276.066C1245.2,277.106 1244.81,277.986 1244.03,278.706C1243.25,279.426 1242.28,279.786 1241.12,279.786C1240,279.786 1239.08,279.426 1238.36,278.706C1237.64,277.986 1237.28,277.106 1237.28,276.066Z" style="fill-rule:nonzero;"/>
            <path d="M1284.56,289.206C1283.64,288.886 1282.65,288.616 1281.59,288.396C1280.53,288.176 1279.48,288.066 1278.44,288.066C1274.52,288.066 1271.6,288.989 1269.68,290.834C1267.76,292.679 1266.8,295.606 1266.8,299.616C1266.8,301.381 1267.08,302.956 1267.64,304.34C1268.2,305.723 1269,306.896 1270.04,307.859C1271.08,308.821 1272.33,309.563 1273.79,310.085C1275.25,310.606 1276.86,310.866 1278.62,310.866C1280.5,310.866 1282.33,310.541 1284.11,309.89C1285.89,309.239 1287.38,308.385 1288.58,307.326L1290.68,310.806C1290.12,311.286 1289.42,311.786 1288.58,312.306C1287.74,312.826 1286.77,313.316 1285.67,313.776C1284.57,314.236 1283.35,314.606 1282.01,314.886C1280.67,315.166 1279.22,315.306 1277.66,315.306C1275.06,315.306 1272.77,314.936 1270.79,314.196C1268.81,313.456 1267.16,312.396 1265.84,311.016C1264.52,309.636 1263.52,307.976 1262.84,306.036C1262.16,304.096 1261.82,301.946 1261.82,299.586C1261.82,297.066 1262.17,294.826 1262.87,292.866C1263.57,290.906 1264.58,289.266 1265.9,287.946C1267.22,286.626 1268.82,285.616 1270.7,284.916C1272.58,284.216 1274.68,283.866 1277,283.866C1279.96,283.866 1282.37,284.126 1284.23,284.646C1286.09,285.166 1287.66,285.746 1288.94,286.386L1288.88,286.566L1288.88,294.906L1284.56,294.906L1284.56,289.206Z" style="fill-rule:nonzero;"/>
            <path d="M1325.96,310.806C1325.24,311.446 1324.39,312.046 1323.41,312.606C1322.43,313.166 1321.36,313.646 1320.2,314.046C1319.04,314.446 1317.83,314.756 1316.57,314.976C1315.31,315.196 1314.04,315.306 1312.76,315.306C1310.36,315.306 1308.24,314.936 1306.4,314.196C1304.56,313.456 1303.02,312.396 1301.78,311.016C1300.54,309.636 1299.6,307.986 1298.96,306.066C1298.32,304.146 1298,301.986 1298,299.586C1298,297.066 1298.35,294.826 1299.05,292.866C1299.75,290.906 1300.76,289.266 1302.08,287.946C1303.4,286.626 1305,285.616 1306.88,284.916C1308.76,284.216 1310.86,283.866 1313.18,283.866C1314.86,283.866 1316.52,284.086 1318.16,284.526C1319.8,284.966 1321.25,285.796 1322.51,287.016C1323.77,288.236 1324.74,289.916 1325.42,292.056C1326.1,294.196 1326.34,296.966 1326.14,300.366L1302.98,300.366C1302.98,303.966 1303.95,306.656 1305.88,308.436C1307.82,310.216 1310.4,311.106 1313.63,311.106C1314.71,311.106 1315.78,310.976 1316.84,310.716C1317.89,310.456 1318.9,310.146 1319.86,309.786C1320.82,309.426 1321.66,309.026 1322.4,308.586C1323.14,308.146 1323.71,307.746 1324.11,307.386L1325.96,310.806ZM1313.33,287.826C1312.01,287.826 1310.77,287.966 1309.59,288.246C1308.41,288.526 1307.38,288.996 1306.48,289.656C1305.58,290.316 1304.85,291.176 1304.27,292.236C1303.69,293.296 1303.32,294.606 1303.16,296.166L1321.76,296.166C1321.56,293.526 1320.71,291.476 1319.22,290.016C1317.73,288.556 1315.76,287.826 1313.33,287.826Z" style="fill-rule:nonzero;"/>
            <path d="M1356.44,306.486C1356.44,305.206 1355.94,304.216 1354.95,303.516C1353.95,302.816 1352.71,302.256 1351.24,301.836C1349.76,301.416 1348.16,301.026 1346.42,300.666C1344.69,300.306 1343.08,299.826 1341.61,299.226C1340.13,298.626 1338.89,297.816 1337.9,296.796C1336.9,295.776 1336.4,294.346 1336.4,292.506C1336.4,290.986 1336.73,289.686 1337.39,288.606C1338.05,287.526 1338.92,286.636 1340,285.936C1341.08,285.236 1342.34,284.716 1343.78,284.376C1345.22,284.036 1346.72,283.866 1348.28,283.866C1351.08,283.866 1353.49,284.216 1355.51,284.916C1357.53,285.616 1359.14,286.346 1360.34,287.106L1358.43,290.886C1357.11,290.166 1355.69,289.476 1354.15,288.816C1352.62,288.156 1350.69,287.826 1348.38,287.826C1347.5,287.826 1346.63,287.916 1345.78,288.096C1344.92,288.276 1344.14,288.546 1343.44,288.906C1342.75,289.266 1342.19,289.736 1341.77,290.316C1341.35,290.896 1341.14,291.606 1341.14,292.446C1341.14,293.486 1341.64,294.286 1342.64,294.846C1343.63,295.406 1344.87,295.876 1346.35,296.256C1347.82,296.636 1349.43,296.996 1351.16,297.336C1352.9,297.676 1354.5,298.166 1355.98,298.806C1357.45,299.446 1358.69,300.306 1359.69,301.386C1360.68,302.466 1361.18,303.926 1361.18,305.766C1361.18,308.526 1360.09,310.806 1357.91,312.606C1355.73,314.406 1352.46,315.306 1348.1,315.306C1346.78,315.306 1345.48,315.186 1344.2,314.946C1342.92,314.706 1341.72,314.386 1340.6,313.986C1339.48,313.586 1338.46,313.136 1337.54,312.636C1336.62,312.136 1335.86,311.626 1335.26,311.106L1337.66,307.206C1338.13,307.686 1338.77,308.176 1339.57,308.676C1340.37,309.176 1341.25,309.626 1342.2,310.026C1343.16,310.426 1344.19,310.746 1345.28,310.986C1346.38,311.226 1347.49,311.346 1348.61,311.346C1349.68,311.346 1350.69,311.256 1351.63,311.076C1352.56,310.896 1353.39,310.616 1354.11,310.236C1354.83,309.856 1355.39,309.356 1355.81,308.736C1356.23,308.116 1356.44,307.366 1356.44,306.486Z" style="fill-rule:nonzero;"/>
        </g>
        <g transform="matrix(0.967562,-0.252632,0.252632,0.967562,-184.496,181.226)">
            <path d="M408.999,268.643C408.687,268.518 407.952,268.174 406.796,267.612C405.64,267.049 404.562,266.393 403.562,265.643C402.562,264.893 401.858,264.112 401.452,263.299C401.046,262.487 401.437,261.799 402.624,261.237C403.312,261.862 404.265,262.612 405.483,263.487C406.702,264.362 407.874,265.018 408.999,265.455C412.437,265.643 415.78,265.659 419.03,265.502C422.28,265.346 425.452,264.94 428.546,264.284C431.64,263.627 434.64,262.627 437.546,261.284C440.452,259.94 443.28,258.174 446.03,255.987C449.093,253.424 451.108,251.065 452.077,248.909C453.046,246.752 453.233,244.752 452.64,242.909C452.046,241.065 450.827,239.346 448.983,237.752C447.14,236.159 444.952,234.659 442.421,233.252C439.89,231.846 437.187,230.534 434.312,229.315C431.437,228.096 428.687,226.909 426.062,225.752C423.437,224.596 421.062,223.455 418.937,222.33C416.812,221.205 415.249,220.049 414.249,218.862C413.999,217.799 414.53,216.549 415.843,215.112C417.155,213.674 418.968,212.19 421.28,210.659C423.593,209.127 426.249,207.596 429.249,206.065C432.249,204.534 435.327,203.143 438.483,201.893C441.64,200.643 444.702,199.58 447.671,198.705C450.64,197.83 453.249,197.284 455.499,197.065C457.749,196.846 459.468,197.018 460.655,197.58C461.843,198.143 462.249,199.205 461.874,200.768C461.437,200.83 460.312,201.112 458.499,201.612C456.687,202.112 454.483,202.737 451.89,203.487C449.296,204.237 446.483,205.112 443.452,206.112C440.421,207.112 437.437,208.159 434.499,209.252C431.562,210.346 428.843,211.455 426.343,212.58C423.843,213.705 421.874,214.799 420.437,215.862C418.999,216.924 418.202,217.893 418.046,218.768C417.89,219.643 418.718,220.393 420.53,221.018C429.655,223.768 436.827,226.69 442.046,229.784C447.265,232.877 450.937,236.002 453.062,239.159C455.187,242.315 455.999,245.424 455.499,248.487C454.999,251.549 453.64,254.393 451.421,257.018C449.202,259.643 446.312,261.971 442.749,264.002C439.187,266.034 435.421,267.612 431.452,268.737C427.483,269.862 423.515,270.455 419.546,270.518C415.577,270.58 412.062,269.955 408.999,268.643Z" style="fill:rgb(193,0,0);fill-rule:nonzero;"/>
            <path d="M465.999,268.643C464.124,268.018 462.702,267.065 461.733,265.784C460.765,264.502 460.124,263.08 459.812,261.518C459.499,259.955 459.452,258.315 459.671,256.596C459.89,254.877 460.249,253.237 460.749,251.674C462.624,249.674 464.733,247.377 467.077,244.784C469.421,242.19 471.905,239.643 474.53,237.143C477.155,234.643 479.89,232.315 482.733,230.159C485.577,228.002 488.468,226.362 491.405,225.237C492.405,224.799 493.202,224.815 493.796,225.284C494.39,225.752 494.812,226.487 495.062,227.487C495.312,228.487 495.421,229.643 495.39,230.955C495.358,232.268 495.249,233.549 495.062,234.799C494.874,236.049 494.624,237.174 494.312,238.174C493.999,239.174 493.687,239.862 493.374,240.237C492.624,241.112 491.171,242.143 489.015,243.33C486.858,244.518 484.468,245.815 481.843,247.221C479.218,248.627 476.593,250.08 473.968,251.58C471.343,253.08 469.187,254.565 467.499,256.034C465.812,257.502 464.812,258.955 464.499,260.393C464.187,261.83 465.062,263.143 467.124,264.33C469.249,264.58 471.827,264.471 474.858,264.002C477.89,263.534 480.983,262.909 484.14,262.127C487.296,261.346 490.343,260.534 493.28,259.69C496.218,258.846 498.624,258.174 500.499,257.674L501.624,258.705C500.249,260.518 497.999,262.174 494.874,263.674C491.749,265.174 488.374,266.409 484.749,267.377C481.124,268.346 477.593,268.971 474.155,269.252C470.718,269.534 467.999,269.33 465.999,268.643ZM488.405,232.83C488.343,232.768 487.874,233.034 486.999,233.627C486.124,234.221 485.046,235.002 483.765,235.971C482.483,236.94 481.108,238.002 479.64,239.159C478.171,240.315 476.827,241.393 475.608,242.393C474.39,243.393 473.374,244.252 472.562,244.971C471.749,245.69 471.405,246.049 471.53,246.049C472.53,246.237 473.827,246.096 475.421,245.627C477.015,245.159 478.671,244.487 480.39,243.612C482.108,242.737 483.749,241.752 485.312,240.659C486.874,239.565 488.108,238.487 489.015,237.424C489.921,236.362 490.39,235.424 490.421,234.612C490.452,233.799 489.78,233.205 488.405,232.83Z" style="fill:rgb(193,0,0);fill-rule:nonzero;"/>
            <path d="M506.78,268.643C504.905,268.018 503.483,267.065 502.515,265.784C501.546,264.502 500.905,263.08 500.593,261.518C500.28,259.955 500.233,258.315 500.452,256.596C500.671,254.877 501.03,253.237 501.53,251.674C503.405,249.674 505.515,247.377 507.858,244.784C510.202,242.19 512.687,239.643 515.312,237.143C517.937,234.643 520.671,232.315 523.515,230.159C526.358,228.002 529.249,226.362 532.187,225.237C533.187,224.799 533.983,224.815 534.577,225.284C535.171,225.752 535.593,226.487 535.843,227.487C536.093,228.487 536.202,229.643 536.171,230.955C536.14,232.268 536.03,233.549 535.843,234.799C535.655,236.049 535.405,237.174 535.093,238.174C534.78,239.174 534.468,239.862 534.155,240.237C533.405,241.112 531.952,242.143 529.796,243.33C527.64,244.518 525.249,245.815 522.624,247.221C519.999,248.627 517.374,250.08 514.749,251.58C512.124,253.08 509.968,254.565 508.28,256.034C506.593,257.502 505.593,258.955 505.28,260.393C504.968,261.83 505.843,263.143 507.905,264.33C510.03,264.58 512.608,264.471 515.64,264.002C518.671,263.534 521.765,262.909 524.921,262.127C528.077,261.346 531.124,260.534 534.062,259.69C536.999,258.846 539.405,258.174 541.28,257.674L542.405,258.705C541.03,260.518 538.78,262.174 535.655,263.674C532.53,265.174 529.155,266.409 525.53,267.377C521.905,268.346 518.374,268.971 514.937,269.252C511.499,269.534 508.78,269.33 506.78,268.643ZM529.187,232.83C529.124,232.768 528.655,233.034 527.78,233.627C526.905,234.221 525.827,235.002 524.546,235.971C523.265,236.94 521.89,238.002 520.421,239.159C518.952,240.315 517.608,241.393 516.39,242.393C515.171,243.393 514.155,244.252 513.343,244.971C512.53,245.69 512.187,246.049 512.312,246.049C513.312,246.237 514.608,246.096 516.202,245.627C517.796,245.159 519.452,244.487 521.171,243.612C522.89,242.737 524.53,241.752 526.093,240.659C527.655,239.565 528.89,238.487 529.796,237.424C530.702,236.362 531.171,235.424 531.202,234.612C531.233,233.799 530.562,233.205 529.187,232.83Z" style="fill:rgb(193,0,0);fill-rule:nonzero;"/>
            <path d="M660.905,275.955C660.843,275.893 660.812,275.721 660.812,275.44C660.812,275.159 660.843,274.955 660.905,274.83C660.968,274.705 661.093,274.33 661.28,273.705C661.468,273.08 661.687,272.424 661.937,271.737C662.187,271.049 662.405,270.393 662.593,269.768C662.78,269.143 662.905,268.737 662.968,268.549C664.78,262.737 666.374,257.534 667.749,252.94C669.124,248.346 670.437,243.862 671.687,239.487C672.937,235.112 674.171,230.596 675.39,225.94C676.608,221.284 677.968,215.987 679.468,210.049L679.468,207.987C677.655,207.362 675.702,207.424 673.608,208.174C671.515,208.924 669.374,210.143 667.187,211.83C664.999,213.518 662.78,215.534 660.53,217.877C658.28,220.221 656.093,222.69 653.968,225.284C651.843,227.877 649.78,230.44 647.78,232.971C645.78,235.502 643.937,237.815 642.249,239.909C640.562,242.002 639.046,243.721 637.702,245.065C636.358,246.409 635.28,247.174 634.468,247.362C633.905,247.487 633.218,247.409 632.405,247.127C631.593,246.846 631.187,246.549 631.187,246.237L631.187,239.862C631.374,239.174 631.64,238.08 631.983,236.58C632.327,235.08 632.702,233.393 633.108,231.518C633.515,229.643 633.952,227.674 634.421,225.612C634.89,223.549 635.327,221.58 635.733,219.705C636.14,217.83 636.499,216.159 636.812,214.69C637.124,213.221 637.374,212.112 637.562,211.362C637.874,209.924 638.171,208.518 638.452,207.143C638.733,205.768 638.78,204.33 638.593,202.83C636.718,202.205 634.718,202.69 632.593,204.284C630.468,205.877 628.296,208.205 626.077,211.268C623.858,214.33 621.624,217.893 619.374,221.955C617.124,226.018 614.937,230.205 612.812,234.518C610.687,238.83 608.64,243.08 606.671,247.268C604.702,251.455 602.905,255.159 601.28,258.377C599.655,261.596 598.233,264.159 597.015,266.065C595.796,267.971 594.843,268.799 594.155,268.549C593.28,268.299 592.952,267.268 593.171,265.455C593.39,263.643 593.999,261.346 594.999,258.565C595.999,255.784 597.28,252.627 598.843,249.096C600.405,245.565 602.108,241.924 603.952,238.174C605.796,234.424 607.687,230.674 609.624,226.924C611.562,223.174 613.405,219.705 615.155,216.518C616.905,213.33 618.452,210.534 619.796,208.127C621.14,205.721 622.124,203.955 622.749,202.83C624.062,203.33 625.218,203.502 626.218,203.346C627.218,203.19 628.155,202.862 629.03,202.362C629.905,201.862 630.765,201.268 631.608,200.58C632.452,199.893 633.405,199.237 634.468,198.612C636.718,197.237 638.499,196.643 639.812,196.83C641.124,197.018 642.077,197.705 642.671,198.893C643.265,200.08 643.562,201.69 643.562,203.721C643.562,205.752 643.405,207.955 643.093,210.33C642.78,212.705 642.358,215.127 641.827,217.596C641.296,220.065 640.78,222.346 640.28,224.44C639.78,226.534 639.358,228.315 639.015,229.784C638.671,231.252 638.53,232.174 638.593,232.549C639.093,232.799 639.515,232.768 639.858,232.455C640.202,232.143 640.499,231.83 640.749,231.518C640.937,231.205 641.39,230.612 642.108,229.737C642.827,228.862 643.655,227.846 644.593,226.69C645.53,225.534 646.53,224.299 647.593,222.987C648.655,221.674 649.671,220.44 650.64,219.284C651.608,218.127 652.437,217.112 653.124,216.237C653.812,215.362 654.28,214.768 654.53,214.455C659.968,210.143 664.577,206.94 668.358,204.846C672.14,202.752 675.202,201.58 677.546,201.33C679.89,201.08 681.593,201.643 682.655,203.018C683.718,204.393 684.28,206.346 684.343,208.877C684.405,211.409 684.03,214.44 683.218,217.971C682.405,221.502 681.312,225.299 679.937,229.362C679.749,229.924 679.39,231.096 678.858,232.877C678.327,234.659 677.687,236.752 676.937,239.159C676.187,241.565 675.421,244.112 674.64,246.799C673.858,249.487 673.093,252.034 672.343,254.44C671.593,256.846 670.952,258.94 670.421,260.721C669.89,262.502 669.53,263.674 669.343,264.237C669.343,264.299 669.28,264.705 669.155,265.455C669.03,266.205 668.827,267.096 668.546,268.127C668.265,269.159 667.937,270.252 667.562,271.409C667.187,272.565 666.718,273.612 666.155,274.549C665.593,275.487 664.952,276.205 664.233,276.705C663.515,277.205 662.718,277.299 661.843,276.987C661.78,276.987 661.624,276.846 661.374,276.565C661.124,276.284 660.968,276.08 660.905,275.955Z" style="fill:rgb(193,0,0);fill-rule:nonzero;"/>
            <path d="M693.062,268.643C691.187,268.018 689.765,267.065 688.796,265.784C687.827,264.502 687.187,263.08 686.874,261.518C686.562,259.955 686.515,258.315 686.733,256.596C686.952,254.877 687.312,253.237 687.812,251.674C689.687,249.674 691.796,247.377 694.14,244.784C696.483,242.19 698.968,239.643 701.593,237.143C704.218,234.643 706.952,232.315 709.796,230.159C712.64,228.002 715.53,226.362 718.468,225.237C719.468,224.799 720.265,224.815 720.858,225.284C721.452,225.752 721.874,226.487 722.124,227.487C722.374,228.487 722.483,229.643 722.452,230.955C722.421,232.268 722.312,233.549 722.124,234.799C721.937,236.049 721.687,237.174 721.374,238.174C721.062,239.174 720.749,239.862 720.437,240.237C719.687,241.112 718.233,242.143 716.077,243.33C713.921,244.518 711.53,245.815 708.905,247.221C706.28,248.627 703.655,250.08 701.03,251.58C698.405,253.08 696.249,254.565 694.562,256.034C692.874,257.502 691.874,258.955 691.562,260.393C691.249,261.83 692.124,263.143 694.187,264.33C696.312,264.58 698.89,264.471 701.921,264.002C704.952,263.534 708.046,262.909 711.202,262.127C714.358,261.346 717.405,260.534 720.343,259.69C723.28,258.846 725.687,258.174 727.562,257.674L728.687,258.705C727.312,260.518 725.062,262.174 721.937,263.674C718.812,265.174 715.437,266.409 711.812,267.377C708.187,268.346 704.655,268.971 701.218,269.252C697.78,269.534 695.062,269.33 693.062,268.643ZM715.468,232.83C715.405,232.768 714.937,233.034 714.062,233.627C713.187,234.221 712.108,235.002 710.827,235.971C709.546,236.94 708.171,238.002 706.702,239.159C705.233,240.315 703.89,241.393 702.671,242.393C701.452,243.393 700.437,244.252 699.624,244.971C698.812,245.69 698.468,246.049 698.593,246.049C699.593,246.237 700.89,246.096 702.483,245.627C704.077,245.159 705.733,244.487 707.452,243.612C709.171,242.737 710.812,241.752 712.374,240.659C713.937,239.565 715.171,238.487 716.077,237.424C716.983,236.362 717.452,235.424 717.483,234.612C717.515,233.799 716.843,233.205 715.468,232.83Z" style="fill:rgb(193,0,0);fill-rule:nonzero;"/>
            <path d="M769.093,287.018C768.905,286.893 768.608,286.596 768.202,286.127C767.796,285.659 767.468,285.174 767.218,284.674C766.968,284.174 766.858,283.737 766.89,283.362C766.921,282.987 767.28,282.799 767.968,282.799C769.28,284.612 771.124,285.299 773.499,284.862C775.874,284.424 778.437,283.346 781.187,281.627C783.937,279.909 786.733,277.752 789.577,275.159C792.421,272.565 794.983,269.987 797.265,267.424C799.546,264.862 801.421,262.549 802.89,260.487C804.358,258.424 805.093,257.049 805.093,256.362C805.093,256.174 804.843,255.877 804.343,255.471C803.843,255.065 803.265,254.643 802.608,254.205C801.952,253.768 801.343,253.362 800.78,252.987C800.218,252.612 799.874,252.33 799.749,252.143C799.937,251.518 800.53,251.034 801.53,250.69C802.53,250.346 803.655,250.034 804.905,249.752C806.155,249.471 807.39,249.19 808.608,248.909C809.827,248.627 810.749,248.268 811.374,247.83C814.687,243.018 817.577,238.69 820.046,234.846C822.515,231.002 824.858,227.221 827.077,223.502C829.296,219.784 831.562,215.955 833.874,212.018C836.187,208.08 838.843,203.643 841.843,198.705C842.655,197.33 843.312,196.862 843.812,197.299C844.312,197.737 844.687,198.799 844.937,200.487C845.187,202.174 845.343,204.315 845.405,206.909C845.468,209.502 845.468,212.299 845.405,215.299C845.343,218.299 845.233,221.362 845.077,224.487C844.921,227.612 844.765,230.487 844.608,233.112C844.452,235.737 844.327,238.002 844.233,239.909C844.14,241.815 844.124,243.049 844.187,243.612C844.437,246.799 844.608,249.565 844.702,251.909C844.796,254.252 845.093,256.409 845.593,258.377C846.093,260.346 846.952,262.252 848.171,264.096C849.39,265.94 851.249,267.955 853.749,270.143C851.687,270.83 849.983,270.784 848.64,270.002C847.296,269.221 846.202,268.034 845.358,266.44C844.515,264.846 843.827,263.002 843.296,260.909C842.765,258.815 842.265,256.784 841.796,254.815C841.327,252.846 840.796,251.127 840.202,249.659C839.608,248.19 838.812,247.237 837.812,246.799C837.749,246.799 837.577,246.784 837.296,246.752C837.015,246.721 836.702,246.705 836.358,246.705C836.015,246.705 835.687,246.721 835.374,246.752C835.062,246.784 834.843,246.799 834.718,246.799C834.155,246.924 833.108,247.174 831.577,247.549C830.046,247.924 828.374,248.33 826.562,248.768C824.749,249.205 823.015,249.643 821.358,250.08C819.702,250.518 818.499,250.83 817.749,251.018C816.187,251.455 814.546,252.455 812.827,254.018C811.108,255.58 809.296,257.471 807.39,259.69C805.483,261.909 803.515,264.33 801.483,266.955C799.452,269.58 797.374,272.143 795.249,274.643C793.124,277.143 790.968,279.455 788.78,281.58C786.593,283.705 784.405,285.424 782.218,286.737C780.03,288.049 777.827,288.784 775.608,288.94C773.39,289.096 771.218,288.455 769.093,287.018ZM819.905,245.768C820.03,245.83 820.358,245.862 820.89,245.862C821.421,245.862 821.78,245.83 821.968,245.768C823.093,245.58 824.499,245.362 826.187,245.112C827.874,244.862 829.562,244.565 831.249,244.221C832.937,243.877 834.499,243.471 835.937,243.002C837.374,242.534 838.374,242.018 838.937,241.455C838.937,241.455 839.03,240.799 839.218,239.487C839.405,238.174 839.624,236.502 839.874,234.471C840.124,232.44 840.39,230.19 840.671,227.721C840.952,225.252 841.218,222.83 841.468,220.455C841.718,218.08 841.921,215.877 842.077,213.846C842.233,211.815 842.343,210.237 842.405,209.112C841.718,208.799 840.812,209.596 839.687,211.502C838.562,213.409 837.108,216.018 835.327,219.33C833.546,222.643 831.39,226.502 828.858,230.909C826.327,235.315 823.343,239.893 819.905,244.643L819.905,245.768Z" style="fill:rgb(193,0,0);fill-rule:nonzero;"/>
            <path d="M859.468,267.518C859.343,267.393 859.28,267.049 859.28,266.487C859.28,265.924 859.343,265.58 859.468,265.455L867.343,247.362L858.437,247.362C858.249,247.362 858.077,247.237 857.921,246.987C857.765,246.737 857.64,246.44 857.546,246.096C857.452,245.752 857.374,245.409 857.312,245.065C857.249,244.721 857.28,244.455 857.405,244.268C857.593,244.205 857.937,244.08 858.437,243.893C858.937,243.705 859.468,243.487 860.03,243.237C860.593,242.987 861.124,242.768 861.624,242.58C862.124,242.393 862.468,242.237 862.655,242.112C862.843,242.049 863.358,241.862 864.202,241.549C865.046,241.237 865.952,240.909 866.921,240.565C867.89,240.221 868.78,239.893 869.593,239.58C870.405,239.268 870.905,239.049 871.093,238.924C871.843,238.424 872.733,237.19 873.765,235.221C874.796,233.252 875.968,230.893 877.28,228.143C878.593,225.393 880.03,222.44 881.593,219.284C883.155,216.127 884.843,213.096 886.655,210.19C888.468,207.284 890.374,204.69 892.374,202.409C894.374,200.127 896.452,198.502 898.608,197.534C900.765,196.565 902.999,196.424 905.312,197.112C907.624,197.799 909.999,199.643 912.437,202.643C912.874,203.268 913.187,203.94 913.374,204.659C913.562,205.377 913.593,206.112 913.468,206.862C912.905,207.174 912.343,207.237 911.78,207.049C911.218,206.862 910.702,206.549 910.233,206.112C909.765,205.674 909.343,205.221 908.968,204.752C908.593,204.284 908.343,203.924 908.218,203.674C904.03,202.987 900.702,203.159 898.233,204.19C895.765,205.221 893.733,206.784 892.14,208.877C890.546,210.971 889.155,213.455 887.968,216.33C886.78,219.205 885.405,222.174 883.843,225.237C883.405,225.987 882.89,226.955 882.296,228.143L878.499,235.737L878.499,236.862C878.499,237.112 879.28,237.299 880.843,237.424C882.405,237.549 884.171,237.737 886.14,237.987C888.108,238.237 890.015,238.596 891.858,239.065C893.702,239.534 894.905,240.205 895.468,241.08L894.437,242.112C890.874,241.924 887.874,241.862 885.437,241.924C882.999,241.987 880.874,242.393 879.062,243.143C877.249,243.893 875.655,245.096 874.28,246.752C872.905,248.409 871.499,250.737 870.062,253.737C869.562,254.799 868.905,256.159 868.093,257.815C867.28,259.471 866.468,261.096 865.655,262.69C864.843,264.284 864.155,265.659 863.593,266.815C863.03,267.971 862.718,268.58 862.655,268.643L861.53,269.674C861.343,269.549 860.983,269.221 860.452,268.69C859.921,268.159 859.593,267.768 859.468,267.518Z" style="fill:rgb(193,0,0);fill-rule:nonzero;"/>
            <path d="M908.312,268.643C908.249,268.518 908.218,268.174 908.218,267.612C908.218,267.049 908.249,266.674 908.312,266.487C908.499,265.799 908.843,264.596 909.343,262.877C909.843,261.159 910.374,259.346 910.937,257.44C911.499,255.534 912.03,253.737 912.53,252.049C913.03,250.362 913.374,249.174 913.562,248.487C913.812,247.612 914.093,246.596 914.405,245.44C914.718,244.284 914.78,243.174 914.593,242.112C913.655,241.987 912.499,242.096 911.124,242.44C909.749,242.784 908.39,243.065 907.046,243.284C905.702,243.502 904.452,243.502 903.296,243.284C902.14,243.065 901.312,242.33 900.812,241.08C901.562,239.518 902.687,238.502 904.187,238.034C905.687,237.565 907.312,237.237 909.062,237.049C910.812,236.862 912.483,236.58 914.077,236.205C915.671,235.83 916.937,234.987 917.874,233.674C918.437,232.049 919.108,230.065 919.89,227.721C920.671,225.377 921.499,222.924 922.374,220.362C923.249,217.799 924.202,215.268 925.233,212.768C926.265,210.268 927.343,208.049 928.468,206.112C929.155,205.674 929.718,205.643 930.155,206.018C930.593,206.393 930.921,206.94 931.14,207.659C931.358,208.377 931.499,209.112 931.562,209.862C931.624,210.612 931.624,211.112 931.562,211.362C931.187,212.987 930.546,214.721 929.64,216.565C928.733,218.409 927.89,220.268 927.108,222.143C926.327,224.018 925.702,225.893 925.233,227.768C924.765,229.643 924.749,231.424 925.187,233.112L945.343,233.112C945.405,233.112 945.562,233.315 945.812,233.721C946.062,234.127 946.28,234.455 946.468,234.705C946.78,235.58 946.437,236.174 945.437,236.487C944.437,236.799 943.093,237.002 941.405,237.096C939.718,237.19 937.796,237.252 935.64,237.284C933.483,237.315 931.421,237.471 929.452,237.752C927.483,238.034 925.718,238.502 924.155,239.159C922.593,239.815 921.53,240.799 920.968,242.112C919.343,246.299 917.843,250.502 916.468,254.721C915.093,258.94 913.78,263.205 912.53,267.518C912.405,267.705 912.155,268.002 911.78,268.409C911.405,268.815 910.999,269.159 910.562,269.44C910.124,269.721 909.702,269.83 909.296,269.768C908.89,269.705 908.562,269.33 908.312,268.643Z" style="fill:rgb(193,0,0);fill-rule:nonzero;"/>
            <path d="M948.062,268.643C946.187,268.018 944.765,267.065 943.796,265.784C942.827,264.502 942.187,263.08 941.874,261.518C941.562,259.955 941.515,258.315 941.733,256.596C941.952,254.877 942.312,253.237 942.812,251.674C944.687,249.674 946.796,247.377 949.14,244.784C951.483,242.19 953.968,239.643 956.593,237.143C959.218,234.643 961.952,232.315 964.796,230.159C967.64,228.002 970.53,226.362 973.468,225.237C974.468,224.799 975.265,224.815 975.858,225.284C976.452,225.752 976.874,226.487 977.124,227.487C977.374,228.487 977.483,229.643 977.452,230.955C977.421,232.268 977.312,233.549 977.124,234.799C976.937,236.049 976.687,237.174 976.374,238.174C976.062,239.174 975.749,239.862 975.437,240.237C974.687,241.112 973.233,242.143 971.077,243.33C968.921,244.518 966.53,245.815 963.905,247.221C961.28,248.627 958.655,250.08 956.03,251.58C953.405,253.08 951.249,254.565 949.562,256.034C947.874,257.502 946.874,258.955 946.562,260.393C946.249,261.83 947.124,263.143 949.187,264.33C951.312,264.58 953.89,264.471 956.921,264.002C959.952,263.534 963.046,262.909 966.202,262.127C969.358,261.346 972.405,260.534 975.343,259.69C978.28,258.846 980.687,258.174 982.562,257.674L983.687,258.705C982.312,260.518 980.062,262.174 976.937,263.674C973.812,265.174 970.437,266.409 966.812,267.377C963.187,268.346 959.655,268.971 956.218,269.252C952.78,269.534 950.062,269.33 948.062,268.643ZM970.468,232.83C970.405,232.768 969.937,233.034 969.062,233.627C968.187,234.221 967.108,235.002 965.827,235.971C964.546,236.94 963.171,238.002 961.702,239.159C960.233,240.315 958.89,241.393 957.671,242.393C956.452,243.393 955.437,244.252 954.624,244.971C953.812,245.69 953.468,246.049 953.593,246.049C954.593,246.237 955.89,246.096 957.483,245.627C959.077,245.159 960.733,244.487 962.452,243.612C964.171,242.737 965.812,241.752 967.374,240.659C968.937,239.565 970.171,238.487 971.077,237.424C971.983,236.362 972.452,235.424 972.483,234.612C972.515,233.799 971.843,233.205 970.468,232.83Z" style="fill:rgb(193,0,0);fill-rule:nonzero;"/>
            <path d="M983.593,268.643C983.468,268.58 983.483,267.846 983.64,266.44C983.796,265.034 984.03,263.268 984.343,261.143C984.655,259.018 985.062,256.674 985.562,254.112C986.062,251.549 986.593,249.096 987.155,246.752C987.718,244.409 988.327,242.346 988.983,240.565C989.64,238.784 990.28,237.549 990.905,236.862C991.343,236.424 991.78,236.409 992.218,236.815C992.655,237.221 993.093,237.721 993.53,238.315C993.968,238.909 994.405,239.44 994.843,239.909C995.28,240.377 995.749,240.424 996.249,240.049C997.999,237.612 999.921,235.284 1002.01,233.065C1004.11,230.846 1006.44,228.924 1009,227.299C1009.25,227.112 1009.94,226.815 1011.06,226.409C1012.19,226.002 1013.47,225.596 1014.9,225.19C1016.34,224.784 1017.83,224.44 1019.36,224.159C1020.89,223.877 1022.2,223.752 1023.3,223.784C1024.39,223.815 1025.14,224.096 1025.55,224.627C1025.95,225.159 1025.75,226.049 1024.94,227.299C1021.19,227.362 1017.69,228.455 1014.44,230.58C1011.19,232.705 1008.19,235.33 1005.44,238.455C1002.69,241.58 1000.19,244.971 997.937,248.627C995.687,252.284 993.733,255.674 992.077,258.799C990.421,261.924 989.046,264.518 987.952,266.58C986.858,268.643 986.062,269.674 985.562,269.674C985.499,269.674 985.218,269.534 984.718,269.252C984.218,268.971 983.843,268.768 983.593,268.643Z" style="fill:rgb(193,0,0);fill-rule:nonzero;"/>
        </g>
        <g transform="matrix(1.08767,0,0,1,-48.5977,29.5649)">
            <path d="M619.049,344.736C603.724,358.358 592.067,377.147 598.978,398.934C603.372,412.788 614.428,416.206 628.176,422.009C647.397,430.123 672.167,437.691 690.775,418.062C710.172,397.601 697.873,337.523 689.35,329.24C680.487,320.627 670.031,312.967 653.259,315.602C634.845,318.496 621.417,328.235 607.606,340.698" style="fill:none;stroke:rgb(193,0,0);stroke-width:5.74px;"/>
        </g>
        <g transform="matrix(1.39067,0,0,0.606073,-250.368,163.153)">
            <path d="M640.245,389.432C642.882,392.07 661.937,390.051 662.34,390.051C663.147,390.051 664.037,390.073 663.127,389.77" style="fill:none;stroke:rgb(193,0,0);stroke-width:5.59px;"/>
        </g>
        <g transform="matrix(0.727972,0,0,0.797155,-426.822,105.181)">
            <path d="M619.049,344.736C603.724,358.358 592.067,377.147 598.978,398.934C603.372,412.788 614.428,416.206 628.176,422.009C647.397,430.123 672.167,437.691 690.775,418.062C710.172,397.601 697.873,337.523 689.35,329.24C680.487,320.627 670.031,312.967 653.259,315.602C634.845,318.496 621.417,328.235 607.606,340.698" style="fill:none;stroke:rgb(193,0,0);stroke-width:7.86px;"/>
        </g>
        <path d="M84.941,360.366C84.419,361.062 94.139,356.908 95.961,356.037C109.067,349.77 122.111,343.864 135.372,338.046C155.685,329.133 176.483,321.161 198.228,316.569C202.897,315.583 207.547,314.702 212.227,313.87C218.631,312.732 221.656,318.355 227.295,313.42" style="fill:none;stroke:rgb(193,0,0);stroke-width:6px;"/>
        <path d="M584.81,280.306C584.296,279.792 582.753,278.226 581.942,278.226C580.537,278.226 584.214,279.883 585.316,280.756C587.729,282.666 589.911,285.15 591.838,287.558C599.533,297.178 608.517,305.693 617.025,314.601C618.638,316.29 619.724,316.22 619.724,313.702" style="fill:none;stroke:rgb(193,0,0);stroke-width:6px;"/>
    </g>
</svg>
