<svg width="609" height="596" viewBox="0 0 609 596" fill="none" xmlns="http://www.w3.org/2000/svg">
<path d="M483.836 297.57C462.969 294.702 441.684 297.005 420.759 294.867C399.834 292.729 377.813 285.085 366.015 267.639C342.036 232.177 372.287 179.344 350.099 142.758C339.461 125.231 319.285 116.173 299.936 109.404C266.876 97.848 232.014 89.9373 197.048 91.9142C162.081 93.8911 126.926 106.513 102.271 131.414C78.5985 155.342 66.4265 188.473 60.2815 221.562C47.8387 288.174 58.2127 359.856 93.6519 417.727C129.091 475.598 190.369 518.206 257.753 526.24C298.783 531.145 340.219 523.638 380.602 514.846C450.864 499.545 525.301 477.427 575.035 422.306C621.511 370.787 533.867 304.416 483.836 297.57Z" fill="#F5F5F5"/>
<path d="M139.302 386.271C139.302 386.271 138.149 359.292 126.838 344.276C115.528 329.259 101.665 327.102 94.7975 331.331C89.7778 334.407 90.4506 343.549 99.1337 349.488C107.817 355.426 124.553 370.645 127.17 380.567L139.302 386.271Z" fill="#37474F"/>
<path d="M131.826 382.34C131.643 382.327 131.472 382.242 131.351 382.104C131.229 381.967 131.166 381.787 131.175 381.603C132.339 357.124 110.882 341.862 105.04 339.117C104.872 339.038 104.742 338.896 104.678 338.723C104.615 338.549 104.622 338.357 104.698 338.188C104.779 338.019 104.923 337.889 105.098 337.826C105.274 337.762 105.468 337.769 105.638 337.846C111.63 340.687 133.77 356.419 132.574 381.635C132.563 381.821 132.479 381.994 132.341 382.118C132.203 382.242 132.022 382.306 131.837 382.298L131.826 382.34Z" fill="white"/>
<path d="M133.962 377.748C132.42 377.727 130.938 377.15 129.786 376.124C128.473 374.682 128.579 372.472 127.971 370.613C126.977 367.559 123.965 365.487 120.825 364.835C117.642 364.339 114.387 364.557 111.299 365.476C104.997 367.025 98.9415 363.148 92.6294 363.607C90.3519 363.68 88.137 364.37 86.2212 365.604C85.2763 366.229 84.5021 367.08 83.9688 368.08C83.4354 369.079 83.1597 370.196 83.1666 371.329C83.3831 373.204 84.317 374.922 85.7726 376.124C87.2322 377.323 88.8404 378.328 90.5574 379.115L96.1005 381.945C97.0588 382.371 97.9423 382.948 98.7172 383.654C99.4495 384.439 100.002 385.374 100.336 386.394C100.67 387.414 100.777 388.494 100.65 389.56C100.223 391.696 98.5143 393.32 97.9696 395.413C97.2967 398.158 98.9735 401.095 101.387 402.579C103.894 403.937 106.756 404.496 109.59 404.181C112.42 404.021 115.218 403.455 118.049 403.402C119.964 403.265 121.877 403.684 123.56 404.609C125.46 405.984 126.828 407.972 127.437 410.237C127.803 411.69 128.387 413.08 129.167 414.36C130.129 415.576 131.424 416.485 132.894 416.977C135.738 418.023 138.862 418.023 141.706 416.977C144.044 416.079 145.187 413.441 146.063 411.156C146.938 408.763 147.355 406.227 147.291 403.68C147.157 397.133 145.677 390.683 142.944 384.733C141.631 381.998 139.74 379.264 136.835 378.324C135.894 378.056 134.934 377.863 133.962 377.748Z" fill="#455A64"/>
<path d="M140.029 407.097C139.9 407.098 139.774 407.058 139.668 406.983C139.563 406.909 139.484 406.803 139.441 406.681C132.851 387.787 101.676 371.35 90.3118 369.46C90.2311 369.447 90.1539 369.418 90.0845 369.374C90.0151 369.331 89.9548 369.275 89.9072 369.208C89.8596 369.142 89.8256 369.067 89.807 368.987C89.7885 368.907 89.7858 368.825 89.7991 368.744C89.8124 368.664 89.8415 368.587 89.8847 368.517C89.9278 368.448 89.9843 368.387 90.0507 368.34C90.1172 368.292 90.1923 368.258 90.2719 368.24C90.3515 368.221 90.434 368.218 90.5147 368.232C102.135 370.154 133.93 386.954 140.712 406.264C140.741 406.342 140.753 406.425 140.75 406.508C140.746 406.59 140.725 406.671 140.689 406.746C140.653 406.821 140.603 406.888 140.541 406.942C140.479 406.997 140.406 407.039 140.328 407.065C140.232 407.099 140.13 407.109 140.029 407.097Z" fill="white"/>
<path d="M112.003 396.737C111.884 396.728 111.77 396.683 111.676 396.61C111.581 396.537 111.51 396.438 111.47 396.325C111.43 396.212 111.424 396.09 111.453 395.973C111.481 395.857 111.543 395.752 111.63 395.669C116.727 392.143 122.756 390.207 128.953 390.105C129.105 390.125 129.244 390.199 129.345 390.314C129.446 390.429 129.501 390.577 129.501 390.73C129.501 390.883 129.446 391.03 129.345 391.145C129.244 391.26 129.105 391.335 128.953 391.355C123.025 391.498 117.265 393.353 112.367 396.695C112.252 396.744 112.126 396.759 112.003 396.737Z" fill="white"/>
<path d="M140.369 421.708C139.698 421.251 139.143 420.643 138.75 419.933C138.356 419.222 138.136 418.429 138.105 417.618V195.05C138.152 194.214 138.394 193.4 138.814 192.674C139.233 191.949 139.817 191.332 140.519 190.874L402.358 39.6942C403.054 39.2563 403.856 39.0165 404.678 39.0008C405.5 38.9851 406.31 39.194 407.023 39.6049C407.735 40.0159 408.321 40.6134 408.719 41.333C409.116 42.0526 409.31 42.8671 409.279 43.6886V266.267C409.232 267.103 408.99 267.917 408.57 268.643C408.151 269.368 407.567 269.985 406.865 270.443L145.026 421.623C144.31 421.999 143.517 422.203 142.708 422.218C141.899 422.233 141.098 422.058 140.369 421.708Z" fill="#455A64"/>
<path d="M144.568 421.826H144.472C144.399 421.869 144.319 421.902 144.237 421.922H144.055C143.948 421.959 143.837 421.984 143.724 421.997C143.652 422.026 143.577 422.044 143.5 422.05L143.137 422.103C142.184 422.232 141.214 422.065 140.36 421.623C139.689 421.169 139.135 420.562 138.744 419.853C138.352 419.144 138.134 418.352 138.106 417.543V223.577L142.635 226.194V420.224C142.635 421.292 143.179 421.954 143.97 421.954C144.076 421.97 144.184 421.97 144.29 421.954C144.389 421.926 144.482 421.882 144.568 421.826Z" fill="#007CBB"/>
<path opacity="0.81" d="M144.568 421.826H144.472C144.399 421.869 144.319 421.902 144.237 421.922H144.055C143.948 421.959 143.837 421.984 143.724 421.997C143.652 422.026 143.577 422.044 143.5 422.05L143.137 422.103C142.184 422.232 141.214 422.065 140.36 421.623C139.689 421.169 139.135 420.562 138.744 419.853C138.352 419.144 138.134 418.352 138.106 417.543V223.577L142.635 226.194V420.224C142.635 421.292 143.179 421.954 143.97 421.954C144.076 421.97 144.184 421.97 144.29 421.954C144.389 421.926 144.482 421.882 144.568 421.826Z" fill="#E0E0E0"/>
<path d="M142.624 226.194L138.095 223.577V266.673L142.624 269.311V226.194Z" fill="#007CBB"/>
<path opacity="0.15" d="M142.624 226.194L138.095 223.577V266.673L142.624 269.311V226.194Z" fill="black"/>
<path d="M143.318 195.285C142.891 196.004 142.652 196.82 142.624 197.656V226.194L138.095 223.577V195.05C138.09 194.954 138.09 194.858 138.095 194.762C138.116 194.561 138.148 194.361 138.192 194.164C138.325 193.641 138.526 193.139 138.79 192.668L143.318 195.285Z" fill="#263238"/>
<path d="M409.28 43.6993V56.5798L217.343 167.388C216.019 168.157 214.94 167.527 214.94 166V161.119C214.94 159.592 213.872 158.983 212.527 159.73L154.073 193.491C153.371 193.949 152.787 194.565 152.368 195.291C151.949 196.016 151.706 196.83 151.659 197.667V202.537C151.614 203.373 151.373 204.186 150.956 204.912C150.538 205.637 149.956 206.254 149.256 206.713L142.624 210.579V197.763C142.669 196.927 142.91 196.114 143.328 195.389C143.745 194.663 144.327 194.046 145.027 193.587L406.877 42.3109C408.201 41.5419 409.28 42.1614 409.28 43.6993Z" fill="#37474F"/>
<path d="M409.29 266.277C409.242 267.112 408.999 267.924 408.579 268.648C408.16 269.371 407.577 269.986 406.877 270.443L145.027 421.623C143.703 422.381 142.624 421.762 142.624 420.224V210.579L149.256 206.756C150.581 205.987 152.738 194.303 154.073 193.534L211.544 160.35C212.879 159.581 216.019 168.211 217.343 167.442L409.28 56.5798V266.277H409.29Z" fill="#007CBB"/>
<path opacity="0.9" d="M409.29 266.277C409.242 267.112 408.999 267.924 408.579 268.648C408.16 269.371 407.577 269.986 406.877 270.443L145.027 421.623C143.703 422.381 142.624 421.762 142.624 420.224V210.579L149.256 206.756C150.581 205.987 152.738 194.303 154.073 193.534L211.544 160.35C212.879 159.581 216.019 168.211 217.343 167.442L409.28 56.5798V266.277H409.29Z" fill="white"/>
<g opacity="0.4">
<path opacity="0.4" d="M408.212 58.4275V266.277C408.16 266.919 407.964 267.54 407.638 268.094C407.313 268.649 406.866 269.123 406.332 269.482L144.493 420.694C144.331 420.803 144.143 420.865 143.948 420.875C143.703 420.875 143.692 420.341 143.692 420.224V211.146L149.79 207.621C150.73 207.076 151.328 205.207 152.674 200.401C153.163 198.331 153.835 196.308 154.682 194.356L211.683 161.45C212.365 162.38 212.979 163.358 213.52 164.376C215.069 167.089 215.923 168.499 217.162 168.499C217.412 168.498 217.658 168.436 217.878 168.317L408.212 58.4275ZM409.28 56.5798L217.343 167.388C217.284 167.403 217.222 167.403 217.162 167.388C215.816 167.388 213.082 160.2 211.726 160.2C211.666 160.185 211.604 160.185 211.544 160.2L154.073 193.491C152.738 194.26 150.581 205.944 149.256 206.713L142.624 210.579V420.224C142.624 421.292 143.169 421.943 143.948 421.943C144.325 421.928 144.693 421.817 145.016 421.623L406.877 270.443C407.577 269.986 408.16 269.371 408.579 268.648C408.999 267.924 409.242 267.112 409.29 266.277V56.5798H409.28Z" fill="#007CBB"/>
</g>
<path d="M142.624 226.194V269.311L409.28 115.375V72.2478L142.624 226.194Z" fill="#007CBB"/>
<path d="M409.28 56.5798V72.2479L142.624 226.194V210.579L147.569 207.717C148.893 206.948 149.342 205.773 149.972 203.541L151.659 197.71C152.183 195.68 152.727 194.303 154.073 193.534L211.544 160.35C212.879 159.581 213.926 159.495 214.94 161.172L217.002 164.91C217.749 166.224 218.134 166.993 219.458 166.224L409.28 56.5798Z" fill="#F0F0F0"/>
<path d="M397.98 51.7737C399.657 50.8124 401.013 51.5921 401.013 53.5252C400.956 54.5779 400.652 55.6022 400.125 56.5152C399.598 57.4282 398.863 58.2041 397.98 58.78C396.314 59.7412 394.957 58.9615 394.957 57.0284C395.015 55.9771 395.318 54.954 395.843 54.0414C396.368 53.1287 397.1 52.352 397.98 51.7737Z" fill="#007CBB"/>
<path d="M387.086 58.0644C388.752 57.1032 390.108 57.8829 390.108 59.816C390.051 60.8673 389.747 61.8904 389.222 62.803C388.698 63.7157 387.966 64.4924 387.086 65.0707C385.409 66.032 384.053 65.2523 384.053 63.3192C384.11 62.2665 384.414 61.2422 384.941 60.3292C385.468 59.4162 386.203 58.6403 387.086 58.0644Z" fill="#007CBB"/>
<path d="M376.16 64.355C377.826 63.3937 379.193 64.1734 379.193 66.1065C379.134 67.1586 378.828 68.182 378.301 69.0946C377.775 70.0071 377.041 70.7835 376.16 71.3613C374.483 72.3332 373.127 71.5428 373.127 69.6097C373.184 68.5571 373.488 67.5327 374.015 66.6198C374.542 65.7068 375.277 64.9309 376.16 64.355Z" fill="#007CBB"/>
<path opacity="0.5" d="M153.667 211.648L149.887 213.784L151.328 211.017C151.385 210.912 151.415 210.795 151.415 210.676C151.415 210.556 151.385 210.439 151.328 210.334C151.222 210.206 151.029 210.334 150.901 210.537L148.851 214.488C148.846 214.538 148.846 214.588 148.851 214.638C148.846 214.706 148.846 214.773 148.851 214.841C148.844 214.901 148.844 214.962 148.851 215.022C148.845 215.051 148.845 215.08 148.851 215.108L150.901 216.689C150.932 216.708 150.967 216.718 151.003 216.718C151.038 216.718 151.074 216.708 151.104 216.689C151.202 216.609 151.279 216.506 151.328 216.39C151.435 216.133 151.424 215.845 151.328 215.749L149.887 214.681L153.667 212.545C153.766 212.468 153.846 212.369 153.9 212.256C153.954 212.143 153.98 212.018 153.977 211.893C153.977 211.648 153.838 211.562 153.667 211.648Z" fill="#455A64"/>
<path opacity="0.5" d="M156.829 209.832L160.61 207.696L159.168 206.628C159.04 206.532 159.029 206.243 159.168 205.987C159.307 205.731 159.467 205.592 159.595 205.688L161.646 207.268C161.672 207.288 161.694 207.314 161.71 207.343C161.721 207.4 161.721 207.458 161.71 207.514C161.721 207.581 161.721 207.65 161.71 207.717C161.71 207.717 161.71 207.717 161.71 207.77C161.693 207.822 161.671 207.872 161.646 207.92L159.595 211.829C159.551 211.925 159.48 212.006 159.392 212.064C159.362 212.093 159.322 212.11 159.28 212.11C159.238 212.11 159.198 212.093 159.168 212.064C159.108 211.96 159.076 211.842 159.076 211.722C159.076 211.602 159.108 211.484 159.168 211.38L160.61 208.604L156.829 210.793C156.658 210.889 156.53 210.793 156.53 210.494C156.523 210.368 156.547 210.242 156.599 210.126C156.651 210.011 156.73 209.91 156.829 209.832Z" fill="#455A64"/>
<path opacity="0.5" d="M169.207 198.938C169.207 198.714 168.983 198.746 168.887 198.991L168.363 200.262C167.477 200.166 166.409 201.021 165.683 202.558C164.754 204.534 164.754 206.831 165.683 207.781C165.911 207.995 166.206 208.122 166.518 208.141C166.83 208.161 167.139 208.071 167.392 207.888C168.147 207.381 168.737 206.665 169.09 205.827C169.149 205.726 169.18 205.612 169.18 205.496C169.18 205.379 169.149 205.265 169.09 205.164C168.962 205.047 168.769 205.164 168.652 205.41C167.958 206.884 166.815 207.546 166.121 206.873C165.426 206.2 165.416 204.449 166.121 202.964C166.612 201.896 167.328 201.288 167.958 201.255L167.562 202.206C167.466 202.452 167.562 202.687 167.712 202.58L169.261 201.576C169.32 201.522 169.366 201.456 169.396 201.382C169.425 201.308 169.437 201.228 169.432 201.149L169.207 198.938Z" fill="#455A64"/>
<path opacity="0.5" d="M209.889 167.452L211.266 164.526C211.347 164.388 211.39 164.231 211.39 164.072C211.39 163.912 211.347 163.756 211.266 163.618C211.106 163.468 210.839 163.618 210.679 163.96L209.301 166.875L207.913 165.551C207.753 165.391 207.486 165.551 207.325 165.893C207.245 166.03 207.202 166.187 207.202 166.347C207.202 166.506 207.245 166.663 207.325 166.801L208.703 168.125L207.325 171.062C207.245 171.2 207.202 171.356 207.202 171.516C207.202 171.676 207.245 171.832 207.325 171.97C207.367 172.005 207.42 172.024 207.475 172.024C207.529 172.024 207.582 172.005 207.624 171.97C207.757 171.888 207.858 171.764 207.913 171.617L209.301 168.691L210.679 170.026C210.719 170.06 210.77 170.079 210.823 170.079C210.876 170.079 210.927 170.06 210.967 170.026C211.1 169.942 211.205 169.819 211.266 169.674C211.347 169.536 211.39 169.379 211.39 169.22C211.39 169.06 211.347 168.903 211.266 168.766L209.889 167.452Z" fill="#455A64"/>
<path d="M174.259 202.527V197.656C174.308 196.821 174.553 196.008 174.975 195.285C175.396 194.561 175.981 193.947 176.683 193.491L393.334 68.5311C394.669 67.7621 395.748 68.3816 395.748 69.9195V74.7257C395.701 75.5623 395.458 76.3763 395.039 77.1017C394.62 77.8272 394.036 78.4438 393.334 78.9017L176.683 203.926C175.338 204.695 174.259 204.064 174.259 202.527Z" fill="white"/>
<path d="M390.034 79.2114C389.977 79.2226 389.919 79.2226 389.863 79.2114C389.75 79.1549 389.659 79.0621 389.605 78.9479C389.551 78.8337 389.536 78.7046 389.564 78.5813L389.799 76.5627L388.816 75.8578C388.746 75.8066 388.69 75.7388 388.653 75.6605C388.615 75.5822 388.598 75.4958 388.603 75.4092C388.603 75.2623 388.636 75.1173 388.699 74.9844C388.761 74.8515 388.853 74.734 388.966 74.6402L390.375 73.5722C390.423 73.5295 390.456 73.4738 390.472 73.412L391.102 71.34C391.138 71.1889 391.216 71.0512 391.328 70.9433C391.439 70.8354 391.58 70.7618 391.732 70.7312C391.827 70.728 391.921 70.7525 392.003 70.8018C392.084 70.8511 392.15 70.9231 392.191 71.0089L392.757 72.2265L394.039 71.7352C394.129 71.6966 394.229 71.6872 394.325 71.7083C394.42 71.7293 394.507 71.7798 394.573 71.8527C394.657 71.9813 394.702 72.1316 394.702 72.2852C394.702 72.4389 394.657 72.5892 394.573 72.7178L393.505 74.6402C393.494 74.6966 393.494 74.7547 393.505 74.8111L393.75 76.552C393.765 76.6945 393.748 76.8384 393.7 76.9733C393.652 77.1082 393.574 77.2306 393.473 77.3317C393.416 77.3995 393.343 77.4524 393.262 77.4859C393.18 77.5194 393.091 77.5325 393.003 77.5239L391.732 77.3637L390.504 79.0085C390.444 79.0738 390.372 79.1258 390.291 79.1608C390.21 79.1958 390.122 79.213 390.034 79.2114ZM389.222 75.2917L390.205 75.9966C390.287 76.0656 390.35 76.1556 390.385 76.2571C390.421 76.3586 390.429 76.4679 390.408 76.5734L390.29 78.2395L391.358 76.8938C391.419 76.807 391.501 76.7371 391.596 76.6904C391.691 76.6438 391.797 76.6219 391.903 76.6268L393.174 76.787C393.174 76.787 393.227 76.6161 393.174 76.5307L392.928 74.7898C392.911 74.5971 392.952 74.4037 393.046 74.2344L394.114 72.3119L392.939 72.7605C392.883 72.785 392.822 72.7981 392.761 72.799C392.7 72.7999 392.639 72.7886 392.583 72.7657C392.526 72.7428 392.474 72.7088 392.431 72.6658C392.388 72.6227 392.353 72.5714 392.33 72.5149L391.807 71.4468L391.177 73.5188C391.124 73.7093 391.012 73.8778 390.856 73.9994L389.446 75.0675C389.347 75.1124 389.267 75.1922 389.222 75.2917Z" fill="#E0E0E0"/>
<g opacity="0.5">
<path opacity="0.5" d="M398.567 67.8688C398.382 67.8707 398.202 67.811 398.055 67.6991C397.908 67.5872 397.802 67.4295 397.754 67.2508C397.706 67.0721 397.719 66.8826 397.791 66.7122C397.863 66.5418 397.99 66.4001 398.151 66.3095L404.922 62.4005C405.017 62.3451 405.121 62.3089 405.23 62.2939C405.339 62.279 405.449 62.2856 405.555 62.3133C405.662 62.3411 405.761 62.3895 405.849 62.4558C405.936 62.522 406.01 62.6049 406.065 62.6995C406.12 62.7942 406.157 62.8989 406.172 63.0075C406.186 63.1162 406.18 63.2268 406.152 63.3329C406.124 63.439 406.076 63.5386 406.01 63.626C405.943 63.7134 405.861 63.7869 405.766 63.8423L398.984 67.762C398.857 67.8335 398.713 67.8703 398.567 67.8688Z" fill="#455A64"/>
<path opacity="0.5" d="M398.567 71.7885C398.42 71.7883 398.276 71.7497 398.149 71.6767C398.022 71.6036 397.915 71.4986 397.841 71.372C397.786 71.2767 397.75 71.1715 397.736 71.0623C397.721 70.9532 397.729 70.8422 397.758 70.736C397.786 70.6297 397.836 70.5302 397.903 70.4432C397.971 70.3562 398.055 70.2835 398.151 70.2292L404.922 66.3095C405.113 66.2219 405.329 66.2085 405.529 66.2718C405.729 66.3352 405.899 66.4709 406.004 66.6524C406.109 66.8338 406.143 67.048 406.099 67.2532C406.055 67.4584 405.936 67.6398 405.766 67.762L398.984 71.671C398.858 71.7457 398.714 71.7862 398.567 71.7885Z" fill="#455A64"/>
<path opacity="0.5" d="M398.567 75.6974C398.421 75.6972 398.276 75.6587 398.149 75.5856C398.022 75.5126 397.915 75.4075 397.841 75.2809C397.786 75.1865 397.75 75.0821 397.736 74.9737C397.722 74.8654 397.73 74.7553 397.758 74.6499C397.787 74.5445 397.837 74.4459 397.904 74.3598C397.972 74.2738 398.055 74.2021 398.151 74.1488L404.922 70.2291C405.017 70.1737 405.122 70.1375 405.23 70.1225C405.339 70.1076 405.449 70.1142 405.556 70.142C405.662 70.1697 405.761 70.2181 405.849 70.2844C405.936 70.3507 406.01 70.4335 406.065 70.5282C406.12 70.6228 406.157 70.7275 406.172 70.8362C406.187 70.9448 406.18 71.0554 406.152 71.1615C406.124 71.2676 406.076 71.3672 406.01 71.4546C405.943 71.542 405.861 71.6156 405.766 71.671L398.984 75.5906C398.857 75.6621 398.713 75.6989 398.567 75.6974Z" fill="#455A64"/>
</g>
<path d="M142.624 210.526V226.194L138.095 223.577V207.92L142.624 210.526Z" fill="#E0E0E0"/>
<path d="M333.616 137.637L328.195 140.806L326.978 145.429L325.218 146.458L330.159 128.581L331.652 127.708L336.602 139.803L334.851 140.826L333.616 137.637ZM328.711 138.878L333.11 136.306L330.906 130.584L328.711 138.878ZM346.227 128.73C346.227 130.432 345.889 131.999 345.214 133.43C344.538 134.854 343.632 135.899 342.494 136.564C341.28 137.274 340.341 137.325 339.677 136.718L339.597 138.052L338.086 138.935V123.123L339.73 122.162V128.061C340.394 126.719 341.309 125.707 342.476 125.024C343.644 124.342 344.559 124.318 345.223 124.953C345.892 125.584 346.227 126.788 346.227 128.566V128.73ZM344.583 129.475C344.583 128.178 344.366 127.303 343.934 126.849C343.501 126.395 342.879 126.405 342.068 126.879C340.983 127.513 340.204 128.552 339.73 129.996V134.814C340.234 135.686 341.019 135.81 342.085 135.187C342.873 134.726 343.487 134.014 343.925 133.051C344.363 132.088 344.583 130.896 344.583 129.475ZM347.871 127.543C347.871 126.452 348.055 125.363 348.422 124.276C348.795 123.187 349.311 122.213 349.968 121.355C350.632 120.493 351.387 119.815 352.234 119.32C353.544 118.554 354.601 118.461 355.407 119.04C356.219 119.615 356.625 120.775 356.625 122.518V122.652C356.625 123.736 356.444 124.816 356.082 125.892C355.727 126.958 355.214 127.927 354.545 128.798C353.881 129.667 353.117 130.354 352.252 130.859C350.949 131.621 349.891 131.715 349.079 131.139C348.274 130.56 347.871 129.406 347.871 127.677V127.543ZM349.524 126.803C349.524 128.038 349.77 128.886 350.261 129.347C350.759 129.804 351.423 129.79 352.252 129.305C353.087 128.817 353.751 128.051 354.243 127.009C354.735 125.96 354.98 124.752 354.98 123.386C354.98 122.165 354.729 121.324 354.225 120.863C353.727 120.392 353.064 120.399 352.234 120.884C351.423 121.359 350.768 122.116 350.27 123.155C349.773 124.194 349.524 125.41 349.524 126.803ZM364.623 122.32C363.983 123.566 363.044 124.55 361.806 125.274C360.781 125.873 359.999 125.987 359.459 125.616C358.926 125.235 358.657 124.37 358.651 123.022V115.774L360.295 114.813V122.009C360.295 123.697 360.887 124.195 362.072 123.502C363.328 122.768 364.164 121.737 364.578 120.411V112.309L366.222 111.348V122.486L364.658 123.401L364.623 122.32ZM370.959 105.882V108.579L372.754 107.529V109.001L370.959 110.051V116.958C370.959 117.404 371.039 117.694 371.199 117.827C371.359 117.953 371.632 117.903 372.017 117.678C372.206 117.567 372.467 117.374 372.799 117.097V118.642C372.366 119.032 371.946 119.346 371.537 119.585C370.802 120.015 370.248 120.081 369.875 119.785C369.502 119.488 369.315 118.866 369.315 117.919V111.012L367.564 112.035V110.563L369.315 109.54V106.843L370.959 105.882ZM385.134 110.329C384.494 111.574 383.555 112.559 382.317 113.283C381.292 113.882 380.51 113.996 379.971 113.625C379.437 113.244 379.168 112.379 379.162 111.03V103.783L380.806 102.822V110.018C380.806 111.706 381.398 112.204 382.583 111.511C383.839 110.777 384.675 109.746 385.089 108.419V100.318L386.734 99.3567V110.495L385.169 111.409L385.134 110.329ZM394.838 102.802C394.838 102.288 394.67 101.988 394.332 101.904C394 101.81 393.417 101.904 392.581 102.187C391.752 102.466 391.091 102.605 390.599 102.604C390.114 102.6 389.752 102.468 389.515 102.209C389.284 101.946 389.169 101.54 389.169 100.991C389.169 100.078 389.5 99.1118 390.164 98.0925C390.833 97.0697 391.687 96.2552 392.723 95.6491C393.814 95.0118 394.696 94.8217 395.372 95.0788C396.053 95.3325 396.394 95.9671 396.394 96.9828L394.741 97.9492C394.741 97.4276 394.548 97.0907 394.163 96.9383C393.784 96.7826 393.304 96.8744 392.723 97.2138C392.125 97.5636 391.657 97.9883 391.319 98.4876C390.982 98.987 390.813 99.4804 390.813 99.9676C390.813 100.427 390.97 100.682 391.284 100.732C391.598 100.782 392.163 100.674 392.981 100.409C393.805 100.14 394.471 100.004 394.981 100.002C395.49 99.9988 395.866 100.136 396.109 100.412C396.358 100.679 396.483 101.11 396.483 101.707C396.483 102.702 396.139 103.703 395.452 104.709C394.764 105.707 393.873 106.527 392.777 107.168C392.006 107.618 391.325 107.859 390.733 107.889C390.14 107.92 389.675 107.753 389.337 107.387C389.006 107.012 388.84 106.495 388.84 105.836L390.484 104.875C390.513 105.496 390.733 105.875 391.141 106.014C391.556 106.142 392.101 106.008 392.777 105.614C393.399 105.25 393.896 104.815 394.27 104.308C394.649 103.792 394.838 103.29 394.838 102.802Z" fill="#455A64"/>
<path opacity="0.1" d="M154.191 279.478L227.938 236.896V357.124L153.977 399.589L154.191 279.478Z" fill="#007CBB"/>
<path opacity="0.15" d="M244.194 229.729L333.161 178.367C334.955 177.299 336.365 178.111 336.365 180.108C336.298 181.213 335.973 182.287 335.417 183.244C334.861 184.201 334.088 185.015 333.161 185.619L244.183 237.558C242.399 238.626 240.979 237.771 240.979 235.71V235.336C241.039 234.215 241.361 233.124 241.919 232.15C242.478 231.177 243.257 230.347 244.194 229.729Z" fill="#007CBB"/>
<path opacity="0.1" d="M243.265 245.291L390.482 160.297C391.764 159.56 392.8 160.083 392.8 161.461C392.744 162.239 392.504 162.993 392.102 163.661C391.699 164.329 391.144 164.892 390.482 165.306L243.265 250.3C241.994 251.037 240.958 250.513 240.958 249.136C241.014 248.359 241.252 247.606 241.653 246.938C242.053 246.27 242.606 245.706 243.265 245.291Z" fill="#007CBB"/>
<path opacity="0.1" d="M243.265 255.351L390.482 170.357C391.764 169.62 392.8 170.144 392.8 171.521C392.744 172.3 392.504 173.053 392.102 173.721C391.699 174.39 391.144 174.953 390.482 175.366L243.265 260.36C241.994 261.097 240.958 260.574 240.958 259.186C241.015 258.411 241.254 257.66 241.655 256.994C242.056 256.328 242.607 255.765 243.265 255.351Z" fill="#007CBB"/>
<path opacity="0.1" d="M243.265 265.402L390.482 180.408C391.764 179.671 392.8 180.194 392.8 181.582C392.742 182.359 392.502 183.11 392.099 183.776C391.697 184.443 391.143 185.004 390.482 185.417L243.265 270.389C241.994 271.126 240.958 270.603 240.958 269.214C241.02 268.444 241.261 267.698 241.662 267.036C242.062 266.374 242.611 265.815 243.265 265.402Z" fill="#007CBB"/>
<path opacity="0.1" d="M243.265 275.462L390.482 190.468C391.764 189.731 392.8 190.255 392.8 191.633C392.744 192.411 392.504 193.164 392.102 193.833C391.699 194.501 391.144 195.064 390.482 195.477L243.265 280.472C241.994 281.208 240.958 280.685 240.958 279.307C241.014 278.53 241.252 277.778 241.653 277.11C242.053 276.442 242.606 275.878 243.265 275.462Z" fill="#007CBB"/>
<path opacity="0.1" d="M243.265 285.523L345.988 225.713C347.259 224.977 348.295 225.5 348.295 226.888C348.237 227.663 347.998 228.414 347.598 229.08C347.197 229.746 346.646 230.309 345.988 230.723L243.265 290.532C241.994 291.269 240.958 290.746 240.958 289.358C241.015 288.583 241.254 287.832 241.655 287.166C242.056 286.5 242.607 285.937 243.265 285.523Z" fill="#007CBB"/>
<path opacity="0.1" d="M243.265 305.634L390.482 220.64C391.764 219.903 392.8 220.427 392.8 221.804C392.744 222.583 392.504 223.336 392.102 224.004C391.699 224.673 391.144 225.236 390.482 225.649L243.265 310.643C241.994 311.38 240.958 310.857 240.958 309.479C241.014 308.702 241.252 307.95 241.653 307.282C242.053 306.614 242.606 306.049 243.265 305.634Z" fill="#007CBB"/>
<path opacity="0.1" d="M243.265 315.695L390.482 230.701C391.764 229.964 392.8 230.487 392.8 231.865C392.744 232.643 392.504 233.397 392.102 234.065C391.699 234.733 391.144 235.297 390.482 235.71L243.265 320.704C241.994 321.441 240.958 320.918 240.958 319.529C241.015 318.754 241.254 318.004 241.655 317.338C242.056 316.672 242.607 316.109 243.265 315.695Z" fill="#007CBB"/>
<path opacity="0.1" d="M243.265 325.745L390.482 240.751C391.764 240.014 392.8 240.538 392.8 241.926C392.742 242.702 392.502 243.454 392.099 244.12C391.697 244.786 391.143 245.348 390.482 245.76L243.265 330.765C241.994 331.502 240.958 330.979 240.958 329.59C241.015 328.814 241.254 328.062 241.655 327.394C242.055 326.726 242.607 326.162 243.265 325.745Z" fill="#007CBB"/>
<path opacity="0.1" d="M243.265 335.806L297.371 304.235C298.642 303.498 299.678 304.022 299.678 305.41C299.62 306.185 299.382 306.936 298.981 307.602C298.58 308.268 298.029 308.83 297.371 309.244L243.275 340.815C242.004 341.552 240.968 341.029 240.968 339.651C241.023 338.875 241.26 338.123 241.659 337.455C242.057 336.787 242.608 336.223 243.265 335.806Z" fill="#007CBB"/>
<path d="M439.996 278.079C447.825 252.681 455.44 235.945 447.676 230.765C440.456 232.111 437.22 235.689 435.682 245.216C434.069 255.202 430.715 269.129 428.761 277.16C427.071 283.872 424.654 290.38 421.552 296.567C421.084 297.423 420.327 298.086 419.415 298.436C417.002 299.386 415.848 300.572 413.883 302.024C412.334 303.092 411.202 303.242 411.277 303.701C411.404 304.216 411.728 304.662 412.179 304.941C412.63 305.221 413.173 305.312 413.691 305.196C414.851 304.977 415.981 304.618 417.055 304.128C416.131 306.468 414.693 308.571 412.847 310.28C409.056 313.484 409.643 316.614 415.72 316.977C417.856 317.105 422.951 315.118 427.639 307.14C429.225 304.166 430.62 301.095 431.815 297.944C435.084 289.763 438.426 283.206 439.996 278.079Z" fill="#FFA8A7"/>
<path d="M449.032 230.466C449.032 230.466 443.008 230.156 439.356 234.183C435.703 238.209 431.452 262.262 431.452 262.262C431.452 262.262 435.447 267.751 445.977 265.466L449.032 230.466Z" fill="#007CBB"/>
<path opacity="0.3" d="M449.032 230.466C449.032 230.466 443.008 230.156 439.356 234.183C435.703 238.209 431.452 262.262 431.452 262.262C431.452 262.262 435.447 267.751 445.977 265.466L449.032 230.466Z" fill="black"/>
<path d="M477.239 401.095H469.154V415.513H477.239V401.095Z" fill="#FFA8A7"/>
<path d="M449.203 400.326L441.118 400.625L440.712 385.363L449.203 385.074V400.326Z" fill="#FFA8A7"/>
<path d="M478.382 276.263C478.382 284.306 477.196 349.028 477.196 349.028C477.378 351.346 479.46 355.618 479.012 364.504C478.403 376.573 477.581 408.294 477.581 408.294C476.193 409.008 474.661 409.397 473.101 409.43C471.541 409.463 469.994 409.14 468.577 408.486C468.577 408.486 460.93 364.536 459.488 352.564C458.217 342.129 456.07 306.969 456.07 306.969L451.691 347.843C452.625 352.242 452.962 356.747 452.695 361.236C452.311 366.768 449.716 395.595 449.716 395.595C448.318 396.418 446.751 396.913 445.133 397.041C443.516 397.168 441.891 396.926 440.381 396.332C440.381 396.332 435.778 352.927 435.682 347.843C435.575 342.054 438.373 276.167 438.373 276.167L478.382 276.263Z" fill="#37474F"/>
<path d="M469.154 411.37V410.163C468.374 410.515 466.58 417.639 463.376 420.715C460.823 423.129 457.341 425.927 456.455 428.629C455.568 431.331 461.304 432.997 463.685 432.559C466.452 432.047 471.258 430.017 472.454 428.127C473.65 426.237 474.227 423.47 475.21 422.093C476.192 420.715 478.414 419.177 478.969 417.575C479.268 416.699 478.969 414.777 478.51 413.153C478.05 411.53 477.73 410.024 477.239 410.163V411.081C476.105 412.022 474.674 412.529 473.202 412.512C472.016 412.544 469.143 412.299 469.154 411.37Z" fill="#263238"/>
<path d="M441.033 398.019C440.616 398.019 440.274 398.649 439.345 399.696C437.972 401.144 436.366 402.35 434.592 403.263C431.559 404.844 425.674 407.268 423.004 408.518C421.349 409.298 421.423 411.391 423.143 412.587C424.862 413.783 429.017 414.638 434.005 413.474C436.718 412.844 440.264 410.27 442.496 410.366C444.728 410.462 448.904 410.483 450.581 409.298C452.258 408.112 451.574 405.581 451.104 403.402C450.591 401.031 449.961 397.325 449.203 397.485V398.308C448.231 399.835 443.211 400.444 441.075 399.376L441.033 398.019Z" fill="#263238"/>
<path d="M456.07 306.98C451.863 305.606 448.016 303.307 444.813 300.251C444.813 300.251 446.949 304.524 453.443 308.433L452.065 344.938L456.07 306.98Z" fill="#263238"/>
<path d="M474.174 232.389C474.174 232.389 480.496 232.976 480.048 245.023L478.649 264.248V293.085C472.7 299.824 446.341 299.322 437.316 292.54C437.316 292.54 438.33 258.438 438.939 245.312C439.377 235.988 441.524 231.288 450.687 230.263L461.955 230.754L474.174 232.389Z" fill="#007CBB"/>
<path opacity="0.3" d="M456.198 238.711L454.746 248.836L451.371 248.772L455.184 249.381L456.198 238.711Z" fill="black"/>
<path d="M464.636 205.239C464.702 208.499 463.471 211.651 461.214 214.004C458.957 216.357 455.859 217.718 452.599 217.789C445.945 217.789 440.851 212.16 440.552 205.25C440.028 192.999 445.945 192.7 452.599 192.7C455.857 192.771 458.954 194.13 461.21 196.481C463.467 198.831 464.699 201.981 464.636 205.239Z" fill="#263238"/>
<path d="M471.461 211.445C471.461 211.445 469.613 220.48 468.876 221.965C468.399 222.87 467.586 223.553 466.612 223.866L466.74 217.511L471.461 211.445Z" fill="#263238"/>
<path d="M469.175 198.5C469.175 198.5 470.499 198.169 471.909 200.369C473.116 202.249 473.394 206.478 471.493 211.444L468.022 211.861L469.175 198.5Z" fill="#263238"/>
<path d="M466.975 211.861C467.669 212.299 468.662 210.9 469.528 209.96C470.393 209.02 473.191 207.749 474.601 210.814C476.01 213.88 473.362 218.088 471.151 218.814C467.338 220.063 466.772 217.511 466.772 217.511L466.473 231.822C461.421 239.651 449.961 239.363 454.084 231.449V227.091C452.387 227.373 450.664 227.466 448.947 227.369C446.148 226.91 444.386 224.613 443.532 221.452C442.165 216.379 441.652 212.288 442.805 202.302C444.087 191.355 456.305 191.259 462.916 195.627C469.528 199.995 466.975 211.861 466.975 211.861Z" fill="#FFA8A7"/>
<path d="M466.537 228.619C465.362 231.024 463.674 233.142 461.592 234.824C459.823 236.131 457.77 237.002 455.6 237.366C457.39 238.579 458.857 240.21 459.872 242.119C461.143 244.895 470.04 237.238 469.955 231.801C469.955 231.801 468.566 226.344 466.644 226.002L466.537 228.619Z" fill="#263238"/>
<path d="M455.6 237.366C455.6 237.366 452.856 236.009 454.084 231.449V227.091L452.877 227.252C451.47 228.622 450.472 230.356 449.993 232.261C449.716 233.51 449.032 239.833 450.239 241.083C451.446 242.332 453.133 237.708 455.6 237.366Z" fill="#263238"/>
<path d="M462.297 199.899C462.609 199.831 462.934 199.849 463.237 199.952C464.305 200.422 464.497 203.648 464.679 204.577C465.288 207.706 465.8 213.015 466.975 213.036C467.327 213.036 468.663 210.74 469.528 209.917C470.734 208.774 469.175 198.457 469.175 198.457C469.493 197.566 469.554 196.604 469.35 195.68C469.146 194.756 468.686 193.909 468.022 193.235C465.886 190.757 462.447 190.201 459.339 190.03C455.675 189.828 451.958 190.105 448.349 189.304C447.215 188.989 446.063 188.743 444.899 188.567C444.85 188.546 444.797 188.536 444.744 188.536C444.691 188.536 444.638 188.546 444.589 188.567C444.472 188.663 444.493 188.845 444.525 188.994C444.751 190.076 445.132 191.119 445.657 192.092C443.508 191.922 441.386 191.503 439.334 190.842C439.216 190.805 439.089 190.805 438.971 190.842C438.726 190.917 438.683 191.237 438.704 191.494C438.843 194.078 440.071 197.987 442.175 199.504C444.04 200.725 446.206 201.409 448.434 201.48C454.095 201.693 457.576 200.497 462.297 199.899Z" fill="#263238"/>
<path d="M469.175 199.045L473.394 196.684C473.265 196.394 473.077 196.133 472.841 195.92C472.606 195.706 472.329 195.544 472.027 195.443C471.726 195.343 471.407 195.306 471.09 195.336C470.774 195.366 470.467 195.461 470.19 195.616C469.628 195.963 469.215 196.504 469.027 197.137C468.84 197.769 468.893 198.449 469.175 199.045Z" fill="#263238"/>
<path d="M454.094 227.091C454.094 227.091 460.343 225.777 462.532 224.571C463.829 223.857 464.882 222.771 465.554 221.452C465.229 222.778 464.644 224.026 463.835 225.126C462.244 227.262 454.094 228.821 454.094 228.821V227.091Z" fill="#F28F8F"/>
<path d="M455.6 210.238C455.623 210.479 455.715 210.708 455.866 210.897C456.016 211.087 456.218 211.228 456.448 211.305C456.677 211.382 456.924 211.391 457.158 211.33C457.392 211.269 457.604 211.142 457.767 210.963C457.93 210.785 458.038 210.563 458.077 210.324C458.117 210.085 458.086 209.84 457.989 209.619C457.892 209.397 457.733 209.209 457.53 209.076C457.328 208.943 457.092 208.872 456.85 208.871C456.677 208.876 456.508 208.916 456.351 208.988C456.194 209.06 456.053 209.163 455.937 209.29C455.82 209.418 455.73 209.567 455.673 209.73C455.615 209.893 455.59 210.065 455.6 210.238Z" fill="#263238"/>
<path d="M457.576 204.833L460.257 206.371C460.451 206.001 460.502 205.573 460.402 205.168C460.302 204.763 460.056 204.408 459.712 204.171C459.533 204.056 459.331 203.982 459.12 203.954C458.909 203.925 458.694 203.943 458.491 204.006C458.287 204.069 458.1 204.176 457.942 204.319C457.784 204.462 457.659 204.637 457.576 204.833Z" fill="#263238"/>
<path d="M454.661 219.252L451.798 220.32C451.855 220.516 451.951 220.699 452.081 220.857C452.211 221.015 452.373 221.145 452.555 221.238C452.737 221.331 452.936 221.386 453.141 221.399C453.345 221.412 453.55 221.382 453.742 221.313C454.123 221.143 454.427 220.839 454.597 220.458C454.766 220.078 454.789 219.648 454.661 219.252Z" fill="#F28F8F"/>
<path d="M444.098 205.976L446.544 204.011C446.433 203.839 446.288 203.692 446.116 203.581C445.945 203.469 445.752 203.395 445.55 203.364C445.348 203.332 445.142 203.344 444.945 203.399C444.748 203.453 444.565 203.549 444.407 203.68C444.081 203.957 443.869 204.344 443.811 204.769C443.754 205.193 443.856 205.623 444.098 205.976Z" fill="#263238"/>
<path d="M445.176 209.864C445.169 210.035 445.196 210.205 445.255 210.365C445.314 210.525 445.404 210.672 445.521 210.797C445.637 210.922 445.777 211.023 445.932 211.094C446.087 211.165 446.255 211.204 446.426 211.21C446.786 211.21 447.131 211.067 447.385 210.812C447.64 210.558 447.782 210.213 447.782 209.853C447.782 209.493 447.64 209.148 447.385 208.894C447.131 208.64 446.786 208.497 446.426 208.497C446.08 208.516 445.756 208.67 445.522 208.926C445.289 209.181 445.165 209.518 445.176 209.864Z" fill="#263238"/>
<path d="M451.884 208.817L451.734 216.731L447.238 215.695L451.884 208.817Z" fill="#F28F8F"/>
<path d="M486.477 216.774C488.282 214.382 491.935 219.69 493.622 223.353C495.31 227.016 495.342 229.088 493.953 230.541C492.565 231.993 489.948 231.118 487.332 227.647C484.715 224.175 485.441 218.536 486.477 216.774Z" fill="#007CBB"/>
<path opacity="0.5" d="M486.477 216.774C488.282 214.382 491.935 219.69 493.622 223.353C495.31 227.016 495.342 229.088 493.953 230.541C492.565 231.993 489.948 231.118 487.332 227.647C484.715 224.175 485.441 218.536 486.477 216.774Z" fill="black"/>
<path d="M499.23 217.479C492.821 232.431 483.903 240.858 479.898 250.481C474.654 250.129 470.564 237.451 474.473 232.036C474.473 232.036 489.831 215.407 491.219 208.87C492.458 203.071 494.114 193.502 493.975 188.578C493.92 187.776 493.583 187.019 493.024 186.442C491.412 184.701 491.412 183.312 490.376 181.401C489.575 179.905 488.688 179.35 488.944 179.008C489.276 178.653 489.73 178.436 490.215 178.4C490.7 178.365 491.181 178.513 491.561 178.816C492.302 179.358 492.967 179.997 493.537 180.717C493.734 178.797 493.421 176.859 492.629 175.099C490.845 171.062 491.283 169.012 496.72 170.443C500.137 171.351 502.273 174.191 502.786 182.383C503.023 185.793 503.045 189.214 502.85 192.626C502.252 198.938 501.878 205.517 501.099 210.782C500.762 213.085 500.134 215.335 499.23 217.479Z" fill="#FFA8A7"/>
<path d="M472.87 232.218L486.413 216.731C486.413 216.731 484.8 220.501 488.325 226.002C491.849 231.502 493.943 230.541 493.943 230.541C493.943 230.541 485.943 242.214 483.807 246.123C481.671 250.032 479.439 253.333 479.439 253.333C479.203 253.789 478.835 254.164 478.384 254.409C477.933 254.655 477.419 254.76 476.908 254.71C474.921 254.71 469.656 245.888 472.87 232.218Z" fill="#007CBB"/>
<path opacity="0.3" d="M472.87 232.218L486.413 216.731C486.413 216.731 484.8 220.501 488.325 226.002C491.849 231.502 493.943 230.541 493.943 230.541C493.943 230.541 485.943 242.214 483.807 246.123C481.671 250.032 479.439 253.333 479.439 253.333C479.203 253.789 478.835 254.164 478.384 254.409C477.933 254.655 477.419 254.76 476.908 254.71C474.921 254.71 469.656 245.888 472.87 232.218Z" fill="black"/>
<path d="M362.97 267.025L369.346 275.516L362.489 283.366L353.656 273.038L362.97 267.025Z" fill="#F28F8F"/>
<path d="M342.09 247.715C347.654 247.971 350.303 248.783 353.219 252.265C356.134 255.746 370.702 276.797 370.702 276.797C370.702 276.797 368.128 284.017 362.489 283.398L352.247 272.835L342.09 247.715Z" fill="#455A64"/>
<path d="M314.791 424.068C314.395 426.283 314.181 428.526 314.15 430.776C314.075 434.834 313.328 436.287 313.231 439.619C313.114 443.432 313.776 444.863 315.368 446.999C316.959 449.135 320.975 451.09 322.694 447.469C324.414 443.848 324.189 441.477 323.634 437.728C323.079 433.98 322.993 431.726 322.673 428.778C322.374 426.172 322.032 424.197 322.032 424.197L314.791 424.068Z" fill="#263238"/>
<path d="M326.336 392.145L312.932 391.899C313.135 400.849 314.556 415.738 314.791 424.122C314.791 425.702 314.791 436.393 315.346 439.651C316.243 444.532 322.032 443.87 322.342 440.954C322.652 438.038 321.968 425.542 321.989 424.25C321.936 418.91 324.457 404.833 325.781 395.167C325.845 394.644 326.272 392.551 326.336 392.145Z" fill="#FFBDA7"/>
<path d="M346.02 417.115C346.02 417.115 345.337 417.115 345.219 417.714C345.102 418.312 345.059 419.444 344.781 420.555C344.326 422.296 344.167 424.101 344.311 425.895C344.536 427.144 347.387 429.003 349.342 429.334C351.296 429.665 354.041 431.587 355.568 433.029C358.021 435.054 361.055 436.243 364.23 436.425C367.434 436.425 369.752 435.357 370.82 433.606C371.888 431.854 369.848 431.651 366.131 429.238L363.237 427.358C357.352 423.513 355.194 421.452 353.528 417.607L346.02 417.115Z" fill="#263238"/>
<path d="M353.571 415.022C353.475 412.245 354.885 391.846 354.885 391.846L343.361 393.149C346.095 409.404 346.308 414.948 345.999 417.319C345.941 417.538 345.916 417.765 345.924 417.991C345.924 421.196 349.502 422.862 352.332 424.966C353.4 425.799 356.252 428.362 359.563 429.483C361.699 430.22 365.661 430.551 366.163 429.195C362.788 426.61 358.174 423.235 355.483 420.277C354.158 418.846 353.667 417.778 353.571 415.022Z" fill="#FFBDA7"/>
<path d="M316.04 299.61C309.76 313.345 316.275 361.706 316.275 361.706C316.083 363.938 313.531 368.317 312.591 378.132C311.469 389.71 314.652 420.736 314.652 420.736C315.774 421.417 317.056 421.79 318.369 421.818C319.681 421.846 320.978 421.528 322.128 420.896C322.128 420.896 330.235 375.313 331.74 363.799C333.011 353.738 335.447 331.63 335.447 331.63L342.367 363.735C341.352 366.977 340.616 370.3 340.167 373.668C339.516 380.439 346.116 414.456 346.116 414.456C347.306 414.947 348.583 415.187 349.87 415.162C351.156 415.136 352.424 414.845 353.592 414.306C353.592 414.306 356.508 370.368 357.128 362.208C358.196 348.494 354.511 305.72 352.001 297.603L316.04 299.61Z" fill="#007CBB"/>
<path opacity="0.5" d="M316.04 299.61C309.76 313.345 316.275 361.706 316.275 361.706C316.083 363.938 313.531 368.317 312.591 378.132C311.469 389.71 314.652 420.736 314.652 420.736C315.774 421.417 317.056 421.79 318.369 421.818C319.681 421.846 320.978 421.528 322.128 420.896C322.128 420.896 330.235 375.313 331.74 363.799C333.011 353.738 335.447 331.63 335.447 331.63L342.367 363.735C341.352 366.977 340.616 370.3 340.167 373.668C339.516 380.439 346.116 414.456 346.116 414.456C347.306 414.947 348.583 415.187 349.87 415.162C351.156 415.136 352.424 414.845 353.592 414.306C353.592 414.306 356.508 370.368 357.128 362.208C358.196 348.494 354.511 305.72 352.001 297.603L316.04 299.61Z" fill="black"/>
<path opacity="0.2" d="M335.425 331.63L337.465 318.878C337.465 318.878 346.095 317.094 350.015 313.409C347.311 316.579 343.774 318.929 339.804 320.191L337.508 330.017L341.524 359.741L335.425 331.63Z" fill="black"/>
<path d="M319.266 256.964L327.81 259.186V241.104C323.089 239.875 319.266 242.599 319.266 247.192V256.964Z" fill="#784B4B"/>
<path d="M336.183 243.688L333.118 243.624C323.762 243.4 316.35 235.336 316.553 225.596C316.553 214.98 324.777 206.371 334.966 206.275C345.155 206.222 353.464 214.819 353.518 225.393V226.461C353.261 236.212 345.518 243.891 336.183 243.688Z" fill="#784B4B"/>
<path d="M321.861 210.708C321.787 210.398 321.649 210.107 321.457 209.852C321.265 209.598 321.023 209.386 320.745 209.23C320.467 209.073 320.161 208.976 319.844 208.944C319.527 208.911 319.206 208.945 318.903 209.041L319.725 212.246C319.555 212.029 319.345 211.848 319.106 211.712C318.829 211.555 318.522 211.458 318.205 211.427C317.888 211.397 317.568 211.433 317.266 211.533C316.964 211.634 316.687 211.797 316.452 212.012C316.217 212.226 316.029 212.488 315.902 212.78L320.067 215.225C320.284 214.808 320.38 214.338 320.345 213.869C320.941 213.619 321.425 213.159 321.704 212.577C321.984 211.994 322.04 211.329 321.861 210.708Z" fill="#784B4B"/>
<path d="M326.913 248.452C324.037 248.842 321.184 249.391 318.369 250.097C321.68 258.214 316.489 270.752 316.489 270.752L321.391 285.844C318.006 292.775 315.218 296.214 314.065 301.864C317.183 307.952 339.195 313.762 353.528 302.665C353.528 302.665 353.069 287.253 351.243 278.271C355.931 269.118 355.173 266.427 354.212 263.233C351.98 255.811 347.473 252.959 342.1 247.726L338.896 247.384L326.913 248.452Z" fill="#37474F"/>
<path d="M321.936 291.889C324.595 289.165 330.235 288.386 330.235 288.386L325.055 285.438L319.266 271.457C321.695 266.699 322.896 261.408 322.758 256.067L319.426 255.266C319.832 262.667 316.478 270.763 316.478 270.763L321.381 285.854C317.995 292.786 315.207 296.225 314.054 301.875C316.19 306.04 327.18 310.077 338.501 308.646C323.335 307.621 319.383 294.527 321.936 291.889Z" fill="#263238"/>
<path d="M337.262 308.764L337.882 308.699C337.674 308.703 337.467 308.725 337.262 308.764Z" fill="#E6E6E6"/>
<path d="M346.64 215.738C348.477 217.426 350.773 221.078 350.591 231.759C350.431 240.837 347.622 243.09 346.202 243.742C344.781 244.393 342.058 244.02 339.398 243.571V247.33C339.398 247.33 342.901 251.218 342.688 253.739C342.474 256.259 337.689 257.274 334.24 254.807C331.809 252.966 329.652 250.791 327.831 248.345V236.928C327.831 236.928 326.272 238.519 323.559 236.127C321.423 234.14 320.612 230.787 322.31 228.971C322.746 228.541 323.281 228.225 323.867 228.05C324.454 227.875 325.075 227.847 325.675 227.969C326.275 228.09 326.836 228.357 327.309 228.746C327.782 229.135 328.152 229.634 328.387 230.199C332.457 229.774 336.42 228.631 340.092 226.824C342.158 225.831 343.882 224.247 345.047 222.274C346.213 220.301 346.767 218.026 346.64 215.738Z" fill="#FFBDA7"/>
<path d="M339.388 229.718C339.387 229.926 339.326 230.129 339.212 230.302C339.098 230.475 338.936 230.612 338.746 230.694C338.555 230.777 338.345 230.803 338.141 230.768C337.936 230.733 337.746 230.64 337.594 230.499C337.442 230.358 337.334 230.176 337.283 229.974C337.233 229.773 337.242 229.561 337.31 229.365C337.378 229.169 337.502 228.997 337.666 228.87C337.83 228.743 338.027 228.667 338.234 228.65C338.527 228.644 338.811 228.752 339.026 228.952C339.242 229.151 339.371 229.426 339.388 229.718Z" fill="#263238"/>
<path d="M339.804 237.28L342.656 238.209C342.61 238.404 342.525 238.588 342.406 238.748C342.287 238.909 342.136 239.043 341.963 239.144C341.79 239.244 341.598 239.307 341.4 239.33C341.201 239.353 341 239.335 340.808 239.277C340.42 239.132 340.101 238.846 339.915 238.476C339.729 238.105 339.689 237.678 339.804 237.28Z" fill="#F79776"/>
<path d="M349.705 225.628L347.109 224.741C347.15 224.568 347.227 224.406 347.335 224.264C347.443 224.122 347.579 224.005 347.735 223.919C347.891 223.834 348.064 223.782 348.241 223.767C348.418 223.752 348.597 223.775 348.765 223.834C349.115 223.964 349.405 224.22 349.578 224.551C349.752 224.882 349.797 225.266 349.705 225.628Z" fill="#784B4B"/>
<path d="M328.398 229.184V233.019C328.643 233.029 328.889 232.989 329.119 232.9C329.349 232.812 329.558 232.678 329.734 232.506C329.91 232.334 330.049 232.128 330.143 231.9C330.236 231.672 330.282 231.428 330.277 231.182C330.281 230.671 330.087 230.178 329.737 229.806C329.387 229.435 328.908 229.212 328.398 229.184Z" fill="#784B4B"/>
<path d="M348.765 229.345C348.789 229.652 348.689 229.956 348.489 230.19C348.289 230.425 348.004 230.57 347.697 230.594C347.462 230.617 347.225 230.57 347.017 230.457C346.809 230.344 346.64 230.172 346.53 229.963C346.421 229.753 346.377 229.515 346.404 229.28C346.43 229.046 346.527 228.824 346.68 228.644C346.834 228.465 347.038 228.335 347.266 228.272C347.493 228.209 347.735 228.215 347.959 228.291C348.183 228.366 348.38 228.507 348.523 228.694C348.667 228.882 348.751 229.109 348.765 229.345Z" fill="#263238"/>
<path d="M342.677 227.796L342.656 235.23L346.116 234.087L342.677 227.796Z" fill="#F79776"/>
<path d="M339.398 243.613C336.589 243.25 330.854 241.552 329.904 239.181C330.265 240.371 330.976 241.424 331.943 242.204C333.674 243.731 339.42 245.408 339.42 245.408L339.398 243.613Z" fill="#F79776"/>
<path d="M305.221 286.41C305.221 286.41 312.078 296.15 313.253 297.421C314.428 298.692 315.239 298.265 316.51 297.699C318.06 297.073 319.652 296.555 321.274 296.15C323.41 295.627 323.816 297.56 321.744 298.938C320.248 299.942 318.54 300.369 319.244 301.191C320.706 302.514 322.401 303.554 324.243 304.256C329.305 306.254 328.91 307.258 327.981 308.892C327.169 310.323 324.777 313.399 315.763 309.768C312.025 308.262 306.77 304 304.292 301.223C300.714 297.261 295.128 290.158 295.128 290.158L305.221 286.41Z" fill="#FFBDA7"/>
<path d="M319.682 249.744C317.205 249.904 312.537 250.502 306.684 260.222C301.547 268.766 293.59 280.311 292.116 284.445C291.518 286.121 293.847 289.592 296.848 293.149C300.938 292.967 304.666 290.137 306.599 287.873C306.092 286.669 305.462 285.52 304.719 284.445L316.724 270.752C316.724 270.752 321.284 266.576 322.235 261.14C323.26 255.245 322.94 250.609 319.682 249.744Z" fill="#455A64"/>
<path d="M386.894 268.178L357.299 275.975L349.149 309.458L377.292 301.287L386.894 268.178Z" fill="#007CBB"/>
<path opacity="0.25" d="M386.894 268.178L357.299 275.975L349.149 309.458L377.292 301.287L386.894 268.178Z" fill="black"/>
<g opacity="0.1">
<path opacity="0.1" d="M373.522 291.889C374.017 292.923 374.806 293.788 375.79 294.376C376.774 294.965 377.909 295.251 379.054 295.2L379.268 294.463L373.522 291.889Z" fill="black"/>
</g>
<g opacity="0.1">
<path opacity="0.1" d="M377.976 273.497L378.221 272.365C378.36 271.746 376.619 271.714 374.344 272.365L369.976 273.433C367.701 274.031 365.704 275.014 365.608 275.633L365.373 276.765L377.976 273.497Z" fill="black"/>
</g>
<path d="M380.251 269.257C380.336 268.862 379.631 268.755 378.681 269.022L376.95 269.503C376.95 269.503 377.463 267.057 373.639 267.911C372.613 268.063 371.643 268.476 370.823 269.112C370.004 269.749 369.362 270.586 368.961 271.543L367.124 272.066C366.056 272.354 365.181 272.899 365.063 273.284L364.839 273.988L380.09 269.973L380.251 269.257Z" fill="#37474F"/>
<path d="M378.146 270.453C376.758 270.795 376.171 270.977 376.01 271.938C375.85 272.899 375.669 273.839 375.669 273.839L368.929 275.623C368.929 275.623 369.26 274.234 369.367 273.7C369.474 273.166 369.239 272.824 368.16 273.113L368.075 272.686L378.648 269.983L378.146 270.453Z" fill="#37474F"/>
<path d="M378.381 273.593L378.627 272.461C378.766 271.842 377.025 271.81 374.75 272.461L370.382 273.529C368.107 274.127 366.11 275.11 366.014 275.729L365.779 276.861L378.381 273.593Z" fill="#37474F"/>
<path d="M383.775 278.934C383.775 278.934 382.707 282.725 382.419 283.622C382.13 284.519 378.841 286.153 376.673 286.752C374.505 287.35 372.112 288.055 373.148 291.098C374.088 293.907 377.677 294.548 379.492 294.463C381.308 294.377 383.818 292.647 384.832 289.838C386.082 286.25 385.409 282.426 385.9 280.333C386.392 278.239 384.864 277.684 383.775 278.934Z" fill="#FFBDA7"/>
<path d="M271.664 279.82C267.605 275.729 266.153 277.321 265.64 281.807C265.45 283.688 264.993 285.533 264.284 287.286C264.157 286.354 263.902 285.445 263.525 284.583C263.347 284.118 262.999 283.737 262.551 283.517C262.103 283.297 261.589 283.254 261.112 283.398C260.716 283.558 261.208 284.466 261.112 286.25C261.037 288.471 260.31 289.699 260.834 292.06C261.016 292.948 260.876 293.872 260.439 294.666C258.303 298.724 251.264 306.222 246.33 311.626L227.586 294.698C221.178 288.93 219.106 286.335 212.922 286.752C214.857 287.485 216.638 288.572 218.177 289.956C221.05 292.38 220.366 306.254 220.366 306.254C220.366 306.254 241.641 321.505 243.863 322.958C244.183 323.171 244.514 323.364 244.835 323.545C245.885 324.093 247.089 324.269 248.253 324.046C249.416 323.823 250.469 323.214 251.243 322.317C255.782 317.126 262.404 306.905 266.195 301.597C267.929 299.028 269.475 296.336 270.82 293.544C274.622 285.993 274.206 282.383 271.664 279.82Z" fill="#914F4E"/>
<path d="M213.584 286.41C215.078 286.138 216.613 286.188 218.087 286.556C219.56 286.925 220.938 287.603 222.128 288.546C225.781 291.323 241.353 305.634 241.353 305.634C241.353 305.634 241.78 313.207 233.877 317.714L214.791 304.257L213.584 286.41Z" fill="#007CBB"/>
<path opacity="0.3" d="M213.584 286.41C215.078 286.138 216.613 286.188 218.087 286.556C219.56 286.925 220.938 287.603 222.128 288.546C225.781 291.323 241.353 305.634 241.353 305.634C241.353 305.634 241.78 313.207 233.877 317.714L214.791 304.257L213.584 286.41Z" fill="black"/>
<path d="M195.16 457.252H187.075V471.671H195.16V457.252Z" fill="#914F4E"/>
<path d="M215.111 456.483L223.196 456.772L223.602 441.51L215.111 441.221V456.483Z" fill="#914F4E"/>
<path d="M185.933 332.41C185.933 340.452 187.118 405.186 187.118 405.186C186.937 407.493 184.854 411.765 185.303 420.651C185.911 432.73 186.734 464.44 186.734 464.44C188.122 465.151 189.655 465.537 191.214 465.569C192.774 465.6 194.321 465.276 195.737 464.622C195.737 464.622 203.384 420.672 204.837 408.71C206.097 398.265 208.244 363.105 208.244 363.105L212.623 403.99C211.69 408.385 211.352 412.886 211.619 417.372C212.003 422.904 214.599 451.731 214.599 451.731C215.997 452.558 217.565 453.055 219.185 453.185C220.804 453.314 222.432 453.073 223.944 452.478C223.944 452.478 228.536 409.063 228.633 403.99C228.739 398.201 225.941 332.303 225.941 332.303L185.933 332.41Z" fill="#37474F"/>
<path d="M195.161 467.505V466.309C195.94 466.662 197.734 473.786 200.939 476.851C203.491 479.275 206.973 482.073 207.859 484.776C208.746 487.478 203.011 489.133 200.629 488.695C197.863 488.183 193.056 486.153 191.86 484.274C190.664 482.394 190.087 479.606 189.105 478.229C188.122 476.851 185.901 475.313 185.345 473.711C185.187 472.221 185.343 470.714 185.805 469.289C186.178 467.805 186.584 466.17 187.075 466.309V467.228C188.216 468.162 189.649 468.665 191.123 468.648C192.298 468.691 195.171 468.445 195.161 467.505Z" fill="#263238"/>
<path d="M223.282 454.176C223.698 454.176 224.04 454.807 224.969 455.853C226.342 457.297 227.949 458.5 229.722 459.41C232.755 460.99 238.64 463.426 241.31 464.675C242.976 465.455 242.891 467.548 241.171 468.734C239.452 469.919 235.297 470.784 230.309 469.631C227.597 468.99 224.051 466.427 221.765 466.523C219.48 466.619 215.357 466.63 213.68 465.455C212.003 464.28 212.687 461.727 213.157 459.559C213.669 457.178 214.31 453.472 215.058 453.632V454.454C216.03 455.992 221.05 456.59 223.186 455.522L223.282 454.176Z" fill="#263238"/>
<path d="M208.244 363.127C212.452 361.752 216.298 359.453 219.501 356.398C219.501 356.398 217.365 360.67 210.871 364.579L212.249 401.095L208.244 363.127Z" fill="#263238"/>
<path d="M190.141 288.546C190.141 288.546 183.818 289.123 184.267 301.181L185.666 320.405L185.538 349.242C191.476 355.981 217.846 355.49 226.87 348.697C226.87 348.697 225.941 314.595 225.332 301.469C224.895 292.145 222.748 287.446 213.584 286.42L202.306 286.912L190.141 288.546Z" fill="#007CBB"/>
<path opacity="0.3" d="M208.116 294.869L209.568 304.994L212.954 304.93L209.13 305.528L208.116 294.869Z" fill="black"/>
<path d="M170.072 329.943C173.351 303.562 180.902 290.426 190.098 288.909L189.447 305.784C185.618 314.784 182.684 324.138 180.689 333.713C179.482 340.207 178.083 351.496 178.446 357.039C178.518 358.016 178.935 358.935 179.621 359.634C181.436 361.482 181.981 363.084 183.199 365.166C184.16 366.801 185.142 367.377 184.886 367.772C184.556 368.188 184.076 368.458 183.55 368.526C183.023 368.594 182.491 368.454 182.066 368.136C181.103 367.453 180.221 366.661 179.439 365.775C179.322 368.29 179.775 370.798 180.763 373.113C182.899 377.556 182.558 379.895 176.598 378.581C172.86 377.769 170.19 373.828 169.122 364.632C168.841 361.201 168.78 357.755 168.94 354.315C169.346 345.525 169.421 335.219 170.072 329.943Z" fill="#914F4E"/>
<path d="M190.621 288.471C185.847 288.471 181.49 289.293 178.019 295.947C174.697 302.355 172.144 315.909 170.852 320.341C170.852 320.341 177.826 324.464 184.245 324.357L188.763 308.678C188.763 308.678 191.818 301.362 190.621 288.471Z" fill="#007CBB"/>
<path opacity="0.3" d="M190.621 288.471C185.847 288.471 181.49 289.293 178.019 295.947C174.697 302.355 172.144 315.909 170.852 320.341C170.852 320.341 177.826 324.464 184.245 324.357L188.763 308.678C188.763 308.678 191.818 301.362 190.621 288.471Z" fill="black"/>
<path d="M200.479 261.322C200.576 263.682 201.363 265.961 202.745 267.877C204.126 269.793 206.04 271.26 208.249 272.097C210.458 272.933 212.864 273.102 215.168 272.582C217.472 272.063 219.572 270.877 221.208 269.173C222.843 267.47 223.942 265.323 224.367 262.999C224.792 260.676 224.525 258.279 223.599 256.106C222.673 253.934 221.129 252.081 219.158 250.779C217.188 249.477 214.878 248.783 212.516 248.783C209.258 248.853 206.161 250.213 203.905 252.563C201.648 254.914 200.416 258.064 200.479 261.322Z" fill="#263238"/>
<path d="M192.821 267.591C192.821 267.591 194.669 276.627 195.406 278.111C195.887 279.02 196.703 279.706 197.681 280.023L197.542 273.615L192.821 267.591Z" fill="#263238"/>
<path d="M195.139 254.647C195.139 254.647 193.772 254.369 192.405 256.505C191.198 258.385 190.931 262.614 192.821 267.58L196.293 267.997L195.139 254.647Z" fill="#263238"/>
<path d="M197.339 268.007C196.645 268.445 195.652 267.046 194.787 266.117C193.922 265.188 191.123 263.896 189.724 266.971C188.325 270.047 190.952 274.245 193.163 274.96C196.976 276.21 197.542 273.657 197.542 273.657L197.841 287.98C202.893 295.798 214.353 295.52 210.23 287.595V283.206C211.927 283.488 213.65 283.581 215.368 283.483C218.166 283.035 219.928 280.728 220.783 277.566C222.15 272.493 222.662 268.403 221.509 258.427C220.238 247.491 208.03 247.373 201.43 251.699C194.829 256.024 197.339 268.007 197.339 268.007Z" fill="#914F4E"/>
<path d="M197.777 284.765C198.952 287.17 200.64 289.288 202.722 290.97C204.493 292.276 206.545 293.15 208.714 293.523C206.926 294.733 205.46 296.361 204.442 298.265C203.181 301.052 194.274 293.395 194.359 287.958C194.359 287.958 195.759 282.501 197.67 282.148L197.777 284.765Z" fill="#263238"/>
<path d="M208.724 293.523C208.724 293.523 211.469 292.156 210.241 287.595V283.206L211.448 283.366C212.854 284.736 213.853 286.47 214.332 288.375C214.609 289.624 215.293 295.947 214.086 297.197C212.879 298.446 211.181 293.886 208.724 293.523Z" fill="#263238"/>
<path d="M197.339 269.236C196.987 269.236 195.652 266.939 194.787 266.117C193.58 264.974 195.139 254.646 195.139 254.646C194.825 253.755 194.766 252.793 194.97 251.87C195.174 250.947 195.632 250.1 196.293 249.424C197.948 247.533 200.704 247.288 205.403 246.561C207.279 246.331 209.141 245.992 210.978 245.547C212.918 244.821 214.785 243.913 216.553 242.834C217.109 242.473 217.776 242.322 218.433 242.407C218.736 242.509 219.007 242.689 219.219 242.929C219.431 243.169 219.576 243.46 219.64 243.774C219.747 244.399 219.747 245.039 219.64 245.664C220.234 245.112 221.023 244.817 221.833 244.845C222.644 244.873 223.411 245.222 223.965 245.814C224.49 246.439 224.831 247.196 224.952 248.003C225.073 248.81 224.968 249.634 224.649 250.385C223.966 251.879 222.85 253.133 221.445 253.984C215.539 257.979 208.564 256.868 201.942 256.12C201.63 256.05 201.303 256.072 201.003 256.184C199.935 256.654 199.742 259.869 199.561 260.798C199.027 263.896 198.514 269.214 197.339 269.236Z" fill="#263238"/>
<path d="M195.139 255.191L190.931 252.831C191.059 252.539 191.246 252.278 191.481 252.063C191.716 251.848 191.994 251.685 192.296 251.585C192.598 251.484 192.917 251.448 193.234 251.479C193.551 251.509 193.858 251.606 194.135 251.763C194.695 252.111 195.106 252.653 195.291 253.285C195.477 253.918 195.422 254.596 195.139 255.191Z" fill="#263238"/>
<path d="M210.22 283.206C210.22 283.206 203.972 281.892 201.782 280.685C200.483 279.975 199.429 278.888 198.76 277.566C199.085 278.892 199.67 280.141 200.479 281.24C202.071 283.377 210.22 284.947 210.22 284.947V283.206Z" fill="#783736"/>
<path d="M207.956 266.01C207.963 266.181 207.936 266.352 207.877 266.513C207.818 266.674 207.728 266.822 207.612 266.948C207.496 267.074 207.356 267.175 207.201 267.247C207.045 267.319 206.877 267.36 206.706 267.367C206.36 267.347 206.036 267.193 205.802 266.938C205.569 266.682 205.445 266.346 205.456 266C205.456 265.668 205.588 265.35 205.822 265.116C206.057 264.882 206.375 264.75 206.706 264.75C207.037 264.75 207.355 264.882 207.59 265.116C207.824 265.35 207.956 265.668 207.956 266V266.01Z" fill="#263238"/>
<path d="M205.809 260.585L203.128 262.123C202.935 261.742 202.892 261.303 203.006 260.892C203.121 260.481 203.385 260.127 203.747 259.901C203.926 259.802 204.123 259.741 204.326 259.722C204.529 259.702 204.735 259.726 204.928 259.79C205.122 259.854 205.3 259.958 205.452 260.095C205.604 260.232 205.725 260.399 205.809 260.585Z" fill="#263238"/>
<path d="M209.654 275.398L212.516 276.52C212.46 276.716 212.363 276.899 212.233 277.057C212.103 277.214 211.941 277.343 211.759 277.436C211.576 277.528 211.377 277.581 211.172 277.593C210.968 277.604 210.764 277.574 210.572 277.502C210.182 277.332 209.87 277.021 209.7 276.631C209.53 276.241 209.513 275.8 209.654 275.398Z" fill="#783736"/>
<path d="M220.473 262.08L217.653 260.713C217.722 260.522 217.831 260.348 217.972 260.201C218.113 260.055 218.284 259.941 218.472 259.865C218.661 259.789 218.863 259.755 219.066 259.763C219.269 259.771 219.469 259.822 219.65 259.912C220.032 260.107 220.327 260.437 220.479 260.838C220.631 261.238 220.628 261.681 220.473 262.08Z" fill="#263238"/>
<path d="M218.625 266.01C218.641 266.185 218.621 266.361 218.565 266.527C218.509 266.693 218.42 266.846 218.301 266.975C218.183 267.105 218.04 267.208 217.879 267.279C217.719 267.35 217.545 267.386 217.37 267.386C217.195 267.386 217.022 267.35 216.861 267.279C216.701 267.208 216.557 267.105 216.439 266.975C216.321 266.846 216.231 266.693 216.175 266.527C216.12 266.361 216.099 266.185 216.115 266.01C216.108 265.84 216.135 265.669 216.194 265.509C216.253 265.349 216.343 265.202 216.459 265.077C216.576 264.952 216.715 264.851 216.871 264.78C217.026 264.709 217.194 264.67 217.365 264.665C217.71 264.678 218.035 264.827 218.271 265.079C218.507 265.331 218.634 265.665 218.625 266.01Z" fill="#263238"/>
<path d="M211.523 265.039L211.662 272.953L216.158 271.927L211.523 265.039Z" fill="#783736"/>
<path d="M206.022 262.742C205.192 262.742 204.396 263.072 203.81 263.659C203.223 264.246 202.893 265.042 202.893 265.871C202.893 266.701 203.223 267.497 203.81 268.084C204.396 268.671 205.192 269.001 206.022 269.001H206.588C207.418 269.001 208.214 268.671 208.801 268.084C209.388 267.497 209.718 266.701 209.718 265.871C209.718 265.042 209.388 264.246 208.801 263.659C208.214 263.072 207.418 262.742 206.588 262.742H206.022ZM202.316 265.871C202.308 264.882 202.692 263.929 203.385 263.223C204.077 262.516 205.022 262.113 206.012 262.101H206.588C207.496 262.22 208.329 262.665 208.932 263.353C209.535 264.041 209.868 264.924 209.868 265.839C209.868 266.754 209.535 267.638 208.932 268.326C208.329 269.014 207.496 269.459 206.588 269.578H206.022C205.041 269.572 204.102 269.18 203.408 268.486C202.714 267.792 202.322 266.853 202.316 265.871Z" fill="#263238"/>
<path d="M217.269 262.742C216.439 262.742 215.643 263.072 215.056 263.659C214.469 264.246 214.139 265.042 214.139 265.871C214.139 266.701 214.469 267.497 215.056 268.084C215.643 268.671 216.439 269.001 217.269 269.001H217.835C218.665 269.001 219.461 268.671 220.048 268.084C220.634 267.497 220.964 266.701 220.964 265.871C220.964 265.042 220.634 264.246 220.048 263.659C219.461 263.072 218.665 262.742 217.835 262.742H217.269ZM213.573 265.871C213.565 264.882 213.949 263.929 214.642 263.223C215.335 262.516 216.279 262.113 217.269 262.101H217.835C218.742 262.22 219.575 262.665 220.178 263.353C220.782 264.041 221.115 264.924 221.115 265.839C221.115 266.754 220.782 267.638 220.178 268.326C219.575 269.014 218.742 269.459 217.835 269.578H217.269C216.293 269.564 215.362 269.168 214.675 268.475C213.988 267.782 213.6 266.847 213.595 265.871H213.573Z" fill="#263238"/>
<path d="M210.241 265.124C210.465 264.814 210.758 264.56 211.098 264.384C211.437 264.208 211.813 264.114 212.196 264.109C212.511 264.075 212.83 264.118 213.126 264.233C213.421 264.348 213.685 264.533 213.894 264.772L214.396 264.387C214.129 264.061 213.785 263.808 213.395 263.649C213.005 263.491 212.582 263.432 212.164 263.479C211.679 263.484 211.202 263.606 210.774 263.835C210.347 264.064 209.981 264.392 209.707 264.793L210.241 265.124Z" fill="#263238"/>
<path d="M202.658 265.092H196.293V265.722H202.658V265.092Z" fill="#263238"/>
</svg>
