<svg viewBox="0 0 531 516">
	<g transform="matrix(1,0,0,1,-41.661,-62)">
		<g>
			<path d="M167.501,198.952C167.501,198.952 -29.211,385.896 69.254,503.894C167.719,621.893 388.148,592.898 496.303,456.834C604.458,320.769 599.337,214.119 469.911,116.643C340.486,19.166 254.109,115.105 167.501,198.952Z" style="fill:rgb(245, 245, 245);
	fill-rule:nonzero;" />
		</g>
		<path d="M158.47,408.624C153.165,411.215 147.271,412.364 141.38,411.954C131.19,411.384 127.86,405.734 127.86,405.734C127.86,405.734 133.73,397.324 139.86,395.944C139.86,395.944 129.95,395.834 121.24,399.264C121.24,399.264 115.24,398.064 114.78,388.354C114.78,388.354 119.54,383.594 132.15,383.194C132.15,383.194 125.27,379.794 114.2,380.194C113.35,380.334 112.55,367.734 112.72,362.034C112.89,356.334 115.08,356.874 119.6,356.654C124.12,356.434 138.82,358.854 140.99,361.784C143.16,364.714 142.78,373.034 142.78,373.034C145.038,370.077 146.625,366.665 147.43,363.034C147.43,363.034 150.3,362.624 156.2,366.034C167.07,372.304 167.9,379.624 168.01,385.184C168.16,391.354 166.27,402.854 158.47,408.624Z" style="fill:rgb(0, 124, 187);
	fill-rule:nonzero;" />
		<path d="M158.35,409.184C158.247,409.158 158.153,409.106 158.078,409.032C158.002,408.958 157.948,408.866 157.92,408.764C153.53,390.514 128.1,364.933 117.92,360.593C117.851,360.564 117.789,360.521 117.736,360.467C117.684,360.414 117.643,360.35 117.615,360.281C117.587,360.211 117.573,360.137 117.574,360.062C117.575,359.987 117.591,359.912 117.62,359.843C117.65,359.775 117.693,359.712 117.746,359.66C117.8,359.607 117.863,359.566 117.933,359.538C118.003,359.51 118.077,359.496 118.152,359.497C118.227,359.498 118.301,359.514 118.37,359.543C128.74,363.963 154.57,389.964 159.02,408.484C159.04,408.555 159.044,408.63 159.034,408.703C159.024,408.777 158.999,408.847 158.96,408.911C158.922,408.974 158.871,409.03 158.811,409.073C158.751,409.116 158.683,409.147 158.61,409.163C158.527,409.195 158.437,409.202 158.35,409.184Z" style="fill:white;
	fill-rule:nonzero;" />
		<path d="M420.74,318.134C420.13,316.563 419.681,314.935 419.4,313.274C418.68,309.557 418.995,305.714 420.31,302.164C420.981,300.397 422.008,298.788 423.328,297.436C424.647,296.084 426.231,295.017 427.98,294.304C429.203,293.999 430.339,293.417 431.3,292.604C432.208,291.52 432.888,290.265 433.3,288.914C433.924,286.703 434.741,284.552 435.74,282.484C437.203,280.151 439.449,278.416 442.075,277.59C444.701,276.763 447.535,276.899 450.07,277.974C451.21,278.504 452.25,279.214 453.42,279.644C457.15,281.014 461.25,277.444 464.65,276.264C468.7,274.864 473.43,274.164 477.37,276.264C482.3,278.904 482.7,284.414 478.89,288.404C477.1,290.274 474.89,291.984 474.25,294.494C473.35,298.124 476.25,301.784 475.74,305.494C475.24,309.434 472.98,310.884 469.34,312.004L465.25,313.274C463.579,313.623 462.039,314.438 460.81,315.624C459.1,317.624 459.14,320.804 458.47,323.224C458.072,324.491 457.412,325.662 456.534,326.659C455.655,327.656 454.578,328.458 453.37,329.014C448.85,331.279 443.754,332.14 438.74,331.484C435.664,331.225 432.662,330.394 429.89,329.034C425.89,326.914 422.65,322.654 420.89,318.564L420.74,318.134Z" style="fill:rgb(0, 124, 187);
	fill-rule:nonzero;" />
		<path d="M425.3,322.484C426.48,323.153 428.48,318.804 429.06,317.994C430.53,315.904 432.06,313.883 433.71,311.913C436.646,308.365 439.824,305.024 443.22,301.913C448.326,297.175 453.932,293.007 459.94,289.484C462.398,287.989 464.973,286.698 467.64,285.623C467.789,285.567 467.909,285.455 467.974,285.311C468.04,285.166 468.046,285.002 467.99,284.853C467.965,284.78 467.925,284.712 467.872,284.654C467.82,284.596 467.756,284.549 467.685,284.517C467.614,284.484 467.537,284.466 467.459,284.464C467.381,284.461 467.303,284.475 467.23,284.504C458.57,287.774 450.51,293.763 443.66,299.843C440.056,303.043 436.684,306.495 433.57,310.174C432.35,311.604 424.02,321.374 425.22,322.374L425.3,322.484Z" style="fill:white;
	fill-rule:nonzero;" />
		<path d="M441.39,303.224L441.53,303.224C449.95,302.314 462.97,304.894 463.1,304.914C463.255,304.943 463.416,304.91 463.547,304.822C463.678,304.734 463.769,304.598 463.8,304.444C463.816,304.367 463.817,304.288 463.802,304.21C463.787,304.133 463.756,304.06 463.712,303.995C463.669,303.93 463.612,303.874 463.547,303.831C463.481,303.788 463.408,303.758 463.33,303.744C462.79,303.634 450.01,301.114 441.4,302.034C441.244,302.034 441.094,302.096 440.983,302.207C440.872,302.317 440.81,302.467 440.81,302.624C440.81,302.78 440.872,302.93 440.983,303.041C441.094,303.152 441.244,303.214 441.4,303.214L441.39,303.224Z" style="fill:white;
	fill-rule:nonzero;" />
		<path d="M445.74,299.304C445.819,299.309 445.897,299.299 445.971,299.273C446.046,299.248 446.114,299.208 446.173,299.156C446.232,299.104 446.279,299.04 446.313,298.97C446.347,298.899 446.366,298.822 446.37,298.744C446.597,294.44 446.206,290.126 445.21,285.934C445.164,285.787 445.063,285.665 444.929,285.59C444.794,285.516 444.637,285.496 444.488,285.535C444.34,285.573 444.212,285.667 444.13,285.797C444.049,285.927 444.02,286.083 444.05,286.234C445.003,290.307 445.384,294.494 445.18,298.674C445.172,298.831 445.226,298.986 445.331,299.103C445.436,299.221 445.583,299.293 445.74,299.304Z" style="fill:white;
	fill-rule:nonzero;" />
		<path d="M428.1,328.904L362.14,366.984L362.14,326.904L428.1,288.814L428.1,328.904Z" style="fill:rgb(55, 71, 79);
	fill-rule:nonzero;" />
		<path d="M296.18,328.904L362.14,366.984L362.14,326.904L296.18,288.814L296.18,328.904Z" style="fill:rgb(38, 50, 56);
	fill-rule:nonzero;" />
		<path d="M428.1,288.814L362.14,250.734L296.18,288.814L362.14,326.904L428.1,288.814Z" style="fill-rule:nonzero;" />
		<path d="M373.74,296.274C376.95,298.124 378.55,300.554 378.55,302.984L378.55,309.484C378.55,311.914 376.95,314.344 373.74,316.194C370.163,318.094 366.16,319.051 362.11,318.974L362.11,293.484C366.162,293.404 370.166,294.365 373.74,296.274Z" style="fill:rgb(55, 71, 79);
	fill-rule:nonzero;" />
		<path d="M350.51,296.274C347.3,298.124 345.7,300.554 345.7,302.984L345.7,309.484C345.7,311.914 347.3,314.344 350.51,316.194C354.087,318.094 358.09,319.051 362.14,318.974L362.14,293.484C358.089,293.404 354.085,294.365 350.51,296.274Z" style="fill:rgb(38, 50, 56);
	fill-rule:nonzero;" />
		<path d="M350.51,296.274C344.09,299.974 344.09,305.984 350.51,309.694C356.93,313.404 367.34,313.404 373.77,309.694C380.2,305.984 380.19,299.974 373.77,296.274C367.35,292.574 356.93,292.564 350.51,296.274Z" style="fill:rgb(69, 90, 100);
	fill-rule:nonzero;" />
		<path d="M350.51,296.274C344.09,299.974 344.09,305.984 350.51,309.694C356.93,313.404 367.34,313.404 373.77,309.694C380.2,305.984 380.19,299.974 373.77,296.274C367.35,292.574 356.93,292.564 350.51,296.274Z" style="fill:white;
	fill-opacity:0.07;
	fill-rule:nonzero;" />
		<path d="M373.74,259.124C376.95,260.974 378.55,263.404 378.55,265.834L378.55,272.324C378.55,274.754 376.95,277.184 373.74,279.034C370.165,280.939 366.161,281.896 362.11,281.814L362.11,256.344C366.16,256.266 370.163,257.223 373.74,259.124Z" style="fill:rgb(55, 71, 79);
	fill-rule:nonzero;" />
		<path d="M350.51,259.124C347.3,260.974 345.7,263.404 345.7,265.834L345.7,272.324C345.7,274.754 347.3,277.184 350.51,279.034C354.086,280.939 358.09,281.896 362.14,281.814L362.14,256.344C358.09,256.266 354.087,257.223 350.51,259.124Z" style="fill:rgb(38, 50, 56);
	fill-rule:nonzero;" />
		<path d="M350.51,259.124C344.09,262.834 344.09,268.844 350.51,272.554C356.93,276.264 367.34,276.254 373.77,272.554C380.2,268.854 380.19,262.834 373.77,259.124C367.35,255.414 356.93,255.414 350.51,259.124Z" style="fill:rgb(69, 90, 100);
	fill-rule:nonzero;" />
		<path d="M350.51,259.124C344.09,262.834 344.09,268.844 350.51,272.554C356.93,276.264 367.34,276.254 373.77,272.554C380.2,268.854 380.19,262.834 373.77,259.124C367.35,255.414 356.93,255.414 350.51,259.124Z" style="fill:white;
	fill-opacity:0.07;
	fill-rule:nonzero;" />
		<path d="M405.92,277.704C409.13,279.554 410.74,281.984 410.74,284.414L410.74,290.904C410.74,293.334 409.13,295.764 405.92,297.614C402.347,299.515 398.347,300.471 394.3,300.394L394.3,274.924C398.348,274.841 402.349,275.798 405.92,277.704Z" style="fill:rgb(55, 71, 79);
	fill-rule:nonzero;" />
		<path d="M382.67,277.704C379.46,279.554 377.86,281.984 377.86,284.414L377.86,290.904C377.86,293.334 379.46,295.764 382.67,297.614C386.247,299.515 390.25,300.471 394.3,300.394L394.3,274.924C390.25,274.841 386.245,275.798 382.67,277.704Z" style="fill:rgb(38, 50, 56);
	fill-rule:nonzero;" />
		<path d="M382.67,277.704C376.25,281.404 376.25,287.414 382.67,291.124C389.09,294.834 399.5,294.834 405.92,291.124C412.34,287.414 412.35,281.404 405.92,277.704C399.49,274.004 389.09,273.994 382.67,277.704Z" style="fill:rgb(69, 90, 100);
	fill-rule:nonzero;" />
		<path d="M382.67,277.704C376.25,281.404 376.25,287.414 382.67,291.124C389.09,294.834 399.5,294.834 405.92,291.124C412.34,287.414 412.35,281.404 405.92,277.704C399.49,274.004 389.09,273.994 382.67,277.704Z" style="fill:white;
	fill-opacity:0.07;
	fill-rule:nonzero;" />
		<path d="M341.61,277.684C344.82,279.544 346.42,281.974 346.42,284.404L346.42,290.894C346.42,293.314 344.82,295.744 341.61,297.604C338.033,299.504 334.03,300.461 329.98,300.384L329.98,274.904C334.03,274.826 338.033,275.783 341.61,277.684Z" style="fill:rgb(55, 71, 79);
	fill-rule:nonzero;" />
		<path d="M318.35,277.684C315.14,279.544 313.54,281.974 313.54,284.404L313.54,290.894C313.54,293.314 315.14,295.744 318.35,297.604C321.927,299.504 325.93,300.461 329.98,300.384L329.98,274.904C325.93,274.826 321.927,275.783 318.35,277.684Z" style="fill:rgb(38, 50, 56);
	fill-rule:nonzero;" />
		<path d="M318.35,277.684C311.93,281.394 311.93,287.404 318.35,291.114C324.77,294.824 335.19,294.824 341.61,291.114C348.03,287.404 348.03,281.394 341.61,277.684C335.19,273.974 324.74,273.984 318.35,277.684Z" style="fill:rgb(69, 90, 100);
	fill-rule:nonzero;" />
		<path d="M318.35,277.684C311.93,281.394 311.93,287.404 318.35,291.114C324.77,294.824 335.19,294.824 341.61,291.114C348.03,287.404 348.03,281.394 341.61,277.684C335.19,273.974 324.74,273.984 318.35,277.684Z" style="fill:white;
	fill-opacity:0.07;
	fill-rule:nonzero;" />
		<path d="M492.39,426.544L426.43,464.624L426.43,424.534L492.39,386.454L492.39,426.544Z" style="fill:rgb(0, 124, 187);
	fill-rule:nonzero;" />
		<path d="M492.39,426.544L426.43,464.624L426.43,424.534L492.39,386.454L492.39,426.544Z" style="fill-opacity:0.1;
	fill-rule:nonzero;" />
		<path d="M360.48,426.544L426.43,464.624L426.43,424.534L360.47,386.454L360.48,426.544Z" style="fill:rgb(0, 124, 187);
	fill-rule:nonzero;" />
		<path d="M360.48,426.544L426.43,464.624L426.43,424.534L360.47,386.454L360.48,426.544Z" style="fill-opacity:0.2;
	fill-rule:nonzero;" />
		<path d="M492.39,386.454L426.43,348.374L360.47,386.454L426.43,424.534L492.39,386.454Z" style="fill:rgb(0, 124, 187);
	fill-rule:nonzero;" />
		<path d="M442.87,363.484C442.87,361.054 441.27,358.624 438.06,356.774C431.64,353.064 421.23,353.064 414.81,356.774C411.6,358.624 409.99,361.054 409.99,363.484L409.99,369.974C409.99,372.404 411.6,374.824 414.81,376.684C421.23,380.394 431.64,380.394 438.06,376.684C441.27,374.824 442.88,372.404 442.87,369.974L442.87,363.484Z" style="fill:rgb(0, 124, 187);
	fill-rule:nonzero;" />
		<path d="M438.06,356.764C441.27,358.614 442.88,361.044 442.87,363.474L442.87,369.964C442.87,372.394 441.27,374.814 438.06,376.674C434.486,378.585 430.483,379.552 426.43,379.484L426.43,353.984C430.48,353.901 434.485,354.858 438.06,356.764Z" style="fill-opacity:0.1;
	fill-rule:nonzero;" />
		<path d="M414.81,356.764C411.6,358.614 409.99,361.044 409.99,363.474L409.99,369.964C409.99,372.394 411.6,374.814 414.81,376.674C418.381,378.584 422.381,379.551 426.43,379.484L426.43,353.984C422.383,353.902 418.382,354.86 414.81,356.764Z" style="fill-opacity:0.2;
	fill-rule:nonzero;" />
		<path d="M414.81,356.764C408.39,360.464 408.39,366.474 414.81,370.184C421.23,373.894 431.64,373.894 438.06,370.184C444.48,366.474 444.48,360.464 438.06,356.764C431.64,353.064 421.23,353.054 414.81,356.764Z" style="fill:rgb(0, 124, 187);
	fill-rule:nonzero;" />
		<path d="M414.81,356.764C408.39,360.464 408.39,366.474 414.81,370.184C421.23,373.894 431.64,373.894 438.06,370.184C444.48,366.474 444.48,360.464 438.06,356.764C431.64,353.064 421.23,353.054 414.81,356.764Z" style="fill:white;
	fill-opacity:0.3;
	fill-rule:nonzero;" />
		<path d="M442.87,400.614C442.87,398.194 441.27,395.764 438.06,393.904C431.64,390.194 421.23,390.194 414.81,393.904C411.6,395.764 409.99,398.184 409.99,400.614L409.99,407.104C409.99,409.534 411.6,411.964 414.81,413.814C421.23,417.524 431.64,417.524 438.06,413.814C441.27,411.964 442.88,409.534 442.87,407.104L442.87,400.614Z" style="fill:rgb(0, 124, 187);
	fill-rule:nonzero;" />
		<path d="M438.06,393.904C441.27,395.764 442.88,398.184 442.87,400.614L442.87,407.104C442.87,409.534 441.27,411.964 438.06,413.814C434.486,415.724 430.481,416.681 426.43,416.594L426.43,391.124C430.48,391.046 434.483,392.003 438.06,393.904Z" style="fill-opacity:0.1;
	fill-rule:nonzero;" />
		<path d="M414.81,393.904C411.6,395.764 409.99,398.184 409.99,400.614L409.99,407.104C409.99,409.534 411.6,411.964 414.81,413.814C418.38,415.723 422.382,416.68 426.43,416.594L426.43,391.124C422.383,391.047 418.384,392.004 414.81,393.904Z" style="fill-opacity:0.2;
	fill-rule:nonzero;" />
		<path d="M414.81,393.904C408.39,397.614 408.39,403.624 414.81,407.334C421.23,411.044 431.64,411.034 438.06,407.334C444.48,403.634 444.48,397.614 438.06,393.904C431.64,390.194 421.23,390.194 414.81,393.904Z" style="fill:rgb(0, 124, 187);
	fill-rule:nonzero;" />
		<path d="M414.81,393.904C408.39,397.614 408.39,403.624 414.81,407.334C421.23,411.044 431.64,411.034 438.06,407.334C444.48,403.634 444.48,397.614 438.06,393.904C431.64,390.194 421.23,390.194 414.81,393.904Z" style="fill:white;
	fill-opacity:0.3;
	fill-rule:nonzero;" />
		<path d="M410.74,382.034C410.74,379.604 409.13,377.174 405.92,375.324C399.5,371.614 389.09,371.614 382.67,375.324C379.46,377.174 377.85,379.604 377.85,382.034L377.85,388.484C377.85,390.914 379.46,393.344 382.67,395.194C389.09,398.904 399.5,398.904 405.92,395.194C409.13,393.344 410.74,390.914 410.74,388.484L410.74,382.034Z" style="fill:rgb(0, 124, 187);
	fill-rule:nonzero;" />
		<path d="M405.9,375.324C409.11,377.174 410.72,379.604 410.72,382.034L410.72,388.524C410.72,390.954 409.11,393.384 405.9,395.234C402.325,397.139 398.321,398.096 394.27,398.014L394.27,372.544C398.32,372.466 402.323,373.423 405.9,375.324Z" style="fill-opacity:0.1;
	fill-rule:nonzero;" />
		<path d="M382.65,375.324C379.44,377.174 377.83,379.604 377.83,382.034L377.83,388.484C377.83,390.914 379.44,393.344 382.65,395.194C386.222,397.098 390.223,398.055 394.27,397.974L394.27,372.544C390.223,372.467 386.224,373.424 382.65,375.324Z" style="fill-opacity:0.2;
	fill-rule:nonzero;" />
		<path d="M382.65,375.324C376.23,379.034 376.23,385.044 382.65,388.744C389.07,392.444 399.48,392.454 405.9,388.744C412.32,385.034 412.32,379.034 405.9,375.324C399.48,371.614 389.07,371.614 382.65,375.324Z" style="fill:rgb(0, 124, 187);
	fill-rule:nonzero;" />
		<path d="M382.65,375.324C376.23,379.034 376.23,385.044 382.65,388.744C389.07,392.444 399.48,392.454 405.9,388.744C412.32,385.034 412.32,379.034 405.9,375.324C399.48,371.614 389.07,371.614 382.65,375.324Z" style="fill:white;
	fill-opacity:0.3;
	fill-rule:nonzero;" />
		<path d="M475.03,382.044C475.03,379.614 473.43,377.184 470.22,375.334C463.8,371.624 453.39,371.624 446.97,375.334C443.75,377.184 442.15,379.614 442.15,382.044L442.15,388.534C442.15,390.964 443.75,393.394 446.96,395.244C453.39,398.954 463.8,398.954 470.22,395.244C473.43,393.394 475.03,390.964 475.03,388.534L475.03,382.044Z" style="fill:rgb(0, 124, 187);
	fill-rule:nonzero;" />
		<path d="M470.22,375.334C473.43,377.184 475.03,379.614 475.03,382.044L475.03,388.534C475.03,390.964 473.43,393.394 470.22,395.244C466.645,397.149 462.64,398.106 458.59,398.024L458.59,372.554C462.64,372.476 466.643,373.433 470.22,375.334Z" style="fill-opacity:0.1;
	fill-rule:nonzero;" />
		<path d="M446.97,375.334C443.75,377.184 442.15,379.614 442.15,382.044L442.15,388.534C442.15,390.964 443.75,393.394 446.96,395.244C450.536,397.148 454.539,398.105 458.59,398.024L458.59,372.554C454.543,372.476 450.543,373.433 446.97,375.334Z" style="fill-opacity:0.2;
	fill-rule:nonzero;" />
		<path d="M446.97,375.334C440.54,379.044 440.54,385.054 446.97,388.764C453.4,392.474 463.81,392.464 470.23,388.764C476.65,385.064 476.65,379.044 470.23,375.334C463.81,371.624 453.39,371.624 446.97,375.334Z" style="fill:rgb(0, 124, 187);
	fill-rule:nonzero;" />
		<path d="M446.97,375.334C440.54,379.044 440.54,385.054 446.97,388.764C453.4,392.474 463.81,392.464 470.23,388.764C476.65,385.064 476.65,379.044 470.23,375.334C463.81,371.624 453.39,371.624 446.97,375.334Z" style="fill:white;
	fill-opacity:0.3;
	fill-rule:nonzero;" />
		<path d="M428.1,285.914L362.14,323.994L362.14,283.904L428.1,245.824L428.1,285.914Z" style="fill:rgb(0, 124, 187);
	fill-rule:nonzero;" />
		<path d="M428.1,285.914L362.14,323.994L362.14,283.904L428.1,245.824L428.1,285.914Z" style="fill-opacity:0.3;
	fill-rule:nonzero;" />
		<path d="M296.18,285.914L362.14,323.994L362.14,283.904L296.18,245.824L296.18,285.914Z" style="fill:rgb(0, 124, 187);
	fill-rule:nonzero;" />
		<path d="M296.18,285.914L362.14,323.994L362.14,283.904L296.18,245.824L296.18,285.914Z" style="fill-opacity:0.4;
	fill-rule:nonzero;" />
		<path d="M428.1,245.824L362.14,207.744L296.18,245.824L362.14,283.904L428.1,245.824Z" style="fill:rgb(0, 124, 187);
	fill-rule:nonzero;" />
		<path d="M428.1,245.824L362.14,207.744L296.18,245.824L362.14,283.904L428.1,245.824Z" style="fill-opacity:0.55;
	fill-rule:nonzero;" />
		<path d="M378.58,222.844C378.58,220.414 376.98,217.984 373.77,216.134C367.35,212.424 356.93,212.424 350.51,216.134C347.3,217.984 345.7,220.414 345.7,222.844L345.7,229.334C345.7,231.764 347.3,234.194 350.51,236.044C356.93,239.754 367.34,239.754 373.77,236.044C376.98,234.194 378.58,231.764 378.58,229.334L378.58,222.844Z" style="fill:rgb(0, 124, 187);
	fill-rule:nonzero;" />
		<path d="M373.74,216.134C376.95,217.984 378.55,220.414 378.55,222.844L378.55,229.334C378.55,231.764 376.95,234.194 373.74,236.044C370.163,237.944 366.16,238.901 362.11,238.824L362.11,213.354C366.161,213.271 370.165,214.228 373.74,216.134Z" style="fill-opacity:0.3;
	fill-rule:nonzero;" />
		<path d="M350.51,216.134C347.3,217.984 345.7,220.414 345.7,222.844L345.7,229.334C345.7,231.764 347.3,234.194 350.51,236.044C354.087,237.944 358.09,238.901 362.14,238.824L362.14,213.354C358.09,213.271 354.086,214.228 350.51,216.134Z" style="fill-opacity:0.4;
	fill-rule:nonzero;" />
		<path d="M350.51,216.134C344.09,219.834 344.09,225.844 350.51,229.554C356.93,233.264 367.34,233.264 373.77,229.554C380.2,225.844 380.19,219.834 373.77,216.134C367.35,212.434 356.93,212.424 350.51,216.134Z" style="fill:rgb(0, 124, 187);
	fill-rule:nonzero;" />
		<path d="M350.51,216.134C344.09,219.834 344.09,225.844 350.51,229.554C356.93,233.264 367.34,233.264 373.77,229.554C380.2,225.844 380.19,219.834 373.77,216.134C367.35,212.434 356.93,212.424 350.51,216.134Z" style="fill:white;
	fill-opacity:0.3;
	fill-rule:nonzero;" />
		<path d="M378.58,259.994C378.58,257.564 376.98,255.134 373.77,253.274C367.35,249.574 356.93,249.574 350.51,253.274C347.3,255.134 345.7,257.564 345.7,259.984L345.7,266.484C345.7,268.914 347.3,271.344 350.51,273.204C356.93,276.904 367.34,276.904 373.77,273.204C376.98,271.344 378.58,268.914 378.58,266.484L378.58,259.994Z" style="fill:rgb(0, 124, 187);
	fill-rule:nonzero;" />
		<path d="M373.74,253.274C376.95,255.134 378.55,257.564 378.55,259.984L378.55,266.484C378.55,268.914 376.95,271.344 373.74,273.204C370.163,275.104 366.16,276.061 362.11,275.984L362.11,250.484C366.161,250.409 370.164,251.369 373.74,253.274Z" style="fill-opacity:0.3;
	fill-rule:nonzero;" />
		<path d="M350.51,253.274C347.3,255.134 345.7,257.564 345.7,259.984L345.7,266.484C345.7,268.914 347.3,271.344 350.51,273.204C354.087,275.104 358.09,276.061 362.14,275.984L362.14,250.484C358.089,250.409 354.086,251.369 350.51,253.274Z" style="fill-opacity:0.4;
	fill-rule:nonzero;" />
		<path d="M350.51,253.274C344.09,256.984 344.09,262.994 350.51,266.704C356.93,270.414 367.34,270.414 373.77,266.704C380.2,262.994 380.19,256.984 373.77,253.274C367.35,249.564 356.93,249.574 350.51,253.274Z" style="fill:rgb(0, 124, 187);
	fill-rule:nonzero;" />
		<path d="M350.51,253.274C344.09,256.984 344.09,262.994 350.51,266.704C356.93,270.414 367.34,270.414 373.77,266.704C380.2,262.994 380.19,256.984 373.77,253.274C367.35,249.564 356.93,249.574 350.51,253.274Z" style="fill:white;
	fill-opacity:0.3;
	fill-rule:nonzero;" />
		<path d="M346.42,241.404C346.42,238.974 344.82,236.544 341.61,234.694C335.19,230.984 324.78,230.984 318.35,234.694C315.14,236.544 313.54,238.974 313.54,241.404L313.54,247.894C313.54,250.324 315.14,252.754 318.35,254.604C324.77,258.314 335.19,258.314 341.61,254.604C344.82,252.754 346.42,250.324 346.42,247.894L346.42,241.404Z" style="fill:rgb(0, 124, 187);
	fill-rule:nonzero;" />
		<path d="M341.61,234.694C344.82,236.544 346.42,238.974 346.42,241.404L346.42,247.894C346.42,250.324 344.82,252.754 341.61,254.604C338.035,256.509 334.031,257.466 329.98,257.384L329.98,231.914C334.03,231.836 338.033,232.793 341.61,234.694Z" style="fill-opacity:0.3;
	fill-rule:nonzero;" />
		<path d="M318.35,234.694C315.14,236.544 313.54,238.974 313.54,241.404L313.54,247.894C313.54,250.324 315.14,252.754 318.35,254.604C321.926,256.509 325.93,257.466 329.98,257.384L329.98,231.914C325.93,231.836 321.927,232.793 318.35,234.694Z" style="fill-opacity:0.4;
	fill-rule:nonzero;" />
		<path d="M318.35,234.694C311.93,238.404 311.93,244.414 318.35,248.124C324.77,251.834 335.19,251.824 341.61,248.124C348.03,244.424 348.03,238.404 341.61,234.694C335.19,230.984 324.74,230.984 318.35,234.694Z" style="fill:rgb(0, 124, 187);
	fill-rule:nonzero;" />
		<path d="M318.35,234.694C311.93,238.404 311.93,244.414 318.35,248.124C324.77,251.834 335.19,251.824 341.61,248.124C348.03,244.424 348.03,238.404 341.61,234.694C335.19,230.984 324.74,230.984 318.35,234.694Z" style="fill:white;
	fill-opacity:0.3;
	fill-rule:nonzero;" />
		<path d="M410.74,241.414C410.74,238.994 409.14,236.564 405.92,234.704C399.5,230.994 389.09,230.994 382.67,234.704C379.46,236.564 377.86,238.984 377.86,241.414L377.86,247.904C377.86,250.334 379.46,252.764 382.67,254.614C389.09,258.324 399.5,258.324 405.92,254.614C409.14,252.764 410.74,250.334 410.74,247.904L410.74,241.414Z" style="fill:rgb(0, 124, 187);
	fill-rule:nonzero;" />
		<path d="M405.92,234.704C409.13,236.564 410.74,238.984 410.74,241.414L410.74,247.904C410.74,250.334 409.13,252.764 405.92,254.614C402.349,256.519 398.348,257.476 394.3,257.394L394.3,231.924C398.347,231.846 402.347,232.803 405.92,234.704Z" style="fill-opacity:0.3;
	fill-rule:nonzero;" />
		<path d="M382.67,234.704C379.46,236.564 377.86,238.984 377.86,241.414L377.86,247.904C377.86,250.334 379.46,252.764 382.67,254.614C386.245,256.519 390.25,257.476 394.3,257.394L394.3,231.924C390.25,231.846 386.247,232.803 382.67,234.704Z" style="fill-opacity:0.4;
	fill-rule:nonzero;" />
		<path d="M382.67,234.704C376.25,238.414 376.25,244.424 382.67,248.134C389.09,251.844 399.5,251.834 405.92,248.134C412.34,244.434 412.35,238.414 405.92,234.704C399.49,230.994 389.09,230.994 382.67,234.704Z" style="fill:rgb(0, 124, 187);
	fill-rule:nonzero;" />
		<path d="M382.67,234.704C376.25,238.414 376.25,244.424 382.67,248.134C389.09,251.844 399.5,251.834 405.92,248.134C412.34,244.434 412.35,238.414 405.92,234.704C399.49,230.994 389.09,230.994 382.67,234.704Z" style="fill:white;
	fill-opacity:0.3;
	fill-rule:nonzero;" />
		<path d="M358.67,368.984L292.71,407.074L292.71,366.984L358.67,328.904L358.67,368.984Z" style="fill:rgb(0, 124, 187);
	fill-rule:nonzero;" />
		<path d="M358.67,368.984L292.71,407.074L292.71,366.984L358.67,328.904L358.67,368.984Z" style="fill-opacity:0.3;
	fill-rule:nonzero;" />
		<path d="M226.75,368.984L292.71,407.074L292.71,366.984L226.75,328.904L226.75,368.984Z" style="fill:rgb(0, 124, 187);
	fill-rule:nonzero;" />
		<path d="M226.75,368.984L292.71,407.074L292.71,366.984L226.75,328.904L226.75,368.984Z" style="fill-opacity:0.4;
	fill-rule:nonzero;" />
		<path d="M358.67,328.904L292.71,290.824L226.75,328.904L292.71,366.984L358.67,328.904Z" style="fill:rgb(0, 124, 187);
	fill-rule:nonzero;" />
		<path d="M358.67,328.904L292.71,290.824L226.75,328.904L292.71,366.984L358.67,328.904Z" style="fill-opacity:0.55;
	fill-rule:nonzero;" />
		<path d="M309.15,305.924C309.15,303.494 307.55,301.064 304.34,299.214C297.92,295.504 287.51,295.504 281.08,299.214C277.87,301.064 276.27,303.494 276.27,305.924L276.27,312.414C276.27,314.844 277.87,317.274 281.08,319.124C287.5,322.834 297.92,322.834 304.34,319.124C307.55,317.274 309.15,314.844 309.15,312.414L309.15,305.924Z" style="fill:rgb(0, 124, 187);
	fill-rule:nonzero;" />
		<path d="M304.34,299.214C307.55,301.064 309.15,303.494 309.15,305.924L309.15,312.414C309.15,314.844 307.55,317.274 304.34,319.124C300.772,321.02 296.78,321.976 292.74,321.904L292.74,296.484C296.776,296.391 300.769,297.331 304.34,299.214Z" style="fill-opacity:0.3;
	fill-rule:nonzero;" />
		<path d="M281.08,299.214C277.87,301.064 276.27,303.494 276.27,305.924L276.27,312.414C276.27,314.844 277.87,317.274 281.08,319.124C284.666,321.03 288.68,321.987 292.74,321.904L292.74,296.484C288.684,296.381 284.669,297.321 281.08,299.214Z" style="fill-opacity:0.4;
	fill-rule:nonzero;" />
		<path d="M281.08,299.214C274.66,302.914 274.66,308.924 281.08,312.634C287.5,316.344 297.92,316.344 304.34,312.634C310.76,308.924 310.76,302.914 304.34,299.214C297.92,295.514 287.51,295.484 281.08,299.214Z" style="fill:rgb(0, 124, 187);
	fill-rule:nonzero;" />
		<path d="M281.08,299.214C274.66,302.914 274.66,308.924 281.08,312.634C287.5,316.344 297.92,316.344 304.34,312.634C310.76,308.924 310.76,302.914 304.34,299.214C297.92,295.514 287.51,295.484 281.08,299.214Z" style="fill:white;
	fill-opacity:0.3;
	fill-rule:nonzero;" />
		<path d="M309.15,343.064C309.15,340.644 307.55,338.214 304.34,336.354C297.92,332.644 287.51,332.644 281.08,336.354C277.87,338.214 276.27,340.634 276.27,343.064L276.27,349.554C276.27,351.984 277.87,354.414 281.08,356.264C287.5,359.974 297.92,359.974 304.34,356.264C307.55,354.414 309.15,351.984 309.15,349.554L309.15,343.064Z" style="fill:rgb(0, 124, 187);
	fill-rule:nonzero;" />
		<path d="M304.34,336.354C307.55,338.214 309.15,340.634 309.15,343.064L309.15,349.554C309.15,351.984 307.55,354.414 304.34,356.264C300.774,358.167 296.781,359.128 292.74,359.054L292.74,333.574C296.78,333.501 300.772,334.458 304.34,336.354Z" style="fill-opacity:0.3;
	fill-rule:nonzero;" />
		<path d="M281.08,336.354C277.87,338.214 276.27,340.634 276.27,343.064L276.27,349.554C276.27,351.984 277.87,354.414 281.08,356.264C284.663,358.177 288.679,359.138 292.74,359.054L292.74,333.574C288.68,333.491 284.666,334.448 281.08,336.354Z" style="fill-opacity:0.4;
	fill-rule:nonzero;" />
		<path d="M281.08,336.354C274.66,340.064 274.66,346.074 281.08,349.784C287.5,353.494 297.92,353.484 304.34,349.784C310.76,346.084 310.76,340.064 304.34,336.354C297.92,332.644 287.51,332.644 281.08,336.354Z" style="fill:rgb(0, 124, 187);
	fill-rule:nonzero;" />
		<path d="M281.08,336.354C274.66,340.064 274.66,346.074 281.08,349.784C287.5,353.494 297.92,353.484 304.34,349.784C310.76,346.084 310.76,340.064 304.34,336.354C297.92,332.644 287.51,332.644 281.08,336.354Z" style="fill:white;
	fill-opacity:0.3;
	fill-rule:nonzero;" />
		<path d="M276.99,324.484C276.99,322.054 275.39,319.624 272.18,317.774C265.76,314.064 255.35,314.064 248.92,317.774C245.71,319.624 244.11,322.054 244.11,324.484L244.11,330.974C244.11,333.404 245.71,335.834 248.92,337.684C255.34,341.394 265.76,341.394 272.18,337.684C275.39,335.834 276.99,333.404 276.99,330.974L276.99,324.484Z" style="fill:rgb(0, 124, 187);
	fill-rule:nonzero;" />
		<path d="M272.18,317.774C275.39,319.624 276.99,322.054 276.99,324.484L276.99,330.974C276.99,333.404 275.39,335.834 272.18,337.684C268.607,339.596 264.602,340.56 260.55,340.484L260.55,314.994C264.6,314.916 268.603,315.873 272.18,317.774Z" style="fill-opacity:0.3;
	fill-rule:nonzero;" />
		<path d="M248.92,317.774C245.71,319.624 244.11,322.054 244.11,324.484L244.11,330.974C244.11,333.404 245.71,335.834 248.92,337.684C252.494,339.596 256.498,340.56 260.55,340.484L260.55,314.994C256.5,314.917 252.498,315.874 248.92,317.774Z" style="fill-opacity:0.4;
	fill-rule:nonzero;" />
		<path d="M248.92,317.774C242.5,321.484 242.5,327.494 248.92,331.194C255.34,334.894 265.76,334.904 272.18,331.194C278.6,327.484 278.6,321.484 272.18,317.774C265.76,314.064 255.35,314.064 248.92,317.774Z" style="fill:rgb(0, 124, 187);
	fill-rule:nonzero;" />
		<path d="M248.92,317.774C242.5,321.484 242.5,327.494 248.92,331.194C255.34,334.894 265.76,334.904 272.18,331.194C278.6,327.484 278.6,321.484 272.18,317.774C265.76,314.064 255.35,314.064 248.92,317.774Z" style="fill:white;
	fill-opacity:0.3;
	fill-rule:nonzero;" />
		<path d="M341.31,324.484C341.31,322.054 339.71,319.634 336.49,317.774C330.07,314.064 319.66,314.064 313.24,317.774C310.03,319.624 308.43,322.054 308.43,324.484L308.43,330.974C308.43,333.404 310.03,335.834 313.24,337.684C319.66,341.394 330.07,341.394 336.49,337.684C339.71,335.834 341.31,333.404 341.31,330.974L341.31,324.484Z" style="fill:rgb(0, 124, 187);
	fill-rule:nonzero;" />
		<path d="M336.49,317.784C339.7,319.634 341.31,322.064 341.31,324.494L341.31,330.984C341.31,333.414 339.71,335.844 336.5,337.694C332.925,339.601 328.921,340.562 324.87,340.484L324.87,315.004C328.917,314.926 332.917,315.883 336.49,317.784Z" style="fill-opacity:0.3;
	fill-rule:nonzero;" />
		<path d="M313.24,317.784C310.03,319.634 308.43,322.064 308.43,324.494L308.43,330.984C308.43,333.414 310.03,335.844 313.24,337.694C316.814,339.603 320.818,340.563 324.87,340.484L324.87,315.004C320.82,314.926 316.817,315.883 313.24,317.784Z" style="fill-opacity:0.4;
	fill-rule:nonzero;" />
		<path d="M313.24,317.784C306.82,321.494 306.82,327.504 313.24,331.214C319.66,334.924 330.07,334.914 336.49,331.214C342.91,327.514 342.92,321.494 336.49,317.784C330.06,314.074 319.66,314.074 313.24,317.784Z" style="fill:rgb(0, 124, 187);
	fill-rule:nonzero;" />
		<path d="M313.24,317.784C306.82,321.494 306.82,327.504 313.24,331.214C319.66,334.924 330.07,334.914 336.49,331.214C342.91,327.514 342.92,321.494 336.49,317.784C330.06,314.074 319.66,314.074 313.24,317.784Z" style="fill:white;
	fill-opacity:0.3;
	fill-rule:nonzero;" />
		<path d="M358.67,325.994L292.71,364.074L292.71,323.994L358.67,285.914L358.67,325.994Z" style="fill:rgb(0, 124, 187);
	fill-rule:nonzero;" />
		<path d="M358.67,325.994L292.71,364.074L292.71,323.994L358.67,285.914L358.67,325.994Z" style="fill-opacity:0.1;
	fill-rule:nonzero;" />
		<path d="M226.75,325.994L292.71,364.074L292.71,323.994L226.75,285.914L226.75,325.994Z" style="fill:rgb(0, 124, 187);
	fill-rule:nonzero;" />
		<path d="M226.75,325.994L292.71,364.074L292.71,323.994L226.75,285.914L226.75,325.994Z" style="fill-opacity:0.2;
	fill-rule:nonzero;" />
		<path d="M358.67,285.914L292.71,247.824L226.75,285.914L292.71,323.994L358.67,285.914Z" style="fill:rgb(0, 124, 187);
	fill-rule:nonzero;" />
		<path d="M309.15,262.924C309.15,260.494 307.55,258.074 304.34,256.214C297.92,252.504 287.51,252.504 281.08,256.214C277.87,258.074 276.27,260.494 276.27,262.924L276.27,269.414C276.27,271.844 277.87,274.274 281.08,276.124C287.5,279.834 297.92,279.834 304.34,276.124C307.55,274.274 309.15,271.844 309.15,269.414L309.15,262.924Z" style="fill:rgb(0, 124, 187);
	fill-rule:nonzero;" />
		<path d="M304.34,256.214C307.55,258.074 309.15,260.494 309.15,262.924L309.15,269.414C309.15,271.844 307.55,274.274 304.34,276.124C300.774,278.024 296.78,278.981 292.74,278.904L292.74,253.484C296.776,253.396 300.767,254.335 304.34,256.214Z" style="fill-opacity:0.1;
	fill-rule:nonzero;" />
		<path d="M281.08,256.214C277.87,258.074 276.27,260.494 276.27,262.924L276.27,269.414C276.27,271.844 277.87,274.274 281.08,276.124C284.664,278.034 288.679,278.992 292.74,278.904L292.74,253.484C288.684,253.386 284.671,254.325 281.08,256.214Z" style="fill-opacity:0.2;
	fill-rule:nonzero;" />
		<path d="M281.08,256.214C274.66,259.924 274.66,265.934 281.08,269.644C287.5,273.354 297.92,273.344 304.34,269.644C310.76,265.944 310.76,259.924 304.34,256.214C297.92,252.504 287.51,252.484 281.08,256.214Z" style="fill:rgb(0, 124, 187);
	fill-rule:nonzero;" />
		<path d="M281.08,256.214C274.66,259.924 274.66,265.934 281.08,269.644C287.5,273.354 297.92,273.344 304.34,269.644C310.76,265.944 310.76,259.924 304.34,256.214C297.92,252.504 287.51,252.484 281.08,256.214Z" style="fill:white;
	fill-opacity:0.3;
	fill-rule:nonzero;" />
		<path d="M309.15,300.074C309.15,297.644 307.55,295.214 304.34,293.364C297.92,289.654 287.51,289.654 281.08,293.364C277.87,295.214 276.27,297.644 276.27,300.074L276.27,306.564C276.27,308.994 277.87,311.424 281.08,313.274C287.5,316.984 297.92,316.984 304.34,313.274C307.55,311.424 309.15,308.994 309.15,306.564L309.15,300.074Z" style="fill:rgb(0, 124, 187);
	fill-rule:nonzero;" />
		<path d="M304.34,293.364C307.55,295.214 309.15,297.644 309.15,300.074L309.15,306.564C309.15,308.994 307.55,311.424 304.34,313.274C300.772,315.17 296.78,316.126 292.74,316.054L292.74,290.584C296.78,290.506 300.774,291.463 304.34,293.364Z" style="fill-opacity:0.1;
	fill-rule:nonzero;" />
		<path d="M281.08,293.364C277.87,295.214 276.27,297.644 276.27,300.074L276.27,306.564C276.27,308.994 277.87,311.424 281.08,313.274C284.666,315.18 288.68,316.137 292.74,316.054L292.74,290.584C288.679,290.496 284.664,291.453 281.08,293.364Z" style="fill-opacity:0.2;
	fill-rule:nonzero;" />
		<path d="M281.08,293.364C274.66,297.074 274.66,303.084 281.08,306.784C287.5,310.484 297.92,310.494 304.34,306.784C310.76,303.074 310.76,297.074 304.34,293.364C297.92,289.654 287.51,289.654 281.08,293.364Z" style="fill:rgb(0, 124, 187);
	fill-rule:nonzero;" />
		<path d="M281.08,293.364C274.66,297.074 274.66,303.084 281.08,306.784C287.5,310.484 297.92,310.494 304.34,306.784C310.76,303.074 310.76,297.074 304.34,293.364C297.92,289.654 287.51,289.654 281.08,293.364Z" style="fill:white;
	fill-opacity:0.3;
	fill-rule:nonzero;" />
		<path d="M276.99,281.484C276.99,279.054 275.39,276.624 272.18,274.774C265.76,271.064 255.35,271.064 248.92,274.774C245.71,276.624 244.11,279.054 244.11,281.484L244.11,287.974C244.11,290.404 245.71,292.824 248.92,294.684C255.34,298.384 265.76,298.394 272.18,294.684C275.39,292.824 276.99,290.394 276.99,287.974L276.99,281.484Z" style="fill:rgb(0, 124, 187);
	fill-rule:nonzero;" />
		<path d="M272.18,274.784C275.39,276.634 276.99,279.064 276.99,281.494L276.99,287.984C276.99,290.414 275.39,292.834 272.18,294.694C268.604,296.598 264.601,297.558 260.55,297.484L260.55,271.994C264.601,271.915 268.605,272.875 272.18,274.784Z" style="fill-opacity:0.1;
	fill-rule:nonzero;" />
		<path d="M248.92,274.784C245.71,276.634 244.11,279.064 244.11,281.494L244.11,287.984C244.11,290.414 245.71,292.834 248.92,294.694C252.496,296.598 256.499,297.558 260.55,297.484L260.55,271.994C256.499,271.915 252.495,272.876 248.92,274.784Z" style="fill-opacity:0.2;
	fill-rule:nonzero;" />
		<path d="M248.92,274.784C242.5,278.484 242.5,284.494 248.92,288.204C255.34,291.914 265.76,291.914 272.18,288.204C278.6,284.494 278.6,278.484 272.18,274.784C265.76,271.084 255.35,271.074 248.92,274.784Z" style="fill:rgb(0, 124, 187);
	fill-rule:nonzero;" />
		<path d="M248.92,274.784C242.5,278.484 242.5,284.494 248.92,288.204C255.34,291.914 265.76,291.914 272.18,288.204C278.6,284.494 278.6,278.484 272.18,274.784C265.76,271.084 255.35,271.074 248.92,274.784Z" style="fill:white;
	fill-opacity:0.3;
	fill-rule:nonzero;" />
		<path d="M341.31,281.484C341.31,279.054 339.71,276.624 336.49,274.774C330.07,271.064 319.66,271.064 313.24,274.774C310.03,276.624 308.43,279.054 308.43,281.484L308.43,287.974C308.43,290.404 310.03,292.834 313.24,294.684C319.66,298.394 330.07,298.394 336.49,294.684C339.71,292.834 341.31,290.404 341.31,287.974L341.31,281.484Z" style="fill:rgb(0, 124, 187);
	fill-rule:nonzero;" />
		<path d="M336.49,274.794C339.7,276.644 341.31,279.074 341.31,281.504L341.31,287.994C341.31,290.424 339.71,292.854 336.5,294.704C332.923,296.603 328.92,297.56 324.87,297.484L324.87,272.014C328.917,271.931 332.918,272.888 336.49,274.794Z" style="fill-opacity:0.1;
	fill-rule:nonzero;" />
		<path d="M313.24,274.794C310.03,276.644 308.43,279.074 308.43,281.504L308.43,287.994C308.43,290.424 310.03,292.854 313.24,294.704C316.817,296.605 320.82,297.561 324.87,297.484L324.87,272.014C320.819,271.931 316.815,272.888 313.24,274.794Z" style="fill-opacity:0.2;
	fill-rule:nonzero;" />
		<path d="M313.24,274.794C306.82,278.494 306.82,284.504 313.24,288.214C319.66,291.924 330.07,291.924 336.49,288.214C342.91,284.504 342.92,278.494 336.49,274.794C330.06,271.094 319.66,271.084 313.24,274.794Z" style="fill:rgb(0, 124, 187);
	fill-rule:nonzero;" />
		<path d="M313.24,274.794C306.82,278.494 306.82,284.504 313.24,288.214C319.66,291.924 330.07,291.924 336.49,288.214C342.91,284.504 342.92,278.494 336.49,274.794C330.06,271.094 319.66,271.084 313.24,274.794Z" style="fill:white;
	fill-opacity:0.3;
	fill-rule:nonzero;" />
		<path d="M289.24,409.074L223.28,447.154L223.28,407.074L289.24,368.984L289.24,409.074Z" style="fill:rgb(55, 71, 79);
	fill-rule:nonzero;" />
		<path d="M157.32,409.074L223.28,447.154L223.28,407.074L157.32,368.984L157.32,409.074Z" style="fill:rgb(38, 50, 56);
	fill-rule:nonzero;" />
		<path d="M289.24,368.984L223.28,330.904L157.32,368.984L223.28,407.074L289.24,368.984Z" style="fill:rgb(69, 90, 100);
	fill-rule:nonzero;" />
		<path d="M234.91,376.484C238.12,378.334 239.72,380.764 239.72,383.194L239.72,389.684C239.72,392.114 238.12,394.544 234.91,396.394C231.333,398.295 227.33,399.251 223.28,399.174L223.28,373.664C227.334,373.593 231.338,374.564 234.91,376.484Z" style="fill:rgb(55, 71, 79);
	fill-rule:nonzero;" />
		<path d="M211.65,376.484C208.44,378.334 206.84,380.764 206.84,383.194L206.84,389.684C206.84,392.114 208.44,394.544 211.65,396.394C215.227,398.295 219.23,399.251 223.28,399.174L223.28,373.664C219.226,373.593 215.222,374.564 211.65,376.484Z" style="fill:rgb(38, 50, 56);
	fill-rule:nonzero;" />
		<path d="M211.65,376.484C205.23,380.184 205.23,386.204 211.65,389.904C218.07,393.604 228.49,393.614 234.91,389.904C241.33,386.194 241.33,380.194 234.91,376.484C228.49,372.774 218.08,372.734 211.65,376.484Z" style="fill:rgb(69, 90, 100);
	fill-rule:nonzero;" />
		<path d="M211.65,376.484C205.23,380.184 205.23,386.204 211.65,389.904C218.07,393.604 228.49,393.614 234.91,389.904C241.33,386.194 241.33,380.194 234.91,376.484C228.49,372.774 218.08,372.734 211.65,376.484Z" style="fill:white;
	fill-opacity:0.07;
	fill-rule:nonzero;" />
		<path d="M234.91,339.294C238.12,341.144 239.72,343.574 239.72,346.004L239.72,352.484C239.72,354.914 238.12,357.344 234.91,359.194C231.335,361.099 227.331,362.056 223.28,361.974L223.28,336.484C227.333,336.415 231.336,337.383 234.91,339.294Z" style="fill:rgb(55, 71, 79);
	fill-rule:nonzero;" />
		<path d="M211.65,339.294C208.44,341.144 206.84,343.574 206.84,346.004L206.84,352.484C206.84,354.914 208.44,357.344 211.65,359.194C215.225,361.099 219.23,362.056 223.28,361.974L223.28,336.484C219.227,336.415 215.224,337.383 211.65,339.294Z" style="fill:rgb(38, 50, 56);
	fill-rule:nonzero;" />
		<path d="M211.65,339.294C205.23,343.004 205.23,349.014 211.65,352.724C218.07,356.434 228.49,356.424 234.91,352.724C241.33,349.024 241.33,343.004 234.91,339.294C228.49,335.584 218.08,335.584 211.65,339.294Z" style="fill:rgb(69, 90, 100);
	fill-rule:nonzero;" />
		<path d="M211.65,339.294C205.23,343.004 205.23,349.014 211.65,352.724C218.07,356.434 228.49,356.424 234.91,352.724C241.33,349.024 241.33,343.004 234.91,339.294C228.49,335.584 218.08,335.584 211.65,339.294Z" style="fill:white;
	fill-opacity:0.07;
	fill-rule:nonzero;" />
		<path d="M267.06,357.874C270.27,359.724 271.88,362.154 271.88,364.584L271.88,371.074C271.88,373.504 270.28,375.934 267.07,377.784C263.492,379.683 259.49,380.64 255.44,380.564L255.44,355.094C259.487,355.011 263.488,355.968 267.06,357.874Z" style="fill:rgb(55, 71, 79);
	fill-rule:nonzero;" />
		<path d="M243.81,357.874C240.6,359.724 239,362.154 239,364.584L239,371.074C239,373.504 240.6,375.934 243.81,377.784C247.387,379.685 251.39,380.642 255.44,380.564L255.44,355.094C251.389,355.011 247.385,355.968 243.81,357.874Z" style="fill:rgb(38, 50, 56);
	fill-rule:nonzero;" />
		<path d="M243.81,357.874C237.39,361.574 237.39,367.584 243.81,371.294C250.23,375.004 260.64,375.004 267.06,371.294C273.48,367.584 273.49,361.574 267.06,357.874C260.63,354.174 250.23,354.164 243.81,357.874Z" style="fill:rgb(69, 90, 100);
	fill-rule:nonzero;" />
		<path d="M243.81,357.874C237.39,361.574 237.39,367.584 243.81,371.294C250.23,375.004 260.64,375.004 267.06,371.294C273.48,367.584 273.49,361.574 267.06,357.874C260.63,354.174 250.23,354.164 243.81,357.874Z" style="fill:white;
	fill-opacity:0.07;
	fill-rule:nonzero;" />
		<path d="M202.74,357.854C205.95,359.714 207.55,362.144 207.55,364.574L207.55,371.064C207.55,373.484 205.95,375.914 202.74,377.774C199.163,379.675 195.16,380.631 191.11,380.554L191.11,355.074C195.16,354.996 199.163,355.953 202.74,357.854Z" style="fill:rgb(55, 71, 79);
	fill-rule:nonzero;" />
		<path d="M179.49,357.854C176.28,359.714 174.68,362.144 174.68,364.574L174.68,371.064C174.68,373.484 176.28,375.914 179.49,377.774C183.067,379.675 187.07,380.632 191.12,380.554L191.12,355.074C187.07,354.997 183.068,355.954 179.49,357.854Z" style="fill:rgb(38, 50, 56);
	fill-rule:nonzero;" />
		<path d="M179.49,357.854C173.07,361.564 173.07,367.574 179.49,371.284C185.91,374.994 196.33,374.994 202.75,371.284C209.17,367.574 209.17,361.564 202.75,357.864C196.33,354.164 185.92,354.154 179.49,357.854Z" style="fill:rgb(69, 90, 100);
	fill-rule:nonzero;" />
		<path d="M179.49,357.854C173.07,361.564 173.07,367.574 179.49,371.284C185.91,374.994 196.33,374.994 202.75,371.284C209.17,367.574 209.17,361.564 202.75,357.864C196.33,354.164 185.92,354.154 179.49,357.854Z" style="fill:white;
	fill-opacity:0.07;
	fill-rule:nonzero;" />
		<path d="M428.1,242.924L362.14,281.014L362.14,240.924L428.1,202.844L428.1,242.924Z" style="fill:rgb(55, 71, 79);
	fill-rule:nonzero;" />
		<path d="M296.18,242.924L362.14,281.014L362.14,240.924L296.18,202.844L296.18,242.924Z" style="fill:rgb(38, 50, 56);
	fill-rule:nonzero;" />
		<path d="M428.1,202.844L362.14,164.764L296.18,202.844L362.14,240.924L428.1,202.844Z" style="fill:rgb(69, 90, 100);
	fill-rule:nonzero;" />
		<path d="M373.74,210.294C376.95,212.154 378.55,214.584 378.55,217.004L378.55,223.484C378.55,225.914 376.95,228.344 373.74,230.204C370.163,232.105 366.16,233.061 362.11,232.984L362.11,207.484C366.163,207.415 370.166,208.382 373.74,210.294Z" style="fill:rgb(55, 71, 79);
	fill-rule:nonzero;" />
		<path d="M350.51,210.294C347.3,212.154 345.7,214.584 345.7,217.004L345.7,223.484C345.7,225.914 347.3,228.344 350.51,230.204C354.087,232.105 358.09,233.061 362.14,232.984L362.14,207.484C358.088,207.415 354.084,208.382 350.51,210.294Z" style="fill:rgb(38, 50, 56);
	fill-rule:nonzero;" />
		<path d="M350.51,210.294C344.09,214.004 344.09,220.014 350.51,223.724C356.93,227.434 367.34,227.424 373.77,223.724C380.2,220.024 380.19,214.004 373.77,210.294C367.35,206.584 356.93,206.594 350.51,210.294Z" style="fill:rgb(69, 90, 100);
	fill-rule:nonzero;" />
		<path d="M350.51,210.294C344.09,214.004 344.09,220.014 350.51,223.724C356.93,227.434 367.34,227.424 373.77,223.724C380.2,220.024 380.19,214.004 373.77,210.294C367.35,206.584 356.93,206.594 350.51,210.294Z" style="fill:white;
	fill-opacity:0.07;
	fill-rule:nonzero;" />
		<path d="M373.74,173.154C376.95,175.004 378.55,177.434 378.55,179.864L378.55,186.354C378.55,188.784 376.95,191.214 373.74,193.064C370.163,194.964 366.16,195.921 362.11,195.844L362.11,170.374C366.161,170.291 370.165,171.248 373.74,173.154Z" style="fill:rgb(55, 71, 79);
	fill-rule:nonzero;" />
		<path d="M350.51,173.154C347.3,175.004 345.7,177.434 345.7,179.864L345.7,186.354C345.7,188.784 347.3,191.214 350.51,193.064C354.087,194.964 358.09,195.921 362.14,195.844L362.14,170.374C358.09,170.291 354.086,171.248 350.51,173.154Z" style="fill:rgb(38, 50, 56);
	fill-rule:nonzero;" />
		<path d="M350.51,173.154C344.09,176.854 344.09,182.864 350.51,186.574C356.93,190.284 367.34,190.284 373.77,186.574C380.2,182.864 380.19,176.854 373.77,173.154C367.35,169.454 356.93,169.484 350.51,173.154Z" style="fill:rgb(69, 90, 100);
	fill-rule:nonzero;" />
		<path d="M350.51,173.154C344.09,176.854 344.09,182.864 350.51,186.574C356.93,190.284 367.34,190.284 373.77,186.574C380.2,182.864 380.19,176.854 373.77,173.154C367.35,169.454 356.93,169.484 350.51,173.154Z" style="fill:white;
	fill-opacity:0.07;
	fill-rule:nonzero;" />
		<path d="M405.92,191.724C409.13,193.584 410.74,196.004 410.74,198.434L410.74,204.924C410.74,207.354 409.13,209.784 405.92,211.634C402.349,213.539 398.348,214.496 394.3,214.414L394.3,188.944C398.347,188.866 402.347,189.823 405.92,191.724Z" style="fill:rgb(55, 71, 79);
	fill-rule:nonzero;" />
		<path d="M382.67,191.724C379.46,193.584 377.86,196.004 377.86,198.434L377.86,204.924C377.86,207.354 379.46,209.784 382.67,211.634C386.245,213.539 390.25,214.496 394.3,214.414L394.3,188.944C390.25,188.866 386.247,189.823 382.67,191.724Z" style="fill:rgb(38, 50, 56);
	fill-rule:nonzero;" />
		<path d="M382.67,191.724C376.25,195.434 376.25,201.444 382.67,205.154C389.09,208.864 399.5,208.854 405.92,205.154C412.34,201.454 412.35,195.434 405.92,191.724C399.49,188.014 389.09,188.014 382.67,191.724Z" style="fill:rgb(69, 90, 100);
	fill-rule:nonzero;" />
		<path d="M382.67,191.724C376.25,195.434 376.25,201.444 382.67,205.154C389.09,208.864 399.5,208.854 405.92,205.154C412.34,201.454 412.35,195.434 405.92,191.724C399.49,188.014 389.09,188.014 382.67,191.724Z" style="fill:white;
	fill-opacity:0.07;
	fill-rule:nonzero;" />
		<path d="M341.61,191.714C344.82,193.564 346.42,195.994 346.42,198.424L346.42,204.914C346.42,207.344 344.82,209.774 341.61,211.624C338.035,213.529 334.031,214.486 329.98,214.404L329.98,188.934C334.03,188.856 338.033,189.813 341.61,191.714Z" style="fill:rgb(55, 71, 79);
	fill-rule:nonzero;" />
		<path d="M318.35,191.714C315.14,193.564 313.54,195.994 313.54,198.424L313.54,204.914C313.54,207.344 315.14,209.774 318.35,211.624C321.926,213.529 325.93,214.486 329.98,214.404L329.98,188.934C325.93,188.856 321.927,189.813 318.35,191.714Z" style="fill:rgb(38, 50, 56);
	fill-rule:nonzero;" />
		<path d="M318.35,191.714C311.93,195.424 311.93,201.434 318.35,205.134C324.77,208.834 335.19,208.844 341.61,205.134C348.03,201.424 348.03,195.414 341.61,191.704C335.19,187.994 324.74,188.004 318.35,191.714Z" style="fill:rgb(69, 90, 100);
	fill-rule:nonzero;" />
		<path d="M318.35,191.714C311.93,195.424 311.93,201.434 318.35,205.134C324.77,208.834 335.19,208.844 341.61,205.134C348.03,201.424 348.03,195.414 341.61,191.704C335.19,187.994 324.74,188.004 318.35,191.714Z" style="fill:white;
	fill-opacity:0.07;
	fill-rule:nonzero;" />
		<path d="M170.282,63.254C168.652,62.807 166.992,62.478 165.315,62.269C164.237,62.121 163.151,62.036 162.063,62.014C154.152,61.768 148.245,64.713 144.914,70.031C144.183,71.237 143.593,72.523 143.156,73.863C142.238,76.601 141.792,79.476 141.837,82.363C141.837,87.804 140.727,93.188 138.576,98.185C134.304,108.144 127.905,126.128 132.713,135.173C140.923,150.635 169.772,135.973 179.827,135.173C189.883,134.373 179.748,90.538 179.748,90.538C179.748,90.538 185.26,88.472 186.033,83.348C186.64,79.357 184.688,77.669 184.688,77.669C185.953,77.086 187.032,76.165 187.807,75.008C188.583,73.851 189.024,72.503 189.083,71.112C189.646,65.917 182.385,66.541 170.282,63.254Z" style="fill:rgb(120, 75, 75);
	fill-rule:nonzero;" />
		<path d="M179.827,72.861C179.827,72.861 175.837,89.817 152.412,87.356C152.412,87.356 147.542,69.38 162.204,65.618C176.865,61.856 179.827,72.861 179.827,72.861Z" style="fill:rgb(120, 75, 75);
	fill-rule:nonzero;" />
		<path d="M186.05,123.164C190.84,131.274 196.62,141.094 199.86,144.474C206.01,147.334 220.07,152.684 225.72,153.474C226.716,153.595 227.723,153.357 228.56,152.804C230.78,151.344 232.5,151.114 234.85,150.304C236.68,149.664 237.46,148.794 237.85,149.124C238.203,149.539 238.379,150.076 238.342,150.619C238.304,151.163 238.056,151.67 237.65,152.034C236.772,152.869 235.799,153.597 234.75,154.204C237.258,154.822 239.873,154.867 242.4,154.334C247.3,153.054 249.61,155.404 246.3,160.714C245.11,162.624 240.45,165.664 230.99,164.844C227.619,164.651 224.263,164.253 220.94,163.654C211.87,161.724 202.18,158.894 195.94,157.034C193.644,156.127 191.59,154.699 189.94,152.864C179.51,140.974 174.39,130.444 169.82,122.744L170.21,110.164C177.58,109.884 182.04,116.374 186.05,123.164Z" style="fill:rgb(255, 189, 167);
	fill-rule:nonzero;" />
		<path d="M136.91,311.684C136.423,314.407 136.162,317.167 136.13,319.934C136.03,324.934 135.13,326.714 134.99,330.824C134.85,335.514 135.66,337.274 137.57,339.914C139.48,342.554 144.47,344.914 146.57,340.484C148.67,336.054 148.41,333.104 147.74,328.484C147.07,323.864 146.95,321.094 146.55,317.484C146.19,314.284 145.76,311.854 145.76,311.854L136.91,311.684Z" style="fill:rgb(38, 50, 56);
	fill-rule:nonzero;" />
		<path d="M151.12,272.323L134.63,272.023C134.88,283.023 136.63,301.353 136.91,311.683C136.91,313.633 136.91,326.793 137.6,330.793C138.7,336.793 145.83,335.993 146.21,332.393C146.59,328.793 145.74,313.483 145.74,311.843C145.68,305.223 148.74,287.933 150.41,276.043C150.52,275.483 151.04,272.893 151.12,272.323Z" style="fill:rgb(255, 189, 167);
	fill-rule:nonzero;" />
		<path d="M175.35,303.124C175.35,303.124 174.5,303.174 174.35,303.864C174.2,304.554 174.15,305.994 173.81,307.354C173.247,309.481 173.048,311.689 173.22,313.884C173.5,315.414 177.01,317.704 179.41,318.114C181.81,318.524 185.2,320.884 187.08,322.654C190.097,325.149 193.831,326.617 197.74,326.844C201.74,326.844 204.54,325.514 205.86,323.364C207.18,321.214 204.65,320.964 200.08,317.994L196.52,315.684C189.27,310.944 186.61,308.404 184.52,303.684L175.35,303.124Z" style="fill:rgb(38, 50, 56);
	fill-rule:nonzero;" />
		<path d="M184.64,300.183C184.52,296.783 186.86,261.763 186.86,261.763L171.2,268.903C174.55,288.903 175.71,300.103 175.32,303.013C175.254,303.288 175.224,303.571 175.23,303.853C175.23,307.743 179.64,309.853 183.06,312.433C184.41,313.433 187.89,316.613 191.96,317.993C194.6,318.893 199.47,319.233 200.09,317.633C195.93,314.453 190.26,310.293 186.94,306.633C185.36,304.933 184.74,303.593 184.64,300.183Z" style="fill:rgb(255, 189, 167);
	fill-rule:nonzero;" />
		<path d="M142.5,158.563C136.5,171.763 135.39,188.343 136.39,205.183C137.3,220.633 138.75,234.243 138.75,234.243C138.52,236.983 134.75,242.333 134.22,254.453C134.03,263.035 134.29,271.62 135,280.173C135,280.173 143.55,284.913 149.88,280.173C149.88,280.173 155.98,251.033 157.77,236.853C159.33,224.473 163.7,198.763 163.7,198.763L170.84,236.763C169.599,240.75 168.699,244.835 168.15,248.973C167.34,257.313 172,273.693 172,273.693C172,273.693 180.84,276.333 186.24,271.543C186.24,271.543 188.24,244.913 189.01,234.873C190.01,221.413 187.73,184.613 184.65,165.733L142.5,158.563Z" style="fill:rgb(55, 71, 79);
	fill-rule:nonzero;" />
		<path d="M134.721,276.258C134.025,276.731 134.215,277.749 134.435,279.912C134.506,281.343 134.756,282.76 135.179,284.131C135.428,284.612 136.95,286.162 142.286,286.122C147.622,286.081 149.558,284.179 149.869,283.348C150.371,281.411 150.766,279.452 151.052,277.478C151.211,276.291 150.661,276.195 150.661,276.195L150.46,277.544C150.46,277.544 148.432,279.493 142.897,279.829C137.362,280.164 134.929,277.777 134.929,277.777L134.721,276.258Z" style="fill-rule:nonzero;" />
		<path d="M134.721,276.258C134.025,276.731 134.215,277.749 134.435,279.912C134.506,281.343 134.756,282.76 135.179,284.131C135.428,284.612 136.95,286.162 142.286,286.122C147.622,286.081 149.558,284.179 149.869,283.348C150.371,281.411 150.766,279.452 151.052,277.478C151.211,276.291 150.661,276.195 150.661,276.195L150.46,277.544C150.46,277.544 148.432,279.493 142.897,279.829C137.362,280.164 134.929,277.777 134.929,277.777L134.721,276.258Z" style="fill:white;
	fill-opacity:0.6;
	fill-rule:nonzero;" />
		<path d="M171.131,269.597C170.566,269.753 170.605,270.367 170.786,271.599C170.967,272.83 171.641,275.617 171.801,276.481C171.961,277.346 175.304,279.19 180.306,278.771C185.308,278.353 186.269,277.228 186.48,276.008C186.691,274.787 186.957,271.617 186.989,270.787C187.02,269.958 186.905,269.798 186.318,269.594L186.199,270.937C186.199,270.937 185.143,272.612 179.567,272.641C173.992,272.669 171.404,270.697 171.404,270.697L171.131,269.597Z" style="fill-rule:nonzero;" />
		<path d="M171.131,269.597C170.566,269.753 170.605,270.368 170.786,271.599C170.967,272.831 171.641,275.617 171.801,276.481C171.96,277.346 175.304,279.191 180.306,278.772C185.308,278.353 186.269,277.228 186.48,276.008C186.691,274.788 186.957,271.617 186.988,270.788C187.02,269.958 186.904,269.798 186.317,269.595L186.199,270.937C186.199,270.937 185.142,272.612 179.567,272.641C173.991,272.67 171.404,270.697 171.404,270.697L171.131,269.597Z" style="fill:white;
	fill-opacity:0.6;
	fill-rule:nonzero;" />
		<path d="M163.68,198.724L165.51,186.134C165.51,186.134 176.15,184.714 180.97,180.134C179.59,182.295 177.751,184.125 175.584,185.496C173.417,186.866 170.974,187.743 168.43,188.064L166.55,199.484L169.81,232.484L163.68,198.724Z" style="fill:rgb(38, 50, 56);
	fill-rule:nonzero;" />
		<path d="M154.26,110.563C151.08,110.783 146.96,111.433 146.96,111.433C143.62,113.303 141.96,116.703 141.96,120.673C141.96,125.013 139.54,127.443 140.86,134.593L146.07,147.593C145.82,150.843 143.04,155.063 142,159.563C152.5,167.063 168,167.413 177,163.563C179.705,162.523 181.11,162.759 183,160.563C181.52,152.763 182.69,158.043 181.87,150.913C181.467,148.035 181.307,145.128 181.39,142.223C185.47,136.973 187.65,131.833 185.59,127.113C181.39,117.533 173.54,109.823 169.5,110.113L154.26,110.563Z" style="fill:rgb(0, 124, 187);
	fill-rule:nonzero;" />
		<path d="M154.26,110.563C151.08,110.783 146.96,111.433 146.96,111.433C143.62,113.303 141.96,116.703 141.96,120.673C141.96,125.013 139.54,127.443 140.86,134.593L146.07,147.593C145.82,150.843 143.5,154.063 142,159.563C153.54,167.563 167.5,166.913 176.5,163.063C179.205,162.023 181.11,161.759 183,159.563C181.52,151.763 182.69,158.043 181.87,150.913C181.467,148.035 181.307,145.128 181.39,142.223C185.47,136.973 187.65,131.833 185.59,127.113C181.39,117.533 173.54,109.823 169.5,110.113L154.26,110.563Z" style="fill:white;
	fill-opacity:0.7;
	fill-rule:nonzero;" />
		<path d="M172.43,141.704C172.43,141.704 166.61,146.224 159.97,143.864C158.106,143.273 156.425,142.212 155.091,140.782C153.756,139.353 152.812,137.604 152.35,135.704C152.35,135.704 151.65,143.294 160.03,145.884C162.272,146.606 164.687,146.59 166.919,145.838C169.151,145.085 171.083,143.636 172.43,141.704Z" style="fill-opacity:0.1;
	fill-rule:nonzero;" />
		<path d="M176.43,71.354C178.74,72.724 181.6,78.524 181.32,90.694C181.08,101.014 177.73,103.564 176.05,104.294C174.37,105.024 171.14,104.584 167.99,104.064L167.99,110.254C167.99,110.254 171.62,114.054 171.34,116.894C171.06,119.734 165.65,120.054 161.57,117.274C159.099,115.584 156.895,113.535 155.03,111.194L155.03,95.844C155.03,95.844 153.31,97.674 150.26,95.574C149.602,95.156 149.038,94.606 148.604,93.958C148.17,93.31 147.876,92.579 147.74,91.811C147.605,91.043 147.631,90.256 147.817,89.499C148.003,88.741 148.344,88.031 148.82,87.414C150.14,85.854 153.51,85.744 155.13,88.164C155.13,88.164 159.36,87.793 166.05,84.164C168.537,82.815 170.734,80.99 172.516,78.792C174.297,76.594 175.627,74.066 176.43,71.354Z" style="fill:rgb(255, 189, 167);
	fill-rule:nonzero;" />
		<path d="M177.74,71.344C177.74,71.344 180.4,77.654 173.16,82.854C173.16,82.854 176.95,78.324 175.58,72.634C174.45,67.894 177.5,69.134 177.74,71.344Z" style="fill:rgb(120, 75, 75);
	fill-rule:nonzero;" />
		<path d="M168.64,88.104C168.659,88.45 168.541,88.789 168.31,89.048C168.08,89.306 167.756,89.463 167.41,89.484C167.061,89.492 166.722,89.362 166.468,89.122C166.213,88.883 166.063,88.553 166.05,88.204C166.028,88.026 166.043,87.846 166.094,87.675C166.145,87.504 166.231,87.345 166.346,87.208C166.461,87.072 166.602,86.96 166.762,86.881C166.922,86.801 167.097,86.756 167.275,86.747C167.454,86.738 167.632,86.766 167.799,86.829C167.966,86.892 168.119,86.989 168.247,87.113C168.375,87.238 168.476,87.387 168.543,87.552C168.611,87.718 168.644,87.895 168.64,88.074L168.64,88.104Z" style="fill:rgb(38, 50, 56);
	fill-rule:nonzero;" />
		<path d="M170.14,96.854L173.14,97.854C173.087,98.06 172.991,98.254 172.86,98.421C172.728,98.59 172.564,98.729 172.376,98.83C172.188,98.931 171.981,98.993 171.769,99.011C171.556,99.028 171.342,99.002 171.14,98.934C170.735,98.786 170.403,98.486 170.216,98.097C170.029,97.709 170.002,97.262 170.14,96.854Z" style="fill:rgb(240, 153, 122);
	fill-rule:nonzero;" />
		<path d="M180.14,84.124L177.52,82.304C177.629,82.126 177.774,81.973 177.945,81.853C178.115,81.734 178.309,81.65 178.513,81.608C178.717,81.566 178.928,81.566 179.132,81.608C179.336,81.65 179.529,81.734 179.7,81.854C180.048,82.105 180.287,82.48 180.369,82.902C180.451,83.323 180.369,83.76 180.14,84.124Z" style="fill:rgb(120, 75, 75);
	fill-rule:nonzero;" />
		<path d="M179.54,87.173C179.542,87.428 179.469,87.677 179.33,87.891C179.191,88.104 178.993,88.272 178.759,88.373C178.526,88.475 178.268,88.506 178.017,88.462C177.767,88.419 177.534,88.302 177.349,88.128C177.164,87.954 177.034,87.729 176.975,87.481C176.917,87.233 176.932,86.974 177.019,86.735C177.107,86.496 177.262,86.288 177.467,86.137C177.672,85.985 177.916,85.897 178.17,85.883C178.522,85.875 178.863,86.006 179.12,86.248C179.376,86.489 179.527,86.822 179.54,87.173Z" style="fill:rgb(38, 50, 56);
	fill-rule:nonzero;" />
		<path d="M172.34,86.424L172.54,94.234L176.65,92.964L172.34,86.424Z" style="fill:rgb(240, 153, 122);
	fill-rule:nonzero;" />
		<path d="M167.99,104.064C164.67,103.624 157.84,101.664 156.78,98.964C157.205,100.331 158.039,101.535 159.17,102.414C161.17,104.154 167.99,106.124 167.99,106.124L167.99,104.064Z" style="fill:rgb(240, 153, 122);
	fill-rule:nonzero;" />
		<path d="M280.53,212.024L214.57,250.114L214.57,210.024L280.53,171.944L280.53,212.024Z" style="fill:rgb(0, 124, 187);
	fill-rule:nonzero;" />
		<path d="M280.53,212.024L214.57,250.114L214.57,210.024L280.53,171.944L280.53,212.024Z" style="fill-opacity:0.3;
	fill-rule:nonzero;" />
		<path d="M148.61,212.024L214.57,250.114L214.57,210.024L148.61,171.944L148.61,212.024Z" style="fill:rgb(0, 124, 187);
	fill-rule:nonzero;" />
		<path d="M148.61,212.024L214.57,250.114L214.57,210.024L148.61,171.944L148.61,212.024Z" style="fill-opacity:0.4;
	fill-rule:nonzero;" />
		<path d="M160.57,196.253L157.03,192.713C156.53,192.223 155.98,191.783 155.5,191.253C155.32,191.063 154.4,189.993 154.69,189.703C154.724,189.678 154.763,189.66 154.805,189.652C154.846,189.643 154.889,189.644 154.93,189.653C156.5,189.813 158.49,189.743 159.59,188.423C159.781,188.204 159.912,187.939 159.97,187.653C160.003,187.444 159.957,187.23 159.84,187.053C159.61,186.713 159.01,186.713 158.64,186.603C158.17,186.46 157.717,186.266 157.29,186.023C156.554,185.63 155.789,185.296 155,185.023L151.86,184.353C151.406,183.994 150.885,183.729 150.326,183.574C149.768,183.419 149.184,183.378 148.61,183.453L148.61,201.363C149.908,202.089 151.348,202.526 152.83,202.643C154.789,202.87 156.773,202.548 158.56,201.713C160.01,200.993 162.31,199.133 161.39,197.243C161.172,196.871 160.895,196.537 160.57,196.253Z" style="fill-opacity:0.1;
	fill-rule:nonzero;" />
		<path d="M280.53,171.944L214.57,133.864L148.61,171.944L214.57,210.024L280.53,171.944Z" style="fill:rgb(0, 124, 187);
	fill-rule:nonzero;" />
		<path d="M280.53,171.944L214.57,133.864L148.61,171.944L214.57,210.024L280.53,171.944Z" style="fill-opacity:0.15;
	fill-rule:nonzero;" />
		<path d="M231.01,148.963C231.01,146.533 229.41,144.103 226.19,142.253C219.77,138.543 209.36,138.543 202.94,142.253C199.73,144.103 198.13,146.533 198.13,148.963L198.13,155.483C198.13,157.913 199.73,160.333 202.94,162.193C209.36,165.893 219.77,165.903 226.19,162.193C229.41,160.333 231.01,157.903 231.01,155.483L231.01,148.963Z" style="fill:rgb(0, 124, 187);
	fill-rule:nonzero;" />
		<path d="M226.19,142.254C229.4,144.104 231.01,146.534 231.01,148.964L231.01,155.484C231.01,157.914 229.41,160.334 226.19,162.194C222.617,164.094 218.617,165.051 214.57,164.974L214.57,139.484C218.617,139.398 222.617,140.352 226.19,142.254Z" style="fill-opacity:0.3;
	fill-rule:nonzero;" />
		<path d="M202.94,142.254C199.73,144.104 198.13,146.534 198.13,148.964L198.13,155.484C198.13,157.914 199.73,160.334 202.94,162.194C206.517,164.094 210.52,165.051 214.57,164.974L214.57,139.484C210.52,139.398 206.517,140.352 202.94,142.254Z" style="fill-opacity:0.4;
	fill-rule:nonzero;" />
		<path d="M202.94,142.254C196.52,145.954 196.52,151.964 202.94,155.674C209.36,159.384 219.77,159.384 226.19,155.674C232.61,151.964 232.62,145.954 226.19,142.254C219.76,138.554 209.36,138.544 202.94,142.254Z" style="fill:rgb(0, 124, 187);
	fill-rule:nonzero;" />
		<path d="M231.01,186.104C231.01,183.674 229.41,181.254 226.19,179.394C219.77,175.684 209.36,175.684 202.94,179.394C199.73,181.244 198.13,183.674 198.13,186.104L198.13,192.594C198.13,195.024 199.73,197.454 202.94,199.304C209.36,203.014 219.77,203.014 226.19,199.304C229.41,197.454 231.01,195.024 231.01,192.594L231.01,186.104Z" style="fill:rgb(0, 124, 187);
	fill-rule:nonzero;" />
		<path d="M226.19,179.394C229.4,181.244 231.01,183.674 231.01,186.104L231.01,192.594C231.01,195.024 229.41,197.454 226.19,199.304C222.618,201.209 218.617,202.166 214.57,202.084L214.57,176.614C218.617,176.536 222.617,177.493 226.19,179.394Z" style="fill-opacity:0.3;
	fill-rule:nonzero;" />
		<path d="M202.94,179.394C199.73,181.244 198.13,183.674 198.13,186.104L198.13,192.594C198.13,195.024 199.73,197.454 202.94,199.304C206.515,201.209 210.52,202.166 214.57,202.084L214.57,176.614C210.52,176.536 206.517,177.493 202.94,179.394Z" style="fill-opacity:0.4;
	fill-rule:nonzero;" />
		<path d="M202.94,179.394C196.52,183.104 196.52,189.114 202.94,192.824C209.36,196.534 219.77,196.524 226.19,192.824C232.61,189.124 232.62,183.104 226.19,179.394C219.76,175.684 209.36,175.684 202.94,179.394Z" style="fill:rgb(0, 124, 187);
	fill-rule:nonzero;" />
		<path d="M198.85,167.483C198.85,165.053 197.25,162.623 194.04,160.773C187.61,157.063 177.2,157.063 170.78,160.773C167.57,162.623 165.97,165.053 165.97,167.483L165.97,173.973C165.97,176.403 167.57,178.833 170.78,180.683C177.2,184.393 187.61,184.393 194.04,180.683C197.25,178.833 198.85,176.403 198.85,173.973L198.85,167.483Z" style="fill:rgb(0, 124, 187);
	fill-rule:nonzero;" />
		<path d="M194.04,160.814C197.25,162.664 198.85,165.094 198.85,167.524L198.85,174.014C198.85,176.444 197.25,178.874 194.04,180.724C190.461,182.617 186.458,183.567 182.41,183.484L182.41,158.034C186.46,157.957 190.463,158.914 194.04,160.814Z" style="fill-opacity:0.3;
	fill-rule:nonzero;" />
		<path d="M170.74,160.813C167.53,162.663 165.93,165.093 165.93,167.523L165.93,174.013C165.93,176.443 167.53,178.873 170.74,180.723C174.331,182.624 178.348,183.574 182.41,183.483L182.41,158.033C178.347,157.949 174.329,158.906 170.74,160.813Z" style="fill-opacity:0.4;
	fill-rule:nonzero;" />
		<path d="M170.74,160.814C164.32,164.524 164.32,170.534 170.74,174.234C177.16,177.934 187.57,177.944 194,174.234C200.43,170.524 200.42,164.524 194,160.814C187.58,157.104 177.2,157.104 170.74,160.814Z" style="fill:rgb(0, 124, 187);
	fill-rule:nonzero;" />
		<path d="M263.17,167.534C263.17,165.104 261.56,162.674 258.35,160.824C251.93,157.114 241.52,157.114 235.1,160.824C231.89,162.674 230.28,165.104 230.29,167.534L230.29,174.024C230.29,176.454 231.89,178.884 235.1,180.734C241.52,184.444 251.93,184.444 258.35,180.734C261.56,178.884 263.17,176.454 263.17,174.024L263.17,167.534Z" style="fill:rgb(0, 124, 187);
	fill-rule:nonzero;" />
		<path d="M258.35,160.824C261.56,162.674 263.17,165.104 263.17,167.534L263.17,174.024C263.17,176.454 261.56,178.884 258.35,180.734C254.778,182.626 250.781,183.572 246.74,183.484L246.74,158.044C250.784,157.969 254.779,158.926 258.35,160.824Z" style="fill-opacity:0.3;
	fill-rule:nonzero;" />
		<path d="M235.1,160.824C231.89,162.674 230.28,165.104 230.29,167.534L230.29,174.024C230.29,176.454 231.89,178.884 235.1,180.734C238.681,182.63 242.689,183.577 246.74,183.484L246.74,158.044C242.687,157.964 238.68,158.921 235.1,160.824Z" style="fill-opacity:0.4;
	fill-rule:nonzero;" />
		<path d="M235.1,160.824C228.68,164.534 228.68,170.544 235.1,174.254C241.52,177.964 251.93,177.954 258.35,174.254C264.77,170.554 264.77,164.534 258.35,160.824C251.93,157.114 241.52,157.114 235.1,160.824Z" style="fill:rgb(0, 124, 187);
	fill-rule:nonzero;" />
		<path d="M120.29,150.094C124.06,141.874 130.74,129.164 133.9,122.704C138.51,113.404 142.29,111.384 148.61,111.194C151.1,113.354 152.3,120.854 148.27,130.474C144.9,136.254 134.52,154.004 134.52,154.004C135.02,155.444 143.12,175.434 146.44,180.004C147.038,180.806 147.91,181.361 148.89,181.564C151.51,182.124 154.89,184.194 157.07,185.294C158.81,186.154 160,186.094 159.98,186.574C159.905,187.123 159.626,187.624 159.198,187.977C158.769,188.329 158.224,188.506 157.67,188.474C155.932,188.265 154.211,187.93 152.52,187.474C154.416,189.462 156.444,191.319 158.59,193.034C162.59,196.104 163.11,199.324 156.83,200.694C152.08,201.694 149.03,199.554 143.16,192.234C141.47,190.124 139.43,186.864 137.36,184.124C132.15,177.234 129.36,172.384 126.19,168.064C117.12,155.884 118.9,153.124 120.29,150.094Z" style="fill:rgb(255, 189, 167);
	fill-rule:nonzero;" />
	</g>
</svg>
