<svg viewBox="0 0 854 527">
	<g transform="matrix(1,0,0,1,-41.371,-104.444)">
		<path d="M582.633,141.871C607.724,156.558 631.274,176.958 653.326,192.686C694.11,221.826 733.374,253.113 774.317,281.945C813.534,309.732 852.093,340.943 877.097,382.769C938.014,484.3 826.937,527.241 749.101,544.6C627.794,571.56 502.309,599.419 378.92,617.048C312.46,626.615 227.529,628.318 161.758,612.982C63.23,590.003 13.983,495.267 57.018,401.153C98.597,310.264 188.524,279.784 274.383,245.523C335.054,221.236 372.036,178.056 428.029,146.649C463.098,126.96 504.847,116.179 544.007,125.48C557.618,129.016 570.633,134.539 582.633,141.871Z" style="fill:rgb(245, 245, 245);
	fill-rule:nonzero;" />
		<path d="M673.092,459.696C671.994,453.872 670.012,444.366 663.125,436.842C655.671,428.887 646.882,422.296 637.156,417.37C627.491,412.448 622.215,399.189 640.519,399.667C657.408,400.163 673.464,419.14 675.358,435.284L673.092,459.696Z" style="fill:rgb(55, 71, 79);
	fill-rule:nonzero;" />
		<path d="M674.597,444.366C674.369,444.366 674.149,444.281 673.982,444.127C673.815,443.972 673.712,443.761 673.694,443.534C671.658,417.67 643.759,405.474 638.289,404.96C638.157,404.972 638.025,404.954 637.901,404.909C637.777,404.864 637.664,404.792 637.571,404.698C637.478,404.605 637.406,404.492 637.361,404.368C637.316,404.244 637.299,404.111 637.311,403.98C637.323,403.848 637.363,403.721 637.43,403.607C637.496,403.493 637.587,403.395 637.695,403.319C637.804,403.244 637.927,403.193 638.057,403.171C638.188,403.149 638.321,403.155 638.448,403.19C644.503,403.739 673.428,416.006 675.623,443.427C675.633,443.546 675.619,443.665 675.583,443.779C675.546,443.892 675.487,443.997 675.41,444.087C675.333,444.178 675.238,444.252 675.132,444.306C675.026,444.36 674.91,444.392 674.791,444.401L674.597,444.366Z" style="fill:white;
	fill-rule:nonzero;" />
		<path d="M687.909,459.696C688.953,455.624 693.113,448.773 698.53,446.862C703.947,444.95 715.79,447.711 721.136,439.161C726.482,430.611 721.738,418.821 722.623,413.988C723.508,409.155 726.907,405.137 733.652,400.499C740.396,395.861 743.636,386.921 739.812,382.655C735.989,378.389 729.102,377.858 720.056,384.089C711.011,390.32 710.71,388.709 702.743,387.983C694.777,387.258 687.679,395.578 686.422,407.155L687.909,459.696Z" style="fill:rgb(69, 90, 100);
	fill-rule:nonzero;" />
		<path d="M687.307,439.214L687.095,439.214C686.979,439.189 686.869,439.141 686.772,439.073C686.674,439.005 686.592,438.918 686.529,438.817C686.467,438.716 686.425,438.604 686.406,438.486C686.388,438.369 686.393,438.249 686.422,438.134C692.211,412.519 721.419,388.833 732.076,384.815C732.311,384.73 732.57,384.742 732.796,384.849C733.021,384.955 733.196,385.146 733.28,385.381C733.365,385.616 733.352,385.875 733.246,386.1C733.14,386.326 732.948,386.5 732.714,386.585C722.322,390.515 693.768,413.599 688.192,438.612C688.128,438.794 688.008,438.95 687.848,439.058C687.689,439.167 687.499,439.221 687.307,439.214Z" style="fill:white;
	fill-rule:nonzero;" />
		<path d="M700.955,412.873C700.774,412.873 700.596,412.819 700.445,412.718C700.294,412.617 700.176,412.474 700.106,412.306C697.238,405.225 697.787,395.843 697.804,395.436C697.871,395.246 697.999,395.083 698.167,394.973C698.336,394.862 698.536,394.81 698.737,394.824C698.938,394.838 699.128,394.918 699.28,395.051C699.431,395.184 699.535,395.363 699.575,395.56C699.575,395.56 699.026,404.96 701.752,411.616C701.798,411.727 701.821,411.847 701.82,411.967C701.818,412.088 701.793,412.207 701.745,412.317C701.697,412.428 701.628,412.528 701.541,412.611C701.454,412.694 701.351,412.759 701.239,412.802C701.15,412.844 701.054,412.868 700.955,412.873Z" style="fill:white;
	fill-rule:nonzero;" />
		<path d="M714.728,430.682C710.727,430.682 700.46,430.133 692.423,424.858C692.221,424.726 692.08,424.52 692.03,424.284C691.98,424.048 692.026,423.803 692.157,423.601C692.289,423.399 692.495,423.257 692.731,423.208C692.967,423.158 693.212,423.204 693.414,423.335C702.885,429.549 716.162,428.841 716.304,428.823C716.424,428.816 716.544,428.833 716.657,428.873C716.771,428.913 716.875,428.975 716.964,429.056C717.053,429.136 717.125,429.234 717.176,429.343C717.226,429.452 717.255,429.57 717.259,429.69C717.267,429.809 717.25,429.928 717.211,430.04C717.173,430.152 717.112,430.256 717.033,430.345C716.954,430.434 716.858,430.506 716.751,430.558C716.644,430.609 716.528,430.639 716.41,430.646C716.197,430.664 715.595,430.682 714.728,430.682Z" style="fill:white;
	fill-rule:nonzero;" />
		<path d="M383.959,626.629C381.905,619.247 374.966,612.875 363.477,606.254C351.988,599.633 332.321,591.101 336.923,579.541C341.526,567.981 361.547,577.293 369.036,583.825C378.843,592.393 386.437,605.068 386.649,613.795L383.959,626.629Z" style="fill:rgb(55, 71, 79);
	fill-rule:nonzero;" />
		<path d="M385.817,618.982C385.607,618.983 385.402,618.911 385.238,618.779C385.073,618.647 384.959,618.462 384.915,618.256C380.666,598.058 356.732,582.444 345.102,579.736C344.865,579.681 344.66,579.535 344.531,579.329C344.401,579.124 344.359,578.875 344.412,578.638C344.47,578.404 344.617,578.202 344.822,578.073C345.026,577.944 345.272,577.9 345.509,577.948C357.547,580.763 382.295,596.943 386.703,617.885C386.728,618.002 386.731,618.123 386.709,618.242C386.687,618.36 386.642,618.473 386.576,618.573C386.51,618.674 386.424,618.76 386.325,618.828C386.225,618.895 386.113,618.941 385.995,618.964L385.817,618.982Z" style="fill:white;
	fill-rule:nonzero;" />
		<path d="M398.775,626.629C399.696,618.592 406.37,613.813 414.495,611.901C422.621,609.989 429.843,608.697 430.427,599.775C431.012,590.853 422.851,583.506 429.401,575.841C435.951,568.176 445.935,560.157 445.244,546.703C444.554,533.249 432.056,531.851 427.188,540.33C422.32,548.81 421.311,554.687 414.46,553.873C407.609,553.058 396.633,557.537 395.253,578.019L398.775,626.629Z" style="fill:rgb(69, 90, 100);
	fill-rule:nonzero;" />
		<path d="M397.554,610.414L397.43,610.414C397.192,610.379 396.977,610.252 396.831,610.06C396.686,609.868 396.621,609.626 396.651,609.387C399.36,589.331 413.416,572.212 423.683,559.715C428.091,554.404 431.897,549.713 433.543,546.314C433.593,546.205 433.663,546.108 433.751,546.027C433.838,545.946 433.941,545.883 434.053,545.842C434.165,545.8 434.284,545.782 434.403,545.787C434.522,545.792 434.639,545.821 434.747,545.871C434.964,545.978 435.131,546.165 435.214,546.393C435.296,546.621 435.288,546.871 435.189,547.093C433.419,550.633 429.578,555.413 425.081,560.883C414.956,573.275 401.095,590.074 398.528,609.635C398.497,609.865 398.378,610.075 398.197,610.22C398.016,610.365 397.786,610.434 397.554,610.414Z" style="fill:white;
	fill-rule:nonzero;" />
		<path d="M408.476,581.736C408.289,581.739 408.106,581.682 407.954,581.573C407.801,581.465 407.687,581.312 407.627,581.134C406.01,575.503 405.24,569.662 405.343,563.804C405.352,563.561 405.455,563.331 405.63,563.163C405.805,562.995 406.039,562.901 406.281,562.901C406.401,562.903 406.52,562.929 406.63,562.978C406.74,563.027 406.839,563.097 406.921,563.184C407.004,563.271 407.068,563.374 407.11,563.487C407.152,563.599 407.171,563.719 407.166,563.839C407.074,569.48 407.807,575.104 409.344,580.532C409.385,580.645 409.403,580.765 409.397,580.885C409.391,581.004 409.36,581.122 409.307,581.229C409.254,581.337 409.18,581.433 409.089,581.511C408.998,581.589 408.892,581.647 408.777,581.683C408.681,581.719 408.579,581.737 408.476,581.736Z" style="fill:white;
	fill-rule:nonzero;" />
		<path d="M421.028,599.297C414.342,598.921 407.764,597.45 401.555,594.942C401.443,594.901 401.341,594.838 401.254,594.756C401.167,594.675 401.097,594.576 401.05,594.467C401.002,594.358 400.976,594.241 400.975,594.121C400.973,594.002 400.996,593.884 401.042,593.774C401.083,593.662 401.146,593.559 401.227,593.472C401.308,593.384 401.406,593.314 401.515,593.265C401.624,593.215 401.741,593.188 401.86,593.184C401.98,593.18 402.098,593.2 402.21,593.243C408.22,595.666 414.579,597.112 421.045,597.527C421.165,597.529 421.284,597.555 421.394,597.604C421.503,597.652 421.603,597.722 421.685,597.81C421.767,597.897 421.832,598 421.874,598.113C421.916,598.225 421.935,598.345 421.93,598.465C421.917,598.693 421.815,598.908 421.647,599.063C421.478,599.218 421.256,599.302 421.028,599.297Z" style="fill:white;
	fill-rule:nonzero;" />
		<path d="M254.696,493.95C255.121,493.773 256.466,465.361 244.216,448.614C231.966,431.868 217.184,429.938 207.448,434.01C197.712,438.081 199.694,448.083 211.679,454.084C223.663,460.085 238.587,470.547 242.145,489.666L254.696,493.95Z" style="fill:rgb(55, 71, 79);
	fill-rule:nonzero;" />
		<path d="M250.199,485.612C249.983,485.611 249.775,485.535 249.61,485.396C249.445,485.256 249.334,485.064 249.296,484.851C244.711,455.996 227.646,441.852 213.219,438.241C213.102,438.214 212.992,438.164 212.895,438.094C212.798,438.024 212.715,437.935 212.653,437.833C212.59,437.731 212.548,437.617 212.53,437.499C212.512,437.38 212.517,437.259 212.546,437.143C212.57,437.013 212.621,436.889 212.697,436.78C212.773,436.671 212.871,436.58 212.985,436.513C213.1,436.445 213.227,436.404 213.359,436.39C213.491,436.377 213.624,436.392 213.75,436.435C228.744,440.188 246.464,454.792 251.191,484.515C251.211,484.633 251.207,484.755 251.179,484.872C251.152,484.989 251.101,485.1 251.03,485.197C250.959,485.295 250.869,485.377 250.766,485.439C250.663,485.501 250.549,485.542 250.429,485.559L250.199,485.612Z" style="fill:white;
	fill-rule:nonzero;" />
		<path d="M252.501,546.703C250.73,539.215 243.101,534.311 234.196,533.462C224.938,532.63 214.175,531.691 211.307,523.902C208.439,516.113 211.307,505.51 210.015,500.323C208.439,494.038 206.032,490.303 193.87,486.479C182.983,483.063 176.964,472.654 187.94,468.264C198.915,463.874 209.909,466.653 217.379,470.034C224.849,473.415 225.168,476.903 235.683,476C246.199,475.097 254.041,481.7 254.696,488.073L252.501,546.703Z" style="fill:rgb(69, 90, 100);
	fill-rule:nonzero;" />
		<path d="M252.5,521.3C252.312,521.299 252.129,521.24 251.974,521.133C251.819,521.026 251.701,520.874 251.633,520.698C242.994,496.623 207.66,474.832 195.906,473.451C195.668,473.42 195.451,473.297 195.302,473.108C195.153,472.92 195.084,472.681 195.109,472.442C195.136,472.2 195.257,471.979 195.446,471.827C195.635,471.674 195.877,471.603 196.118,471.627C208.191,473.061 244.499,495.402 253.35,520.079C253.392,520.191 253.411,520.311 253.406,520.432C253.402,520.552 253.373,520.67 253.322,520.778C253.27,520.887 253.198,520.985 253.109,521.065C253.019,521.146 252.915,521.208 252.801,521.247L252.5,521.3Z" style="fill:white;
	fill-rule:nonzero;" />
		<path d="M244.216,506.837L244.021,506.837C243.785,506.782 243.579,506.636 243.45,506.431C243.321,506.225 243.278,505.977 243.331,505.74C246.234,493.189 243.331,485.116 243.331,485.028C243.249,484.793 243.263,484.535 243.371,484.311C243.479,484.087 243.671,483.915 243.906,483.833C244.141,483.751 244.399,483.765 244.623,483.873C244.847,483.981 245.019,484.174 245.101,484.408C245.225,484.745 248.164,493.047 245.101,506.147C245.05,506.343 244.936,506.518 244.776,506.643C244.616,506.767 244.419,506.836 244.216,506.837Z" style="fill:white;
	fill-rule:nonzero;" />
		<path d="M250.199,516.096C250.051,516.096 249.905,516.06 249.775,515.989C242.694,512.148 227.292,514.892 227.133,514.91C227.014,514.94 226.889,514.946 226.767,514.927C226.645,514.908 226.528,514.864 226.424,514.798C226.32,514.731 226.23,514.645 226.161,514.542C226.092,514.44 226.044,514.325 226.021,514.204C225.998,514.083 226,513.958 226.027,513.837C226.054,513.717 226.106,513.603 226.178,513.504C226.251,513.404 226.343,513.32 226.45,513.257C226.556,513.195 226.674,513.155 226.797,513.139C227.452,513.015 242.977,510.254 250.642,514.396C250.849,514.479 251.019,514.633 251.121,514.832C251.223,515.03 251.249,515.259 251.195,515.475C251.141,515.691 251.01,515.88 250.827,516.008C250.644,516.135 250.421,516.191 250.199,516.166L250.199,516.096Z" style="fill:white;
	fill-rule:nonzero;" />
		<path d="M409.556,191.681C402.776,185.309 390.508,182.83 375.107,192.266C359.706,201.701 347.527,231.884 343.703,253.233C339.88,274.582 337.472,302.463 345.12,314.288C352.767,326.113 380.524,338.647 380.524,338.647L383.888,327.016L409.556,191.681Z" style="fill:rgb(0, 124, 187);
	fill-rule:nonzero;" />
		<path d="M409.556,191.681C402.776,185.309 390.508,182.83 375.107,192.266C359.706,201.701 347.527,231.884 343.703,253.233C339.88,274.582 337.472,302.463 345.12,314.288C352.767,326.113 380.524,338.647 380.524,338.647L383.888,327.016L409.556,191.681Z" style="fill:white;
	fill-opacity:0.4;
	fill-rule:nonzero;" />
		<path d="M352.731,310.748C364.751,325.14 383.958,327.087 383.958,327.087L458.043,284.194L428.374,267.076L352.731,310.748Z" style="fill:rgb(0, 124, 187);
	fill-rule:nonzero;" />
		<path d="M352.731,310.748C364.751,325.14 383.958,327.087 383.958,327.087L458.043,284.194L428.374,267.076L352.731,310.748Z" style="fill-opacity:0.2;
	fill-rule:nonzero;" />
		<path d="M352.732,310.748C347.864,304.977 346.872,290.125 349.51,267.165C352.378,241.956 361.707,202.958 383.941,190.106C410.017,175.059 436.499,212.447 428.427,267.165L352.732,310.748Z" style="fill:rgb(0, 124, 187);
	fill-rule:nonzero;" />
		<path d="M526.286,432.753C539.97,448.26 549.989,451.34 553.654,454.651C557.318,457.961 555.867,465.113 547.688,467.396C539.51,469.68 530.322,468.335 524.569,463.396C518.816,458.457 514.549,451.712 508.778,448.207C503.007,444.702 500.139,443.87 498.971,439.356C497.803,434.842 500.918,420.768 500.918,420.768L526.286,432.753Z" style="fill:rgb(38, 50, 56);
	fill-rule:nonzero;" />
		<path d="M518.444,408.111C517.718,414.165 516.833,419.494 521.435,426.38C522.922,428.594 524.542,430.717 526.286,432.735C534.287,441.958 540.784,449.145 541.935,450.438C543.086,451.73 537.226,456.421 529.968,453.978C522.71,451.535 515.895,441.586 510.832,435.691C508.584,433.054 506.388,430.664 504.654,428.823C502.32,426.368 500.966,423.144 500.848,419.759L500.511,410.2L518.444,408.111Z" style="fill:rgb(255, 189, 167);
	fill-rule:nonzero;" />
		<path d="M484.738,458.12C498.422,473.645 508.424,476.708 512.106,480.018C515.789,483.329 514.319,490.498 506.141,492.782C497.962,495.065 488.775,493.72 483.004,488.763C477.233,483.807 473.002,477.097 467.231,473.592C461.46,470.087 458.574,469.255 457.424,464.741C456.273,460.227 459.371,446.154 459.371,446.154L484.738,458.12Z" style="fill:rgb(38, 50, 56);
	fill-rule:nonzero;" />
		<path d="M476.879,433.496C476.171,439.568 475.268,444.879 479.888,451.765C481.37,453.983 482.99,456.105 484.738,458.12C492.74,467.361 499.219,474.548 500.37,475.823C501.52,477.097 495.679,481.806 488.403,479.363C481.127,476.92 474.329,466.972 469.284,461.094C467.036,458.439 464.841,456.067 463.106,454.226C460.775,451.769 459.422,448.546 459.3,445.162L458.946,435.585L476.879,433.496Z" style="fill:rgb(255, 189, 167);
	fill-rule:nonzero;" />
		<path d="M421.541,104.444L432.056,104.444C436.163,104.439 440.23,105.244 444.026,106.812C447.822,108.38 451.272,110.68 454.178,113.582C457.085,116.483 459.391,119.929 460.966,123.722C462.54,127.516 463.351,131.582 463.354,135.689L463.354,214.217L390.278,214.217L390.278,135.689C390.283,127.401 393.579,119.453 399.441,113.594C405.303,107.735 413.253,104.444 421.541,104.444Z" style="fill:rgb(120, 75, 75);
	fill-rule:nonzero;" />
		<path d="M467.744,195.682C455.512,182.83 449.263,181.52 441.828,181.52L455.99,223.121C455.99,223.121 479.286,238.522 492.917,247.019L501.573,227.936C501.573,227.936 479.977,208.481 467.744,195.682Z" style="fill:rgb(255, 189, 167);
	fill-rule:nonzero;" />
		<path d="M385.074,289.505C380.524,299.312 374.665,309.739 380.595,319.829C386.526,329.919 434.694,319.829 434.694,319.829L434.694,289.505L385.074,289.505Z" style="fill:rgb(38, 50, 56);
	fill-rule:nonzero;" />
		<path d="M437.19,181.52C442.5,181.078 448.519,181.237 454.892,191.965C461.265,202.692 464.841,208.711 462.823,224.325C460.805,239.938 453.264,251.976 452.715,257.818C452.166,263.66 453.564,291.736 453.564,291.736C453.564,291.736 444.253,305.03 421.098,305.65C414.272,305.799 407.498,304.428 401.267,301.636C395.037,298.843 389.505,294.7 385.074,289.505L402.776,257.747L398.244,193.204L415.54,182.848L437.19,181.52Z" style="fill:rgb(0, 124, 187);
	fill-rule:nonzero;" />
		<path d="M437.19,181.52C442.5,181.078 448.519,181.237 454.892,191.965C461.265,202.692 464.841,208.711 462.823,224.325C460.805,239.938 453.264,251.976 452.715,257.818C452.166,263.66 453.564,291.736 453.564,291.736C453.564,291.736 444.253,305.03 421.098,305.65C414.272,305.799 407.498,304.428 401.267,301.636C395.037,298.843 389.505,294.7 385.074,289.505L402.776,257.747L398.244,193.204L415.54,182.848L437.19,181.52Z" style="fill:rgb(224, 224, 224);
	fill-rule:nonzero;" />
		<path d="M415.558,204.357C413.88,204.357 412.219,204.026 410.669,203.383C409.119,202.741 407.712,201.799 406.526,200.612C405.341,199.425 404.401,198.016 403.761,196.465C403.12,194.915 402.792,193.253 402.794,191.575L402.794,154.4L415.558,154.4L415.558,204.357Z" style="fill:rgb(120, 75, 75);
	fill-rule:nonzero;" />
		<path d="M451.316,119.208C455.158,121.492 459.937,131.193 459.459,151.515C459.07,168.757 453.476,173.006 450.608,174.245C447.74,175.484 442.394,174.723 437.119,173.838L437.119,184.193C437.119,184.193 444.394,192.638 443.934,197.364C443.474,202.091 433.437,203.241 426.639,198.603C422.23,195.427 418.443,191.467 415.469,186.92L415.469,161.906C415.469,161.906 411.928,166.65 406.122,162.791C400.315,158.932 400.085,149.391 403.467,145.974C406.848,142.557 414.088,143.62 415.469,148.364C415.469,148.364 423.86,148.665 434.941,142.54C439.316,140.216 443.079,136.891 445.925,132.836C448.77,128.782 450.618,124.112 451.316,119.208Z" style="fill:rgb(255, 189, 167);
	fill-rule:nonzero;" />
		<path d="M440.217,147.195C440.243,147.768 440.04,148.328 439.653,148.751C439.266,149.174 438.727,149.427 438.155,149.452C437.582,149.478 437.022,149.275 436.599,148.889C436.176,148.502 435.923,147.963 435.897,147.39C435.885,147.106 435.928,146.823 436.025,146.556C436.121,146.289 436.27,146.044 436.461,145.834C436.653,145.625 436.884,145.455 437.141,145.335C437.398,145.214 437.676,145.146 437.96,145.133C438.243,145.12 438.527,145.163 438.794,145.26C439.061,145.357 439.306,145.505 439.515,145.697C439.725,145.888 439.895,146.119 440.015,146.376C440.136,146.633 440.204,146.912 440.217,147.195Z" style="fill:rgb(38, 50, 56);
	fill-rule:nonzero;" />
		<path d="M436.305,140.557L431.808,143.336C431.442,142.72 431.33,141.987 431.496,141.29C431.661,140.593 432.09,139.987 432.693,139.601C432.992,139.421 433.323,139.303 433.668,139.254C434.013,139.205 434.364,139.226 434.701,139.315C435.038,139.404 435.353,139.56 435.629,139.773C435.904,139.987 436.134,140.253 436.305,140.557Z" style="fill:rgb(120, 75, 75);
	fill-rule:nonzero;" />
		<path d="M440.801,161.8L445.829,163.411C445.733,163.744 445.572,164.055 445.355,164.326C445.138,164.596 444.869,164.82 444.564,164.985C444.259,165.15 443.924,165.252 443.579,165.286C443.233,165.32 442.885,165.284 442.554,165.181C441.886,164.946 441.333,164.466 441.007,163.838C440.682,163.209 440.608,162.481 440.801,161.8Z" style="fill:rgb(240, 153, 122);
	fill-rule:nonzero;" />
		<path d="M458.043,140.539L453.653,137.495C453.836,137.197 454.078,136.941 454.364,136.741C454.649,136.541 454.973,136.402 455.315,136.332C455.657,136.262 456.01,136.264 456.351,136.336C456.692,136.408 457.015,136.549 457.3,136.751C457.883,137.169 458.285,137.794 458.423,138.498C458.562,139.202 458.426,139.932 458.043,140.539Z" style="fill:rgb(120, 75, 75);
	fill-rule:nonzero;" />
		<path d="M456.981,145.62C456.987,146.047 456.868,146.467 456.637,146.827C456.407,147.187 456.075,147.471 455.684,147.644C455.293,147.817 454.86,147.871 454.439,147.799C454.017,147.728 453.626,147.533 453.314,147.241C453.002,146.948 452.784,146.571 452.685,146.155C452.587,145.739 452.613,145.303 452.76,144.902C452.908,144.5 453.17,144.151 453.515,143.898C453.859,143.645 454.27,143.499 454.697,143.478C454.988,143.469 455.278,143.516 455.55,143.619C455.822,143.722 456.071,143.877 456.283,144.076C456.495,144.275 456.666,144.513 456.786,144.778C456.906,145.043 456.972,145.329 456.981,145.62Z" style="fill:rgb(38, 50, 56);
	fill-rule:nonzero;" />
		<path d="M446.749,144.381L447.103,157.427L453.972,155.303L446.749,144.381Z" style="fill:rgb(240, 153, 122);
	fill-rule:nonzero;" />
		<path d="M437.19,173.838C432.817,173.342 424.037,170.687 422.09,167.73C422.465,169.619 423.516,171.305 425.046,172.474C427.914,175.218 437.19,177.201 437.19,177.201L437.19,173.838Z" style="fill:rgb(240, 153, 122);
	fill-rule:nonzero;" />
		<path d="M391.358,468.264L250.5,386.939L547.051,215.721L687.909,297.046L391.358,468.264Z" style="fill:rgb(0, 124, 187);
	fill-rule:nonzero;" />
		<path d="M391.358,468.264L250.5,386.939L547.051,215.721L687.909,297.046L391.358,468.264Z" style="fill:white;
	fill-opacity:0.4;
	fill-rule:nonzero;" />
		<path d="M250.5,386.939L250.5,549.589L257.918,553.873L257.918,442.578L383.959,515.334L383.959,626.629L391.358,630.913L391.358,468.264L250.5,386.939Z" style="fill:rgb(0, 124, 187);
	fill-rule:nonzero;" />
		<path d="M250.5,386.939L250.5,549.589L257.918,553.873L257.918,442.578L383.959,515.334L383.959,626.629L391.358,630.913L391.358,468.264L250.5,386.939Z" style="fill-opacity:0.3;
	fill-rule:nonzero;" />
		<path d="M257.918,553.873L265.335,549.589L265.335,446.862L257.918,442.578L257.918,553.873Z" style="fill:rgb(0, 124, 187);
	fill-rule:nonzero;" />
		<path d="M257.918,553.873L265.335,549.589L265.335,446.862L257.918,442.578L257.918,553.873Z" style="fill-opacity:0.5;
	fill-rule:nonzero;" />
		<path d="M391.358,630.913L398.775,626.629L398.775,515.334L680.491,352.685L680.491,463.98L687.909,459.696L687.909,297.046L391.358,468.264L391.358,630.913Z" style="fill:rgb(0, 124, 187);
	fill-rule:nonzero;" />
		<path d="M391.358,630.913L398.775,626.629L398.775,515.334L680.491,352.685L680.491,463.98L687.909,459.696L687.909,297.046L391.358,468.264L391.358,630.913Z" style="fill-opacity:0.1;
	fill-rule:nonzero;" />
		<path d="M398.776,506.784L398.776,472.548L487.748,421.176L487.748,455.412L398.776,506.784Z" style="fill:rgb(0, 124, 187);
	fill-rule:nonzero;" />
		<path d="M398.776,506.784L398.776,472.548L487.748,421.176L487.748,455.412L398.776,506.784Z" style="fill-opacity:0.3;
	fill-rule:nonzero;" />
		<path d="M495.147,451.146L495.147,416.892L584.12,365.537L584.12,399.773L495.147,451.146Z" style="fill:rgb(0, 124, 187);
	fill-rule:nonzero;" />
		<path d="M495.147,451.146L495.147,416.892L584.12,365.537L584.12,399.773L495.147,451.146Z" style="fill-opacity:0.3;
	fill-rule:nonzero;" />
		<path d="M591.537,395.489L591.537,361.253L680.492,309.88L680.492,344.135L591.537,395.489Z" style="fill:rgb(0, 124, 187);
	fill-rule:nonzero;" />
		<path d="M591.537,395.489L591.537,361.253L680.492,309.88L680.492,344.135L591.537,395.489Z" style="fill-opacity:0.3;
	fill-rule:nonzero;" />
		<path d="M458.043,438.294L458.043,441.038C458.043,442.542 454.503,445.817 450.13,448.331L436.287,456.332C431.915,458.846 428.374,459.678 428.374,458.103L428.374,455.377L458.043,438.294Z" style="fill:rgb(38, 50, 56);
	fill-rule:nonzero;" />
		<path d="M554.468,382.655L554.468,385.399C554.468,386.904 550.927,390.179 546.555,392.692L532.712,400.694C528.357,403.208 524.816,404.022 524.816,402.464L524.816,399.72L554.468,382.655Z" style="fill:rgb(38, 50, 56);
	fill-rule:nonzero;" />
		<path d="M650.84,327.016L650.84,329.743C650.84,331.265 647.3,334.522 642.945,337.054L629.084,345.037C624.729,347.569 621.188,348.383 621.188,346.808L621.188,344.064L650.84,327.016Z" style="fill:rgb(38, 50, 56);
	fill-rule:nonzero;" />
		<path d="M680.491,463.98L673.092,459.696L673.092,356.969L680.491,352.685L680.491,463.98Z" style="fill:rgb(0, 124, 187);
	fill-rule:nonzero;" />
		<path d="M680.491,463.98L673.092,459.696L673.092,356.969L680.491,352.685L680.491,463.98Z" style="fill-opacity:0.3;
	fill-rule:nonzero;" />
		<path d="M472.913,308.057L472.913,307.438C472.945,306.889 473.104,306.356 473.378,305.88C473.651,305.404 474.031,304.998 474.489,304.694L567.798,250.878C568.29,250.632 568.833,250.504 569.383,250.504C569.933,250.504 570.475,250.632 570.967,250.878L590.05,261.889C590.508,262.193 590.888,262.599 591.161,263.075C591.435,263.552 591.594,264.085 591.626,264.633L591.626,265.27C591.589,265.817 591.426,266.348 591.15,266.821C590.873,267.294 590.491,267.697 590.032,267.997L496.829,321.812C496.337,322.058 495.795,322.186 495.245,322.186C494.695,322.186 494.152,322.058 493.661,321.812L474.489,310.748C474.038,310.449 473.662,310.052 473.389,309.585C473.116,309.119 472.953,308.596 472.913,308.057Z" style="fill:rgb(0, 124, 187);
	fill-rule:nonzero;" />
		<path d="M472.913,308.057L472.913,307.438C472.945,306.889 473.104,306.356 473.378,305.88C473.651,305.404 474.031,304.998 474.489,304.694L567.798,250.878C568.29,250.632 568.833,250.504 569.383,250.504C569.933,250.504 570.475,250.632 570.967,250.878L590.05,261.889C590.508,262.193 590.888,262.599 591.161,263.075C591.435,263.552 591.594,264.085 591.626,264.633L591.626,265.27C591.589,265.817 591.426,266.348 591.15,266.821C590.873,267.294 590.491,267.697 590.032,267.997L496.829,321.812C496.337,322.058 495.795,322.186 495.245,322.186C494.695,322.186 494.152,322.058 493.661,321.812L474.489,310.748C474.038,310.449 473.662,310.052 473.389,309.585C473.116,309.119 472.953,308.596 472.913,308.057Z" style="fill:white;
	fill-opacity:0.7;
	fill-rule:nonzero;" />
		<path d="M474.489,306.517L493.572,317.546C494.064,317.792 494.606,317.92 495.156,317.92C495.706,317.92 496.249,317.792 496.741,317.546L589.944,263.73C590.113,263.653 590.257,263.528 590.358,263.371C590.458,263.214 590.512,263.032 590.512,262.845C590.512,262.659 590.458,262.476 590.358,262.319C590.257,262.162 590.113,262.038 589.944,261.96L570.861,250.949C570.369,250.703 569.826,250.575 569.276,250.575C568.726,250.575 568.184,250.703 567.692,250.949L474.471,304.765C473.621,305.207 473.621,306.021 474.489,306.517Z" style="fill:rgb(0, 124, 187);
	fill-rule:nonzero;" />
		<path d="M474.489,306.517L493.572,317.546C494.064,317.792 494.606,317.92 495.156,317.92C495.706,317.92 496.249,317.792 496.741,317.546L589.944,263.73C590.113,263.653 590.257,263.528 590.358,263.371C590.458,263.214 590.512,263.032 590.512,262.845C590.512,262.659 590.458,262.476 590.358,262.319C590.257,262.162 590.113,262.038 589.944,261.96L570.861,250.949C570.369,250.703 569.826,250.575 569.276,250.575C568.726,250.575 568.184,250.703 567.692,250.949L474.471,304.765C473.621,305.207 473.621,306.021 474.489,306.517Z" style="fill:white;
	fill-opacity:0.9;
	fill-rule:nonzero;" />
		<path d="M355.883,359.305L412.017,391.736C412.509,391.982 413.051,392.111 413.601,392.111C414.151,392.111 414.694,391.982 415.186,391.736L456.503,367.873C456.679,367.802 456.829,367.679 456.935,367.522C457.041,367.364 457.098,367.178 457.098,366.988C457.098,366.798 457.041,366.613 456.935,366.455C456.829,366.297 456.679,366.175 456.503,366.103L400.351,333.69C399.864,333.437 399.324,333.305 398.776,333.305C398.227,333.305 397.687,333.437 397.2,333.69L355.883,357.482C354.997,357.996 354.997,358.81 355.883,359.305Z" style="fill:rgb(0, 124, 187);
	fill-rule:nonzero;" />
		<path d="M355.883,359.305L412.017,391.736C412.509,391.982 413.051,392.111 413.601,392.111C414.151,392.111 414.694,391.982 415.186,391.736L456.503,367.873C456.679,367.802 456.829,367.679 456.935,367.522C457.041,367.364 457.098,367.178 457.098,366.988C457.098,366.798 457.041,366.613 456.935,366.455C456.829,366.297 456.679,366.175 456.503,366.103L400.351,333.69C399.864,333.437 399.324,333.305 398.776,333.305C398.227,333.305 397.687,333.437 397.2,333.69L355.883,357.482C354.997,357.996 354.997,358.81 355.883,359.305Z" style="fill:white;
	fill-opacity:0.8;
	fill-rule:nonzero;" />
		<path d="M397.2,333.637L357.954,356.278L412.017,387.505C412.509,387.752 413.051,387.88 413.601,387.88C414.151,387.88 414.694,387.752 415.186,387.505L454.503,364.846L400.422,333.637C399.926,333.372 399.373,333.233 398.811,333.233C398.249,333.233 397.696,333.372 397.2,333.637Z" style="fill:rgb(0, 124, 187);
	fill-rule:nonzero;" />
		<path d="M397.2,333.637L357.954,356.278L412.017,387.505C412.509,387.752 413.051,387.88 413.601,387.88C414.151,387.88 414.694,387.752 415.186,387.505L454.503,364.846L400.422,333.637C399.926,333.372 399.373,333.233 398.811,333.233C398.249,333.233 397.696,333.372 397.2,333.637Z" style="fill:white;
	fill-opacity:0.7;
	fill-rule:nonzero;" />
		<path d="M355.883,353.605L412.017,386.018C412.509,386.265 413.051,386.393 413.601,386.393C414.151,386.393 414.694,386.265 415.186,386.018L456.503,362.173C456.673,362.096 456.816,361.971 456.917,361.814C457.018,361.657 457.071,361.475 457.071,361.288C457.071,361.102 457.018,360.919 456.917,360.762C456.816,360.605 456.673,360.481 456.503,360.403L400.351,327.919C399.862,327.676 399.322,327.549 398.776,327.549C398.229,327.549 397.69,327.676 397.2,327.919L355.883,351.782C355.689,351.843 355.52,351.965 355.399,352.128C355.279,352.292 355.214,352.49 355.214,352.694C355.214,352.897 355.279,353.095 355.399,353.259C355.52,353.423 355.689,353.544 355.883,353.605Z" style="fill:rgb(0, 124, 187);
	fill-rule:nonzero;" />
		<path d="M355.883,353.605L412.017,386.018C412.509,386.265 413.051,386.393 413.601,386.393C414.151,386.393 414.694,386.265 415.186,386.018L456.503,362.173C456.673,362.096 456.816,361.971 456.917,361.814C457.018,361.657 457.071,361.475 457.071,361.288C457.071,361.102 457.018,360.919 456.917,360.762C456.816,360.605 456.673,360.481 456.503,360.403L400.351,327.919C399.862,327.676 399.322,327.549 398.776,327.549C398.229,327.549 397.69,327.676 397.2,327.919L355.883,351.782C355.689,351.843 355.52,351.965 355.399,352.128C355.279,352.292 355.214,352.49 355.214,352.694C355.214,352.897 355.279,353.095 355.399,353.259C355.52,353.423 355.689,353.544 355.883,353.605Z" style="fill:white;
	fill-opacity:0.9;
	fill-rule:nonzero;" />
		<path d="M387.003,319.829C385.145,324.892 387.995,328.981 393.394,328.946C396.231,328.798 398.969,327.854 401.295,326.223C403.621,324.592 405.441,322.34 406.547,319.723C408.423,314.66 405.555,310.571 400.156,310.606C397.319,310.754 394.581,311.698 392.255,313.329C389.929,314.96 388.109,317.212 387.003,319.829Z" style="fill:rgb(0, 124, 187);
	fill-rule:nonzero;" />
		<path d="M387.003,319.829C385.145,324.892 387.995,328.981 393.394,328.946C396.231,328.798 398.969,327.854 401.295,326.223C403.621,324.592 405.441,322.34 406.547,319.723C408.423,314.66 405.555,310.571 400.156,310.606C397.319,310.754 394.581,311.698 392.255,313.329C389.929,314.96 388.109,317.212 387.003,319.829Z" style="fill-opacity:0.1;
	fill-rule:nonzero;" />
		<path d="M391.482,343.851C387.251,355.305 393.73,364.563 405.963,364.492C418.195,364.422 431.49,355.004 435.738,343.604C439.987,332.203 433.472,322.91 421.258,322.963C409.043,323.016 395.695,332.38 391.482,343.851Z" style="fill:rgb(69, 90, 100);
	fill-rule:nonzero;" />
		<path d="M401.396,310.748L386.738,320.98C384.313,330.592 383.587,345.604 392.597,358.527L434.765,329.07C425.666,316.059 411.185,311.704 401.396,310.748Z" style="fill:rgb(69, 90, 100);
	fill-rule:nonzero;" />
		<path d="M405.626,311.438C405.626,311.438 406.936,323.033 398.244,328.291C398.244,328.291 406.423,326.043 408.866,320.289C411.309,314.536 405.626,311.438 405.626,311.438Z" style="fill:rgb(38, 50, 56);
	fill-rule:nonzero;" />
		<path d="M406.706,312.748C403.441,308.21 399.048,304.604 393.961,302.286L388.083,306.464L387.428,306.924L381.533,311.102C382.045,316.647 383.985,321.966 387.163,326.538C387.895,327.47 388.844,328.208 389.927,328.69C391.01,329.171 392.194,329.38 393.376,329.3C396.364,329.137 399.246,328.135 401.691,326.41C404.136,324.685 406.046,322.306 407.202,319.546C407.678,318.45 407.879,317.255 407.787,316.063C407.694,314.872 407.311,313.722 406.671,312.713L406.706,312.748Z" style="fill:rgb(55, 71, 79);
	fill-rule:nonzero;" />
		<path d="M381.728,307.951C381.374,308.663 381.219,309.458 381.281,310.252C381.342,311.045 381.617,311.807 382.076,312.457C382.535,313.106 383.161,313.62 383.889,313.942C384.616,314.265 385.417,314.384 386.207,314.288C388.182,314.184 390.087,313.523 391.703,312.383C393.319,311.243 394.58,309.67 395.341,307.845C395.694,307.134 395.848,306.34 395.788,305.549C395.727,304.758 395.454,303.997 394.997,303.348C394.54,302.699 393.917,302.185 393.192,301.861C392.467,301.537 391.669,301.415 390.88,301.507C388.906,301.623 387.004,302.287 385.387,303.426C383.77,304.564 382.503,306.131 381.728,307.951Z" style="fill:rgb(69, 90, 100);
	fill-rule:nonzero;" />
		<path d="M393.801,322.343C393.065,321.283 392.091,320.411 390.956,319.796C389.822,319.181 388.559,318.841 387.269,318.803C386.779,318.76 386.286,318.861 385.852,319.093C385.419,319.326 385.062,319.68 384.826,320.113L367.442,362.085C367.314,362.492 367.283,362.923 367.351,363.344C367.418,363.765 367.583,364.164 367.832,364.51C368.569,365.573 369.546,366.448 370.684,367.063C371.822,367.678 373.089,368.017 374.382,368.051C374.873,368.096 375.366,367.996 375.8,367.763C376.234,367.53 376.591,367.174 376.825,366.741L394.173,324.91C394.337,324.486 394.39,324.027 394.324,323.578C394.259,323.128 394.079,322.703 393.801,322.343Z" style="fill:rgb(69, 90, 100);
	fill-rule:nonzero;" />
		<path d="M414.495,425.141C414.495,424.545 414.43,423.952 414.301,423.371C412.81,416.58 408.808,410.604 403.095,406.642L379.639,406.642C373.921,410.602 369.912,416.578 368.416,423.371C368.292,423.952 368.232,424.546 368.239,425.141C368.233,425.247 368.233,425.353 368.239,425.459C368.451,428.699 370.682,431.903 374.966,434.311C384.012,439.621 398.652,439.621 407.698,434.311C411.982,431.832 414.212,428.628 414.425,425.459C414.454,425.355 414.478,425.248 414.495,425.141Z" style="fill:rgb(69, 90, 100);
	fill-rule:nonzero;" />
		<path d="M391.358,421.707C400.04,421.707 407.078,417.641 407.078,412.625C407.078,407.61 400.04,403.544 391.358,403.544C382.677,403.544 375.639,407.61 375.639,412.625C375.639,417.641 382.677,421.707 391.358,421.707Z" style="fill:rgb(55, 71, 79);
	fill-rule:nonzero;" />
		<path d="M387.641,410.465C387.189,410.615 386.795,410.904 386.517,411.29C386.238,411.676 386.088,412.14 386.088,412.616C386.088,413.093 386.238,413.557 386.517,413.943C386.795,414.329 387.189,414.617 387.641,414.767C388.796,415.352 390.072,415.657 391.367,415.657C392.662,415.657 393.938,415.352 395.094,414.767C395.546,414.617 395.939,414.329 396.218,413.943C396.496,413.557 396.647,413.093 396.647,412.616C396.647,412.14 396.496,411.676 396.218,411.29C395.939,410.904 395.546,410.615 395.094,410.465C393.938,409.881 392.662,409.576 391.367,409.576C390.072,409.576 388.796,409.881 387.641,410.465Z" style="fill:rgb(69, 90, 100);
	fill-rule:nonzero;" />
		<path d="M366.115,369.431C365.663,369.581 365.269,369.87 364.99,370.256C364.712,370.642 364.562,371.106 364.562,371.582C364.562,372.058 364.712,372.523 364.99,372.909C365.269,373.295 365.663,373.583 366.115,373.733C367.27,374.318 368.546,374.623 369.841,374.623C371.136,374.623 372.412,374.318 373.567,373.733C374.019,373.583 374.413,373.295 374.691,372.909C374.97,372.523 375.12,372.058 375.12,371.582C375.12,371.106 374.97,370.642 374.691,370.256C374.413,369.87 374.019,369.581 373.567,369.431C372.412,368.846 371.136,368.542 369.841,368.542C368.546,368.542 367.27,368.846 366.115,369.431Z" style="fill:rgb(0, 124, 187);
	fill-rule:nonzero;" />
		<path d="M366.115,369.431C365.663,369.581 365.269,369.87 364.99,370.256C364.712,370.642 364.562,371.106 364.562,371.582C364.562,372.058 364.712,372.523 364.99,372.909C365.269,373.295 365.663,373.583 366.115,373.733C367.27,374.318 368.546,374.623 369.841,374.623C371.136,374.623 372.412,374.318 373.567,373.733C374.019,373.583 374.413,373.295 374.691,372.909C374.97,372.523 375.12,372.058 375.12,371.582C375.12,371.106 374.97,370.642 374.691,370.256C374.413,369.87 374.019,369.581 373.567,369.431C372.412,368.846 371.136,368.542 369.841,368.542C368.546,368.542 367.27,368.846 366.115,369.431Z" style="fill-opacity:0.3;
	fill-rule:nonzero;" />
		<path d="M374.913,370.724L396.421,411.758L386.313,413.493L364.769,372.405L374.913,370.724Z" style="fill:rgb(69, 90, 100);
	fill-rule:nonzero;" />
		<path d="M367.318,358.775C366.652,358.611 365.953,358.644 365.306,358.871C364.659,359.097 364.091,359.506 363.672,360.049C362.457,361.416 361.582,363.05 361.118,364.819C360.654,366.587 360.613,368.441 360.999,370.228C361.106,370.815 361.349,371.369 361.708,371.846C362.068,372.322 362.534,372.708 363.07,372.972L371.107,375.981L375.107,361.642L367.318,358.775Z" style="fill:rgb(55, 71, 79);
	fill-rule:nonzero;" />
		<path d="M371.602,363.023C370.383,364.391 369.504,366.028 369.037,367.8C368.569,369.571 368.526,371.428 368.912,373.22C369.797,376.459 372.452,377.15 374.789,374.76C376.007,373.395 376.886,371.762 377.354,369.993C377.822,368.224 377.865,366.37 377.48,364.581C376.612,361.341 373.957,360.651 371.602,363.023Z" style="fill:rgb(38, 50, 56);
	fill-rule:nonzero;" />
		<path d="M331.188,398.587C338.658,390.975 343.031,371.945 335.755,365.908L298.722,365.908C291.446,371.945 295.818,390.957 303.289,398.587L303.484,398.799L303.749,399.047C303.961,399.262 304.186,399.462 304.422,399.649L304.599,399.791L305.165,400.216C305.472,400.441 305.791,400.648 306.121,400.835C309.57,402.581 313.382,403.49 317.247,403.49C321.113,403.49 324.924,402.581 328.373,400.835C328.692,400.658 329.01,400.446 329.347,400.216L329.86,399.809L330.09,399.649L330.728,399.065L331.028,398.764L331.188,398.587Z" style="fill:rgb(0, 124, 187);
	fill-rule:nonzero;" />
		<path d="M331.188,398.587C338.658,390.975 343.031,371.945 335.755,365.908L298.722,365.908C291.446,371.945 295.818,390.957 303.289,398.587L303.484,398.799L303.749,399.047C303.961,399.262 304.186,399.462 304.422,399.649L304.599,399.791L305.165,400.216C305.472,400.441 305.791,400.648 306.121,400.835C309.57,402.581 313.382,403.49 317.247,403.49C321.113,403.49 324.924,402.581 328.373,400.835C328.692,400.658 329.01,400.446 329.347,400.216L329.86,399.809L330.09,399.649L330.728,399.065L331.028,398.764L331.188,398.587Z" style="fill:white;
	fill-opacity:0.7;
	fill-rule:nonzero;" />
		<path d="M317.221,384.815C329.178,384.815 338.871,379.219 338.871,372.317C338.871,365.414 329.178,359.819 317.221,359.819C305.264,359.819 295.571,365.414 295.571,372.317C295.571,379.219 305.264,384.815 317.221,384.815Z" style="fill:rgb(0, 124, 187);
	fill-rule:nonzero;" />
		<path d="M317.221,384.815C329.178,384.815 338.871,379.219 338.871,372.317C338.871,365.414 329.178,359.819 317.221,359.819C305.264,359.819 295.571,365.414 295.571,372.317C295.571,379.219 305.264,384.815 317.221,384.815Z" style="fill:white;
	fill-opacity:0.9;
	fill-rule:nonzero;" />
		<path d="M307.909,366.935C302.775,369.909 302.775,374.724 307.909,377.698C310.8,379.157 313.992,379.916 317.229,379.916C320.467,379.916 323.659,379.157 326.55,377.698C331.683,374.724 331.683,369.909 326.55,366.935C323.662,365.469 320.468,364.705 317.229,364.705C313.99,364.705 310.797,365.469 307.909,366.935Z" style="fill:rgb(0, 124, 187);
	fill-rule:nonzero;" />
		<path d="M307.909,366.935C302.775,369.909 302.775,374.724 307.909,377.698C310.8,379.157 313.992,379.916 317.229,379.916C320.467,379.916 323.659,379.157 326.55,377.698C331.683,374.724 331.683,369.909 326.55,366.935C323.662,365.469 320.468,364.705 317.229,364.705C313.99,364.705 310.797,365.469 307.909,366.935Z" style="fill:white;
	fill-opacity:0.7;
	fill-rule:nonzero;" />
		<path d="M326.55,372.034C323.659,370.575 320.467,369.816 317.23,369.816C313.992,369.816 310.8,370.575 307.909,372.034C306.671,372.718 305.615,373.689 304.829,374.866C305.615,376.043 306.671,377.014 307.909,377.698C310.8,379.157 313.992,379.916 317.23,379.916C320.467,379.916 323.659,379.157 326.55,377.698C327.788,377.014 328.844,376.043 329.63,374.866C328.844,373.689 327.788,372.718 326.55,372.034Z" style="fill:rgb(0, 124, 187);
	fill-rule:nonzero;" />
		<path d="M326.55,372.034C323.659,370.575 320.467,369.816 317.23,369.816C313.992,369.816 310.8,370.575 307.909,372.034C306.671,372.718 305.615,373.689 304.829,374.866C305.615,376.043 306.671,377.014 307.909,377.698C310.8,379.157 313.992,379.916 317.23,379.916C320.467,379.916 323.659,379.157 326.55,377.698C327.788,377.014 328.844,376.043 329.63,374.866C328.844,373.689 327.788,372.718 326.55,372.034Z" style="fill-opacity:0.3;
	fill-rule:nonzero;" />
		<path d="M320.584,376.034C325.949,372.683 329.999,367.589 332.055,361.607C335.472,351.623 333.454,339.55 330.391,334.558C326.249,327.795 316.229,328.557 319.186,339.868C322.142,351.18 323.983,363.413 319.292,371.591L320.584,376.034Z" style="fill:rgb(55, 71, 79);
	fill-rule:nonzero;" />
		<path d="M320.938,373.981C320.829,373.981 320.722,373.944 320.637,373.875C320.594,373.832 320.559,373.781 320.536,373.725C320.512,373.668 320.5,373.608 320.5,373.547C320.5,373.486 320.512,373.426 320.536,373.37C320.559,373.313 320.594,373.262 320.637,373.22C323.63,369.91 325.921,366.028 327.369,361.807C328.818,357.587 329.394,353.116 329.063,348.666C328.55,340.47 325.523,334.505 324.372,333.602C324.289,333.513 324.242,333.396 324.242,333.274C324.242,333.153 324.289,333.035 324.372,332.947C324.458,332.864 324.572,332.819 324.691,332.819C324.81,332.819 324.924,332.864 325.01,332.947C326.532,334.257 329.506,340.63 330.002,348.631C330.344,353.206 329.753,357.802 328.265,362.142C326.777,366.481 324.423,370.473 321.345,373.875C321.292,373.926 321.227,373.963 321.156,373.982C321.084,374 321.009,374 320.938,373.981Z" style="fill:white;
	fill-rule:nonzero;" />
		<path d="M311.945,376.034C311.659,375.048 311.032,374.194 310.175,373.627C309.117,373.037 308.002,372.557 306.847,372.193C304.847,371.467 302.297,370.423 302.032,368.015C301.969,367.153 302.078,366.286 302.351,365.466C302.844,364.354 302.962,363.111 302.687,361.926C302.244,360.863 301.111,360.297 300.138,359.66C299.064,359.025 298.15,358.153 297.465,357.111C296.887,356.184 296.609,355.103 296.668,354.013C296.863,351.782 299.005,350.313 299.076,348.1C299.164,344.86 291.588,340.47 295.624,337.479C300.793,333.566 308.883,338.098 311.202,341.426C313.521,344.754 313.521,346.241 317.752,349.056C321.292,351.393 325.399,351.871 325.399,356.473C325.399,361.076 319.504,361.288 324.142,366.51C326.939,369.644 322.372,372.352 320.602,376.07C317.716,376.034 314.795,375.893 311.945,376.034Z" style="fill:rgb(69, 90, 100);
	fill-rule:nonzero;" />
		<path d="M316.619,376.441C316.558,376.439 316.499,376.425 316.444,376.4C316.389,376.375 316.339,376.339 316.298,376.294C316.257,376.25 316.225,376.198 316.204,376.141C316.183,376.084 316.174,376.024 316.176,375.964C317.203,349.215 303.59,339.833 300.864,339.089C300.752,339.052 300.659,338.972 300.605,338.868C300.55,338.764 300.537,338.643 300.568,338.53C300.6,338.416 300.674,338.319 300.775,338.259C300.876,338.198 300.997,338.179 301.111,338.204C305.714,339.461 318.053,350.755 317.044,375.999C317.04,376.112 316.994,376.22 316.916,376.301C316.837,376.383 316.732,376.433 316.619,376.441Z" style="fill:white;
	fill-rule:nonzero;" />
		<path d="M314.459,357.429C314.35,357.429 314.243,357.392 314.158,357.323C310.211,353.783 302.492,353.924 302.404,353.924C302.285,353.924 302.17,353.878 302.084,353.796C301.999,353.713 301.948,353.601 301.944,353.482C301.943,353.361 301.989,353.244 302.071,353.156C302.153,353.067 302.266,353.013 302.386,353.004C302.723,353.004 310.547,352.915 314.778,356.544C314.845,356.606 314.891,356.687 314.912,356.776C314.933,356.865 314.927,356.958 314.894,357.043C314.862,357.129 314.805,357.203 314.731,357.255C314.657,357.308 314.568,357.338 314.477,357.341L314.459,357.429Z" style="fill:white;
	fill-rule:nonzero;" />
		<path d="M628.977,283.946L635.634,203.153C635.703,201.845 635.433,200.542 634.85,199.369C634.266,198.197 633.39,197.195 632.305,196.461C631.106,195.881 629.788,195.592 628.456,195.616C627.124,195.641 625.817,195.979 624.64,196.603L536.128,247.692C534.958,248.45 533.965,249.451 533.217,250.627C532.468,251.803 531.982,253.126 531.791,254.507L525.135,335.301C525.066,336.609 525.336,337.912 525.919,339.084C526.502,340.257 527.379,341.259 528.463,341.993C529.662,342.573 530.981,342.862 532.313,342.837C533.644,342.813 534.952,342.475 536.128,341.851L624.64,290.762C625.809,290.002 626.801,289.001 627.549,287.825C628.297,286.649 628.784,285.327 628.977,283.946Z" style="fill:rgb(0, 124, 187);
	fill-rule:nonzero;" />
		<path d="M628.977,283.946L635.634,203.153C635.703,201.845 635.433,200.542 634.85,199.369C634.266,198.197 633.39,197.195 632.305,196.461C631.106,195.881 629.788,195.592 628.456,195.616C627.124,195.641 625.817,195.979 624.64,196.603L536.128,247.692C534.958,248.45 533.965,249.451 533.217,250.627C532.468,251.803 531.982,253.126 531.791,254.507L525.135,335.301C525.066,336.609 525.336,337.912 525.919,339.084C526.502,340.257 527.379,341.259 528.463,341.993C529.662,342.573 530.981,342.862 532.313,342.837C533.644,342.813 534.952,342.475 536.128,341.851L624.64,290.762C625.809,290.002 626.801,289.001 627.549,287.825C628.297,286.649 628.784,285.327 628.977,283.946Z" style="fill:white;
	fill-opacity:0.8;
	fill-rule:nonzero;" />
		<path d="M628.977,283.946L635.634,203.153C635.703,201.845 635.433,200.542 634.85,199.369C634.266,198.197 633.39,197.195 632.306,196.461C631.107,195.881 629.788,195.592 628.456,195.616C627.124,195.641 625.817,195.979 624.64,196.603L536.128,247.692C534.953,248.421 533.965,249.415 533.243,250.595L546.998,258.526L546.998,335.531L624.587,290.726C625.763,289.978 626.764,288.985 627.522,287.815C628.279,286.645 628.776,285.326 628.977,283.946Z" style="fill:rgb(0, 124, 187);
	fill-rule:nonzero;" />
		<path d="M628.977,283.946L635.634,203.153C635.703,201.845 635.433,200.542 634.85,199.369C634.266,198.197 633.39,197.195 632.306,196.461C631.107,195.881 629.788,195.592 628.456,195.616C627.124,195.641 625.817,195.979 624.64,196.603L536.128,247.692C534.953,248.421 533.965,249.415 533.243,250.595L546.998,258.526L546.998,335.531L624.587,290.726C625.763,289.978 626.764,288.985 627.522,287.815C628.279,286.645 628.776,285.326 628.977,283.946Z" style="fill:white;
	fill-opacity:0.9;
	fill-rule:nonzero;" />
		<path d="M532.606,339.585L539.262,258.791C539.455,257.411 539.94,256.087 540.685,254.909C541.429,253.731 542.417,252.725 543.581,251.958L632.093,200.887C634.288,199.63 635.881,200.639 635.634,203.153L628.978,283.946C628.787,285.325 628.302,286.647 627.557,287.823C626.812,288.998 625.823,290.001 624.658,290.762L536.146,341.851C533.986,343.108 532.393,342.099 532.606,339.585Z" style="fill:rgb(0, 124, 187);
	fill-rule:nonzero;" />
		<path d="M532.606,339.585L539.262,258.791C539.455,257.411 539.94,256.087 540.685,254.909C541.429,253.731 542.417,252.725 543.581,251.958L632.093,200.887C634.288,199.63 635.881,200.639 635.634,203.153L628.978,283.946C628.787,285.325 628.302,286.647 627.557,287.823C626.812,288.998 625.823,290.001 624.658,290.762L536.146,341.851C533.986,343.108 532.393,342.099 532.606,339.585Z" style="fill:white;
	fill-opacity:0.7;
	fill-rule:nonzero;" />
		<path d="M578.26,274.759C578.501,272.587 579.203,270.492 580.321,268.614C581.438,266.736 582.945,265.119 584.739,263.872C587.979,261.996 590.315,263.872 590.05,267.979C589.807,270.15 589.103,272.245 587.986,274.122C586.869,276 585.363,277.617 583.571,278.866C580.19,280.654 577.924,278.884 578.26,274.759Z" style="fill:rgb(0, 124, 187);
	fill-rule:nonzero;" />
		<path d="M578.26,274.759C578.501,272.587 579.203,270.492 580.321,268.614C581.438,266.736 582.945,265.119 584.739,263.872C587.979,261.996 590.315,263.872 590.05,267.979C589.807,270.15 589.103,272.245 587.986,274.122C586.869,276 585.363,277.617 583.571,278.866C580.19,280.654 577.924,278.884 578.26,274.759Z" style="fill:white;
	fill-opacity:0.4;
	fill-rule:nonzero;" />
		<path d="M576.702,301.33L606.354,284.212L602.654,282.07L573.003,299.188L576.702,301.33Z" style="fill:rgb(0, 124, 187);
	fill-rule:nonzero;" />
		<path d="M576.702,301.33L606.354,284.212L602.654,282.07L573.003,299.188L576.702,301.33Z" style="fill:white;
	fill-opacity:0.9;
	fill-rule:nonzero;" />
		<path d="M612.178,323.635L585.624,338.93C585.082,339.222 584.469,339.357 583.854,339.32C583.355,339.298 582.867,339.171 582.42,338.948L570.754,332.221C570.311,331.915 569.944,331.512 569.68,331.043C569.416,330.573 569.263,330.05 569.232,329.512L569.232,328.893C569.232,327.884 569.94,327.459 570.807,327.972L577.888,332.026L579.464,332.947L579.11,331.176L572.985,299.312L576.685,301.454L606.354,284.194L613.435,320.909C613.517,321.437 613.442,321.977 613.219,322.462C612.995,322.947 612.633,323.355 612.178,323.635Z" style="fill:rgb(0, 124, 187);
	fill-rule:nonzero;" />
		<path d="M612.178,323.635L585.624,338.93C585.082,339.222 584.469,339.357 583.854,339.32C583.355,339.298 582.867,339.171 582.42,338.948L570.754,332.221C570.311,331.915 569.944,331.512 569.68,331.043C569.416,330.573 569.263,330.05 569.232,329.512L569.232,328.893C569.232,327.884 569.94,327.459 570.807,327.972L577.888,332.026L579.464,332.947L579.11,331.176L572.985,299.312L576.685,301.454L606.354,284.194L613.435,320.909C613.517,321.437 613.442,321.977 613.219,322.462C612.995,322.947 612.633,323.355 612.178,323.635Z" style="fill:white;
	fill-opacity:0.7;
	fill-rule:nonzero;" />
		<path d="M569.781,327.795L578.809,322.573L580.65,334.735L569.781,327.795Z" style="fill:rgb(0, 124, 187);
	fill-rule:nonzero;" />
		<path d="M569.781,327.795L578.809,322.573L580.65,334.735L569.781,327.795Z" style="fill:white;
	fill-opacity:0.7;
	fill-rule:nonzero;" />
		<path d="M576.649,301.33L572.949,299.188L579.074,331.053C579.287,332.026 578.72,332.433 577.853,331.92L570.772,327.866C569.905,327.353 569.197,327.866 569.197,328.787L569.197,329.406C569.228,329.944 569.381,330.467 569.645,330.936C569.909,331.406 570.276,331.809 570.719,332.115L582.385,338.842C582.831,339.065 583.32,339.192 583.819,339.213L576.649,301.33Z" style="fill:rgb(0, 124, 187);
	fill-rule:nonzero;" />
		<path d="M576.649,301.33L572.949,299.188L579.074,331.053C579.287,332.026 578.72,332.433 577.853,331.92L570.772,327.866C569.905,327.353 569.197,327.866 569.197,328.787L569.197,329.406C569.228,329.944 569.381,330.467 569.645,330.936C569.909,331.406 570.276,331.809 570.719,332.115L582.385,338.842C582.831,339.065 583.32,339.192 583.819,339.213L576.649,301.33Z" style="fill:white;
	fill-opacity:0.8;
	fill-rule:nonzero;" />
		<path d="M481.056,344.135C486.491,343.727 488.243,341.727 489.129,339.32C490.014,336.912 490.332,334.274 488.226,328.698C486.119,323.122 474.064,315.811 461.548,318.484C449.033,321.157 447.298,330.716 447.971,333.283C448.643,335.85 456.167,342.364 465.921,343.48C470.938,344.135 476.002,344.354 481.056,344.135Z" style="fill:rgb(0, 124, 187);
	fill-rule:nonzero;" />
		<path d="M481.056,344.135C486.491,343.727 488.243,341.727 489.129,339.32C490.014,336.912 490.332,334.274 488.226,328.698C486.119,323.122 474.064,315.811 461.548,318.484C449.033,321.157 447.298,330.716 447.971,333.283C448.643,335.85 456.167,342.364 465.921,343.48C470.938,344.135 476.002,344.354 481.056,344.135Z" style="fill:white;
	fill-opacity:0.7;
	fill-rule:nonzero;" />
		<path d="M474.701,326.68C475.42,326.113 476.308,325.804 477.224,325.804C478.139,325.804 479.028,326.113 479.746,326.68C481.402,327.618 482.726,329.047 483.535,330.769C484.083,332.203 483.818,333.478 483.198,333.478C482.579,333.478 482.119,332.168 479.746,330.185C477.374,328.202 474.17,327.424 474.701,326.68Z" style="fill:rgb(0, 124, 187);
	fill-rule:nonzero;" />
		<path d="M474.701,326.68C475.42,326.113 476.308,325.804 477.224,325.804C478.139,325.804 479.028,326.113 479.746,326.68C481.402,327.618 482.726,329.047 483.535,330.769C484.083,332.203 483.818,333.478 483.198,333.478C482.579,333.478 482.119,332.168 479.746,330.185C477.374,328.202 474.17,327.424 474.701,326.68Z" style="fill:white;
	fill-opacity:0.9;
	fill-rule:nonzero;" />
		<path d="M398.244,193.239C392.403,197.169 385.481,201.825 386.437,217.155C387.393,232.485 398.829,274.777 399.607,279.928C400.386,285.079 431.472,310.022 437.19,314.943C443.757,320.661 446.236,321.865 449.21,325.14C452.184,328.415 454.981,336.77 458.061,340.399C462.894,346.011 473.303,346.135 478.1,345.48C482.897,344.825 479.87,339.001 478.1,334.858C476.33,330.716 471.585,325.069 472.931,324.095C473.851,323.44 478.861,324.326 482.738,327.636C485.73,330.185 486.084,332.681 487.765,333.849C490.58,335.832 491.518,332.327 488.615,326.768C485.712,321.21 481.286,317.227 476.914,315.846C478.843,315.998 480.774,315.566 482.455,314.607C484.862,313.12 485.712,309.756 482.738,310.642C480.968,311.155 479.197,310.642 475.657,310.642C464.54,310.642 461.194,314.678 448.324,302.251C435.455,289.824 418.23,272.918 418.23,272.918C418.23,272.918 412.442,237.69 409.839,222.094C407.627,208.658 406.706,199.86 398.244,193.239Z" style="fill:rgb(255, 189, 167);
	fill-rule:nonzero;" />
		<path d="M501.573,227.883L523.542,181.361L535.934,186.477C535.934,186.477 517.718,241.602 515.098,247.586C513.558,251.126 508.619,255.428 501.467,251.941C499.909,251.179 496.811,249.356 492.97,246.966" style="fill:rgb(255, 189, 167);
	fill-rule:nonzero;" />
		<path d="M531.278,200.338C532.8,195.789 537.633,190.938 538.359,189.009C539.004,187.485 539.218,185.813 538.979,184.176L533.332,184.742L531.278,200.338Z" style="fill:rgb(255, 189, 167);
	fill-rule:nonzero;" />
		<path d="M519.63,189.487C520.55,187.38 520.71,179.998 519.63,175.749C518.55,171.501 521.152,166.19 520.497,163.198C519.842,160.207 521.754,159.304 523.489,160.384C524.552,161.058 525.431,161.985 526.049,163.081C526.666,164.178 527.003,165.41 527.029,166.668C527.118,169.766 527.313,177.644 526.056,181.485C524.799,185.326 519.63,189.487 519.63,189.487Z" style="fill:rgb(255, 189, 167);
	fill-rule:nonzero;" />
		<path d="M522.551,182.246C522.887,183.202 524.162,184.53 528.286,183.822L535.881,186.477L538.979,186.3C537.323,187.471 535.296,187.999 533.279,187.784C531.262,187.569 529.393,186.626 528.021,185.132C528.021,185.132 522.445,185.822 522.551,182.246Z" style="fill:rgb(242, 143, 143);
	fill-rule:nonzero;" />
		<path d="M543.794,179.131C539.032,182.848 539.704,187.681 545.316,189.947C548.427,191.015 551.746,191.335 555.003,190.88C558.26,190.425 561.365,189.207 564.063,187.327C568.825,183.609 568.135,178.759 562.541,176.493C559.428,175.431 556.109,175.116 552.852,175.575C549.596,176.033 546.492,177.251 543.794,179.131Z" style="fill:rgb(0, 124, 187);
	fill-rule:nonzero;" />
		<path d="M543.794,179.131C539.032,182.848 539.704,187.681 545.316,189.947C548.427,191.015 551.746,191.335 555.003,190.88C558.26,190.425 561.365,189.207 564.063,187.327C568.825,183.609 568.135,178.759 562.541,176.493C559.428,175.431 556.109,175.116 552.852,175.575C549.596,176.033 546.492,177.251 543.794,179.131Z" style="fill:white;
	fill-opacity:0.7;
	fill-rule:nonzero;" />
		<path d="M567.373,151.993L549.901,154.436L532.393,156.879C532.783,168.208 536.624,180.901 541.634,187.362L566.842,183.822C569.905,176.21 570.099,162.986 567.373,151.993Z" style="fill:rgb(0, 124, 187);
	fill-rule:nonzero;" />
		<path d="M567.373,151.993L549.901,154.436L532.393,156.879C532.783,168.208 536.624,180.901 541.634,187.362L566.842,183.822C569.905,176.21 570.099,162.986 567.373,151.993Z" style="fill:white;
	fill-opacity:0.7;
	fill-rule:nonzero;" />
		<path d="M536.89,151.586C530.482,155.498 531.154,160.313 538.395,162.313C546.812,164.156 555.613,162.899 563.178,158.773C569.586,154.843 568.913,150.046 561.673,148.027C553.253,146.191 544.453,147.455 536.89,151.586Z" style="fill:rgb(0, 124, 187);
	fill-rule:nonzero;" />
		<path d="M536.89,151.586C530.482,155.498 531.154,160.313 538.395,162.313C546.812,164.156 555.613,162.899 563.178,158.773C569.586,154.843 568.913,150.046 561.673,148.027C553.253,146.191 544.453,147.455 536.89,151.586Z" style="fill:white;
	fill-opacity:0.9;
	fill-rule:nonzero;" />
		<path d="M539.474,153.197C534.163,155.905 534.677,159.038 540.448,160.278C547.228,161.304 554.161,160.332 560.398,157.481C565.621,154.772 565.196,151.639 559.407,150.4C552.632,149.375 545.705,150.346 539.474,153.197Z" style="fill:rgb(0, 124, 187);
	fill-rule:nonzero;" />
		<path d="M539.474,153.197C534.163,155.905 534.677,159.038 540.448,160.278C547.228,161.304 554.161,160.332 560.398,157.481C565.621,154.772 565.196,151.639 559.407,150.4C552.632,149.375 545.705,150.346 539.474,153.197Z" style="fill:white;
	fill-opacity:0.4;
	fill-rule:nonzero;" />
		<path d="M540.129,157.339C539.191,157.8 538.326,158.396 537.562,159.109C538.493,159.586 539.489,159.92 540.519,160.101C547.299,161.127 554.232,160.155 560.469,157.304C561.411,156.85 562.277,156.253 563.036,155.533C562.106,155.057 561.109,154.723 560.08,154.542C553.299,153.516 546.366,154.487 540.129,157.339Z" style="fill:rgb(0, 124, 187);
	fill-rule:nonzero;" />
		<path d="M540.129,157.339C539.191,157.8 538.326,158.396 537.562,159.109C538.493,159.586 539.489,159.92 540.519,160.101C547.299,161.127 554.232,160.155 560.469,157.304C561.411,156.85 562.277,156.253 563.036,155.533C562.106,155.057 561.109,154.723 560.08,154.542C553.299,153.516 546.366,154.487 540.129,157.339Z" style="fill-opacity:0.3;
	fill-rule:nonzero;" />
		<path d="M536.412,186.831C534.943,187.049 533.445,186.977 532.004,186.619C530.021,186.088 528.145,184.176 526.286,180.759C524.728,177.891 522.055,171.519 523.188,167.996C524.64,163.517 529.827,162.88 533.278,162.455L534.465,162.296L535.226,167.73L533.951,167.89C532.004,168.12 528.764,168.527 528.393,169.66C527.897,171.855 531.614,180.405 533.509,181.343C535.217,181.581 536.957,181.297 538.501,180.529L540.979,185.415C539.54,186.123 537.999,186.601 536.412,186.831Z" style="fill:rgb(0, 124, 187);
	fill-rule:nonzero;" />
		<path d="M536.412,186.831C534.943,187.049 533.445,186.977 532.004,186.619C530.021,186.088 528.145,184.176 526.286,180.759C524.728,177.891 522.055,171.519 523.188,167.996C524.64,163.517 529.827,162.88 533.278,162.455L534.465,162.296L535.226,167.73L533.951,167.89C532.004,168.12 528.764,168.527 528.393,169.66C527.897,171.855 531.614,180.405 533.509,181.343C535.217,181.581 536.957,181.297 538.501,180.529L540.979,185.415C539.54,186.123 537.999,186.601 536.412,186.831Z" style="fill:white;
	fill-opacity:0.7;
	fill-rule:nonzero;" />
		<path d="M529.915,169.677C526.534,169.677 516.603,173.625 516.39,177.201C516.178,180.777 522.923,180.511 522.923,180.511C522.604,181.043 522.483,181.669 522.58,182.281C522.677,182.892 522.986,183.451 523.454,183.857C525.135,185.309 537.881,180.883 537.881,180.883C537.436,179.422 536.761,178.042 535.881,176.794C535.246,175.987 534.316,175.465 533.296,175.342C533.296,175.342 534.943,169.677 529.915,169.677Z" style="fill:rgb(255, 189, 167);
	fill-rule:nonzero;" />
		<path d="M276.965,344.011L262.13,335.46L276.965,331.176L276.965,344.011Z" style="fill:rgb(224, 224, 224);
	fill-rule:nonzero;" />
		<g opacity="0.5">
			<path d="M276.965,331.176L276.965,344.011L262.13,335.46" style="fill:rgb(224, 224, 224);
	fill-rule:nonzero;" />
		</g>
		<path d="M187.993,382.549L187.993,396.179L106.456,349.109L106.456,335.46L187.993,382.549Z" style="fill:rgb(224, 224, 224);
	fill-rule:nonzero;" />
		<g opacity="0.5">
			<path d="M187.993,382.549L187.993,396.179L106.456,349.109L106.456,335.46L187.993,382.549Z" style="fill:rgb(224, 224, 224);
	fill-rule:nonzero;" />
		</g>
		<path d="M99.038,228.449L180.593,275.538L180.593,386.815L99.038,339.744L99.038,228.449Z" style="fill:rgb(224, 224, 224);
	fill-rule:nonzero;" />
		<path d="M180.593,275.538L291.782,211.331L291.782,322.608L180.593,386.815L180.593,275.538Z" style="fill:rgb(235, 235, 235);
	fill-rule:nonzero;" />
		<path d="M291.782,211.331L210.245,164.243L99.038,228.449L180.593,275.538L291.782,211.331Z" style="fill:rgb(245, 245, 245);
	fill-rule:nonzero;" />
		<path d="M187.993,279.822L284.382,224.165L284.382,249.851L187.993,305.49L187.993,279.822Z" style="fill:rgb(224, 224, 224);
	fill-rule:nonzero;" />
		<g opacity="0.5">
			<path d="M225.062,260.544C225.062,261.73 228.602,260.65 232.975,258.136L246.818,250.135C251.191,247.621 254.713,244.612 254.713,243.425L254.713,241.283L225.044,258.419L225.062,260.544Z" style="fill:rgb(224, 224, 224);
	fill-rule:nonzero;" />
		</g>
		<path d="M187.993,314.058L284.382,258.419L284.382,284.088L187.993,339.744L187.993,314.058Z" style="fill:rgb(224, 224, 224);
	fill-rule:nonzero;" />
		<g opacity="0.5">
			<path d="M225.062,294.816C225.062,296.002 228.602,294.816 232.975,292.39L246.818,284.389C251.191,281.875 254.713,278.866 254.713,277.697L254.713,275.555L225.044,292.674L225.062,294.816Z" style="fill:rgb(224, 224, 224);
	fill-rule:nonzero;" />
		</g>
		<path d="M187.993,348.294L284.382,292.656L284.382,318.342L187.993,373.981L187.993,348.294Z" style="fill:rgb(224, 224, 224);
	fill-rule:nonzero;" />
		<g opacity="0.5">
			<path d="M225.062,329.034C225.062,330.22 228.602,329.141 232.975,326.609L246.818,318.625C251.191,316.094 254.713,313.102 254.713,311.916L254.713,309.774L225.044,326.892L225.062,329.034Z" style="fill:rgb(224, 224, 224);
	fill-rule:nonzero;" />
		</g>
		<path d="M187.993,396.179L195.41,391.913L195.41,378.265L187.993,382.549L187.993,396.179Z" style="fill:rgb(224, 224, 224);
	fill-rule:nonzero;" />
		<path d="M276.965,344.011L284.383,339.744L284.383,326.892L276.965,331.176L276.965,344.011Z" style="fill:rgb(224, 224, 224);
	fill-rule:nonzero;" />
		<path d="M146.711,233.087C154.181,225.457 158.572,206.534 151.278,200.391L114.227,200.391C106.951,206.445 111.324,225.457 118.794,233.069L118.989,233.282L119.255,233.53C119.466,233.744 119.691,233.945 119.927,234.132L120.104,234.273L120.671,234.698C120.977,234.923 121.296,235.13 121.627,235.318C125.076,237.063 128.887,237.972 132.753,237.972C136.618,237.972 140.43,237.063 143.879,235.318C144.215,235.13 144.54,234.923 144.852,234.698L145.366,234.309L145.596,234.132L146.251,233.547L146.711,233.087Z" style="fill:rgb(235, 235, 235);
	fill-rule:nonzero;" />
		<path d="M117.449,197.966C108.987,202.852 108.987,210.765 117.449,215.668C125.911,220.572 139.612,220.554 148.056,215.668C156.5,210.782 156.518,202.887 148.056,197.966C139.595,193.045 125.893,193.08 117.449,197.966Z" style="fill:rgb(245, 245, 245);
	fill-rule:nonzero;" />
		<path d="M123.468,201.418C118.334,204.392 118.334,209.207 123.468,212.181C126.356,213.647 129.549,214.411 132.788,214.411C136.027,214.411 139.22,213.647 142.108,212.181C147.242,209.207 147.242,204.392 142.108,201.418C139.218,199.96 136.025,199.2 132.788,199.2C129.551,199.2 126.358,199.96 123.468,201.418Z" style="fill:rgb(224, 224, 224);
	fill-rule:nonzero;" />
		<path d="M142.073,206.534C139.185,205.067 135.992,204.303 132.753,204.303C129.514,204.303 126.32,205.067 123.432,206.534C122.19,207.204 121.132,208.171 120.352,209.348C121.131,210.531 122.189,211.504 123.432,212.181C126.32,213.647 129.514,214.411 132.753,214.411C135.992,214.411 139.185,213.647 142.073,212.181C143.317,211.504 144.375,210.531 145.153,209.348C144.373,208.171 143.315,207.204 142.073,206.534Z" style="fill:rgb(224, 224, 224);
	fill-rule:nonzero;" />
		<g opacity="0.5">
			<path d="M142.073,206.534C139.185,205.067 135.992,204.303 132.753,204.303C129.514,204.303 126.32,205.067 123.432,206.534C122.19,207.204 121.132,208.171 120.352,209.348C121.131,210.531 122.189,211.504 123.432,212.181C126.32,213.647 129.514,214.411 132.753,214.411C135.992,214.411 139.185,213.647 142.073,212.181C143.317,211.504 144.375,210.531 145.153,209.348C144.373,208.171 143.315,207.204 142.073,206.534Z" style="fill:rgb(224, 224, 224);
	fill-rule:nonzero;" />
		</g>
		<path d="M124.583,209.348C121.946,206.676 119.678,203.664 117.838,200.391C114.723,194.903 114.156,187.521 115.767,186.619C117.378,185.716 123.91,193.062 123.91,193.062C123.315,189.966 123.083,186.812 123.22,183.662C123.503,178.759 124.689,174.315 126.105,173.413C127.522,172.51 130.637,178.723 131.983,183.184C133.328,187.645 134.089,191.345 134.089,191.345C134.631,187.849 135.436,184.399 136.497,181.025C138.125,176.387 139.612,175.324 140.763,175.714C141.914,176.103 142.675,178.352 143.011,184.565C143.128,187.518 143.034,190.476 142.728,193.416C142.728,193.416 145.047,190.867 147.596,188.406C150.411,185.698 151.614,185.326 152.429,185.84C153.243,186.353 153.456,190.566 149.101,198.444C146.93,202.457 144.153,206.111 140.869,209.278C140.869,209.278 134.886,213.243 124.583,209.348Z" style="fill:rgb(235, 235, 235);
	fill-rule:nonzero;" />
		<path d="M221.433,242.257L265.689,216.589C266.556,216.093 266.556,215.279 265.689,214.819L204.899,180.193C204.407,179.946 203.865,179.818 203.314,179.818C202.764,179.818 202.222,179.946 201.73,180.193L157.864,205.56C156.996,206.074 156.996,206.888 157.864,207.33L218.264,242.204C218.752,242.459 219.292,242.596 219.842,242.605C220.392,242.614 220.937,242.495 221.433,242.257Z" style="fill:rgb(224, 224, 224);
	fill-rule:nonzero;" />
		<g opacity="0.5">
			<path d="M221.433,242.257L265.689,216.589C266.556,216.093 266.556,215.279 265.689,214.819L204.899,180.193C204.407,179.946 203.865,179.818 203.314,179.818C202.764,179.818 202.222,179.946 201.73,180.193L157.864,205.56C156.996,206.074 156.996,206.888 157.864,207.33L218.264,242.204C218.752,242.459 219.292,242.596 219.842,242.605C220.392,242.614 220.937,242.495 221.433,242.257Z" style="fill:rgb(224, 224, 224);
	fill-rule:nonzero;" />
		</g>
		<path d="M157.828,205.507L207.713,173.784C208.197,173.531 208.734,173.399 209.28,173.399C209.826,173.399 210.363,173.531 210.847,173.784L228.815,184.158C229.235,184.413 229.545,184.816 229.682,185.288C229.82,185.76 229.776,186.266 229.558,186.707L228.832,188.123C228.615,188.564 228.571,189.07 228.708,189.542C228.846,190.014 229.156,190.417 229.576,190.672L265.777,211.614C265.969,211.69 266.134,211.821 266.251,211.992C266.367,212.162 266.429,212.364 266.429,212.57C266.429,212.777 266.367,212.978 266.251,213.149C266.134,213.319 265.969,213.451 265.777,213.526L221.344,242.133C220.867,242.395 220.331,242.532 219.786,242.532C219.242,242.532 218.706,242.395 218.229,242.133L157.828,207.259C157.674,207.171 157.545,207.044 157.456,206.89C157.366,206.736 157.319,206.561 157.319,206.383C157.319,206.205 157.366,206.031 157.456,205.877C157.545,205.723 157.674,205.595 157.828,205.507Z" style="fill:rgb(235, 235, 235);
	fill-rule:nonzero;" />
		<path d="M784.935,280.795C797.787,267.678 805.346,214.287 792.795,203.878L729.067,203.878C716.516,214.27 724.074,267.607 736.926,280.778L737.263,281.132L737.705,281.574C738.077,281.928 738.467,282.265 738.874,282.601L739.175,282.849C739.493,283.097 739.812,283.344 740.148,283.575C740.68,283.964 741.236,284.319 741.812,284.637C752.434,290.744 769.534,290.744 780.12,284.637C780.697,284.319 781.253,283.964 781.784,283.575L782.687,282.884L783.077,282.583C783.466,282.265 783.838,281.928 784.192,281.592L784.705,281.096L784.935,280.795Z" style="fill:rgb(55, 71, 79);
	fill-rule:nonzero;" />
		<path d="M734.537,199.683C719.968,208.092 719.968,221.722 734.537,230.131C749.106,238.54 772.703,238.522 787.254,230.131C801.806,221.74 801.806,208.092 787.254,199.683C772.703,191.274 749.088,191.274 734.537,199.683Z" style="fill:rgb(69, 90, 100);
	fill-rule:nonzero;" />
		<path d="M741.529,203.719C730.908,209.897 730.908,219.899 741.529,226.077C752.151,232.255 769.57,232.255 780.244,226.077C790.919,219.899 790.866,209.897 780.244,203.719C769.623,197.541 752.222,197.559 741.529,203.719Z" style="fill:rgb(55, 71, 79);
	fill-rule:nonzero;" />
		<path d="M780.227,214.341C769.605,208.162 752.204,208.162 741.512,214.341C738.928,215.74 736.728,217.752 735.103,220.2C736.727,222.654 738.927,224.672 741.512,226.077C752.133,232.255 769.534,232.255 780.227,226.077C782.818,224.682 785.021,222.662 786.635,220.2C785.018,217.745 782.816,215.731 780.227,214.341Z" style="fill:rgb(224, 224, 224);
	fill-rule:nonzero;" />
		<g>
			<path d="M780.227,214.341C769.605,208.162 752.204,208.162 741.512,214.341C738.928,215.74 736.728,217.752 735.103,220.2C736.727,222.654 738.927,224.672 741.512,226.077C752.133,232.255 769.534,232.255 780.227,226.077C782.818,224.682 785.021,222.662 786.635,220.2C785.018,217.745 782.816,215.731 780.227,214.341Z" style="fill:rgb(38, 50, 56);
	fill-rule:nonzero;" />
		</g>
		<path d="M772.827,220.236C775.925,210.853 780.244,193.682 796.3,180.812C812.764,167.571 828.997,157.091 823.403,148.399C818.305,140.504 802.974,139.336 785.449,152.86C768.437,165.96 760.754,196.019 762.259,215.952L772.827,220.236Z" style="fill:rgb(0, 124, 187);
	fill-rule:nonzero;" />
		<path d="M772.827,220.236C775.925,210.853 780.244,193.682 796.3,180.812C812.764,167.571 828.997,157.091 823.403,148.399C818.305,140.504 802.974,139.336 785.449,152.86C768.437,165.96 760.754,196.019 762.259,215.952L772.827,220.236Z" style="fill-opacity:0.1;
	fill-rule:nonzero;" />
		<path d="M765.003,217.987L764.879,217.987C764.76,217.974 764.646,217.937 764.542,217.879C764.438,217.821 764.348,217.742 764.275,217.648C764.202,217.554 764.149,217.446 764.119,217.331C764.089,217.216 764.082,217.096 764.1,216.978C770.189,169.872 799.505,149.019 813.826,148.328C813.945,148.316 814.066,148.329 814.181,148.366C814.295,148.403 814.401,148.463 814.491,148.543C814.581,148.623 814.653,148.72 814.703,148.83C814.753,148.939 814.78,149.058 814.782,149.178C814.792,149.421 814.707,149.658 814.545,149.84C814.383,150.022 814.157,150.133 813.914,150.152C803.293,150.647 772.349,167.5 765.905,217.208C765.875,217.426 765.767,217.625 765.601,217.768C765.435,217.911 765.222,217.989 765.003,217.987Z" style="fill:white;
	fill-rule:nonzero;" />
		<path d="M749.407,222.431C748.99,219.789 747.946,217.285 746.363,215.129C744.78,212.973 742.704,211.228 740.308,210.039C735.086,207.206 728.73,210.039 722.605,201.489C716.48,192.938 721.844,185.999 720.835,181.857C719.826,177.714 718.764,175.006 711.789,172.032C704.814,169.058 702.938,164.685 705.346,154.878C707.753,145.071 707.629,142.097 701.663,137.795C695.698,133.494 695.414,128.041 701.663,124.448C707.912,120.854 719.029,120.907 727.828,128.714C736.626,136.521 737.741,139.884 747.424,140.823C757.107,141.761 762.648,142.15 764.843,147.903C767.038,153.657 765.905,158.118 764.843,163.499C764.344,165.956 764.679,168.509 765.795,170.753C766.911,172.998 768.744,174.806 771.004,175.891C775.235,177.891 782.28,179.431 784.9,187.15C787.52,194.868 781.714,210.605 774.279,220.271C774.19,220.235 772.42,225.883 749.407,222.431Z" style="fill:rgb(0, 124, 187);
	fill-rule:nonzero;" />
		<path d="M765.604,223.333C765.484,223.333 765.365,223.31 765.255,223.263C765.144,223.217 765.044,223.148 764.96,223.063C764.876,222.977 764.809,222.875 764.765,222.764C764.721,222.652 764.699,222.533 764.702,222.413C764.414,207.311 761.047,192.426 754.806,178.67C744.839,157.162 712.993,131.759 711.046,130.591C710.936,130.555 710.834,130.498 710.748,130.421C710.661,130.345 710.592,130.251 710.543,130.146C710.495,130.041 710.469,129.927 710.467,129.812C710.465,129.696 710.487,129.582 710.532,129.475C710.627,129.245 710.806,129.06 711.034,128.958C711.261,128.856 711.519,128.844 711.754,128.927C712.851,129.281 745.972,155.25 756.452,177.891C762.8,191.906 766.227,207.066 766.525,222.448C766.525,222.568 766.501,222.686 766.454,222.795C766.408,222.905 766.339,223.004 766.253,223.087C766.167,223.17 766.065,223.234 765.954,223.276C765.842,223.319 765.724,223.338 765.604,223.333Z" style="fill:white;
	fill-rule:nonzero;" />
		<path d="M744.539,162.313C744.391,162.314 744.245,162.277 744.114,162.207C737.44,158.542 721.49,161.145 721.331,161.18C721.093,161.211 720.851,161.15 720.657,161.008C720.462,160.866 720.33,160.656 720.287,160.419C720.266,160.301 720.269,160.181 720.296,160.065C720.322,159.949 720.372,159.839 720.441,159.742C720.51,159.645 720.598,159.562 720.699,159.499C720.8,159.436 720.912,159.394 721.03,159.374C721.703,159.268 737.777,156.648 744.981,160.614C745.087,160.671 745.18,160.749 745.255,160.842C745.33,160.936 745.386,161.044 745.419,161.159C745.451,161.274 745.461,161.395 745.447,161.514C745.433,161.633 745.395,161.748 745.335,161.853C745.258,161.995 745.142,162.113 745.002,162.195C744.861,162.276 744.701,162.317 744.539,162.313Z" style="fill:white;
	fill-rule:nonzero;" />
		<path d="M763.958,206.304C763.737,206.329 763.514,206.272 763.33,206.145C763.147,206.018 763.017,205.828 762.963,205.612C762.908,205.396 762.935,205.167 763.036,204.969C763.138,204.77 763.308,204.616 763.516,204.533C771.021,200.462 776.757,188.955 776.81,188.849C776.853,188.727 776.921,188.614 777.01,188.52C777.099,188.426 777.207,188.351 777.327,188.302C777.447,188.252 777.576,188.229 777.706,188.232C777.836,188.236 777.963,188.267 778.08,188.324C778.197,188.38 778.301,188.461 778.384,188.56C778.468,188.66 778.529,188.776 778.565,188.9C778.6,189.025 778.609,189.156 778.59,189.285C778.572,189.413 778.526,189.536 778.456,189.646C778.209,190.141 772.385,201.79 764.383,206.144C764.258,206.233 764.111,206.288 763.958,206.304Z" style="fill:white;
	fill-rule:nonzero;" />
	</g>
</svg>
