<svg id="Logo" xmlns="http://www.w3.org/2000/svg" xmlns:xlink="http://www.w3.org/1999/xlink" viewBox="0 0 124.84 116.52"><defs><style>.cls-1{fill:#58595b;}.cls-2{fill:url(#MJ_RGB_Gradient);}</style><radialGradient id="MJ_RGB_Gradient" cx="80.29" cy="5.69" r="90.27" gradientUnits="userSpaceOnUse"><stop offset="0.19" stop-color="#00cddb"/><stop offset="0.31" stop-color="#0fbcc8"/><stop offset="0.34" stop-color="#19b5c4"/><stop offset="0.4" stop-color="#35a4b8"/><stop offset="0.46" stop-color="#5b8ba7"/><stop offset="0.56" stop-color="#745f9c"/><stop offset="0.68" stop-color="#902d8f"/><stop offset="0.8" stop-color="#902d8f"/></radialGradient></defs><title>MJ VERT Colour Light Bkgnd RGB</title><path class="cls-1" d="M17.65,98.85c.28-.07.38-.21.4-.59.05-1,.05-2.75,0-3.91a.48.48,0,0,0-.14-.43,3.17,3.17,0,0,0-.9-.4.74.74,0,0,1,.07-.55,9.27,9.27,0,0,0,2.35-.62l.05.1c0,.1,0,.69,0,1a.07.07,0,0,0,.12,0A4.29,4.29,0,0,1,22,92.37a2.06,2.06,0,0,1,1.82,1.12.06.06,0,0,0,.1,0,4.69,4.69,0,0,1,2.44-1.12c1.38,0,2.32,1,2.32,2.92,0,1,0,2.42,0,3.16a.42.42,0,0,0,.24.31,3.72,3.72,0,0,0,.92.22,1.06,1.06,0,0,1-.1.69c-.26,0-.83-.05-1.57-.05-.92,0-1.42,0-1.94.05a1.18,1.18,0,0,1,0-.69,5.06,5.06,0,0,0,.59-.14c.26-.09.35-.19.36-.59,0-.74.05-2.85,0-3.39a1.45,1.45,0,0,0-1.5-1.3,2.69,2.69,0,0,0-1.52.59.19.19,0,0,0,0,.1,6.53,6.53,0,0,1,.07,1.28c0,1,0,2.11,0,2.85a.41.41,0,0,0,.33.43c.24.05.4.1.73.16.09.1,0,.64-.09.69-.5,0-1.05,0-1.85,0l-1.66,0a.75.75,0,0,1,0-.69c.28-.05.5-.09.71-.14s.31-.19.33-.5a26.43,26.43,0,0,0,0-3.53,1.4,1.4,0,0,0-1.44-1.3,2.72,2.72,0,0,0-1.52.59.43.43,0,0,0-.12.31c0,1.14,0,3.23,0,4a.43.43,0,0,0,.38.43c.12,0,.38.07.66.12a1.07,1.07,0,0,1-.05.69c-.38,0-1-.05-1.76-.05s-1.35.05-1.8.05A.75.75,0,0,1,17,99,5.58,5.58,0,0,0,17.65,98.85Z"/><path class="cls-1" d="M33.4,99.68c-.33,0-.74-.05-1.92-.05-.78,0-1.5.05-1.78.05a.8.8,0,0,1,0-.69,4.1,4.1,0,0,0,.78-.17c.26-.07.29-.21.31-.54s0-1.38,0-2.3V94.25a.55.55,0,0,0-.16-.38,2.65,2.65,0,0,0-.92-.48.6.6,0,0,1,.1-.54,10.69,10.69,0,0,0,2.49-.52v3.13c0,1,0,2.06,0,2.8a.52.52,0,0,0,.35.57,5.82,5.82,0,0,0,.8.16A1,1,0,0,1,33.4,99.68ZM32,90.86a2,2,0,0,1-.9.05,1.18,1.18,0,0,1-.54-.79c0-.09,0-.52.1-.61a1.71,1.71,0,0,1,1-.36.76.76,0,0,1,.55.16,1.17,1.17,0,0,1,.19.57A1.35,1.35,0,0,1,32,90.86Z"/><path class="cls-1" d="M34,98.87c.24-.05.36-.24.38-.54,0-.48,0-1.71,0-2.82V94.27c-.07-.24-.38-.48-1-.76a.71.71,0,0,1,.12-.52,7.92,7.92,0,0,0,2.25-.64.22.22,0,0,1,.1.14c0,.09,0,.69,0,1,0,0,.09,0,.1,0a4.08,4.08,0,0,1,2.32-1.11,2.08,2.08,0,0,1,1.76.93,3.77,3.77,0,0,1,.48,2.07c0,1,0,2.58,0,3.11a.46.46,0,0,0,.12.24,3.06,3.06,0,0,0,1,.26,1,1,0,0,1-.07.69c-.24,0-.85-.05-1.8-.05-.76,0-1.28.05-1.73.05a1,1,0,0,1,0-.69,2.77,2.77,0,0,0,.71-.14c.22-.07.28-.23.28-.85,0-1.14,0-2.46-.05-3.11a1.48,1.48,0,0,0-.48-1,1.54,1.54,0,0,0-1.05-.36,2.26,2.26,0,0,0-1.42.52.68.68,0,0,0-.19.57c0,1.18,0,2.9,0,3.72,0,.31.09.45.36.52A3.62,3.62,0,0,0,37,99a1,1,0,0,1-.07.69c-.26,0-.78-.05-1.78-.05-.73,0-1.61.05-1.78.05a1,1,0,0,1,0-.69A5.37,5.37,0,0,0,34,98.87Z"/><path class="cls-1" d="M46.76,92.75a2.57,2.57,0,0,0,1,.16,1.28,1.28,0,0,0,1.05-.42c.07,0,.28.12.29.16a2.5,2.5,0,0,1-.42,1.05A.78.78,0,0,1,48,94h-.4a.08.08,0,0,0-.05.05,3.66,3.66,0,0,1,.09.59,2.55,2.55,0,0,1-1.05,2.28,3.57,3.57,0,0,1-1.82.71l-.42,0c-.12,0-.38.17-.38.4s.29.47.74.5a16.32,16.32,0,0,1,2.9.35,1.77,1.77,0,0,1,1.18,1.71,3.43,3.43,0,0,1-2.18,2.92,4.65,4.65,0,0,1-2.06.47,3.4,3.4,0,0,1-2.21-.66,1.9,1.9,0,0,1-.69-2.28,10.18,10.18,0,0,1,1.61-1.26s0,0,0,0a1.56,1.56,0,0,1-1-1,1.21,1.21,0,0,1,.1-.38c.26-.17.86-.5,1.12-.73a.06.06,0,0,0,0-.09,2.31,2.31,0,0,1-1.62-2.42,2.43,2.43,0,0,1,1-2,4.47,4.47,0,0,1,2.26-.76A4.54,4.54,0,0,1,46.76,92.75Zm.67,8.63a1.14,1.14,0,0,0-.85-1.14,6.86,6.86,0,0,0-2.14-.26,1.24,1.24,0,0,0-.62.16c-.64.42-.9.81-.9,1.24a1.34,1.34,0,0,0,.52,1.07,2.66,2.66,0,0,0,1.8.55C46.77,103,47.43,102.15,47.43,101.37Zm-4.15-6.66c0,1,.45,2.11,1.64,2.11a1.17,1.17,0,0,0,.76-.29,2,2,0,0,0,.47-1.38c0-1-.42-2-1.61-2C43.82,93.15,43.28,93.72,43.28,94.72Z"/><path class="cls-1" d="M54.38,97.66a11.41,11.41,0,0,1-.19,2.44,6.55,6.55,0,0,1-2.52,3.68,1.38,1.38,0,0,1-.64-.29.25.25,0,0,1,0-.23c1.18-.76,1.78-2.13,1.78-4.29,0-1.9,0-4.18,0-4.79a.5.5,0,0,0-.36-.47,6.18,6.18,0,0,0-1-.21.68.68,0,0,1,0-.66,15.65,15.65,0,0,0,3-.45C54.43,93.89,54.4,96.59,54.38,97.66ZM54,90.81c-.07.05-.92.21-1,.09a1.1,1.1,0,0,1-.45-.74,1.35,1.35,0,0,1,.07-.66,2,2,0,0,1,1.09-.38c.28,0,.55.09.61.21a1.63,1.63,0,0,1,.09.52A1.36,1.36,0,0,1,54,90.81Z"/><path class="cls-1" d="M62.9,95.93a3.68,3.68,0,0,1-1.62,3.25,4.53,4.53,0,0,1-2.13.66c-2.61,0-3.58-2-3.58-3.79a3.4,3.4,0,0,1,1.54-3,4.65,4.65,0,0,1,2.37-.71A3.35,3.35,0,0,1,62.9,95.93Zm-4.82-2.49a2.28,2.28,0,0,0-.88,2.14c0,2.07,1.05,3.39,2.39,3.39a1.48,1.48,0,0,0,1-.36,2.67,2.67,0,0,0,.66-2.11c0-2-1-3.28-2.39-3.28A1.42,1.42,0,0,0,58.08,93.44Z"/><path class="cls-1" d="M62.93,88.65a10.9,10.9,0,0,0,2.82-.59c.07,0,.17.28.16.35-.17.33-.19.48-.21,1.69s0,2.84,0,3.27c0,0,.05,0,.07,0a4.41,4.41,0,0,1,2.33-1c1.47,0,2.26,1.12,2.26,2.84,0,1,0,2.33,0,3.11a.47.47,0,0,0,.31.5,3.32,3.32,0,0,0,.83.17c.09.07,0,.64-.1.69-.33,0-1-.05-1.8-.05-.62,0-1.52.05-1.75.05a.87.87,0,0,1,0-.69,5.85,5.85,0,0,0,.66-.1c.33-.07.38-.24.4-.86a29.43,29.43,0,0,0-.05-3.27,1.51,1.51,0,0,0-1.61-1.23,2.52,2.52,0,0,0-1.33.43.54.54,0,0,0-.21.42c0,1.19,0,3.18,0,3.68s.05.69.45.81a6.43,6.43,0,0,0,.71.12c.12.09.07.6,0,.69S66,99.63,65,99.63s-1.56.05-1.83.05a.81.81,0,0,1,0-.69,3.63,3.63,0,0,0,.66-.16c.33-.1.38-.22.4-.67s0-2.4,0-2.8c0-3.89,0-4.77,0-5.43,0-.28-.09-.45-.31-.52a9.18,9.18,0,0,0-1-.14C62.8,89.2,62.83,88.69,62.93,88.65Z"/><path class="cls-1" d="M75.22,94.08a1.53,1.53,0,0,0-1.28-.64,1.33,1.33,0,0,0-.78.17,5.34,5.34,0,0,0-.73,1.24c-.07.09-.69-.21-.66-.36a4.07,4.07,0,0,1,.48-1.19,6.2,6.2,0,0,1,2.35-.93,2.11,2.11,0,0,1,1.81,1,3.09,3.09,0,0,1,.43,1.75c0,.88-.07,2.23-.07,3,0,.4.16.64.67.64a2.36,2.36,0,0,0,.62-.09,1.76,1.76,0,0,1-.09.67,2.28,2.28,0,0,1-1.5.59,1,1,0,0,1-1-.5,1.41,1.41,0,0,1-.14-.38s-.07,0-.09,0a4.61,4.61,0,0,1-2.16.9,1.57,1.57,0,0,1-1-.48,2.24,2.24,0,0,1-.6-1.56,2.16,2.16,0,0,1,.4-1.11c.66-.33,2.61-.74,3.32-1.11a.45.45,0,0,0,.12-.17,1.09,1.09,0,0,0,0-.29A1.88,1.88,0,0,0,75.22,94.08Zm.09,2.18c-.48.19-1.59.52-2,.74a.88.88,0,0,0-.21.57,1.11,1.11,0,0,0,1.21,1.12,1.63,1.63,0,0,0,.83-.28.54.54,0,0,0,.23-.43c0-.22,0-1.33,0-1.64C75.42,96.33,75.36,96.24,75.31,96.26Z"/><path class="cls-1" d="M78.49,98.87c.24-.05.36-.24.38-.54,0-.48,0-1.71,0-2.82V94.27c-.07-.24-.38-.48-1-.76A.71.71,0,0,1,78,93a7.92,7.92,0,0,0,2.25-.64.22.22,0,0,1,.1.14c0,.09,0,.69,0,1,0,0,.09,0,.1,0a4.08,4.08,0,0,1,2.32-1.11,2.07,2.07,0,0,1,1.76.93A3.76,3.76,0,0,1,85,95.38c0,1,0,2.58,0,3.11a.46.46,0,0,0,.12.24,3.06,3.06,0,0,0,1,.26,1,1,0,0,1-.07.69c-.24,0-.85-.05-1.8-.05-.76,0-1.28.05-1.73.05a1,1,0,0,1,0-.69,2.77,2.77,0,0,0,.71-.14c.22-.07.28-.23.28-.85,0-1.14,0-2.46-.05-3.11a1.48,1.48,0,0,0-.48-1A1.54,1.54,0,0,0,82,93.56a2.26,2.26,0,0,0-1.42.52.68.68,0,0,0-.19.57c0,1.18,0,2.9,0,3.72,0,.31.09.45.36.52a3.62,3.62,0,0,0,.71.1,1,1,0,0,1-.07.69c-.26,0-.78-.05-1.78-.05-.73,0-1.61.05-1.78.05a1,1,0,0,1,0-.69A5.37,5.37,0,0,0,78.49,98.87Z"/><path class="cls-1" d="M90.88,94.55a.86.86,0,0,1-.62,0c-.14-.73-.26-1.05-.57-1.28a1.48,1.48,0,0,0-.92-.28,1,1,0,0,0-1.05,1c0,.59.36.93,1.73,1.5s1.88,1.26,1.88,2.14c0,1.33-1.26,2.21-2.92,2.21a5.37,5.37,0,0,1-1.92-.35,10.69,10.69,0,0,1-.35-2,1.14,1.14,0,0,1,.66-.21,2.62,2.62,0,0,0,1,1.56,2.27,2.27,0,0,0,1,.24c.73,0,1.11-.36,1.11-.88s-.31-.92-1.52-1.45c-1.37-.62-2-1.26-2-2.25s.9-2.14,2.71-2.14a7.81,7.81,0,0,1,1.26.12c.31.05.57.1.74.12C91,93.11,90.94,93.77,90.88,94.55Z"/><path class="cls-1" d="M99.15,95.93a3.68,3.68,0,0,1-1.62,3.25,4.53,4.53,0,0,1-2.13.66c-2.61,0-3.58-2-3.58-3.79a3.4,3.4,0,0,1,1.54-3,4.65,4.65,0,0,1,2.37-.71A3.35,3.35,0,0,1,99.15,95.93Zm-4.82-2.49a2.28,2.28,0,0,0-.88,2.14c0,2.07,1.05,3.39,2.39,3.39a1.48,1.48,0,0,0,1-.36,2.67,2.67,0,0,0,.66-2.11c0-2-1-3.28-2.39-3.28A1.42,1.42,0,0,0,94.32,93.44Z"/><path class="cls-1" d="M100.22,98.87c.24-.05.36-.24.38-.54,0-.48,0-1.71,0-2.82V94.27c-.07-.24-.38-.48-1-.76a.71.71,0,0,1,.12-.52,7.92,7.92,0,0,0,2.25-.64.22.22,0,0,1,.1.14c0,.09,0,.69,0,1,0,0,.09,0,.1,0a4.08,4.08,0,0,1,2.32-1.11,2.07,2.07,0,0,1,1.76.93,3.76,3.76,0,0,1,.48,2.07c0,1,0,2.58,0,3.11a.46.46,0,0,0,.12.24,3.06,3.06,0,0,0,1,.26,1,1,0,0,1-.07.69c-.24,0-.85-.05-1.8-.05-.76,0-1.28.05-1.73.05a1,1,0,0,1,0-.69,2.77,2.77,0,0,0,.71-.14c.22-.07.28-.23.28-.85,0-1.14,0-2.46-.05-3.11a1.48,1.48,0,0,0-.48-1,1.54,1.54,0,0,0-1.05-.36,2.26,2.26,0,0,0-1.42.52.68.68,0,0,0-.19.57c0,1.18,0,2.9,0,3.72,0,.31.09.45.36.52a3.62,3.62,0,0,0,.71.1,1,1,0,0,1-.07.69c-.26,0-.78-.05-1.78-.05-.73,0-1.61.05-1.78.05a1,1,0,0,1,0-.69A5.37,5.37,0,0,0,100.22,98.87Z"/><path class="cls-2" d="M98.14,27.09c-.35.24-.57-.06-.8-.43.17-.32.76-.4.92-.21A.5.5,0,0,1,98.14,27.09Zm-3.71-6.14a.12.12,0,0,0,.06-.17C94.35,20.77,94.3,20.9,94.43,20.95ZM77.6,19.26c.26-.15.51-.44.4-.69,0-.06-.28-.26-.36-.25s-.19.14-.34.21a.8.8,0,0,0,.13.68A.18.18,0,0,1,77.6,19.26ZM93,19.08a4.08,4.08,0,0,0-1.41.43c0,.11.2.05.29.05a2.4,2.4,0,0,0,.37,0,3.39,3.39,0,0,1,.75-.16c.17,0,.33.12.47.09a.85.85,0,0,0,.63-.54A.72.72,0,0,0,93,19.08ZM90.62,16c-.08-.29-.55,0-.65.14C90.07,16.43,90.6,16.29,90.62,16ZM84.33,17.5c0,.11.06.15.13.24C84.87,17.62,84.72,17.18,84.33,17.5ZM81.58,31.28c-.1,0,0,.09,0,.14S81.62,31.34,81.58,31.28Zm.2.88a.35.35,0,0,0-.08-.44A.23.23,0,0,0,81.78,32.16Zm-1.85-2.09c-.06.12-.15.22,0,.39H80C80.19,30.32,80.08,30.13,79.92,30.08Zm4.71,2.39c0-.28-.21-.59-.45-.65-.12-.27-.05-.6-.21-.84s-.47-.25-.7-.38c-.17,0-.45-.06-.55.19a9.31,9.31,0,0,1,.57,1.09.68.68,0,0,0,.75-.16.38.38,0,0,1,.17.39c.37.35.62,1,1,1.34A1.14,1.14,0,0,0,84.64,32.47Zm1.26,3c0,.05.15-.06,0-.06S85.92,35.43,85.89,35.44Zm-4.51-4.91a.18.18,0,0,0,0-.15,2.73,2.73,0,0,0,0,.36c.06,0,.07.08.12.08s.13-.12.25-.17l-.1-.19C81.49,30.54,81.46,30.47,81.38,30.54Zm-2.11-.76a.22.22,0,0,0,0-.32C79.15,29.53,79.19,29.65,79.27,29.77ZM89.35,16.27s.07,0,.1,0,0-.1,0-.16S89.41,16.24,89.35,16.27ZM78.2,30.57c.08,0,.07-.09.12-.13a.18.18,0,0,0-.1-.12C78.15,30.39,78.12,30.54,78.2,30.57Zm-.71-1,.1.19a.28.28,0,0,0,.06-.4C77.56,29.43,77.59,29.52,77.49,29.58Zm1.89,1c.25-.09.13-.33,0-.4l-.09,0C79.21,30.31,79.32,30.44,79.38,30.57Zm-1-.68c-.15.06-.1.18-.13.27S78.43,30,78.41,29.88Zm.78,1.63c.16.08.43-.11.43-.26s-.18-.2-.27-.3C79.13,31.1,79,31.28,79.19,31.51ZM90.54,21.42a4.18,4.18,0,0,0-.73.28c.1.14.29,0,.51,0,.4,0,.72.25.93-.25C91.12,21.24,90.88,21.27,90.54,21.42Zm.09-.76a.7.7,0,0,0,.44-.4c-.11-.34-.39-.25-.69-.08C90.26,20.37,90.52,20.65,90.63,20.66Zm-2.27,4.25c.18.15.13-.17,0,0Zm4.12-4.71c.14.09.27-.18.11-.23S92.51,20.12,92.48,20.2Zm2.83,5.18.06.11C95.56,25.43,95.47,25.23,95.31,25.38Zm.83,3.33c-.12.07,0,.28.06.34s.31-.14.29-.25A.28.28,0,0,0,96.14,28.71Zm-9.36,7.12c-.1-.24-.26-.32-.4-.47-.09.3.26.46.41.7s.07.31.15.43a.74.74,0,0,0,.48.26C87.77,36.27,87.12,36,86.78,35.83Zm3.65-5.68c-.16.36.22.73.53.5S90.82,29.9,90.42,30.15Zm-5.95-1-.06,0a.15.15,0,0,0,.11.21l.06,0A.15.15,0,0,0,84.48,29.18Zm1.09-1.56a.18.18,0,0,0-.05.33s.06,0,.07,0S85.72,27.67,85.57,27.63Zm1.9-3.92c-.16-.51-.7,0-.39.27C87.26,24,87.43,23.83,87.47,23.71Zm-11-3.59c-.6-.27-1.19-.56-1.78-.85a26.25,26.25,0,0,0-11.11-2.67,27.29,27.29,0,0,0-2.85.13,21.78,21.78,0,0,0-2.82.41,25.5,25.5,0,0,0-10.29,4.54,26.61,26.61,0,0,0-7.36,8.38,24.78,24.78,0,0,0-3.13,10.62,25.73,25.73,0,0,0,7.57,20.12,26.59,26.59,0,0,0,9.29,5.89h0a.5.5,0,0,0,.32-.95A24,24,0,0,1,41.52,30.81,23.73,23.73,0,0,1,58.28,19.48a19.39,19.39,0,0,1,2.57-.24,24.69,24.69,0,0,1,2.58,0,23.88,23.88,0,0,1,5,.91A23.28,23.28,0,0,1,72.95,22l.78.44a6.68,6.68,0,0,1,2,1.92.38.38,0,0,1-.08.08c-.16.11-.4,0-.58.13s-.25.23-.23.36.3.28.51.31c.12.19.2.37.12.52-.2,0-.32.1-.43.26.11.21.42-.09.59,0s.22.25.22.43c-.16.09-.42,0-.43.26.06.11.27-.17.29.05.11-.06.05-.16.11-.23.43-.06.77.7.62,1-.21.07-.61.11-.73.35.21.12.6,0,.84-.2s.46.26.62.39a.68.68,0,0,1,.32.61c-.21.13-.19.31-.16.49A1.07,1.07,0,0,1,78.5,29c0,.19,0,.35,0,.54.13-.11.29-.32.51-.34a.29.29,0,0,1,.22.19c.37-.43.86-.14,1.26-.22a1,1,0,0,1,.39-.2V29H81c.21.43.11.78.33,1.22a1.62,1.62,0,0,0,.12-.5c-.23-.27-.17-.55-.33-.78L81,29l0,0v-.06h-.06c.09-.2.4-.18.6-.24a2.25,2.25,0,0,1,.77.52c.06.06.15.09.19.14.18.22.2.53.5.52.12-.34-.38-.6-.37-1,.07-.15.11-.3.19-.44a1.92,1.92,0,0,0,.4-.25c.5.1.87.53,1.48.35.07-.33-.56-.42-.58-.89.1,0,.55-.12.58-.34s-.41-.1-.63-.11c0-.32-.33-.61-.31-.89s.2-.28.32-.47c-.2-.52,0-.8.33-1.19.19-.22.45-.37.62-.56s.2-.48.36-.7c.08,0,.14.07.26.07s.26-.26.36-.39.58-.29.53-.52c-.09.06-.21,0-.32,0-.33.06-.64.25-1,.35-.56.16-1.32.24-1.6-.29.15-.19.37-.39.18-.6-.23,0-.47,0-.69.06-.29-.33,0-.7.17-1,0-.08.08-.2.13-.27.19-.3.76-.34,1-.57.11-.09.12-.43.28-.62s.88-.6,1.13-.9c.09-.1.11-.27.19-.37s.15-.11.18-.16a1.81,1.81,0,0,1,.11-.37c0-.08.15-.13.2-.21.37-.56,0-1.1-.81-.53-.09.06-.15.19-.27.28-.31.23-.68.37-.83.6,0,.05-.1.27-.11.3s.06,0,.06,0c-.1.23-.37.39-.34.65A6.61,6.61,0,0,0,83,20.33a2.26,2.26,0,0,1-1.23.41c0-.48.66-.81.43-1.35-.41.11-.35.36-.46.65a3.75,3.75,0,0,1-.33.75c-.24.3-.48,0-.88.29-.19-.21-.39,0-.49-.29s.32-.6-.05-.82a.3.3,0,0,0-.24.13c-.23.21,0,.29,0,.55a.66.66,0,0,1-.1.39.73.73,0,0,1-.75-.42c-.1-.2,0-.55-.25-.69-.09.06-.13,0-.22.08v0l0,0c.06-.35-.4-.23-.4,0a.25.25,0,0,0,.23.15l.06,0v0l0,0a1.21,1.21,0,0,1-.13.66l-.29-.1a.27.27,0,0,0-.21-.07c-.34-.13-.67-.26-1-.4ZM77.61,31.9a1,1,0,0,0,.24-.57C77.7,31.51,77.51,31.67,77.61,31.9Zm5.06,14.21a1.07,1.07,0,0,1,0,.7,2,2,0,0,1-.18.37,3.27,3.27,0,0,1-.42.53A16.48,16.48,0,0,0,80.79,49a10.74,10.74,0,0,1-1.29,1.29c-.46.4-.9.82-1.38,1.19s-.8.63-1.21.93c-.93,3-2,5.84-3.15,8.67a66.76,66.76,0,0,1-4.18,8.62,39.45,39.45,0,0,1-5.84,7.62,19.5,19.5,0,0,1-3.79,3,7.28,7.28,0,0,1-4.8,1.17,4.48,4.48,0,0,1-2.32-1.14A3.72,3.72,0,0,1,51.76,78a10.42,10.42,0,0,1,1-4.8,30.62,30.62,0,0,1,5.23-8,68.55,68.55,0,0,1,7-6.46c2.39-2,4.86-3.87,7.32-5.75.68-2.65,1.32-5.31,2-7.95l1.07-4,.36-1.37,0,.05-1.44,1.52-2.89,3-2.91,3-.38.39a3,3,0,0,1-.58.46h0a4.73,4.73,0,0,1-2,1,2.58,2.58,0,0,1-.9,0,3.22,3.22,0,0,1-.77-.23A3.7,3.7,0,0,1,62.57,48a5.21,5.21,0,0,1-1.2-2.57,10.29,10.29,0,0,1-.12-2.59,11.09,11.09,0,0,1,.4-2.39c.2-.77.41-1.53.64-2.27l0-.15c-.29.26-.57.55-.84.83a64.94,64.94,0,0,0-5.59,7.31c-.21.31-.43.62-.61.93s-.16.28-.26.47-.21.37-.32.55A6.3,6.3,0,0,1,52.93,50a2.4,2.4,0,0,1-.72.32,1.36,1.36,0,0,1-1.06-.12,1.23,1.23,0,0,1-.55-1,2.7,2.7,0,0,1,.1-.75,19.44,19.44,0,0,1,.84-2.26l1.72-4.3.86-2.15.39-1.07,0-.11c-.25.24-.5.5-.75.75-.53.55-1.05,1.12-1.57,1.69-1,1.15-2.07,2.31-3,3.5a43,43,0,0,0-2.72,3.73c-.19.32-.37.68-.6,1a2.14,2.14,0,0,1-.94.84,4,4,0,0,1-.59.16.92.92,0,0,1-.69-.06A1.19,1.19,0,0,1,43.15,49a6.65,6.65,0,0,1,.42-1.13L44,46.78l.89-2.14,1.76-4.3L48.41,36c.22-.52.42-1.05.65-1.57l0-.13a1.88,1.88,0,0,1,.18-.39l0,0a.93.93,0,0,1,1-.39,5.44,5.44,0,0,1,.62.21l.14.08.05,0a.63.63,0,0,1,.15.19l0,0s0,0,0,.06a1.17,1.17,0,0,1,.05.48,3,3,0,0,1-.2.89h0c-.21.61-.62,1.72-1.07,2.92l0,.06-1.6,4.36c-.13.36-.26.73-.39,1.09,0,.09-.06.18-.08.28a.56.56,0,0,0,0,.13s0,0,.06,0a4.1,4.1,0,0,0,.37-.44c.47-.61,1-1.19,1.48-1.79l3-3.57c.5-.59,1-1.22,1.52-1.77a7.64,7.64,0,0,1,.89-.78,1.77,1.77,0,0,1,1.22-.34,1.29,1.29,0,0,1,1,.79,2.08,2.08,0,0,1,.08,1.27L57,39.92l-.6,2.24-.15.56c.65-.89,1.31-1.81,2-2.68,1-1.23,2-2.41,3-3.56.53-.57,1.07-1.14,1.65-1.69a6.31,6.31,0,0,1,.48-.42,2,2,0,0,1,.71-.35,1.69,1.69,0,0,1,1.62.42,2,2,0,0,1,.53,1.48,8.73,8.73,0,0,1-.08,1.25c-.1.8-.25,1.57-.39,2.32s-.27,1.51-.35,2.25-.11,1.51-.15,2.26a10.57,10.57,0,0,0,.06,2.14,1,1,0,0,0,.05.19,1.38,1.38,0,0,0,.45-.23L66,46a6.09,6.09,0,0,1,.5-.55l.74-.74,5.89-5.91c1-1,1.93-2,2.86-3l1.41-1.51c.25-.26.41-.46.8-.85a1.51,1.51,0,0,1,1-.44,1.14,1.14,0,0,1,.8.34,1.4,1.4,0,0,1,.32.51,2.94,2.94,0,0,1,.11,1.42c0,.38-.11.72-.17,1.07l-.4,2.07c-.27,1.38-.58,2.74-.89,4.11q-.74,3.21-1.59,6.4c.59-.5,1.19-1,1.77-1.5s1-.91,1.54-1.37l.19-.17a1.7,1.7,0,0,1,.34-.26,1.09,1.09,0,0,1,.63-.15.9.9,0,0,1,.77.61ZM51.3,34h0ZM48,37.21c.37-.93.71-1.76.93-2.36-.16.4-.31.8-.47,1.2ZM71,56.8a69.22,69.22,0,0,0-10.78,8.38,27.51,27.51,0,0,0-4.81,6.32A15.51,15.51,0,0,0,54,75.16c-.28,1.22-.39,2.63.27,3.47a1.83,1.83,0,0,0,1.34.69,3.07,3.07,0,0,0,1.62-.41,11.79,11.79,0,0,0,2.88-2.44,57.27,57.27,0,0,0,4.8-6.27,37.44,37.44,0,0,0,3.8-7c.52-1.23,1-2.48,1.46-3.74C70.47,58.62,70.76,57.72,71,56.8Z"/></svg>