<?xml version="1.0" standalone="no"?>
<svg xmlns="http://www.w3.org/2000/svg" version="1.2" baseProfile="tiny" width="159" height="256" viewBox="0 0 159 256">
<rect x="0" y="0" width="159" height="256" id="0" fill="rgb(222,224,226)" fill-opacity="1" />
<ellipse cx="32" cy="16" rx="158" ry="19" id="1" fill="rgb(41,41,44)" fill-opacity="0.501961" />
<ellipse cx="99" cy="0" rx="32" ry="25" id="2" fill="rgb(255,255,255)" fill-opacity="0.501961" />
<ellipse cx="82" cy="85" rx="158" ry="51" id="3" fill="rgb(255,255,255)" fill-opacity="0.501961" />
<ellipse cx="96" cy="31" rx="143" ry="3" id="4" fill="rgb(33,36,13)" fill-opacity="0.501961" />
<ellipse cx="68" cy="223" rx="158" ry="69" id="5" fill="rgb(249,253,255)" fill-opacity="0.501961" />
<ellipse cx="146" cy="7" rx="17" ry="21" id="6" fill="rgb(15,23,35)" fill-opacity="0.501961" />
<ellipse cx="91" cy="8" rx="17" ry="33" id="7" fill="rgb(236,231,232)" fill-opacity="0.501961" />
<ellipse cx="36" cy="151" rx="23" ry="18" id="8" fill="rgb(143,184,220)" fill-opacity="0.501961" />
<ellipse cx="142" cy="24" rx="38" ry="5" id="9" fill="rgb(49,22,0)" fill-opacity="0.501961" />
<ellipse cx="1" cy="150" rx="14" ry="115" id="10" fill="rgb(255,255,255)" fill-opacity="0.501961" />
<ellipse cx="49" cy="27" rx="36" ry="5" id="11" fill="rgb(27,40,45)" fill-opacity="0.501961" />
<ellipse cx="158" cy="156" rx="15" ry="122" id="12" fill="rgb(255,255,255)" fill-opacity="0.501961" />
<ellipse cx="60" cy="151" rx="49" ry="3" id="13" fill="rgb(85,149,205)" fill-opacity="0.501961" />
<ellipse cx="61" cy="4" rx="20" ry="11" id="14" fill="rgb(57,83,134)" fill-opacity="0.501961" />
<ellipse cx="138" cy="231" rx="5" ry="4" id="15" fill="rgb(0,76,169)" fill-opacity="0.501961" />
<ellipse cx="61" cy="211" rx="57" ry="8" id="16" fill="rgb(198,213,227)" fill-opacity="0.501961" />
<ellipse cx="106" cy="8" rx="30" ry="10" id="17" fill="rgb(231,229,230)" fill-opacity="0.501961" />
<ellipse cx="118" cy="29" rx="15" ry="7" id="18" fill="rgb(11,5,0)" fill-opacity="0.501961" />
<ellipse cx="77" cy="86" rx="42" ry="47" id="19" fill="rgb(252,251,250)" fill-opacity="0.501961" />
<ellipse cx="31" cy="145" rx="98" ry="4" id="20" fill="rgb(255,254,252)" fill-opacity="0.501961" />
<ellipse cx="64" cy="137" rx="15" ry="5" id="21" fill="rgb(118,169,213)" fill-opacity="0.501961" />
<ellipse cx="68" cy="245" rx="158" ry="5" id="22" fill="rgb(255,255,255)" fill-opacity="0.501961" />
<ellipse cx="132" cy="84" rx="12" ry="3" id="23" fill="rgb(150,148,146)" fill-opacity="0.501961" />
<ellipse cx="115" cy="43" rx="86" ry="9" id="24" fill="rgb(250,250,249)" fill-opacity="0.501961" />
<ellipse cx="153" cy="7" rx="22" ry="7" id="25" fill="rgb(95,119,161)" fill-opacity="0.501961" />
<ellipse cx="45" cy="174" rx="31" ry="3" id="26" fill="rgb(174,196,219)" fill-opacity="0.501961" />
<ellipse cx="16" cy="161" rx="1" ry="16" id="27" fill="rgb(45,126,192)" fill-opacity="0.501961" />
<ellipse cx="66" cy="18" rx="47" ry="4" id="28" fill="rgb(200,196,197)" fill-opacity="0.501961" />
<ellipse cx="43" cy="198" rx="35" ry="2" id="29" fill="rgb(166,192,217)" fill-opacity="0.501961" />
<ellipse cx="117" cy="133" rx="12" ry="37" id="30" fill="rgb(251,251,249)" fill-opacity="0.501961" />
<ellipse cx="39" cy="0" rx="27" ry="4" id="31" fill="rgb(36,70,130)" fill-opacity="0.501961" />
<ellipse cx="131" cy="24" rx="10" ry="11" id="32" fill="rgb(85,63,36)" fill-opacity="0.501961" />
<ellipse cx="64" cy="157" rx="156" ry="3" id="33" fill="rgb(255,252,247)" fill-opacity="0.501961" />
<ellipse cx="27" cy="163" rx="16" ry="2" id="34" fill="rgb(90,145,195)" fill-opacity="0.501961" />
<ellipse cx="8" cy="22" rx="12" ry="2" id="35" fill="rgb(255,230,157)" fill-opacity="0.501961" />
<ellipse cx="155" cy="30" rx="23" ry="4" id="36" fill="rgb(240,185,132)" fill-opacity="0.501961" />
<ellipse cx="99" cy="36" rx="6" ry="51" id="37" fill="rgb(244,241,239)" fill-opacity="0.501961" />
<ellipse cx="75" cy="113" rx="77" ry="23" id="38" fill="rgb(246,246,246)" fill-opacity="0.501961" />
<ellipse cx="83" cy="26" rx="14" ry="5" id="39" fill="rgb(147,135,131)" fill-opacity="0.501961" />
<ellipse cx="158" cy="163" rx="8" ry="129" id="40" fill="rgb(255,255,255)" fill-opacity="0.501961" />
<ellipse cx="39" cy="137" rx="22" ry="2" id="41" fill="rgb(95,154,204)" fill-opacity="0.501961" />
<ellipse cx="57" cy="12" rx="25" ry="3" id="42" fill="rgb(108,105,108)" fill-opacity="0.501961" />
<ellipse cx="135" cy="137" rx="9" ry="5" id="43" fill="rgb(159,156,119)" fill-opacity="0.501961" />
<ellipse cx="0" cy="185" rx="15" ry="126" id="44" fill="rgb(255,254,253)" fill-opacity="0.501961" />
<ellipse cx="118" cy="12" rx="17" ry="4" id="45" fill="rgb(176,161,158)" fill-opacity="0.501961" />
<ellipse cx="0" cy="7" rx="46" ry="3" id="46" fill="rgb(174,170,177)" fill-opacity="0.501961" />
<ellipse cx="120" cy="230" rx="10" ry="5" id="47" fill="rgb(154,189,218)" fill-opacity="0.501961" />
<ellipse cx="113" cy="29" rx="8" ry="5" id="48" fill="rgb(0,0,0)" fill-opacity="0.501961" />
<ellipse cx="148" cy="21" rx="18" ry="7" id="49" fill="rgb(43,40,19)" fill-opacity="0.501961" />
<ellipse cx="63" cy="149" rx="46" ry="3" id="50" fill="rgb(150,186,217)" fill-opacity="0.501961" />
<ellipse cx="48" cy="163" rx="3" ry="5" id="51" fill="rgb(88,145,196)" fill-opacity="0.501961" />
<ellipse cx="11" cy="141" rx="4" ry="101" id="52" fill="rgb(235,235,234)" fill-opacity="0.501961" />
<ellipse cx="130" cy="170" rx="24" ry="24" id="53" fill="rgb(245,243,242)" fill-opacity="0.501961" />
<ellipse cx="28" cy="37" rx="38" ry="3" id="54" fill="rgb(255,255,255)" fill-opacity="0.501961" />
<ellipse cx="77" cy="179" rx="4" ry="36" id="55" fill="rgb(243,241,241)" fill-opacity="0.501961" />
<ellipse cx="38" cy="166" rx="15" ry="1" id="56" fill="rgb(46,119,185)" fill-opacity="0.501961" />
<ellipse cx="65" cy="211" rx="64" ry="3" id="57" fill="rgb(255,250,245)" fill-opacity="0.501961" />
<ellipse cx="79" cy="207" rx="36" ry="2" id="58" fill="rgb(160,189,217)" fill-opacity="0.501961" />
<ellipse cx="51" cy="27" rx="16" ry="5" id="59" fill="rgb(42,58,62)" fill-opacity="0.501961" />
<ellipse cx="133" cy="36" rx="28" ry="2" id="60" fill="rgb(255,255,255)" fill-opacity="0.501961" />
<ellipse cx="41" cy="18" rx="20" ry="4" id="61" fill="rgb(138,138,148)" fill-opacity="0.501961" />
<ellipse cx="131" cy="215" rx="12" ry="2" id="62" fill="rgb(159,188,216)" fill-opacity="0.501961" />
<ellipse cx="33" cy="122" rx="7" ry="17" id="63" fill="rgb(242,243,243)" fill-opacity="0.501961" />
<ellipse cx="96" cy="133" rx="16" ry="14" id="64" fill="rgb(246,245,245)" fill-opacity="0.501961" />
<ellipse cx="37" cy="182" rx="17" ry="2" id="65" fill="rgb(171,196,219)" fill-opacity="0.501961" />
<ellipse cx="45" cy="140" rx="33" ry="2" id="66" fill="rgb(133,176,213)" fill-opacity="0.501961" />
<ellipse cx="33" cy="10" rx="46" ry="1" id="67" fill="rgb(72,75,88)" fill-opacity="0.501961" />
<ellipse cx="0" cy="18" rx="6" ry="3" id="68" fill="rgb(62,42,0)" fill-opacity="0.501961" />
<ellipse cx="24" cy="12" rx="17" ry="2" id="69" fill="rgb(83,80,91)" fill-opacity="0.501961" />
<ellipse cx="88" cy="118" rx="4" ry="39" id="70" fill="rgb(249,247,245)" fill-opacity="0.501961" />
<ellipse cx="82" cy="0" rx="13" ry="5" id="71" fill="rgb(216,217,222)" fill-opacity="0.501961" />
<ellipse cx="98" cy="0" rx="13" ry="11" id="72" fill="rgb(246,254,255)" fill-opacity="0.501961" />
<ellipse cx="105" cy="198" rx="23" ry="3" id="73" fill="rgb(184,204,223)" fill-opacity="0.501961" />
<ellipse cx="148" cy="85" rx="9" ry="29" id="74" fill="rgb(248,247,247)" fill-opacity="0.501961" />
<ellipse cx="73" cy="244" rx="140" ry="4" id="75" fill="rgb(255,255,255)" fill-opacity="0.501961" />
<ellipse cx="0" cy="29" rx="24" ry="4" id="76" fill="rgb(103,122,99)" fill-opacity="0.501961" />
<ellipse cx="41" cy="144" rx="34" ry="3" id="77" fill="rgb(255,249,243)" fill-opacity="0.501961" />
<ellipse cx="35" cy="128" rx="3" ry="22" id="78" fill="rgb(250,247,244)" fill-opacity="0.501961" />
<ellipse cx="155" cy="183" rx="5" ry="150" id="79" fill="rgb(255,255,255)" fill-opacity="0.501961" />
<ellipse cx="140" cy="0" rx="12" ry="7" id="80" fill="rgb(85,94,126)" fill-opacity="0.501961" />
<ellipse cx="39" cy="32" rx="28" ry="2" id="81" fill="rgb(24,59,55)" fill-opacity="0.501961" />
<ellipse cx="145" cy="197" rx="7" ry="38" id="82" fill="rgb(240,240,239)" fill-opacity="0.501961" />
<ellipse cx="16" cy="218" rx="2" ry="8" id="83" fill="rgb(173,197,220)" fill-opacity="0.501961" />
<ellipse cx="129" cy="87" rx="13" ry="2" id="84" fill="rgb(162,165,168)" fill-opacity="0.501961" />
<ellipse cx="126" cy="21" rx="8" ry="6" id="85" fill="rgb(127,99,77)" fill-opacity="0.501961" />
</svg>